<?xml version="1.0" encoding="UTF-8"?>
<svg id="Layer_2" data-name="Layer 2" xmlns="http://www.w3.org/2000/svg" viewBox="0 0 249.33 143.28">
  <defs>
    <style>
      .cls-1 {
        fill: #993;
      }
    </style>
  </defs>
  <g id="Layer_1-2" data-name="Layer 1">
    <path class="cls-1" d="M230.68,9.36c-7.21-6.57-18.31-5.61-28.11-4.76-3.82.34-7.43.64-10.54.5h-.22s-41.42,7.66-41.42,7.66c-5.8-15.86-18.69-13.39-31.18-11l-1.91.36C62.21,12.47,23.98,24.85,3.67,38.9c-.28.19-.57.43-.87.74C.88,41.52-.13,44.23.01,47.04l1.73,32.7c.46,5.21,2.71,14.19,6.66,22.5,3.21,6.75,8.58,15.15,15.89,16.84,5.15,1.18,10.18.45,15.06-.26,2.89-.43,5.64-.83,8.38-.85,1.37,1.67,4.53,8.22,6.47,12.25,1.88,3.89,3.5,7.24,4.51,8.76.13.18.26.41.39.63.42.71,1.04,1.71,1.91,2.5.86.79,1.99,1.34,3.42,1.13,4.03-.57,6.15-7.91,9.27-19.83,1.26-4.76,2.66-10.1,3.8-12.23l41.2-6.98c3.38,11.26,10.52,13.99,16.06,14.24,12.33.56,28.57-3.05,42.9-6.23,6.41-1.42,12.48-2.77,17.81-3.67.68-.12,1.46-.27,2.29-.41,2.79-.53,6.63-1.23,8.71-1.14,2.41.1,9.74,3.71,15.62,6.59,5.23,2.57,10.17,5,13.11,5.85.28.08.57.18.86.27,1.06.37,2.42.83,3.91.62.51-.07,1.03-.23,1.57-.48l.35-.17.26-.29c4.59-5.1,2.34-10.15.53-14.2-.78-1.74-1.52-3.39-1.84-5.04,8.21-6.04,8.85-15.03,8.35-23.09-.67-10.68-6.05-56.29-18.52-67.67ZM229.71,91.1c-3.49,3.16-2.65,8.8-.48,13.62-3.37-1.16-9.28-4.57-12.49-6.41-4.27-2.46-6.76-3.86-8.32-4.26l-.57-.14-.55.18c-14.32,4.75-28.69,7-43.92,9.37-2.13.34-4.27.67-6.41,1.02-1.23.19-2.32.61-3.37,1.01-.9.35-1.75.67-2.58.8-.62.1-1.29.21-2.02.34-5.34.89-14.29,2.39-17.67-.16-2.78-2.09-3.26-3.09-3.35-3.35.25-.3,1.28-1,5.42-2.02,1.9-.47,3.87-.87,5.96-1.28,9.55-1.9,20.38-4.06,25.06-14.58l.25-.56-10.99-59.77c1.98-1.05,7.04-1.57,9.93-1.86,1.79-.18,3.33-.35,4.51-.58,11.33-2.2,24.52-4.62,37.6-5.33,14.23-.78,17.67.26,21.82,13.04,3.76,11.55,6.96,28.49,8.15,43.16.37,4.49.47,12.49-.09,13.87-.41.98-1.34,1.44-2.84,2.13-1.04.47-2.13.97-3.05,1.8Z"/>
  </g>
</svg>