<?xml version="1.0" encoding="UTF-8"?>
<svg xmlns="http://www.w3.org/2000/svg" version="1.1" viewBox="0 0 1920 1080">
  <defs>
    <style>
      .cls-1 {
        fill: #f47a21;
      }

      .cls-2 {
        fill: #840d30;
      }

      .cls-3 {
        fill: #459495;
      }

      .cls-4 {
        fill: #f2f2f2;
      }

      .cls-5 {
        fill: #b3b3b3;
      }
    </style>
  </defs>
  <!-- Generator: Adobe Illustrator 28.7.9, SVG Export Plug-In . SVG Version: 1.2.0 Build 218)  -->
  <g>
    <g id="a">
      <path class="cls-2" d="M637.6-1958c-54.1,81.5-115.1,157.6-181.9,226.8-19.4,20.1-40,40.1-64.7,50.6-9.1,3.9-20.4,5.9-27.2-1.3-3.1-3.3-4.6-7.9-5.6-12.5-6.7-31.1,7.6-63.9,25.6-90,18-26.1,40.3-49,54.1-78-10.8-10.3-27.1-11.5-41.2-6.8-14,4.7-26.3,14.4-38,24.4-67.8,57.6-129.2,129.7-210,159.4-14.4,5.3-31,8.9-43.9.8-6.9-4.4-11.8-11.6-15.2-19.6-14.7-34.7.9-78.5,27.2-105.3,26.3-26.8,61.1-40.4,94.8-53.3,33.3-12.8,66.7-25.6,100-38.4,12.1-4.6,24.7-9.6,33.7-19.8,9-10.2,12.8-27.3,5-38-2.8-3.8-6.7-6.4-10.7-8.6-29-15.8-64.5-12.2-96-1-31.6,11.2-60.8,29.4-91.7,42.9-30.9,13.5-65,22.1-96.5,13.1-4.2-1.2-8.5-2.8-11.8-6-6.1-5.9-7.4-16-6.6-25.1,3.2-36.8,33.6-66.2,66.1-77,32.5-10.8,66.9-6.9,100.2-2.9,25.9,3.1,51.8,6.2,77.7,9.3,26.8,3.2,53.8,6.4,80.9,5,43.8-2.3,86.8-16.9,127-37.2,30.2-15.3,60.3-34.2,93.2-35.8,26.4-1.3,53.7,10.4,68.6,33.7,14.9,23.4,10.6,54.8-13,90.4h0Z"/>
      <path class="cls-1" d="M-698.1-2477.1c-63.6-23.4-136.1,35-142.4,106.6-1.4,15.6-.2,31.7,5.3,46.3,8.7,23,27.3,40.3,47.4,52.4,48.2,28.9,105.1,32,158.5,45.8,83.9,21.7,159.7,70.4,234,118.4,98.5,63.6,203.5,135.1,246.9,249.4,34.2,90,24.7,194.5,65.5,281.3,28.7,61,80.1,107.3,136.9,137.8,56.8,30.5,119,46.6,181.1,59.5,29.4,6.1,59.9,11.5,88.7,3.7,25.7-6.9,47.9-23.8,69.4-40.3,28.7-22.1,60.4-50,60-88.4-.4-39.2-36.5-69.3-72.4-76.2-35.9-6.8-72.2,3.1-108.1,8.6-53.5,8.2-110.3,6.2-159.3-19.5-74.2-38.9-117.4-124.1-145.6-207.4-28.2-83.4-47.3-172.1-94.6-245.1-47.4-73-119.3-123.7-194.3-160.8-75-37.1-154.4-62.2-230.9-95.6-40.7-17.8-84.9-43-97.6-88.1-8.2-29.2-3-72-48.4-88.7h0Z"/>
      <path class="cls-3" d="M-627.1-568c-27.4,91.5,61.1,188.3,162.4,191,22,.6,44.6-2.5,64.6-11.5,31.6-14.2,54.3-41.9,69.6-71.3,36.4-70.3,35.8-150.6,50.5-226.9,23.2-119.9,85.1-230.8,146.1-339.5,80.9-144.1,172.2-297.9,329.2-369,123.6-56,271.4-51.7,389.9-116.7,83.3-45.7,143.9-122,181.9-204.6,38-82.5,55.2-171.5,67.9-259.9,6-41.8,10.9-85.2-2.5-125.1-12-35.6-37.6-65.2-62.7-94-33.5-38.5-75.6-80.6-129.5-76.6-55,4-94.3,57.3-100.8,108.4-6.5,51.1,10.7,101.2,21.6,151.3,16.3,74.5,18.4,154.6-13.6,225.8-48.3,107.7-164.2,176-279,222.9-114.8,47-237.9,81.5-336.4,154.5-98.5,73-163.6,178.6-209.2,287.3-45.6,108.8-74,222.6-114.3,333.1-21.4,58.8-53,123.1-115.4,145-40.4,14.2-100.9,10.6-120.5,75.9h0Z"/>
      <path class="cls-3" d="M-121.6-1208.7c-122.1-38.3-239.9-87.1-351.3-145.9-32.4-17.1-64.9-35.6-87.2-62.9-8.2-10-14.9-23.5-8.3-34.7,3-5.1,8.3-8.7,13.7-11.6,36.7-19.7,83.1-13.8,122.4-.7,39.4,13.1,76.3,32.8,117.7,39.6,9-17.3,4.5-38.3-6.5-54.2-11-15.9-27.7-27.8-44.4-38.9-97-64.1-210-115.1-276.8-205.7-11.9-16.2-22.5-35.7-17-54.8,3-10.2,10.3-19.1,19-26.2,38.2-31.1,98.9-27.5,142.2-4.2,43.2,23.3,73,62,101.5,99.6,28.2,37.2,56.4,74.4,84.6,111.6,10.2,13.5,21.1,27.5,37.2,35.1,16.1,7.5,39,6.1,49.5-7.6,3.8-4.9,5.6-10.8,6.9-16.6,9.2-42.2-8.2-85.4-33.8-121-25.6-35.6-59.1-65.7-87.3-99.6-28.2-33.9-51.5-73.6-51.6-116.4,0-5.8.4-11.7,3.2-17,5.2-9.9,17.4-15.1,29.1-17.4,47.5-9.4,95.5,18.1,120.8,55,25.4,36.9,33,81.6,40.1,124.9,5.5,33.7,11.1,67.4,16.6,101,5.7,34.9,11.5,69.9,23.2,103.4,18.9,54.1,52.9,102.9,93.1,146,30.2,32.3,65,63.3,78.9,104,11.2,32.7,6.5,71.2-17.4,98.4-23.9,27.3-65,33.3-118.4,16.6h0Z"/>
      <path class="cls-2" d="M172.8-3411.7c-69.4,53.7-144.7,104-226.6,114-38.7,4.8-77.5.3-116.3,2.9-59.1,4-117.9,24.9-169.8,60.2-20.6,14-41.2,31.9-49.6,57.4-13.5,41.1,12.7,87.2,48.5,99.1,35.8,11.9,76-3.6,107.6-29.2,33-26.7,60.2-64.6,97.5-81.5,20.6-9.3,43.4-11.5,64.4-6,3,.8,6.2,1.9,8,4.8,1.6,2.6,1.5,6.1,1.5,9.3-.5,19.9-1.5,41.4-12.3,57.5-11,16.4-29.3,23.2-46.1,30.2-27.2,11.3-53.5,25.4-78.6,42.2-25.5,17-50.3,37.5-66.6,65.7-16.3,28.2-22.7,65.4-10.1,94.3,14.3,32.6,50.4,47.3,82.5,39.3,32.1-8,59.5-35.1,77.2-67.3,13.4-24.5,21.9-52,33.7-77.5,17.9-38.7,43.3-72.3,68.4-105.6,15.1-20,36.6-42.2,57.4-33.5,15.8,6.6,22,28.6,20.9,48.2-2.3,41.8-27.8,78-54.2,108.4-26.4,30.4-55.8,59.7-70.1,98.9-11.5,31.5-12,66.5-6.6,99.2,3.4,20.4,9.3,40.7,21.2,56,11.9,15.2,30.8,24.5,48.8,19.1,28.1-8.4,41.4-45.4,47.9-77.7,11.2-56,15.4-113.1,25.7-169.3,10.3-56.2,27.6-112.8,60.9-156.9,13.5-17.9,29.3-33.3,43.5-50.5,21.8-26.5,39.6-57,54.8-88.8,15.6-32.7,28.9-68.9,25.4-104.9-3.6-36-38.3-97.1-89.1-57.9h0Z"/>
      <path class="cls-3" d="M-130-1513.9s43.7,78.5,147.5,52.5-73.7,75.1-73.7,75.1l-73.7-127.6Z"/>
      <path class="cls-1" d="M1114.4,185.9c22.7-27.9-80.2-132.5-130-137.3-98.1-9.5-111.2,79.6-166.7,89.1-50.9,8.7-136.1-16.8-113.9,51,21.7,66.1,91.9,82.6,214.7,100.8,113.5,16.9,193-99.9,196-103.6h0Z"/>
      <path class="cls-4" d="M923.4,494.1C434.1,409.9,270.4,215.7,31.3,144.3c-52.2-15.6-98.8-25.2-139.7-30.6v977h1760.7c-82.2-145-333.7-528.5-729-596.6h0Z"/>
      <path class="cls-3" d="M629.8,479.5C169.5,385.6-29.9,267.4-108.3,208.2v882.5h1277.4c-4.9-143.7-64.3-514.4-539.2-611.2h0Z"/>
      <path class="cls-1" d="M362.6,521.6s65.9-133.7-48.9-166.7c-114.8-33-48.9-73.3-158.1-97.1-109.2-23.8-184.4-49.5-182.6,47.6,1.9,97.1,112.9,87.9,137.4,168.5,24.5,80.6-24.5,153.9,118.6,150.2s133.6-102.6,133.6-102.6h0Z"/>
      <path class="cls-2" d="M1611.9,302.4s-20.8-223.4-196.2-179.7c-175.4,43.7-121.9-58.3-282.7-7-160.8,51.3-279,74.8-199.3,199.5,79.7,124.7,216.7,29.1,312.7,115.4,95.9,86.3,90.7,218.4,273.6,105.8,183-112.6,92-234,92-234h0Z"/>
      <path class="cls-3" d="M1391,525.4s-92.1,72-151.4-1.6c-59.2-73.7-52.6-73.7-118.4-88.1-65.8-14.4-62.5-75.3,28-96.1,90.5-20.8,120.1,4.8,139.8,36.8,19.7,32,28,0,82.3,46.4,54.3,46.4,19.7,102.5,19.7,102.5h0Z"/>
      <path class="cls-5" d="M-315,160.2c35.5,0,71.1-3.1,106.6-4,37-.9,74-.7,111,1.3,73.9,3.9,148.4,15.5,216.8,43.7,33.7,13.9,65.4,32.1,93.9,54.5,15.7,12.3,30.2,26.1,45.5,38.9,15.5,13.1,31.4,25.7,47.7,37.9,33.5,25,69.1,47.5,106.8,66,19.9,9.7,40.5,18.1,60.6,27.2,20.8,9.4,41.5,19.2,62,29.1,81.2,39.3,160.4,82.6,238.4,127.7,35.6,20.6,71.3,40.8,103.1,66.9,27.5,22.5,51.8,48.5,73.2,76.5,42.4,55.4,72.7,118.6,100.8,181.7,33.8,75.9,80.2,148.2,98.5,229.8.3,1.5,2.8.9,2.4-.6-18.3-81.8-65-154.3-98.8-230.4-28.6-64.4-59.8-128.6-103.3-185-20.8-27-44.6-51.8-71.1-73.7-30.4-25.2-64.7-44.7-98.9-64.6-77.9-45.2-157.1-88.5-238.2-128.1-40.6-19.8-82.2-37.3-123-56.5-38-17.9-73.6-40.4-107.3-65.1-17.6-12.9-34.6-26.5-51.3-40.5-15.3-12.8-29.8-26.5-45.5-38.9-27.4-21.8-58.1-39.4-90.4-53.3-65.7-28.2-137.5-40.1-208.7-44.9-73-4.9-146.2-2-219.1,1.7-3.9.2-7.8.2-11.7.2s-1.6,2.4,0,2.4h0Z"/>
      <path class="cls-5" d="M-657.5,499c109.9,11.1,219.4,29.1,325.4,59.9,53.3,15.5,105.5,34.3,156.2,56.5,43.9,19.3,86.8,40.8,128.9,63.6,82.2,44.5,162.2,96.7,225.5,165.2,32.2,34.8,61,74.7,77,119.2,18.3,50.9,18,106.2,2,157.6-2.4,7.7-4.6,15.7-8,23-3.4,7.4-9.1,11.9-17.1,13.8-1.6.4-.9,2.7.7,2.4,8.4-2,14.3-6.6,18.2-14,4.7-9,7.3-19.6,10.1-29.2,7.5-25.1,11-51.2,10.6-77.2-.8-50.6-18.6-97.9-46.5-140.1-50.2-76-124.7-134.4-202-182.7-39.2-24.5-80-46.5-121.4-67.3-46.1-23.1-93-44.6-141.4-62.7-102.6-38.4-210.1-62.7-318.7-78.4-33-4.8-66.2-8.7-99.5-12-1.6-.2-1.6,2.3,0,2.4h0Z"/>
      <path class="cls-5" d="M-546.5,577.8c56.9,5.2,113.5,13.8,169.3,26.1,58.4,12.8,116,29.7,171.5,51.6,55.1,21.7,108.2,48.7,156.8,82.1,47.2,32.6,89.9,71.8,123.8,117.6,16.9,22.9,31.4,47.4,43.4,73,12.2,26.1,22.1,53.7,27.3,82,4.9,26.5,6.3,53.8,4.4,80.6-1.8,25.6-6.8,52.4-20.1,74.9-.8,1.4,1.4,2.6,2.2,1.2,15.5-26.4,20-58.1,21-88,1-30.6-2-62-10.2-91.6-15.1-54.4-42.8-105.5-78.5-149.7-35.6-44.1-79.5-81.3-127.2-112.4-49.3-32.1-102.9-57.6-158.2-78.3-55.8-20.9-113.5-36.9-172-49-50.7-10.5-102-18-153.6-22.7-1.6-.1-1.6,2.3,0,2.4h0Z"/>
      <path class="cls-5" d="M-304,748.1c49.2,18.3,98,37.6,144.6,61.6,48,24.7,94.4,54.6,131,94,33.3,35.8,58.2,81.5,61.5,130.3,1.5,21.6.9,43.6-3,64.9-3.4,18.5-10,41.8-28.6,51.2-2,1-4.1,1.7-6.2,2.3-1.6.4-.9,2.8.7,2.4,19.4-5.1,28.7-24.7,33.6-42,6-21.4,7.2-44.2,6.6-66.3-.2-8.3-.4-16.9-1.7-25.1-2.1-12.9-5.4-25.5-9.8-37.8-8.5-23.6-21.4-45.5-37.1-65.3-33.1-41.4-77.4-73.1-123.8-99-46.3-25.9-95.6-46.5-145.2-65.4-7.2-2.8-14.5-5.5-21.7-8.2-1.5-.6-2.2,1.8-.7,2.4h0Z"/>
      <path class="cls-5" d="M-204.2,870.8c26.7,8.1,52.1,20.1,75.4,35,24.4,15.5,46.9,34.7,64.1,57.7,16.3,21.8,27.3,47.6,27.9,74.8.3,13-1.7,26.1-5.3,38.6-3.6,12.6-9.2,24.9-17.4,35.3-9.3,11.7-22.3,19.7-37.4,21.9-1.6.2-.9,2.6.7,2.4,26.8-3.9,44.1-25.1,53.2-48.6,9.3-24,11.5-50.9,5.2-75.9-6.6-26-22-49.1-40.5-68.5-19.6-20.6-43.3-37.5-68.4-51.2-18-9.8-37-17.9-56.7-23.9-1.6-.5-2.2,1.9-.7,2.4h0Z"/>
      <path class="cls-5" d="M876.8,326.9c9.5,23.7,24.8,45.1,48.1,57.4,27.3,14.3,59.9,17.9,90.5,18.6,33.3.8,66.7-2.6,99.6-7.4,16.2-2.3,32.2-5.3,48.5-7,18.9-1.9,37.9-2.7,56.9-1.8,37.5,1.7,74.6,10.4,107.7,27.8,34.4,18.1,61.9,45.2,84.6,75.9,22.1,29.9,39.8,62.7,58.4,94.7,20,34.4,42.6,67.1,65.2,99.9,21.6,31.2,42.7,63,58.5,97.5.6,1.3,2.5.2,1.9-1.1-17.2-37.5-40.6-71.7-64.1-105.7-22.5-32.5-44.3-65.2-64-99.4-18.5-32.1-36.5-64.6-59.3-94.1-22.7-29.4-50.4-54.5-84.1-71.6-32.4-16.5-68.5-24.3-104.8-26.1-19-.9-38,0-56.9,1.8-15.9,1.6-31.5,4.5-47.3,6.8-33.4,4.9-67.1,8.2-100.9,7.6-31.4-.6-64.7-4.6-92.4-20-23.9-13.3-38.5-37.6-47.1-62.3-9.3-26.9-12.3-56.4-8.2-84.5,3-20.3,10.1-41.1,24.7-56.5,1-1-.6-2.5-1.6-1.5-17.4,18.4-24.4,44-26.5,68.3-2.3,27.8,2,56.6,12.4,82.5h0Z"/>
    </g>
  </g>
</svg>