<?xml version="1.0" encoding="UTF-8"?><svg
  id="a"
  xmlns="http://www.w3.org/2000/svg"
  viewBox="0 0 8269.95 5002"
>
  <defs><style>
    .b {
      fill: #727549;
    }
    .c {
      fill: #f47a21;
    }
    .d {
      fill: #459495;
    }
    .e {
      fill: #b3b3b3;
    }
    .f {
      fill: #840d30;
    }
    .g {
      fill: #f2f2f2;
    }
    </style></defs><path
    class="c"
    d="M6365.78,519.17c83.13-104.76-293.42-498.22-476.01-516.48-359.08-35.91-406.95,299.23-610.43,335.14-186.29,32.88-498.39-63.05-416.95,191.73,79.47,248.62,336.43,310.63,785.82,379.18,415.6,63.4,706.64-375.8,717.57-389.57Z"
  /><path
    class="g"
    d="M5062.77,2787.74c-1565.86-277.04-2089.82-915.43-2854.68-1150.3-167.1-51.31-316.08-82.79-446.9-100.65v3212.35H7395.38c-262.9-476.77-1067.93-1737.65-2332.6-1961.4Z"
  /><path
    class="d"
    d="M4123.26,2739.56c-1473.18-308.67-2111.06-697.23-2362.06-892.13v2901.71h4087.56c-15.57-472.41-205.88-1691.18-1725.49-2009.58Z"
  /><path
    class="c"
    d="M3268.06,2878.08s210.79-439.64-156.59-548.05c-367.38-108.41-156.59-240.9-505.89-319.2-349.31-78.29-590.21-162.61-584.19,156.59,6.02,319.2,361.35,289.08,439.65,554.07,78.29,264.99-78.29,505.89,379.42,493.85,457.71-12.04,427.6-337.26,427.6-337.26Z"
  /><path
    class="f"
    d="M8187.2,957.66s-76.2-840.38-718.42-676.01c-642.22,164.37-446.26-219.39-1034.93-26.26-588.68,193.13-1021.53,281.24-729.74,750.44,291.8,469.2,793.37,109.57,1144.58,434.15,351.21,324.58,331.88,821.47,1001.67,397.98,669.79-423.49,336.85-880.29,336.85-880.29Z"
  /><path
    class="b"
    d="M7378.43,1796.46s-337.26,271.01-554.07-6.02c-216.81-277.04-192.72-277.04-433.62-331.24-240.9-54.2-228.86-283.06,102.38-361.35,331.24-78.29,439.65,18.07,511.92,138.52,72.27,120.45,102.38,0,301.13,174.65,198.74,174.65,72.27,385.44,72.27,385.44Z"
  /><path
    class="e"
    d="M1099.94,1689.63c113.54,0,227.41-10.31,340.98-13.05,118.36-2.85,236.84-2.28,355.07,4.12,236.38,12.81,474.75,50.83,693.86,143.61,107.79,45.64,209.37,105.67,300.4,179.3,50.2,40.6,96.67,85.79,145.49,128.04,49.67,42.99,100.56,84.56,152.68,124.55,107.25,82.26,221.01,156.18,341.88,216.85,63.63,31.94,129.54,59.38,194.05,89.49,66.57,31.06,132.69,63.08,198.46,95.8,259.96,129.32,513.25,271.57,762.8,419.86,114.07,67.78,228.29,134.27,330.07,220.03,87.87,74.04,165.68,159.42,234.23,251.51,135.61,182.19,232.53,389.88,322.4,597.38,108.1,249.6,256.75,487.33,315.3,755.6,1.1,5.06,8.84,2.91,7.74-2.13-58.71-269.02-207.91-507.18-316.11-757.52-91.58-211.9-191.26-422.7-330.41-608.11-66.7-88.88-142.84-170.39-227.47-242.41-97.37-82.86-207.13-147.03-316.58-212.29-249.37-148.68-502.63-290.96-762.25-421.03-129.84-65.05-263-122.65-393.61-185.92-121.69-58.96-235.62-132.95-343.5-214.19-56.26-42.37-110.67-87.16-164.02-133.14-48.93-42.17-95.5-87.12-145.48-128.04-87.62-71.73-185.94-129.49-289.42-175.11-210.09-92.6-440.1-131.7-667.86-147.52-233.45-16.21-467.82-6.45-701.21,5.59-12.51,.64-24.98,.7-37.5,.7-5.18,0-5.18,8.03,0,8.03Z"
  /><path
    class="e"
    d="M3.84,2803.8c351.83,36.39,701.97,95.62,1041.3,196.9,170.47,50.88,337.69,112.67,499.86,185.85,140.32,63.32,277.85,134.28,412.36,209.13,263.06,146.38,519.17,317.97,721.61,543.15,102.94,114.51,195.17,245.64,246.27,391.89,58.48,167.35,57.6,349.27,6.54,518.29-7.63,25.26-14.82,51.54-25.59,75.67-10.81,24.22-29,39.15-54.76,45.37-5.03,1.21-2.9,8.96,2.14,7.74,26.72-6.45,45.75-21.55,58.13-46.04,14.95-29.58,23.23-64.38,32.4-96.06,23.84-82.37,35.27-168.24,33.93-253.96-2.6-166.22-59.57-321.77-148.8-460.47-160.71-249.8-398.89-441.84-646.44-600.62-125.48-80.48-255.94-152.98-388.44-221.18-147.61-75.98-297.52-146.71-452.55-206.31-328.23-126.18-672.34-206.29-1019.72-257.77-105.75-15.67-211.9-28.62-318.24-39.61-5.15-.53-5.1,7.5,0,8.03Z"
  /><path
    class="e"
    d="M359.17,3062.77c182.19,17.09,363.33,45.5,541.85,85.75,186.95,42.16,371.17,97.68,548.85,169.68,176.29,71.44,346.36,159.96,501.73,270.04,151.18,107.11,287.74,236.01,396.07,386.71,54.06,75.2,100.61,155.74,138.81,240.1,38.9,85.9,70.73,176.59,87.39,269.57,15.61,87.13,20.2,176.77,14.12,265.06-5.8,84.23-21.82,172.19-64.18,246.31-2.57,4.5,4.36,8.55,6.93,4.05,49.55-86.71,64.02-191.09,67.25-289.45,3.31-100.66-6.33-203.77-32.56-301.17-48.17-178.89-136.91-346.76-251.12-492.07-113.87-144.87-254.33-267.24-407.19-369.43-157.73-105.46-329.25-189.4-506.07-257.6-178.58-68.87-363.35-121.31-550.49-161.05-162.14-34.43-326.38-59.04-491.39-74.53-5.16-.48-5.11,7.55,0,8.03Z"
  /><path
    class="e"
    d="M1135.01,3622.72c157.32,60.17,313.67,123.73,462.71,202.57,153.58,81.23,301.95,179.39,419.19,308.92,106.66,117.84,186.24,267.81,196.77,428.48,4.65,70.97,3,143.38-9.46,213.5-10.83,60.94-32.06,137.55-91.66,168.28-6.35,3.27-13.09,5.65-19.97,7.51-4.99,1.35-2.87,9.09,2.13,7.74,62.22-16.78,91.95-81.16,107.61-138.21,19.33-70.37,22.94-145.32,21.19-217.94-.66-27.27-1.27-55.41-5.55-82.41-6.7-42.26-17.17-83.78-31.36-124.15-27.26-77.54-68.53-149.76-118.87-214.58-105.8-136.23-247.82-240.21-396.27-325.64-148.15-85.26-305.8-152.77-464.77-214.95-23.15-9.05-46.35-17.99-69.56-26.87-4.85-1.85-6.92,5.91-2.14,7.74Z"
  /><path
    class="e"
    d="M1454.21,4026.23c85.38,26.57,166.64,66.15,241.41,115.06,78.04,51.06,149.92,113.96,204.98,189.59,52.28,71.8,87.22,156.46,89.4,245.98,1.04,42.7-5.58,85.89-16.97,126.98-11.48,41.44-29.3,81.91-55.83,115.99-29.88,38.38-71.37,64.67-119.71,71.93-5.1,.77-2.93,8.5,2.14,7.74,85.83-12.89,141.01-82.65,170.13-159.7,29.82-78.92,36.86-167.39,16.55-249.39-21.15-85.35-70.44-161.36-129.65-225.28-62.73-67.71-138.45-123.28-218.84-168.21-57.57-32.17-118.49-58.84-181.48-78.44-4.96-1.54-7.06,6.21-2.14,7.74Z"
  /><path
    class="e"
    d="M5496.02,1049.81c34.66,89.2,90.66,169.75,176.23,215.87,100.12,53.97,219.28,67.51,331.26,70.14,122.04,2.87,244.2-9.83,364.78-27.69,59.26-8.77,118.03-20.03,177.65-26.3,69.14-7.28,138.79-9.98,208.25-6.82,137.35,6.25,273.03,39.02,394.3,104.74,125.88,68.22,226.77,169.9,309.8,285.32,80.99,112.58,145.56,235.82,213.67,356.32,73.18,129.46,155.83,252.48,238.78,375.78,79.04,117.48,156.17,236.99,214.04,366.6,2.11,4.72,9.03,.63,6.93-4.05-62.96-141.02-148.67-269.86-234.84-397.46-82.47-122.13-162.12-245.23-234.24-373.81-67.71-120.73-133.65-243.11-216.98-354.06-83.07-110.61-184.56-205-307.7-269.34-118.53-61.93-250.78-91.55-383.76-98.07-69.45-3.4-139.13-.28-208.25,6.82-58.09,5.97-115.35,16.87-173.05,25.59-122.11,18.43-245.75,30.98-369.38,28.41-114.8-2.38-236.73-17.31-338.1-75.08-87.54-49.89-140.84-141.31-172.29-234.37-34.19-101.14-45.02-212.2-29.98-317.93,10.87-76.45,37.14-154.7,90.29-212.36,3.5-3.8-2.16-9.49-5.68-5.68-63.73,69.14-89.48,165.32-96.96,256.96-8.53,104.55,7.24,212.72,45.22,310.47Z"
  />
</svg>
