<?xml version="1.0" encoding="UTF-8"?><svg
  id="a"
  xmlns="http://www.w3.org/2000/svg"
  viewBox="0 0 7051.03 5488.38"
>
  <defs><style>
    .b {
      fill: #f27536;
    }
    .c {
      fill: #efccbd;
    }
    </style></defs><path
    class="c"
    d="M674.65,9.89C337.62-61.2-3.35,262.56,.02,606.98c.73,74.9,14.79,150.78,50.22,216.77,55.81,103.95,159.68,174.5,268.85,219.26,260.71,106.89,553.41,85.45,833.36,117.43,439.89,50.24,851.9,233.81,1255.83,415.1,535.57,240.37,1107.91,513.82,1387.43,1030.04,220.03,406.37,223.94,909.39,476.33,1296.49,177.28,271.9,463.46,459.62,769.08,568.95,305.62,109.33,632.02,146.51,955.86,168.47,153.23,10.39,311.97,16.77,455.33-38.33,128-49.2,232.76-143.26,334.37-235.35,135.78-123.05,283.64-276.19,262.28-458.18-21.83-185.99-221.2-306.72-408.22-316.45s-367.45,60.4-548.18,109.43c-269.27,73.05-560.76,99.3-824.37,7.92-398.65-138.19-662.51-515.8-848.72-894.4-186.2-378.61-328.24-788.66-606.77-1105.57-278.77-317.19-672.05-512.96-1074.19-641.82-402.14-128.86-820.77-198.16-1228.39-308.47-216.95-58.71-455.47-150.56-543.38-357.41-56.85-133.77-51.7-340.28-292.1-390.98Z"
  /><path
    class="b"
    d="M550.73,4784.94c149.09-648.74,354.63-1279.88,614.24-1881.46,75.42-174.77,158.36-351.33,290.7-478.03,48.48-46.41,115.92-86.87,176.55-57.2,27.44,13.43,48.37,39.35,65.76,66.36,117.3,182.14,105.28,425.34,53.16,634.84-52.12,209.51-139.22,409.27-157.46,626.77,93.56,39.51,200.26,7.82,278.47-55.77,78.2-63.59,133.02-155.03,183.62-246.36,293.3-529.39,511.59-1136.39,954.49-1519.54,79.22-68.54,176.02-131.43,277.58-110.34,54.19,11.25,103.19,45.85,143.48,88.15,176.8,185.59,182.85,502.11,79.51,735.9-103.35,233.8-292.08,404.12-475.52,567.26-181.58,161.49-363.16,322.97-544.74,484.46-65.94,58.65-134.26,120.71-166.77,207.18-32.51,86.47-15.78,204.61,59.66,253.84,26.9,17.56,58.11,24.67,88.82,28.9,222.86,30.68,439.95-77.25,614.04-224.35,174.09-147.1,316.79-333.32,481.14-493.16,164.34-159.84,360.68-297,583.07-315.23,29.9-2.45,60.94-2.54,89.27,9.65,53.28,22.93,85.47,84.07,102.24,143.91,67.9,242.44-55.12,502.54-236.29,649.11-181.18,146.57-409.67,204.38-631.45,258.93-172.46,42.41-344.92,84.83-517.38,127.24-178.61,43.93-358.09,88.15-527.21,162.47-273.07,120.01-512.29,315.98-719.66,542.26-155.53,169.72-302.14,362.98-507.41,451.8-165.28,71.52-366.67,62.78-517.78-50.29-151.11-113.06-199.31-323.6-134.12-607.29Z"
  />
</svg>
