<?xml version="1.0" encoding="UTF-8"?>
<svg id="Layer_2" data-name="Layer 2" xmlns="http://www.w3.org/2000/svg" viewBox="0 0 115.06 185.8">
  <defs>
    <style>
      .cls-1 {
        fill: #993;
      }
    </style>
  </defs>
  <g id="Layer_1-2" data-name="Layer 1">
    <g>
      <g>
        <path class="cls-1" d="M35.36,162.68c.42-.25.83-.58,1.2-1-.45.26-.86.6-1.2,1Z"/>
        <path class="cls-1" d="M112.47,37.82c-3.22-8.58-7.25-17.84-14.72-24.11-6.91-5.8-16.26-9.53-25.87-11.97-9.6-2.43-19.3-2.1-28.14-.3-9.56,1.96-18.11,6.34-25.03,12.35-7.09,6.17-11.94,14.18-14.33,23.6-1.53,6.04-2.28,17.11-1.23,30.87.72,9.38,3.08,19.82,4.5,30.76,1.32,10.16,1.64,20.8,3.21,30.94,1.46,9.31,3.98,18.15,5.68,26.32-2.04-.07-3.79-.01-5.37.18-8.12.98-10.34,5.07-10.93,7.43-1.44,5.69,3.91,9.31,7.12,11.47.52.34,1.12.82,1.75,1.32,1.73,1.35,3.87,3.05,6.71,4.19,3.2,1.28,6.32,2.31,9.3,3.07s6.26,1.35,9.63,1.74c3.05.36,5.76-.09,7.94-.45.78-.12,1.51-.25,2.13-.3,3.56-.35,10.18-1,11.64-6.78s-4.06-9.58-7.05-11.57c-.5-.33-1-.7-1.53-1.08-.45-.33-.92-.67-1.43-1.02,5.15-6.79,10.4-14.57,16.25-22.26,6.22-8.16,13.58-15.85,19.58-24.15,6.47-8.95,13.55-17.01,18.64-24.91,7.48-11.59,10.91-22.1,12.45-28.14,2.39-9.43,2.4-18.39-.9-27.19ZM44.15,174.5c.44.29.82.55,1.15.78-.41.06-.88.11-1.42.16-.92.09-1.84.24-2.73.39-1.85.3-3.59.59-5.32.38-2.95-.34-5.77-.85-8.38-1.51s-5.28-1.55-8.09-2.68c-1.57-.63-2.93-1.7-4.37-2.82-.74-.59-1.51-1.19-2.32-1.73-.77-.52-1.38-.95-1.84-1.31.41-.09.91-.19,1.48-.25,1.77-.21,4.12-.19,7.19.1,2.13,3.34,5.46,5.58,9.13,6.51s7.45.56,10.84-1.23c.99.59,1.92,1.25,2.82,1.9.63.46,1.25.91,1.85,1.31ZM92.93,88c-2.75,4.27-6.26,8.75-9.98,13.49-2.76,3.52-5.6,7.16-8.38,11.01-3.08,4.26-6.57,8.38-10.27,12.74-3.06,3.61-6.22,7.34-9.17,11.21-3.18,4.17-6.15,8.32-9.01,12.33-3.23,4.52-6.28,8.79-9.28,12.58-.09.12-.18.22-.28.32-.38.42-.78.75-1.2,1-1.72,1.09-3.56.83-4.39.62-1.1-.28-3.7-1.27-4.26-4.53-.77-4.46-1.83-8.93-2.96-13.65-1.29-5.4-2.61-10.99-3.49-16.62-.83-5.3-1.29-10.77-1.77-16.56-.4-4.63-.79-9.42-1.41-14.14-.6-4.69-1.37-9.22-2.11-13.59-1-5.96-1.95-11.59-2.34-16.68-1.05-13.61-.13-23.48.96-27.81,1.92-7.57,5.73-13.88,11.35-18.77,5.87-5.1,13.03-8.63,20.7-10.2,8.49-1.74,16.53-1.67,23.9.19,9.64,2.44,17.07,5.82,22.09,10.04,5.88,4.93,9.24,13,11.93,20.17,2.46,6.55,2.65,13.39.59,21.51-1.51,5.96-4.69,15.2-11.22,25.32Z"/>
      </g>
      <g>
        <path class="cls-1" d="M93.33,35.51c-8.07-13.23-35.11-21.4-49.65-16.12-28.22,10.24-32.38,43.54-10.79,62.87,11.06,9.9,32.91,13.15,46.42,6.86,19.25-8.97,24.66-36.16,14.02-53.6ZM71.72,82.64c-10.28,1.73-27.32-.85-34.86-8.39-12.51-12.51-14.65-29.96-.85-42.69,11.7-10.8,23.82-6.88,36.87-1.13,9.55,4.21,13.66,6.87,16.61,17.18,3.86,13.5-2.56,32.46-17.77,35.03Z"/>
        <path class="cls-1" d="M71.87,64.76c-1.01-.87-7.33,1.72-9.03,2.01-6.97,1.2-14.07-.87-18.91-6.13-1.67-1.81-2.83-4.94-4.29-6.46-.35-.36-.69-.58-1.16-.75-3.44,6.1,3.35,13.55,8.01,16.97,4.74,3.47,11.67,3.96,17.2,2.29,1.84-.55,5.98-2.35,7.15-3.81.7-.87,2.14-3.17,1.04-4.12Z"/>
        <path class="cls-1" d="M70.9,52.99c4.37-2.05,4.37-8.26-.36-9.73-1.4-.43-4.04.26-4.92,1.45-2.82,3.8-.04,10.78,5.28,8.28Z"/>
        <path class="cls-1" d="M47.8,45c3.63,1.57,9.31-8.12,3.89-9.55-1.21-.32-3.55.43-4.3,1.45-1.33,1.79-1.99,7.06.41,8.1Z"/>
      </g>
    </g>
  </g>
</svg>