<?xml version="1.0" encoding="UTF-8"?><svg
  id="a"
  xmlns="http://www.w3.org/2000/svg"
  viewBox="0 0 3402.39 3925.33"
>
  <defs><style>
    .b {
      fill: #459495;
    }
    </style></defs><path
    class="b"
    d="M510.91,3842.65c344.58-317.08,721.79-618.55,1152.18-709.18,203.71-42.9,411.77-36.62,616.77-68.32,312.11-48.26,615.48-186.07,874.84-397.42,102.94-83.88,204.29-188.3,237.36-327.49,53.31-224.43-107.3-457.51-302.81-504.66-195.51-47.15-402.5,53.82-558.58,204.05-163.24,157.13-290.44,370.87-481.32,477.69-105.34,58.95-225.46,80.69-339.72,61.48-16.4-2.76-34.01-7.19-44.5-21.73-9.52-13.2-10.97-31.69-12.02-48.99-6.45-105.94-11.11-220.45,39.17-311.28,50.95-92.04,145.23-136.54,231.51-181.28,139.26-72.22,272.92-159.43,398.61-260.08,127.6-102.18,249.98-222.35,323.87-379.47,73.88-157.11,91.03-357.83,10.6-505.88-90.6-166.76-289.47-228.27-456.45-171.22-166.98,57.05-300.46,213.71-379.56,393.09-60.19,136.52-92.6,286.14-143.87,427.18-77.67,213.66-197.21,404.07-315.65,592.25-71.23,113.17-175.3,241.1-290.04,204.37-86.9-27.83-129.78-142.13-132.93-246.48-6.73-222.96,112.42-427.4,238.75-600.79,126.32-173.39,269.27-342.81,327.66-557.54,46.92-172.54,33.61-359.11-10.08-530.02-27.31-106.84-67.96-212.34-138.27-287.91-70.31-75.57-175.1-115.96-268.07-79.36-145.33,57.2-199.5,260.38-219.18,434.83-34.14,302.63-30.16,608.31-59.48,911.46-29.32,303.16-95.53,611.92-252.47,861.45-63.64,101.19-140.73,190.29-208.27,288.14-103.96,150.62-184.46,320.89-250.75,496.78-68.1,180.68-122.46,379.57-87.05,569.22,35.41,189.66,248.02,498.75,499.76,267.1Z"
  />
</svg>
