<?xml version="1.0" encoding="UTF-8"?>
<svg id="Layer_2" data-name="Layer 2" xmlns="http://www.w3.org/2000/svg" viewBox="0 0 154.6 146.56">
  <defs>
    <style>
      .cls-1 {
        fill: #993;
      }
    </style>
  </defs>
  <g id="Layer_1-2" data-name="Layer 1">
    <path class="cls-1" d="M149.41,30.3c-.75-.45-1.6-.8-2.59-1.08-1.07-.3-2.16-.47-3.48-.67-1.16-.18-2.37-.36-3.55-.69-.36-.1-.69-.2-1-.31h0c-2.53.87-4.52,2.44-5.6,4.41-.2.38-.42.88-.64,1.42l-.07.16c-.19.48-.57,1.4-.94,2.09-.33.61-.95,1.01-1.64,1.06-.04,0-.08,0-.13,0-.65,0-1.26-.31-1.63-.85-.26-.36-.5-.76-.73-1.2-.95-1.75-.5-3.19,0-4.79.24-.77.49-1.56.57-2.44.24-2.51-2.08-5.99-4.45-6.65-.25-.07-.5-.1-.75-.1-1.51,0-2.35,1.27-2.79,2.34-1.4,3.42-.56,4.88.32,6.43.5.87,1.06,1.85,1.17,3.29.09,1.48-.15,2.53-.38,3.54-.37,1.61-.69,3,.82,5.94,1.17,2.29,1.93,3.23,2.78,3.46.15.04.29.06.44.06.98,0,2.3-.85,3.84-1.83,1.56-.99,2.79-2.11,3.9-3.13,1.84-1.68,3.44-3.14,5.75-3.14.58,0,1.17.09,1.83.27,1.05.29,2.22.82,3.47,1.57,3.75,2.21,2.47,5.66,1.24,9-.49,1.31-.99,2.67-1.16,3.92-.09.69.07,2.08.3,4,.66,5.35.69,8.06.11,9.47-.26.63-1.08,1.16-1.76,1.18-.02,0-.05,0-.07,0-.7,0-1.36-.37-1.72-.99-.52-.89-.9-2.39-1.29-4.12l-.03-.12c-.56-2.45-1.14-4.99-2.63-5.79-.49-.26-.95-.45-1.38-.56-.46-.13-.92-.19-1.36-.19-3.01,0-5.42,3.11-7.41,5.67-2.29,2.96-3.49,4.19-4.97,4.19-.08,0-.21,0-.29-.02-.07,0-.13-.02-.2-.03-.07-.01-.19-.04-.38-.09-2.4-.67-7.71-3.74-8.93-5.41-1.89-2.56-1.2-3.92.19-5.89.64-.91,1.37-1.94,1.73-3.31.29-1.09.65-6.32.46-7.56-.37-2.41-1.97-3.05-3.87-3.57l-.56-.15c-1.16-.32-2.59-.72-3.07-2.18-.58-1.85.07-4.44.7-6.97.94-3.77,2-8.04-.71-10.84-2.14-2.22-7.12-4.92-11.1-6.02-1.31-.36-2.46-.55-3.43-.55-.32,0-.62.02-.82.04-1.2.38-5.26,4.41-6.31,5.63h0c-.24.35-.5.85-.72,1.29-.35.69-1.05,1.1-1.79,1.1-.41,0-.84-.13-1.22-.41-.62-.45-.87-1.26-.74-2.02.36-2.02.88-5.01.58-6.1-.57-2.07-6.25-5.86-8.54-6.58-.11-.04-.21-.06-.31-.09-.74-.21-1.46-.31-2.12-.31-.63,0-1.23.09-1.83.27-1.16.35-2.17,1-3.07,1.57-1.44.91-2.79,1.77-4.71,1.77-.55,0-1.1-.07-1.68-.22-.02,0-.13-.04-.14-.04-2.22-.62-4.05-2.41-5.81-4.15-1.74-1.71-3.54-3.48-5.71-4.08-.51-.14-1.03-.21-1.56-.21-1.08,0-2.23.3-3.41.9-2.29,1.17-5.66,5.08-8.18,9.51-2.71,4.75-3.94,9.14-3.22,11.44.35,1.11.98,1.73,2.04,2.03.53.15,1.14.21,1.64.25.62.05,1.22.1,1.79.26,1.65.46,2.51,1.74,2.78,4.15.27,2.31.18,4.57.1,6.57-.18,4.72-.36,9.17,3.29,13.8,1.2,1.53,2.46,2.46,3.83,2.84.48.13.97.2,1.49.2,2.06,0,4.17-1.04,6.23-2.06l.23-.11c1.12-.55,2.18-1.07,3.3-1.46,2.96-1.03,5.72-1.53,8.42-1.53,1.86,0,3.71.25,5.49.74.86.24,1.76.55,2.67.93.65.27,1.11.86,1.21,1.56.1.7-.17,1.39-.72,1.84-.18.15-.38.3-.6.47l-.18.14c-.62.48-1.27.98-1.7,1.57-5.45,7.59-7.28,20.02-4.16,28.31.85,2.26,4.57,8.62,7.94,9.55.28.08.55.12.81.12.35,0,.68-.07.92-.17.87-.48,5.92-4.53,6.52-5.12.82-.92,1.28-1.97,1.73-3.02.77-1.77,1.57-3.59,4.31-3.59.36,0,.76.03,1.22.09.41.05.81.13,1.22.24,3.81,1.06,4.96,4.46,6.18,8.06.55,1.65,1.13,3.35,1.98,4.76,1.96,2.71,3.97,4.8,4.61,5.05h.03c1.91-.92,3.86-2.41,5.92-4,3.62-2.78,7.35-5.66,11.17-5.72h.14c1.13,0,2.35.17,3.52.5,4.55,1.26,8.93,4.88,7.78,9.89-.15.61-.44,1.16-.72,1.64-.27.49-.51.95-.66,1.46-2.09,7.43-3.25,14.1-3.75,21.61-.06.88-.03,2.32,0,3.72.14,6.62-.12,9.85-.9,11.33-.29.55-.86.9-1.48.97-.82.1-1.61.15-2.37.15-1.35,0-2.62-.15-3.87-.47-1.07-.27-1.72-1.35-1.45-2.42.09-.36.21-.83.39-1.31.91-2.47,1.81-4.51,2.61-6.3l.15-.34c2.4-5.35,3.99-8.89,3.25-17.44-.43-4.96-3-8.56-6.89-9.64-.86-.24-1.79-.36-2.76-.36-.58,0-1.19.04-1.79.13-2.94.42-5.62,2.94-7.55,7.11-1.56,3.38-2.47,7.7-2.26,10.73.01.21.09.61.22,1.22l.08.39c.08.38.18.9.27,1.43.15.89-.31,1.76-1.13,2.14-.27.13-.56.19-.84.19-.57,0-1.13-.25-1.52-.7-2.87-3.37-3.58-7.42-4.27-11.37-.5-2.84-1.02-5.78-2.42-8.11-.44-.73-1.13-1.24-2.04-1.49-.46-.13-.98-.19-1.56-.19-3.44,0-8.09,2.26-10.15,3.79-3.67,2.74-8.95,10.41-10.7,14.76-.65,1.64-.96,3.14-1.25,4.57-.09.49-.19.96-.3,1.43-.2.87-.93,1.53-1.82,1.59-.27.02-.54.03-.82.03-1.12,0-2.25-.16-3.38-.47-2.8-.78-5.69-2.49-8.62-5.11-.74-.68-1.59-1.54-2.21-2.24-.42-.49-.59-1.15-.44-1.78.15-.63.59-1.15,1.19-1.39,1.71-.69,3.44-1.18,5.12-1.64l.28-.08c5.59-1.54,10.43-2.88,12.2-10.07.96-3.93-.14-12.45-4.28-14.28-.16-.07-.34-.14-.55-.2-.42-.12-.86-.17-1.35-.17-1.16,0-2.37.33-3.59.65-1.11.3-2.26.61-3.31.61-.42,0-.79-.05-1.14-.15-1.01-.28-1.82-1-2.45-2.19-1.45-2.74-.58-6.49.36-10.49.93-3.99,1.99-8.51.54-12.32-1.04-2.77-5.59-8.87-8.43-10.24-.6-.29-1.57-.63-2.88-.99-3.18-.88-7.27-1.66-9.12-1.94-.55-.09-1.09-.13-1.62-.13-4.93,0-8.41,3.95-10.89,7.39-4.96,6.88-4.46,12-2.06,18.04.24.6.14,1.29-.21,1.83-.36.54-.98.88-1.63.91-.55.02-1.12.04-1.67.16-5.41,1.18-10.7,9.92-11.02,14.59-.21,3.09,2.44,5.67,5.02,8.19,1.7,1.64,3.19,3.12,4.15,4.72.27.45.37,1,.23,1.51-.25.95-1.08,1.52-1.95,1.52-.16,0-.33-.02-.49-.06-1.87-.47-4.03-.98-6.06-.98s-3.57.48-4.83,1.52-.93,3.08.61,3.66c.93.35,1.95.68,3.1,1,.64.18,1.32.36,2.16.56,3,.73,5.49,1.21,7.91,1.21,1.96,0,3.66-.33,5.17-1.02,3.63-1.64,4.1-4.26,4.76-7.88.92-5.12-.64-7.88-4.28-11.77-.52-.56-1.31-1.18-2.19-1.88-.23-.18-.55-.43-.9-.72-.56-.46-.89-1.18-.77-1.9.17-1.03,1.04-1.7,1.98-1.7.16,0,.31.02.47.06,1.35.33,2.77.49,4.23.49,4.43,0,8.85-1.49,12.45-4.19,2.04-1.53,3.23-2.96,3.52-4.27.03-.14.08-.27.13-.4-.03-.13-.05-.27-.06-.41-.1-2.28-2.96-4.04-5.72-5.74-1.57-.97-3.35-2.06-4.54-3.26-1.71-1.7-3.18-5.97-3.15-9.14,0-1,.16-1.85.46-2.53.32-.74,1.03-1.22,1.83-1.28.33-.03.73-.04,1.22-.04,1.53,0,4.39.15,5.37.39.02,0,.11.03.13.04,4.22,1.17,9.87,7.37,9.66,11.89-.1,1.97-.39,3.83-.7,5.8l-.03.21c-.2,1.19-.4,2.47-.56,3.81-.03.21-.08.41-.17.6.05.21.07.43.06.65-.23,2.95.04,5.45.83,7.88,1.11,3.38,2.88,4.22,4.12,4.56.66.18,1.42.27,2.39.27.57,0,1.12-.03,1.74-.06.56-.03,1.11-.05,1.63-.05.88,0,1.57.08,2.17.24.42.12.8.28,1.21.52,2.27,1.46,2.1,6.46,1.93,7.72-.08.62-.46,1.17-1,1.48-.3.17-.64.25-.98.25-.27,0-.55-.06-.81-.17-.59-.26-1.18-.54-1.78-.83-1.29-.62-2.63-1.27-4.03-1.66-.89-.25-1.72-.37-2.53-.37-.13,0-.25,0-.38,0-3.54.16-6.19,4.43-8.35,7.9l-.15.25c-.9,1.43-1.74,2.79-2.58,3.73,0,0,0,0,0,0-.33.86.11,1.68.72,2.67,1,1.59,6.59,7.87,8.11,9.2,2.51,2.23,5.85,3.99,9.39,4.98,2.11.58,4.2.88,6.22.88,4.87,0,9.12-1.75,11.97-4.92,2.5-2.78,2.61-4.69,2.74-6.89.07-1.16.14-2.36.54-3.82.28-1.06,1.51-3.46,3.1-5.64,1.82-2.52,3.18-3.49,4-3.86.27-.12.55-.18.83-.18.75,0,1.47.42,1.81,1.14.92,1.93,1.26,4.06,1.6,6.11.28,1.68.56,3.42,1.17,5.12,2.13,5.93,5.16,9.59,8.77,10.59.67.19,1.37.28,2.07.28,2.36,0,4.94-1.07,7.66-3.17,3.83-2.98,5.66-6.74,5.58-11.48-.01-.79.37-1.56,1.09-1.91.34-.17.63-.22.91-.22.94,0,1.76.66,1.96,1.6.47,2.28.5,2.95.5,3.17.2,4.82-2.03,9.51-4.22,14.1-1.17,2.46-2.37,5-3.14,7.46,0,0,0,0,0,0,1.82,1.21,3.82,2.13,5.96,2.72,1.76.49,3.54.74,5.28.74,3.64,0,7-1.08,9.69-3.13,5.68-4.31,5.56-13.77,5.46-21.38,0,0,0-.1,0-.1-.03-2.64-.06-5.12.14-7.21.32-3.34,1.2-8.93,2.06-12.14.3-1.11.83-2.45,1.4-3.89,1.4-3.49,2.98-7.45,2.02-10.17-1.57-4.49-5.66-8.05-10.96-9.52-1.62-.45-3.27-.68-4.89-.68-2.75,0-5.35.66-7.5,1.89-1.34.77-2.96,2.43-4.43,3.92-1.66,1.71-2.45,2.47-3.01,2.75-.31.18-.66.27-1.01.27s-.7-.09-1.01-.27c-.95-.55-2.02-1.66-3.8-8.5-.33-1.26-.59-2.19-.83-2.75-1.13-2.69-3.29-4.6-6.07-5.37-.96-.27-1.96-.4-2.99-.4-4.6,0-9.03,2.63-11.03,6.54-.37.73-.6,1.5-.84,2.29-.13.44-.26.86-.4,1.24-.22.59-.7,1.05-1.3,1.23-.19.06-.38.08-.58.08-.42,0-.84-.13-1.19-.39-5.14-3.81-6.63-13.51-5.43-18.8.7-3.07,3.9-3.85,7.02-4.61,1.61-.4,3.27-.81,4.5-1.54,1.68-1.01,2.67-2.25,3.04-3.8.46-1.96-.16-4.36-1.8-6.94-1.92-3-4.98-5.16-8.84-6.23-1.9-.53-3.98-.79-6.19-.79-3.46,0-6.99.65-10.2,1.89-.97.37-1.83.86-2.74,1.37l-.11.06c-1.6.91-3.11,1.76-4.88,1.76-.51,0-1.02-.07-1.54-.22-.59-.16-1.21-.43-1.86-.8-3.02-1.75-3.19-7.23-3.1-14.21,0,0,0-.12,0-.12.05-3.48.09-6.77-.59-8.7-.96-2.74-2.99-3.33-4.86-3.88-.73-.22-1.28-.4-1.71-.65-.56-.33-.93-.91-.98-1.56-.13-1.59,1.19-3.43,1.34-3.63.33-.45.85-.75,1.41-.8.07,0,.14-.01.2-.01.49,0,.97.18,1.34.51,2.81,2.53,4.97,4.14,7.74,4.91,1.22.34,2.53.5,3.99.5.52,0,1.07-.02,1.64-.06,1.12-.08,2.43-.44,3.73-.8,1.67-.45,3.56-.96,5.21-.96.61,0,1.15.07,1.65.21,1.05.29,1.86.89,2.49,1.84,1.8,2.8.26,6.88-.66,9.32-.36.95-.66,1.77-.57,2.09.31,1.09,1.73,1.69,2.86,2.01,1.94.54,4.33.65,6,.65,1.54,0,2.86-.1,3.52-.18,4.95-.61,8.5-1.81,10.86-5.89.37-.63,1.03-1,1.73-1,.2,0,.39.03.59.09,5.4,1.66,4.31,6.53,3.25,11.27-.58,2.64-1.18,5.38-.65,7.54.56,2.27,2.28,2.98,3.8,3.61,1.07.44,2.17.89,2.81,1.87,1.46,2.28.29,6.84-.54,8.94-.38.95-.8,1.55-1.21,2.11-.78,1.08-1.25,1.73-.29,4.41,1.5,4.21,5.26,7.43,10.32,8.83,1.82.5,3.72.76,5.64.76,3.97,0,7.77-1.1,10.69-3.09.34-.23.73-.35,1.13-.35.2,0,.39.03.59.09.58.18,1.05.61,1.27,1.17,1.08,2.74,2.03,4.23,4.2,4.83.65.18,1.39.27,2.25.27.3,0,.61-.01.91-.03,6.33-.45,12.08-5.69,13.36-12.19.34-1.76-.12-4.91-.56-7.96l-.03-.23c-.5-3.52-.7-5.37-.5-6.39.09-.46.34-.87.7-1.16.09-.08.24-.18.52-.36,0,0,.08-.05.09-.06.77-.48,1.65-1.02,2.12-3.39.63-3.25-2.42-10.5-5.11-12.12Z"/>
  </g>
</svg>