<?xml version="1.0" encoding="UTF-8"?>
<svg id="Layer_2" data-name="Layer 2" xmlns="http://www.w3.org/2000/svg" viewBox="0 0 130.54 236.31">
  <defs>
    <style>
      .cls-1 {
        fill: #51362e;
      }
    </style>
  </defs>
  <g id="Layer_2-2" data-name="Layer 2">
    <g>
      <g>
        <path class="cls-1" d="M130.54,110.4c0-1.77-.52-3.38-1.32-4.69-1.06-1.74-2.69-3.09-4.59-3.81-2.03-.77-4.2-.78-6.28-.03-.32.12-.89.28-1.17.1-.19-.13-.67-.65-1.01-2.78-.29-1.8-.4-4.21-.53-7-.35-7.36-.82-17.43-5-26.99-5.96-13.61-18.67-21.6-28.29-25.91-11.26-5.04-22.81-6.98-28.4-6.29-2.89.36-4.62,1.47-5.14,3.29-.49,1.74.24,3.83,2.24,6.38-1.12-.43-2.31-.87-3.54-1.29-7.95-2.72-13.08-3.27-15.68-1.67-1.24.76-1.92,1.97-1.98,3.51h0c-.1,2.95,3.18,4.54,7.71,6.75,5.94,2.89,14.08,6.85,19.42,15.52,6.38,10.36,7.11,25.25,2.16,44.26-9.5,36.5-22.23,53.19-43.93,57.59-7.75,1.57-12.78,6.31-14.54,13.7-1.25,5.28-.76,11.75,1.4,18.23,1.95,5.85,4.99,10.82,8.12,13.28,4.39,3.46,7.41,2.8,9.18,1.64,1.94-1.28,3.23-3.76,3.71-7.19.11-.81.18-1.67.2-2.55,1.55,2.41,3.6,5.3,6.16,8.36,3.93,4.67,8.27,8.77,12.91,12.17,5.82,4.27,12.11,7.45,18.72,9.46,13.96,4.25,20.35.27,22.91-2.48,2.59-2.77,3.47-6.64,2.24-9.84-.94-2.45-2.98-4.04-5.48-4.27-3.11-.28-4.92-1.96-5.52-3.32-.23-.52-.53-1.52.1-2.36.81-1.08,2.81-1.48,5.48-1.11,4.48.62,9.08-.67,13.31-3.73,3.55-2.56,6.82-6.39,9.21-10.77,3.45-6.32,5.33-14.57,1.76-18.73-3.96-4.62-8.36-1.88-11.28-.07-1.38.86-2.94,1.83-3.73,1.59-.5-.15-.92-.9-1.19-1.49-1.82-4.07,1.84-9.31,6.48-15.94,3.12-4.46,6.66-9.52,9.26-15.33,3.52-7.87,6.35-22.29,7.43-28.27,1.75,1.35,4.41,2.93,7.44,3.07,2.55.12,4.89-.79,6.95-2.7,3-2.78,4.12-5.7,4.12-8.29ZM51.67,37.39c0-.1.01-.2.03-.28.15-.53,1.13-.95,2.62-1.13,5.18-.64,16.05,1.23,26.81,6.05,9.13,4.09,21.19,11.64,26.77,24.38,3.96,9.05,4.42,18.81,4.76,25.93.3,6.35.5,10.55,2.88,12.14,1.05.7,2.34.77,3.85.22,3.21-1.17,6.02.52,7.28,2.58,1.74,2.85.89,6.29-2.28,9.22-1.47,1.36-3.02,1.98-4.76,1.9-3.97-.17-7.45-3.96-7.49-4-.39-.43-.99-.59-1.54-.43-.55.16-.96.63-1.06,1.2-.03.21-3.41,20.69-7.67,30.22-2.48,5.55-5.93,10.48-8.98,14.84-4.98,7.12-9.27,13.27-6.76,18.89.77,1.72,1.77,2.74,3.05,3.14,2.09.64,4.18-.66,6.19-1.91,3.57-2.22,5.35-2.94,7.42-.53,2.21,2.58,1.32,9.04-2.11,15.34-3.66,6.71-10.96,14.14-19.48,12.97-5.18-.71-7.41,1.13-8.28,2.28-1.12,1.48-1.28,3.49-.44,5.38,1.25,2.81,4.31,4.76,7.99,5.09,1.85.17,2.64,1.54,2.95,2.35.62,1.63.57,4.36-1.63,6.72-3.55,3.81-10.78,4.41-19.84,1.65-14.2-4.32-24.23-13.6-30.14-20.62-6.45-7.65-9.55-14.38-9.58-14.44-.32-.71-1.14-1.05-1.87-.79-.73.26-1.14,1.04-.94,1.8.83,3.14,1.08,6.36.7,9.06-.35,2.47-1.22,4.33-2.38,5.1-1.7,1.12-4.02-.2-5.67-1.5-2.65-2.08-5.38-6.63-7.13-11.87-1.98-5.95-2.46-11.84-1.33-16.58,1.49-6.26,5.6-10.11,12.22-11.45,5.89-1.19,11.01-3.18,15.65-6.08,4.72-2.94,8.84-6.75,12.58-11.64,7.29-9.51,13.01-22.87,18-42.06,2.77-10.64,3.83-20.14,3.15-28.25-.59-7.02-2.49-13.19-5.66-18.34-5.79-9.41-14.74-13.76-20.66-16.64-2.83-1.37-6.03-2.93-6.03-3.93,0,0,0-.01,0-.02l-1.5-.05,1.5.05c.02-.65.27-.89.54-1.05.8-.49,3.68-1.28,13.12,1.94,5.43,1.86,10.32,4.14,10.36,4.16.69.32,1.51.08,1.91-.56.4-.64.26-1.49-.33-1.96-.02-.02-2.03-1.64-3.87-3.65-2.16-2.36-2.92-3.97-2.92-4.8Z"/>
        <path class="cls-1" d="M113.21,74.86c0-.82-.02-1.59-.06-2.33-.05-.83-.75-1.46-1.58-1.41-.83.05-1.46.75-1.41,1.58.48,8.7-2.08,23.81-6.69,39.42-4.52,15.31-9.93,27.21-13.79,30.33-.37.3-1.07.79-1.57.65-3.79-1.05-2.71-7.78-2.7-7.85.13-.79-.37-1.54-1.15-1.71-.78-.17-1.56.29-1.77,1.06-.02.08-2.41,8.59-6,17.13-6.09,14.47-10.49,17.07-12.57,17.33-2.29.29-3.96-.13-5.09-1.28-2.46-2.51-1.74-7.71-1.73-7.77.11-.76-.37-1.48-1.11-1.67-.74-.19-1.51.21-1.78.93-.02.05-2.06,5.52-5.45,10.98-3.01,4.84-7.71,10.68-13.06,11.02-2.99.19-4.95-.62-5.81-2.42-1.68-3.49.55-11.33,8.06-19.57.56-.61.51-1.56-.1-2.12-.61-.56-1.56-.51-2.12.1-7.65,8.4-11.09,17.59-8.54,22.89.81,1.69,3.03,4.48,8.71,4.12,8.61-.55,15.25-11.36,18.65-18.27.39,1.39,1.06,2.77,2.14,3.88,1.81,1.85,4.37,2.58,7.62,2.17,2.83-.36,5.61-2.56,8.49-6.74,2.13-3.09,4.31-7.27,6.48-12.43,1.57-3.73,2.91-7.45,3.94-10.5,1.02,2.27,2.7,3.23,4.11,3.62,1.36.38,2.8-.03,4.25-1.2,6.58-5.3,12.98-25.69,14.79-31.81,4.31-14.62,6.86-28.89,6.86-38.1Z"/>
        <path class="cls-1" d="M59.44,211.09c0-.1-.01-.21-.03-.32-.18-.81-.97-1.32-1.78-1.15-5.95,1.29-14.52-4.68-17.62-12.28-.31-.77-1.19-1.13-1.96-.82-.77.31-1.14,1.19-.82,1.96,1.74,4.26,5.04,8.26,9.06,10.96,4.07,2.74,8.44,3.88,11.97,3.11.7-.15,1.18-.77,1.18-1.46Z"/>
        <path class="cls-1" d="M69.08,199.67s0-.05,0-.08c-.04-.83-.75-1.46-1.58-1.42-2.98.16-6.4-1.2-8.93-3.55-2.33-2.17-3.64-4.93-3.69-7.76-.01-.83-.7-1.49-1.53-1.47-.83.01-1.49.7-1.47,1.53.07,3.66,1.72,7.17,4.65,9.9,3.15,2.93,7.31,4.56,11.13,4.35.8-.04,1.42-.71,1.42-1.5Z"/>
        <path class="cls-1" d="M83.31,188.07s0-.08,0-.12c-.06-.83-.79-1.44-1.61-1.38-4.04.31-7.93-4.56-8.32-7.91-.1-.82-.84-1.41-1.66-1.32-.82.1-1.41.84-1.32,1.66.27,2.3,1.66,5.01,3.62,7.07,2.34,2.46,5.15,3.7,7.91,3.48.79-.06,1.38-.72,1.38-1.49Z"/>
        <path class="cls-1" d="M80.59,95.52c0-.45,0-.89-.03-1.32-.03-.83-.73-1.47-1.56-1.44-.83.03-1.47.73-1.44,1.56.5,12.38-7.24,33.31-15.02,46.39-.42.71-.19,1.63.52,2.06.71.42,1.63.19,2.06-.52,7.64-12.85,15.46-33.26,15.46-46.72Z"/>
        <path class="cls-1" d="M80.74,85.56s0-.05,0-.07c-.7-14.37-11.71-29.34-18.11-35.92-.58-.59-1.53-.61-2.12-.03-.59.58-.61,1.53-.03,2.12,6.11,6.28,16.61,20.49,17.27,33.97.04.83.74,1.47,1.57,1.43.8-.04,1.43-.7,1.43-1.5Z"/>
        <path class="cls-1" d="M93.92,90.32c0-11.46-3.03-21.4-9.27-30.37-.47-.68-1.41-.85-2.09-.38-.68.47-.85,1.41-.38,2.09,13.43,19.33,8.37,40.02,4.3,56.64-.2.81.3,1.62,1.1,1.81.8.2,1.62-.3,1.81-1.1,2.08-8.52,4.45-18.17,4.51-28.29,0-.13,0-.27,0-.4Z"/>
      </g>
      <path class="cls-1" d="M50.21,11.21c0-.17,0-.34-.01-.51-.12-2.89-1.29-5.69-3.23-7.69-1.69-1.75-3.89-2.81-6.18-2.98-2.53-.19-5.11.69-7.46,2.54-3.37,2.65-4.8,6.54-3.92,10.66.97,4.54,4.66,8.58,8.76,9.61,3.29.82,6.41-.28,8.79-3.11,2.14-2.53,3.25-5.46,3.25-8.51ZM32.15,10.88c0-1.76.59-4.04,3.03-5.95h0c3.97-3.12,7.58-1.96,9.63.17,2.8,2.9,3.65,8.19-.15,12.7-1.63,1.93-3.63,2.67-5.77,2.13-3-.75-5.82-3.9-6.55-7.32-.1-.47-.18-1.06-.18-1.72ZM34.25,3.74h0s0,0,0,0Z"/>
    </g>
  </g>
</svg>