<?xml version="1.0" encoding="UTF-8"?>
<svg id="Layer_2" data-name="Layer 2" xmlns="http://www.w3.org/2000/svg" viewBox="0 0 70.68 47.97">
  <defs>
    <style>
      .cls-1 {
        fill: #51362e;
      }
    </style>
  </defs>
  <g id="Layer_2-2" data-name="Layer 2">
    <g>
      <g>
        <path class="cls-1" d="M70.68,16.2c0-1.61-.49-3.01-1.46-4.06h0c-.95-1.04-2.64-2.07-5.28-1.09-1.56.58-3.17,1.73-4.86,2.94-2.79,2-5.96,4.26-8.84,3.7-2.73-.53-4.11-3.42-5.72-6.75-1.96-4.08-4.18-8.7-9.55-10.47-3.6-1.19-6.58-.09-8.18,3-.65,1.25-1.06,2.82-1.23,4.58-2.07-.8-4.16-1.27-6.06-1.35-4.05-.17-7.11,1.43-8.61,4.51-2.07,4.25-1.79,8.76.81,13.04,2.28,3.75,6.33,7.25,11.43,9.85,4.87,2.48,10.16,3.92,14.91,4.05,9.12.25,16.1-2.83,20.34-5.46,5.12-3.17,9.18-7.46,11.14-11.76.77-1.69,1.15-3.3,1.15-4.73ZM28.51,9.4c.06-1.83.38-3.44.96-4.56.92-1.79,2.33-2.26,4.57-1.52,4.16,1.37,6,5.21,7.79,8.92,1.79,3.72,3.64,7.57,7.85,8.4,4.14.81,7.87-1.85,11.16-4.2,3.74-2.68,5.16-3.38,6.19-2.26h0c.98,1.06.9,3.07-.22,5.52-1.69,3.72-5.43,7.63-9.99,10.45-3.9,2.42-10.3,5.25-18.68,5.01-9.14-.25-19.84-5.84-23.85-12.46-2.07-3.41-2.3-6.83-.67-10.17.97-2,2.92-2.95,5.79-2.83,2.02.09,4.16.69,6.14,1.58.05.88.15,1.78.31,2.69.68,4.04,2.17,7.26,4,8.6,1.6,1.18,3.46.99,4.97-.5,1.5-1.48,1.89-3.44,1.09-5.52-.88-2.28-3.25-4.71-6.49-6.64-.3-.18-.6-.35-.9-.51ZM28.73,13.04c2.15,1.44,3.8,3.13,4.36,4.59.47,1.23.04,1.88-.39,2.3-.59.58-.8.42-1.08.21-.93-.69-2.22-3.07-2.82-6.68-.02-.14-.05-.29-.07-.43Z"/>
        <path class="cls-1" d="M58.26,31.92c0-.22-.05-.45-.15-.66-.36-.74-1.26-1.05-2.01-.69-2.61,1.28-6.39,1.92-10.11,1.71-3.62-.2-6.65-1.15-8.1-2.54-.91-.87-1.08-1.8-.55-3.01,1.87-4.26,5.05-4.6,9.45-5.08,2.05-.22,4.38-.48,6.73-1.21.79-.25,1.23-1.09.99-1.88-.25-.79-1.09-1.23-1.88-.99-2.07.64-4.15.87-6.16,1.09-4.58.5-9.31,1.01-11.88,6.85-1.04,2.36-.61,4.63,1.21,6.38,4.08,3.91,14.98,4.6,21.6,1.36.53-.26.84-.79.84-1.35Z"/>
      </g>
      <path class="cls-1" d="M16.75,41.97c0-.62-.11-1.27-.33-1.91-1.09-3.17-4.73-5.93-8.27-6.29-3.01-.31-5.56,1.03-7.18,3.76h0c-1.74,2.92-1.1,6.09,1.65,8.28,1.65,1.3,3.88,2.09,6.12,2.17,2.51.08,4.79-.74,6.41-2.31,1.05-1.02,1.6-2.3,1.6-3.69ZM3.55,39.05c1.02-1.72,2.47-2.49,4.3-2.31,2.39.24,5.02,2.21,5.74,4.29.34.99.18,1.8-.51,2.46-2.26,2.18-6.34,1.72-8.59-.05-1.1-.87-2.16-2.34-.94-4.39h0Z"/>
    </g>
  </g>
</svg>