<svg preserveAspectRatio="none" width="100%" height="100%" overflow="visible" style="display: block;" viewBox="0 0 1755 607" fill="none" xmlns="http://www.w3.org/2000/svg">
<g id="CRUISE ANIMATION START">
<path id="Vector" d="M1706.69 240.359C1718.72 240.359 1729.82 243.076 1738.01 247.586C1746.08 252.03 1752.01 258.649 1752.01 266.645V487.479C1752.01 490.236 1750.23 492.675 1748.43 494.305C1746.53 496.027 1743.96 497.453 1741.25 497.943L1740.98 497.991H1649.12V536.308H1728.26C1734.29 536.308 1739.83 537.081 1743.99 538.544C1746.06 539.272 1747.95 540.23 1749.39 541.495C1750.84 542.782 1752.01 544.572 1752.01 546.819V592.639C1752.01 594.886 1750.84 596.676 1749.39 597.963C1747.95 599.228 1746.06 600.186 1743.99 600.914C1739.83 602.377 1734.29 603.15 1728.26 603.15H1524.14C1512.11 603.15 1501.01 600.434 1492.82 595.924C1484.74 591.48 1478.82 584.86 1478.82 576.865V266.645C1478.82 258.649 1484.74 252.03 1492.82 247.586C1501.01 243.076 1512.11 240.359 1524.14 240.359H1706.69ZM1611.26 359.781C1610.01 359.781 1608.84 360.075 1608.1 360.467C1607.85 360.602 1607.7 360.711 1607.63 360.78V454.937C1607.7 455.006 1607.85 455.116 1608.1 455.251C1608.84 455.643 1610.01 455.937 1611.26 455.937H1627.86C1629.11 455.937 1629.96 455.647 1630.4 455.369C1630.57 455.263 1630.64 455.179 1630.67 455.146V360.571C1630.64 360.537 1630.57 360.454 1630.4 360.349C1629.96 360.071 1629.11 359.781 1627.86 359.781H1611.26ZM1448.31 564.847C1448.31 586.457 1428.25 603.15 1403.82 603.15H1224.58C1201.02 603.15 1180.09 586.492 1180.09 564.847V418.379H1204.67C1215.01 418.379 1224.51 418.192 1231.41 417.912C1234.19 417.799 1236.53 417.67 1238.31 417.536L1180.41 301.788L1180.09 301.154V42.0547C1180.09 20.4092 1201.02 3.751 1224.58 3.75098H1707.52C1731.08 3.75098 1752.01 20.4091 1752.01 42.0547V216.314H1378.44L1447.87 331.193L1448.31 331.909V564.847Z" fill="var(--fill-0, #FF0000)" stroke="var(--stroke-0, #FF0000)" stroke-width="6"/>
<path id="Vector_2" d="M1142.05 102.146C1142.05 105.15 1122.96 108.155 1099.73 108.155H937.919C914.684 108.155 896.429 105.15 896.429 102.146V12.76C896.429 9.00436 914.684 6.75098 937.919 6.75098H1099.73C1122.96 6.75098 1142.05 9.00436 1142.05 12.76V102.146ZM1150.34 571.607C1150.34 587.381 1131.26 600.15 1108.02 600.15H929.621C906.387 600.15 888.131 587.381 888.131 571.607V152.472C888.131 137.449 906.387 124.68 929.621 124.68H1108.02C1131.26 124.68 1150.34 137.449 1150.34 152.472V571.607Z" fill="var(--fill-0, #FF0000)"/>
<path id="Vector_3" d="M854.181 593.39C854.181 597.146 845.053 600.15 833.436 600.15H470.819L446.756 567.851L413.564 568.603V600.15H304.862C299.054 600.15 297.394 597.146 297.394 594.141L298.224 12.0091C298.224 9.75569 301.543 7.50226 304.032 6.75113H516.458C539.692 7.50226 557.947 21.0228 557.947 39.0501V381.569C557.947 398.845 543.011 412.366 519.777 412.366L557.947 469.452H833.436C845.053 469.452 854.181 472.457 854.181 476.964V593.39ZM443.437 291.433V172.002C443.437 168.997 440.947 166.744 437.628 166.744H420.202C416.883 166.744 414.394 168.997 414.394 172.002V291.433C414.394 294.437 416.883 296.69 420.202 296.69H437.628C440.947 296.69 443.437 294.437 443.437 291.433ZM813.521 6C836.755 6 855.011 15.7648 855.011 27.0319V419.126C855.011 430.393 835.926 440.158 813.521 440.158H635.117C611.883 440.158 592.798 430.393 592.798 418.375V27.0319C592.798 20.2716 600.266 13.5114 611.053 9.75569C617.692 7.50226 625.99 6 635.117 6H705.649V136.698C705.649 141.205 708.139 144.961 712.287 144.961H728.883C732.202 144.961 734.692 141.205 734.692 136.698V6H813.521Z" fill="var(--fill-0, #FF0000)"/>
<path id="Vector_4" d="M264.702 245.613H205.787V374.058H263.872V564.847C263.872 584.376 239.808 600.15 217.404 600.15H40.6595C18.2553 600.15 0 584.376 0 564.847V42.0545C0 22.5249 18.2553 6.75098 40.6595 6.75098H217.404C239.808 6.75098 258.064 22.5249 264.702 42.8056V245.613Z" fill="var(--fill-0, #FF0000)"/>
</g>
</svg>
