<svg preserveAspectRatio="none" width="100%" height="100%" overflow="visible" style="display: block;" viewBox="0 0 1749 1429" fill="none" xmlns="http://www.w3.org/2000/svg">
<g id="CRUISE ANIMATION END">
<path id="Vector" d="M1707.52 1.80427C1729.92 1.80427 1749.01 39.7325 1749.01 86.6913V498.484H1373.12L1445.31 785.655V1343.74C1445.31 1390.7 1427.05 1428.63 1403.82 1428.63H1224.58C1202.18 1428.63 1183.09 1390.7 1183.09 1343.74V998.775H1204.67C1225.41 998.775 1242.84 996.969 1242.84 995.163L1183.09 707.992V86.6913C1183.09 39.7325 1202.18 1.80427 1224.58 1.80427H1707.52ZM1633.67 852.481C1633.67 847.062 1631.18 843.45 1627.86 843.45H1611.26C1607.95 843.45 1604.63 847.062 1604.63 852.481V1080.05C1604.63 1085.47 1607.95 1089.08 1611.26 1089.08H1627.86C1631.18 1089.08 1633.67 1085.47 1633.67 1080.05V852.481ZM1728.26 1282.33C1739.88 1282.33 1749.01 1289.56 1749.01 1300.4V1410.57C1749.01 1421.4 1739.88 1428.63 1728.26 1428.63H1524.14C1500.9 1428.63 1481.82 1403.34 1481.82 1372.64V626.717C1481.82 596.014 1500.9 570.728 1524.14 570.728H1706.69C1729.92 570.728 1749.01 596.014 1749.01 626.717V1157.71C1749.01 1164.94 1744.86 1173.97 1740.71 1175.77H1646.12V1282.33H1728.26Z" fill="var(--fill-0, #6C4637)"/>
<path id="Vector_2" d="M1142.05 231.18C1142.05 238.404 1122.96 245.629 1099.73 245.629H937.919C914.684 245.629 896.429 238.404 896.429 231.18V16.2531C896.429 7.22252 914.684 1.80427 937.919 1.80427H1099.73C1122.96 1.80427 1142.05 7.22252 1142.05 16.2531V231.18ZM1150.34 1360C1150.34 1397.93 1131.26 1428.63 1108.02 1428.63H929.621C906.387 1428.63 888.131 1397.93 888.131 1360V352.189C888.131 316.067 906.387 285.363 929.621 285.363H1108.02C1131.26 285.363 1150.34 316.067 1150.34 352.189V1360Z" fill="var(--fill-0, #6C4637)"/>
<path id="Vector_3" d="M854.181 1412.38C854.181 1421.41 845.053 1428.63 833.436 1428.63H470.819L446.756 1350.97L413.564 1352.77V1428.63H304.862C299.054 1428.63 297.394 1421.41 297.394 1414.18L298.224 14.4488C298.224 9.03053 301.543 3.61217 304.032 1.80608H516.458C539.692 3.61217 557.947 36.1221 557.947 79.4687V903.054C557.947 944.594 543.011 977.104 519.777 977.104L557.947 1114.37H833.436C845.053 1114.37 854.181 1121.59 854.181 1132.43V1412.38ZM443.437 686.321V399.15C443.437 391.925 440.947 386.507 437.628 386.507H420.202C416.883 386.507 414.394 391.925 414.394 399.15V686.321C414.394 693.545 416.883 698.963 420.202 698.963H437.628C440.947 698.963 443.437 693.545 443.437 686.321ZM813.521 0C836.755 0 855.011 23.4793 855.011 50.571V993.359C855.011 1020.45 835.926 1043.93 813.521 1043.93H635.117C611.883 1043.93 592.798 1020.45 592.798 991.553V50.571C592.798 34.316 600.266 18.0611 611.053 9.03053C617.692 3.61217 625.99 0 635.117 0H705.649V314.263C705.649 325.099 708.139 334.13 712.287 334.13H728.883C732.202 334.13 734.692 325.099 734.692 314.263V0H813.521Z" fill="var(--fill-0, #6C4637)"/>
<path id="Vector_4" d="M264.702 576.146H205.787V884.991H263.872V1343.74C263.872 1390.7 239.808 1428.63 217.404 1428.63H40.6595C18.2553 1428.63 0 1390.7 0 1343.74V86.6913C0 39.7325 18.2553 1.80427 40.6595 1.80427H217.404C239.808 1.80427 258.064 39.7325 264.702 88.4974V576.146Z" fill="var(--fill-0, #6C4637)"/>
</g>
</svg>
