<svg width="418" height="879" viewBox="0 0 418 879" fill="none" xmlns="http://www.w3.org/2000/svg">
<path d="M192.171 576.224C219.584 592.612 247.994 607.976 278.609 617.525C308.648 626.892 339.922 630.825 370.621 637.341C401.531 643.913 430.741 654.46 457.789 670.947C487.954 689.329 514.44 713.147 537.879 739.465C540.126 741.992 545.631 740.279 542.639 736.909C540.842 734.9 539.03 732.906 537.19 730.926L535.21 726.236C537.134 726.025 538.567 724.607 536.587 722.584C534.382 720.337 532.177 718.104 529.958 715.872C516.308 695.663 521.406 668.306 528.413 646.076C532.963 631.611 537.865 617.259 542.611 602.864C547.47 588.132 552.034 573.274 557.68 558.824C568.03 532.324 585.205 508.998 591.131 480.798C596.847 453.638 595.92 424.737 593.28 397.268C591.749 381.301 589.264 365.446 585.809 349.773C582.396 334.283 579.265 316.869 568.704 304.469C568.03 303.683 562.16 304.188 561.977 305.354C558.284 330.407 563.087 355.545 562.104 380.683C561.107 405.835 554.548 430.298 547.484 454.327C540.069 479.549 532.935 504.7 527.599 530.47C522.08 557.195 517.544 584.144 513.176 611.079C508.71 638.619 505.312 666.537 507.896 694.427C474.501 663.054 438.269 634.532 397.051 614.239C369.301 600.575 340.245 592.683 309.982 586.854C278.651 580.816 248.191 573.092 218.699 560.706C202.325 553.824 186.428 545.848 171.106 536.86C157.891 529.108 144.845 518.617 128.849 518.224C128.035 518.21 126.743 518.589 126.504 519.516C125.002 525.316 128.175 530.189 131.939 534.374C137.29 540.315 143.623 545.356 150.111 549.962C163.551 559.498 177.987 567.798 192.115 576.238L192.171 576.224ZM512.249 698.107L513.626 699.834C513.036 699.272 512.46 698.711 511.87 698.163C511.997 698.163 512.123 698.135 512.249 698.121V698.107Z" fill="#59591D"/>
<path d="M422.652 595.814C396.124 575.999 369.47 556.296 339.726 541.508C282.653 513.14 219.612 499.237 163.635 468.356C147.71 459.565 132.781 449.425 117.741 439.23C104.793 430.439 91.1286 422.349 75.3859 420.103C73.8411 419.878 69.7405 420.678 70.0775 422.925C72.4649 438.64 85.0759 449.524 97.069 458.652C109.666 468.229 122.642 477.344 135.871 486.036C162.68 503.661 190.668 519.488 219.598 533.349C248.499 547.21 278.328 559.034 308.816 568.921C339.908 579.004 371.674 587.669 401.222 601.895C434.842 618.073 464.459 641.736 487.926 670.708C489.344 672.463 495.72 670.005 494.049 667.955C493.136 666.832 492.209 665.722 491.282 664.627C493.67 664.515 496.127 661.411 494.4 659.318C492.771 657.338 491.465 655.232 490.44 653.041C490.707 652.002 490.51 650.935 489.583 650.162C489.429 650.036 489.288 649.909 489.134 649.783C486.479 641.891 486.915 633.085 488.333 624.673C490.58 611.248 494.526 598.103 497.405 584.804C503.683 555.776 508.738 526.496 514.103 497.299C519.383 468.538 525.267 439.791 528.919 410.764C532.486 382.48 532.725 354.393 529.93 326.026C528.357 310.114 526.461 294.147 523.877 278.362C521.363 262.971 517.417 247.832 509.651 234.181C508.106 231.471 504.497 234.111 504.006 236.204C491.451 288.824 493.122 343.201 493.052 396.903C493.01 424.667 492.462 452.473 489.26 480.068C485.763 510.177 479.795 539.907 473.854 569.609C470.765 585.015 466.777 602.934 468.012 619.477C455.064 600.49 451.23 576.336 452.48 553.473C454.081 524.291 464.066 496.344 470.849 468.131C477.773 439.314 479.303 410.202 479.458 380.654C479.626 349.871 479.5 319.06 477.927 288.305C477.056 271.298 475.736 254.32 473.756 237.411C472.155 223.803 471.945 203.763 458.084 196.391C456.23 195.408 454.166 199.326 453.857 200.632C448.071 225.573 452.958 252.115 453.772 277.365C454.671 305.157 454.334 333.146 451.862 360.867C450.669 374.321 448.787 387.746 445.669 400.905C442.355 414.892 437.173 428.29 433.086 442.052C431.359 447.895 429.856 453.821 428.578 459.817C429.758 453.203 430.938 446.602 431.963 439.96C434.041 426.366 435.502 412.674 436.429 398.953C440.136 343.397 434.982 287.631 426.991 232.665C424.745 217.231 422.273 201.825 419.689 186.448C417.33 172.39 416.248 155.51 402.893 147.239C401.404 146.312 398.399 146.129 398.68 148.587C404.789 201.741 410.898 255.036 411.094 308.612C411.193 334.999 409.83 361.415 406.348 387.578C403.244 410.89 398.638 434.005 396.602 457.458C394.383 483.031 395.576 508.927 405.266 532.97C405.912 534.571 408.51 535.568 410.069 535.202L425.039 553.487C425.966 555.509 426.977 557.489 428.073 559.441C429.014 562.826 430.109 566.154 431.359 569.412C425.166 563.795 418.832 558.318 412.372 553.01C414.465 552.644 416.557 551.395 415.546 550.173C409.493 542.828 403.272 535.61 396.924 528.518C397.093 528.167 397.065 527.802 396.756 527.451C391.897 521.903 386.771 516.693 381.421 511.764C350.539 479.478 316.554 450.198 279.999 424.456C254.721 406.663 228.249 390.597 200.808 376.371C173.971 362.454 146.263 349.984 120.929 333.342C105.973 323.526 92.7998 311.996 80.0764 299.469C73.8131 293.318 67.5918 286.858 60.6122 281.494C56.2026 278.095 49.7707 276.41 45.2487 280.609C44.6308 281.185 44.3218 281.648 44.7291 282.449C58.2389 308.766 77.1133 331.727 100.159 350.264C122.347 368.128 147.232 382.255 171.724 396.678C196.862 411.48 222.224 425.776 248.401 438.682C272.331 450.478 296.57 461.685 319.798 474.83C339.796 486.149 358.951 499.041 375.761 514.643C385.591 524.951 395.085 535.568 404.255 546.465C390.45 535.596 376.084 525.442 361.198 516.075C330.654 496.85 297.89 481.444 265.646 465.35C234.301 449.72 203.195 433.261 170.249 421.198C141.151 410.553 110.747 402.155 84.0788 385.949C68.9962 376.779 56.6801 365.052 45.5577 351.416C34.042 337.316 23.0741 322.36 7.21908 312.811C6.05348 312.108 1.05401 312.6 0.562493 314.117C-1.6002 320.787 2.92179 326.952 6.51691 332.219C10.9687 338.735 15.7996 345.012 20.9395 351.009C31.767 363.648 43.9567 375.051 57.0171 385.345C83.503 406.214 113.303 422.504 144.002 436.267C208.251 465.056 276.249 484.52 337.647 519.628C371.337 538.896 402.991 561.632 432.089 587.318C433.367 588.441 439.111 586.279 438.591 585.815C438.086 585.366 437.58 584.93 437.075 584.495L438.002 583.386C440.543 587.809 443.478 592.05 446.835 596.067C447.368 596.699 448.646 595.814 449.658 594.536L451.582 597.471C454.587 608.762 459.46 619.435 466.692 628.718C466.131 628.296 465.569 627.889 465.021 627.468C450.907 616.921 436.794 606.375 422.68 595.828L422.652 595.814ZM422.835 517.424C422.273 505.894 423.2 494.168 424.787 482.835C424.787 482.736 424.815 482.638 424.829 482.54C423.424 494.154 422.778 505.852 422.835 517.424Z" fill="#59591D"/>
<path d="M164.309 323.118C186.526 332.176 208.939 339.577 229.625 352.034C249.426 363.957 267.486 378.576 284.38 394.29C303.395 411.985 324.25 434.244 341.776 453.385C343.307 455.056 345.343 447.473 343.868 445.872C343.812 445.816 343.756 445.745 343.7 445.689C345.217 444.847 346.41 443.527 345.792 442.6C332.507 422.883 324.137 400.104 321.666 376.441C319.138 352.244 323.857 329.045 330.513 305.887C337.015 283.221 344.121 260.681 344.655 236.892C345.203 212.596 340.273 188.498 333.898 165.158C325.977 136.158 314.953 107.566 295.896 83.9585C294.365 82.0626 289.254 84.9977 289.829 87.2446C295.419 108.956 301.542 130.625 306.148 152.575C310.417 172.924 312.172 193.343 311.161 214.099C309.209 254.151 299.449 293.487 299.604 333.693C299.674 354.561 302.525 375.43 310.136 394.936C286.993 369.349 260.296 347.048 230.959 328.792C212.689 317.417 193.421 307.642 173.423 299.666C162.919 295.467 152.147 292.068 141.573 288.066C131.265 284.162 121.519 279.232 112.124 273.489C91.7606 261.046 72.9565 245.921 50.6695 236.892C48.8018 236.133 44.7292 239.56 45.6982 241.526C56.3993 263.237 79.9922 275.525 99.5969 288.024C120.311 301.225 141.502 313.836 164.295 323.118H164.309ZM324.615 417.954C324.727 417.869 324.826 417.799 324.924 417.701C325.331 418.712 325.724 419.737 326.146 420.748L324.601 417.954H324.615ZM314.714 396.523L321.511 408.095C321.511 408.095 321.511 408.123 321.511 408.137C318.506 404.472 315.402 400.877 312.257 397.338C312.987 397.282 313.886 396.973 314.686 396.523H314.714Z" fill="#59591D"/>
<path d="M151.867 258.125C169.828 266.453 188.366 273.615 205.808 283.024C221.873 291.689 236.858 302.151 250.606 314.102C253.527 317.178 256.434 320.253 259.355 323.329C260.394 324.424 262.318 325.534 263.891 325.127C264.439 324.986 264.888 324.705 265.169 324.34C266.279 323.989 266.742 323.076 265.225 321.602C262.052 318.526 258.793 315.549 255.465 312.656C232.631 288.656 209.206 265.007 182.215 245.683C151.726 223.845 115.845 210.701 88.1516 184.903C72.423 170.241 58.4919 153.726 41.5414 140.371C40.5022 139.557 34.8849 137.928 36.1909 141.073C50.6135 175.775 74.1082 206.516 103.782 229.575C118.612 241.105 134.874 250.261 151.881 258.139L151.867 258.125Z" fill="#59591D"/>
<path d="M119.89 159.779C133.652 173.444 148.524 185.76 163.172 198.441C179.701 212.751 203.532 233.915 213.124 253.871C214.121 255.949 212.605 247.804 211.706 245.95C211.158 244.827 210.596 243.717 210.021 242.608L211.86 237.412C212.043 237.384 212.225 237.341 212.408 237.299C215.006 241.948 217.534 246.638 219.963 251.385C220.455 252.354 221.494 252.171 222.519 251.497C224.879 259.783 227.168 268.111 229.372 276.438C230.004 278.812 234.976 274.29 234.344 271.902C214.36 196.138 187.411 122.227 153.833 51.4203C149.212 41.6742 144.578 31.8859 139.537 22.3364C134.986 13.7277 129.552 5.42806 121.069 0.260074C118.949 -1.03192 116.182 2.81597 116.281 4.64162C118.162 38.2335 125.212 71.5024 137.261 102.918C147.597 129.881 162.034 154.766 177.159 179.23C169.098 171.548 160.588 164.287 152.246 157.153C138.82 145.666 125.704 133.926 113.5 121.118C101.128 108.114 89.5279 94.3932 78.3914 80.3217C65.6821 64.2701 53.5626 47.755 41.4431 31.254C40.8112 30.3973 38.6625 31.0433 37.9182 31.254C31.2335 33.1779 31.9919 39.2587 34.6461 44.3986C39.0417 52.8949 43.8165 61.2086 48.7738 69.3819C58.6323 85.6301 69.4738 101.289 81.2141 116.245C93.1932 131.524 106.127 146.045 119.89 159.737V159.779Z" fill="#59591D"/>
<path d="M251.42 298.852L274.438 331.896C277.008 338.51 280.181 344.9 283.931 350.967C283.959 351.009 288.327 346.557 287.329 344.956C276.544 327.5 270.562 307.292 270.281 286.746C270 266.229 276.446 246.54 278.988 226.345C281.544 206.123 278.145 186.532 272.907 166.998C267.079 145.287 260.492 123.716 253.035 102.51C245.663 81.5436 236.815 60.6891 223.277 42.896C220.174 38.8094 216.845 34.6806 213.124 31.1276C210.723 28.8385 207.113 26.1984 203.546 26.7601C196.525 27.8695 195.921 37.9106 197.143 43.0786C199.361 52.5158 204.571 60.8857 209.613 69.0309C215.455 78.44 220.736 88.0035 224.696 98.3816C232.111 117.79 235.678 138.419 237.531 159.049C241.773 206.39 236.759 254.713 249.216 301.099C249.258 301.267 250.409 300.172 251.406 298.838L251.42 298.852Z" fill="#59591D"/>
<path d="M340.905 352.217C338.518 372.749 340.962 393.449 344.093 413.756C347.702 437.194 352.674 460.647 363.642 481.866C364.007 482.569 365.79 482.386 367.462 482.035L370.383 485.897C372.377 493.143 375.958 499.926 381.772 505.81C382.881 506.934 388.499 504.982 388.358 504.841C371.759 488.031 373.697 462.838 378.429 441.632C383.289 419.907 388.442 398.476 391.42 376.372C397.318 332.543 397.374 287.927 391.574 244.083C388.105 217.892 383.036 190.788 367.181 168.979C366.577 168.15 360.285 168.754 360.313 169.667C361.535 210.631 362.757 252.13 354.457 292.519C350.343 312.503 343.265 331.897 340.905 352.231V352.217Z" fill="#59591D"/>
<path d="M669.817 451.096C673.553 494.294 656.462 535.329 638.879 573.793C628.319 596.895 617.618 619.912 606.987 642.971C596.974 664.683 586.343 686.225 577.481 708.442C570.586 725.701 565.193 743.761 564.014 762.284C563.986 762.27 563.972 762.242 563.958 762.228C539.339 743.41 513.963 725.617 487.856 708.962C464.6 694.118 441.204 679.737 414.297 672.673C367.925 660.512 317.453 665.441 272.949 645.892C260.1 640.247 248.598 632.312 237.054 624.448C231.142 620.418 225.202 616.429 218.995 612.862C214.192 610.096 207.9 605.588 202.058 606.178C197.059 606.697 194.545 611.697 196.216 616.219C198.505 622.412 204.319 627.65 209.178 631.849C219.36 640.64 230.566 648.308 242.208 655.035C289.099 682.167 342.872 693.724 395.17 705.535C447.776 717.416 501.97 730.392 547.471 760.67C553.046 764.377 558.439 768.351 563.663 772.536C563.705 772.578 563.761 772.592 563.803 772.62C563.817 773.168 563.859 773.73 563.873 774.278C535.309 756.302 503.501 744.814 469.867 738.748C447.987 734.801 425.854 732.442 403.933 728.679C380.873 724.718 358.137 719.129 335.597 712.964C309.041 705.703 282.639 697.853 256.182 690.199C254.946 689.834 250.606 693.528 251.07 694.834C259.173 717.542 285.912 725.027 306.583 731.628C328.576 738.649 350.905 744.604 373.472 749.477C396.461 754.434 419.703 758.268 443.072 760.95C467.226 763.717 491.269 764.405 514.497 772.326C536.432 779.811 565.165 794.051 586.638 802.87C584.953 802.982 576.021 797.913 574.336 798.011C543.061 786.032 509.89 779.965 476.692 775.766C435.404 770.556 393.779 766.118 352.211 763.801C341.397 763.197 330.57 762.79 319.742 762.664C314.967 762.607 310.136 762.425 305.376 762.692C302.23 762.874 297.947 763.661 296.444 766.877C294.984 770.008 298.045 772.508 300.039 774.615C303.03 777.774 306.387 780.499 310.038 782.858C317.144 787.422 325.163 790.428 333.322 792.52C352.112 797.365 371.998 798.629 391.251 800.412C411.671 802.308 432.146 803.699 452.649 804.555C493.347 806.269 534.129 805.889 574.785 803.516C591.96 803.979 591.483 806.943 595.345 808.698C599.207 810.453 592.719 805.819 588.786 804.036C588.772 804.036 588.758 804.036 588.744 804.008L589.446 802.575C589.854 802.547 590.275 802.519 590.682 802.491L596.314 808.684C597.76 812.237 599.403 815.72 601.229 819.118C603.083 822.559 608.939 819.048 606.987 815.411C595.878 794.697 592.227 770.205 596.159 747.089C598.125 735.476 601.917 724.213 607.605 713.891C614.289 701.757 623.881 691.59 630.832 679.639C637.896 667.491 641.716 653.785 647.095 640.893C652.544 627.833 658.765 615.123 664.874 602.358C676.361 578.315 687.652 553.627 691.584 527.043C695.573 500.093 692.469 471.487 676.123 448.933C674.367 446.504 669.55 447.936 669.831 451.096H669.817Z" fill="#59591D"/>
<path d="M172.089 185.452C174.841 191.617 178.015 197.585 181.582 203.315C239.034 295.623 283.846 365.826 344.556 457.965C375.536 504.982 406.825 551.789 438.408 598.399C469.81 644.728 501.126 691.184 534.016 736.474C570.304 786.455 609.12 834.806 653.751 877.639C657.303 881.051 671.403 875.49 667.752 871.993C587.62 795.105 526.152 701.211 464.01 609.873C400.351 516.287 337.928 421.859 276.754 326.63C242.292 272.97 213.264 231.051 179.588 176.885C177.201 173.037 167.117 173.122 172.075 185.466L172.089 185.452Z" fill="#6C4637"/>
</svg>
