<svg width="229" height="188" viewBox="0 0 229 188" fill="none" xmlns="http://www.w3.org/2000/svg">
<path d="M1.37914 107.114C1.24066 111.598 1.28394 116.514 1.65613 121.578C10.6232 132.864 21.555 123.438 22.7927 135.755C23.6583 144.341 16.4829 142.299 13.8603 147.137C12.7178 149.232 12.4408 152.625 14.0421 158.735C19.6248 165.582 24.3161 170.706 28.2283 174.532C28.6351 174.93 29.0246 175.311 29.4141 175.674C29.7863 176.029 30.1412 176.366 30.4961 176.687C31.1192 175.96 31.6213 175.241 32.0108 174.532C35.5768 168.014 29.544 162.172 24.7056 156.026C22.1868 152.824 23.7708 150.149 26.1597 148.202C28.765 146.081 32.3397 144.843 32.5647 144.765C30.4095 139.07 28.1937 132.501 27.458 128.19C27.4494 128.147 27.4407 128.095 27.432 128.052C27.432 128 27.432 127.931 27.4061 127.844C27.3801 127.758 27.3714 127.671 27.3628 127.584C27.3541 127.541 27.3455 127.489 27.3368 127.437C26.7656 124.391 23.9699 113.208 13.7045 114.22C11.6964 114.419 7.88804 115.623 5.87132 115.787C3.66418 115.969 1.43108 113.952 1.37914 107.114Z" fill="#6C5272"/>
<path d="M2.27956 103.757V103.731C2.66905 96.0359 3.46533 90.029 3.66441 87.441C4.02794 82.7065 7.95752 61.2323 21.6937 40.8487C21.6331 48.7165 22.992 50.5169 49.2007 39.5851C72.6051 29.8131 48.768 64.9888 71.1683 78.3528C76.8808 81.763 84.2034 80.6465 88.7215 75.7648C107.478 55.4678 76.6904 39.862 105.53 36.5383C105.911 36.4951 106.292 36.4518 106.656 36.3998C107.634 36.27 108.577 36.1315 109.477 35.9671C109.694 35.9325 109.901 35.8978 110.118 35.8546C110.62 35.7593 111.104 35.6641 111.581 35.5603C111.996 35.4737 112.394 35.3872 112.792 35.292C113.701 35.0756 114.575 34.8419 115.406 34.5995C116.28 34.3399 117.111 34.0629 117.899 33.7772C118.237 33.6474 118.565 33.5262 118.886 33.3964C119.232 33.2579 119.57 33.1194 119.898 32.9723C120.6 32.6693 121.257 32.3578 121.881 32.0288C122.123 31.899 122.365 31.7692 122.599 31.6394C122.729 31.5615 122.859 31.4922 122.988 31.4143C123.092 31.3624 123.187 31.3018 123.283 31.2412C123.508 31.1114 123.724 30.9729 123.941 30.8344C124.157 30.6959 124.365 30.5574 124.572 30.4189C124.771 30.2804 124.97 30.142 125.17 29.9948C125.559 29.7178 125.923 29.4322 126.269 29.1379C126.433 29.0081 126.589 28.8783 126.736 28.7398C126.944 28.558 127.152 28.3762 127.342 28.1858C127.472 28.0647 127.593 27.9435 127.706 27.831C127.87 27.6665 128.026 27.502 128.182 27.3376C128.312 27.1905 128.45 27.0433 128.571 26.8962C128.969 26.4461 129.324 25.9787 129.653 25.5199C129.766 25.3728 129.869 25.217 129.973 25.0612C129.982 25.0526 129.982 25.0439 129.991 25.0352C130.155 24.7756 130.32 24.5246 130.475 24.2649C130.631 23.9966 130.778 23.7369 130.917 23.4686C131.012 23.2868 131.099 23.1051 131.185 22.932C131.254 22.7762 131.324 22.629 131.393 22.4819C131.401 22.4559 131.419 22.4213 131.427 22.3953C131.505 22.2136 131.575 22.0405 131.644 21.8674C131.748 21.6077 131.834 21.3567 131.921 21.1057C131.999 20.8633 132.077 20.6123 132.146 20.37C132.284 19.8853 132.397 19.4092 132.492 18.9505C132.501 18.8985 132.509 18.8553 132.518 18.812C132.561 18.5783 132.596 18.3532 132.622 18.1369C132.639 18.0243 132.657 17.9205 132.665 17.8079C132.691 17.6175 132.708 17.4358 132.726 17.254C132.734 17.228 132.734 17.2021 132.734 17.1848C132.752 16.9424 132.769 16.7087 132.778 16.4837C132.864 14.4929 132.57 13.1513 132.535 13.0215C143.761 20.1103 149.777 27.8223 149.777 27.8223L151.993 28.1252C156.407 25.3209 161.038 23.3734 165.565 23.0272C173.528 22.4126 189.566 32.6953 202.939 48.353C209.829 56.4112 216.017 65.889 220.025 76.0418C220.579 77.4526 221.098 78.8721 221.565 80.3003C222.197 82.2045 222.742 84.126 223.193 86.0648C223.305 86.5582 223.409 87.0429 223.513 87.5362C223.721 88.5056 223.902 89.4751 224.058 90.4531C224.136 90.9465 224.205 91.4398 224.274 91.9332C224.404 92.9199 224.517 93.898 224.595 94.8847C224.664 95.8108 224.725 96.737 224.75 97.6718C224.768 98.1478 224.776 98.6239 224.776 99.0999C224.776 99.7144 224.776 100.338 224.75 100.952C224.733 101.402 224.716 101.852 224.69 102.294C224.664 102.787 224.629 103.28 224.586 103.774C224.551 104.224 224.499 104.674 224.448 105.133C224.439 105.28 224.422 105.427 224.396 105.583C224.344 106.033 224.283 106.474 224.214 106.924C224.197 107.02 224.188 107.124 224.171 107.219C224.171 107.219 224.231 107.392 224.318 107.712C224.517 108.439 224.846 109.902 224.846 111.642C224.846 111.875 224.837 112.118 224.82 112.36C224.811 112.516 224.802 112.68 224.785 112.845C224.776 113.009 224.759 113.174 224.733 113.338C224.733 113.364 224.725 113.399 224.716 113.425C224.699 113.598 224.673 113.78 224.629 113.961V113.996C224.595 114.169 224.551 114.342 224.508 114.524C224.404 114.957 224.274 115.389 224.101 115.822C224.023 116.03 223.937 116.229 223.842 116.428C223.746 116.636 223.643 116.835 223.53 117.034C223.452 117.181 223.366 117.328 223.27 117.467C223.227 117.536 223.184 117.605 223.132 117.674C222.673 118.35 222.102 119.007 221.384 119.605C221.219 119.743 221.046 119.882 220.864 120.011C215.481 123.958 179.811 149.855 161.107 149.016C158.303 148.895 155.888 148.176 154.01 146.688C152.287 145.329 150.746 144.074 149.379 142.94C144.826 139.149 142.134 136.552 140.55 134.838C139.737 138.352 138.707 139.625 136.43 140.274C134.163 140.932 128.597 138.967 126.425 140.932C124.261 142.888 123.43 146.939 123.638 150.435L123.326 150.73C121.699 148.955 120.297 147.051 119.223 145.034C118.903 144.42 118.591 143.814 118.306 143.208C118.297 143.191 118.297 143.182 118.297 143.182C117.812 142.161 117.388 141.157 117.016 140.153C117.016 140.153 117.016 140.187 116.982 140.265C116.964 140.3 116.956 140.334 116.938 140.386C116.921 140.447 116.895 140.508 116.878 140.577C116.86 140.62 116.843 140.672 116.826 140.724C116.618 141.313 116.246 142.317 115.735 143.45C115.631 143.693 115.519 143.944 115.398 144.195C115.328 144.351 115.25 144.506 115.173 144.662C115.043 144.913 114.913 145.173 114.774 145.424C114.645 145.666 114.515 145.9 114.376 146.134C114.108 146.601 113.822 147.06 113.511 147.493C113.355 147.709 113.199 147.917 113.035 148.124C112.602 148.678 112.134 149.163 111.641 149.544C111.581 149.596 111.511 149.648 111.451 149.691C111.39 149.743 111.321 149.786 111.26 149.821C111.13 149.907 111.001 149.985 110.862 150.055C110.732 150.124 110.602 150.184 110.464 150.236C110.325 150.288 110.196 150.331 110.057 150.366C109.927 150.401 109.789 150.418 109.659 150.435C109.313 150.47 108.949 150.47 108.56 150.427C108.534 150.435 108.525 150.435 108.499 150.427C108.413 150.418 108.317 150.409 108.231 150.392C108.136 150.375 108.032 150.366 107.928 150.34C107.789 150.314 107.651 150.288 107.504 150.245C106.543 150.003 105.504 149.544 104.492 148.825C104.405 148.765 104.31 148.704 104.223 148.635C103.6 148.176 102.994 147.622 102.423 146.956C102.285 146.8 102.155 146.644 102.025 146.48C101.826 146.237 101.644 145.986 101.471 145.727C101.324 145.51 101.177 145.285 101.03 145.052C100.908 144.853 100.787 144.645 100.675 144.428C100.571 144.255 100.484 144.074 100.398 143.892C100.302 143.71 100.216 143.52 100.129 143.321C100.043 143.139 99.9649 142.957 99.8957 142.767C99.7572 142.455 99.636 142.126 99.5321 141.789C99.4802 141.641 99.4283 141.486 99.385 141.338C99.2465 140.932 99.1253 140.499 99.0215 140.049C98.9782 139.858 98.9349 139.668 98.8917 139.469C98.8051 139.071 98.7358 138.673 98.6666 138.248C98.6147 137.894 98.5628 137.539 98.5195 137.175C98.4935 136.993 98.4762 136.803 98.4589 136.613C98.4329 136.422 98.4156 136.232 98.407 136.041C98.3896 135.929 98.381 135.808 98.381 135.695C98.355 135.427 98.3377 135.158 98.3377 134.882C98.3204 134.483 98.3117 134.077 98.3117 133.661C98.3117 131.584 98.5022 129.273 98.9263 126.728C99.2119 125.023 99.2552 123.422 99.0821 121.933C99.0388 121.492 98.9782 121.05 98.8917 120.626C98.7964 120.133 98.6839 119.665 98.5454 119.207C98.407 118.748 98.2511 118.306 98.078 117.874C97.9655 117.605 97.8443 117.337 97.7232 117.077C97.6712 116.973 97.628 116.87 97.5674 116.774C97.2817 116.203 96.9615 115.658 96.6066 115.156C96.4422 114.905 96.2604 114.654 96.07 114.42C95.8017 114.082 95.516 113.762 95.2304 113.459C95.0919 113.303 94.9448 113.156 94.789 113.018C94.5033 112.741 94.2177 112.481 93.9234 112.256C93.7763 112.135 93.6291 112.022 93.482 111.91C93.3262 111.797 93.1791 111.694 93.0233 111.59C92.8588 111.477 92.6944 111.373 92.5386 111.278C92.4693 111.235 92.3914 111.192 92.3135 111.148C92.2356 111.096 92.1664 111.053 92.0885 111.018C91.9327 110.932 91.7769 110.845 91.6124 110.767C91.0238 110.473 90.4266 110.239 89.8381 110.066C89.6736 110.023 89.5091 109.971 89.336 109.937C88.4878 109.729 87.6396 109.651 86.8346 109.703C86.7221 109.703 86.6182 109.711 86.5057 109.729C85.995 109.781 85.5017 109.893 85.0343 110.049C84.9044 110.092 84.7833 110.144 84.6621 110.196C84.3938 110.309 84.1255 110.439 83.8745 110.594C83.6927 110.707 83.5196 110.828 83.3465 110.967C83.0868 111.166 82.8444 111.391 82.6194 111.633C82.4982 111.763 82.3857 111.901 82.2818 112.048C82.1347 112.23 81.9962 112.429 81.875 112.646C81.8145 112.732 81.7625 112.827 81.7193 112.923C81.5115 113.295 81.3298 113.71 81.1826 114.16C80.7672 115.424 80.5767 116.965 80.6806 118.808C80.6892 119.068 80.7152 119.336 80.7412 119.605C80.7845 120.02 80.8364 120.453 80.9143 120.903C80.9316 121.024 80.9489 121.145 80.9749 121.267C81.0268 121.552 81.0874 121.846 81.148 122.149C81.1566 122.21 81.1653 122.262 81.1826 122.314C81.2259 122.539 81.2778 122.773 81.3384 123.015C84.6448 136.578 86.4365 148.315 84.2293 153.049C84.1514 153.214 84.0649 153.37 83.9697 153.517C83.8745 153.664 83.7706 153.811 83.6494 153.949C83.5888 154.019 83.5282 154.079 83.459 154.149C83.3291 154.278 83.1907 154.4 83.0435 154.512C82.7579 154.72 82.4376 154.902 82.0828 155.031C82.0135 155.066 81.9443 155.083 81.8664 155.109C81.7885 155.135 81.7193 155.161 81.6414 155.179C81.5634 155.196 81.4942 155.213 81.4163 155.23C81.2692 155.265 81.1134 155.291 80.9576 155.308H80.9143C80.7498 155.326 80.5767 155.334 80.4036 155.334C80.0747 155.334 79.7285 155.308 79.365 155.239C79.2611 155.222 79.1659 155.205 79.062 155.179C78.837 155.127 78.5946 155.066 78.3436 154.979C78.2657 154.954 78.1792 154.928 78.0926 154.893C78.0667 154.893 78.0493 154.884 78.0234 154.876C77.9454 154.841 77.8589 154.815 77.781 154.78C77.755 154.772 77.7377 154.763 77.7118 154.746C77.5819 154.694 77.4435 154.633 77.3136 154.573C77.2184 154.529 77.1319 154.486 77.0367 154.443C76.9241 154.391 76.8116 154.339 76.6991 154.27C76.6039 154.218 76.5087 154.166 76.4135 154.114C76.3183 154.062 76.223 154.01 76.1192 153.941C75.8335 153.768 75.5392 153.577 75.2363 153.361C75.0719 153.248 74.8988 153.119 74.717 152.98C74.5525 152.859 74.3881 152.729 74.2236 152.599C73.4966 152.011 72.7349 151.31 71.9472 150.479C71.9299 150.461 71.9213 150.453 71.904 150.435C72.4925 144.654 72.8474 138.474 72.7868 132.449C72.7868 132.146 72.7868 131.852 72.7782 131.566C72.7782 131.419 72.7695 131.264 72.7695 131.108C72.7435 129.948 72.7089 128.797 72.6483 127.663C72.6224 127.092 72.5878 126.52 72.5531 125.958C72.5272 125.568 72.5012 125.17 72.4666 124.789C72.4319 124.339 72.3973 123.889 72.354 123.448C72.3454 123.361 72.3367 123.275 72.3281 123.197C72.2935 122.764 72.2502 122.331 72.1983 121.907C72.1377 121.353 72.0684 120.799 71.9992 120.254C71.8607 119.163 71.6962 118.081 71.5058 117.034C71.5058 117.008 71.4972 116.982 71.4972 116.956V116.913C71.4279 116.61 71.376 116.307 71.3154 116.013C71.2635 115.744 71.2115 115.476 71.1509 115.208C71.125 115.061 71.0903 114.913 71.0557 114.775C71.0038 114.524 70.9519 114.282 70.8913 114.039C70.8393 113.797 70.7787 113.555 70.7182 113.312C70.597 112.836 70.4672 112.36 70.3373 111.901C70.1642 111.278 69.9825 110.672 69.7834 110.084C69.6968 109.824 69.6016 109.573 69.5151 109.322C69.4285 109.062 69.3333 108.811 69.2294 108.56C69.1342 108.309 69.039 108.067 68.9351 107.825C68.7361 107.331 68.5284 106.864 68.3033 106.405C68.1994 106.171 68.0869 105.946 67.9657 105.721C67.8532 105.505 67.7407 105.28 67.6195 105.072C67.507 104.864 67.3858 104.648 67.256 104.44V104.423L67.2387 104.406C67.0915 104.163 66.9357 103.921 66.7886 103.687C66.6847 103.531 66.5809 103.384 66.477 103.237C66.3125 102.995 66.1394 102.761 65.9577 102.527C65.7586 102.276 65.5595 102.025 65.3518 101.792C65.3085 101.74 65.2652 101.697 65.222 101.645C65.0142 101.411 64.8065 101.195 64.5901 100.978C64.4083 100.805 64.2266 100.632 64.0361 100.459C63.8371 100.286 63.638 100.113 63.4303 99.9568H63.4216L63.413 99.9395C63.1273 99.7144 62.8331 99.5067 62.5301 99.3076C62.4089 99.2211 62.2791 99.1432 62.1579 99.0739C62.0108 98.9874 61.8636 98.9008 61.7165 98.8229C61.5434 98.7277 61.3616 98.6325 61.1799 98.546C61.0241 98.4681 60.8596 98.3902 60.6952 98.3296C60.548 98.2603 60.4009 98.1997 60.2451 98.1478C60.0201 98.0613 59.795 97.9834 59.5613 97.9141C59.4661 97.8795 59.3709 97.8535 59.2843 97.8276C59.1199 97.7756 58.9468 97.7323 58.7737 97.6977C58.6438 97.6631 58.514 97.6371 58.3755 97.6112C58.2457 97.5852 58.1245 97.5592 57.986 97.5419C57.7263 97.4986 57.458 97.464 57.1897 97.4381C57.0685 97.4208 56.956 97.4121 56.8348 97.4034C56.5232 97.3775 56.203 97.3602 55.8741 97.3602C55.3634 97.3602 54.8614 97.3602 54.368 97.3688C54.0391 97.3688 53.7189 97.3775 53.3986 97.3948C53.0178 97.3948 52.6456 97.4208 52.2734 97.4381C51.7108 97.4727 51.1568 97.5073 50.6202 97.5592C50.5856 97.5592 50.551 97.5592 50.5163 97.5592C50.248 97.5852 49.9884 97.6025 49.7374 97.6371C49.1488 97.6977 48.5862 97.767 48.0236 97.8535C47.7466 97.8881 47.4696 97.9401 47.2013 97.9834C46.4656 98.1045 45.7472 98.243 45.0634 98.4075C44.8817 98.4421 44.6999 98.4854 44.5268 98.5373C43.9642 98.6758 43.4189 98.8229 42.8909 98.9874C42.6226 99.0653 42.3629 99.1518 42.1119 99.2384C41.9994 99.273 41.8955 99.3076 41.7917 99.3509C41.4108 99.4807 41.0386 99.6192 40.6751 99.7664C40.3029 99.9135 39.9394 100.069 39.5845 100.234C39.4633 100.286 39.3335 100.346 39.2123 100.407C38.8921 100.554 38.5718 100.718 38.2689 100.883C38.0785 100.978 37.8881 101.082 37.7063 101.195C37.6024 101.246 37.4899 101.316 37.386 101.385C37.135 101.532 36.884 101.688 36.6417 101.844C36.382 102.008 36.131 102.181 35.8886 102.363C35.6463 102.536 35.4039 102.718 35.1703 102.9C34.8587 103.142 34.5471 103.402 34.2528 103.67C33.9758 103.921 33.7075 104.181 33.4392 104.44C33.3872 104.492 33.3439 104.544 33.3007 104.587C33.0843 104.812 32.8766 105.038 32.6688 105.271C32.4005 105.574 32.1495 105.886 31.9071 106.206H31.8985C31.8033 106.345 31.7081 106.466 31.6129 106.604C31.509 106.751 31.4051 106.89 31.3099 107.037C31.2493 107.124 31.1887 107.21 31.1282 107.305C31.0243 107.461 30.9291 107.617 30.8339 107.773C30.7213 107.946 30.6175 108.128 30.5136 108.309C30.4098 108.491 30.3059 108.673 30.2107 108.863C29.925 109.409 29.6567 109.971 29.423 110.542L29.3971 110.603C29.0249 111.512 28.7133 112.447 28.4623 113.407C28.4017 113.641 28.3411 113.866 28.2892 114.1C28.2286 114.359 28.168 114.628 28.116 114.905C28.0728 115.121 28.0295 115.338 27.9949 115.554C27.9083 116.065 27.8304 116.584 27.7698 117.103C27.7352 117.406 27.7006 117.709 27.6746 118.012C27.6573 118.272 27.64 118.523 27.6227 118.782C27.6054 119.042 27.5881 119.302 27.5794 119.561C27.5708 119.812 27.5621 120.063 27.5621 120.323C27.5188 122.703 27.7179 125.127 28.0987 127.55C28.0555 127.308 27.9949 127.022 27.917 126.693C27.8997 126.616 27.8824 126.538 27.8651 126.46C27.7525 125.975 27.6054 125.412 27.415 124.807L27.3977 124.755C27.1293 123.88 26.7745 122.911 26.3157 121.924C26.2119 121.708 26.108 121.492 25.9955 121.275C25.8743 121.033 25.7445 120.79 25.606 120.548C25.4675 120.297 25.3203 120.055 25.1732 119.821C24.827 119.258 24.4375 118.722 24.0047 118.211C23.9528 118.133 23.8836 118.064 23.8143 117.995H23.8056C23.8056 117.995 23.7797 117.934 23.7451 117.917C23.6931 117.839 23.6239 117.77 23.5546 117.7C23.4075 117.536 23.2517 117.372 23.0872 117.224C22.9661 117.095 22.8276 116.973 22.6891 116.861C22.516 116.705 22.3429 116.558 22.1611 116.419C22.0659 116.342 21.962 116.272 21.8582 116.194C21.737 116.099 21.6245 116.013 21.486 115.935H21.4773C21.2869 115.805 21.0965 115.684 20.8888 115.571C20.6897 115.45 20.482 115.346 20.2656 115.251C20.1011 115.164 19.9367 115.095 19.7635 115.035C19.7462 115.017 19.7203 115.009 19.6943 115.009C19.6337 114.974 19.5645 114.948 19.4952 114.931C19.4866 114.913 19.4779 114.913 19.4606 114.913C19.2961 114.844 19.1404 114.792 18.9586 114.74C18.6816 114.654 18.396 114.576 18.1017 114.515C17.9719 114.489 17.842 114.463 17.7036 114.446C17.6776 114.429 17.643 114.42 17.5997 114.429C17.5391 114.411 17.4785 114.394 17.4093 114.394C17.392 114.385 17.3746 114.385 17.3573 114.385C17.2794 114.368 17.2102 114.359 17.1236 114.359C17.0284 114.333 16.9332 114.325 16.8207 114.325H16.812C16.6995 114.325 16.5957 114.308 16.4832 114.299C15.8513 114.256 15.1762 114.264 14.4664 114.333C12.4584 114.533 8.64996 115.736 6.63324 115.9C4.4261 116.082 2.19301 114.065 2.14107 107.227C2.17569 106.033 2.22763 104.873 2.27956 103.748V103.757ZM201 86.1254C199.84 85.8398 198.507 87.2073 198.022 89.1808C197.546 91.1542 198.092 92.9892 199.26 93.2661C200.42 93.5518 201.753 92.1842 202.238 90.2108C202.714 88.2373 202.16 86.411 201 86.1254ZM215.965 86.1427C214.745 84.5155 212.979 83.7798 212.027 84.4982C211.066 85.2166 211.274 87.1208 212.494 88.7393C213.715 90.3666 215.481 91.1023 216.433 90.3839C217.393 89.6741 217.186 87.7699 215.965 86.1427Z" fill="#999933"/>
<path d="M1.65618 121.578C2.26206 129.922 3.79408 138.664 6.98794 146.54C8.76231 150.955 11.0733 155.101 14.0421 158.736C12.4409 152.625 12.7178 149.232 13.8604 147.138C16.483 142.299 23.6583 144.342 22.7928 135.756C21.555 123.439 10.6232 132.865 1.65618 121.578Z" fill="#999933"/>
<path d="M20.9324 40.7268C20.8719 48.5946 22.2308 50.3949 48.4394 39.4631C71.8438 29.6911 48.0067 64.8668 70.407 78.2308C76.1196 81.6411 83.4421 80.5245 87.9602 75.6428C106.717 55.3458 75.9292 39.74 104.769 36.4163C136.145 32.7984 131.895 13.4015 131.774 12.8995C126.486 9.55849 120.046 6.35598 112.524 4.1748C112.317 4.67682 104.683 22.8792 84.9308 25.2422C81.486 25.6576 79.0278 28.7736 79.3567 32.2185C80.0405 39.3938 79.7895 49.7198 72.718 49.9881C62.5998 50.3689 66.5467 14.3017 56.8352 17.4349C55.4417 17.885 54.3944 19.0449 53.9184 20.4297C52.0488 25.9259 44.6743 43.0724 28.4194 32.807L27.9693 31.4914C25.3727 34.4948 23.0357 37.6021 20.9324 40.7268Z" fill="#6C5272"/>
<path d="M70.8395 153.127C70.8828 152.728 70.926 152.33 70.9693 151.924C71.0299 151.396 71.0818 150.859 71.1424 150.314C73.5054 127.056 72.1291 97.3769 55.1125 97.2384C29.5357 97.0307 24.9916 112.403 27.3372 127.437C27.3458 127.489 27.3545 127.541 27.3632 127.584C27.3632 127.671 27.3891 127.758 27.4065 127.844C27.4238 127.931 27.4324 128 27.4324 128.052C27.4411 128.095 27.4497 128.147 27.4584 128.19C28.1941 132.501 30.4099 139.07 32.5651 144.765C32.34 144.843 28.7654 146.081 26.1601 148.202C23.7712 150.149 22.1872 152.824 24.706 156.026C29.5443 162.172 35.5772 168.014 32.0111 174.532C31.6216 175.241 31.1196 175.96 30.4964 176.687C37.8882 183.507 42.0688 185.23 43.9643 185.559C49.0537 186.459 61.5089 186.39 66.0444 176.479C66.1828 176.167 66.33 175.804 66.4858 175.388C66.7801 174.583 67.083 173.579 67.4033 172.402C67.5937 171.701 67.7841 170.94 67.9745 170.109C68.9526 165.971 69.9393 160.423 70.7097 154.243L70.8395 153.127Z" fill="#999933"/>
<path d="M27.9693 31.4911L28.4194 32.8067C44.6744 43.0721 52.0488 25.9257 53.9184 20.4294C54.3944 19.0446 55.4417 17.8847 56.8353 17.4347C66.5467 14.3014 62.5998 50.3686 72.718 49.9878C79.7895 49.7195 80.0405 39.3935 79.3567 32.2182C79.0278 28.7733 81.486 25.6573 84.9308 25.2419C104.683 22.8789 112.317 4.67653 112.524 4.17451C100.017 0.521912 84.5327 -0.334978 66.4601 5.61997C49.7118 11.1421 37.222 20.741 27.9693 31.4911Z" fill="#999933"/>
<path d="M67.9744 170.109C67.7839 170.94 67.5935 171.702 67.4031 172.403C67.4031 172.403 83.8831 176.462 86.6095 174.532C89.336 172.593 81.8664 168.231 82.0222 165.132C82.178 162.034 96.7191 171.529 93.2136 165.132C91.4912 162.008 86.0989 159.065 81.0354 156.866C79.5986 156.459 78.3176 155.905 77.2097 155.326C77.2097 155.326 77.2011 155.326 77.1924 155.326C73.7216 154.001 71.0297 153.196 70.8393 153.136L70.7095 154.252L71.3932 154.33L76.2749 161.229C77.3655 162.769 76.8981 164.916 75.2709 165.868L67.9744 170.109Z" fill="#999933"/>
<path d="M67.9748 170.101L75.2713 165.86C76.8985 164.908 77.3659 162.761 76.2753 161.22L71.3936 154.322L70.7099 154.244C69.9395 160.424 68.9528 165.972 67.9748 170.101Z" fill="#6C5272"/>
<g opacity="0.5">
<path d="M67.9744 170.109C68.9524 165.972 69.9391 160.424 70.7095 154.244C70.7528 153.871 70.796 153.499 70.8393 153.127C71.0297 153.188 73.7216 153.992 77.1924 155.317C77.2011 155.317 77.2097 155.317 77.2097 155.325C78.3176 155.905 79.5986 156.459 81.0354 156.866C86.0989 159.065 91.4912 162.007 93.2136 165.132C96.7191 171.528 82.178 162.033 82.0222 165.132C81.8664 168.231 89.336 172.593 86.6095 174.532C83.8831 176.462 67.4031 172.403 67.4031 172.403C67.5935 171.702 67.7839 170.94 67.9744 170.109Z" fill="#333300"/>
</g>
<path d="M71.1424 150.314C71.0818 150.859 71.0299 151.396 70.9693 151.924C71.5579 151.967 72.1378 152.019 72.7177 152.062C72.7177 152.062 74.3449 153.794 77.1926 155.317H77.2099C78.4216 155.776 79.7113 156.295 81.0356 156.858C84.2814 157.784 88.3321 157.983 92.9368 156.182C100.121 153.369 104.769 155.516 110.17 155.023H110.187C111.286 154.919 112.412 154.702 113.597 154.322C120.418 152.123 117.709 143.571 117.544 143.078C117.544 143.061 117.544 143.052 117.544 143.052C117.06 142.031 116.635 141.027 116.263 140.023C116.263 140.023 113.165 149.855 108.906 150.305C104.345 150.781 95.0834 145.026 98.1734 126.598C101.272 108.171 75.3836 101.489 80.5855 122.885C83.8919 136.448 85.6836 148.185 83.4764 152.919C82.2041 155.654 77.6426 157.117 71.151 150.305L71.1424 150.314Z" fill="#6C5272"/>
<path d="M122.564 150.608C124.529 152.755 126.84 154.72 129.342 156.511C131.635 158.156 134.085 159.653 136.569 160.995L136.716 160.726L136.041 157.022H136.032L135.149 152.183C134.604 149.249 136.474 146.393 139.512 145.501L148.617 142.818C144.064 139.027 141.373 136.431 139.789 134.717C138.975 138.231 137.945 139.503 135.669 140.152C133.401 140.81 127.835 138.845 125.663 140.81C123.499 142.766 122.668 146.817 122.876 150.314L122.564 150.608Z" fill="#6C5272"/>
<path d="M139.511 145.502C136.473 146.393 134.604 149.249 135.149 152.184L136.032 157.022H136.041L136.716 160.726L136.569 160.995C141.796 163.851 147.206 166.05 151.664 167.616L151.811 167.218L150.426 159.16C149.959 156.39 151.594 153.69 154.278 152.841L162.137 150.366L161.868 149.518C160.934 149.145 160.345 148.92 160.345 148.92V148.894C157.541 148.773 155.126 148.055 153.248 146.566C151.525 145.207 149.984 143.952 148.617 142.818L139.511 145.502Z" fill="#999933"/>
<path d="M146.176 81.2355L136.439 84.161C136.153 84.2476 135.885 84.3601 135.634 84.5072C135.47 84.2649 135.314 84.0225 135.175 83.7715C135.019 83.5292 134.881 83.2782 134.751 83.0185C133.306 80.3094 132.483 77.2194 132.483 73.9389C132.483 70.6585 133.245 67.7849 134.595 65.1537C137.789 58.8958 144.298 54.6113 151.811 54.6113C161.817 54.6113 170.048 62.2108 171.035 71.9655C171.069 72.2511 171.095 72.5541 171.104 72.8484C171.121 73.1426 171.139 73.4369 171.13 73.7399L168.559 74.5102L149.223 80.318L146.176 81.2355ZM148.029 75.1594C148.089 75.0728 148.15 74.9776 148.202 74.891C148.202 74.891 148.228 74.8305 148.245 74.8045C148.262 74.7785 148.271 74.7526 148.28 74.7266C148.34 74.6054 148.392 74.4756 148.435 74.3458C148.453 74.3025 148.47 74.2592 148.479 74.2073C148.574 73.913 148.617 73.5927 148.617 73.2638C148.617 71.4116 147.12 69.9055 145.268 69.9055C143.415 69.9055 141.909 71.4116 141.909 73.2638C141.909 73.3763 141.918 73.4975 141.927 73.61C141.935 73.6966 141.944 73.7745 141.97 73.861L141.996 73.9909C142.013 74.0861 142.03 74.1813 142.065 74.2678C142.091 74.3717 142.134 74.4756 142.178 74.5708C142.221 74.6833 142.281 74.7958 142.342 74.9084C142.377 74.9689 142.411 75.0209 142.446 75.0815C142.506 75.168 142.567 75.2632 142.645 75.3498C142.68 75.3931 142.714 75.4363 142.757 75.4796C142.844 75.5835 142.939 75.6873 143.052 75.7739C143.095 75.8172 143.138 75.8518 143.182 75.8864C143.294 75.973 143.407 76.0595 143.528 76.1288C143.649 76.198 143.779 76.2673 143.917 76.3279C144.021 76.3711 144.125 76.4144 144.238 76.449C144.272 76.4577 144.315 76.475 144.359 76.4836C144.506 76.5356 144.67 76.5615 144.826 76.5789C144.887 76.5875 144.947 76.5962 145.008 76.5962C145.094 76.6135 145.181 76.6135 145.268 76.6135C145.493 76.6135 145.709 76.5962 145.917 76.5442C146.029 76.5269 146.142 76.501 146.254 76.4663H146.263C146.419 76.4144 146.566 76.3538 146.713 76.2846C146.86 76.2153 146.999 76.1374 147.128 76.0509C147.128 76.0509 147.137 76.0509 147.146 76.0422C147.31 75.9297 147.475 75.7912 147.622 75.6441C147.778 75.4969 147.907 75.3325 148.029 75.1594Z" fill="#F6E7D3"/>
<path d="M145.268 69.8965C143.415 69.8965 141.909 71.4025 141.909 73.2548C141.909 75.1071 143.415 76.6045 145.268 76.6045C147.12 76.6045 148.617 75.1071 148.617 73.2548C148.617 71.4025 147.12 69.8965 145.268 69.8965Z" fill="#333300"/>
<path d="M162.138 150.366L154.278 152.841C151.595 153.689 149.959 156.39 150.427 159.16L151.812 167.218L151.664 167.616C155.49 168.966 158.623 169.858 160.346 170.291C166.95 171.944 161.835 158.961 161.835 158.961C161.835 158.961 161.878 158.961 161.956 158.961C162.596 158.987 165.816 159.038 172.775 157.905C179.284 156.831 166.431 151.344 161.869 149.509L162.138 150.357V150.366Z" fill="#6C5272"/>
<path d="M197.261 89.0599C196.785 91.0333 197.33 92.8683 198.499 93.1453C199.659 93.4309 200.992 92.0633 201.476 90.0899C201.952 88.1164 201.398 86.2901 200.239 86.0045C199.079 85.7189 197.746 87.0864 197.261 89.0599Z" fill="#333300"/>
<path d="M204.393 47.7808C203.579 48.2482 203.458 48.9406 202.922 49.5378C209.811 57.596 215.264 65.7754 219.272 75.9283C219.748 75.7552 220.233 75.5215 220.726 75.2358C227.044 71.5919 228.473 62.2354 223.911 54.3329C219.35 46.4392 210.72 44.1282 204.402 47.7808H204.393Z" fill="#F6E7D3"/>
<path d="M211.266 84.3769C210.305 85.0953 210.512 86.9995 211.733 88.6181C212.953 90.2453 214.719 90.981 215.671 90.2626C216.632 89.5529 216.424 87.6487 215.204 86.0214C213.983 84.3942 212.218 83.6585 211.266 84.3769Z" fill="#333300"/>
<path d="M72.7176 153.36C73.3927 153.36 73.964 152.84 74.0073 152.157C74.0592 151.438 73.5226 150.815 72.8128 150.763L71.0644 150.625C70.3547 150.573 69.7315 151.109 69.6709 151.828C69.6189 152.546 70.1556 153.169 70.874 153.221L72.6224 153.36C72.6224 153.36 72.6916 153.36 72.7176 153.36Z" fill="#333300"/>
<path d="M161.237 150.219C179.5 150.219 211.395 127.888 220.864 120.946C226.793 116.601 225.374 109.374 224.802 107.262C224.776 107.167 224.75 107.08 224.733 107.011C226.239 97.0228 224.802 86.4026 220.466 75.4535C220.198 74.787 219.445 74.4581 218.778 74.7264C218.112 74.9947 217.783 75.7478 218.051 76.4142C222.258 87.0345 223.625 97.2998 222.119 106.916L222.067 107.236L222.171 107.548C222.171 107.548 222.223 107.704 222.292 107.946C222.76 109.66 223.919 115.494 219.323 118.861C199.814 133.168 174.064 148.228 160.388 147.614C157.749 147.501 155.611 146.809 154.044 145.563C152.512 144.351 151.006 143.13 149.431 141.832C145.614 138.656 142.688 135.964 140.723 133.852C139.096 132.086 138.75 131.394 138.741 131.359C138.482 130.693 137.746 130.381 137.079 130.632C136.413 130.892 136.084 131.662 136.344 132.337C136.43 132.571 136.88 133.506 138.828 135.609C140.862 137.807 143.874 140.577 147.777 143.823C149.361 145.138 150.885 146.368 152.434 147.588C154.442 149.181 157.082 150.055 160.276 150.193C160.588 150.211 160.908 150.211 161.228 150.211L161.237 150.219Z" fill="#333300"/>
<path d="M121.465 79.92C122.184 79.92 122.763 79.3401 122.763 78.6217C122.763 78.4572 122.824 62.3667 127.541 54.5249C131.263 48.3189 141.174 35.9243 151.932 29.0952C156.572 26.1437 160.934 24.4992 164.907 24.1962C171.84 23.6682 187.316 32.817 201.19 49.072C201.658 49.6173 202.471 49.6778 203.025 49.2191C203.571 48.7517 203.631 47.9381 203.173 47.3928C190.042 32.0207 173.493 20.9331 164.708 21.6169C160.311 21.9545 155.542 23.7375 150.539 26.914C139.321 34.0288 129.307 46.5359 125.317 53.2006C120.227 61.657 120.175 77.9379 120.175 78.6303C120.175 79.3228 120.755 79.9286 121.474 79.9286L121.465 79.92Z" fill="#333300"/>
<path d="M200.299 74.5534C200.359 74.5534 200.42 74.5534 200.48 74.5448C201.19 74.4409 201.684 73.7918 201.588 73.082C198.239 49.2363 171.978 32.4187 170.87 31.7176C170.264 31.3368 169.459 31.5186 169.078 32.1244C168.698 32.7303 168.879 33.5353 169.485 33.9161C169.745 34.0806 195.841 50.8029 199.018 73.4455C199.113 74.0947 199.667 74.5621 200.299 74.5621V74.5534Z" fill="#333300"/>
<path d="M172.775 54.325C173.052 54.325 173.328 54.2385 173.562 54.0567C174.133 53.6239 174.246 52.8103 173.805 52.2391C163.479 38.7193 152.729 44.4059 152.625 44.4665C151.993 44.8127 151.768 45.6003 152.114 46.2322C152.46 46.8554 153.248 47.0891 153.871 46.7429C154.252 46.5351 162.838 42.1468 171.745 53.8144C171.996 54.1519 172.385 54.325 172.775 54.325Z" fill="#333300"/>
<path d="M216.805 39.8884C216.909 39.8884 217.004 39.8797 217.108 39.8537C217.809 39.6893 218.233 38.9882 218.069 38.2871C217.826 37.2744 217.194 36.4608 216.251 35.9242C212.763 33.9507 205.285 36.2617 204.445 36.53C203.761 36.7464 203.389 37.4821 203.605 38.1659C203.822 38.8497 204.557 39.2219 205.241 39.0055C208.002 38.1226 213.092 37.1186 214.987 38.1832C215.316 38.365 215.481 38.5814 215.559 38.893C215.697 39.4902 216.234 39.8884 216.822 39.8884H216.805Z" fill="#333300"/>
<path d="M218.518 77.5742L219.704 77.1414C220.241 76.951 220.795 76.6826 221.366 76.3537C224.768 74.389 227.009 70.9181 227.676 66.5731C228.325 62.3319 227.382 57.7532 225.027 53.6765C222.699 49.643 219.202 46.6915 215.186 45.3499C211.205 44.0256 207.119 44.3892 203.683 46.3713C202.921 46.8127 202.61 47.1416 202.229 47.6003C202.151 47.6956 202.056 47.8081 201.943 47.9293L201.182 48.7775L201.926 49.643C208.885 57.7878 214.165 66.5385 218.051 76.3884L218.518 77.5655V77.5742ZM210.478 47.1676C211.759 47.1676 213.074 47.384 214.373 47.8167C217.783 48.9506 220.769 51.4953 222.786 54.9748C224.846 58.5408 225.668 62.5223 225.114 66.1749C224.577 69.7237 222.786 72.5367 220.076 74.1033C220.042 74.1206 219.999 74.1466 219.964 74.1639C216.164 64.9026 211.144 56.602 204.652 48.8381C204.739 48.7775 204.843 48.7082 204.99 48.6217C206.669 47.6523 208.539 47.1589 210.478 47.1589V47.1676Z" fill="#333300"/>
<path d="M136.274 85.4674C136.474 85.4674 136.664 85.4414 136.811 85.3981L172.394 74.7086L172.42 73.7738C172.428 73.4449 172.42 73.1247 172.394 72.7958C172.385 72.4755 172.359 72.1293 172.316 71.8004C171.251 61.2667 162.431 53.3037 151.802 53.3037C144.012 53.3037 136.976 57.6141 133.427 64.5558C131.929 67.4727 131.176 70.6233 131.176 73.9296C131.176 77.236 132.016 80.6549 133.6 83.6237C133.73 83.8921 133.894 84.1777 134.067 84.4547C134.491 85.1298 135.504 85.4674 136.266 85.4674H136.274ZM169.806 72.7785L136.223 82.8707C136.223 82.8707 136.171 82.8621 136.136 82.8534C136.058 82.7149 135.98 82.5764 135.911 82.4379C134.509 79.8153 133.782 76.8898 133.782 73.9383C133.782 70.9868 134.448 68.2949 135.746 65.7502C138.845 59.6828 144.999 55.909 151.811 55.909C161.098 55.909 168.81 62.868 169.745 72.0947C169.771 72.3284 169.797 72.5621 169.806 72.7785Z" fill="#333300"/>
<path d="M145.268 77.9023C147.83 77.9023 149.916 75.8163 149.916 73.2543C149.916 70.6923 147.83 68.5977 145.268 68.5977C142.706 68.5977 140.611 70.6836 140.611 73.2543C140.611 75.825 142.697 77.9023 145.268 77.9023ZM145.268 71.1943C146.401 71.1943 147.319 72.1204 147.319 73.2543C147.319 74.3881 146.401 75.3056 145.268 75.3056C144.134 75.3056 143.208 74.3881 143.208 73.2543C143.208 72.1204 144.134 71.1943 145.268 71.1943Z" fill="#333300"/>
<path d="M198.81 94.486C199.624 94.486 200.463 94.0965 201.173 93.3781C201.891 92.6337 202.454 91.5864 202.74 90.4093C203.406 87.6568 202.463 85.2247 200.55 84.7573C199.537 84.5063 198.455 84.8871 197.564 85.7959C196.845 86.5403 196.283 87.5876 195.997 88.7647C195.608 90.3833 195.772 92.0019 196.447 93.1011C196.871 93.7935 197.477 94.2523 198.196 94.4254C198.395 94.4773 198.602 94.5033 198.81 94.5033V94.486ZM199.909 87.2673C199.909 87.2673 199.918 87.2673 199.927 87.2673C200.091 87.3106 200.584 88.2454 200.212 89.7861C199.857 91.2315 199.035 91.9067 198.81 91.8893C198.594 91.8115 198.17 90.8247 198.524 89.3706C198.871 87.9511 199.676 87.2673 199.918 87.2673H199.909Z" fill="#333300"/>
<path d="M214.788 91.8378C215.411 91.8378 215.983 91.656 216.45 91.3011C217.03 90.8684 217.411 90.2106 217.532 89.3969C217.722 88.1246 217.238 86.5753 216.242 85.2423C215.247 83.918 213.897 83.0179 212.624 82.8361C211.819 82.7236 211.075 82.8967 210.486 83.3381C209.898 83.7796 209.517 84.446 209.405 85.2683C209.223 86.5406 209.707 88.09 210.703 89.4056C211.698 90.7299 213.048 91.63 214.321 91.8118C214.485 91.8378 214.641 91.8464 214.797 91.8464L214.788 91.8378ZM212.157 85.3981C212.503 85.3981 213.386 85.7617 214.165 86.8003C215.057 87.9861 215.057 89.0594 214.901 89.2152C214.71 89.319 213.706 89.0767 212.772 87.839C212.122 86.9821 211.906 86.1079 211.975 85.6318C211.993 85.4847 212.036 85.4241 212.044 85.4154C212.07 85.3981 212.105 85.3981 212.157 85.3981Z" fill="#333300"/>
<path d="M176.652 124.2C177.154 124.2 177.63 123.906 177.847 123.412C178.132 122.755 177.829 121.993 177.171 121.707C176.6 121.456 162.976 115.683 152.651 120.842C149.751 122.287 146.644 121.612 144.913 119.163C143.06 116.549 142.904 111.563 148.557 106.119C149.076 105.626 149.093 104.803 148.591 104.284C148.089 103.765 147.267 103.756 146.756 104.249C139.918 110.827 140.351 117.207 142.792 120.66C145.259 124.148 149.786 125.178 153.81 123.161C163.063 118.539 176.003 124.027 176.133 124.088C176.297 124.157 176.479 124.191 176.643 124.191L176.652 124.2Z" fill="#333300"/>
<path d="M161.592 144.342C167.131 144.342 176.575 137.937 178.643 136.483C179.232 136.068 179.37 135.263 178.963 134.674C178.548 134.086 177.743 133.947 177.154 134.354C171.805 138.11 163.141 142.836 160.64 141.581C156.632 139.582 152.902 134.683 152.859 134.64C152.426 134.068 151.612 133.956 151.041 134.389C150.47 134.821 150.357 135.635 150.79 136.206C150.954 136.423 154.919 141.633 159.48 143.91C160.086 144.212 160.804 144.351 161.609 144.351L161.592 144.342Z" fill="#333300"/>
<path d="M161.41 171.737C162.708 171.737 163.505 171.183 163.981 170.646C166.508 167.764 163.643 160.017 163.046 158.494C162.786 157.827 162.025 157.499 161.367 157.758C160.7 158.018 160.371 158.771 160.631 159.437C162.085 163.133 162.994 167.833 162.033 168.924C161.765 169.227 161.142 169.149 160.666 169.028C159.783 168.803 156.546 167.954 152.105 166.388C146.635 164.466 141.624 162.268 137.201 159.853C134.621 158.459 132.241 156.979 130.112 155.456C129.532 155.04 128.718 155.17 128.303 155.75C127.888 156.33 128.017 157.144 128.597 157.559C130.813 159.152 133.297 160.692 135.963 162.129C140.498 164.605 145.64 166.864 151.249 168.837C155.671 170.395 158.874 171.252 160.043 171.546C160.553 171.676 161.012 171.728 161.419 171.728L161.41 171.737Z" fill="#333300"/>
<path d="M136.032 158.32C136.751 158.32 137.331 157.74 137.331 157.022C137.331 156.304 136.751 155.724 136.032 155.724C135.314 155.724 134.734 156.304 134.734 157.022C134.734 157.74 135.314 158.32 136.032 158.32Z" fill="#333300"/>
<path d="M129.342 157.81C129.749 157.81 130.147 157.62 130.398 157.265C130.813 156.685 130.683 155.871 130.095 155.456C127.524 153.612 125.308 151.691 123.517 149.734C121.898 147.969 120.582 146.142 119.604 144.307C119.301 143.719 118.99 143.13 118.713 142.542C118.41 141.893 117.64 141.616 116.982 141.919C116.333 142.222 116.056 143.001 116.359 143.65C116.653 144.273 116.973 144.896 117.302 145.528C118.384 147.562 119.829 149.57 121.595 151.5C123.508 153.586 125.854 155.629 128.571 157.585C128.796 157.749 129.065 157.827 129.324 157.827L129.342 157.81Z" fill="#333300"/>
<path d="M116.255 141.338C116.411 141.338 116.567 141.312 116.714 141.252C117.38 141.001 117.726 140.248 117.467 139.581C112.602 126.737 116.142 115.718 116.177 115.606C116.402 114.922 116.03 114.195 115.355 113.961C114.671 113.736 113.944 114.1 113.71 114.783C113.546 115.268 109.833 126.754 115.035 140.499C115.234 141.018 115.727 141.338 116.246 141.338H116.255Z" fill="#333300"/>
<path d="M162.526 160.285C163.937 160.285 167.192 160.147 172.982 159.203C174.774 158.909 175.743 158.191 175.864 157.057C175.977 156.027 176.211 153.898 162.353 148.315C161.401 147.934 160.813 147.709 160.813 147.709C160.146 147.458 159.393 147.787 159.134 148.462C158.874 149.129 159.211 149.882 159.887 150.141C159.887 150.141 160.475 150.366 161.393 150.73C168.68 153.664 171.883 155.629 172.93 156.572C172.826 156.598 172.705 156.615 172.567 156.641C165.703 157.758 162.57 157.706 162.016 157.68C161.263 157.645 160.692 158.208 160.666 158.926C160.64 159.645 161.194 160.251 161.912 160.277C162.05 160.277 162.258 160.285 162.535 160.285H162.526Z" fill="#333300"/>
<path d="M34.184 150.185C34.3484 150.185 34.5129 150.15 34.6687 150.089C35.3352 149.821 35.6554 149.059 35.3871 148.402C34.8678 147.129 34.3311 145.753 33.7858 144.316L33.4656 143.477H32.5654C31.847 143.477 31.2671 144.056 31.2671 144.775C31.2671 144.974 31.3104 145.164 31.3969 145.337C31.9336 146.757 32.4702 148.116 32.9809 149.371C33.1886 149.873 33.6733 150.185 34.184 150.185Z" fill="#333300"/>
<path d="M48.5426 187.246C55.138 187.246 63.5425 185.065 67.2211 177.024C67.3769 176.678 67.5326 176.288 67.6971 175.847C67.9914 175.042 68.303 174.038 68.6492 172.748C68.8396 172.03 69.0387 171.251 69.2291 170.402L69.2637 170.255C70.2937 165.867 71.2631 160.25 71.9902 154.407L72.2499 152.062C72.2845 151.776 72.3104 151.482 72.3451 151.179L72.423 150.452C73.8511 136.361 74.8465 111.165 65.4034 100.631C62.6423 97.5495 59.1801 95.9656 55.1121 95.9309C43.9206 95.8617 35.7585 98.6834 30.8422 104.387C26.1769 109.797 24.5151 117.829 26.0471 127.627C26.1596 128.337 26.8261 128.822 27.5272 128.709C28.2369 128.597 28.7216 127.939 28.6091 127.229C27.631 120.937 27.5618 112.16 32.807 106.084C37.204 100.986 44.6909 98.441 55.0948 98.5276C58.4444 98.5535 61.1795 99.8086 63.4732 102.362C72.5788 112.523 70.9602 139.182 69.8437 150.175L69.7658 150.902C69.7311 151.196 69.7052 151.482 69.6705 151.767L69.4109 154.087C68.6838 159.895 67.7231 165.477 66.7017 169.797L66.6671 169.961C66.494 170.723 66.3122 171.415 66.1391 172.064C65.8102 173.285 65.5159 174.228 65.2562 174.947C65.1178 175.327 64.9793 175.665 64.8494 175.959C60.842 184.727 49.5726 185.238 44.1803 184.286C42.9166 184.069 39.2899 182.866 32.2531 176.548C32.5906 176.089 32.8849 175.622 33.1359 175.163C33.4821 174.531 33.2484 173.743 32.6252 173.397C32.002 173.051 31.2057 173.285 30.8595 173.908C30.5133 174.548 30.0545 175.198 29.5006 175.847L28.687 176.799L29.6045 177.647C37.4376 184.874 41.8173 186.51 43.7302 186.848C45.115 187.09 46.7596 187.255 48.5339 187.255L48.5426 187.246Z" fill="#333300"/>
<path d="M45.41 161.228C50.0666 161.228 52.594 157.913 52.9922 154.658C53.4596 150.833 51.1139 146.263 44.882 145.259C44.1723 145.146 43.5058 145.622 43.3933 146.332C43.2808 147.042 43.7654 147.708 44.4665 147.821C49.028 148.556 50.7417 151.629 50.4128 154.347C50.1272 156.675 48.3009 158.891 44.7781 158.605C43.6789 158.519 43.4019 158.38 42.7874 158.095L42.4758 157.948C40.0523 156.805 38.0788 154.728 36.9277 152.096C36.4776 151.04 35.9409 149.785 35.387 148.401C35.1187 147.734 34.3656 147.414 33.6992 147.682C33.0327 147.95 32.7125 148.704 32.9808 149.37C33.5434 150.772 34.0887 152.045 34.5474 153.126C35.9582 156.346 38.3818 158.891 41.3765 160.302L41.6708 160.44C42.4931 160.83 43.073 161.081 44.5704 161.202C44.856 161.228 45.1417 161.237 45.41 161.237V161.228Z" fill="#333300"/>
<path d="M32.0115 175.839C32.4702 175.839 32.9116 175.597 33.154 175.164C36.6941 168.69 32.0461 163.003 27.5539 157.498C26.9394 156.745 26.3249 155.992 25.7276 155.231C24.6111 153.811 23.7455 151.846 26.9827 149.215C29.3456 147.294 32.626 146.125 32.9895 146.004L34.2533 145.571L33.7772 144.325C31.1286 137.331 29.3369 131.532 28.7397 127.992L28.7224 127.914C28.7224 127.819 28.6965 127.715 28.6791 127.603C28.6705 127.551 28.6618 127.516 28.6532 127.481L28.6186 127.256C27.2077 119.752 22.5338 112.075 13.5754 112.958C12.5108 113.061 11.1086 113.399 9.61983 113.754C8.18303 114.091 6.70296 114.446 5.75951 114.524C5.24018 114.567 4.81606 114.412 4.42657 114.057C3.78606 113.468 2.70413 111.798 2.66951 107.132L0.072876 107.106C-0.0829201 112.153 0.0122948 117.06 0.349857 121.708L0.375824 122.106L0.626839 122.418C5.21423 128.191 10.269 128.927 14.3284 129.515C18.5869 130.13 20.9412 130.476 21.4865 135.92C21.9279 140.317 20.1103 141.226 17.5915 142.49C15.8604 143.355 13.9043 144.334 12.7012 146.558C11.2211 149.276 11.2384 153.266 12.7704 159.108L12.8397 159.377L13.0214 159.593C18.1887 165.929 22.9925 171.278 27.3029 175.502C27.8136 176.004 28.6359 175.995 29.1379 175.484C29.6399 174.974 29.6312 174.152 29.1206 173.65C24.9313 169.547 20.2487 164.345 15.2113 158.182C13.9476 153.24 13.8697 149.847 14.9862 147.804C15.7998 146.298 17.2366 145.58 18.76 144.818C21.3999 143.494 24.6976 141.841 24.0744 135.669C23.3214 128.2 18.9418 127.568 14.7092 126.953C10.9961 126.417 6.7895 125.802 2.91186 121.12C2.79069 119.44 2.71281 117.718 2.66087 115.97C2.66087 115.97 2.66952 115.97 2.67817 115.978C3.60431 116.827 4.73817 117.216 5.9759 117.121C7.10976 117.026 8.69371 116.653 10.2257 116.29C11.5587 115.97 12.9435 115.641 13.835 115.554C22.8886 114.654 25.4853 124.642 26.0652 127.715L26.0825 127.81C26.0912 127.914 26.1171 128.009 26.1344 128.113L26.195 128.503C26.9307 132.822 29.0686 139.132 30.9036 144.057C29.4841 144.645 27.2164 145.718 25.3468 147.233C21.7202 150.193 21.1316 153.612 23.6936 156.867C24.2995 157.637 24.9227 158.407 25.5459 159.169C29.8563 164.449 33.5781 169.01 30.8776 173.944C30.5314 174.576 30.7651 175.363 31.3969 175.71C31.596 175.813 31.8037 175.865 32.0201 175.865L32.0115 175.839Z" fill="#333300"/>
<path d="M1.37953 108.413C2.08062 108.413 2.65188 107.86 2.67784 107.15C2.71246 105.964 2.7644 104.813 2.81633 103.696C2.85095 102.978 2.29701 102.372 1.57861 102.337C0.825586 102.32 0.25432 102.857 0.219699 103.575C0.167766 104.709 0.11583 105.877 0.0812082 107.081C0.0638974 107.799 0.626494 108.396 1.3449 108.413C1.36221 108.413 1.37087 108.413 1.37953 108.413Z" fill="#333300"/>
<path d="M1.51782 104.907C2.2016 104.907 2.78151 104.371 2.81613 103.678C3.09311 98.2685 3.57782 93.6291 3.89807 90.5564C4.03656 89.2495 4.14908 88.1849 4.20102 87.4232C4.64244 81.7019 8.85764 60.9808 22.0139 41.4541C24.1951 38.2083 26.532 35.1443 28.9556 32.3399C39.3075 20.3088 52.0656 11.7313 66.8664 6.84963C82.5155 1.69098 97.7577 1.21493 112.16 5.42148C118.721 7.32568 125.083 10.2079 131.081 13.999C141.961 20.8715 147.933 28.4277 147.994 28.5056C148.435 29.0682 149.249 29.172 149.82 28.7306C150.383 28.2892 150.487 27.4756 150.045 26.913C149.794 26.5927 143.761 18.9413 132.475 11.8092C126.269 7.88828 119.682 4.90215 112.896 2.93737C97.9828 -1.41632 82.2212 -0.931616 66.0615 4.40014C50.8019 9.42895 37.663 18.2662 26.9908 30.6608C24.498 33.543 22.1005 36.6936 19.8587 40.0173C6.39084 60.0027 2.0631 81.3384 1.61302 87.2328C1.55243 87.9771 1.44858 89.0158 1.31009 90.2968C0.989838 93.3954 0.496475 98.078 0.219498 103.557C0.184875 104.275 0.730164 104.881 1.44856 104.916C1.47453 104.916 1.49185 104.916 1.51782 104.916V104.907Z" fill="#333300"/>
<path d="M14.0427 160.033C14.3284 160.033 14.6226 159.938 14.865 159.739C15.4189 159.289 15.5055 158.467 15.0468 157.913C12.3203 154.572 10.0093 150.582 8.19165 146.055C5.39594 139.165 3.63023 130.899 2.94645 121.482C2.89452 120.764 2.26266 120.236 1.56157 120.279C0.843171 120.331 0.306547 120.954 0.358479 121.664C1.05957 131.349 2.88586 139.883 5.78544 147.016C7.69829 151.785 10.1391 156 13.0387 159.549C13.2984 159.86 13.6706 160.025 14.0427 160.025V160.033Z" fill="#333300"/>
<path d="M30.4965 177.986C30.8514 177.986 31.2063 177.839 31.4573 177.553C31.942 177.017 31.8987 176.203 31.3621 175.718C31.0158 175.407 30.6696 175.078 30.3061 174.732C29.9166 174.368 29.5271 173.987 29.129 173.598C28.6183 173.096 27.796 173.104 27.294 173.615C26.792 174.126 26.8006 174.948 27.3113 175.45C27.7268 175.857 28.1249 176.246 28.5231 176.618C28.8953 176.973 29.2588 177.32 29.6223 177.648C29.8733 177.874 30.1849 177.986 30.4879 177.986H30.4965Z" fill="#333300"/>
<path d="M85.9517 158.866C88.4272 158.866 90.9199 158.381 93.4127 157.403C97.8529 155.663 101.298 155.94 104.639 156.208C106.43 156.356 108.283 156.503 110.23 156.33H110.308C111.572 156.2 112.775 155.957 113.995 155.568C116.099 154.893 117.631 153.629 118.548 151.811C120.322 148.306 119.154 143.9 118.834 142.862V142.775L118.713 142.507C118.245 141.512 117.838 140.559 117.475 139.581L116.159 136.033L115.017 139.642C113.831 143.39 111.113 148.773 108.759 149.024C107.374 149.172 105.02 148.54 102.899 146.281C100.77 144.013 97.4894 138.473 99.4456 126.823C100.839 118.514 96.8056 112.741 92.5558 110.11C88.8426 107.807 84.7832 107.634 81.9702 109.677C80.0833 111.044 77.227 114.619 79.3043 123.205C84.0129 142.507 83.5195 149.726 82.2818 152.383C81.9789 153.032 82.2559 153.802 82.9137 154.105C83.5628 154.408 84.3332 154.123 84.6361 153.473C86.7221 148.998 85.8046 138.889 81.8317 122.582C80.5507 117.32 81.1393 113.477 83.4936 111.771C85.4064 110.387 88.4272 110.603 91.1796 112.308C94.711 114.498 98.0607 119.345 96.8749 126.382C94.8409 138.499 98.0001 144.853 101.004 148.046C103.773 150.989 106.95 151.811 109.027 151.595C112.385 151.24 114.922 146.739 116.306 143.528L116.332 143.572C116.523 144.195 117.57 147.968 116.228 150.626C115.623 151.82 114.636 152.616 113.19 153.084C112.178 153.413 111.165 153.62 110.109 153.724H110.04C108.3 153.889 106.612 153.75 104.829 153.612C101.367 153.335 97.4462 153.015 92.452 154.971C88.7561 156.416 85.0602 156.641 81.4595 155.629C80.4468 155.196 79.4601 154.798 78.4994 154.425V154.019H77.5213C75.0891 152.66 73.6696 151.18 73.6523 151.162C73.159 150.643 72.3367 150.617 71.8174 151.11C71.298 151.604 71.2721 152.417 71.7654 152.945C71.8347 153.015 73.3148 154.581 75.9028 156.079V156.208L76.9414 156.598C78.0839 157.031 79.287 157.515 80.5161 158.043L80.6719 158.095C82.4116 158.589 84.1774 158.84 85.9431 158.84L85.9517 158.866Z" fill="#333300"/>
<path d="M81.0355 158.173C81.5981 158.173 82.1174 157.801 82.2819 157.23C82.481 156.537 82.0742 155.819 81.3904 155.628C80.2046 155.291 79.0015 154.806 77.8157 154.183C77.1838 153.854 76.3962 154.096 76.0673 154.728C75.7384 155.36 75.9807 156.148 76.6126 156.477C77.9542 157.178 79.3304 157.732 80.6893 158.112C80.8105 158.147 80.923 158.164 81.0442 158.164L81.0355 158.173Z" fill="#333300"/>
<path d="M83.5633 176.324C85.2598 176.324 86.6273 176.116 87.3631 175.597C88.194 175.008 88.4363 174.281 88.4969 173.771C88.6787 172.143 87.2679 170.551 85.7705 168.863C84.9482 167.937 83.8922 166.742 83.4854 165.859C84.4981 166.067 86.2379 166.725 87.389 167.158C90.8599 168.473 93.37 169.417 94.599 167.997C95.629 166.82 94.7115 165.141 94.3653 164.509C92.79 161.653 88.4796 158.684 81.5639 155.672C80.9061 155.386 80.1444 155.689 79.8588 156.347C79.5732 157.005 79.8761 157.767 80.5339 158.052C88.4796 161.506 91.2061 164.146 92.0889 165.756C92.1409 165.859 92.1928 165.946 92.2361 166.033C91.2061 165.816 89.4577 165.158 88.3152 164.726C84.8616 163.419 82.8536 162.726 81.5899 163.557C81.0792 163.895 80.7763 164.431 80.7417 165.072C80.6464 166.985 82.265 168.82 83.8403 170.585C84.6106 171.451 85.8916 172.896 85.9263 173.442C85.9176 173.442 85.9003 173.459 85.8743 173.476C84.5327 174.42 75.4099 173.035 67.7325 171.148C67.0314 170.975 66.3303 171.399 66.1659 172.1C65.9928 172.792 66.4169 173.502 67.118 173.675C70.1301 174.42 78.4047 176.333 83.5806 176.333L83.5633 176.324Z" fill="#333300"/>
<path d="M77.1925 156.624C77.7118 156.624 78.2052 156.304 78.4043 155.785C78.6553 155.118 78.3264 154.365 77.6512 154.105C75.5739 153.309 73.3235 152.539 71.3154 151.916L71.0385 151.829H70.8394C70.121 151.829 69.5411 152.409 69.5411 153.127C69.5411 153.742 69.9652 154.253 70.5365 154.391H70.5624C72.5186 154.997 74.7084 155.759 76.7338 156.529C76.8896 156.59 77.0454 156.616 77.2012 156.616L77.1925 156.624Z" fill="#333300"/>
<path d="M77.5296 81.4855C81.7275 81.4855 85.908 79.7804 88.9115 76.5259C98.2767 66.3904 95.8791 57.1724 94.122 50.4384C93.144 46.6906 92.3736 43.7304 93.7499 41.7224C95.1174 39.7316 98.77 38.416 104.915 37.7063C117.163 36.2954 125.619 32.3572 130.059 26.0127C134.5 19.6596 133.184 13.2373 133.046 12.6314C132.924 12.0429 132.396 11.5928 131.773 11.5928C131.055 11.5928 130.475 12.1727 130.475 12.8911L130.51 13.2027C130.527 13.2633 131.817 18.9759 127.913 24.5413C123.914 30.2366 116.081 33.8027 104.621 35.1183C97.489 35.9405 93.4815 37.5245 91.612 40.2423C89.5693 43.2284 90.5127 46.8724 91.612 51.0876C93.2998 57.5792 95.403 65.6634 87.0073 74.7516C82.9132 79.1832 76.2053 80.1699 71.0726 77.1059C60.5735 70.8393 60.8678 59.466 61.0928 50.3172C61.2486 44.2584 61.3698 39.4806 58.3145 37.3947C56.1679 35.9232 52.8615 36.1916 47.9366 38.2516C36.5806 42.9861 25.7267 47.1407 23.2166 45.4529C22.3684 44.8816 22.2126 43.289 22.2299 40.727C22.2299 40.0086 21.6587 39.42 20.9403 39.42C20.2045 39.42 19.6419 39.9913 19.6333 40.7097C19.6073 43.6872 19.7544 46.2578 21.7625 47.6081C24.8352 49.6767 31.1883 48.0495 48.932 40.6491C52.8615 39.0046 55.5274 38.6324 56.843 39.5326C58.7299 40.8222 58.6174 45.1932 58.4876 50.248C58.2539 59.5526 57.9336 72.2848 69.731 79.3303C72.1372 80.7671 74.8377 81.4682 77.5209 81.4682L77.5296 81.4855Z" fill="#333300"/>
<path d="M72.5447 51.2954C72.6226 51.2954 72.6919 51.2954 72.7698 51.2954C74.8384 51.2175 76.5522 50.4125 77.8765 48.9065C80.4991 45.9117 81.4252 40.2597 80.6549 32.1062C80.3952 29.3625 82.386 26.8697 85.0951 26.5408C105.21 24.1346 113.182 6.00141 113.719 4.7204C113.926 4.26166 113.866 3.69906 113.502 3.30091C113.018 2.77292 112.204 2.72965 111.676 3.2057L111.451 3.41343L111.338 3.68175C111.036 4.41746 103.704 21.6937 84.7922 23.9528C80.6982 24.4462 77.6861 28.2113 78.0842 32.3399C78.768 39.5413 78.0063 44.8124 75.9377 47.184C75.0981 48.1448 74.0335 48.6381 72.6832 48.6901C68.7364 48.8286 67.2563 40.1558 65.9233 32.5044C64.625 25.0261 63.4998 18.5691 60.1761 16.5611C59.0596 15.8859 57.8045 15.7648 56.4543 16.2062C54.7405 16.7601 53.3383 18.1883 52.7065 20.0146C51.5207 23.4941 48.0758 31.8119 41.5323 34.123C37.8797 35.4126 33.7078 34.6077 29.129 31.7167C28.5231 31.3359 27.7182 31.5177 27.3373 32.1235C26.9565 32.7294 27.1383 33.5344 27.7441 33.9152C33.0326 37.2562 37.9576 38.1477 42.3978 36.5811C50.006 33.8893 53.8576 24.6885 55.1646 20.8628C55.5281 19.8068 56.3071 18.9932 57.2506 18.6816C58.0642 18.422 58.5229 18.6037 58.8345 18.7855C61.1455 20.179 62.3313 26.9649 63.37 32.9545C64.9366 41.9734 66.5638 51.2954 72.562 51.2954H72.5447Z" fill="#333300"/>
<path d="M68.6579 89.6735C69.1946 89.6735 69.6966 89.3446 69.8783 88.808C70.1207 88.1328 69.7658 87.3885 69.0907 87.1461C53.935 81.7797 54.6275 66.399 54.6707 65.7499C54.714 65.0315 54.1687 64.4169 53.4503 64.3823C52.7492 64.339 52.1174 64.8843 52.0827 65.6027C52.0741 65.7845 51.2085 83.5714 68.2338 89.5956C68.3809 89.6475 68.5194 89.6735 68.6666 89.6735H68.6579Z" fill="#333300"/>
<path d="M1.37969 108.421H1.38835C2.10676 108.421 2.68666 107.832 2.67801 107.114C2.67801 106.084 2.71263 104.95 2.8165 103.747V103.678C2.8165 103.678 2.81651 103.617 2.82516 103.582C2.90306 102.873 2.39237 102.206 1.67397 102.128C0.964226 102.05 0.323728 102.544 0.245829 103.253C0.245829 103.314 0.237183 103.375 0.228527 103.435V103.626C0.116006 104.829 0.0727177 106.032 0.081373 107.14C0.081373 107.849 0.669943 108.429 1.37969 108.429V108.421Z" fill="#333300"/>
<path d="M106.162 120.028C106.162 120.028 106.214 120.028 106.24 120.028C106.958 119.984 107.504 119.37 107.46 118.66C107.045 111.519 104.751 106.473 100.631 103.686C94.4167 99.4711 86.4797 102.05 86.1508 102.163C85.467 102.388 85.1035 103.124 85.3285 103.807C85.5535 104.483 86.2892 104.855 86.973 104.63C87.0856 104.595 94.0705 102.362 99.1945 105.85C102.605 108.17 104.509 112.532 104.873 118.816C104.916 119.508 105.487 120.036 106.171 120.036L106.162 120.028Z" fill="#333300"/>
<path d="M67.9742 171.408C68.1992 171.408 68.4243 171.347 68.6234 171.235L75.9199 166.994C77.0105 166.353 77.7895 165.28 78.0578 164.042C78.3261 162.804 78.0578 161.506 77.3307 160.476L72.4491 153.578C72.0336 152.989 71.22 152.859 70.6401 153.266C70.0515 153.681 69.913 154.495 70.3285 155.075L75.2101 161.973C75.5217 162.415 75.6343 162.951 75.5218 163.488C75.4092 164.025 75.0803 164.466 74.6129 164.743L67.3164 168.984C66.6932 169.348 66.4855 170.135 66.849 170.759C67.0913 171.174 67.5241 171.408 67.9742 171.408Z" fill="#333300"/>
<path d="M151.811 168.516C151.88 168.516 151.958 168.516 152.036 168.499C152.746 168.378 153.222 167.703 153.092 167.002L151.707 158.944C151.352 156.823 152.625 154.728 154.667 154.079L162.7 151.543C163.383 151.318 163.747 150.582 163.522 149.899C163.297 149.215 162.561 148.851 161.877 149.076L161.722 149.128L153.888 151.595C150.608 152.634 148.574 155.975 149.145 159.368L150.53 167.426C150.643 168.058 151.188 168.508 151.811 168.508V168.516Z" fill="#333300"/>
<path d="M136.716 162.033C136.794 162.033 136.872 162.033 136.95 162.016C137.66 161.886 138.127 161.211 137.997 160.51L137.322 156.805C137.192 156.096 136.509 155.628 135.816 155.758C135.106 155.888 134.639 156.563 134.769 157.264L135.444 160.969C135.557 161.592 136.102 162.033 136.716 162.033Z" fill="#333300"/>
<path d="M136.032 158.328C136.11 158.328 136.188 158.328 136.266 158.311C136.967 158.181 137.435 157.506 137.313 156.805L136.431 151.966C136.006 149.699 137.495 147.465 139.884 146.764L148.99 144.081C149.673 143.882 150.072 143.155 149.864 142.471C149.665 141.788 148.938 141.389 148.254 141.588L139.148 144.272C135.478 145.345 133.211 148.859 133.877 152.434L134.76 157.263C134.873 157.887 135.418 158.328 136.032 158.328Z" fill="#333300"/>
<path d="M122.876 151.613C122.876 151.613 122.928 151.613 122.954 151.613C123.672 151.569 124.218 150.955 124.174 150.236C123.958 146.644 124.91 143.243 126.537 141.771C127.437 140.958 129.844 141.209 131.783 141.408C133.384 141.572 134.907 141.728 136.032 141.408C138.837 140.612 140.152 138.941 141.052 135.02C141.217 134.319 140.776 133.627 140.083 133.462C139.382 133.298 138.69 133.739 138.525 134.432C137.763 137.721 136.958 138.448 135.314 138.915C134.665 139.106 133.332 138.967 132.051 138.837C129.472 138.578 126.555 138.275 124.798 139.859C122.114 142.282 121.379 146.895 121.586 150.401C121.63 151.093 122.201 151.621 122.885 151.621L122.876 151.613Z" fill="#333300"/>
<path d="M79.633 156.52C80.0052 156.52 80.3514 156.485 80.6717 156.433C82.4633 156.139 83.9088 155.066 84.6445 153.482C84.9475 152.833 84.6618 152.062 84.0127 151.759C83.3635 151.456 82.5932 151.742 82.2902 152.391C82.0739 152.859 81.5199 153.672 80.2476 153.88C78.0837 154.235 75.1149 152.616 72.0768 149.431C71.5834 148.912 70.7612 148.894 70.2419 149.388C69.7225 149.881 69.7052 150.703 70.1986 151.223C74.232 155.455 77.4345 156.529 79.6244 156.529L79.633 156.52Z" fill="#333300"/>
<g opacity="0.5">
<path d="M149.769 28.4797L133.669 14.4492C133.669 14.4492 110.906 63.3265 120.911 79.2179C120.911 79.2179 119.223 45.6781 149.769 29.5789V28.4797Z" fill="#333300"/>
</g>
<g opacity="0.5">
<path d="M112.732 122.893C112.732 122.893 99.1426 153.412 84.1514 128.372C69.1602 103.331 70.7355 103.184 62.6513 99.8174L66.4856 104.301L72.0338 120.66L72.7176 138.23L70.8393 153.118L81.0354 156.857C87.8646 157.385 94.5899 155.758 94.5899 155.758L102.311 154.771L113.597 155.316L117.553 150.305L118.219 146.816L114.281 135.417L113.597 122.451L112.732 122.893Z" fill="#333300"/>
</g>
<g opacity="0.5">
<path d="M50.7246 158.987C50.7246 158.987 40.4073 167.711 31.0508 158.77C21.6942 149.838 10.5201 131.679 14.0428 122.184C17.5656 112.689 26.3162 105.539 34.184 100.995L32.5655 103.609L26.7923 113.701L26.5067 123.967L29.3629 138.274L33.0848 148.877L36.9624 156.511L43.428 159.973L50.7159 158.978L50.7246 158.987Z" fill="#333300"/>
</g>
<g opacity="0.5">
<path d="M179.145 135.418C179.145 135.418 170.619 147.077 161.055 146.255C151.491 145.432 150.348 134.717 150.348 134.717L157.783 141.338L164.846 142.515L169.408 140.507L179.136 135.418H179.145Z" fill="#333300"/>
</g>
<g opacity="0.5">
<path d="M176.393 122.894L168.135 120.739L159.125 120.115L151.491 122.383L145.986 121.829L142.455 115.779V112.412C142.455 112.412 138.923 117.908 142.455 123.344C145.986 128.78 151.976 127.611 157.342 125.335C162.708 123.067 167.313 121.535 176.393 122.885V122.894Z" fill="#333300"/>
</g>
<g opacity="0.5">
<path d="M52.4201 65.1444C49.2176 69.1172 49.7888 92.9543 66.7622 89.4922L68.6577 89.0248L61.2919 84.8442L56.4449 80.8194L54.7397 74.2153L52.4201 65.1357V65.1444Z" fill="#333300"/>
</g>
<g opacity="0.5">
<path d="M105.279 118.73L104.319 111.485L98.6752 103.384H88.4964L85.7439 103.635C85.7439 103.635 98.2597 105.063 105.279 118.73Z" fill="#333300"/>
</g>
<g opacity="0.5">
<path d="M172.775 52.6894L167.469 47.6952L160.588 44.3975L153.248 46.2151C153.248 46.2151 162.137 44.7177 172.316 53.477L172.775 52.698V52.6894Z" fill="#333300"/>
</g>
<path d="M223.996 106.182L224.635 110.618C224.687 110.959 224.626 111.31 224.462 111.605L223.607 112.084C223.339 112.582 222.861 107.868 222.317 107.831C222.317 107.831 220.618 107.353 172.44 111.097C170.695 111.236 174.539 109.852 176.275 109.677L222.458 104.909C223.209 104.835 223.883 105.389 223.996 106.191V106.182Z" fill="#333300"/>
<path d="M225.902 55.3987C221.591 47.5049 211.188 43.3936 205.215 47.0462L203.138 48.3618L205.856 52.3346L225.902 55.3987Z" fill="#999933"/>
<path d="M227.503 56.5149L226.663 54.9828C224.171 50.4214 219.471 46.7429 214.39 45.384C210.746 44.4145 207.327 44.7435 204.765 46.3101L201.917 48.1104L205.354 53.1306L227.503 56.5149ZM210.391 46.5611C211.516 46.5611 212.711 46.7255 213.94 47.0545C217.982 48.1364 221.764 50.8282 224.171 54.2558L206.349 51.5293L204.35 48.6124L205.665 47.7729C206.981 46.9679 208.591 46.5611 210.382 46.5611H210.391Z" fill="#333300"/>
<path d="M219.626 57.0859C217.774 57.0859 216.268 58.592 216.268 60.4442C216.268 62.2965 217.774 63.7939 219.626 63.7939C221.479 63.7939 222.976 62.2965 222.976 60.4442C222.976 58.592 221.479 57.0859 219.626 57.0859Z" fill="#333300"/>
<path d="M219.107 52.4974L225.668 53.4149C226.984 53.5967 227.875 54.9296 227.676 56.3837C227.469 57.8378 226.24 58.8678 224.933 58.6861L209.102 56.4703L204.835 50.749L211.343 51.7271L219.107 52.4888V52.4974Z" fill="#999933"/>
<path d="M225.226 60.0117C227.053 60.0117 228.68 58.5576 228.957 56.5668C229.104 55.5455 228.87 54.5241 228.316 53.7019C227.728 52.8363 226.854 52.2737 225.85 52.1352L219.289 51.2177C218.588 51.1139 217.921 51.6159 217.826 52.3256C217.722 53.0354 218.224 53.6932 218.934 53.7884L225.495 54.7059C225.85 54.7578 226.075 55.0088 226.17 55.156C226.369 55.4503 226.447 55.8224 226.395 56.2119C226.291 56.9563 225.72 57.4929 225.114 57.415L209.82 55.2685L207.768 52.5161L211.153 53.0267C211.871 53.1306 212.52 52.6459 212.633 51.9361C212.737 51.2264 212.252 50.5686 211.542 50.4561L201.917 49.002L208.392 57.6834L224.759 59.9771C224.923 60.003 225.079 60.0117 225.244 60.0117H225.226Z" fill="#333300"/>
<g opacity="0.5">
<path d="M131.852 85.5276L169.356 71.5231C170.923 70.9345 172.662 71.7308 173.251 73.2974L173.537 74.0678C174.125 75.6344 173.329 77.3742 171.762 77.9627L170.698 78.3609C171.927 86.8519 167.14 95.3429 158.77 98.4588L158.32 98.6233C149.959 101.748 140.776 98.4675 136.145 91.2575L134.267 91.9586C132.7 92.5471 130.96 91.7508 130.372 90.1842L130.086 89.4139C129.498 87.8472 130.294 86.1075 131.861 85.5189L131.852 85.5276Z" fill="#333300"/>
</g>
<path d="M170.665 70.876L135.31 84.0735C138.906 93.7069 149.641 98.6059 159.274 95.0099L159.728 94.8404C169.362 91.2443 174.261 80.5094 170.665 70.876Z" fill="#999933"/>
<path d="M152.754 97.5066C155.109 97.5066 157.463 97.0825 159.731 96.2342L160.181 96.0611C165.166 94.2002 169.13 90.5043 171.338 85.6659C173.545 80.8275 173.735 75.4092 171.874 70.4237L171.424 69.2119L133.634 83.3203L134.084 84.5407C135.945 89.5262 139.641 93.4904 144.48 95.6976C147.12 96.9007 149.924 97.5066 152.746 97.5066H152.754ZM158.83 93.802C150.287 96.9872 140.784 92.9798 137.036 84.8263L169.866 72.5702C171.026 76.5517 170.732 80.7756 168.983 84.5926C167.062 88.8078 163.617 92.019 159.28 93.6376L158.83 93.802Z" fill="#333300"/>
<path d="M170.169 75.3064L172.731 74.3543C174.298 73.7658 175.094 72.026 174.506 70.4594L174.22 69.689C173.632 68.1224 171.892 67.3261 170.325 67.9147L132.821 81.9192C131.254 82.5078 130.458 84.2475 131.047 85.8141L131.332 86.5845C131.921 88.1511 133.661 88.9474 135.227 88.3588L143.182 85.39L170.169 75.3151V75.3064Z" fill="#999933"/>
<path d="M134.172 89.8472C134.674 89.8472 135.184 89.7606 135.678 89.5702L143.632 86.6014C144.307 86.3503 144.645 85.606 144.394 84.9309C144.143 84.2557 143.39 83.9182 142.723 84.1692L134.769 87.138C133.877 87.4669 132.882 87.0168 132.544 86.1253L132.259 85.355C132.094 84.9222 132.112 84.4548 132.302 84.0307C132.492 83.6152 132.839 83.295 133.271 83.1305L170.775 69.126C171.667 68.7971 172.662 69.2472 173 70.1387L173.286 70.909C173.45 71.3418 173.433 71.8092 173.242 72.2333C173.052 72.6574 172.706 72.9777 172.273 73.1335L169.711 74.0856C169.036 74.3366 168.698 75.081 168.949 75.7561C169.2 76.4312 169.953 76.7688 170.62 76.5178L173.182 75.5657C174.264 75.1589 175.129 74.3626 175.605 73.3066C176.081 72.2593 176.125 71.0821 175.718 70.0002L175.432 69.2299C174.601 66.9968 172.108 65.8543 169.867 66.6938L132.363 80.6983C131.281 81.1051 130.424 81.9015 129.939 82.9574C129.463 84.0047 129.42 85.1819 129.827 86.2638L130.112 87.0341C130.761 88.7739 132.415 89.8472 134.172 89.8472Z" fill="#333300"/>
<path d="M154.33 82.5158C154.477 82.5158 154.633 82.4898 154.78 82.4292L167.131 77.8159C167.807 77.5649 168.144 76.8205 167.893 76.1454C167.642 75.4702 166.889 75.1327 166.223 75.3837L153.871 79.997C153.196 80.248 152.859 80.9924 153.11 81.6675C153.309 82.1869 153.802 82.5158 154.33 82.5158Z" fill="#333300"/>
</svg>
