<svg width="1076" height="1335" viewBox="0 0 1076 1335" fill="none" xmlns="http://www.w3.org/2000/svg">
<mask id="path-1-inside-1_390_177" fill="white">
<path d="M906.504 189.016C895.084 172.134 881.305 156.85 866.674 142.726C854.122 130.835 833.822 134.021 818.61 137.608C794.584 143.263 771.623 153.185 748.9 162.606C726.265 171.999 703.502 182.201 679.661 188.181C665.507 191.734 644.587 195.815 635.06 181.321C632.147 176.886 629.066 171.23 630.14 165.71C631.039 161.108 634.888 158.12 638.884 156.155C644.66 153.324 651.153 152.02 657.465 151.006C665.835 149.656 674.302 148.959 682.759 148.403C703.61 147.044 724.497 146.618 745.352 145.313C766.554 143.979 788.288 142.38 808.871 136.844C817.607 134.487 839.815 126.859 828.448 114.469C827.545 113.481 826.509 112.59 825.426 111.809C820.901 108.557 815.914 105.793 811.088 103.019C795.378 93.9654 778.838 86.2707 761.659 80.4506C733.286 70.8327 703.228 66.4904 673.305 68.3681C648.96 69.903 624.939 75.4875 602.273 84.4385C585.492 91.0725 569.403 99.5014 554.434 109.562C547.732 114.057 541.018 118.816 535.065 124.293C526.018 132.628 518.547 143.519 516.559 155.839C514.689 167.408 517.809 178.808 522 189.525C525.666 198.888 531.263 208.68 531.719 218.937C531.867 222.302 531.499 226.503 528.546 228.644C524.341 231.676 517.82 229.262 513.561 227.542C503.503 223.48 494.564 217.022 484.614 212.652C464.755 203.912 443.164 199.737 421.478 200.018C404.283 200.246 387.527 204.104 373.455 214.36C358.54 225.24 347.541 240.909 336.803 255.672C325.281 271.507 316.317 288.668 310.03 307.228C300.135 336.456 295.566 368.738 298.281 399.574C299.416 412.411 302.663 425.251 308.171 436.921C310.886 442.68 317.822 456.392 326.369 452.011C331.169 449.558 333.467 443.102 335.062 438.362C338.009 429.63 340.744 421.007 344.747 412.667C352.942 395.544 364.31 380.129 377.729 366.735C393.053 351.437 410.957 338.184 429.894 327.715C433.31 325.824 452.833 314.306 453.931 324.127C454.183 326.349 453.487 328.694 452.754 330.748C451.371 334.599 447.578 336.295 444.442 338.809C428.649 351.461 413.404 364.844 399.282 379.351C379.949 399.209 361.917 421.615 351.406 447.516C344.369 464.875 341.353 483.769 344.606 502.335C347.394 518.225 354.517 532.96 363.621 546.163C372.119 558.489 382.279 569.535 392.533 580.4C396.983 585.102 401.454 589.783 405.728 594.664C413.593 603.655 420.28 613.856 429.901 621.167C434.162 624.407 441.441 628.349 445.292 622.428C446.353 620.804 446.882 618.841 447.171 616.941C447.542 614.48 446.675 613.041 445.811 610.574C436.626 584.186 438.745 555.545 447.702 529.41C456.68 503.214 471.998 479.16 490.595 458.754C506.122 441.719 524.799 425.632 546.36 416.825C553.909 413.748 562.268 411.414 570.502 412.271C575.011 412.747 582.146 414.378 583.12 419.743C584.068 424.938 579.853 430.535 576.99 434.43C571.538 441.831 565.056 448.49 558.678 455.088C541.685 472.643 524.198 489.764 508.958 508.915C493.579 528.232 479.393 550.365 475.204 575.112C470.278 604.15 482.292 633.711 498.546 657.283C514.469 680.371 536.156 701.453 561.118 714.578C568.567 718.493 594.726 729.69 592.013 711.227C591.402 707.049 589.457 703.377 587.915 699.507C586.266 695.384 585.215 691.031 584.462 686.665C582.557 675.552 582.553 664.124 583.158 652.887C584.615 626.005 589.909 599.208 597.114 573.299C603.023 552.076 609.968 529.58 622.106 510.974C624.947 506.621 629.196 500.094 634.812 499.136C640.893 498.086 644.02 506.181 645.454 510.619C649.1 521.865 647.584 534.076 644.732 545.313C641.392 558.513 636.085 571.171 630.678 583.642C619.91 608.474 606.209 634.167 603.922 661.587C602.917 673.594 605.018 685.152 611.185 695.573C619.628 709.848 631.405 723.355 646.384 730.969C654.274 734.978 666.192 738.683 673.817 732.087C683.037 724.122 678.278 708.5 674.571 699.096C667.321 680.673 663.718 660.958 665.058 641.143C666.058 626.354 669.644 609.952 679.398 598.31C685.601 590.903 697.487 584.3 705.355 593.043C709.013 597.105 711.114 602.524 712.807 607.647C715.025 614.344 716.512 621.286 717.79 628.213C720.842 644.677 722.615 661.341 724.868 677.921C725.915 685.592 727.029 693.256 728.465 700.859C729.61 706.936 730.628 713.521 733.238 719.162C743.002 740.2 773.741 740.462 793.29 739.446C804.627 738.855 815.904 737.336 827.045 735.217C830.405 734.577 833.749 733.887 837.082 733.119C838.09 732.881 839.446 732.794 840.274 732.162C841.477 731.246 842.443 729.323 843.337 728.121C845.706 724.959 848.047 721.75 850.346 718.541C857.758 708.203 864.881 697.641 871.614 686.846C879.533 674.169 886.997 661.141 893.293 647.58C898.713 635.886 903.744 623.438 905.204 610.532C906.156 602.077 904.96 595.015 899.502 588.344C893.322 580.779 884.72 575.214 876.385 570.318C853.826 557.035 829.259 547.404 805.639 536.266C794.459 530.997 783.287 525.493 772.875 518.803C765.321 513.948 757.127 508.158 752.744 500.077C749.651 494.384 749.233 486.363 754.152 481.474C758.84 476.809 766.538 477.576 772.44 478.816C782.259 480.87 791.627 485.219 800.5 489.78C811.759 495.558 822.572 502.176 833.145 509.117C854.658 523.252 875.312 538.783 895.068 555.284C901.944 561.026 908.777 566.891 915.212 573.142C919.753 577.568 923.515 583.255 929.37 586.032C935.95 589.154 942.573 586.918 947.217 581.595C955.674 571.913 958.217 557.279 959.837 545.008C961.215 534.526 961.695 523.932 961.703 513.364C961.712 509.154 961.437 505.13 960.105 501.099C957.732 493.957 952.922 487.903 947.393 482.913C932.224 469.207 911.956 461.296 892.943 454.618C868.209 445.93 842.727 439.466 817.309 433.119C793.2 427.096 768.937 421.452 745.2 414.051C735.849 411.136 726.534 407.949 717.642 403.805C711.307 400.852 704.707 397.366 699.897 392.176C696.318 388.322 694.248 383.346 695.726 378.108C697.296 372.554 702.586 369.658 707.809 368.236C715.782 366.065 724.421 366.342 732.583 367.017C743.893 367.941 755.112 370.045 766.172 372.597C792.544 378.67 818.352 387.332 843.498 397.274C867.152 406.62 890.608 417.111 912.476 430.16C920.269 434.816 928.045 439.807 934.805 445.915C939.856 450.481 943.643 456.118 949.181 460.188C958.397 466.955 971.185 470.207 981.743 464.517C994.771 457.497 998.037 441.168 997.73 427.617C997.454 415.33 994.61 403.157 990.85 391.509C985.375 374.579 977.729 358.365 969.198 342.774C960.976 327.729 952.143 312.96 940.788 300.046C931.849 289.874 921.605 280.856 910.377 273.273C889.904 259.438 866.485 250.621 842.387 245.582C820.858 241.086 798.831 239.557 776.882 239.441C761.948 239.364 746.857 240.652 731.949 239.663C729.514 239.503 724.249 239.581 722.623 237.219C721.018 234.877 724.519 231.438 725.937 229.947C744.078 210.782 770.863 206.87 795.992 209.541C824.467 212.562 851.482 222.61 878.563 231.308C889.472 234.812 921.146 247.194 921.957 225.71C922.158 220.205 920.237 214.661 918.109 209.676C915.015 202.421 910.906 195.596 906.483 189.077L906.504 189.016Z"/>
</mask>
<path d="M906.504 189.016C895.084 172.134 881.305 156.85 866.674 142.726C854.122 130.835 833.822 134.021 818.61 137.608C794.584 143.263 771.623 153.185 748.9 162.606C726.265 171.999 703.502 182.201 679.661 188.181C665.507 191.734 644.587 195.815 635.06 181.321C632.147 176.886 629.066 171.23 630.14 165.71C631.039 161.108 634.888 158.12 638.884 156.155C644.66 153.324 651.153 152.02 657.465 151.006C665.835 149.656 674.302 148.959 682.759 148.403C703.61 147.044 724.497 146.618 745.352 145.313C766.554 143.979 788.288 142.38 808.871 136.844C817.607 134.487 839.815 126.859 828.448 114.469C827.545 113.481 826.509 112.59 825.426 111.809C820.901 108.557 815.914 105.793 811.088 103.019C795.378 93.9654 778.838 86.2707 761.659 80.4506C733.286 70.8327 703.228 66.4904 673.305 68.3681C648.96 69.903 624.939 75.4875 602.273 84.4385C585.492 91.0725 569.403 99.5014 554.434 109.562C547.732 114.057 541.018 118.816 535.065 124.293C526.018 132.628 518.547 143.519 516.559 155.839C514.689 167.408 517.809 178.808 522 189.525C525.666 198.888 531.263 208.68 531.719 218.937C531.867 222.302 531.499 226.503 528.546 228.644C524.341 231.676 517.82 229.262 513.561 227.542C503.503 223.48 494.564 217.022 484.614 212.652C464.755 203.912 443.164 199.737 421.478 200.018C404.283 200.246 387.527 204.104 373.455 214.36C358.54 225.24 347.541 240.909 336.803 255.672C325.281 271.507 316.317 288.668 310.03 307.228C300.135 336.456 295.566 368.738 298.281 399.574C299.416 412.411 302.663 425.251 308.171 436.921C310.886 442.68 317.822 456.392 326.369 452.011C331.169 449.558 333.467 443.102 335.062 438.362C338.009 429.63 340.744 421.007 344.747 412.667C352.942 395.544 364.31 380.129 377.729 366.735C393.053 351.437 410.957 338.184 429.894 327.715C433.31 325.824 452.833 314.306 453.931 324.127C454.183 326.349 453.487 328.694 452.754 330.748C451.371 334.599 447.578 336.295 444.442 338.809C428.649 351.461 413.404 364.844 399.282 379.351C379.949 399.209 361.917 421.615 351.406 447.516C344.369 464.875 341.353 483.769 344.606 502.335C347.394 518.225 354.517 532.96 363.621 546.163C372.119 558.489 382.279 569.535 392.533 580.4C396.983 585.102 401.454 589.783 405.728 594.664C413.593 603.655 420.28 613.856 429.901 621.167C434.162 624.407 441.441 628.349 445.292 622.428C446.353 620.804 446.882 618.841 447.171 616.941C447.542 614.48 446.675 613.041 445.811 610.574C436.626 584.186 438.745 555.545 447.702 529.41C456.68 503.214 471.998 479.16 490.595 458.754C506.122 441.719 524.799 425.632 546.36 416.825C553.909 413.748 562.268 411.414 570.502 412.271C575.011 412.747 582.146 414.378 583.12 419.743C584.068 424.938 579.853 430.535 576.99 434.43C571.538 441.831 565.056 448.49 558.678 455.088C541.685 472.643 524.198 489.764 508.958 508.915C493.579 528.232 479.393 550.365 475.204 575.112C470.278 604.15 482.292 633.711 498.546 657.283C514.469 680.371 536.156 701.453 561.118 714.578C568.567 718.493 594.726 729.69 592.013 711.227C591.402 707.049 589.457 703.377 587.915 699.507C586.266 695.384 585.215 691.031 584.462 686.665C582.557 675.552 582.553 664.124 583.158 652.887C584.615 626.005 589.909 599.208 597.114 573.299C603.023 552.076 609.968 529.58 622.106 510.974C624.947 506.621 629.196 500.094 634.812 499.136C640.893 498.086 644.02 506.181 645.454 510.619C649.1 521.865 647.584 534.076 644.732 545.313C641.392 558.513 636.085 571.171 630.678 583.642C619.91 608.474 606.209 634.167 603.922 661.587C602.917 673.594 605.018 685.152 611.185 695.573C619.628 709.848 631.405 723.355 646.384 730.969C654.274 734.978 666.192 738.683 673.817 732.087C683.037 724.122 678.278 708.5 674.571 699.096C667.321 680.673 663.718 660.958 665.058 641.143C666.058 626.354 669.644 609.952 679.398 598.31C685.601 590.903 697.487 584.3 705.355 593.043C709.013 597.105 711.114 602.524 712.807 607.647C715.025 614.344 716.512 621.286 717.79 628.213C720.842 644.677 722.615 661.341 724.868 677.921C725.915 685.592 727.029 693.256 728.465 700.859C729.61 706.936 730.628 713.521 733.238 719.162C743.002 740.2 773.741 740.462 793.29 739.446C804.627 738.855 815.904 737.336 827.045 735.217C830.405 734.577 833.749 733.887 837.082 733.119C838.09 732.881 839.446 732.794 840.274 732.162C841.477 731.246 842.443 729.323 843.337 728.121C845.706 724.959 848.047 721.75 850.346 718.541C857.758 708.203 864.881 697.641 871.614 686.846C879.533 674.169 886.997 661.141 893.293 647.58C898.713 635.886 903.744 623.438 905.204 610.532C906.156 602.077 904.96 595.015 899.502 588.344C893.322 580.779 884.72 575.214 876.385 570.318C853.826 557.035 829.259 547.404 805.639 536.266C794.459 530.997 783.287 525.493 772.875 518.803C765.321 513.948 757.127 508.158 752.744 500.077C749.651 494.384 749.233 486.363 754.152 481.474C758.84 476.809 766.538 477.576 772.44 478.816C782.259 480.87 791.627 485.219 800.5 489.78C811.759 495.558 822.572 502.176 833.145 509.117C854.658 523.252 875.312 538.783 895.068 555.284C901.944 561.026 908.777 566.891 915.212 573.142C919.753 577.568 923.515 583.255 929.37 586.032C935.95 589.154 942.573 586.918 947.217 581.595C955.674 571.913 958.217 557.279 959.837 545.008C961.215 534.526 961.695 523.932 961.703 513.364C961.712 509.154 961.437 505.13 960.105 501.099C957.732 493.957 952.922 487.903 947.393 482.913C932.224 469.207 911.956 461.296 892.943 454.618C868.209 445.93 842.727 439.466 817.309 433.119C793.2 427.096 768.937 421.452 745.2 414.051C735.849 411.136 726.534 407.949 717.642 403.805C711.307 400.852 704.707 397.366 699.897 392.176C696.318 388.322 694.248 383.346 695.726 378.108C697.296 372.554 702.586 369.658 707.809 368.236C715.782 366.065 724.421 366.342 732.583 367.017C743.893 367.941 755.112 370.045 766.172 372.597C792.544 378.67 818.352 387.332 843.498 397.274C867.152 406.62 890.608 417.111 912.476 430.16C920.269 434.816 928.045 439.807 934.805 445.915C939.856 450.481 943.643 456.118 949.181 460.188C958.397 466.955 971.185 470.207 981.743 464.517C994.771 457.497 998.037 441.168 997.73 427.617C997.454 415.33 994.61 403.157 990.85 391.509C985.375 374.579 977.729 358.365 969.198 342.774C960.976 327.729 952.143 312.96 940.788 300.046C931.849 289.874 921.605 280.856 910.377 273.273C889.904 259.438 866.485 250.621 842.387 245.582C820.858 241.086 798.831 239.557 776.882 239.441C761.948 239.364 746.857 240.652 731.949 239.663C729.514 239.503 724.249 239.581 722.623 237.219C721.018 234.877 724.519 231.438 725.937 229.947C744.078 210.782 770.863 206.87 795.992 209.541C824.467 212.562 851.482 222.61 878.563 231.308C889.472 234.812 921.146 247.194 921.957 225.71C922.158 220.205 920.237 214.661 918.109 209.676C915.015 202.421 910.906 195.596 906.483 189.077L906.504 189.016Z" fill="#4C4C0F" stroke="#46460C" stroke-width="10" mask="url(#path-1-inside-1_390_177)"/>
<path d="M533.452 220.308C560.115 245.938 595.611 299.007 631.429 359.1C662.248 410.806 693.281 467.668 719.101 516.621C638.064 377.429 542.178 258.62 523.815 236.256L521.12 232.992C520.999 232.844 520.424 232.099 519.829 231.326C520.254 231.489 520.733 231.639 521.261 231.751C523.439 232.214 526.386 232.018 529.489 229.491C532.326 227.181 533.16 224.263 533.383 222.118C533.455 221.419 533.46 220.798 533.452 220.308ZM532.93 219.46C532.93 219.45 532.93 219.44 532.93 219.43L532.98 219.408L532.93 219.46Z" fill="#46460C" stroke="#46460C"/>
<path d="M496.936 329.239C501.085 326.431 507.627 322.453 513.61 321.113C516.598 320.443 519.38 320.448 521.643 321.517C523.882 322.576 525.704 324.723 526.697 328.54C528.736 336.396 526.898 344.069 523.123 351.041C519.345 358.017 513.643 364.258 508.023 369.211C501.891 374.615 495.015 379.28 487.651 382.831L486.936 383.171C481.246 385.836 474.777 388.28 468.5 388.012L467.893 387.978L467.501 387.946C463.505 387.578 461.195 385.992 459.965 383.767C458.674 381.431 458.512 378.285 459.045 374.827C460.108 367.918 463.886 360.096 466.108 355.942L466.12 355.919L466.13 355.895C466.134 355.885 466.144 355.864 466.203 355.8L466.249 355.75L466.279 355.691L466.359 355.567C466.443 355.481 466.529 355.393 466.612 355.306C466.703 355.212 466.792 355.12 466.878 355.033L466.88 355.03C476.02 345.606 486.015 336.64 496.865 329.283L496.876 329.279L496.936 329.239Z" fill="#46460C" stroke="#46460C"/>
<path d="M853.118 277.964C859.814 273.076 869.063 273.831 876.22 277.533L876.228 277.537L876.238 277.541L876.865 277.835L876.873 277.84C887.723 282.679 898.306 288.946 907.95 295.869L907.95 295.868C913.976 300.199 919.993 305.018 924.264 311.058L924.267 311.056C927.359 315.432 929.377 320.803 927.058 325.788C924.685 330.889 919.318 334.29 913.734 334.543L913.194 334.557C905.852 334.618 898.744 330.724 892.612 326.815C884.934 321.921 877.898 316.053 871.011 310.058C869.432 308.682 867.863 307.297 866.296 305.908L861.594 301.74C860.197 300.508 858.736 299.323 857.301 298.136C855.863 296.945 854.447 295.749 853.123 294.48L853.123 294.479L852.635 293.999C850.232 291.551 848.367 288.421 848.658 285.028L848.657 285.027C848.914 282.145 850.763 279.681 853.117 277.964L853.118 277.964Z" fill="#46460C" stroke="#46460C"/>
<mask id="path-5-inside-2_390_177" fill="white">
<path d="M949.665 822.517C943.968 802.336 935.45 782.954 925.726 764.429C917.309 748.757 896.452 745.307 880.435 743.893C855.14 741.65 829.506 743.918 804.267 745.775C779.122 747.633 753.591 750.239 728.372 748.372C713.399 747.268 691.647 744.492 687.027 727.255C685.615 721.982 684.435 715.461 687.268 710.416C689.633 706.213 694.359 704.539 698.896 703.911C705.454 703.013 712.217 703.838 718.71 704.888C727.321 706.275 735.817 708.332 744.257 710.522C765.062 715.935 785.6 722.271 806.391 727.737C827.531 733.288 849.276 738.753 871.17 739.999C880.464 740.52 904.621 740.249 897.523 724.473C896.961 723.216 896.237 722.01 895.432 720.898C892.063 716.258 888.086 711.947 884.269 707.678C871.851 693.756 858.184 680.894 843.286 669.656C818.683 651.091 790.728 637.133 760.894 629.294C736.62 622.924 711.353 620.613 686.321 622.029C667.786 623.084 649.346 626.116 631.473 631.104C623.475 633.327 615.378 635.805 607.794 639.23C596.263 644.447 585.446 652.67 579.521 664.06C573.955 674.755 573.317 686.898 573.946 698.721C574.501 709.051 576.802 720.424 573.931 730.589C572.988 733.924 571.271 737.908 567.694 739.045C562.607 740.647 557.018 736.181 553.415 733.124C544.904 725.906 538.26 716.708 529.954 709.224C513.383 694.268 493.644 683.211 472.372 676.475C455.504 671.14 437.89 669.491 420.831 674.96C402.746 680.765 386.938 692.513 371.678 703.462C355.305 715.203 341.002 729.067 328.862 745.164C309.749 770.513 294.851 800.566 287.535 831.562C284.494 844.467 283.515 858.057 285.122 871.237C285.913 877.739 288.255 893.374 298.019 891.858C303.5 891.013 307.832 885.45 310.922 881.336C316.623 873.761 322.082 866.222 328.688 859.371C342.227 845.295 358.313 833.913 375.749 825.17C395.662 815.18 417.433 808.024 439.314 803.92C443.261 803.178 466.053 798.239 463.951 808.185C463.479 810.437 462.041 812.503 460.661 814.273C458.065 817.586 453.812 818.016 449.936 819.459C430.422 826.711 411.205 834.854 392.722 844.458C367.42 857.605 342.565 873.66 323.926 895.561C311.441 910.241 302.388 927.72 299.564 946.905C297.151 963.327 299.345 980.022 303.969 995.86C308.284 1010.65 314.637 1024.72 321.14 1038.65C323.967 1044.68 326.821 1050.69 329.417 1056.84C334.193 1068.17 337.426 1080.29 344.46 1090.54C347.574 1095.09 353.409 1101.29 359.085 1096.75C360.647 1095.51 361.798 1093.76 362.694 1092C363.852 1089.71 363.471 1088.03 363.424 1085.34C362.983 1056.6 374.311 1029.31 391.508 1006.68C408.745 983.993 431.481 965.451 456.242 951.531C476.914 939.912 500.358 930.236 524.263 928.605C532.631 928.039 541.55 928.461 549.315 931.961C553.565 933.883 560.007 937.782 559.224 943.337C558.471 948.717 552.545 952.822 548.489 955.701C540.772 961.167 532.288 965.576 523.926 969.959C501.654 981.611 479.039 992.682 457.963 1006.46C436.698 1020.36 415.688 1037.39 403.596 1060.21C389.398 1086.97 391.576 1119.73 399.833 1148.01C407.922 1175.71 422.289 1203.31 442.427 1224.2C448.437 1230.43 470.368 1249.82 473.687 1230.91C474.44 1226.63 473.727 1222.42 473.472 1218.14C473.194 1213.58 473.575 1208.99 474.251 1204.48C475.983 1193.01 479.673 1181.85 483.896 1171.07C494.009 1145.28 507.842 1120.82 523.255 1097.84C535.887 1079.02 549.942 1059.3 567.811 1045.05C571.993 1041.71 578.253 1036.71 584.049 1037.59C590.327 1038.53 590.765 1047.45 590.731 1052.25C590.657 1064.41 585.229 1075.85 578.811 1085.9C571.282 1097.71 562.006 1108.36 552.694 1118.79C534.15 1139.57 512.462 1160.23 501.365 1186.28C496.502 1197.68 494.817 1209.65 497.472 1221.82C501.104 1238.49 508.24 1255.49 520.41 1267.77C526.82 1274.24 537.263 1281.71 546.843 1277.73C558.423 1272.93 558.825 1256.13 558.244 1245.75C557.118 1225.41 559.972 1204.99 567.686 1186.07C573.443 1171.95 582.248 1157.09 595.538 1148.87C603.992 1143.64 617.735 1141.03 622.594 1152.12C624.854 1157.27 625.154 1163.24 625.151 1168.79C625.153 1176.05 624.362 1183.31 623.37 1190.49C621.029 1207.55 617.374 1224.4 614.216 1241.33C612.759 1249.16 611.368 1257 610.314 1264.89C609.468 1271.2 608.333 1277.96 609.059 1284.31C611.795 1308.02 641.734 1318.21 661.156 1323.54C672.42 1326.62 683.925 1328.79 695.492 1330.32C698.981 1330.78 702.471 1331.19 705.975 1331.51C707.035 1331.61 708.388 1331.96 709.401 1331.61C710.872 1331.11 712.438 1329.54 713.699 1328.65C717.035 1326.33 720.358 1323.95 723.642 1321.56C734.224 1313.86 744.594 1305.85 754.661 1297.48C766.493 1287.66 777.995 1277.35 788.527 1266.14C797.602 1256.47 806.54 1245.93 812.138 1233.8C815.801 1225.85 816.915 1218.57 813.74 1210.29C810.15 1200.9 803.547 1192.68 796.989 1185.21C779.249 1164.94 758.367 1147.59 738.897 1129.08C729.68 1120.32 720.547 1111.33 712.541 1101.43C706.732 1094.25 700.601 1085.94 698.931 1076.63C697.751 1070.07 699.936 1062.1 706.32 1058.92C712.408 1055.88 719.678 1059.11 725.042 1062.23C733.968 1067.41 741.712 1074.69 748.904 1082.01C758.034 1091.3 766.456 1101.26 774.539 1111.45C790.982 1132.21 806.135 1154.06 820.096 1176.56C824.957 1184.39 829.735 1192.33 833.999 1200.52C837.004 1206.31 838.84 1213.08 843.66 1217.68C849.079 1222.86 856.27 1222.82 862.527 1219.12C873.916 1212.4 881.131 1198.92 886.68 1187.46C891.414 1177.67 895.307 1167.48 898.732 1157.16C900.101 1153.05 901.133 1149.03 901.135 1144.66C901.126 1136.92 898.385 1129.45 894.598 1122.79C884.212 1104.5 866.974 1090.22 850.562 1077.55C829.212 1061.07 806.413 1046.52 783.638 1032.1C762.038 1018.43 740.164 1005.07 719.372 990.171C711.18 984.301 703.113 978.177 695.768 971.255C690.534 966.323 685.215 960.785 682.194 954.161C679.945 949.239 679.531 943.71 682.668 939.072C685.997 934.155 692.1 933.036 697.661 933.335C706.15 933.793 714.498 936.856 722.252 940.153C733.001 944.712 743.278 950.394 753.255 956.462C777.05 970.917 799.458 987.721 820.805 1005.56C840.887 1022.33 860.406 1040.16 877.547 1059.98C883.653 1067.05 889.635 1074.43 894.263 1082.58C897.72 1088.68 899.597 1095.41 903.691 1101.17C910.504 1110.76 921.944 1118.07 934.095 1115.93C949.089 1113.28 957.558 1098.39 961.639 1085.05C965.341 1072.96 966.498 1060.15 966.591 1047.56C966.716 1029.26 964.489 1010.95 961.196 992.962C958.029 975.61 954.176 958.329 947.259 942.045C941.817 929.22 934.727 917.1 926.211 906.064C910.687 885.934 890.663 869.752 868.755 857.04C849.181 845.689 828.161 837.075 806.76 829.867C792.198 824.965 777.043 821.344 762.801 815.559C760.474 814.615 755.307 812.99 754.483 810.157C753.672 807.351 758.203 805.124 760.07 804.126C783.984 791.271 811.41 796.109 835.091 806.84C861.926 818.996 885.065 837.543 908.703 854.793C918.226 861.742 945.16 884.074 952.897 863.352C954.873 858.041 954.788 852.004 954.321 846.447C953.644 838.361 951.837 830.367 949.624 822.57L949.665 822.517Z"/>
</mask>
<path d="M949.665 822.517C943.968 802.336 935.45 782.954 925.726 764.429C917.309 748.757 896.452 745.307 880.435 743.893C855.14 741.65 829.506 743.918 804.267 745.775C779.122 747.633 753.591 750.239 728.372 748.372C713.399 747.268 691.647 744.492 687.027 727.255C685.615 721.982 684.435 715.461 687.268 710.416C689.633 706.213 694.359 704.539 698.896 703.911C705.454 703.013 712.217 703.838 718.71 704.888C727.321 706.275 735.817 708.332 744.257 710.522C765.062 715.935 785.6 722.271 806.391 727.737C827.531 733.288 849.276 738.753 871.17 739.999C880.464 740.52 904.621 740.249 897.523 724.473C896.961 723.216 896.237 722.01 895.432 720.898C892.063 716.258 888.086 711.947 884.269 707.678C871.851 693.756 858.184 680.894 843.286 669.656C818.683 651.091 790.728 637.133 760.894 629.294C736.62 622.924 711.353 620.613 686.321 622.029C667.786 623.084 649.346 626.116 631.473 631.104C623.475 633.327 615.378 635.805 607.794 639.23C596.263 644.447 585.446 652.67 579.521 664.06C573.955 674.755 573.317 686.898 573.946 698.721C574.501 709.051 576.802 720.424 573.931 730.589C572.988 733.924 571.271 737.908 567.694 739.045C562.607 740.647 557.018 736.181 553.415 733.124C544.904 725.906 538.26 716.708 529.954 709.224C513.383 694.268 493.644 683.211 472.372 676.475C455.504 671.14 437.89 669.491 420.831 674.96C402.746 680.765 386.938 692.513 371.678 703.462C355.305 715.203 341.002 729.067 328.862 745.164C309.749 770.513 294.851 800.566 287.535 831.562C284.494 844.467 283.515 858.057 285.122 871.237C285.913 877.739 288.255 893.374 298.019 891.858C303.5 891.013 307.832 885.45 310.922 881.336C316.623 873.761 322.082 866.222 328.688 859.371C342.227 845.295 358.313 833.913 375.749 825.17C395.662 815.18 417.433 808.024 439.314 803.92C443.261 803.178 466.053 798.239 463.951 808.185C463.479 810.437 462.041 812.503 460.661 814.273C458.065 817.586 453.812 818.016 449.936 819.459C430.422 826.711 411.205 834.854 392.722 844.458C367.42 857.605 342.565 873.66 323.926 895.561C311.441 910.241 302.388 927.72 299.564 946.905C297.151 963.327 299.345 980.022 303.969 995.86C308.284 1010.65 314.637 1024.72 321.14 1038.65C323.967 1044.68 326.821 1050.69 329.417 1056.84C334.193 1068.17 337.426 1080.29 344.46 1090.54C347.574 1095.09 353.409 1101.29 359.085 1096.75C360.647 1095.51 361.798 1093.76 362.694 1092C363.852 1089.71 363.471 1088.03 363.424 1085.34C362.983 1056.6 374.311 1029.31 391.508 1006.68C408.745 983.993 431.481 965.451 456.242 951.531C476.914 939.912 500.358 930.236 524.263 928.605C532.631 928.039 541.55 928.461 549.315 931.961C553.565 933.883 560.007 937.782 559.224 943.337C558.471 948.717 552.545 952.822 548.489 955.701C540.772 961.167 532.288 965.576 523.926 969.959C501.654 981.611 479.039 992.682 457.963 1006.46C436.698 1020.36 415.688 1037.39 403.596 1060.21C389.398 1086.97 391.576 1119.73 399.833 1148.01C407.922 1175.71 422.289 1203.31 442.427 1224.2C448.437 1230.43 470.368 1249.82 473.687 1230.91C474.44 1226.63 473.727 1222.42 473.472 1218.14C473.194 1213.58 473.575 1208.99 474.251 1204.48C475.983 1193.01 479.673 1181.85 483.896 1171.07C494.009 1145.28 507.842 1120.82 523.255 1097.84C535.887 1079.02 549.942 1059.3 567.811 1045.05C571.993 1041.71 578.253 1036.71 584.049 1037.59C590.327 1038.53 590.765 1047.45 590.731 1052.25C590.657 1064.41 585.229 1075.85 578.811 1085.9C571.282 1097.71 562.006 1108.36 552.694 1118.79C534.15 1139.57 512.462 1160.23 501.365 1186.28C496.502 1197.68 494.817 1209.65 497.472 1221.82C501.104 1238.49 508.24 1255.49 520.41 1267.77C526.82 1274.24 537.263 1281.71 546.843 1277.73C558.423 1272.93 558.825 1256.13 558.244 1245.75C557.118 1225.41 559.972 1204.99 567.686 1186.07C573.443 1171.95 582.248 1157.09 595.538 1148.87C603.992 1143.64 617.735 1141.03 622.594 1152.12C624.854 1157.27 625.154 1163.24 625.151 1168.79C625.153 1176.05 624.362 1183.31 623.37 1190.49C621.029 1207.55 617.374 1224.4 614.216 1241.33C612.759 1249.16 611.368 1257 610.314 1264.89C609.468 1271.2 608.333 1277.96 609.059 1284.31C611.795 1308.02 641.734 1318.21 661.156 1323.54C672.42 1326.62 683.925 1328.79 695.492 1330.32C698.981 1330.78 702.471 1331.19 705.975 1331.51C707.035 1331.61 708.388 1331.96 709.401 1331.61C710.872 1331.11 712.438 1329.54 713.699 1328.65C717.035 1326.33 720.358 1323.95 723.642 1321.56C734.224 1313.86 744.594 1305.85 754.661 1297.48C766.493 1287.66 777.995 1277.35 788.527 1266.14C797.602 1256.47 806.54 1245.93 812.138 1233.8C815.801 1225.85 816.915 1218.57 813.74 1210.29C810.15 1200.9 803.547 1192.68 796.989 1185.21C779.249 1164.94 758.367 1147.59 738.897 1129.08C729.68 1120.32 720.547 1111.33 712.541 1101.43C706.732 1094.25 700.601 1085.94 698.931 1076.63C697.751 1070.07 699.936 1062.1 706.32 1058.92C712.408 1055.88 719.678 1059.11 725.042 1062.23C733.968 1067.41 741.712 1074.69 748.904 1082.01C758.034 1091.3 766.456 1101.26 774.539 1111.45C790.982 1132.21 806.135 1154.06 820.096 1176.56C824.957 1184.39 829.735 1192.33 833.999 1200.52C837.004 1206.31 838.84 1213.08 843.66 1217.68C849.079 1222.86 856.27 1222.82 862.527 1219.12C873.916 1212.4 881.131 1198.92 886.68 1187.46C891.414 1177.67 895.307 1167.48 898.732 1157.16C900.101 1153.05 901.133 1149.03 901.135 1144.66C901.126 1136.92 898.385 1129.45 894.598 1122.79C884.212 1104.5 866.974 1090.22 850.562 1077.55C829.212 1061.07 806.413 1046.52 783.638 1032.1C762.038 1018.43 740.164 1005.07 719.372 990.171C711.18 984.301 703.113 978.177 695.768 971.255C690.534 966.323 685.215 960.785 682.194 954.161C679.945 949.239 679.531 943.71 682.668 939.072C685.997 934.155 692.1 933.036 697.661 933.335C706.15 933.793 714.498 936.856 722.252 940.153C733.001 944.712 743.278 950.394 753.255 956.462C777.05 970.917 799.458 987.721 820.805 1005.56C840.887 1022.33 860.406 1040.16 877.547 1059.98C883.653 1067.05 889.635 1074.43 894.263 1082.58C897.72 1088.68 899.597 1095.41 903.691 1101.17C910.504 1110.76 921.944 1118.07 934.095 1115.93C949.089 1113.28 957.558 1098.39 961.639 1085.05C965.341 1072.96 966.498 1060.15 966.591 1047.56C966.716 1029.26 964.489 1010.95 961.196 992.962C958.029 975.61 954.176 958.329 947.259 942.045C941.817 929.22 934.727 917.1 926.211 906.064C910.687 885.934 890.663 869.752 868.755 857.04C849.181 845.689 828.161 837.075 806.76 829.867C792.198 824.965 777.043 821.344 762.801 815.559C760.474 814.615 755.307 812.99 754.483 810.157C753.672 807.351 758.203 805.124 760.07 804.126C783.984 791.271 811.41 796.109 835.091 806.84C861.926 818.996 885.065 837.543 908.703 854.793C918.226 861.742 945.16 884.074 952.897 863.352C954.873 858.041 954.788 852.004 954.321 846.447C953.644 838.361 951.837 830.367 949.624 822.57L949.665 822.517Z" fill="#59590E" stroke="#4C4C0F" stroke-width="10" mask="url(#path-5-inside-2_390_177)"/>
<path d="M577.071 734.455C576.754 732.959 576.755 740.217 570.056 742.766C562.682 745.576 558.937 739.829 558.937 739.829C558.937 739.829 560.299 743.745 560.455 744.15C565.077 755.929 632.198 928.627 667.746 1112.97C647.844 989.916 612.981 801.431 577.071 734.441L577.071 734.455Z" fill="#4C4C0F"/>
<path d="M504.149 826.587C491.105 830.279 478.386 835.83 466.371 842.102C466.141 842.22 465.897 842.351 465.667 842.469C465.599 842.509 465.518 842.575 465.45 842.641C465.355 842.694 465.274 842.746 465.206 842.826C458.172 849.511 440.105 868.704 456.752 875.542C463.05 878.135 470.527 877.827 477.163 877.038C485.833 875.992 494.385 873.601 502.412 870.181C516.656 864.112 532.993 853.056 534.11 836.054C535.195 819.401 514.091 823.783 504.163 826.587L504.149 826.587Z" fill="#4C4C0F"/>
<path d="M928.052 947.312C925.807 939.945 921.443 933.236 916.952 927.05C909.752 917.146 901.419 907.578 892.357 899.317L891.839 898.827C885.961 892.811 876.978 888.96 868.61 891.65C865.668 892.594 862.916 894.481 861.655 897.395C860.09 901.044 861.194 905.158 862.979 908.514C864.764 911.883 866.995 915.07 868.916 918.361C871.086 922.085 873.23 925.822 875.427 929.533C880.217 937.618 885.209 945.652 891.152 952.945C895.876 958.745 901.644 964.961 908.993 967.326C914.83 969.201 921.665 967.608 925.902 963.105C929.976 958.775 929.678 952.629 928.052 947.299L928.052 947.312Z" fill="#4C4C0F"/>
<mask id="path-9-inside-3_390_177" fill="white">
<path d="M626.015 315.089C609.909 302.848 592.115 292.851 573.897 284.213C558.341 277.015 540.396 286.417 527.336 294.59C506.704 307.488 488.44 324.055 470.238 340.077C452.109 356.045 434.121 372.812 413.767 385.957C401.684 393.763 383.448 404.203 369.881 393.605C365.731 390.361 361.032 386.024 360.259 380.503C359.618 375.899 362.254 371.878 365.355 368.771C369.842 364.289 375.49 361.013 381.062 358.068C388.448 354.156 396.137 350.828 403.861 347.635C422.908 339.772 442.289 332.775 461.357 324.962C480.741 317.013 500.537 308.648 517.989 296.949C525.394 291.976 543.692 277.801 529.082 269.76C527.921 269.117 526.666 268.607 525.402 268.217C520.127 266.593 514.577 265.573 509.175 264.494C491.581 260.956 473.649 258.957 455.722 258.919C426.113 258.851 396.627 264.269 369.269 275.483C347.013 284.614 326.364 297.444 308.064 313.007C294.517 324.535 282.194 337.531 271.444 351.704C266.628 358.041 261.885 364.629 258.086 371.651C252.313 382.334 248.837 394.918 250.944 407.112C252.92 418.564 259.503 428.28 266.869 437.018C273.308 444.65 281.69 452.075 285.416 461.56C286.638 464.673 287.646 468.732 285.576 471.676C282.621 475.851 275.751 475.643 271.218 475.374C260.512 474.738 250.08 471.498 239.375 470.538C218.006 468.606 196.486 471.506 176.311 478.62C160.316 484.266 145.899 493.18 136.051 507.253C125.614 522.179 120.378 540.363 115.095 557.614C109.424 576.119 106.57 595.062 106.668 614.472C106.827 645.037 112.946 676.787 125.407 704.878C130.6 716.571 137.766 727.599 146.668 736.816C151.059 741.364 161.953 752.046 168.53 745.234C172.226 741.415 172.296 734.628 172.261 729.674C172.205 720.546 171.986 711.587 173.043 702.493C175.19 683.829 180.852 665.766 189.082 648.954C198.478 629.751 210.944 611.655 225.271 595.845C227.855 592.99 242.392 576.011 246.578 584.883C247.529 586.89 247.633 589.311 247.609 591.472C247.556 595.524 244.557 598.313 242.436 601.665C231.75 618.531 221.81 635.91 213.282 653.99C201.607 678.739 191.967 705.469 190.48 733.106C189.491 751.626 192.753 770.316 201.767 786.718C209.487 800.755 220.885 812.338 233.641 821.858C245.549 830.746 258.598 837.906 271.677 844.868C277.349 847.876 283.033 850.859 288.598 854.091C298.841 860.048 308.372 867.512 319.715 871.337C324.74 873.033 332.81 874.435 334.504 867.659C334.973 865.799 334.836 863.789 334.494 861.914C334.049 859.486 332.776 858.41 331.174 856.367C314.099 834.495 306.862 806.937 306.821 779.572C306.781 752.143 313.353 724.723 324.165 699.692C333.192 678.795 345.469 657.792 362.783 642.715C368.846 637.441 375.907 632.609 383.877 630.814C388.243 629.836 395.436 629.113 398.073 633.842C400.63 638.42 398.493 645.006 397.071 649.567C394.358 658.237 390.444 666.536 386.607 674.745C376.377 696.593 365.546 718.19 357.468 740.982C349.313 763.976 343.18 789.235 347.229 813.791C351.971 842.607 372.71 866.565 395.486 883.56C417.795 900.206 444.846 913.148 472.396 917.585C480.617 918.908 508.665 921.156 500.189 904.681C498.273 900.952 495.273 898.118 492.587 894.972C489.719 891.623 487.336 887.867 485.227 884.007C479.871 874.175 476.19 863.448 473.139 852.708C465.849 827.01 462.172 800.181 460.567 773.581C459.259 751.791 458.509 728.478 463.864 707.177C465.117 702.192 466.988 694.723 471.928 692.05C477.272 689.144 482.799 695.755 485.568 699.468C492.594 708.875 495.108 720.817 496.058 732.267C497.185 745.714 496.3 759.275 495.26 772.691C493.189 799.404 488.654 827.852 495.341 854.316C498.267 865.906 503.95 876.094 513.066 883.928C525.55 894.664 540.902 903.624 557.35 906.041C566.012 907.312 578.342 907.026 583.345 898.425C589.397 888.035 579.923 874.873 573.433 867.215C560.729 852.209 551.017 834.839 545.892 815.813C542.068 801.614 540.14 785.082 545.508 771.071C548.921 762.158 557.903 752.205 568.07 757.928C572.795 760.586 576.502 765.009 579.733 769.285C583.961 774.871 587.585 780.919 591.008 787.018C599.158 801.511 606.178 816.595 613.619 831.448C617.067 838.319 620.573 845.163 624.362 851.846C627.388 857.191 630.458 863.051 634.713 867.522C650.608 884.188 679.416 874.725 697.357 867.597C707.761 863.461 717.811 858.473 727.54 852.965C730.474 851.303 733.377 849.599 736.244 847.824C737.109 847.283 738.349 846.773 738.918 845.918C739.748 844.678 740.032 842.567 740.481 841.157C741.677 837.44 742.831 833.688 743.947 829.949C747.547 817.902 750.804 805.737 753.622 793.476C756.942 779.073 759.725 764.485 761.243 749.765C762.545 737.075 763.241 723.799 760.452 711.222C758.62 702.984 755.229 696.732 747.982 692.193C739.773 687.042 729.944 684.535 720.579 682.572C695.224 677.227 669.166 675.945 643.51 672.949C631.367 671.535 619.156 669.897 607.273 666.904C598.651 664.732 589.131 661.884 582.435 655.683C577.713 651.315 574.741 643.916 577.764 637.773C580.644 631.912 588.084 630.201 593.998 629.501C603.835 628.329 613.988 629.453 623.748 630.932C636.129 632.799 648.363 635.597 660.477 638.774C685.129 645.248 709.428 653.305 733.2 662.557C741.473 665.775 749.746 669.123 757.771 672.959C763.439 675.68 768.784 679.831 775.149 680.588C782.303 681.441 787.772 677.249 790.399 670.785C795.185 659.024 792.853 644.483 790.418 632.451C788.333 622.176 785.371 612.078 781.978 602.154C780.631 598.199 779.079 594.508 776.537 591.144C772.021 585.189 765.578 581.025 758.806 578.087C740.219 570.011 718.734 568.985 698.818 568.722C672.908 568.378 647.016 570.358 621.221 572.428C596.754 574.389 572.264 576.754 547.701 577.304C538.024 577.521 528.294 577.471 518.651 576.389C511.781 575.618 504.492 574.43 498.326 571.077C493.742 568.589 490.206 564.571 489.901 559.187C489.581 553.477 493.592 549.087 498.015 546.102C504.767 541.546 512.929 539.078 520.774 537.133C531.64 534.428 542.801 532.86 553.957 531.763C580.555 529.133 607.461 529.114 634.158 530.505C659.27 531.807 684.565 534.247 709.2 539.591C717.981 541.501 726.853 543.73 735.135 547.329C741.325 550.02 746.679 554.116 753.163 556.187C763.953 559.63 776.95 558.643 784.985 549.967C794.899 539.261 792.697 522.9 788.049 510.274C783.837 498.827 777.262 488.297 770 478.549C759.435 464.385 747.072 451.578 734.082 439.636C721.558 428.109 708.551 417.034 693.783 408.497C682.157 401.77 669.681 396.539 656.749 392.967C633.165 386.446 608.444 385.565 584.303 388.447C562.738 391.025 541.662 396.547 521.114 403.372C507.134 408.017 493.446 413.993 479.196 417.772C476.869 418.391 471.975 420.128 469.695 418.424C467.442 416.732 469.606 412.398 470.452 410.55C481.236 386.828 505.007 374.695 529.349 369.265C556.931 363.107 585.409 364.007 613.515 363.619C624.837 363.463 658.42 365.082 652.263 344.657C650.68 339.426 647.1 334.828 643.508 330.82C638.281 324.986 632.246 319.877 626.014 315.154L626.015 315.089Z"/>
</mask>
<path d="M626.015 315.089C609.909 302.848 592.115 292.851 573.897 284.213C558.341 277.015 540.396 286.417 527.336 294.59C506.704 307.488 488.44 324.055 470.238 340.077C452.109 356.045 434.121 372.812 413.767 385.957C401.684 393.763 383.448 404.203 369.881 393.605C365.731 390.361 361.032 386.024 360.259 380.503C359.618 375.899 362.254 371.878 365.355 368.771C369.842 364.289 375.49 361.013 381.062 358.068C388.448 354.156 396.137 350.828 403.861 347.635C422.908 339.772 442.289 332.775 461.357 324.962C480.741 317.013 500.537 308.648 517.989 296.949C525.394 291.976 543.692 277.801 529.082 269.76C527.921 269.117 526.666 268.607 525.402 268.217C520.127 266.593 514.577 265.573 509.175 264.494C491.581 260.956 473.649 258.957 455.722 258.919C426.113 258.851 396.627 264.269 369.269 275.483C347.013 284.614 326.364 297.444 308.064 313.007C294.517 324.535 282.194 337.531 271.444 351.704C266.628 358.041 261.885 364.629 258.086 371.651C252.313 382.334 248.837 394.918 250.944 407.112C252.92 418.564 259.503 428.28 266.869 437.018C273.308 444.65 281.69 452.075 285.416 461.56C286.638 464.673 287.646 468.732 285.576 471.676C282.621 475.851 275.751 475.643 271.218 475.374C260.512 474.738 250.08 471.498 239.375 470.538C218.006 468.606 196.486 471.506 176.311 478.62C160.316 484.266 145.899 493.18 136.051 507.253C125.614 522.179 120.378 540.363 115.095 557.614C109.424 576.119 106.57 595.062 106.668 614.472C106.827 645.037 112.946 676.787 125.407 704.878C130.6 716.571 137.766 727.599 146.668 736.816C151.059 741.364 161.953 752.046 168.53 745.234C172.226 741.415 172.296 734.628 172.261 729.674C172.205 720.546 171.986 711.587 173.043 702.493C175.19 683.829 180.852 665.766 189.082 648.954C198.478 629.751 210.944 611.655 225.271 595.845C227.855 592.99 242.392 576.011 246.578 584.883C247.529 586.89 247.633 589.311 247.609 591.472C247.556 595.524 244.557 598.313 242.436 601.665C231.75 618.531 221.81 635.91 213.282 653.99C201.607 678.739 191.967 705.469 190.48 733.106C189.491 751.626 192.753 770.316 201.767 786.718C209.487 800.755 220.885 812.338 233.641 821.858C245.549 830.746 258.598 837.906 271.677 844.868C277.349 847.876 283.033 850.859 288.598 854.091C298.841 860.048 308.372 867.512 319.715 871.337C324.74 873.033 332.81 874.435 334.504 867.659C334.973 865.799 334.836 863.789 334.494 861.914C334.049 859.486 332.776 858.41 331.174 856.367C314.099 834.495 306.862 806.937 306.821 779.572C306.781 752.143 313.353 724.723 324.165 699.692C333.192 678.795 345.469 657.792 362.783 642.715C368.846 637.441 375.907 632.609 383.877 630.814C388.243 629.836 395.436 629.113 398.073 633.842C400.63 638.42 398.493 645.006 397.071 649.567C394.358 658.237 390.444 666.536 386.607 674.745C376.377 696.593 365.546 718.19 357.468 740.982C349.313 763.976 343.18 789.235 347.229 813.791C351.971 842.607 372.71 866.565 395.486 883.56C417.795 900.206 444.846 913.148 472.396 917.585C480.617 918.908 508.665 921.156 500.189 904.681C498.273 900.952 495.273 898.118 492.587 894.972C489.719 891.623 487.336 887.867 485.227 884.007C479.871 874.175 476.19 863.448 473.139 852.708C465.849 827.01 462.172 800.181 460.567 773.581C459.259 751.791 458.509 728.478 463.864 707.177C465.117 702.192 466.988 694.723 471.928 692.05C477.272 689.144 482.799 695.755 485.568 699.468C492.594 708.875 495.108 720.817 496.058 732.267C497.185 745.714 496.3 759.275 495.26 772.691C493.189 799.404 488.654 827.852 495.341 854.316C498.267 865.906 503.95 876.094 513.066 883.928C525.55 894.664 540.902 903.624 557.35 906.041C566.012 907.312 578.342 907.026 583.345 898.425C589.397 888.035 579.923 874.873 573.433 867.215C560.729 852.209 551.017 834.839 545.892 815.813C542.068 801.614 540.14 785.082 545.508 771.071C548.921 762.158 557.903 752.205 568.07 757.928C572.795 760.586 576.502 765.009 579.733 769.285C583.961 774.871 587.585 780.919 591.008 787.018C599.158 801.511 606.178 816.595 613.619 831.448C617.067 838.319 620.573 845.163 624.362 851.846C627.388 857.191 630.458 863.051 634.713 867.522C650.608 884.188 679.416 874.725 697.357 867.597C707.761 863.461 717.811 858.473 727.54 852.965C730.474 851.303 733.377 849.599 736.244 847.824C737.109 847.283 738.349 846.773 738.918 845.918C739.748 844.678 740.032 842.567 740.481 841.157C741.677 837.44 742.831 833.688 743.947 829.949C747.547 817.902 750.804 805.737 753.622 793.476C756.942 779.073 759.725 764.485 761.243 749.765C762.545 737.075 763.241 723.799 760.452 711.222C758.62 702.984 755.229 696.732 747.982 692.193C739.773 687.042 729.944 684.535 720.579 682.572C695.224 677.227 669.166 675.945 643.51 672.949C631.367 671.535 619.156 669.897 607.273 666.904C598.651 664.732 589.131 661.884 582.435 655.683C577.713 651.315 574.741 643.916 577.764 637.773C580.644 631.912 588.084 630.201 593.998 629.501C603.835 628.329 613.988 629.453 623.748 630.932C636.129 632.799 648.363 635.597 660.477 638.774C685.129 645.248 709.428 653.305 733.2 662.557C741.473 665.775 749.746 669.123 757.771 672.959C763.439 675.68 768.784 679.831 775.149 680.588C782.303 681.441 787.772 677.249 790.399 670.785C795.185 659.024 792.853 644.483 790.418 632.451C788.333 622.176 785.371 612.078 781.978 602.154C780.631 598.199 779.079 594.508 776.537 591.144C772.021 585.189 765.578 581.025 758.806 578.087C740.219 570.011 718.734 568.985 698.818 568.722C672.908 568.378 647.016 570.358 621.221 572.428C596.754 574.389 572.264 576.754 547.701 577.304C538.024 577.521 528.294 577.471 518.651 576.389C511.781 575.618 504.492 574.43 498.326 571.077C493.742 568.589 490.206 564.571 489.901 559.187C489.581 553.477 493.592 549.087 498.015 546.102C504.767 541.546 512.929 539.078 520.774 537.133C531.64 534.428 542.801 532.86 553.957 531.763C580.555 529.133 607.461 529.114 634.158 530.505C659.27 531.807 684.565 534.247 709.2 539.591C717.981 541.501 726.853 543.73 735.135 547.329C741.325 550.02 746.679 554.116 753.163 556.187C763.953 559.63 776.95 558.643 784.985 549.967C794.899 539.261 792.697 522.9 788.049 510.274C783.837 498.827 777.262 488.297 770 478.549C759.435 464.385 747.072 451.578 734.082 439.636C721.558 428.109 708.551 417.034 693.783 408.497C682.157 401.77 669.681 396.539 656.749 392.967C633.165 386.446 608.444 385.565 584.303 388.447C562.738 391.025 541.662 396.547 521.114 403.372C507.134 408.017 493.446 413.993 479.196 417.772C476.869 418.391 471.975 420.128 469.695 418.424C467.442 416.732 469.606 412.398 470.452 410.55C481.236 386.828 505.007 374.695 529.349 369.265C556.931 363.107 585.409 364.007 613.515 363.619C624.837 363.463 658.42 365.082 652.263 344.657C650.68 339.426 647.1 334.828 643.508 330.82C638.281 324.986 632.246 319.877 626.014 315.154L626.015 315.089Z" fill="#7B7B1F" stroke="#59590E" stroke-width="10" mask="url(#path-9-inside-3_390_177)"/>
<path d="M287.489 462.312C320.653 477.958 370.892 516.562 423.692 561.656C469.023 600.37 516.202 643.835 556.023 681.574C427.107 569.232 289.928 484.186 280.042 478.101L280.043 478.101C279.889 478.004 279.117 477.49 278.313 476.953C278.756 476.97 279.244 476.96 279.763 476.9C281.882 476.653 284.476 475.597 286.534 472.481L286.732 472.173C288.642 469.105 288.481 466.102 287.999 464.018C287.844 463.346 287.652 462.767 287.489 462.312ZM286.715 461.666C286.712 461.657 286.709 461.648 286.706 461.64L286.743 461.605L286.715 461.666Z" fill="#59590E" stroke="#59590E"/>
<path d="M288.413 576.101C291.387 572.154 296.22 566.355 301.378 563.209C303.953 561.637 306.552 560.763 309.008 561.052C311.44 561.339 313.833 562.778 315.989 566.048C320.424 572.779 321.175 580.564 319.891 588.301C318.605 596.042 315.286 603.701 311.629 610.125C307.509 617.361 302.396 624.108 296.418 629.889C291.814 634.327 286.361 638.805 280.174 640.415C276.121 641.473 273.341 640.721 271.415 638.965C269.457 637.18 268.293 634.278 267.678 630.864C266.448 624.042 267.461 615.507 268.201 610.906L268.204 610.88L268.206 610.854C268.207 610.844 268.209 610.821 268.244 610.742L268.271 610.681L268.28 610.615L268.314 610.475C268.365 610.368 268.417 610.258 268.467 610.15C268.522 610.033 268.574 609.918 268.626 609.809L268.628 609.807C274.136 598.074 280.589 586.501 288.359 576.167L288.369 576.16L288.413 576.101Z" fill="#59590E" stroke="#59590E"/>
<path d="M604.754 415.458C609.435 408.759 618.316 406.546 626.195 407.76L626.205 407.762L626.215 407.763L626.896 407.841L626.906 407.842C638.601 408.958 650.506 411.499 661.746 414.952C668.772 417.115 675.944 419.737 681.879 424.059L681.881 424.057C686.18 427.188 689.793 431.593 689.231 437.004C688.637 442.718 684.479 447.738 679.103 449.608L679.103 449.608C672.265 451.983 664.371 450.574 657.382 448.841C648.633 446.672 640.169 443.385 631.805 439.932C627.967 438.346 624.159 436.711 620.328 435.097C618.626 434.382 616.878 433.731 615.156 433.07C613.429 432.406 611.721 431.73 610.076 430.957L610.075 430.957L609.465 430.66C606.432 429.121 603.682 426.772 602.861 423.495L602.862 423.496C602.217 420.883 602.997 418.174 604.454 415.906L604.754 415.458Z" fill="#59590E" stroke="#59590E"/>
</svg>
