<svg width="223" height="633" viewBox="0 0 223 633" fill="none" xmlns="http://www.w3.org/2000/svg">
<mask id="path-1-inside-1_387_7416" fill="white">
<path d="M55.0147 29.0901C38.9095 16.8491 21.1146 6.85219 2.8974 -1.78604C-12.6594 -8.98437 -30.6038 0.418211 -43.6642 8.59103C-64.296 21.4885 -82.5599 38.0558 -100.762 54.0777C-118.891 70.0462 -136.879 86.8134 -157.233 99.9575C-169.316 107.764 -187.552 118.204 -201.119 107.606C-205.269 104.362 -209.968 100.025 -210.741 94.5035C-211.382 89.8997 -208.746 85.8788 -205.645 82.772C-201.158 78.2895 -195.51 75.0141 -189.938 72.0691C-182.552 68.1574 -174.863 64.829 -167.139 61.6356C-148.092 53.7731 -128.711 46.7764 -109.643 38.9634C-90.2593 31.0144 -70.4633 22.6485 -53.011 10.9497C-45.6062 5.97713 -27.3077 -8.19842 -41.9178 -16.2393C-43.0793 -16.8822 -44.3343 -17.3917 -45.5978 -17.7822C-50.8733 -19.4063 -56.4228 -20.4256 -61.8249 -21.5053C-79.4191 -25.043 -97.3514 -27.0425 -115.278 -27.0803C-144.887 -27.1477 -174.373 -21.73 -201.731 -10.5156C-223.987 -1.38495 -244.636 11.445 -262.936 27.0077C-276.483 38.5363 -288.806 51.5315 -299.556 65.705C-304.372 72.0416 -309.115 78.6301 -312.914 85.6517C-318.687 96.3347 -322.163 108.919 -320.056 121.113C-318.08 132.565 -311.497 142.281 -304.131 151.019C-297.692 158.651 -289.31 166.076 -285.584 175.561C-284.362 178.674 -283.354 182.733 -285.424 185.677C-288.379 189.852 -295.249 189.644 -299.782 189.375C-310.488 188.738 -320.92 185.499 -331.625 184.539C-352.994 182.607 -374.514 185.507 -394.689 192.621C-410.684 198.266 -425.101 207.181 -434.949 221.254C-445.386 236.179 -450.622 254.364 -455.905 271.615C-461.576 290.12 -464.43 309.063 -464.332 328.473C-464.173 359.038 -458.054 390.788 -445.593 418.879C-440.4 430.572 -433.234 441.6 -424.332 450.817C-419.941 455.365 -409.047 466.047 -402.47 459.235C-398.774 455.416 -398.704 448.629 -398.739 443.675C-398.795 434.547 -399.014 425.588 -397.957 416.494C-395.81 397.83 -390.148 379.767 -381.918 362.955C-372.522 343.752 -360.056 325.655 -345.729 309.846C-343.145 306.991 -328.608 290.012 -324.422 298.884C-323.471 300.891 -323.367 303.312 -323.391 305.473C-323.444 309.524 -326.443 312.314 -328.564 315.666C-339.25 332.532 -349.19 349.911 -357.718 367.991C-369.393 392.74 -379.033 419.47 -380.52 447.107C-381.509 465.627 -378.247 484.317 -369.233 500.719C-361.513 514.756 -350.115 526.339 -337.359 535.859C-325.451 544.747 -312.402 551.907 -299.323 558.869C-293.651 561.877 -287.967 564.86 -282.402 568.092C-272.159 574.049 -262.628 581.513 -251.285 585.338C-246.26 587.034 -238.189 588.436 -236.496 581.66C-236.027 579.8 -236.164 577.79 -236.506 575.915C-236.951 573.487 -238.224 572.411 -239.826 570.368C-256.901 548.496 -264.138 520.938 -264.179 493.573C-264.219 466.144 -257.647 438.724 -246.835 413.693C-237.808 392.796 -225.531 371.793 -208.217 356.715C-202.154 351.442 -195.093 346.61 -187.123 344.815C-182.757 343.837 -175.564 343.114 -172.927 347.843C-170.37 352.421 -172.507 359.007 -173.929 363.568C-176.642 372.238 -180.556 380.537 -184.393 388.746C-194.623 410.594 -205.454 432.191 -213.532 454.983C-221.687 477.977 -227.82 503.236 -223.771 527.792C-219.029 556.608 -198.29 580.566 -175.514 597.561C-153.205 614.207 -126.154 627.149 -98.6042 631.586C-90.3833 632.909 -62.3346 635.157 -70.8114 618.682C-72.7273 614.953 -75.7269 612.119 -78.4126 608.973C-81.2806 605.624 -83.6637 601.868 -85.7725 598.008C-91.129 588.176 -94.8103 577.449 -97.8614 566.709C-105.151 541.011 -108.828 514.182 -110.433 487.582C-111.741 465.792 -112.491 442.479 -107.136 421.178C-105.883 416.193 -104.012 408.724 -99.0721 406.051C-93.7279 403.144 -88.2005 409.756 -85.4325 413.469C-78.4057 422.876 -75.8925 434.818 -74.9417 446.268C-73.8148 459.715 -74.7002 473.276 -75.7398 486.692C-77.8106 513.405 -82.3457 541.853 -75.6585 568.317C-72.733 579.907 -67.0503 590.095 -57.9345 597.929C-45.45 608.665 -30.0981 617.625 -13.6502 620.042C-4.98753 621.313 7.34198 621.027 12.345 612.426C18.3975 602.036 8.92304 588.874 2.43256 581.216C-10.271 566.21 -19.9829 548.84 -25.1082 529.814C-28.9325 515.615 -30.8602 499.083 -25.4923 485.072C-22.0785 476.159 -13.0972 466.206 -2.93025 471.929C1.79528 474.587 5.50239 479.01 8.73252 483.286C12.9607 488.872 16.585 494.92 20.0075 501.019C28.1584 515.512 35.1779 530.596 42.6195 545.449C46.0667 552.32 49.5733 559.164 53.3623 565.847C56.3883 571.192 59.4583 577.052 63.7126 581.523C79.6076 598.189 108.416 588.726 126.357 581.598C136.761 577.462 146.811 572.474 156.54 566.966C159.474 565.304 162.377 563.6 165.244 561.825C166.109 561.284 167.349 560.774 167.918 559.919C168.748 558.679 169.032 556.568 169.481 555.158C170.677 551.441 171.831 547.689 172.947 543.95C176.547 531.903 179.804 519.738 182.622 507.477C185.942 493.074 188.725 478.486 190.243 463.766C191.545 451.076 192.241 437.8 189.452 425.223C187.62 416.985 184.229 410.733 176.982 406.194C168.773 401.043 158.944 398.536 149.579 396.573C124.224 391.228 98.1665 389.946 72.5102 386.95C60.3672 385.535 48.1556 383.897 36.2735 380.905C27.6514 378.733 18.1314 375.885 11.4349 369.684C6.71266 365.316 3.74064 357.917 6.76381 351.774C9.64357 345.913 17.0839 344.202 22.9983 343.502C32.8351 342.33 42.9885 343.454 52.7476 344.933C65.1285 346.8 77.3629 349.598 89.4765 352.775C114.129 359.249 138.428 367.306 162.2 376.558C170.473 379.776 178.746 383.124 186.771 386.96C192.439 389.681 197.784 393.832 204.149 394.589C211.303 395.441 216.772 391.25 219.399 384.786C224.185 373.025 221.853 358.484 219.418 346.452C217.332 336.177 214.371 326.079 210.978 316.155C209.631 312.2 208.079 308.509 205.537 305.145C201.021 299.19 194.578 295.026 187.806 292.087C169.219 284.012 147.734 282.986 127.818 282.723C101.908 282.379 76.0157 284.359 50.2208 286.429C25.7538 288.39 1.26413 290.755 -23.2992 291.305C-32.9764 291.522 -42.7064 291.472 -52.3486 290.39C-59.2191 289.619 -66.5084 288.431 -72.674 285.078C-77.2583 282.59 -80.7945 278.572 -81.0985 273.188C-81.419 267.478 -77.4077 263.088 -72.9849 260.103C-66.2329 255.547 -58.0709 253.079 -50.2265 251.134C-39.3596 248.429 -28.1987 246.861 -17.0428 245.764C9.5554 243.134 36.4609 243.115 63.1581 244.506C88.2701 245.808 113.565 248.248 138.2 253.592C146.981 255.502 155.853 257.731 164.135 261.329C170.325 264.021 175.679 268.117 182.163 270.188C192.953 273.631 205.95 272.644 213.985 263.968C223.899 253.262 221.697 236.901 217.049 224.275C212.837 212.827 206.262 202.298 199 192.55C188.435 178.386 176.072 165.579 163.082 153.637C150.558 142.11 137.551 131.035 122.783 122.497C111.157 115.771 98.6815 110.54 85.7486 106.968C62.1652 100.447 37.4437 99.5662 13.3026 102.448C-8.26232 105.026 -29.3381 110.548 -49.8859 117.373C-63.8663 122.018 -77.5537 127.994 -91.8036 131.773C-94.1308 132.392 -99.0251 134.129 -101.305 132.425C-103.559 130.733 -101.394 126.399 -100.548 124.551C-89.7637 100.829 -65.9929 88.6962 -41.6508 83.2656C-14.0695 77.108 14.4094 78.0081 42.5149 77.6201C53.8367 77.4643 87.4198 79.0833 81.2633 58.6578C79.6802 53.4267 76.1005 48.8288 72.5075 44.8208C67.2812 38.9867 61.2455 33.8779 55.0143 29.1549L55.0147 29.0901Z"/>
</mask>
<path d="M55.0147 29.0901C38.9095 16.8491 21.1146 6.85219 2.8974 -1.78604C-12.6594 -8.98437 -30.6038 0.418211 -43.6642 8.59103C-64.296 21.4885 -82.5599 38.0558 -100.762 54.0777C-118.891 70.0462 -136.879 86.8134 -157.233 99.9575C-169.316 107.764 -187.552 118.204 -201.119 107.606C-205.269 104.362 -209.968 100.025 -210.741 94.5035C-211.382 89.8997 -208.746 85.8788 -205.645 82.772C-201.158 78.2895 -195.51 75.0141 -189.938 72.0691C-182.552 68.1574 -174.863 64.829 -167.139 61.6356C-148.092 53.7731 -128.711 46.7764 -109.643 38.9634C-90.2593 31.0144 -70.4633 22.6485 -53.011 10.9497C-45.6062 5.97713 -27.3077 -8.19842 -41.9178 -16.2393C-43.0793 -16.8822 -44.3343 -17.3917 -45.5978 -17.7822C-50.8733 -19.4063 -56.4228 -20.4256 -61.8249 -21.5053C-79.4191 -25.043 -97.3514 -27.0425 -115.278 -27.0803C-144.887 -27.1477 -174.373 -21.73 -201.731 -10.5156C-223.987 -1.38495 -244.636 11.445 -262.936 27.0077C-276.483 38.5363 -288.806 51.5315 -299.556 65.705C-304.372 72.0416 -309.115 78.6301 -312.914 85.6517C-318.687 96.3347 -322.163 108.919 -320.056 121.113C-318.08 132.565 -311.497 142.281 -304.131 151.019C-297.692 158.651 -289.31 166.076 -285.584 175.561C-284.362 178.674 -283.354 182.733 -285.424 185.677C-288.379 189.852 -295.249 189.644 -299.782 189.375C-310.488 188.738 -320.92 185.499 -331.625 184.539C-352.994 182.607 -374.514 185.507 -394.689 192.621C-410.684 198.266 -425.101 207.181 -434.949 221.254C-445.386 236.179 -450.622 254.364 -455.905 271.615C-461.576 290.12 -464.43 309.063 -464.332 328.473C-464.173 359.038 -458.054 390.788 -445.593 418.879C-440.4 430.572 -433.234 441.6 -424.332 450.817C-419.941 455.365 -409.047 466.047 -402.47 459.235C-398.774 455.416 -398.704 448.629 -398.739 443.675C-398.795 434.547 -399.014 425.588 -397.957 416.494C-395.81 397.83 -390.148 379.767 -381.918 362.955C-372.522 343.752 -360.056 325.655 -345.729 309.846C-343.145 306.991 -328.608 290.012 -324.422 298.884C-323.471 300.891 -323.367 303.312 -323.391 305.473C-323.444 309.524 -326.443 312.314 -328.564 315.666C-339.25 332.532 -349.19 349.911 -357.718 367.991C-369.393 392.74 -379.033 419.47 -380.52 447.107C-381.509 465.627 -378.247 484.317 -369.233 500.719C-361.513 514.756 -350.115 526.339 -337.359 535.859C-325.451 544.747 -312.402 551.907 -299.323 558.869C-293.651 561.877 -287.967 564.86 -282.402 568.092C-272.159 574.049 -262.628 581.513 -251.285 585.338C-246.26 587.034 -238.189 588.436 -236.496 581.66C-236.027 579.8 -236.164 577.79 -236.506 575.915C-236.951 573.487 -238.224 572.411 -239.826 570.368C-256.901 548.496 -264.138 520.938 -264.179 493.573C-264.219 466.144 -257.647 438.724 -246.835 413.693C-237.808 392.796 -225.531 371.793 -208.217 356.715C-202.154 351.442 -195.093 346.61 -187.123 344.815C-182.757 343.837 -175.564 343.114 -172.927 347.843C-170.37 352.421 -172.507 359.007 -173.929 363.568C-176.642 372.238 -180.556 380.537 -184.393 388.746C-194.623 410.594 -205.454 432.191 -213.532 454.983C-221.687 477.977 -227.82 503.236 -223.771 527.792C-219.029 556.608 -198.29 580.566 -175.514 597.561C-153.205 614.207 -126.154 627.149 -98.6042 631.586C-90.3833 632.909 -62.3346 635.157 -70.8114 618.682C-72.7273 614.953 -75.7269 612.119 -78.4126 608.973C-81.2806 605.624 -83.6637 601.868 -85.7725 598.008C-91.129 588.176 -94.8103 577.449 -97.8614 566.709C-105.151 541.011 -108.828 514.182 -110.433 487.582C-111.741 465.792 -112.491 442.479 -107.136 421.178C-105.883 416.193 -104.012 408.724 -99.0721 406.051C-93.7279 403.144 -88.2005 409.756 -85.4325 413.469C-78.4057 422.876 -75.8925 434.818 -74.9417 446.268C-73.8148 459.715 -74.7002 473.276 -75.7398 486.692C-77.8106 513.405 -82.3457 541.853 -75.6585 568.317C-72.733 579.907 -67.0503 590.095 -57.9345 597.929C-45.45 608.665 -30.0981 617.625 -13.6502 620.042C-4.98753 621.313 7.34198 621.027 12.345 612.426C18.3975 602.036 8.92304 588.874 2.43256 581.216C-10.271 566.21 -19.9829 548.84 -25.1082 529.814C-28.9325 515.615 -30.8602 499.083 -25.4923 485.072C-22.0785 476.159 -13.0972 466.206 -2.93025 471.929C1.79528 474.587 5.50239 479.01 8.73252 483.286C12.9607 488.872 16.585 494.92 20.0075 501.019C28.1584 515.512 35.1779 530.596 42.6195 545.449C46.0667 552.32 49.5733 559.164 53.3623 565.847C56.3883 571.192 59.4583 577.052 63.7126 581.523C79.6076 598.189 108.416 588.726 126.357 581.598C136.761 577.462 146.811 572.474 156.54 566.966C159.474 565.304 162.377 563.6 165.244 561.825C166.109 561.284 167.349 560.774 167.918 559.919C168.748 558.679 169.032 556.568 169.481 555.158C170.677 551.441 171.831 547.689 172.947 543.95C176.547 531.903 179.804 519.738 182.622 507.477C185.942 493.074 188.725 478.486 190.243 463.766C191.545 451.076 192.241 437.8 189.452 425.223C187.62 416.985 184.229 410.733 176.982 406.194C168.773 401.043 158.944 398.536 149.579 396.573C124.224 391.228 98.1665 389.946 72.5102 386.95C60.3672 385.535 48.1556 383.897 36.2735 380.905C27.6514 378.733 18.1314 375.885 11.4349 369.684C6.71266 365.316 3.74064 357.917 6.76381 351.774C9.64357 345.913 17.0839 344.202 22.9983 343.502C32.8351 342.33 42.9885 343.454 52.7476 344.933C65.1285 346.8 77.3629 349.598 89.4765 352.775C114.129 359.249 138.428 367.306 162.2 376.558C170.473 379.776 178.746 383.124 186.771 386.96C192.439 389.681 197.784 393.832 204.149 394.589C211.303 395.441 216.772 391.25 219.399 384.786C224.185 373.025 221.853 358.484 219.418 346.452C217.332 336.177 214.371 326.079 210.978 316.155C209.631 312.2 208.079 308.509 205.537 305.145C201.021 299.19 194.578 295.026 187.806 292.087C169.219 284.012 147.734 282.986 127.818 282.723C101.908 282.379 76.0157 284.359 50.2208 286.429C25.7538 288.39 1.26413 290.755 -23.2992 291.305C-32.9764 291.522 -42.7064 291.472 -52.3486 290.39C-59.2191 289.619 -66.5084 288.431 -72.674 285.078C-77.2583 282.59 -80.7945 278.572 -81.0985 273.188C-81.419 267.478 -77.4077 263.088 -72.9849 260.103C-66.2329 255.547 -58.0709 253.079 -50.2265 251.134C-39.3596 248.429 -28.1987 246.861 -17.0428 245.764C9.5554 243.134 36.4609 243.115 63.1581 244.506C88.2701 245.808 113.565 248.248 138.2 253.592C146.981 255.502 155.853 257.731 164.135 261.329C170.325 264.021 175.679 268.117 182.163 270.188C192.953 273.631 205.95 272.644 213.985 263.968C223.899 253.262 221.697 236.901 217.049 224.275C212.837 212.827 206.262 202.298 199 192.55C188.435 178.386 176.072 165.579 163.082 153.637C150.558 142.11 137.551 131.035 122.783 122.497C111.157 115.771 98.6815 110.54 85.7486 106.968C62.1652 100.447 37.4437 99.5662 13.3026 102.448C-8.26232 105.026 -29.3381 110.548 -49.8859 117.373C-63.8663 122.018 -77.5537 127.994 -91.8036 131.773C-94.1308 132.392 -99.0251 134.129 -101.305 132.425C-103.559 130.733 -101.394 126.399 -100.548 124.551C-89.7637 100.829 -65.9929 88.6962 -41.6508 83.2656C-14.0695 77.108 14.4094 78.0081 42.5149 77.6201C53.8367 77.4643 87.4198 79.0833 81.2633 58.6578C79.6802 53.4267 76.1005 48.8288 72.5075 44.8208C67.2812 38.9867 61.2455 33.8779 55.0143 29.1549L55.0147 29.0901Z" fill="#7B7B1F" stroke="#59590E" stroke-width="10" mask="url(#path-1-inside-1_387_7416)"/>
</svg>
