<svg width="396" height="711" viewBox="0 0 396 711" fill="none" xmlns="http://www.w3.org/2000/svg">
<mask id="path-1-inside-1_387_7407" fill="white">
<path d="M378.666 200.889C372.968 180.708 364.45 161.326 354.726 142.801C346.309 127.129 325.452 123.679 309.435 122.265C284.14 120.022 258.506 122.29 233.267 124.147C208.122 126.005 182.591 128.611 157.372 126.744C142.399 125.64 120.647 122.864 116.027 105.627C114.615 100.354 113.435 93.8333 116.268 88.7885C118.633 84.5846 123.359 82.9108 127.896 82.2829C134.454 81.3851 141.217 82.2103 147.71 83.2606C156.321 84.6469 164.817 86.7039 173.257 88.8945C194.062 94.3068 214.6 100.643 235.391 106.109C256.531 111.66 278.276 117.125 300.17 118.371C309.464 118.892 333.621 118.621 326.523 102.845C325.961 101.588 325.237 100.383 324.432 99.2701C321.063 94.6305 317.086 90.3191 313.269 86.0501C300.851 72.1286 287.184 59.2664 272.286 48.0285C247.683 29.4628 219.728 15.5051 189.894 7.66611C165.62 1.29567 140.353 -1.01469 115.321 0.401096C96.7857 1.45589 78.3463 4.48773 60.4734 9.47575C52.4745 11.6994 44.3784 14.1772 36.7944 17.6024C25.2628 22.8189 14.4458 31.0418 8.52132 42.4318C2.95518 53.1274 2.317 65.2701 2.94632 77.0928C3.50056 87.4226 5.80226 98.7962 2.93109 108.962C1.98816 112.296 0.270831 116.28 -3.30553 117.417C-8.39319 119.019 -13.9817 114.553 -17.5854 111.497C-26.096 104.278 -32.74 95.0805 -41.0455 87.5958C-57.6166 72.6403 -77.3555 61.5828 -98.6278 54.8473C-115.496 49.5118 -133.11 47.8632 -150.169 53.332C-168.254 59.1372 -184.062 70.8855 -199.322 81.8343C-215.695 93.5754 -229.998 107.44 -242.138 123.536C-261.251 148.885 -276.149 178.938 -283.465 209.934C-286.506 222.839 -287.485 236.429 -285.878 249.609C-285.087 256.111 -282.745 271.746 -272.981 270.23C-267.5 269.386 -263.168 263.822 -260.078 259.708C-254.377 252.133 -248.918 244.594 -242.312 237.743C-228.773 223.667 -212.687 212.285 -195.251 203.542C-175.338 193.553 -153.567 186.396 -131.686 182.293C-127.739 181.55 -104.947 176.611 -107.049 186.557C-107.521 188.809 -108.959 190.875 -110.339 192.645C-112.935 195.959 -117.188 196.388 -121.064 197.831C-140.578 205.083 -159.795 213.226 -178.278 222.83C-203.58 235.977 -228.435 252.032 -247.074 273.933C-259.559 288.613 -268.612 306.093 -271.436 325.277C-273.849 341.699 -271.655 358.394 -267.031 374.232C-262.716 389.019 -256.363 403.092 -249.86 417.019C-247.033 423.049 -244.179 429.067 -241.583 435.216C-236.807 446.54 -233.574 458.665 -226.54 468.915C-223.426 473.458 -217.591 479.661 -211.915 475.123C-210.353 473.879 -209.202 472.133 -208.306 470.37C-207.148 468.087 -207.529 466.401 -207.576 463.713C-208.017 434.97 -196.689 407.681 -179.492 385.049C-162.255 362.365 -139.519 343.823 -114.758 329.903C-94.0857 318.284 -70.6424 308.608 -46.7368 306.977C-38.3692 306.411 -29.4497 306.834 -21.6849 310.333C-17.435 312.255 -10.9925 316.154 -11.7755 321.709C-12.5294 327.089 -18.4553 331.194 -22.5108 334.073C-30.2283 339.539 -38.7119 343.948 -47.0742 348.331C-69.3464 359.983 -91.9606 371.054 -113.037 384.832C-134.302 398.729 -155.312 415.76 -167.404 438.578C-181.602 465.347 -179.424 498.103 -171.167 526.381C-163.078 554.078 -148.711 581.681 -128.573 602.569C-122.563 608.801 -100.632 628.193 -97.3134 609.283C-96.5601 605.005 -97.2727 600.789 -97.5275 596.512C-97.8056 591.952 -97.4246 587.36 -96.7491 582.852C-95.0173 571.382 -91.3269 560.219 -87.1038 549.439C-76.991 523.653 -63.1583 499.191 -47.7451 476.215C-35.1132 457.396 -21.0584 437.669 -3.18882 423.42C0.993409 420.086 7.25327 415.084 13.0486 415.964C19.3272 416.904 19.765 425.822 19.7309 430.62C19.657 442.783 14.2293 454.219 7.81106 464.272C0.281767 476.086 -8.99361 486.734 -18.3065 497.167C-36.8504 517.94 -58.5382 538.606 -69.6355 564.648C-74.4982 576.051 -76.1826 588.019 -73.5281 600.19C-69.8958 616.863 -62.7596 633.863 -50.5901 646.141C-44.1802 652.608 -33.7373 660.079 -24.157 656.101C-12.577 651.302 -12.1753 634.506 -12.7557 624.122C-13.8817 603.784 -11.028 583.363 -3.3143 564.442C2.44321 550.322 11.2478 535.46 24.538 527.242C32.9917 522.013 46.7348 519.405 51.594 530.489C53.8539 535.639 54.1543 541.61 54.151 547.161C54.1528 554.42 53.3616 561.681 52.3698 568.86C50.0292 585.927 46.3743 602.776 43.2156 619.699C41.7585 627.53 40.3684 635.375 39.3138 643.265C38.4675 649.572 37.3332 656.332 38.0589 662.685C40.7954 686.39 70.7337 696.582 90.1556 701.91C101.42 704.996 112.925 707.159 124.492 708.69C127.981 709.151 131.471 709.559 134.974 709.885C136.035 709.979 137.388 710.333 138.401 709.983C139.872 709.477 141.438 707.911 142.699 707.026C146.035 704.703 149.358 702.326 152.642 699.935C163.224 692.233 173.594 684.22 183.661 675.853C195.493 666.03 206.995 655.719 217.527 644.508C226.602 634.839 235.54 624.307 241.138 612.173C244.801 604.222 245.915 596.938 242.74 588.658C239.15 579.271 232.547 571.055 225.989 563.579C208.249 543.313 187.367 525.964 167.897 507.45C158.68 498.69 149.547 489.703 141.541 479.803C135.732 472.619 129.601 464.315 127.931 455.006C126.751 448.445 128.936 440.475 135.32 437.29C141.408 434.249 148.678 437.487 154.042 440.606C162.968 445.787 170.712 453.063 177.904 460.386C187.034 469.668 195.456 479.628 203.539 489.825C219.982 510.585 235.135 532.432 249.096 554.935C253.957 562.765 258.735 570.703 262.999 578.889C266.004 584.68 267.84 591.45 272.66 596.055C278.078 601.231 285.27 601.188 291.527 597.491C302.916 590.767 310.131 577.297 315.68 565.835C320.414 556.043 324.307 545.85 327.732 535.53C329.101 531.421 330.133 527.402 330.135 523.034C330.126 515.292 327.385 507.824 323.598 501.163C313.212 482.872 295.974 468.593 279.562 455.925C258.212 439.443 235.413 424.893 212.638 410.477C191.038 396.801 169.164 383.445 148.372 368.543C140.18 362.673 132.113 356.549 124.768 349.628C119.534 344.695 114.215 339.157 111.194 332.533C108.945 327.611 108.531 322.082 111.668 317.444C114.997 312.527 121.1 311.408 126.661 311.707C135.15 312.165 143.498 315.228 151.252 318.525C162.001 323.084 172.278 328.766 182.255 334.834C206.05 349.289 228.458 366.093 249.804 383.932C269.887 400.707 289.406 418.536 306.547 438.351C312.653 445.418 318.635 452.806 323.263 460.956C326.72 467.048 328.597 473.779 332.691 479.544C339.504 489.133 350.944 496.443 363.095 494.299C378.089 491.653 386.558 476.761 390.638 463.425C394.341 451.335 395.498 438.527 395.591 425.934C395.716 407.628 393.489 389.32 390.196 371.334C387.029 353.982 383.176 336.701 376.259 320.417C370.817 307.592 363.727 295.472 355.211 284.436C339.687 264.306 319.663 248.124 297.755 235.412C278.181 224.061 257.161 215.447 235.76 208.24C221.198 203.337 206.042 199.717 191.801 193.931C189.474 192.987 184.307 191.362 183.483 188.529C182.672 185.723 187.203 183.496 189.07 182.498C212.984 169.643 240.41 174.481 264.091 185.212C290.926 197.368 314.065 215.915 337.703 233.165C347.225 240.114 374.16 262.446 381.897 241.724C383.873 236.413 383.788 230.376 383.321 224.819C382.644 216.733 380.837 208.739 378.624 200.942L378.666 200.889Z"/>
</mask>
<path d="M378.666 200.889C372.968 180.708 364.45 161.326 354.726 142.801C346.309 127.129 325.452 123.679 309.435 122.265C284.14 120.022 258.506 122.29 233.267 124.147C208.122 126.005 182.591 128.611 157.372 126.744C142.399 125.64 120.647 122.864 116.027 105.627C114.615 100.354 113.435 93.8333 116.268 88.7885C118.633 84.5846 123.359 82.9108 127.896 82.2829C134.454 81.3851 141.217 82.2103 147.71 83.2606C156.321 84.6469 164.817 86.7039 173.257 88.8945C194.062 94.3068 214.6 100.643 235.391 106.109C256.531 111.66 278.276 117.125 300.17 118.371C309.464 118.892 333.621 118.621 326.523 102.845C325.961 101.588 325.237 100.383 324.432 99.2701C321.063 94.6305 317.086 90.3191 313.269 86.0501C300.851 72.1286 287.184 59.2664 272.286 48.0285C247.683 29.4628 219.728 15.5051 189.894 7.66611C165.62 1.29567 140.353 -1.01469 115.321 0.401096C96.7857 1.45589 78.3463 4.48773 60.4734 9.47575C52.4745 11.6994 44.3784 14.1772 36.7944 17.6024C25.2628 22.8189 14.4458 31.0418 8.52132 42.4318C2.95518 53.1274 2.317 65.2701 2.94632 77.0928C3.50056 87.4226 5.80226 98.7962 2.93109 108.962C1.98816 112.296 0.270831 116.28 -3.30553 117.417C-8.39319 119.019 -13.9817 114.553 -17.5854 111.497C-26.096 104.278 -32.74 95.0805 -41.0455 87.5958C-57.6166 72.6403 -77.3555 61.5828 -98.6278 54.8473C-115.496 49.5118 -133.11 47.8632 -150.169 53.332C-168.254 59.1372 -184.062 70.8855 -199.322 81.8343C-215.695 93.5754 -229.998 107.44 -242.138 123.536C-261.251 148.885 -276.149 178.938 -283.465 209.934C-286.506 222.839 -287.485 236.429 -285.878 249.609C-285.087 256.111 -282.745 271.746 -272.981 270.23C-267.5 269.386 -263.168 263.822 -260.078 259.708C-254.377 252.133 -248.918 244.594 -242.312 237.743C-228.773 223.667 -212.687 212.285 -195.251 203.542C-175.338 193.553 -153.567 186.396 -131.686 182.293C-127.739 181.55 -104.947 176.611 -107.049 186.557C-107.521 188.809 -108.959 190.875 -110.339 192.645C-112.935 195.959 -117.188 196.388 -121.064 197.831C-140.578 205.083 -159.795 213.226 -178.278 222.83C-203.58 235.977 -228.435 252.032 -247.074 273.933C-259.559 288.613 -268.612 306.093 -271.436 325.277C-273.849 341.699 -271.655 358.394 -267.031 374.232C-262.716 389.019 -256.363 403.092 -249.86 417.019C-247.033 423.049 -244.179 429.067 -241.583 435.216C-236.807 446.54 -233.574 458.665 -226.54 468.915C-223.426 473.458 -217.591 479.661 -211.915 475.123C-210.353 473.879 -209.202 472.133 -208.306 470.37C-207.148 468.087 -207.529 466.401 -207.576 463.713C-208.017 434.97 -196.689 407.681 -179.492 385.049C-162.255 362.365 -139.519 343.823 -114.758 329.903C-94.0857 318.284 -70.6424 308.608 -46.7368 306.977C-38.3692 306.411 -29.4497 306.834 -21.6849 310.333C-17.435 312.255 -10.9925 316.154 -11.7755 321.709C-12.5294 327.089 -18.4553 331.194 -22.5108 334.073C-30.2283 339.539 -38.7119 343.948 -47.0742 348.331C-69.3464 359.983 -91.9606 371.054 -113.037 384.832C-134.302 398.729 -155.312 415.76 -167.404 438.578C-181.602 465.347 -179.424 498.103 -171.167 526.381C-163.078 554.078 -148.711 581.681 -128.573 602.569C-122.563 608.801 -100.632 628.193 -97.3134 609.283C-96.5601 605.005 -97.2727 600.789 -97.5275 596.512C-97.8056 591.952 -97.4246 587.36 -96.7491 582.852C-95.0173 571.382 -91.3269 560.219 -87.1038 549.439C-76.991 523.653 -63.1583 499.191 -47.7451 476.215C-35.1132 457.396 -21.0584 437.669 -3.18882 423.42C0.993409 420.086 7.25327 415.084 13.0486 415.964C19.3272 416.904 19.765 425.822 19.7309 430.62C19.657 442.783 14.2293 454.219 7.81106 464.272C0.281767 476.086 -8.99361 486.734 -18.3065 497.167C-36.8504 517.94 -58.5382 538.606 -69.6355 564.648C-74.4982 576.051 -76.1826 588.019 -73.5281 600.19C-69.8958 616.863 -62.7596 633.863 -50.5901 646.141C-44.1802 652.608 -33.7373 660.079 -24.157 656.101C-12.577 651.302 -12.1753 634.506 -12.7557 624.122C-13.8817 603.784 -11.028 583.363 -3.3143 564.442C2.44321 550.322 11.2478 535.46 24.538 527.242C32.9917 522.013 46.7348 519.405 51.594 530.489C53.8539 535.639 54.1543 541.61 54.151 547.161C54.1528 554.42 53.3616 561.681 52.3698 568.86C50.0292 585.927 46.3743 602.776 43.2156 619.699C41.7585 627.53 40.3684 635.375 39.3138 643.265C38.4675 649.572 37.3332 656.332 38.0589 662.685C40.7954 686.39 70.7337 696.582 90.1556 701.91C101.42 704.996 112.925 707.159 124.492 708.69C127.981 709.151 131.471 709.559 134.974 709.885C136.035 709.979 137.388 710.333 138.401 709.983C139.872 709.477 141.438 707.911 142.699 707.026C146.035 704.703 149.358 702.326 152.642 699.935C163.224 692.233 173.594 684.22 183.661 675.853C195.493 666.03 206.995 655.719 217.527 644.508C226.602 634.839 235.54 624.307 241.138 612.173C244.801 604.222 245.915 596.938 242.74 588.658C239.15 579.271 232.547 571.055 225.989 563.579C208.249 543.313 187.367 525.964 167.897 507.45C158.68 498.69 149.547 489.703 141.541 479.803C135.732 472.619 129.601 464.315 127.931 455.006C126.751 448.445 128.936 440.475 135.32 437.29C141.408 434.249 148.678 437.487 154.042 440.606C162.968 445.787 170.712 453.063 177.904 460.386C187.034 469.668 195.456 479.628 203.539 489.825C219.982 510.585 235.135 532.432 249.096 554.935C253.957 562.765 258.735 570.703 262.999 578.889C266.004 584.68 267.84 591.45 272.66 596.055C278.078 601.231 285.27 601.188 291.527 597.491C302.916 590.767 310.131 577.297 315.68 565.835C320.414 556.043 324.307 545.85 327.732 535.53C329.101 531.421 330.133 527.402 330.135 523.034C330.126 515.292 327.385 507.824 323.598 501.163C313.212 482.872 295.974 468.593 279.562 455.925C258.212 439.443 235.413 424.893 212.638 410.477C191.038 396.801 169.164 383.445 148.372 368.543C140.18 362.673 132.113 356.549 124.768 349.628C119.534 344.695 114.215 339.157 111.194 332.533C108.945 327.611 108.531 322.082 111.668 317.444C114.997 312.527 121.1 311.408 126.661 311.707C135.15 312.165 143.498 315.228 151.252 318.525C162.001 323.084 172.278 328.766 182.255 334.834C206.05 349.289 228.458 366.093 249.804 383.932C269.887 400.707 289.406 418.536 306.547 438.351C312.653 445.418 318.635 452.806 323.263 460.956C326.72 467.048 328.597 473.779 332.691 479.544C339.504 489.133 350.944 496.443 363.095 494.299C378.089 491.653 386.558 476.761 390.638 463.425C394.341 451.335 395.498 438.527 395.591 425.934C395.716 407.628 393.489 389.32 390.196 371.334C387.029 353.982 383.176 336.701 376.259 320.417C370.817 307.592 363.727 295.472 355.211 284.436C339.687 264.306 319.663 248.124 297.755 235.412C278.181 224.061 257.161 215.447 235.76 208.24C221.198 203.337 206.042 199.717 191.801 193.931C189.474 192.987 184.307 191.362 183.483 188.529C182.672 185.723 187.203 183.496 189.07 182.498C212.984 169.643 240.41 174.481 264.091 185.212C290.926 197.368 314.065 215.915 337.703 233.165C347.225 240.114 374.16 262.446 381.897 241.724C383.873 236.413 383.788 230.376 383.321 224.819C382.644 216.733 380.837 208.739 378.624 200.942L378.666 200.889Z" fill="#59590E" stroke="#4C4C0F" stroke-width="10" mask="url(#path-1-inside-1_387_7407)"/>
</svg>
