<svg width="427" height="454" viewBox="0 0 427 454" fill="none" xmlns="http://www.w3.org/2000/svg">
<mask id="path-1-inside-1_387_7398" fill="white">
<path d="M335.504 -96.9833C324.084 -113.865 310.305 -129.149 295.674 -143.273C283.122 -155.164 262.822 -151.978 247.61 -148.391C223.584 -142.736 200.623 -132.814 177.9 -123.393C155.265 -114 132.502 -103.798 108.661 -97.8184C94.5074 -94.2648 73.587 -90.1836 64.0602 -104.678C61.1472 -109.113 58.0664 -114.769 59.1399 -120.289C60.0387 -124.891 63.8882 -127.879 67.8835 -129.844C73.6601 -132.675 80.1535 -133.979 86.4649 -134.993C94.8347 -136.343 103.302 -137.04 111.759 -137.596C132.61 -138.955 153.497 -139.381 174.352 -140.687C195.554 -142.02 217.288 -143.619 237.871 -149.155C246.607 -151.513 268.815 -159.14 257.448 -171.53C256.545 -172.518 255.509 -173.409 254.426 -174.19C249.901 -177.442 244.914 -180.206 240.088 -182.98C224.378 -192.034 207.838 -199.728 190.659 -205.548C162.286 -215.166 132.228 -219.509 102.305 -217.631C77.96 -216.096 53.9392 -210.512 31.2732 -201.56C14.4918 -194.927 -1.59745 -186.498 -16.5665 -176.437C-23.2684 -171.942 -29.9824 -167.183 -35.9346 -161.706C-44.9823 -153.371 -52.4526 -142.48 -54.4409 -130.16C-56.3108 -118.591 -53.1913 -107.191 -49 -96.4738C-45.3339 -87.1112 -39.7366 -77.3191 -39.2815 -67.0621C-39.1331 -63.6969 -39.5012 -59.4965 -42.454 -57.3547C-46.6594 -54.3227 -53.1802 -56.7373 -57.439 -58.4572C-67.4968 -62.5191 -76.4364 -68.9771 -86.3863 -73.3472C-106.245 -82.0868 -127.836 -86.262 -149.522 -85.9808C-166.717 -85.7527 -183.473 -81.8948 -197.545 -71.6386C-212.46 -60.7587 -223.459 -45.0902 -234.197 -30.3266C-245.719 -14.4923 -254.683 2.669 -260.97 21.2293C-270.865 50.4573 -275.434 82.7391 -272.719 113.575C-271.584 126.412 -268.337 139.252 -262.829 150.922C-260.114 156.681 -253.178 170.393 -244.631 166.012C-239.831 163.559 -237.533 157.103 -235.938 152.363C-232.991 143.631 -230.256 135.008 -226.253 126.668C-218.058 109.545 -206.69 94.1297 -193.271 80.7363C-177.947 65.4377 -160.043 52.1853 -141.106 41.7163C-137.69 39.8252 -118.167 28.3072 -117.069 38.1276C-116.817 40.3499 -117.513 42.6946 -118.246 44.7494C-119.629 48.6001 -123.422 50.2955 -126.558 52.8105C-142.351 65.4621 -157.596 78.8449 -171.718 93.3516C-191.051 113.21 -209.083 135.616 -219.593 161.517C-226.631 178.876 -229.647 197.77 -226.394 216.336C-223.606 232.226 -216.483 246.961 -207.379 260.164C-198.881 272.49 -188.721 283.536 -178.467 294.401C-174.017 299.103 -169.546 303.784 -165.272 308.665C-157.407 317.656 -150.72 327.857 -141.099 335.168C-136.838 338.408 -129.559 342.35 -125.708 336.429C-124.647 334.805 -124.117 332.842 -123.829 330.941C-123.458 328.48 -124.325 327.042 -125.189 324.575C-134.374 298.187 -132.255 269.546 -123.298 243.411C-114.32 217.215 -99.0025 193.161 -80.4053 172.755C-64.8783 155.72 -46.2006 139.633 -24.6398 130.826C-17.0914 127.749 -8.73178 125.415 -0.498055 126.272C4.01058 126.748 11.1462 128.379 12.1201 133.744C13.0676 138.939 8.85301 144.536 5.98991 148.431C0.53802 155.832 -5.944 162.491 -12.3218 169.089C-29.315 186.644 -46.8016 203.765 -62.0419 222.916C-77.421 242.233 -91.6066 264.366 -95.7956 289.113C-100.722 318.151 -88.7083 347.712 -72.4538 371.284C-56.5309 394.372 -34.8438 415.454 -9.88197 428.579C-2.4332 432.494 23.7264 443.691 21.0135 425.228C20.4021 421.05 18.4569 417.378 16.9155 413.508C15.2662 409.385 14.2154 405.032 13.4622 400.666C11.5573 389.553 11.5534 378.125 12.1582 366.888C13.6149 340.006 18.9086 313.209 26.1143 287.3C32.0234 266.077 38.9678 243.581 51.1055 224.975C53.9465 220.622 58.1955 214.095 63.812 213.137C69.8927 212.087 73.0199 220.182 74.4537 224.62C78.1001 235.866 76.5844 248.077 73.7321 259.314C70.3921 272.514 65.0852 285.172 59.6778 297.643C48.9102 322.475 35.2089 348.168 32.922 375.588C31.9174 387.595 34.0181 399.153 40.1846 409.574C48.6281 423.849 60.4048 437.356 75.3841 444.97C83.2735 448.979 95.1916 452.684 102.817 446.088C112.037 438.123 107.278 422.501 103.571 413.097C96.3213 394.674 92.7181 374.959 94.0575 355.144C95.0579 340.355 98.6438 323.953 108.398 312.31C114.601 304.904 126.487 298.301 134.355 307.044C138.013 311.106 140.114 316.525 141.807 321.648C144.025 328.345 145.512 335.287 146.79 342.214C149.842 358.678 151.615 375.342 153.868 391.922C154.915 399.593 156.029 407.257 157.465 414.859C158.61 420.937 159.628 427.522 162.238 433.163C172.002 454.201 202.741 454.463 222.29 453.447C233.627 452.856 244.904 451.337 256.045 449.218C259.405 448.578 262.749 447.888 266.082 447.12C267.09 446.882 268.446 446.795 269.274 446.163C270.477 445.247 271.443 443.324 272.337 442.122C274.706 438.96 277.047 435.751 279.346 432.542C286.758 422.204 293.881 411.642 300.614 400.847C308.533 388.17 315.997 375.142 322.293 361.581C327.713 349.887 332.744 337.439 334.204 324.533C335.156 316.078 333.96 309.016 328.502 302.345C322.322 294.779 313.72 289.215 305.385 284.319C282.826 271.036 258.259 261.405 234.639 250.267C223.459 244.998 212.287 239.494 201.875 232.804C194.321 227.949 186.127 222.159 181.744 214.078C178.651 208.385 178.233 200.364 183.152 195.475C187.84 190.81 195.538 191.577 201.44 192.817C211.259 194.871 220.627 199.22 229.5 203.781C240.759 209.559 251.572 216.177 262.145 223.118C283.658 237.253 304.312 252.784 324.068 269.285C330.944 275.027 337.777 280.892 344.212 287.143C348.753 291.569 352.515 297.256 358.37 300.033C364.95 303.155 371.573 300.919 376.217 295.596C384.674 285.914 387.217 271.28 388.837 259.009C390.215 248.527 390.695 237.933 390.703 227.365C390.712 223.155 390.437 219.131 389.105 215.1C386.732 207.958 381.922 201.904 376.393 196.914C361.224 183.208 340.956 175.297 321.943 168.619C297.209 159.931 271.727 153.467 246.309 147.12C222.2 141.097 197.937 135.453 174.2 128.052C164.849 125.137 155.534 121.95 146.642 117.806C140.307 114.853 133.707 111.367 128.897 106.177C125.318 102.323 123.248 97.3466 124.726 92.1091C126.296 86.5549 131.586 83.6588 136.809 82.2366C144.782 80.0661 153.421 80.3431 161.583 81.0179C172.893 81.9419 184.112 84.0461 195.172 86.5983C221.544 92.6706 247.352 101.333 272.498 111.275C296.152 120.621 319.608 131.112 341.476 144.161C349.269 148.817 357.045 153.808 363.805 159.916C368.856 164.482 372.643 170.119 378.181 174.189C387.397 180.956 400.185 184.208 410.743 178.518C423.77 171.498 427.037 155.169 426.73 141.618C426.454 129.331 423.61 117.158 419.85 105.51C414.375 88.5801 406.729 72.3663 398.198 56.7754C389.976 41.7304 381.143 26.9614 369.788 14.0472C360.849 3.87498 350.605 -5.14328 339.377 -12.726C318.904 -26.5606 295.485 -35.3778 271.387 -40.4166C249.858 -44.9131 227.831 -46.4424 205.882 -46.5576C190.948 -46.6347 175.857 -45.3466 160.949 -46.3364C158.514 -46.4965 153.249 -46.4176 151.623 -48.7802C150.018 -51.1218 153.519 -54.5609 154.937 -56.052C173.078 -75.2172 199.863 -79.1287 224.992 -76.4585C253.467 -73.437 280.482 -63.389 307.563 -54.6909C318.472 -51.1865 350.146 -38.8052 350.957 -60.2893C351.158 -65.7936 349.237 -71.3376 347.109 -76.3229C344.015 -83.5783 339.906 -90.4025 335.483 -96.9216L335.504 -96.9833Z"/>
</mask>
<path d="M335.504 -96.9833C324.084 -113.865 310.305 -129.149 295.674 -143.273C283.122 -155.164 262.822 -151.978 247.61 -148.391C223.584 -142.736 200.623 -132.814 177.9 -123.393C155.265 -114 132.502 -103.798 108.661 -97.8184C94.5074 -94.2648 73.587 -90.1836 64.0602 -104.678C61.1472 -109.113 58.0664 -114.769 59.1399 -120.289C60.0387 -124.891 63.8882 -127.879 67.8835 -129.844C73.6601 -132.675 80.1535 -133.979 86.4649 -134.993C94.8347 -136.343 103.302 -137.04 111.759 -137.596C132.61 -138.955 153.497 -139.381 174.352 -140.687C195.554 -142.02 217.288 -143.619 237.871 -149.155C246.607 -151.513 268.815 -159.14 257.448 -171.53C256.545 -172.518 255.509 -173.409 254.426 -174.19C249.901 -177.442 244.914 -180.206 240.088 -182.98C224.378 -192.034 207.838 -199.728 190.659 -205.548C162.286 -215.166 132.228 -219.509 102.305 -217.631C77.96 -216.096 53.9392 -210.512 31.2732 -201.56C14.4918 -194.927 -1.59745 -186.498 -16.5665 -176.437C-23.2684 -171.942 -29.9824 -167.183 -35.9346 -161.706C-44.9823 -153.371 -52.4526 -142.48 -54.4409 -130.16C-56.3108 -118.591 -53.1913 -107.191 -49 -96.4738C-45.3339 -87.1112 -39.7366 -77.3191 -39.2815 -67.0621C-39.1331 -63.6969 -39.5012 -59.4965 -42.454 -57.3547C-46.6594 -54.3227 -53.1802 -56.7373 -57.439 -58.4572C-67.4968 -62.5191 -76.4364 -68.9771 -86.3863 -73.3472C-106.245 -82.0868 -127.836 -86.262 -149.522 -85.9808C-166.717 -85.7527 -183.473 -81.8948 -197.545 -71.6386C-212.46 -60.7587 -223.459 -45.0902 -234.197 -30.3266C-245.719 -14.4923 -254.683 2.669 -260.97 21.2293C-270.865 50.4573 -275.434 82.7391 -272.719 113.575C-271.584 126.412 -268.337 139.252 -262.829 150.922C-260.114 156.681 -253.178 170.393 -244.631 166.012C-239.831 163.559 -237.533 157.103 -235.938 152.363C-232.991 143.631 -230.256 135.008 -226.253 126.668C-218.058 109.545 -206.69 94.1297 -193.271 80.7363C-177.947 65.4377 -160.043 52.1853 -141.106 41.7163C-137.69 39.8252 -118.167 28.3072 -117.069 38.1276C-116.817 40.3499 -117.513 42.6946 -118.246 44.7494C-119.629 48.6001 -123.422 50.2955 -126.558 52.8105C-142.351 65.4621 -157.596 78.8449 -171.718 93.3516C-191.051 113.21 -209.083 135.616 -219.593 161.517C-226.631 178.876 -229.647 197.77 -226.394 216.336C-223.606 232.226 -216.483 246.961 -207.379 260.164C-198.881 272.49 -188.721 283.536 -178.467 294.401C-174.017 299.103 -169.546 303.784 -165.272 308.665C-157.407 317.656 -150.72 327.857 -141.099 335.168C-136.838 338.408 -129.559 342.35 -125.708 336.429C-124.647 334.805 -124.117 332.842 -123.829 330.941C-123.458 328.48 -124.325 327.042 -125.189 324.575C-134.374 298.187 -132.255 269.546 -123.298 243.411C-114.32 217.215 -99.0025 193.161 -80.4053 172.755C-64.8783 155.72 -46.2006 139.633 -24.6398 130.826C-17.0914 127.749 -8.73178 125.415 -0.498055 126.272C4.01058 126.748 11.1462 128.379 12.1201 133.744C13.0676 138.939 8.85301 144.536 5.98991 148.431C0.53802 155.832 -5.944 162.491 -12.3218 169.089C-29.315 186.644 -46.8016 203.765 -62.0419 222.916C-77.421 242.233 -91.6066 264.366 -95.7956 289.113C-100.722 318.151 -88.7083 347.712 -72.4538 371.284C-56.5309 394.372 -34.8438 415.454 -9.88197 428.579C-2.4332 432.494 23.7264 443.691 21.0135 425.228C20.4021 421.05 18.4569 417.378 16.9155 413.508C15.2662 409.385 14.2154 405.032 13.4622 400.666C11.5573 389.553 11.5534 378.125 12.1582 366.888C13.6149 340.006 18.9086 313.209 26.1143 287.3C32.0234 266.077 38.9678 243.581 51.1055 224.975C53.9465 220.622 58.1955 214.095 63.812 213.137C69.8927 212.087 73.0199 220.182 74.4537 224.62C78.1001 235.866 76.5844 248.077 73.7321 259.314C70.3921 272.514 65.0852 285.172 59.6778 297.643C48.9102 322.475 35.2089 348.168 32.922 375.588C31.9174 387.595 34.0181 399.153 40.1846 409.574C48.6281 423.849 60.4048 437.356 75.3841 444.97C83.2735 448.979 95.1916 452.684 102.817 446.088C112.037 438.123 107.278 422.501 103.571 413.097C96.3213 394.674 92.7181 374.959 94.0575 355.144C95.0579 340.355 98.6438 323.953 108.398 312.31C114.601 304.904 126.487 298.301 134.355 307.044C138.013 311.106 140.114 316.525 141.807 321.648C144.025 328.345 145.512 335.287 146.79 342.214C149.842 358.678 151.615 375.342 153.868 391.922C154.915 399.593 156.029 407.257 157.465 414.859C158.61 420.937 159.628 427.522 162.238 433.163C172.002 454.201 202.741 454.463 222.29 453.447C233.627 452.856 244.904 451.337 256.045 449.218C259.405 448.578 262.749 447.888 266.082 447.12C267.09 446.882 268.446 446.795 269.274 446.163C270.477 445.247 271.443 443.324 272.337 442.122C274.706 438.96 277.047 435.751 279.346 432.542C286.758 422.204 293.881 411.642 300.614 400.847C308.533 388.17 315.997 375.142 322.293 361.581C327.713 349.887 332.744 337.439 334.204 324.533C335.156 316.078 333.96 309.016 328.502 302.345C322.322 294.779 313.72 289.215 305.385 284.319C282.826 271.036 258.259 261.405 234.639 250.267C223.459 244.998 212.287 239.494 201.875 232.804C194.321 227.949 186.127 222.159 181.744 214.078C178.651 208.385 178.233 200.364 183.152 195.475C187.84 190.81 195.538 191.577 201.44 192.817C211.259 194.871 220.627 199.22 229.5 203.781C240.759 209.559 251.572 216.177 262.145 223.118C283.658 237.253 304.312 252.784 324.068 269.285C330.944 275.027 337.777 280.892 344.212 287.143C348.753 291.569 352.515 297.256 358.37 300.033C364.95 303.155 371.573 300.919 376.217 295.596C384.674 285.914 387.217 271.28 388.837 259.009C390.215 248.527 390.695 237.933 390.703 227.365C390.712 223.155 390.437 219.131 389.105 215.1C386.732 207.958 381.922 201.904 376.393 196.914C361.224 183.208 340.956 175.297 321.943 168.619C297.209 159.931 271.727 153.467 246.309 147.12C222.2 141.097 197.937 135.453 174.2 128.052C164.849 125.137 155.534 121.95 146.642 117.806C140.307 114.853 133.707 111.367 128.897 106.177C125.318 102.323 123.248 97.3466 124.726 92.1091C126.296 86.5549 131.586 83.6588 136.809 82.2366C144.782 80.0661 153.421 80.3431 161.583 81.0179C172.893 81.9419 184.112 84.0461 195.172 86.5983C221.544 92.6706 247.352 101.333 272.498 111.275C296.152 120.621 319.608 131.112 341.476 144.161C349.269 148.817 357.045 153.808 363.805 159.916C368.856 164.482 372.643 170.119 378.181 174.189C387.397 180.956 400.185 184.208 410.743 178.518C423.77 171.498 427.037 155.169 426.73 141.618C426.454 129.331 423.61 117.158 419.85 105.51C414.375 88.5801 406.729 72.3663 398.198 56.7754C389.976 41.7304 381.143 26.9614 369.788 14.0472C360.849 3.87498 350.605 -5.14328 339.377 -12.726C318.904 -26.5606 295.485 -35.3778 271.387 -40.4166C249.858 -44.9131 227.831 -46.4424 205.882 -46.5576C190.948 -46.6347 175.857 -45.3466 160.949 -46.3364C158.514 -46.4965 153.249 -46.4176 151.623 -48.7802C150.018 -51.1218 153.519 -54.5609 154.937 -56.052C173.078 -75.2172 199.863 -79.1287 224.992 -76.4585C253.467 -73.437 280.482 -63.389 307.563 -54.6909C318.472 -51.1865 350.146 -38.8052 350.957 -60.2893C351.158 -65.7936 349.237 -71.3376 347.109 -76.3229C344.015 -83.5783 339.906 -90.4025 335.483 -96.9216L335.504 -96.9833Z" fill="#4C4C0F" stroke="#46460C" stroke-width="10" mask="url(#path-1-inside-1_387_7398)"/>
</svg>
