<?xml version="1.0" encoding="UTF-8"?>
<svg id="Layer_2" data-name="Layer 2" xmlns="http://www.w3.org/2000/svg" viewBox="0 0 385.24 359.51">
  <defs>
    <style>
      .cls-1 {
        fill: #64848c;
      }

      .cls-2 {
        fill: #a0a041;
      }

      .cls-3 {
        fill: #765345;
      }

      .cls-4 {
        fill: #acac59;
      }

      .cls-5 {
        fill: #a9c3ca;
      }
    </style>
  </defs>
  <g id="Layer_1-2" data-name="Layer 1">
    <rect class="cls-3" x="9.51" y="8.39" width="365.43" height="345.13" rx="20.51" ry="20.51"/>
    <g>
      <g>
        <path class="cls-5" d="M.76,144.86c-.36-8.68.49-17.07,1.75-25.42,1.59-10.55,7.89-13.59,18.27-8.6,10.71,5.15,19.87,12.66,31.16,17,6.17,2.37,12.31,4.59,19.07,4.8,2.48.08,5.72.77,6.78-2.08.83-2.23-1.41-3.91-3.19-5.19-3.39-2.44-7.12-4.5-10.47-6.99-12.98-9.65-26.3-19.14-33.26-33.63-2.88-5.99-5.09-12.34-6.72-18.72-2.63-10.35-6.82-19.91-12.53-29.23C.79,19.09,6.28,8.52,28.34,4.49c14.69-2.69,29.7-3.75,44.74-2.62,10.93.82,21.84,1.83,32.74,2.92,10.4,1.04,13.63,4.7,12.59,14.05-.49,4.45-1.07,8.9-1.93,13.3-2.77,14.22-1.97,28.31,1.61,42.31,2.18,8.53,1.68,17.27,2.55,25.9.22,2.2.09,5.29,3.21,5.91,3.14.62,5.29-1.58,7.1-3.71,1.99-2.35,2.69-5.19,3.6-7.97,6.42-19.67,12.29-39.5,20.62-58.62,4.19-9.63,9.6-18.57,16.99-26.45,7.36-7.85,16.27-11.61,27.71-8.3,14.62,4.23,29.48,4.61,44.5,2.15.28-.05.58-.04.86-.07,20.32-1.9,26.1,8.87,20.27,25.37-2.75,7.79-8.96,14.02-14.97,20.13-19.45,19.79-41.3,36.66-67.98,48.01-7.55,3.21-14.66,7.37-21.22,12.18-3.42,2.51-6.42,5.32-8.7,8.72-3.69,5.52-2.08,8.48,4.96,8.65,7.26.17,14.33-1.44,21.36-2.88,24.22-4.96,48.36-10.26,72.62-15.05,7.29-1.44,14.87-2.23,22.32-2.28,15.92-.1,23.22,8.39,20.16,22.54-.06.26-.1.52-.2.77-7.27,17.78-8.3,35.51-1.6,53.84,2.96,8.11-3.5,15.56-14.1,18.85-13.53,4.2-26.74,2.45-39.69-2.32-13.18-4.86-24.92-12.17-37.41-18.21-14.9-7.2-30.55-12.49-47.37-14.48-2.67-.32-6.08-1.89-7.93,1.03-1.64,2.59.63,5.01,1.9,7.32,3.18,5.81,8.47,10,13.72,14.08,24.21,18.83,38.65,42.82,45.68,70.85,1.04,4.15,1.4,8.3,1.55,12.52.32,8.98-4.35,15.25-13.05,18.72-18.81,7.52-38.69,8.22-58.66,5.97-9.93-1.12-14.45-8.09-16.16-16.46-2.76-13.54-2.96-27.24-1.76-40.91,1.17-13.37,2.94-26.69,4.22-40.05.75-7.77-1.66-15.14-4.51-22.35-.73-1.85-1.63-4.57-4.5-4.02-2.61.5-2.58,3.18-2.91,5.24-1.57,9.88-2.28,19.86-4.64,29.67-3.36,14.03-10.09,26.45-21.22,36.46-14.94,13.44-27.77,27.74-35.58,46.01-5,11.71-17.1,18.24-30.18,22.06-7.08,2.07-11.34-.4-12.25-7.13-2.38-17.48-5.25-34.97-6.19-52.54-.99-18.74,12.06-31.17,27.03-41.8,10.26-7.28,21.18-13.92,33.27-18.36,13.79-5.08,15.01-16.26,17.47-27.04.6-2.63-1.22-3.26-3.67-2.59-11.95,3.31-24.46,3.68-36.63,5.84-8.46,1.5-15.35,5.55-21.43,11.2-7.24,6.73-12.64,5.18-14.97-4.04-2.68-10.6-2.83-21.38-1.58-31.94ZM205.99,135.56c-2.88,0-5.76-.02-8.63,0-12.41.09-24.66,1.67-36.87,3.47-2.45.36-6.58.8-6.4,2.93.25,2.94,4.16,1.48,6.43,1.54,15.31.37,30.36-2.02,45.51-3.51,9.85-.97,20.23-4.23,28.64,4.93,3.45,3.76,10.55,2.07,13.66-1.99,3.05-3.97,2.84-7.83-1.33-11.2-5.38-4.35-10.33-4.87-14.24-.32-3.18,3.7-6.74,4.32-11.23,4.18-5.18-.15-10.36-.04-15.54-.03ZM105.49,164.75c-.44-1.29-.49-2.47-.96-2.63-1.76-.61-2.59.77-3.23,1.88-5.02,8.65-8.74,17.79-10.85,27.35-3.37,15.29-12.9,25.45-28.95,30.7-5.42,1.77-10.88,3.54-16.05,5.81-3.66,1.61-5.44,4.75-4.32,8.58,1,3.4,3.58,5.35,7.57,5.34,4.29-.01,8.41-2.18,7.97-5.7-.91-7.25,4.59-8.78,9.53-11.31,3.52-1.8,7.04-3.61,10.42-5.62,21.85-12.97,19.51-36.4,28.88-54.41ZM75.5,52.31c.32-3.41-.61-5.71-3.54-7.14-2.62-1.28-5.07-.93-7.21.78-2.4,1.92-3.25,4.49-2.11,7.16,2,4.67,4.58,9.17,8.39,12.81,5.53,5.29,9.22,11.54,11.6,18.31,4.63,13.2,13.08,24.58,20.1,36.63.4.69.91,1.35,1.45,1.96,1.01,1.15,1.91,3.19,3.85,2.1,1.45-.81.09-2.38-.51-3.5-.89-1.65-1.8-3.31-2.88-4.86-8.72-12.5-16.09-25.53-19.62-40.16-.94-3.89-3.45-7.19-5.84-10.51-3.07-4.27-8.23-8.19-3.67-13.59ZM134.8,119.74c.96-1.56,1.96-3.12,2.9-4.7,10.62-17.75,20.47-36.01,38.82-48.66,1.8-1.24,3.33-2.97,4.53-4.73,2.35-3.45,5.02-5.84,9.73-6.98,4.9-1.18,7.28-5.05,6.06-9.93-1.08-4.32-4.41-6.08-9.03-5.48-5.4.7-8.83,4.28-8.07,8.71,1.45,8.42-3.81,13.55-9.34,18.4-10.33,9.06-18.17,19.66-24.99,31-3.88,6.45-7.76,12.9-11.59,19.37-.39.67-.54,1.49-.61,2.25-.01.16.8.39,1.58.74ZM97.55,126.46c.31-.85,0-1.48-4.06-3.85-12.84-7.49-22.2-17.39-27.1-30.74-1.17-3.19-3.21-6.2-5.36-8.97-2.77-3.57-6.71-6.23-6.13-11.59.33-3-2.64-5.14-6.39-5.2-4.13-.06-6.31,2.34-7.53,5.49-1.24,3.18-.05,6.44,3.32,7.17,11.14,2.39,14.83,10.82,19.56,18.6,7.11,11.68,16.08,21.85,29.21,28.39,1.3.65,2.75,2.2,4.48.7ZM27.6,158.68c1.05-.49,3.02-.87,3.97-1.97,3.47-4.03,8.57-4.07,13.28-4.63,4.82-.58,9.76-.51,14.63-.41,9.88.21,19.24-2.94,28.99-3.58,1.78-.12,4.53-.54,4.01-3.06-.38-1.86-2.71-1.49-4.36-1.56-3.83-.16-7.28,1.39-10.9,2.14-15.93,3.28-31.85,7.1-48.03.97-2.75-1.04-5.17,0-6.93,1.92-1.98,2.16-2.58,4.69-.97,7.3,1.23,2,3.23,2.89,6.31,2.88Z"/>
        <path class="cls-1" d="M184.34,110.84c-.64-.13-1.4-.07-1.64-.37-.61-.75-.09-1.51.63-1.92,2.69-1.52,5.35-3.13,8.18-4.39,19.94-8.89,39.98-17.6,59.87-26.6,8.24-3.73,16.58-7.5,23.04-13.76,3.73-3.61,7.83-6.91,6.23-12.95-.81-3.06,1.41-5.7,5.11-6.23,3.63-.51,5.97,1.5,7.49,4.29,1.55,2.83.66,5.75-2.19,6.78-6.89,2.48-10.21,8.38-15.51,12.33-8.77,6.54-18.43,11.77-28.61,16.18-19.79,8.57-39.67,16.94-59.52,25.39-1.04.44-2.1.86-3.07,1.25Z"/>
        <path class="cls-1" d="M113.06,223.74c-.41,10.91-3.88,20.63-7.84,30.25-3.34,8.11-6.91,16.17-9.73,24.44-2.96,8.69-7.06,17.29-4.14,26.89.9,2.97-1.04,5.68-4.45,6.84-2.42.82-4.53-.03-6.17-1.76-2.24-2.37-2.21-5.22-.14-7.23,9.39-9.12,10.84-21.22,14.62-32.32,5.2-15.27,11.09-30.43,13.06-46.48.33-2.7-.35-7.13,3.29-7,2.84.1.56,4.54,1.51,6.38Z"/>
        <path class="cls-1" d="M293.27,232.21c.01,2.88-1.17,5.08-4.15,6.34-3.07,1.3-6.37.63-7.82-1.56-6.09-9.18-17.08-12-26.04-17.44-5.99-3.64-12.06-7.17-18.06-10.81-.87-.53-1.5-1.4-2.24-2.11,1.22-.76,2.23.06,3.1.52,7.72,4.08,15.46,8.14,23.06,12.42,6.91,3.9,13.33,7.83,22.39,4.56,5.25-1.89,9.91,2.64,9.76,8.08Z"/>
        <path class="cls-1" d="M235.11,224.39c-.44.44-.85,1.03-1,.98-.5-.17-1.01-.51-1.34-.9-15.12-17.98-37.09-27.76-57.21-39.75-1.49-.89-4.56-1.28-3.27-3.6.86-1.54,3.18-.38,4.66.3,21.54,9.87,40.7,22.53,55.87,39.83.89,1.01,1.58,2.16,2.29,3.14Z"/>
        <path class="cls-1" d="M125.76,78.3c1.58-12.45.73-24.88,4.33-36.89.77-2.57.63-5.16-.13-7.76-.88-3.02.58-5.19,3.64-6.25,2.63-.9,5.17-.49,6.77,1.91,1.63,2.44.85,4.82-1.41,6.29-5.14,3.34-5.4,8.5-6.28,13.3-1.8,9.8-3.81,19.59-4.09,29.58-.04,1.57.99,4.55-1.71,4.38-1.98-.13-.95-3.08-1.1-4.56Z"/>
        <path class="cls-1" d="M258.55,257.88c-.66,4.59-3.22,7.34-8.45,7.09-4.74-.23-7.24-2.91-7.46-7.11-.21-4.17,4.42-8.56,8.53-8.13,5.22.55,7.02,3.88,7.37,8.14Z"/>
        <path class="cls-1" d="M278.9,91.1c-8.03-2.52-14.65,2.34-21.96,2.77-1.27.07-2.61,1.06-3.8-.2.97-.51,1.89-1.14,2.93-1.49,2.69-.9,5.4-1.75,8.15-2.48,4.55-1.21,8.13-3.18,10.51-7.31,1.7-2.95,5.21-4.1,8.88-2.1,2.9,1.58,3.42,4.13,2.47,6.84-1.14,3.25-3.96,4.21-7.19,3.98Z"/>
        <path class="cls-1" d="M41.52,187.68c-.97.49-1.9,1.04-2.89,1.46-4.69,1.99-9.65,3.57-14.02,6.02-5.45,3.06-12.1,5.39-12.53,12.81-.11,1.93-1.93,3.19-4.26,3.22-2.33.03-3.68-1.25-4.43-3.13-.76-1.91-.54-3.8,1.4-4.91,10.91-6.28,21.46-13.24,34.28-16.16.8-.18,1.66-.47,2.45.7Z"/>
        <path class="cls-1" d="M5.64,70.28c1.95.09,3.87,1.28,3.77,2.63-.56,7.04,5.72,10.33,9.33,15.08.97,1.28,1.87,2.62,2.64,4,.33.6.58,1.84.29,2.02-.84.53-1.43-.29-1.86-.9-4.24-6.04-10.52-10.19-16.33-14.78-1.87-1.48-2.99-3.23-1.8-5.49.77-1.46,2-2.52,3.96-2.58Z"/>
      </g>
      <path class="cls-4" d="M297.04,292.46c-.53-21.56,6.26-41.52,16.34-60.71,4.86-9.25,9.96-18.4,14.86-27.63,2.67-5.03,4.21-10.32,4.08-15.99-.22-9.29-5.87-15.29-16.09-16.38-4.85-.52-9.78-.38-14.67-.6-5.9-.26-8.29-3.1-9.05-8.49-1.07-7.67,2.16-10.58,10.29-10.43,19.92.38,26.14,3.09,31.73,17.26,1.66,4.2,3.49,8.34,5.05,12.57.58,1.57.98,3.38,3.13,2.97,1.08-.2,2.21-1.62,2.72-2.72,5.91-12.62,1.61-32.71-9.43-42.26-9.91-8.57-18.68-17.87-25.5-28.71-5.39-8.57-6.83-17.61-2.49-26.51,11.39-23.31,23.05-46.49,29.23-71.56.88-3.58,2.46-2.56,4.56-.62,19.68,18.24,36.46,38.03,42.23,63.94,1.29,5.78,1.98,11.53-.23,17.14-5.88,14.95-4.68,30-1.37,45.16,2.38,10.89,2.99,21.75,1.38,32.92-1.64,11.4-8.64,18.07-19.92,20.09-20.9,3.75-31.09,16.36-37.41,33.39-6.83,18.4-15.93,36.21-16.17,56.16-.02,1.94-1.9,4.67,1.02,5.61,2.96.96,3.26-2.3,4.58-3.8,4.98-5.63,11.23-9.74,18.15-13.18,14.18-7.04,28.38-14.09,39.91-24.71.75-.69,1.93-1.69,2.7-1.55,1.9.33,1.2,2.11,1.33,3.29.49,4.45,1.09,8.91,1.18,13.38.34,17.68-5.78,24.58-25.12,28.43-8.45,1.68-17.04,2.84-25.42,4.73-11.42,2.58-14.78,8.53-11.19,18.77,5.91,16.85,28.99,32.22,48.6,32.49,3.15.04,6.32.46,9.44.93,2.99.46,5.83,1.57,5.64,4.89-.18,3.3-2.97,4.31-6.11,4.29-10.68-.08-21.39.2-32.01-.61-5.15-.39-10.29-1.1-15.47-.92-53.36,1.88-106.72,3.84-160.08,5.71-37.63,1.32-74.96-1.95-112.19-6.5-12.37-1.51-24.73-1.68-37.15-1.01-1.3.07-3.64-.18-3.76-.64-.39-1.58,1.66-1.76,2.72-2.5,18.49-12.92,39.53-18.85,62.68-19.65,19.9-.69,39.78-1.98,59.72-1.71,29.95.41,55.54-8.2,74.89-29.85,19.06-21.33,60.52-14.67,75.15,3.51,2.08,2.59,4.08,7.59,7.33,6.54,2.46-.79-.08-6.1.17-9.41.14-1.83.02-3.68.02-5.52Z"/>
      <g>
        <path class="cls-1" d="M125.18,139.08c-.07,5.02-4.6,9.54-9.54,9.51-4.79-.03-8.26-3.61-8.18-8.45.08-5.19,4.34-9.4,9.53-9.44,4.79-.03,8.26,3.51,8.19,8.38Z"/>
        <path class="cls-1" d="M124.85,149.81c4.8.09,8.87,3.87,8.75,8.13-.12,4.45-4.83,8.37-9.87,8.1-5.22-.29-7.78-3.25-8.13-7.67-.37-4.55,4.31-8.65,9.25-8.56Z"/>
        <path class="cls-1" d="M142.96,140.95c-.52,3.94-2.72,6.28-7.25,6.08-4.02-.18-6.42-2.46-6.54-5.96-.14-3.93,2.48-6.45,6.81-6.51,4.38-.06,6.63,2.45,6.98,6.39Z"/>
        <path class="cls-1" d="M130.91,168.83c3.92.42,6.43,2.3,6.45,6.01.02,3.72-2.53,5.93-6.44,5.97-3.98.04-6.45-2.33-6.51-5.94-.06-3.69,2.53-5.59,6.51-6.04Z"/>
        <path class="cls-1" d="M106.46,151.64c0,3.99-1.8,6.13-5.51,6.44-4.06.34-6.72-1.5-6.97-5.27-.22-3.3,1.8-5.53,5.46-5.91,4.18-.43,6.24,1.84,7.01,4.73Z"/>
        <path class="cls-1" d="M99.46,140.41c-2.53.08-3.9-1.16-4.16-3.16-.33-2.51,1.27-3.99,3.92-4.01,2.32-.02,3.59,1.53,3.66,3.54.06,2.05-1.16,3.39-3.42,3.63Z"/>
      </g>
      <g>
        <path class="cls-2" d="M142.24,352.84c-21.83,0-44.75-3.2-57.64-6.87-19.86-5.64-47.25-.1-47.52-.05-.64.14-1.28-.22-1.45-.79s.18-1.17.8-1.35c1.71-.5,42.06-12.23,65.65-7.46,21.33,4.33,67.61.73,99.17-20.72,31.8-21.6,53.55-29.3,77.41-8.13,21.92,19.44,39.3,34.49,46.38,36.28.1.02.2.05.3.07.65.15,1.04.75.88,1.34-.16.59-.81.96-1.46.82-.1-.02-.2-.05-.31-.07-51.95-12.01-123.25-2.69-149.68,3.72-9.38,2.27-20.79,3.2-32.52,3.2ZM63.15,341.18c7.3,0,15.13.66,22.17,2.67,19.54,5.55,62.41,10.05,88.81,3.64,20.16-4.89,87.35-15.7,142.6-5.45-9.07-5.93-22.76-17.86-39.78-32.96-22.74-20.16-42.84-13.01-74.25,8.32-32.18,21.86-79.39,25.51-101.16,21.1-12.97-2.63-31.73.04-45.65,2.88,2.32-.13,4.76-.21,7.25-.21Z"/>
        <path class="cls-2" d="M325.03,346.03c-.11,0-.22-.01-.32-.04-1.49-.37-36.54-9.29-53.95-21.19-18.68-12.77-41.07-11.76-66.55,2.97-27.71,16.02-80.68,20.31-128.82,10.42-.66-.14-1.07-.73-.92-1.33.15-.6.81-.98,1.46-.84,46.81,9.61,100.2,5.35,126.97-10.13,26.42-15.28,49.75-16.25,69.32-2.87,17.04,11.65,52.78,20.74,53.14,20.83.65.16,1.03.78.85,1.37-.15.49-.64.82-1.18.82Z"/>
        <path class="cls-2" d="M313.46,295.49c-.27,0-.53-.08-.75-.24-.44-.31-.59-.85-.37-1.32.17-.37,4.4-9.14,17.13-14.99,3.94-1.81,8.45-3.52,12.82-5.17,9.46-3.58,19.24-7.27,23.53-12.15,6.11-6.93,6.56-10.36,6.56-10.39.06-.54.54-.97,1.13-1.01.6-.04,1.13.31,1.27.84.05.19,4.73,18.72-13.47,28.14-7.97,4.12-14.66,5.25-21.12,6.34-8.16,1.37-15.87,2.67-25.99,9.72-.22.15-.48.23-.74.23ZM372.98,255.97c-1.05,1.8-2.68,4.14-5.25,7.05-4.69,5.32-14.76,9.13-24.5,12.81-4.32,1.63-8.79,3.32-12.65,5.1-6.26,2.88-10.34,6.54-12.82,9.39,8.29-4.66,15.24-5.83,22-6.97,6.27-1.05,12.75-2.14,20.36-6.08,11.51-5.95,13.06-15.67,12.87-21.3Z"/>
        <path class="cls-2" d="M346.16,195.29c-.33,0-.66-.13-.9-.36-.35-.34-.42-.84-.19-1.26.08-.14,7.98-14.75,7.13-41.51-.46-14.34-7.36-22.05-14.66-30.21-6.4-7.16-13.03-14.56-15.61-26.77-5.48-25.92,5.38-41.54,5.85-42.19.37-.52,1.12-.66,1.69-.33.57.33.73,1.02.36,1.54-.11.15-10.78,15.57-5.49,40.55,2.46,11.66,8.89,18.84,15.1,25.79,7.24,8.09,14.73,16.46,15.21,31.56.66,20.93-3.8,34.39-6.1,39.84,7.93-3.6,29.65-15.14,29.51-33.25-.08-9.86-1.79-16.26-3.45-22.45-2.14-7.98-4.15-15.52-1.79-28.85,3.99-22.54-9.93-54.51-10.07-54.83-.25-.57.05-1.22.68-1.45.63-.23,1.34.05,1.59.62.59,1.33,14.31,32.87,10.22,56.02-2.28,12.88-.41,19.87,1.76,27.96,1.61,6.02,3.44,12.85,3.52,22.97.18,23.54-32.48,36.02-33.87,36.54-.15.05-.31.08-.46.08Z"/>
        <path class="cls-2" d="M346.16,195.29c-.28,0-.57-.09-.8-.27-.51-.4-.57-1.11-.13-1.57,20.73-21.89,22.37-44.38,18.3-73.57-1.51-10.88-6.83-18.04-11.97-24.96-5.19-6.99-10.09-13.59-11.25-23.51-3.46-29.62.76-48.99.8-49.18.14-.61.79-.99,1.44-.87.66.12,1.09.71.96,1.31-.04.19-4.18,19.25-.77,48.5,1.09,9.37,5.83,15.74,10.84,22.5,5.3,7.13,10.78,14.51,12.37,25.93,4.04,28.97,2.37,52.87-18.87,75.3-.24.25-.59.39-.93.39Z"/>
      </g>
    </g>
  </g>
</svg>