<?xml version="1.0" encoding="UTF-8"?>
<svg id="Layer_2" data-name="Layer 2" xmlns="http://www.w3.org/2000/svg" xmlns:xlink="http://www.w3.org/1999/xlink" viewBox="0 0 1460.85 507.02">
  <defs>
    <style>
      .cls-1 {
        fill: none;
      }

      .cls-2 {
        fill: #784433;
      }

      .cls-3 {
        fill: #59590e;
      }

      .cls-4 {
        fill: #c9ba9e;
      }

      .cls-5 {
        clip-path: url(#clippath);
      }
    </style>
    <clipPath id="clippath">
      <path class="cls-1" d="M1451.03,297.81c3.55-5.1,19.61-41.55,1-76.12-18.61-34.57-19.75-93.23-51.24-98.28-31.49-5.04-35.66-28.82-110.65-38.73-74.99-9.91-95.9-39.86-168.67-47.97-72.77-8.11-101.02,8.81-173.69-7.55-72.66-16.36-155.19-50-242.04-11.14-86.84,38.86-90.27-1.43-156.34,15.12-66.07,16.55-53.64,9.03-126.76,27.52-73.12,18.49-127.47-26.56-219.04,30.7C112.02,148.63,56.9,162.27,2.86,264.83c0,0-25.01,26.04,72.94,80.54,97.95,54.5,89.24,119.73,295.28,139.65,206.04,19.92,229.82,26.91,300.97,18.53,71.14-8.37,140.64-6.64,209.34-30.56,68.71-23.92,135.61,4.44,246.11-43.01,0,0,104.45-13.44,179.01-55.79,74.56-42.35,109.09-25.43,144.52-76.37Z"/>
    </clipPath>
  </defs>
  <g id="Layer_1-2" data-name="Layer 1">
    <g class="cls-5">
      <path class="cls-4" d="M1451.03,297.81c3.55-5.1,19.61-41.55,1-76.12-18.61-34.57-19.75-93.23-51.24-98.28-31.49-5.04-35.66-28.82-110.65-38.73-74.99-9.91-95.9-39.86-168.67-47.97-72.77-8.11-101.02,8.81-173.69-7.55-72.66-16.36-155.19-50-242.04-11.14-86.84,38.86-90.27-1.43-156.34,15.12-66.07,16.55-53.64,9.03-126.76,27.52-73.12,18.49-127.47-26.56-219.04,30.7C112.02,148.63,56.9,162.27,2.86,264.83c0,0-25.01,26.04,72.94,80.54,97.95,54.5,89.24,119.73,295.28,139.65,206.04,19.92,229.82,26.91,300.97,18.53,71.14-8.37,140.64-6.64,209.34-30.56,68.71-23.92,135.61,4.44,246.11-43.01,0,0,104.45-13.44,179.01-55.79,74.56-42.35,109.09-25.43,144.52-76.37Z"/>
      <path class="cls-3" d="M1393.79,83.7c-13.91,16.35-23.29,34.56-30.11,53.27-3.68,10.09-6.66,20.3-9.38,30.55-2.87,10.81-6.17,21.73-7.12,32.72-.19,2.22-4.75-.64-4.61-2.24.89-10.28,3.9-20.46,6.55-30.58,2.78-10.62,5.78-21.21,9.51-31.67,6.89-19.33,16.4-38.17,30.76-55.05,1.43-1.68,5.57,1.64,4.41,3Z"/>
      <path class="cls-2" d="M1441.23,100.7c-.5.64-1.33.89-2.16.86-.88,1.26-2.58,4.26-2.9,4.73-1.22,1.76-2.41,3.53-3.58,5.31-2.51,3.81-4.92,7.66-7.22,11.54-4.3,7.25-8.24,14.62-11.81,22.1-7.56,15.83-13.34,32.08-17.5,48.58-.41,1.64-2.07,2.17-3.35,1.82.61,1.4,1.21,2.81,1.82,4.22,30.33-2.03,47.38-3.19,47.38-3.19-15.46,2.08-30.81,4.11-46.07,6.1.99,2.11,2.08,4.19,3.42,6.15,2.79,4.09,7.59,6.86,10.51,10.86,3.44,4.69,7.09,8.22,12.46,11.65,5.08,3.24,10.49,6.14,15.81,9.14,21.05,11.84,40.41,25.38,57.79,40.44,1.16,1,0,5.18-.64,4.63-18.35-15.89-38.89-29.9-61.16-42.32-5.33-2.97-10.69-5.94-15.6-9.34-4.69-3.25-7.01-6.61-10.28-10.67-3.35-4.17-8.12-7.05-10.91-11.59-1.69-2.75-3.02-5.65-4.29-8.57-2.91.38-5.81.76-8.71,1.13,3.5,4.52,4.5,12.27,5.58,15.53,1.34,4.05,2.22,9.76,6.5,12.49,2.47,1.58,5.46,2.64,7.93,4.25,3.55,2.31,6.09,5.09,8.15,8.28,3.71,5.72,9.58,8.43,15.03,12.87,4.71,3.84,8.56,8.24,12.88,12.32,10.1,9.56,22.87,17.13,35.52,24.62,1.3.77,1.61,3.92,2.01,4.15-11.43-6.77-22.94-13.59-32.56-21.88-4.65-4.01-8.6-8.46-13.07-12.59-4.26-3.93-9.87-6.64-14.21-10.43-4.27-3.72-5.66-8.81-10.41-12.28-3.94-2.88-9.48-4.4-12.67-7.85-2.23-2.41-3.51-5.4-4.53-8.24-1.01-2.81-1.89-5.66-2.83-8.49-.88-2.66-2.11-11.2-6.17-11.87-.27-.04-.48-.21-.68-.42-2.1.27-4.18.54-6.28.81,4.46,9.63,8.91,19.31,14.43,28.56,6.57,11.01,15.32,20.93,24.19,30.8,8.69,9.67,17.82,18.36,29.22,26.11,9.6,6.52,19.25,12.96,25.92,21.59,2.05,2.65-2.49,3.54-4.22,1.31-7.47-9.65-19.13-16.27-29.6-23.73-10.47-7.47-18.69-16.3-26.81-25.36-8.96-10-17.55-20.1-24.04-31.3-5.17-8.91-9.47-18.15-13.76-27.38-1.86.24-3.72.48-5.57.72,4.42,8.09,6.45,17.52,7.64,25.91,1.8,12.77,11.54,23.77,20.39,34.08,8.88,10.34,18.86,20.07,29.81,29.07,10.04,8.26,21.57,15.53,29.17,25.43,1.93,2.51-3.71,3.19-5.21,1.23-8.06-10.5-20.74-18.14-31.23-27.03-10.12-8.57-19.41-17.78-27.74-27.48-7.83-9.12-17.53-19.52-20.19-30.64-2.34-9.79-3.21-20.56-8.18-29.88-5.66.72-11.3,1.44-16.93,2.14-.39,6.36.09,12.67,1.39,18.93,1.34,6.43,2.58,13.27,5.45,19.38,2.51,5.33,6.67,10.21,10.4,15.05,3.85,4.99,7.9,9.9,12.64,14.42,9.71,9.26,23.01,15.83,33.7,24.41,11.27,9.05,21.29,19.02,31.47,28.77.91.87-1.13,4.49-1.26,4.36-11.08-10.6-21.94-21.57-34.54-31.17-12.04-9.17-25.76-16.27-35.54-27.06-8.85-9.77-17.57-20.37-20.8-32.19-3.14-11.53-5.2-22.89-4.26-34.73-6.12.77-12.22,1.53-18.31,2.29,5.28,23.63,14.73,46.49,28.22,67.83,7.74,12.24,16.9,23.77,26.92,34.9,4.94,5.49,9.96,10.93,14.48,16.65,4.13,5.22,6.96,11.7,11.96,16.39,1.83,1.72-1,5.59-3.39,3.34-5.28-4.95-8.13-11.61-12.53-17.1-4.75-5.93-10.01-11.59-15.15-17.31-9.84-10.98-18.7-22.43-26.31-34.5-13.81-21.88-23.39-45.39-28.71-69.64-1.81.22-3.61.44-5.42.67.02.96.05,1.86.13,2.63.84,7.94,1.21,15.86.92,23.86-.29,8.03-.92,16.35,2.35,23.98,1.51,3.53,3.78,6.72,7.03,9.4,2.96,2.44,6.59,4.28,9.1,7.06,4.61,5.09,5.47,11.72,8.17,17.52,3.37,7.23,8.28,13.91,13.26,20.48,9.95,13.12,19.09,26.23,25.64,40.73,1.04,2.31-1.94,4.79-3.29,1.81-6.39-14.13-15.34-26.89-25.03-39.67-4.51-5.95-8.88-11.99-12.3-18.41-3.26-6.13-4-14.07-9.07-19.38-4.94-5.18-11.54-8.2-15.1-14.34-2.96-5.11-4.21-10.72-4.63-16.35-.57-7.54.35-15.13.18-22.68-.08-3.76-.35-7.51-.7-11.25-.08-.82-.07-2.77-.15-4.96-6.33.78-12.63,1.55-18.92,2.31,1.63,4.01,3.12,8.05,4.2,12.18,1.76,6.73,2.08,13.57,2.36,20.45.32,7.86.97,15.53,3.69,23.06,2.5,6.91,5.95,13.62,9.25,20.29,6.87,13.89,15.92,25.89,26.54,38.12,9.67,11.13,17.44,22.94,22.84,35.84.49,1.17-2.58,4.32-2.62,4.22-5.73-13.7-14.21-25.99-24.52-37.77-10.06-11.49-18.37-23.09-24.85-36.19-6.36-12.86-12-25.17-12.77-39.23-.44-7.94-.38-15.89-2.31-23.69-1.42-5.73-3.61-11.28-5.96-16.78-4.23.51-8.45,1.02-12.66,1.52,2.94,12.9,8.46,25.14,11.46,38.05,3.42,14.75,2.56,30.01,6.02,44.76,3.27,13.92,11.14,26.51,19.85,38.62,4.12,5.73,8.41,11.37,12.51,17.1,4.44,6.2,7.8,13.31,13.21,18.99,1.51,1.59-3.1-1.14-3.7-1.77-4.82-5.07-7.8-11.23-11.67-16.78-4.36-6.25-9.03-12.35-13.51-18.54-8.44-11.64-16.36-23.72-20.17-36.97-4.39-15.23-3.33-31.15-6.56-46.54-2.61-12.43-7.78-24.23-11-36.5-7.92.95-15.82,1.89-23.69,2.81,1.55,13.82,5.6,27.3,9.95,40.67,2.56,7.88,4.99,15.83,8.6,23.43,3.23,6.8,7.32,13.32,10.99,19.97,3.82,6.94,7.42,13.97,10.64,21.12,3.16,7.01,5.51,14.37,9.92,20.96,7.94,11.86,20.32,21.68,18.34,36.28-.33,2.46-4.23,3.56-3.8.39,2.09-15.38-16.05-27.45-22.26-40.89-6.63-14.35-12.95-28.57-20.92-42.49-7.51-13.11-12.32-26.59-16.78-40.58-4.02-12.62-7.48-25.34-8.77-38.37-3.6.42-7.19.84-10.78,1.25,4.24,12.59,6.62,25.62,9.41,38.48,3.46,15.96,5.68,32.6,11.62,48.06,11.01,28.63,40.4,51.54,39.96,83.11-.02,1.69-3.37,4.88-3.32,1.76.45-31.79-31.11-55.31-40.91-84.64-9.43-28.22-10.48-58.27-20.89-86.29-4.81.56-9.6,1.11-14.39,1.66,3.59,29.16,11.18,57.83,22.93,85.43,6.23,14.63,13.59,28.92,21.99,42.8,8.19,13.54,17.04,27.13,17.48,42.63.08,2.69-4.56,4.23-4.65,1.09-.46-16.02-10.24-29.87-18.58-43.86-8.46-14.2-15.79-28.83-21.97-43.79-11.18-27.09-18.46-55.21-21.92-83.76-6.57.75-13.12,1.49-19.64,2.23,3.44,13.97,7.25,27.72,12.7,41.35,6.54,16.36,9.98,32.9,14.44,49.69,4.5,16.93,13.74,31.05,24.85,45.67,10.19,13.4,19.83,27.38,20.87,43.52.13,2.09-5.64.85-5.76-1.03-1.14-17.69-13.02-32.48-24.09-47.08-10.74-14.17-18.27-28.33-22.32-44.73-4.11-16.62-8.18-32.76-14.62-48.88-4.98-12.46-8.37-25.11-11.47-37.9-3.66.41-7.29.81-10.93,1.22,4.48,14.54,8.04,29.27,12.24,43.87,4.86,16.88,10.91,33.51,17.49,49.97,3.26,8.15,6.77,16.25,11.15,24.06,4.26,7.59,9.64,14.67,14.49,22.01,9.1,13.77,14.02,28.68,14.16,44.45.02,2.19-4.24,4.6-4.27,1.46-.16-17.91-7.22-33.43-17.9-48.74-9.45-13.54-16.54-27.55-22.4-42.36-6.3-15.93-12.14-31.99-16.83-48.3-4.4-15.27-8.09-30.68-12.87-45.87-3.48.39-6.95.77-10.42,1.15-.13,5.28-1.04,10.61-.68,15.91.63,9.25,3.45,18.42,5.91,27.4,4.68,17.11,10.32,34.02,17.23,50.59,13.76,33.03,31.52,65.12,38.27,99.87.6,3.06-4.74,2.92-5.25.31-6.76-34.75-24.51-66.84-38.27-99.87-6.91-16.58-12.55-33.49-17.23-50.6-2.26-8.26-4.66-16.59-5.71-25.04-.74-5.92.35-12.02.5-18-5.01.55-10,1.09-14.98,1.62,1,3.8,1.59,7.69,2.03,11.65,1.01,9.07,2.48,17.76,5.41,26.52,5.73,17.09,9.5,34.38,13.41,51.81,8.32,37.06,19.08,73.69,32.07,109.78.82,2.28-3.05,5.17-4.13,2.18-12.48-34.69-22.87-69.88-31.09-105.46-4.08-17.68-7.37-35.46-13.25-52.8-2.71-8-5.11-15.9-6.1-24.2-.76-6.37-1.16-12.82-2.94-19-6.04.65-12.05,1.29-18.05,1.92,2.35,12.76-2.53,26.37-2.1,39.38.62,19.05,8.03,37.2,14.94,55.12,13.73,35.59,24.16,71.97,31.07,108.95.56,2.98-5.15,2.36-5.62-.19-6.84-36.6-17.17-72.59-30.76-107.82-6.39-16.58-13.18-33.33-14.89-50.83-.83-8.52.04-16.89,1.27-25.41.9-6.18,1.78-12.54.78-18.62-5.85.62-11.67,1.22-17.48,1.83,6.04,15.73,1.84,31.13-.05,47.63-2.08,18.24.19,36.62,6.66,53.96,6.54,17.55,15.67,34.25,21.33,52.06,5.74,18.06,9.29,36.56,10.81,55.25.02.19-4.55-1.48-4.64-2.71-1.49-18.39-4.95-36.58-10.52-54.36-5.68-18.13-14.95-35.1-21.61-52.95-6.36-17.06-8.67-35.12-6.76-53.07,1.68-15.72,5.73-30.48,1.2-45.45-9.25.96-18.45,1.9-27.6,2.82.84,5.92,1.4,11.88,2.05,17.82,1.72,15.56,3.51,31.11,5.68,46.62,4.48,31.95,11.39,63.49,19.21,94.93,4.26,17.15,8.63,34.28,12.95,51.41.79,3.11-3.13,2.21-3.72-.14-9.44-37.41-19.56-74.75-26.67-112.55-3.46-18.4-6.09-36.9-8.35-55.44-1.14-9.33-2.19-18.66-3.21-28-.52-4.76-.98-9.53-1.61-14.28-8.05.81-16.06,1.61-24.03,2.39,1.77,17.34,3.44,34.7,5.46,52.02,1.1,9.4,2.75,18.68,6.16,27.7,3.3,8.73,7.7,17.15,11.45,25.75,15.03,34.5,18.07,71.48,20.92,107.93.24,3.09-5,3.06-5.22.18-2.92-37.32-6.17-74.95-22.12-110.12-3.88-8.56-8.19-17.01-11.17-25.82-2.81-8.31-4.24-16.85-5.24-25.44-2.01-17.21-3.67-34.46-5.43-51.69-9,.88-17.97,1.75-26.87,2.6.13,2.66.27,5.33.35,7.99.26,8.56.34,17.13.79,25.68.84,15.81,3.53,31.25,9.2,46.32,10.95,29.1,30.79,55.38,38.72,85.32,4.41,16.64,5.84,33.74,4.56,50.86-.07.98-2.54,4.48-2.49,3.74,2.31-30.75-5.12-60.18-19.89-88.1-14.73-27.84-29.27-54.81-31.99-85.57-.71-8.08-.93-16.2-1.13-24.31-.12-4.86-.22-9.71-.42-14.57-.03-.7-.05-4.09-.46-7.11-8.77.84-17.48,1.65-26.15,2.46,2.63,17.32,5.5,34.62,8.67,51.87,3.65,19.94,6.65,40.41,15.43,59.3,8.04,17.31,19.8,33.18,26.63,50.91,6.87,17.84,11.03,36.36,15.79,54.65.55,2.12-1.77,4.71-2.59,1.55-3.79-14.56-7.26-29.21-11.89-43.59-4.81-14.93-11.97-28.75-20.16-42.61-7.94-13.44-14.33-27.02-18.18-41.66-3.88-14.78-6.38-29.84-9.06-44.81-2.7-15.09-5.15-30.21-7.45-45.35-5.74.53-11.46,1.06-17.16,1.58,2.55,11.61,5.29,23.22,9.94,34.32,3.02,7.2,5.73,14.29,6.87,21.9,1.23,8.14,1.47,16.37,2.74,24.5,5.07,32.52,20.49,62.9,34.16,93.38,3.74,8.34,7.38,16.71,10.67,25.18,2.94,7.57,6.29,15.22,3.79,23.31-.95,3.07-5.32,1.42-4.49-1.29,2.55-8.25-2.41-17.02-5.51-24.67-3.08-7.59-6.4-15.12-9.79-22.62-6.65-14.72-13.58-29.36-19.53-44.29-5.75-14.43-10.64-29.15-13.34-44.22-1.39-7.77-1.88-15.62-2.75-23.44-.95-8.55-3.3-16.43-6.69-24.5-5.05-12.04-8.05-24.56-10.85-37.11-6.06.55-12.1,1.09-18.11,1.63,7.4,26.96,1.82,56.12,7.25,83.41,3.16,15.87,8.67,31.39,16.41,46.14,7.76,14.78,19.71,27.8,27.4,42.54,4.24,8.13,6.5,16.86,8.84,25.47,2.4,8.83,4.24,17.67,3.43,26.81-.07.77-5.73-.27-5.6-1.73.77-8.67-.96-17.09-3.22-25.47-2.1-7.79-4.13-15.69-7.53-23.17-6.67-14.69-18.83-27.45-26.78-41.71-8.14-14.6-14.07-30.01-17.66-45.82-3.58-15.77-4.12-31.69-4.27-47.76-.12-12.85-.46-25.77-3.52-38.24-5.61.5-11.2.99-16.77,1.47,8.28,27.78,9.7,56.6,12.58,85.14,1.72,17,4.02,34,9.04,50.53,4.8,15.82,12.81,30.69,20.14,45.78,7.19,14.78,13.35,29.85,15.38,45.8.42,3.29-1.25.62-1.47-1.07-3.89-30.6-24.99-57.34-34.32-86.75-9.25-29.16-10.33-59.53-13.45-89.51-1.74-16.79-4.22-33.53-9.28-49.81-4.31.37-8.61.75-12.89,1.11.17,1.86.25,3.45.4,4.26,1.54,8.55,3.16,17.09,4.5,25.67,2.6,16.63,2.57,32.94,1.53,49.74-1.09,17.74,1.72,34.28,8.4,51.01,5.86,14.69,13.44,28.86,19.69,43.43,6.71,15.64,11.69,31.81,11.29,48.61-.03,1.3-2.38,5.25-2.31,2.21.74-30.46-16.86-57.72-28.71-85.65-5.49-12.94-9.85-26.29-10.84-40.08-1.17-16.26,2.03-32.6.82-48.87-.75-10.13-2.49-20.16-4.28-30.17-.42-2.34-1.45-12.73-3.41-19.91-10.17.87-20.28,1.72-30.3,2.54,1.16,16.44,4.25,32.7,6.29,49.07,1.18,9.47,2,19,1.83,28.56-.16,9.51-1.73,19.04-1.36,28.54.41,10.71,4.36,20.81,8.59,30.8,3.94,9.31,7.72,18.64,11.07,28.11,3.36,9.48,6.42,19.02,9.42,28.58,2.59,8.25,5.95,16.57,5.69,25.23-.06,2.01-2.51,4.43-2.41,1.14.31-10.15-4.57-20.57-7.66-30.26-3.05-9.55-6.21-19.07-9.73-28.51-6.6-17.73-16.72-35.09-17.39-53.96-.34-9.5,1.2-19.03,1.37-28.54.18-10.43-.86-20.8-2.24-31.12-2.12-15.81-4.95-31.54-5.96-47.44-6.96.57-13.88,1.13-20.76,1.69,2.07,29.14-1.3,58.54,1.42,87.66,1.49,15.92,4.84,31.84,11.86,46.72,6.93,14.68,14.54,28.68,18.9,44.12,4.83,17.11,6.87,34.7,6.27,52.37-.04,1.14-4.89-1.08-4.84-2.53.55-16.26-1.13-32.44-5.24-48.25-4.11-15.79-11.22-30.29-18.66-45.15-14.46-28.91-14.61-60.92-14.08-91.92.24-14.22.58-28.46-.27-42.64-8.97.72-17.86,1.41-26.7,2.1,3.66,14.34,1.72,29.01-.16,43.61-2,15.53-2.87,30.67,1.15,45.89,4.12,15.61,11.69,30.39,18.59,45.25,6.77,14.57,12.5,29.4,16.54,44.66,4.67,17.63,7.2,35.61,7.75,53.73.04,1.39-5.35-.29-5.4-1.75-1-32.47-8.72-64.15-22.54-94.39-6.41-14.03-13.58-27.86-18.31-42.37-5.01-15.36-5.82-30.62-3.97-46.56,1.86-15.94,4.83-31.98,1.41-47.7-12.45.96-24.78,1.88-36.97,2.77,5.11,9.54,12.54,18.44,16.81,28.22,6.66,15.26,7.13,31.79,8.65,47.86,1.62,17.18,6.34,33.06,13.45,49.16,7.01,15.88,13.48,31.6,17.88,48.15,5.24,19.72,9.96,39.54,14.91,59.31.74,2.95-4.54,4.18-5.29,1.21-8.65-34.55-15.76-69.35-30.58-102.51-6.79-15.19-12.74-30.28-14.89-46.48-2.27-17.12-1.8-34.72-7.77-51.32-4.23-11.76-12.99-22.02-18.72-33.2-5.38.39-10.74.78-16.07,1.16,2.66,15.61,10.59,29.97,17.78,44.46,6.99,14.08,12.1,28.43,15.27,43.44,3.4,16.11,5.15,32.45,7.87,48.65,2.82,16.79,7.43,32.95,13.91,48.99,6.9,17.07,14.17,34.21,13.92,52.53,0-.48-2.97-2.57-2.96-3.91.23-16.9-6.02-32.83-12.42-48.6-6.1-15.02-11.15-30.04-14.13-45.73-3.07-16.16-4.77-32.51-7.74-48.69-3.14-17.09-8.34-33.41-16.27-49.38-6.76-13.62-14.1-27.13-17.37-41.62-3.02.21-6.04.43-9.05.64.25.56.43,1.17.59,1.96.91,4.51,1.33,9.1,2.27,13.61,1.72,8.27,4,16.44,6.53,24.55,4.99,15.99,10.98,31.74,15.87,47.75,4.89,15.97,7.45,31.89,9.47,48.28,1.1,8.96,4.65,16.99,8.19,25.41,3.2,7.61,5.83,15.39,7.88,23.28,4.63,17.86,6.1,36.18,4.73,54.54-.23,3.11-3.56,0-3.42-1.87,1.24-16.61-.04-33.22-3.96-49.44-1.96-8.09-4.55-16.06-7.78-23.86-2.78-6.7-6.11-13.27-7.75-20.25-1.76-7.55-1.87-15.32-2.98-22.94-1.13-7.73-2.86-15.39-4.91-22.97-4.26-15.71-9.98-31.11-15.17-46.62-2.74-8.19-5.35-16.41-7.52-24.72-1.07-4.09-2.03-8.2-2.85-12.34-.47-2.36-.89-4.73-1.26-7.11-.13-.84-.45-1.83-.39-2.68-.06-.4-.11-.81-.17-1.21-.01-.05,0-.09,0-.14-.14-.04-.27-.07-.41-.11-1.34-.35-1.8-1.71-1.82-2.79-6.62.46-13.21.91-19.76,1.36,2.85,12.76,5.66,25.52,8.9,38.21,2.18,8.56,4.87,16.98,8.31,25.25,3.05,7.32,6.33,14.6,8.27,22.19,3.96,15.46,2.91,31.46,4.85,47.14,2.1,16.87,7.99,33.14,12.28,49.65,4.59,17.69,5.65,35.46,5.92,53.6.03,1.94-2.09,4.42-2.14,1.13-.25-17.09-1.23-33.87-5.5-50.56-3.97-15.5-9.35-30.75-11.94-46.49-2.59-15.77-1.36-31.91-4.59-47.6-3.29-15.94-11.91-30.78-16.23-46.55-4.15-15.15-7.39-30.5-10.79-45.79-3.99.27-7.95.53-11.91.79,3.95,11.28,3.31,23.29,5.81,34.92,1.58,7.35,5.36,14.06,7.89,21.18,2.56,7.2,3.94,14.63,5.05,22.08,4.77,32.05,8.54,64.23,12.79,96.34,2.45,18.52,5.27,37.03,7.02,55.61.14,1.54-2.49,5.19-2.79,2.11-3.82-40.43-10.34-80.71-15.67-120.99-2.71-20.48-4.11-41.13-12.62-60.59-3.45-7.89-5.14-15.84-6-24.21-.92-8.91-1.52-17.83-5.28-26.2-4.35.29-8.67.57-12.98.84,6.52,10.22,7.17,21.77,9.96,33.09,1.8,7.31,5.41,14.21,6.72,21.62,1.27,7.16.9,14.49.08,21.73-1.91,16.92-4.8,33.61-3.53,50.56,1.21,16.12,6.09,31.78,9.36,47.62,3.85,18.7,6.48,37.57,7.99,56.53.13,1.68-4.22-1.17-4.32-2.41-1.26-15.81-3.28-31.54-6.17-47.17-2.83-15.36-7.31-30.49-9.85-45.88-2.51-15.22-1.97-30.72.02-46.08,2.07-16.02,4.98-31.58-.71-47.15-2.57-7.03-4.48-13.96-5.82-21.23-1.31-7.18-2.65-14.52-6.59-21.03-8.26.53-16.43,1.04-24.55,1.54-.71,19.42-1.29,39,2.6,58.12,1.83,9.01,5.48,17.53,7.88,26.4,2.53,9.35,2.58,19.06,4.04,28.56,2.96,19.34,10.37,37.79,15.1,56.81,4.9,19.68,7.46,39.79,4.92,60.01-.28,2.2-6.01.82-5.77-1.02,2.53-20.22-.03-40.33-4.92-60.01-4.73-19.02-12.13-37.46-15.1-56.81-1.53-9.95-1.51-20.12-4.43-29.87-2.51-8.39-5.75-16.53-7.5-25.09-3.8-18.67-3.33-37.77-2.65-56.74-11.94.73-23.72,1.43-35.36,2.1,4.33,13.91,7.69,28.02,9.85,42.3,2.34,15.52,3.66,30.84,9.28,45.81,5.61,14.96,11.64,29.58,15.33,45,3.66,15.28,6.16,30.77,8.9,46.19,1.56,8.79,3.13,17.57,4.69,26.36,1.39,7.86,2.73,15.68,1.24,23.67-.5,2.65-5.59.41-5.21-1.6,1.84-9.86-.57-19.59-2.29-29.26-1.79-10.04-3.57-20.08-5.36-30.12-3.43-19.32-6.78-38.73-13.31-57.48-3.14-9.02-7.18-17.8-10.34-26.82-3.35-9.57-5.03-19.33-6.28-29.25-2.33-18.45-5.82-36.6-11.29-54.52-6.05.34-12.06.68-18.02,1.01,3.35,12.66,6.69,25.32,10.04,37.98,4.29,16.25,9.34,32.48,12.54,48.92,3.11,15.94,1.7,32.25,4.95,48.18,3.16,15.53,8.75,30.57,13.59,45.75,5.3,16.62,9.55,33.46,9.04,50.84-.03.85-4.35-1.65-4.31-3.1.94-31.72-14.57-61.03-21.68-91.59-3.62-15.55-2.7-31.29-4.94-46.95-2.36-16.51-7.76-32.77-12.04-48.97-3.6-13.62-7.2-27.24-10.8-40.86-2.87.16-5.74.32-8.59.47,3.54,32.06,8.41,64.08,15.39,95.69,6.88,31.17,20.48,60.88,26.65,92.22,1.75,8.9,3.05,17.89,3.59,26.93.39,6.63-.11,13.09-3.76,19.23-1.48,2.49-2.97-2.02-2.11-3.47,5.53-9.3,2.46-21.39,1.01-31.08-1.47-9.82-3.63-19.54-6.24-29.18-5.09-18.77-12.49-36.99-17.81-55.7-10.62-37.32-15.74-76.21-19.92-114.47-9.32.5-18.53.98-27.64,1.44,2.52,16.87,10.05,32.84,15.62,49.15,6.65,19.49,9.51,39.69,12.76,59.78,3.36,20.73,8.53,40.95,14.34,61.25,5.77,20.17,11.25,40.44,12.63,61.29.09,1.38-5.24-.46-5.34-2-1.38-20.85-6.86-41.12-12.63-61.29-5.8-20.29-10.98-40.51-14.34-61.25-3.43-21.16-6.52-42.32-13.85-62.77-5.21-14.53-11.54-28.9-14.16-43.91-4.83.24-9.64.48-14.41.71,7.8,15.81,10.95,32.77,14.39,49.63,4.09,20.08,7.51,40.27,10.25,60.54,2.67,19.73,4.15,39.69,9.64,59.03,5.42,19.12,13.89,37.7,13.82,57.68,0-.18-5.59-.79-5.59-1.84.06-19.66-8.14-37.97-13.56-56.77-5.48-19-7.05-38.59-9.63-58.01-2.61-19.63-5.86-39.18-9.74-58.64-3.46-17.34-6.49-35.01-14.17-51.4-9.83.47-19.51.92-29.08,1.35,7.8,15.68,15.42,31.47,20.87,47.86,6.21,18.67,8.63,38.07,11.99,57.23,6.97,39.7,14.45,79.32,22.43,118.87.56,2.77-5.26,2.01-5.7-.21-7.85-38.9-15.22-77.88-22.09-116.93-3.32-18.86-5.63-38.05-11.46-56.48-5.44-17.2-13.41-33.7-21.57-50.09-7.94.35-15.78.69-23.54,1.01,6.9,15.97,13.87,31.91,20.58,47.93,7.2,17.19,9.62,34.77,11.59,52.85,4.23,38.9,12.91,76.82,26.13,112.33.91,2.45-3.36,5.25-4.46,2.28-13.2-35.71-22.01-72.46-26.11-109.76-2.08-18.92-4.07-37.41-11.61-55.42-7-16.71-14.28-33.34-21.46-49.99-7.13.29-14.16.57-21.13.84,4.68,16.86,13.58,32.62,19.37,49.22,6.23,17.84,9.63,36.38,13.08,54.72,3.37,17.94,6.11,35.96,8.5,54.02,2.48,18.76,5.3,37.84,16.45,54.6,1.66,2.5-.93,3.63-2.61,1.11-10.12-15.22-13.97-32.2-16.45-49.29-2.8-19.32-5.31-38.66-8.84-57.89-3.48-18.97-6.9-38.18-13.16-56.65-5.69-16.81-14.69-32.73-19.61-49.71-8.02.31-15.93.6-23.73.87.88,17.89,15.46,33.59,21.73,50.28,6.38,17.01,5.73,35.24,11.45,52.42,2.72,8.18,5.79,16.26,7.64,24.63,1.8,8.18,2.79,16.47,3.74,24.76,2.26,19.59,5.81,38.88,11.56,57.93.21.69.14,5.27-.42,3.42-4.53-15.02-7.94-30.26-10.13-45.66-2.29-16.12-3.14-32.37-8.19-48.09-4.34-13.51-8.59-26.54-10.54-40.5-1.21-8.62-2.38-17.27-5.6-25.54-2.76-7.07-6.66-13.79-10.39-20.54-5.93-10.72-10.82-21.4-11.7-33.08-8.62.3-17.11.59-25.48.86,19.95,32.22,29.64,68.39,40.6,103.2,2.87,9.1,5.39,18.3,6.61,27.68,1.13,8.64.97,17.37,1.3,26.07.36,9.7,1.83,19.04,5.04,28.34,3.19,9.23,7.06,18.26,8.59,27.83.34,2.1-4.9.13-5.13-1.32-2.81-17.55-12.19-33.52-13.44-51.39-.64-9.17-.27-18.4-1.13-27.56-.93-9.91-3.45-19.61-6.42-29.2-5.52-17.87-11.52-35.66-17.56-53.41-5.88-17.23-12.95-34.09-22.75-50.09-6.45.2-12.82.4-19.11.58,7.83,13.95,13.61,28.59,19.34,43.21,7.07,18.06,14.1,36.16,19.19,54.69,10.25,37.3,9.98,76.36,23.85,112.98.98,2.59-3.17,4.62-4.3,1.64-13.66-36.07-13.53-74.43-23.36-111.19-4.96-18.56-11.93-36.68-18.99-54.74-6.15-15.73-12.22-31.52-20.91-46.44-7.75.22-15.39.43-22.9.63,17.77,22.03,20.22,48.82,31.47,73.12,6.3,13.59,14.83,26.54,19.09,40.74,4.59,15.3,1.22,30.9,1.72,46.52.61,18.64,5.05,36.99,13.04,54.33,1.3,2.81-2.3-.37-2.79-1.42-7.86-17.07-12.6-34.98-13.56-53.32-.51-9.81.64-19.58.81-29.41.17-10.02-2.03-19.52-6.08-28.89-7.42-17.14-17.28-33.14-22.95-50.82-5.58-17.41-9.91-35.76-22.65-50.8-15.18.39-29.86.72-44.03,1,15.43,35.74,29.87,71.59,38.24,109.02,4.05,18.11,6.52,36.37,8.93,54.69,2.45,18.63,5.67,37.21,13.92,54.72.98,2.09-3.18,5.14-4.48,2.39-7.88-16.72-11.21-34.47-13.64-52.27-2.62-19.13-4.97-38.22-9.21-57.14-8.43-37.66-22.99-73.71-38.52-109.68-.23-.52-.14-1.11.14-1.64-5.32.1-10.57.2-15.75.29,3.18,19.36,5.48,39.03,10.24,58.15,4.66,18.74,14.45,36.09,22.11,54.04,7.4,17.36,11.57,35.39,13.83,53.72,1.16,9.39,1.86,18.83,2.42,28.27.54,9.17,1.7,18.53.57,27.74-.36,2.92-4.19,2.82-3.82-.13,1.22-9.96-.15-20.2-.78-30.12-.58-9.13-1.34-18.26-2.54-27.34-2.51-18.89-7.46-37.16-15.45-54.95-7.61-16.94-16.28-33.51-20.45-51.34-4.47-19.1-6.89-38.62-10.09-57.91,0-.03,0-.05,0-.08-5.96.1-11.82.19-17.58.27,2.32,17.89,10.31,34.73,13.93,52.42,3.74,18.24,1.99,36.93,4.04,55.32,2.16,19.43,10.05,37.81,14.45,56.86,4.16,18.03,3.53,36.8,10.78,54.27-.06-.15-4.56-1.04-5.05-2.23-7.48-18.03-6.7-37.48-11.21-56.06-4.34-17.9-11.58-35.26-13.84-53.51-2.42-19.48-.32-39.32-4.6-58.62-3.61-16.3-10.61-31.93-13.22-48.37-9.45.13-18.62.23-27.51.32,1.36,6.29,3.98,12.37,5.99,18.58,2.83,8.73,4.6,17.68,5.92,26.66,2.67,18.11,4.25,36.35,6.81,54.48,2.61,18.45,5.64,36.84,9.07,55.18,1.65,8.84,3.25,17.82,7.23,26.18,2.87,6.01,6.44,10.63,3.3,17.16-1.23,2.56-2.17,2.39-.9-.24,1.71-3.54-2.79-8.7-4.32-11.77-1.92-3.85-3.3-7.86-4.41-11.92-2.36-8.65-3.71-17.51-5.27-26.28-3.1-17.43-5.84-34.91-8.19-52.43-2.29-17.12-3.6-34.38-6.5-51.43-1.42-8.38-3.4-16.66-6.26-24.77-2.28-6.45-4.73-12.75-5.48-19.37-9.35.08-18.39.15-27.11.19,1.67,6.16,5.13,11.9,8.27,17.69,3.69,6.8,6.33,13.59,7.12,21.06,1.78,16.82-1.21,33.97-.37,50.88,1.75,35.08,4.1,70.33,15.86,104.08.44,1.27-1.87,4.38-1.85,4.45-11.82-33.93-14.25-69.34-16.01-104.61-.41-8.12-.5-16.25-.07-24.4.5-9.37,1.5-18.84.24-28.15-1.98-14.56-13.85-26.6-15.91-40.98-5.91.03-11.68.04-17.3.05,3.64,12.95,6.61,25.92,7.7,39.31,1.24,15.28,1.68,30.64,1.8,45.98.12,16.02-1.46,32.22-.45,48.18,1.03,16.2,9.25,29.35,17.97,43.51,1.27,2.07-2.71,5.28-4.34,2.63-8.17-13.25-16.41-25.93-18-41-1.65-15.64.16-31.66.16-47.38,0-16.5-.46-33.02-1.74-49.46-1.11-14.23-4.29-27.99-8.2-41.75-11.12,0-21.63-.02-31.54-.07,3.71,3.51,6.54,7.2,7.72,11.92,1.63,6.49.76,13.28.71,19.88-.15,16.44,2.59,31.88,8.94,47.4,10.89,26.6,23.89,56.63,15.35,85.21-.75,2.52-3.09-1.65-2.68-3.02,8.25-27.6-5.46-56.61-15.79-82.27-4.79-11.91-7.76-23.96-8.51-36.54-.36-6.05-.3-12.11-.11-18.17.1-3.48.32-7.04-.33-10.49-.89-4.74-3.92-8.1-7.87-11.52-.48-.42-.74-1.46-.77-2.44-6.83-.04-13.36-.09-19.59-.13-.07.18-.19.13-.33-.02-1.22-.01-2.45-.02-3.65-.04,5.2,10.6,7.01,21.9,9.35,33.14,2.79,13.4,6.7,26.61,10.69,39.79,1.93,6.35,3.78,12.72,6.15,18.96,2.49,6.58,6.05,12.75,9.28,19.1,5.51,10.83,7.17,21.97,4.37,33.64-.4,1.69-4.41,4.36-3.67,1.28,3.34-13.93-1.28-25.64-7.96-38.18-5.73-10.74-9.05-22.07-12.48-33.41-3.63-11.98-7.15-24-9.76-36.17-2.66-12.36-4.24-24.96-10.52-36.53-.23-.42-.09-1.04.24-1.67-6.3-.07-12.29-.15-17.91-.24-4.05,9.4-2.7,19.93-1.05,29.53,2.02,11.73,4.76,23.38,8.1,34.9,3.08,10.63,6.93,21.06,10.72,31.53,3.7,10.22,6.67,20.57,5.74,31.33-.1,1.19-3.86,4.62-3.73,3.11,1.09-12.61-3.32-24.55-7.73-36.45-4.44-11.96-8.33-24.04-11.45-36.28-4.6-18.03-11.63-39.57-3.11-57.71-11.16-.18-20.92-.38-29.24-.58.29.47.57.94.8,1.44,1.13,2.44,1.69,5.09,2.2,7.68.76,3.93,1.42,7.77,2.99,11.51,1.34,3.18,3.04,6.23,4.61,9.32,6.69,13.24,12.04,27.01,17.37,40.74.58,1.49-3.27.27-3.68-.78-5.51-14.2-11.07-28.4-18.05-42.07-3.18-6.22-5.6-12.01-6.86-18.78-.59-3.2-1.27-6.26-2.73-9.15-6.74-.17-13.5-.52-20.28-.99l.03.4c-7.65-.26-11.55-.43-11.55-.43v-.85c-30.15-2.62-60.54-7.16-90.53-9.59-92.67-7.52-180.82-38.79-267.74-69.78-30.26-10.79-60.71-21.67-88.33-37.79-8.17-4.77-16.73-10.3-22.1-18.22-3.76-5.54-2.61-13.75,5.17-15.98,4.46-1.28,9.13.06,13.5,1.39,59.11,15.59,116.45,35.79,174.44,55.04,59.25,19.66,119.34,36.4,180.79,48.69,33.1,6.62,95.12,21.99,95.12,21.99,2.35.55,5.4,1.03,9.09,1.46.05-.35.07-.65.02-.87l.07.88c7.3.83,17.12,1.43,29.25,1.81-.24-2.87-.52-5.73-.52-8.5-.02-6.7.51-13.43,1.36-20.12.88-6.91,3.07-13.92,3.54-20.83.3-4.3-2.43-8.1-3.34-12.22-.57-2.57-.68-5.14-.58-7.77.08-2.02,2.47-4.54,2.34-1.17-.28,6.99,4.36,12.78,3.97,19.65-.45,8.08-2.97,16.24-3.92,24.32-1.04,8.8-1.25,17.55-.65,26.33,0,.12.01.24.02.36,4.55.13,9.41.23,14.57.31-1.72-12.07-4.4-24.06-4.24-36.3.12-8.81,1.28-17.59,2.62-26.34,1.47-9.65,4.21-19.82,2.7-29.5-.18-1.14,5.3.28,5.52,1.7,1.3,8.3-.67,16.75-1.97,25-1.61,10.24-3.21,20.51-3.35,30.84-.16,11.69,2.29,23.15,4,34.66,4.79.05,9.81.08,15.06.08,2.46-14.83-2.82-30.41-3.67-45.22-.62-10.81,2.05-21.44,3.34-32.2,1.28-10.68-.77-21.44,1.64-32.05.38-1.67,5.59.61,5.25,2.11-2.41,10.61-.35,21.37-1.64,32.05-1.38,11.4-4.14,22.61-3.21,34.07,1.1,13.54,5.35,27.65,3.82,41.23,4.78,0,9.75-.04,14.86-.08.33-6.55-2.09-12.4-2.98-18.84-.85-6.14-.56-12.25-1.86-18.36-1-4.74-1.74-9.4-1.2-14.26.65-5.87,2.18-11.67,2.76-17.56.61-6.2.76-12.4,1.15-18.6.73-11.76,3.07-23.32,5.73-34.95.19-.84,1.7,2.96,1.5,3.95-.09.47-.18.94-.28,1.41-.01.06-.03.09-.06.1-2.66,11.8-4.81,23.51-5.46,35.45-.34,6.2-.55,12.4-1.28,18.6-.75,6.4-2.93,12.88-2.57,19.29.32,5.68,2.25,11.18,2.58,16.88.22,3.68.08,7.34.9,10.97.61,2.73,1.63,5.38,2.23,8.11.56,2.56.8,5.17.78,7.81,5.18-.05,10.54-.11,16.04-.19-.67-8.12-2.06-16.24-2.52-24.31-.77-13.45-.27-26.95.91-40.43,1.22-13.99,3.17-27.96,5.14-41.92.97-6.87,1.92-13.75,3.23-20.6.67-3.5.48-8.62,4.07-11.35.23-.17.79-.52,1.15-.37.15.06.31.13.46.19.77.31.25,1.52.08,1.98-.04.11-.08.21-.12.32-.23.6-.69,1.17-1.18,1.58.13.11.08.41-.18.93-.21.93-.41,1.86-.59,2.8-.41,2.01-.77,4.02-1.11,6.04-.53,3.12-1,6.25-1.46,9.37-.95,6.52-1.86,13.05-2.75,19.58-1.76,13.03-3.31,26.08-4.08,39.14-.78,13.19-.75,26.4.66,39.51.63,5.86,1.4,11.68,1.76,17.51,4.82-.07,9.79-.16,14.84-.25.57-7.88-.09-15.84-.71-23.66-1.13-14.3-2.95-28.55-3.81-42.87-.82-13.76-.74-27.64,1.71-41.39,2.54-14.3,8.15-28.12,13.86-41.88.97-2.34,6.3-.26,5.45,1.78-5.71,13.76-11.32,27.58-13.86,41.88-2.6,14.64-2.41,29.4-1.39,44.03,1,14.31,2.84,28.56,3.85,42.87.45,6.34.83,12.75.5,19.13,6.7-.13,13.6-.29,20.68-.46-.37-8.98-2.15-18.08-1.51-26.83,1.23-16.71,5.76-33.07,5.37-49.85-.69-29.3-7.39-59.76,10.89-87.4,1.83-2.77,1.98,1.44,1.13,2.71-20,30.24-7.07,64.55-9.61,96.44-1.26,15.9-6.12,31.6-5.08,47.54.38,5.81,1.07,11.58,1.2,17.33,7.55-.19,15.32-.4,23.27-.62-.51-10.78-1.64-21.49-2.09-32.35-.7-17.12,3.5-34.19,3.91-51.31.74-30.85-5.36-61.85,11.15-91.4,1.4-2.51,2.22-2.31.78.26-17.03,30.48-7.11,64.43-9.72,96.13-1.26,15.3-4.27,30.47-3.22,45.79.76,11,1.81,21.85,2.08,32.8,9.79-.28,19.85-.6,30.2-.94-.68-3.66-1.58-7.27-2.18-10.63-1.36-7.67-2.99-15.29-4.4-22.95-2.97-16.14-2.76-32.16-1.39-48.51,2.82-33.47,4.65-67.2,11.54-100.47.49-2.37,4.4-3.83,3.74-.65-7.01,33.85-8.9,68.22-11.69,102.29-1.41,17.27-.76,33.87,2.59,50.84,1.62,8.21,3.22,16.41,4.58,24.66.29,1.76.61,3.53.9,5.3,10.21-.34,20.65-.71,31.34-1.1-.15-3.96-1.51-7.46-3.56-11.51-3.91-7.72-6.96-15.69-9.24-23.84-4.7-16.84-6.29-34.18-7.19-51.47-1.84-35.41-3.67-71.43,5.8-106.63.53-1.97,2.16-.89,2.26.55.06.96.13,1.91.19,2.87.08,1.15-.64,2.46-1.32,2.79-8.43,34.41-6.32,69.95-4.2,104.45,1.08,17.45,3.06,34.98,8.76,51.8,2.63,7.77,7,14.96,9.94,22.61,1.09,2.84,1.24,5.58,1.03,8.3,5.73-.21,11.54-.43,17.4-.66.48-14.76-3.92-29.32-8.15-43.66-4.89-16.58-7.9-32.93-8.18-50.11-.57-35.12,2.17-70.32,4.92-105.45-.02-.12-.03-.23-.02-.32.12-1.36.24-2.72.36-4.08.07-.76,1.89,2.91,1.81,3.94-2.98,38.17-6.53,76.6-5.11,114.75.73,19.42,6.74,37.49,11.75,56.26,2.51,9.41,4.38,18.99,4.5,28.61,4.96-.19,9.97-.39,15.02-.59.89-12.94,1.41-25.87.73-38.79-.96-18.44-5.94-36.08-8.74-54.27-2.82-18.33.3-37.01,1.11-55.48.82-18.74.68-37.47-.34-56.15-.07-1.28,5.48.1,5.55,1.42,1.02,18.68,1.17,37.41.34,56.15-.81,18.47-3.93,37.15-1.11,55.48,2.8,18.19,7.78,35.83,8.74,54.27.64,12.37.19,24.75-.62,37.14,4.01-.16,8.05-.32,12.11-.49.09-13.92,2.03-27.84,3.32-41.76,1.74-18.79.21-36.98-2.56-55.52-5.45-36.49-7.72-73.2-5.95-110.14.1-2.11,2.54-3.55,3.07-.73.17.87.33,1.73.49,2.6.16.84-.14,1.69-.61,2.26-1.42,36.36,1.24,72.35,6.55,108.29,2.5,16.91,3.8,33.62,2.36,50.74-1.24,14.72-3.42,29.43-3.53,44.13,6.53-.27,13.14-.55,19.8-.83-.75-5.61-1.34-11.24-1.42-16.9-.12-9.19,1.26-18.4.83-27.58-.45-9.66-2.52-19.19-3.55-28.8-1.04-9.76-1.43-19.58-1.43-29.4,0-19.59,1.96-39.21,1.77-58.8-.09-9.47-1.79-18.8-2-28.24-.19-8.74,6.32-16.17,6.67-24.7.12-3.02,5.47-1.64,5.36.83-.35,8.58-6.85,16.01-6.67,24.7.2,9.12,1.86,18.15,1.99,27.29.27,19.27-1.66,38.57-1.76,57.84-.05,9.82.28,19.64,1.23,29.41.89,9.07,2.72,18.04,3.5,27.11.78,9.14-.37,18.28-.57,27.44-.14,6.56.42,13.07,1.25,19.56,7.84-.34,15.78-.68,23.77-1.04-.18-11.24-.37-22.48-.74-33.72-.53-16.23-2.48-32.18-4.77-48.24-2.15-15.13-1.83-29.99-.6-45.25,1.35-16.62.94-33.1.32-49.68-.34-9.06-.61-18.12-.33-27.2.14-4.55-1.57-12.5,3.18-16.04.19-.15.41-.22.67-.19.82.37.87.7.93,1.44.07.93-.49,2.98-1.73,3.61-.69,4.56-.27,9.45-.31,13.9-.04,5.01.06,10.01.21,15.01.29,9.38.78,18.76.92,28.14.28,18.54-2.95,37.13-2.2,55.64.76,18.99,5.2,37.67,6.18,56.67.79,15.24.97,30.52,1.18,45.8,6.05-.27,12.15-.54,18.3-.82.63-10.76,1.57-21.52,2.88-32.27,2.14-17.53,5.46-34.39-1.82-51.23-2.72-6.29-5.96-12.45-7.68-19.01-1.79-6.84-1.37-13.85-.56-20.83,1.89-16.36,1.03-31.97-1.03-48.18-2.09-16.51-3.9-33.15.1-49.76.49-2.05,3.61-4.05,2.83-.81-7.23,30.01,5.12,59.64,1.91,89.7-.9,8.41-2.57,16.89-.79,25.23,1.65,7.74,5.86,14.87,8.84,22.27,5.45,13.55,4.29,27.43,2.37,41.57-1.95,14.39-3.37,28.78-4.2,43.19,7.47-.34,14.99-.69,22.57-1.04,2.51-15.56-1.89-31.67-2.83-47.03-1.21-19.67-.33-39.43.34-59.16.67-19.76,1.07-39.53-.81-59.18-1.86-19.39-4.96-38.67-2.74-58.25.35-3.12,4.43-.59,4.17,1.65-1.85,16.32.19,32.53,1.97,48.69,1.69,15.38,2.43,30.76,2.23,46.25-.38,31.11-3.27,62.37.23,93.33,1.26,11.19,3.07,22.35,1.73,33.5,6.87-.32,13.8-.65,20.76-.99-.08-11.67.96-23.36,1.85-35.05,1.16-15.26,1.18-30.24-.44-45.4-1.68-15.75-1.24-31.26-.29-47.11.94-15.67.79-31.32-.07-46.93-.98-17.82-2.8-35.57-4.61-53.32-.19-1.87,4.24,1.01,4.38,2.42,3.19,31.11,6.38,62.31,5.03,93.68-.69,15.86-2.24,31.61-.71,47.41,1.47,15.14,2.54,30,1.55,45.27-.84,12.95-2.22,25.9-2.31,38.83,6.27-.3,12.57-.61,18.91-.92-3.1-27.26,5.58-54.81,5.17-82.23-.24-16.17-3.15-32.16-3.96-48.29-.8-15.88-.28-31.84-1.57-47.69-.77-9.51-2.23-19-5.03-28.23-2.28-7.52-7.28-15.25-4.82-23.21.7-2.28,6.24-.56,5.64,1.37-2.36,7.63,2.55,15.11,4.74,22.33,2.3,7.61,3.69,15.4,4.55,23.22,1.69,15.35,1.38,30.83,1.84,46.25.47,15.58,2.79,30.97,3.85,46.5,1.08,15.73-.77,31.33-2.85,47.05-1.88,14.23-3.55,28.53-2.08,42.67,7.66-.38,15.35-.76,23.09-1.14-1-12.46-.26-25.01.3-37.55.71-15.91.14-31.35-3.37-46.94-1.66-7.36-3.35-14.72-3.79-22.24-.45-7.85.25-15.75,1.08-23.61,1.66-15.75,2.66-31.36,1.97-47.1-.81-18.29-3.12-36.46-5.44-54.62.08.64,2.99,2.46,3.16,3.81,4.04,31.68,7.58,63.31,4.16,95.35-1.67,15.61-2.68,30.66.63,46.04,3.3,15.32,5.49,30.14,5.03,45.82-.4,13.64-1.55,27.31-.86,40.9,6.47-.33,12.98-.65,19.51-.99-4.41-28.7-6.26-57.7-5.3-86.76.54-16.58,2.07-33.16,2.67-49.74.59-16.52-.37-32.77-2.46-49.13-2.18-17.05-4.22-34.24.26-51.37.42-1.61,5.04,1.08,4.99,2.36-.04.96-.08,1.92-.11,2.88-.01.29-.27.4-.66.4-3.14,14.62-1.85,29.29-.02,43.87,1.91,15.27,3.45,30.43,3.2,45.84-.54,32.23-4.17,64.33-2.5,96.54.78,15.02,2.34,29.98,4.57,44.86,6.18-.31,12.38-.63,18.61-.95,2.46-13.38,1.74-26.96.36-40.32-1.72-16.66-3.82-33.29-5.45-49.96-3.25-33.22-5.31-66.62-3.29-100.07.56-9.23,1.42-18.45,2.66-27.66.6-4.47,1.23-8.94,2.06-13.39.42-2.29.82-4.27,3.08-5.92.25-.18.74-.53,1.14-.4.85.29.88.47,1.1,1.17.37,1.2-.88,3.14-2.15,3.84-.04.02-.08.05-.13.07,0,.15-.02.32-.04.53-.13,1.36-.46,2.74-.67,4.1-.34,2.15-.65,4.3-.94,6.45-.55,3.99-1.02,7.98-1.44,11.98-.85,8.3-1.43,16.6-1.77,24.9-.66,16.33-.41,32.65.42,48.93,1.67,32.82,6.48,65.31,9.27,98.03,1.07,12.56,1.12,25.13-1.4,37.58,6.06-.31,12.14-.63,18.24-.95-3.36-29.06-4.94-58.29-4.58-87.58.41-33.07,3.73-66,.85-98.96-1.53-17.51.14-34.24,3.55-51.7.56-2.84,3.55-2.63,2.99.24-3.21,16.38-4.99,32.21-3.58,48.65,1.3,15.13,1.93,30.2,1.44,45.42-1.02,31.71-2.93,63.29-1.48,94.96.75,16.31,2.15,32.58,4.07,48.8,7.26-.38,14.54-.76,21.85-1.15-6.99-28.59-10.11-57.77-10.87-87.05-.87-33.02,2.42-66.02,2.7-99.04.16-19-2.42-37.8-5.11-56.58-.14-1,4.71.97,4.92,2.43,2.34,16.33,4.68,32.7,5.06,49.2.37,16.04-1.03,32.13-1.78,48.18-1.54,32.85-1.82,65.77,1.77,98.41,1.64,14.86,4.14,29.62,7.63,44.22,8.34-.44,16.7-.89,25.09-1.34,1.74-30.52-12.27-60.1-16.89-90-4.97-32.16-4.98-64.97-4.96-97.46.01-17.78.87-35.6,4.67-53.27.13-.6,2.43-4.27,2.6-3.96.32.57.65,1.14.97,1.71.41.72-1.08,2.52-1.98,3.52-5.76,30.82-3.91,62.39-2.97,93.21.5,16.47,1.5,32.94,3.87,49.26,2.32,15.97,6.56,31.53,10.74,47.19,4.37,16.32,7.9,32.82,6.25,49.67,4.97-.27,9.94-.54,14.92-.81-.14-13.37-4.84-26.52-6.92-39.7-2.62-16.62-3.25-33.44-3-50.25.48-33.45,4.05-66.89,3.27-100.32-.42-18.1-1.05-36.21,2.31-54.29.01-.08.03-.16.04-.23.15-.82,5.37.84,5.35,1.98-.02,1.05-.04,2.09-.06,3.14,0,.23-.22.34-.55.38-2.53,15.67-2.18,31.4-1.79,47.09.41,16.5.12,32.98-.72,49.51-1.68,33.08-4.58,66.35-.26,99.21,1.88,14.28,7.18,28.7,7.7,43.21,4.11-.22,8.22-.45,12.34-.68-1.81-31.44-3.47-62.98-.69-94.55,1.43-16.3,3.99-32.57,4.5-48.89.5-16.3-1.45-32.48-2.69-48.68-1.33-17.51-1.71-35.13,2.54-52.58.29-1.2,2.84,2.53,2.58,3.59-7.57,31.08-.17,62.07.22,93.12.21,16.26-2.05,32.49-3.76,48.72-1.7,16.1-2.38,32.2-2.28,48.31.11,16.97,1.01,33.9,1.98,50.83,6.07-.33,12.14-.67,18.22-1,4.79-13.94,1.58-29.09,1.69-43.18.13-16.81,1.43-33.64,1-50.43-.44-17.36-4.36-34.09-7.14-51.2-2.66-16.36-1.54-32.66-.15-49.17,1.51-17.89,3.54-35.81,9.88-53.24.55-1.51,5.1,1.35,4.56,2.84-5.94,16.33-8.12,33.1-9.59,49.86-1.43,16.4-2.91,32.76-.52,49.04,2.52,17.13,6.84,33.87,7.49,51.21.63,16.78-.64,33.61-.88,50.42-.21,14.07,2.96,29.4-.81,43.55,8.71-.48,17.43-.97,26.16-1.46.2-2.87-.25-5.96-.26-7.93-.02-4.3-.12-8.59-.32-12.88-.39-8.79-1.19-17.54-2.26-26.27-2-16.35-4.64-32.62-5.82-49.05-1.2-16.71-1.22-33.49-1.05-50.26.17-16,.18-32.02,1.53-48.02.7-8.31,1.77-16.63,3.48-24.88.89-4.3,1.97-8.59,3.24-12.84.72-2.42,1.48-8.6,4.02-10.79-.64-.1-.78-1.04-.76-1.4,0-.16.02-.31.03-.47.06-.93.52-2.58,1.76-3.05.15-.06.31-.12.46-.18.7-.27,1.1-.19,1.5.32,1.36,1.73.34,3.56-.36,5.43-1.73,4.56-3.27,9.14-4.51,13.78-2.21,8.28-3.68,16.65-4.66,25.03-2.08,17.77-2.03,35.6-2.23,53.38-.21,18.35-.22,36.72,1.24,54.99,1.51,18.86,4.93,37.53,6.73,56.37.89,9.33,1.38,18.69,1.44,28.07.02,3.22.43,6.91.06,10.46,6.99-.39,13.98-.79,20.97-1.18,1.95-6.72,2.3-13.42.96-20.36-1.59-8.19-4.4-16.17-6.03-24.36-3.17-15.95-3.88-32.18-3.77-48.39.11-16.73,1.15-33.48,1.44-50.21.28-16.45-1.76-32.69-1.94-49.1-.1-8.68,1.37-17.06,4.43-25.49,3.19-8.81,7.34-17.41,9.13-26.45.59-2.96,5.46-2.77,4.86.24-3.08,15.53-12.47,29.97-13.43,45.76-1.01,16.54,1.97,33.14,1.88,49.7-.2,34.31-4.48,69,2.25,102.9,1.8,9.09,5.16,17.94,6.51,27.09.91,6.18.42,12.33-1.2,18.39,6.35-.36,12.71-.72,19.05-1.08.55-6.58-2.12-13.57-3.19-19.84-1.35-7.9-2.38-15.85-3.16-23.82-1.58-16.18-2.06-32.44-1.99-48.71.14-32.23.64-64.92,4.59-97.13,1.06-8.63,2.51-17.26,4.57-25.81,2.1-8.71,6.12-17.52,5.49-26.39-.22-3.09,5.36-2.4,5.56.4.51,7.25-2.12,14.22-4.09,21.3-2.26,8.13-3.91,16.33-5.12,24.56-2.4,16.3-3.16,32.67-3.84,49.01-1.38,33.16-2.84,66.41.04,99.43.85,9.75,2.09,19.46,3.84,29.1,1.03,5.71,2.99,11.68,2.82,17.57,8.68-.5,17.36-1,26.03-1.5-2.26-14.19-5.13-28.29-8.75-42.27-3.95-15.28-7.11-29.94-6.83-45.72.58-32.67,1.79-65.42,4.37-98.09,1.48-18.67,3.55-37.32,6.46-55.92.47-3,5.54-1.08,5.16,1.37-5.06,32.26-7.49,64.64-8.93,97.01-.71,15.88-1.19,31.76-1.66,47.65-.25,8.53-.61,17.09.31,25.57.85,7.8,2.86,15.43,4.88,23.05,4.13,15.57,7.48,31.24,10.04,47.05,6.6-.38,13.2-.76,19.78-1.15-1.6-14.24-.62-28.72-3.7-42.8-1.63-7.47-4.44-14.74-5.4-22.32-.97-7.64-.41-15.43-.23-23.13.77-32,1.54-64,2.31-96,.43-18.06.87-36.12,1.3-54.18.01-.46,4.83,1.36,4.8,2.55-.76,31.68-1.52,63.37-2.28,95.05-.39,16.16-.78,32.32-1.16,48.48-.19,7.79-.64,15.63-.4,23.41.23,7.7,2.22,15,4.28,22.45,4.2,15.2,3.45,30.77,4.95,46.23,5.78-.34,11.55-.67,17.31-1.01.28-15.17-3.98-29.91-6.02-44.89-2.11-15.52-.21-31.03,1-46.64,2.56-32.97-3.04-65.94-5.01-98.74-.92-15.26-.46-30.78,7.29-45.28.91-1.71,3.09,2.48,2.41,3.76-7.67,14.34-7.74,29.7-6.72,44.74,1.09,15.93,2.47,31.84,3.72,47.75,1.2,15.32,2.44,30.64,1.44,46.05-1.02,15.8-3.48,31.57-1.55,47.3,1.88,15.31,6.24,30.33,6.32,45.77,6.98-.41,13.95-.82,20.9-1.23,1.81-38.08-3.39-75.83-7.61-113.55-2.18-19.51-4.07-39.06-4.52-58.7-.22-9.65-.55-19.48,1.53-29.09,2-9.2,6.13-18.08,6.54-27.43.12-2.78,5.07-.36,5.28,1.46.09.79.19,1.57.28,2.36.07.59-.18.92-.59,1.07-1.08,8.12-4.47,15.92-6.23,24-2.1,9.61-1.75,19.45-1.54,29.09.45,19.64,2.34,39.19,4.52,58.7,4.15,37.13,9.27,74.29,7.7,111.77,6.18-.37,12.34-.73,18.49-1.1-.88-8.14-.94-16.26-.54-24.49.27-5.46-.55-10.23-2.62-15.37-1.67-4.16-3.11-8.35-4.11-12.66-3.82-16.59-2.2-33.69,0-50.51,5.05-38.68,8.83-77.27,7.17-115.99-.14-3.25,2.43-1.22,2.52.85,1.58,36.95-1.27,73.96-6.28,110.88-2.6,19.19-5.58,39.03-.21,57.87,2.27,7.96,6.28,15.05,6.23,23.4-.05,8.72-.5,17.26.25,25.9,6.72-.4,13.43-.8,20.11-1.2,1.8-16.94-5.83-33.72-7.8-50.4-2.18-18.5-1.53-37.23-.93-55.86.56-17.25,4.46-34.02,7.01-51.16,2.77-18.57,3.85-37.22,3.41-55.82-.03-1.04,5.38.47,5.41,1.7.42,17.83-.56,35.7-3.07,53.51-2.61,18.55-6.86,36.7-7.41,55.36-.55,18.63-1.17,37.36,1.22,55.85,2,15.46,8.56,30.81,7.7,46.49,4.85-.29,9.69-.58,14.52-.87.01-.06.01-.11.03-.17,4.63-18.21.13-36.16-3.68-53.95-3.54-16.51-5.26-32.55-2.68-49.41,2.76-18.04,5.76-35.69,6.16-53.83.39-17.63.28-35.27,3.55-52.85.59-3.16,4.27-1.35,3.8,1.17-3.42,18.35-2.98,36.77-3.5,55.18-.49,17.35-3.57,34.25-6.21,51.5-2.82,18.45.31,35.8,4.18,53.79,3.43,15.94,6.25,32.08,2.46,48.32,5.37-.32,10.73-.65,16.07-.97-1.84-17.37-3.59-34.75-4.09-52.22-.51-18.09,1-36,3.29-54.07,2.46-19.41.84-38.03-.99-57.28-1.51-15.94-1.86-31.93,2.99-47.74.63-2.04,1.1,2.56.84,3.4-5.5,17.95-3,36.17-1.15,54.13,1.62,15.73,1.84,31.16-.12,46.98-2.24,18.15-3.9,36.09-3.33,54.26.54,17.54,2.36,35,4.22,52.44,4.54-.27,9.07-.55,13.58-.82,2.62-17.59.57-35.78.47-53.35-.1-17.96-.04-35.92.18-53.88.22-17.96.61-35.93,1.15-53.9.52-17.01.9-34.1,5.67-50.9.87-3.06,3.2.51,2.73,2.18-5.01,17.65-5.09,35.65-5.61,53.52-.52,17.97-.89,35.94-1.09,53.9-.2,17.96-.24,35.92-.11,53.88.11,15.98,1.68,32.34-.34,48.37,4.9-.3,9.78-.59,14.64-.89.21-9.61-1.41-19.1-2.16-28.66-.66-8.47-.45-16.97.28-25.47,1.73-20,6.12-39.86,6.31-59.9.32-34.48-6.63-69.73,7.8-103.52.27-.63.96,3.16.55,4.12-14.89,34.88-6.09,71.25-7.53,106.83-.72,17.73-4.4,35.34-6.08,53.04-1.02,10.81-.71,21.43.46,32.16.78,7.1,1.44,14.2,1.34,21.34,4.64-.28,9.25-.56,13.86-.85,2.39-17.74,4.58-35.5,3.77-53.28-.8-17.53-1.89-34.81-.67-52.42,2.51-36.21,7.64-72.39,12.13-108.53.36-2.93,4.25-2.79,3.89.16-4.49,36.14-9.62,72.32-12.13,108.53-1.28,18.43.3,36.49.82,54.84.47,16.83-1.6,33.66-3.86,50.45,4.06-.25,8.1-.5,12.14-.74.21-16.54,3.64-32.99,5.42-49.5,2.05-19.05-.42-38.05-.09-57.09.65-37.61,6.33-75.22,16.79-112.2.65-2.31,4.86.87,4.38,2.54-10.54,37.27-16.29,75.2-16.77,113.1-.23,18.16,2.06,36.26.25,54.43-1.6,16.17-5.05,32.27-5.52,48.46,6.81-.42,13.57-.83,20.29-1.25.57-34.93-7.81-69.46-1.06-104.49,3.68-19.07,9.73-37.83,12.66-56.98,2.87-18.79,5.22-37.62,7.8-56.42.29-2.1,6.05-.89,5.81.82-2.58,18.8-4.93,37.63-7.8,56.42-2.78,18.19-8.25,36.03-12.06,54.11-7.5,35.63.87,70.66.46,106.17,6.03-.37,12.03-.75,17.99-1.12.75-8.96-3.16-17.92-4.6-26.65-1.26-7.64-.88-15.4.04-23.12,2.24-18.84,5.8-37.66,8.76-56.45,3-19.03,5.99-38.06,8.99-57.09,2.73-17.37,4.74-34.94,10.02-52.05.9-2.93.98,1.53.69,2.47-5.79,18.78-7.73,38.19-10.73,57.25-3,19.03-5.99,38.06-8.99,57.09-1.5,9.51-3,19.03-4.5,28.54-1.56,9.91-3.64,19.91-3.75,29.87-.15,13.67,6.06,26.53,5.13,40.07,5.54-.34,11.05-.69,16.53-1.03-1.46-18.4-1.72-36.98.15-55.45,1.79-17.72,8-34.96,10.61-52.61,5.18-35.03,1.68-71.31,20.62-104.59,1.52-2.67,4.59.98,3.54,2.82-18.73,32.9-15.13,68.9-20.25,103.54-2.64,17.86-8.97,35.3-10.67,53.23-1.67,17.6-1.4,35.29-.04,52.82,6.1-.38,12.16-.76,18.17-1.14-2.53-12.09-5.24-24.21-6.41-36.47-1.35-14.2,1.43-27.06,6.01-40.88,10.03-30.26,17.01-60.34,21.57-91.23,1.11-7.52,2.48-15.03,4.75-22.43,1.18-3.85,2.61-7.65,4.41-11.37.8-1.65,1.44-4.78,3.97-5.29.81-.16,1.44.66,1.69,1.1.06.11.13.22.19.33.5.85.52,2.64-.56,3.31-.08.05-.17.1-.25.15-.13.08-.25.13-.36.18-8.21,15.88-9.66,32.8-12.13,49.53-2.59,17.58-6.79,35.02-11.85,52.32-4.99,17.07-13.47,34.56-14.06,52.05-.55,16.3,3.53,32.49,6.91,48.46,7.03-.44,13.98-.88,20.89-1.31-2.32-16.1-6.27-32.53-4.09-48.88,2.17-16.34,6.02-32.69,10.08-48.84,8.16-32.42,19.11-64.47,32.62-95.91,1.25-2.91,5.97-.38,4.88,2.16-13.35,31.07-24.16,62.73-32.23,94.77-3.93,15.6-7.49,31.34-9.83,47.1-2.45,16.48,1.52,33.03,3.87,49.27,5.03-.32,10.03-.63,14.98-.95-5.64-31.35-3.29-62.96,5.68-94.27,4.87-17,9.9-33.98,14.86-50.97,4.41-15.12,8.76-30.34,18.2-44.24.85-1.25,3.97,2.53,3.02,3.92-9.48,13.96-13.68,29.32-18.11,44.5-4.7,16.12-9.45,32.23-14.11,48.35-8.89,30.78-11.67,61.67-6.42,92.51,6.22-.39,12.37-.78,18.47-1.17,2.1-7.54,1.44-15,.86-22.56-.6-7.82-.73-15.66-.35-23.52.78-16.08,3.51-32.12,7.2-48.02,3.58-15.42,7.93-30.78,12.71-46.03,4.37-13.94,9.81-27.74,19.68-40.09-.31.39,3.35,3.28,2.55,4.28-10.41,13.01-15.86,27.62-20.36,42.33-4.61,15.05-8.91,30.17-12.36,45.38-3.48,15.31-6.04,30.75-6.78,46.22-.38,7.86-.25,15.7.35,23.52.47,6.13.97,12.19.03,18.28,4.21-.27,8.38-.53,12.53-.8.63-27.53,3.68-55.11,10.51-82.31,3.61-14.38,8.28-28.63,14.13-42.61,6.22-14.88,14.19-29.34,18.97-44.53.52-1.67,4.68-4.29,3.72-1.24-4.36,13.86-11.31,27.1-17.25,40.6-6.45,14.66-11.51,29.66-15.4,44.81-7.22,28.09-10.27,56.6-10.8,85.04,6.25-.4,12.39-.79,18.49-1.18-2.22-3.34-1.24-7.36-.78-11.44.86-7.73,1.69-15.47,2.64-23.19,1.8-14.76,4.04-29.55,8.1-44.11,4.22-15.14,10.95-29.73,17.63-44.34,7.07-15.47,14.14-30.93,21.21-46.4,1.07-2.34,5,1.03,4.22,2.75-6.26,13.68-12.51,27.36-18.77,41.05-6.19,13.53-12.73,27.04-17.39,40.92-4.64,13.83-7.36,27.96-9.34,42.09-.96,6.86-1.76,13.73-2.53,20.61-.4,3.56-.79,7.11-1.19,10.67-.24,2.11-2.32,8.95-.24,10.45.26.18.47.42.64.69,4.27-.27,8.49-.54,12.68-.81,1.54-14.13,3.07-28.25,4.63-42.38,1.52-13.8,5.19-27.06,9.18-40.59,8.33-28.25,17.44-56.49,31.88-83.41,1.54-2.87,2.13,1.28,1.43,2.58-13.95,26.01-22.84,53.24-30.92,80.54-4.21,14.22-7.93,28.1-9.52,42.6-1.48,13.51-2.95,27.01-4.43,40.52,4.19-.27,8.33-.54,12.44-.8-.56-3.61.84-8.12,1.27-11.77.49-4.21,1-8.42,1.54-12.63,2.04-15.97,4.53-31.93,8.33-47.75,7.91-32.9,23.16-64.19,40.28-94.97.26-.47,5.39,1.76,4.8,2.81-14.76,26.53-28.46,53.52-36.73,81.65-4.33,14.7-7.26,29.59-9.55,44.51-1.06,6.9-1.97,13.81-2.83,20.73-.44,3.61-.87,7.21-1.29,10.82-.14,1.21-.85,3.86-1.1,6.3,4.96-.32,9.85-.64,14.67-.95-.85-6.05,1.32-11.84,2.91-17.81,1.82-6.85,2.9-13.78,3.86-20.7,1.83-13.1,3.26-26.34,8.36-39.07,5.42-13.52,14.07-26.07,18.86-39.78,5.03-14.4,8.45-29.13,12.39-43.7.3-1.1,4.13-4.75,3.5-2.43-3.56,13.17-6.81,26.42-10.98,39.5-4.36,13.68-11.64,26.12-18.04,39.27-6.47,13.3-8.34,27.24-10.23,41.17-.9,6.64-1.84,13.29-3.37,19.88-1.62,6.99-4.85,13.92-3.6,21.02.09.55-.61,1.64-1.42,2.49,4.6-.3,9.16-.59,13.64-.88,2.65-12.63,5.3-25.25,7.95-37.88,2.93-13.97,4.98-28.27,9.61-42.02,9.16-27.22,23.11-53.27,29.92-80.98.73-2.96,5.53-.53,4.92,1.95-6.67,27.13-19.97,52.72-29.34,79.31-4.9,13.89-6.95,28.4-9.91,42.55-2.57,12.24-5.13,24.48-7.7,36.71,4.45-.29,8.83-.57,13.15-.86-2.24-12.04,1.12-24.52,3.4-36.56,2.48-13.14,5.58-26.17,9.8-39.08,8.64-26.47,20.03-52.49,30.52-78.59.63-1.56,5.02,1.46,4.4,3-10.04,24.94-20.81,49.8-29.35,75.05-4.21,12.45-7.5,25.01-10.02,37.69-2.45,12.32-6.41,25.75-4.65,38.22,5.65-.37,11.16-.73,16.58-1.08,3.21-13.23,2.57-26.6,4.24-39.92,1.59-12.67,4.9-25.22,9.11-37.57,4.32-12.67,9.57-25.15,14.95-37.59,5.37-12.4,10.53-24.91,18.27-36.61-.35.53,3.47,3.14,2.77,4.19-7.57,11.44-12.65,23.64-17.9,35.76-5.51,12.72-10.91,25.48-15.32,38.43-4.48,13.15-7.94,26.51-9.37,40.01-1.17,11.03-1.02,22.08-3.03,33.05,3.24-.21,6.44-.42,9.59-.63-.19-.29-.39-.52-.63-.64-1.92-.96-1.6-5.65,1-4.35,1.72.86,2.77,2.28,3.42,3.96,4.92-24.32-1.25-48.83,4.33-73.11,2.78-12.11,9.05-23.63,15.39-34.9,6.41-11.39,13.49-22.55,21.16-33.48,1.13-1.6,4.96,1.51,4.83,2.66-.07.64-.14,1.27-.21,1.91-.06.55-.66.66-1.41.5-7.34,10.59-14.14,21.38-20.27,32.41-6.29,11.31-12.31,22.82-14.84,34.98-4.5,21.61-.12,43.36-2.93,65.02,1.17-.61,2.69-.39,2.99,1.37.16.94.34,1.87.52,2.8,3.08-.2,6.12-.4,9.1-.6-1.15-.46-2.27-.99-2.25-1.58.56-23.17,1.94-46.63,9.79-69.3,7.82-22.58,19.54-44.69,32.35-65.89.08-.13,4.66,2.21,4.79,2.83.12.58.24,1.17.35,1.75-.05-.24-.44-.47-.98-.7-12.56,20.89-24.03,42.64-31.72,64.85-7.69,22.21-9.17,45.17-9.75,67.88,8.09-.53,15.81-1.04,23.11-1.53-.34-.44-.66-.87-1.03-1.3-1.67-1.96,1.7-2.78,3.91-2.04.41-19.81,9.46-39.9,16.76-58.8,4.05-10.5,8.4-20.93,13.03-31.29,2.32-5.18,4.7-10.34,7.16-15.49,1.41-2.94,2.16-7.31,6.21-8.7.81-.28,1.96-.03,2.43.54,1.02,1.24.94,2.18.06,3.52-.39.6-1.28,1.14-2.18,1.23-.74,1.51-1.84,4.75-2.12,5.33-1.09,2.29-2.16,4.58-3.22,6.87-2.12,4.59-4.19,9.19-6.19,13.81-4.14,9.52-8.04,19.11-11.7,28.74-7,18.44-15.55,37.8-15.08,57.03,1.45-.1,2.88-.19,4.3-.29-.43-.92-.86-1.84-1.3-2.76-1.37-2.9,3.81-2.42,4.84-.23.09-8.48,2.63-16.74,5.34-25,3.08-9.38,6.64-18.68,10.7-27.85,8.15-18.44,18.3-36.35,30.15-53.59,1.1-1.59,2.5,2.8,1.66,4.02-10.98,15.97-20.45,32.5-28.21,49.53-3.72,8.17-7.06,16.43-10,24.77-3.31,9.4-7.2,19.37-7.03,29.11.01.72-.16,1.25-.41,1.63,6.47-.43,12.55-.84,18.18-1.21-.29-.66-.57-1.32-.86-1.97-.29-.64.02-2.73.53-3.6-.16-.37-.2-.81-.07-1.33,4.54-18.03,11.05-35.78,19.56-53,4.2-8.51,8.88-16.88,14.03-25.08,2.73-4.36,5.6-8.67,8.6-12.92,1.58-2.24,2.71-5.12,6.07-5.86.89-.2,1.84.36,2.2.93.82,1.28.52,2.28-.44,3.5Z"/>
      <path class="cls-3" d="M355.18,458.64c-2.26-19.06-4.23-38.17-8.59-56.96-4.31-18.58-10.65-36.78-17.8-54.72-7.35-18.44-14.42-37.52-24.32-55.16-.73-1.3,4.36.43,4.95,1.47,9.09,16.21,15.57,33.61,22.47,50.51,7.31,17.9,13.91,36.03,18.6,54.55,4.74,18.71,7.02,37.75,9.25,56.8,1.08,9.24,2.17,18.48,3.59,27.68,1.33,8.61,2.16,18.12,9.79,24.74,1.9,1.65-3.5-.07-4.36-.82-6.09-5.28-8.18-12.02-9.49-19-1.8-9.63-2.93-19.37-4.09-29.08Z"/>
    </g>
  </g>
</svg>