<?xml version="1.0" encoding="UTF-8"?>
<svg id="Layer_2" data-name="Layer 2" xmlns="http://www.w3.org/2000/svg" viewBox="0 0 748.43 1917.44">
  <defs>
    <style>
      .cls-1 {
        fill: none;
      }

      .cls-2 {
        fill: #87c474;
      }

      .cls-3 {
        fill: #992;
      }

      .cls-4 {
        fill: #ff6c5e;
      }

      .cls-5 {
        fill: #ff9721;
      }

      .cls-6 {
        fill: #6172c8;
      }

      .cls-7 {
        fill: #ecf2fc;
      }

      .cls-8 {
        fill: #006d70;
      }

      .cls-9 {
        fill: #784433;
      }

      .cls-10 {
        fill: #ffde4a;
      }

      .cls-11 {
        fill: #00a0fb;
      }

      .cls-12 {
        fill: #59590e;
      }

      .cls-13 {
        fill: #c9ba9e;
      }

      .cls-14 {
        fill: #0041b6;
      }
    </style>
  </defs>
  <g id="Layer_1-2" data-name="Layer 1">
    <g>
      <path class="cls-12" d="M495.04,1011.15c1.78-5.28,1.98-11.12,2.09-16.64.13-6.52-.14-13.03-.24-19.55-.04-2.74-.06-5.49.08-8.23.09-1.84.15-3.87.8-5.62.36-.97,1-1.75,2.12-1.5.76.17,1.39.75,2.04,1.14,1.28.78,2.65,1.4,4.04,1.96,7.45,2.99,15.69,4.36,23.66,5,4.1.32,8.23.42,12.33.04,3.01-.28,6.16-.76,8.9-2.09,4.6-2.23,5.34-7.15,2.4-11.17-3.73-5.11-11.06-6.92-16.89-8.17-7.76-1.66-15.69-2.35-23.54-3.39-3.33-.44-6.68-.92-9.93-1.77-2.1-.55-4.59-1.23-6.15-2.84-3.86-3.99,3.69-6.79,6.54-7.31,7.51-1.39,15.56-.38,23.05.64,8.72,1.19,17.37,2.95,25.92,4.98,6.7,1.59,13.25,3.6,19.87,5.46,5.2,1.46,10.84,2.74,16.27,2.07,3.12-.39,6.18-1.58,8.04-4.23,1.68-2.39,2.17-5.45,2.11-8.31-.04-1.86.06-4.17-1.43-5.53-2.73-2.5-7.47-2.97-10.95-3.47-13.36-1.93-27.02-1.73-40.48-2.35-6.35-.29-12.73-.62-19.02-1.53-3.52-.51-8.52-.99-11.25-3.59-2.88-2.73,1.93-6.06,3.97-7.45,6.64-4.55,15.09-6,22.96-6.55,17.87-1.25,36.09,1.84,53.46,5.81,4.84,1.11,9.63,2.37,14.4,3.71,2.3.65,4.76.53,7.12.3,3.47-.33,6.91-1.05,10.24-2.07,5.77-1.77,13.2-4.83,15.47-10.99,1.71-4.64-.28-9.84-4.62-12.11-4.89-2.55-10.91-3.02-16.31-3.39-7.75-.53-15.54-.39-23.29-.14-15.51.5-31.1,2.04-46.62,1.43-2.61-.1-5.24-.28-7.81-.74-1.67-.3-3.53-.69-4.96-1.68-.82-.57-1.84-1.72-1.18-2.71.96-1.45,3.48-2,5.03-2.39,6.68-1.66,13.86-1.69,20.7-1.73,8.29-.05,16.58.28,24.85.79,12.35.77,24.59,2.67,36.95,3.27,8.15.4,16.67.63,24.69-1.12,4.42-.96,10.51-3.35,9.21-9.03-.83-3.6-5.61-4.52-8.66-5.06-6.28-1.13-12.78-1.15-19.14-1.17-15.5-.05-31.13,1.03-46.59-.47-5.23-.51-11.24-1.14-15.79-4.02-2.84-1.8-4.85-5.29-2.12-8.09,3.31-3.39,8.96-4.56,13.39-5.51,7.3-1.55,14.77-2.26,22.2-2.8,15.85-1.15,31.73-1.19,47.61-1.68,4.83-.15,9.8-.16,14.57-1,2.71-.48,6.23-1.56,7.69-4.08,1.17-2.02.59-4.21-.85-5.9-2.95-3.46-8.39-3.79-12.62-3.99-7.66-.35-15.38.58-22.97,1.56-7.99,1.03-15.94,2.33-23.94,3.24-3.28.37-6.58.69-9.89.73-2.26.03-4.65,0-6.83-.68-1.37-.42-2.9-1.25-3.03-2.84-.17-2,1.66-3.85,3.11-4.95,5.13-3.89,12.37-5.08,18.55-6.15,8.46-1.47,17.03-2.26,25.55-3.31,7.07-.87,14.43-1.64,21.19-4.03,3.52-1.25,8.49-3.88,7.73-8.46-.28-1.7-1.88-2.42-3.41-2.75-2.82-.6-5.85-.34-8.69-.09-8.41.74-16.72,2.39-25.08,3.48-4.14.54-8.31,1-12.48,1.11-3.3.09-6.85.1-10.04-.84-.73-.21-1.45-.63-1.65-1.14,0-.01.02-.03.03-.04.06-.08.19-.29.28-.41.34-.46.78-.86,1.21-1.23,2.97-2.6,6.61-4.52,10.02-6.46,10.88-6.18,22.03-11.87,32.65-18.52,5.3-3.32,10.51-6.84,15.3-10.88,3.84-3.23,7.61-6.89,10.06-11.32,1.88-3.4,2.92-7.44,1.78-11.26-1.37-4.59-5.63-8.66-10.1-10.2-5.58-1.93-11.33.47-15.96,3.59-6.19,4.17-11.38,9.79-16.29,15.35-5.38,6.09-10.44,12.45-15.86,18.51-4.13,4.62-8.66,9.81-14.34,12.55-1.77.86-9.05,2.77-8.37-1.38.31-1.89,1.69-3.75,2.72-5.3,1.71-2.57,3.62-5.01,5.52-7.44,4.22-5.41,8.59-10.75,12.25-16.57,2.67-4.24,5.75-9.57,5.19-14.8-.44-4.06-4.23-7.46-8.39-6.49-5.27,1.23-9.2,6.95-12.07,11.1-9.57,13.85-15.97,29.77-23.25,44.86-1.46,3.02-2.93,6.04-4.58,8.97-.63,1.11-1.28,2.2-2,3.26-.67.98-1.6,2.57-2.77,3.05-2.09.87-1.98-3.71-2.02-4.77-.16-4.55.16-9.13.34-13.67.24-5.91.43-11.83.3-17.74-.13-6.16-1.05-12.24-1.29-18.39-.19-4.87.13-9.71.49-14.57.18-2.41.61-5.28-.31-7.6-.86-2.15-3.08-2.7-5.19-2.85-2.32-.16-5.21-.34-7.27.96-3.61,2.27-4.8,7.46-5.54,11.34-1.29,6.8-1.43,13.81-1.46,20.71-.03,8.43.28,16.86.5,25.29.22,8.36.43,16.73.06,25.09-.27,6.12-.59,12.8-3.01,18.53-.63,1.48-3.4,6.93-5.55,4.26-.93-1.15-1.25-2.85-1.55-4.25-.53-2.46-.8-4.98-1.05-7.48-1.36-13.84-1.41-27.8-3.59-41.56-.86-5.4-1.89-11.21-4.65-16.02-1.6-2.79-4.78-5.89-8.31-4.51-3.33,1.3-3.93,6.2-4.19,9.24-.53,6.28.25,12.7,1.05,18.92,2.12,16.52,5.62,32.83,7.48,49.39.75,6.71,1.45,13.68.56,20.41-.09.67-.98,7.18-2.63,6.51-.6-.24-.85-1.56-.99-2.08-.42-1.52-.66-3.09-.88-4.65-.72-4.99-1.13-10.02-1.56-15.04-1.19-13.88-2.2-27.78-3.97-41.59-.85-6.61-1.84-13.22-3.28-19.73-1.12-5.08-2.45-10.24-4.74-14.93-1.37-2.8-3.4-6.17-6.65-6.99-3.22-.82-6.22,1.26-7.81,3.93-2.4,4.04-2.9,9.15-3.12,13.75-.32,6.84.24,13.73.99,20.53,1.78,16.24,4.89,32.3,7.54,48.41,1.12,6.85,2.22,13.71,2.86,20.62.39,4.2,1.05,9.14-.26,13.25-.47,1.49-2.01,5.79-4.29,4.16-.96-.69-1.57-1.95-2.09-2.98-.87-1.76-1.55-3.62-2.19-5.47-3.96-11.39-6.78-23.15-10.79-34.53-2.11-5.99-4.31-11.82-5.57-18.06-1.02-5.05-1.57-10.16-2.1-15.28-.36-3.45-.6-7.09-1.76-10.39-.79-2.25-2.18-4.21-4.59-4.81-2.44-.6-5.93-.1-8.12,1.12-1.4.78-2.33,2.14-2.94,3.6-1.77,4.24-1.41,9.3-.93,13.76,1.49,13.75,5.77,27.2,9.56,40.44,1.69,5.9,3.44,11.79,4.79,17.78.47,2.06.91,4.14,1.1,6.25.07.84.3,2.42-.24,2.92-.75.69-1.92-.03-2.6-.48-2.17-1.41-3.8-3.62-5.23-5.74-4.28-6.35-7.35-13.53-10.49-20.49-3.4-7.52-6.67-15.13-10.71-22.34-2.69-4.82-6.13-11.05-11.45-13.39-3.2-1.41-7.22-.54-8.03,3.2-.9,4.15,1.46,8.78,3.23,12.37,3.21,6.53,7.16,12.69,11.08,18.8,4.56,7.1,9.24,14.13,13.71,21.29,4.09,6.55,8.12,13.21,11.27,20.27,1.2,2.71,2.29,5.5,2.97,8.39.46,1.99.87,4.31.34,6.32-1.55,5.8-12.3-7.82-13.37-9.12-7.7-9.32-14.81-19.16-23.22-27.87-3.39-3.51-7.06-7.07-11.4-9.39-2.89-1.55-6.48-2.51-9.41-.52-1.55,1.05-2.64,2.64-3.47,4.28-.92,1.83-1.92,4.03-1.87,6.12.1,4.24,3.8,8.1,6.52,10.97,9.29,9.75,20.69,17.42,31.36,25.55,3.44,2.62,7.48,5.25,10.18,8.69.05.06.32.54.51.89-.12.05-.26.11-.31.12-1.6.38-3.66-.29-5.19-.64-12.19-2.8-23.89-7.07-35.85-10.65-3.8-1.14-7.71-2.21-11.69-2.45-2.22-.13-4.95-.18-6.96.93-2.53,1.4-3.23,4.56-2.76,7.22.77,4.31,4.04,7.93,7.29,10.64,5.91,4.93,13.23,8.04,20.53,10.24,11.86,3.57,24.33,4.82,36.67,5.08,4.58.39,9.43,2.39,12.84,5.45,3.26,2.92,5.12,6.94,5.47,11.29.23,2.91-.09,5.89-.31,8.79-.25,3.2-.56,6.38-.89,9.57-1.21,11.85-3.1,24.55-.03,36.28,1.31,4.98,3.74,9.65,7.59,13.12,2.57,2.32,6.1,4.85,9.68,5.19,4.01.39,6.2-3.11,7.33-6.46ZM607.48,799.49c0,.05-.09.12,0,0h0Z"/>
      <path class="cls-13" d="M469.57,939.1c-.17-.76-.33-2.03.03-2.77,6.7-13.85,15.19-26.79,24.38-39.1,9.73-13.04,20.33-25.43,31.37-37.37,10.15-10.97,20.7-21.57,31.53-31.86,8.11-7.7,16.38-15.23,24.82-22.58,2.6-2.26,5.22-4.51,7.86-6.73.8-.67,1.6-1.34,2.41-2.01.37-.3.81-.83,1.25-1.03.06-.03.11-.09.16-.13.48-.39.67,1.16.7,1.38.07.52.3,2.09-.22,2.5-3.16,2.56-6.25,5.21-9.33,7.86-7.98,6.88-15.81,13.94-23.5,21.15-10.61,9.95-20.96,20.19-30.95,30.77-11.1,11.76-21.77,23.93-31.67,36.72-9.53,12.31-18.43,25.21-25.66,39.01-.85,1.61-1.66,3.24-2.45,4.88-.36.75-.66-.36-.73-.69Z"/>
    </g>
    <g>
      <path class="cls-12" d="M414.01,705.79c-17.47,2.6-32.62,12.95-45.42,24.61-14.21,12.95-26.73,27.96-38.42,43.18-12.24,15.94-23.44,32.66-33.89,49.82-10.45,17.17-20.15,34.79-29.44,52.61-9.35,17.93-18.28,36.08-27.16,54.25-1.1,2.24-2.19,4.49-3.29,6.73-.67,1.38-6.25,1.04-5.6-.29,8.99-18.43,17.99-36.85,27.39-55.08,9.34-18.13,19.06-36.07,29.53-53.58,10.46-17.5,21.66-34.57,33.91-50.87,11.83-15.74,24.55-31.12,38.84-44.71,12.87-12.24,27.81-23.08,45.33-27.31,2.17-.53,4.37-.95,6.58-1.28.78-.12,3.13-.35,3.59.55.48.95-1.41,1.28-1.96,1.36h0Z"/>
      <g>
        <path class="cls-3" d="M440.8,617.57c4.94-7.37,10.89-14.51,18.5-19.7,19.7-13.13,40.63-23.33,60.8-35.21,11.95-7.04,23.77-14.51,35.18-22.77,10.2-7.38,19.85-15.51,29.46-23.74,17.95-15.36,35.64-31.04,53.76-46.19,8.02-6.71,16.13-13.33,24.47-19.59,6.19-4.64,12.65-9.33,19.37-12.77,2.12-1.09,4.24-1.98,6.4-2.61,4.58-1.34,8.71-3.19,13.08-5.97,7.43-4.72,14.38-10.9,22.19-14.61,6.59-3.13,13.67-4.14,18.87-2.07,3.28,1.31,6.13,4.22,5.44,8.41-.86,5.28-6.97,10.64-11.06,14.95-5.94,6.27-11.89,12.53-17.72,18.88-17.02,18.52-33.28,37.68-47.79,57.67-9.53,13.13-17.45,26.74-26.58,40-6.82,9.9-14.07,19.64-21.56,29.24-18.95,24.3-39.5,47.89-61.68,69.98-22.18,22.1-46.63,43.6-73.32,59.21-22.13,12.94-46.75,21.37-67.16,17.88-9.17-1.57-17.61-5.38-23.77-11.01-5.5-5.02-10.98-11.44-12.03-19.66-.55-4.29.64-9.18,4.79-13.41,2.74-2.79,5.93-4.36,9.07-6.47,3.83-2.57,7.24-5.84,10.22-9.34,13.46-15.79,19.9-34.47,31.06-51.13Z"/>
        <path class="cls-12" d="M397.36,715.03l218.45-192.66s-157.93,162.13-218.45,192.66Z"/>
      </g>
    </g>
    <g>
      <path class="cls-12" d="M296.1,1022.14c-.21,38.59.1,77.19.91,115.77.1,4.73.21,9.46.32,14.2.04,1.62-2.36,3.43-3.52,4.26-.12.09-.45.31-.85.55-.85.04-1.7.09-2.55.14-.93-38.55-1.36-77.1-1.28-115.66.08-38.77.68-77.55,1.78-116.31,1.1-38.58,2.71-77.14,4.82-115.67,2.02-36.84,4.01-73.78,7.93-110.48,3.71-34.78,9.7-69.57,21.51-102.6,1.45-4.04,2.98-8.05,4.6-12.02.73-1.79,2.63-3.38,4.27-4.31.66-.38,3.12-1.47,2.38.33-13.26,32.64-20.29,67.32-24.55,102.19-4.41,36.09-6.39,72.49-8.49,108.77-2.23,38.53-3.95,77.09-5.17,115.66-1.21,38.39-1.92,76.8-2.12,115.21Z"/>
      <g>
        <path class="cls-3" d="M456.56,490.04c7.35-34.21,11.18-69.09,17.85-103.44,3.94-20.27,8.63-40.42,14.65-60.18,5.14-16.88,11.47-33.37,17.8-49.83,11.89-30.94,24.26-61.69,35.82-92.75,9.21-24.73,19.06-50.01,23.99-76.03.77-4.07,1.41-8.21,1.51-12.36.12-4.93-.73-9.76-.36-14.71,1.09-14.32,6.7-27.75,9.71-41.68,2.52-11.68,2.68-23.79-5.39-33.39-3.38-3.89-8.96-6.69-14.14-5.32-8.82,2.33-12.89,13.43-16.7,20.81-12.61,24.41-25.24,48.79-39.01,72.57-19.24,33.22-40.25,65.6-64.5,95.4-9.72,11.95-19.15,24.02-28.06,36.59-24.5,34.54-46.75,70.74-67.01,107.91-22.86,41.94-43.46,85.52-58.16,131.04-12.19,37.77-22.13,79.93-14.62,119.67,5.3,28.04,22.13,54.18,49.29,65.13,14.44,5.82,34.45,9.01,44.09-6.49,3.11-4.99,4.27-10.57,5.4-16.25,1.48-7.4,4.48-14.41,8.22-20.93,7.92-13.81,18.87-25.68,29.63-37.29,11.27-12.16,22.9-24.14,32.5-37.7,4.6-6.5,8.71-13.38,11.77-20.74,2.68-6.45,4.24-13.22,5.7-20.03Z"/>
        <path class="cls-12" d="M315.68,646.89l163.5-407.46s-151.8,305.61-163.5,407.46Z"/>
      </g>
    </g>
    <path class="cls-12" d="M373.65,559.28c-1.08.64-33.3,31.18-45.89,54.08l-4.08-3.59s36.4-48.93,43.79-56.47l6.18,5.98Z"/>
    <g>
      <path class="cls-14" d="M516.71,439.68c-.97.27-1.95.63-2.85,1.07-2.74,1.34-5.34,3.02-7.94,4.6-4.79,2.9-9.55,5.86-14.32,8.81-6.14,3.81-12.28,7.62-18.43,11.43-6.77,4.19-13.56,8.36-20.36,12.5-6.57,3.99-13.16,7.95-19.8,11.83-5.63,3.29-11.3,6.54-17.05,9.62-3.93,2.1-7.92,4.24-12.09,5.82-1.04.39-2.17.84-3.29.89-1.38.06-2.19-1.02-2.31-2.3-.22-2.27.69-4.68,1.44-6.78,1.07-2.98,2.34-5.88,3.58-8.79,1.19-2.8,2.41-5.61,3.32-8.51.35-1.11.66-2.25.81-3.41.1-.82.15-1.73-.16-2.52-.61-1.57-2.68-1.61-4.04-1.11-1.26.46-2.07,1.79-2.67,2.91-1.12,2.08-1.86,4.36-2.53,6.62-1.88,6.36-3.06,12.94-4.13,19.48-.6,3.68-1.33,7.31-2.34,10.9-.5,1.79-1.06,3.57-1.67,5.34-.4,1.15-.84,2.26-.98,3.48-.19,1.56-.15,3.85,1.17,4.96,1.42,1.19,3.41-.24,4.49-1.21,5.77-5.26,11.88-10.15,18.09-14.88,7.15-5.45,14.46-10.67,21.84-15.79,7.71-5.34,15.51-10.56,23.36-15.7,7.44-4.88,14.91-9.68,22.41-14.46,6.34-4.04,12.69-8.05,19.03-12.07,4.48-2.85,8.97-5.68,13.37-8.65,1.27-.86,2.54-1.72,3.76-2.66.35-.27.7-.55,1.03-.86.12-.11.41-.34.42-.53.02-.42-.95-.08-1.15-.03Z"/>
      <path class="cls-11" d="M503.78,449.77c-.54.17-1.08.6-1.57.88-1.52.86-3.03,1.72-4.53,2.6-2.26,1.32-4.52,2.66-6.77,4-2.85,1.69-5.69,3.39-8.53,5.09-3.28,1.96-6.57,3.92-9.85,5.88-3.57,2.13-7.15,4.25-10.73,6.37-3.71,2.2-7.43,4.39-11.16,6.57-3.72,2.18-7.45,4.34-11.19,6.49-3.57,2.05-7.15,4.08-10.74,6.09-3.24,1.81-6.49,3.6-9.77,5.34-2.79,1.49-5.59,2.94-8.42,4.34-2.18,1.07-4.38,2.11-6.62,3.03-1.4.57-2.86,1.17-4.37,1.42-.54.09-1,.08-1.52-.11-1.15-.43-1.71-1.52-1.94-2.66-.3-1.56-.12-3.21.12-4.77.3-1.99.78-3.94,1.27-5.89,1.01-3.92,2.27-7.82,2.89-11.83.2-1.28.46-2.83.09-4.1-.23-.82-.84-.12-1.06.3-.72,1.37-1.13,2.93-1.57,4.4-.73,2.49-1.36,5-1.95,7.52-.7,3.02-1.34,6.05-1.91,9.1-.62,3.33-1.07,6.68-1.8,9.99-.39,1.8-.84,3.58-1.35,5.35-.5,1.74-1.1,3.45-1.64,5.18-.54,1.72-.75,4.16.28,5.75,1.15,1.76,3.15.44,4.26-.62,3.35-3.23,6.86-6.29,10.44-9.26,4.06-3.36,8.21-6.59,12.43-9.75,4.52-3.39,9.11-6.69,13.74-9.94,4.74-3.32,9.53-6.58,14.35-9.79,4.72-3.14,9.47-6.24,14.24-9.3,4.46-2.86,8.94-5.68,13.43-8.48,3.96-2.46,7.93-4.9,11.91-7.32,3.22-1.95,6.45-3.89,9.68-5.82,2.24-1.33,4.49-2.66,6.74-3.98.99-.58,2.03-1.12,3-1.74.04-.02.08-.04.11-.07.05-.03.11-.05.14-.09.09-.11-.05-.22-.16-.19Z"/>
      <path class="cls-7" d="M424.1,498.62c-.17-.42-.57-.83-1.01-.97-.58-.19-1.26-.02-1.83.13-.98.26-1.92.64-2.85,1.03-2.64,1.12-5.19,2.44-7.74,3.75-2.71,1.4-5.41,2.83-8.15,4.16-1.11.54-2.22,1.07-3.36,1.53-.79.32-1.6.65-2.44.81-.5.09-.9.12-1.15-.38-.34-.68-.29-1.58-.25-2.32.14-2.66.77-5.31,1.33-7.91.57-2.64,1.23-5.28,1.62-7.96.12-.81.26-1.68.15-2.49-.05-.36-.25-.92-.73-.81-.39.09-.6.68-.73.99-.33.77-.55,1.58-.77,2.39-.66,2.45-1.15,4.95-1.61,7.45-.51,2.75-.98,5.5-1.42,8.26-.3,1.89-.59,3.78-.87,5.68-.04.27-.08.55-.12.82-.21,2.32-.28,5.88,2.3,6.98,1.84.78,4.03.05,5.74-.72,1.29-.58,2.56-1.28,3.69-2.12.88-.64,1.7-1.36,2.55-2.04,2.09-1.68,4.19-3.35,6.28-5.03,2.07-1.66,4.15-3.32,6.22-4.98.64-.51,1.27-1.02,1.91-1.53.26-.21.47-.37.67-.53.91-.71,1.84-1.57,2.37-2.61.25-.49.4-1.07.19-1.6Z"/>
      <path class="cls-7" d="M522.15,436.01c-.09-.54-.8-.57-1.21-.54-.54.05-1.17.14-1.64.42-1.2.77-2.4,1.54-3.6,2.32-2.8,1.8-5.6,3.6-8.4,5.4-3.25,2.09-6.49,4.18-9.74,6.27-2.54,1.63-5.08,3.27-7.62,4.9-.65.42-1.29.83-1.94,1.25-.1.07-.21.13-.31.2-.96.65-.94,1.91-.15,2.67.36.34.8.57,1.31.56.45-.01.8-.23,1.17-.46.5-.31,1-.63,1.5-.94,1.29-.81,2.58-1.62,3.86-2.44,3.28-2.09,6.55-4.2,9.79-6.35,3.29-2.18,6.56-4.39,9.75-6.71,1.29-.94,2.57-1.89,3.81-2.89.89-.71,1.77-1.44,2.56-2.27.29-.31.93-.9.85-1.38Z"/>
    </g>
    <g>
      <path class="cls-14" d="M370.94,521.79c.2-2.32.31-4.66.35-6.99.05-3.1-.02-6.21-.21-9.3-.23-3.75-.63-7.48-1.18-11.2-.64-4.35-1.5-8.67-2.56-12.93-1.2-4.84-2.66-9.61-4.36-14.29-1.87-5.16-4.04-10.22-6.46-15.14-2.73-5.53-5.79-10.9-9.14-16.07-3.69-5.69-7.72-11.15-12.05-16.37-1.14-1.38-2.3-2.73-3.48-4.08-.09-.11-.38-.04-.26.11.71.91,1.41,1.84,2.1,2.77,1.82,2.45,3.59,4.92,5.33,7.43,2.45,3.53,4.83,7.11,7.11,10.75,2.62,4.16,5.12,8.4,7.44,12.73,2.35,4.37,4.52,8.85,6.35,13.47,1.62,4.09,3,8.32,3.7,12.68.38,2.34.45,4.7.52,7.07.09,3.13.12,6.26.11,9.39-.02,6.23-.21,12.45-.49,18.68-.23,5.07-.53,10.13-.89,15.19-.19,2.62-.38,5.23-.61,7.84-.01.12-.02.24-.03.36-.01.12.19.21.28.14,2.22-1.81,4.44-3.62,6.66-5.43.31-.25.62-.5.92-.75.04,0,.06-.03.07-.07.11-.52.19-1.04.26-1.56.22-1.47.38-2.95.51-4.43Z"/>
      <path class="cls-6" d="M355.8,450.17c-.03-.38-.28-.81-.44-1.14-.77-1.65-1.69-3.24-2.6-4.82-1.28-2.23-2.62-4.42-3.98-6.6-1.37-2.18-2.77-4.35-4.24-6.46-1.05-1.51-2.12-3.06-3.39-4.41-.23-.24-1.53-1.53-1.73-.61-.04.19-.01.4.02.59.02.12.11.25.17.36.15.27.3.53.45.8.53.9,1.07,1.79,1.61,2.68,1.62,2.66,3.25,5.31,4.9,7.95,1.64,2.63,3.28,5.26,4.93,7.88.55.87,1.1,1.74,1.65,2.6.27.41.53.83.81,1.24.15.21.29.46.49.63.19.17.46.2.6-.02.07-.1.12-.21.21-.3.14-.13.29-.1.44-.18.1-.05.1-.09.09-.19ZM354.64,450.88s0,0,0,0c-.02,0-.04,0,0,0Z"/>
      <path class="cls-7" d="M343.02,428.77c-.45-.63-.92-1.26-1.38-1.89-1.08-1.46-2.18-2.91-3.29-4.35-1.28-1.64-2.58-3.27-3.94-4.85-1.03-1.19-2.08-2.43-3.33-3.39-.4-.31-1.54-1.02-1.73-.1-.02.09-.02.18-.02.27.01.15.23.37.32.48.27.37.55.74.84,1.11.93,1.2,1.87,2.4,2.81,3.59,2.11,2.66,4.23,5.31,6.35,7.96.48.6.97,1.2,1.45,1.8.05.06.19.03.25,0,.53-.19,1.07-.37,1.6-.56.03-.01.1-.05.07-.09Z"/>
    </g>
    <path class="cls-2" d="M333.73,513.04l-.03-.07s.02.03.03.07Z"/>
    <path class="cls-5" d="M527.09,525.6c-1.89-.28-3.77-.04-5.61.42-.37.09-.74.16-1.12.19-1.23.13-2.48.1-3.71.05-4.47-.17-8.93-.73-13.36-1.31-7.19-.94-14.35-2.07-21.5-3.25-10.06-1.67-20.11-3.46-30.14-5.31-6.16-1.13-12.31-2.29-18.46-3.46-5.6-1.07-11.18-2.24-16.86-2.79-8.74-.86-17.61-.51-26.2,1.37-7.12,1.55-14,4.16-20.36,7.73-5.31,2.98-10.24,6.62-14.69,10.77-3.45,3.22-6.62,6.75-9.45,10.54-1.62,2.17-3.15,4.43-4.48,6.8-.17.3-.34.61-.5.92,0,0-.01.02-.01.03,0,0,0,.01,0,.02-.05,3.02.31,6.36,2.43,8.69,1.91,2.1,4.82,2.9,7.54,3.28,4.31.61,8.72.42,13.05.26,5.32-.19,10.45-1.05,15.49-2.78,11.29-3.86,21.33-10.78,30.84-17.83,2.35-1.74,4.49-3.53,7.2-4.64,2.2-.9,4.51-1.52,6.83-2.03,6.17-1.37,12.49-2.01,18.78-2.48,7.52-.57,15.05-.82,22.59-.95,7.73-.14,15.47-.13,23.21-.08,6.68.04,13.36.14,20.03.16,4.51.02,9.04.08,13.54-.22,1.1-.07,2.25-.14,3.32-.44.95-.27,1.94-.65,2.79-1.16.41-.24,1.07-.63,1.1-1.16.07-.97-1.69-1.24-2.33-1.33Z"/>
    <path class="cls-4" d="M520.55,529.32c-2.16-.31-4.33-.61-6.49-.91-5.32-.74-10.65-1.46-15.97-2.16-6.84-.9-13.68-1.76-20.53-2.57-6.59-.78-13.18-1.51-19.79-2.11-6.49-.59-13.05-.65-19.51-1.52-9.45-1.28-18.64-3.84-27.94-5.85-3.63-.79-7.32-1.53-11.04-1.72-3.23-.17-6.25.37-9.24,1.62-7.54,3.15-14.22,9.27-18.36,16.28-1.02,1.73-1.9,3.56-2.54,5.46-.61,1.8-.79,3.67-1.3,5.5-.93,3.35-3.01,6.26-5.44,8.7-3.83,3.86-8.61,6.86-13.54,9.11-.29.13-.58.26-.88.38-.03,0-.04.02-.06.04,0,0,0,0,0,0,0,0,0,0,0,0-.04.05-.03.14.01.2,0,0,0,0,0,0,.03.05.08.08.13.07,9.07,1.8,18.45,1.8,27.47-.3,6.82-1.59,13.36-4.34,19.31-8.04,3.47-2.16,6.79-4.63,9.73-7.48,1.55-1.5,3.18-2.82,5.1-4.04,6.98-4.45,15.21-7.21,23.37-8.43,5.22-.77,10.53-1.04,15.8-1.29,7.13-.34,14.26-.51,21.4-.63,7.4-.12,14.81-.17,22.21-.18,6.08,0,12.15.01,18.23.06,3.15.03,6.31.06,9.46.1.14,0,.29,0,.43,0,.19,0,.14-.3-.02-.32Z"/>
    <path class="cls-10" d="M401.02,542.35c-.3-1.37-1.34-2.41-2.47-3.16-1.38-.92-2.97-1.51-4.56-1.98-1.59-.47-3.23-.8-4.87-1.06-1.09-.17-2.18-.31-3.28-.4-.15-.01-.29-.02-.44-.03-.02,0-.04-.02-.05-.02-.06-.03-.12-.06-.18-.08-.17-.08-.34-.15-.51-.22-.52-.21-1.06-.37-1.6-.49-1.65-.35-3.36-.26-4.95.31-2.42.88-4.31,2.78-5.72,4.89-1.07,1.6-1.83,3.33-2.58,5.1-.62,1.47-1.42,2.86-2.37,4.13-1.73,2.31-3.94,4.21-6.4,5.7-2.11,1.27-4.4,2.24-6.76,2.98-1.64.51-3.32.9-5.01,1.2-.4.07-.81.13-1.2.22-.22.05-.47.27-.13.39.27.09.58.11.85.15.57.1,1.14.18,1.72.26,1.88.27,3.78.46,5.68.58,2.65.18,5.3.23,7.95.16,3.13-.09,6.26-.36,9.35-.86,3.33-.54,6.63-1.34,9.81-2.47,3.32-1.18,6.52-2.72,9.46-4.66,1.47-.97,2.88-2.04,4.19-3.22.98-.88,1.92-1.82,2.69-2.88.94-1.29,1.74-2.91,1.38-4.55ZM348.05,559.75c0,.05-.03-.02,0,0h0Z"/>
    <path class="cls-6" d="M483.85,528.48c-.79-.81-2.16-.96-3.21-1.08-.86-.1-1.73-.21-2.59-.33-3.76-.5-7.52-1.02-11.28-1.55-5.3-.75-10.61-1.52-15.9-2.31-5.43-.81-10.85-1.65-16.27-2.54-4.19-.69-8.39-1.39-12.55-2.28-1.95-.41-3.87-.92-5.81-1.37-2.81-.65-5.65-1.21-8.51-1.58-5.87-.77-12.08-.81-17.69,1.36-5.3,2.05-10.48,6.48-11.62,12.28-1.01,5.12,1.08,10.35,3.7,14.66,1.95,3.21,4.32,6.2,6.97,8.86.14.14.29.29.44.43.64.67,1.62.56,2.43.32,1.44-.42,2.78-1.24,4.04-2.03,4.06-2.55,7.85-5.54,11.77-8.3,2.31-1.63,4.66-3.22,7.07-4.7,1.75-1.07,3.52-2.17,5.41-2.98,2.56-1.1,5.31-1.76,8.03-2.32,3.49-.71,7.02-1.21,10.55-1.61,3.91-.45,7.84-.77,11.77-1.03,3.88-.26,7.76-.44,11.65-.58,3.45-.12,6.89-.21,10.34-.26,2.56-.04,5.12-.06,7.68-.06,1.23,0,2.48.06,3.71.02.05,0,.11,0,.16,0,.03,0,.06-.03.07-.06.09-.35-.12-.72-.36-.96Z"/>
    <path class="cls-8" d="M495.55,529.41c-1.33-.22-2.66-.41-3.99-.6-3.53-.51-7.07-.97-10.61-1.39-5.08-.6-10.18-1.13-15.27-1.57-6.02-.52-12.05-.92-18.08-1.16-6.31-.25-12.63-.34-18.95-.15-5.94.18-11.89.59-17.78,1.45-5.08.75-10.18,1.81-14.98,3.68-1.99.78-3.94,1.7-5.74,2.85-2.83,1.81-5.33,4.16-7.7,6.54-5.68,5.7-10.56,12.14-16.13,17.94-1,1.04-2.02,2.06-3.14,2.97-.25.21-.5.4-.77.6-.1.08-.37.19-.42.32-.08.17.03.25.18.35.62.4,1.68.31,2.38.32,1.42.03,2.85-.02,4.27-.08,1.02-.05,2.05-.1,3.07-.2,5.41-.55,10.64-2.6,15.53-4.88,6.69-3.12,13.02-6.99,19.1-11.16,1.91-1.31,3.75-2.72,5.79-3.84,1.59-.87,3.24-1.62,4.92-2.29,3.86-1.54,7.88-2.68,11.92-3.63,9.3-2.19,18.82-3.41,28.33-4.28,8.47-.78,16.97-1.24,25.48-1.47,2.84-.08,5.69-.13,8.54-.15.9,0,1.8,0,2.7,0,.45,0,.94.06,1.39,0,.06,0,.12,0,.18,0,.11,0-.16-.17-.2-.18Z"/>
    <g>
      <g>
        <path class="cls-5" d="M388.83,453.55c.01-8.9-1.06-17.8-3.19-26.44-1.2-4.88-2.74-9.69-4.57-14.37-1.88-4.78-4.08-9.44-6.16-14.13-2.98-6.75-5.92-13.51-8.74-20.33-1.53-3.7-3.04-7.42-4.42-11.18-.58-1.58-1.17-3.18-1.57-4.82-.05-.21-.09-.91-.15-1.04,0-.02,0-.05,0-.07.01-.14-.17-.15-.25-.1-.12.07-.13.24-.11.41-.54,5.22-1.08,10.44-1.62,15.66-.08.75-.15,1.5-.23,2.25-.73,4.36-1.1,8.8-1.37,13.21-.61,9.88-.45,19.85.9,29.66.76,5.52,1.91,11.01,3.62,16.32.85,2.63,1.84,5.21,3,7.72,1.24,2.68,2.79,5.16,4.21,7.74,6.08,10.98,8.61,23.6,8.26,36.09-.18,6.53-1.05,13.14-2.9,19.41-.03.09-.06.18-.09.27-.06.19.23.21.31.08.86-1.33,1.62-2.74,2.35-4.14,1.96-3.74,3.67-7.62,5.16-11.57,2.19-5.79,3.92-11.76,5.18-17.82,1.55-7.49,2.35-15.13,2.37-22.78Z"/>
        <path class="cls-10" d="M381.94,468.81c.19-6.35-.18-12.71-1.14-18.99-.53-3.44-1.23-6.85-2.11-10.22-.88-3.35-1.93-6.65-2.91-9.97-1.4-4.76-2.79-9.53-4.1-14.31-.72-2.62-1.42-5.25-2.05-7.89-.26-1.11-.53-2.24-.7-3.37-.02-.16.01-.64-.05-.76,0,0,0-.01,0-.02.02-.14-.25-.04-.3,0-.07.05-.07.17-.06.28-.39,3.75-.79,7.49-1.18,11.24-.06.54-.11,1.09-.17,1.63-.47,3.09-.75,6.22-.99,9.34-.53,6.94-.67,13.93-.22,20.88.25,3.86.7,7.72,1.44,11.52.73,3.69,1.82,7.22,3.22,10.71,3.33,8.3,4.32,17.42,3.91,26.3-.22,4.8-.78,9.67-1.95,14.35-.02.07-.03.14-.05.21-.03.13.28.06.32-.02.48-.98.9-2,1.31-3.01,1.12-2.75,2.08-5.56,2.94-8.4,1.28-4.25,2.32-8.58,3.1-12.95.98-5.46,1.56-10.99,1.72-16.53Z"/>
      </g>
      <path class="cls-5" d="M383.24,465.62c-1.02-4.32-3.03-8.33-5.81-11.79-2.78-3.47-6.21-6.35-9.87-8.85-4.37-2.99-7.36-7.5-9.74-12.15-2.61-5.11-4.54-10.55-6.14-16.05-1.42-4.86-2.57-9.8-3.52-14.77-.52-2.71-.98-5.43-1.35-8.16-.02-.13-.03-.25-.05-.38,0-.07-.23-.22-.22-.25-.82,3.88-.48,8.02-.02,11.92.66,5.48,1.83,10.89,3.22,16.23,1.54,5.88,3.38,11.69,5.48,17.39,1.96,5.31,4.16,10.56,6.73,15.61,1.09,2.14,2.25,4.24,3.53,6.27.3.47.61.93.93,1.38.49.73.98,1.42,1.47,2.06,0,0,.01.02.02.03.34.49.66.98.95,1.5,2.06,3.6,2.85,7.86,3.24,11.94.46,4.94.29,9.93-.13,14.87-.43,4.94-1.13,9.86-2.01,14.74-.72,3.97-1.55,7.93-2.48,11.85-.49,2.04-.99,4.07-1.56,6.09-.02.09-.05.18-.08.27,0,.01,0,.03.01.05,0,.01.01.02.02.03.06.08.19.17.19.18,1.55-3.15,3.1-6.31,4.64-9.47,1.88-3.84,3.84-7.66,5.55-11.59,3.13-7.21,5.84-14.72,7.14-22.5.91-5.42,1.11-11.06-.16-16.44ZM365.17,443.13c.64.57,1.3,1.1,1.98,1.61-.68-.48-1.34-1.02-1.98-1.61Z"/>
    </g>
    <g>
      <path class="cls-10" d="M367.54,518.91c.06-.72.11-1.45.15-2.17.05-.96.08-1.92.09-2.88.02-1.17,0-2.33-.02-3.5-.04-1.35-.1-2.69-.2-4.03-.11-1.49-.26-2.97-.44-4.45-.2-1.6-.45-3.2-.75-4.78-.32-1.69-.69-3.36-1.12-5.03-.45-1.75-.97-3.48-1.55-5.18-.61-1.78-1.29-3.53-2.05-5.24-.79-1.78-1.66-3.51-2.61-5.21-.99-1.75-2.07-3.45-3.24-5.09-1.21-1.69-2.52-3.32-3.91-4.87-1.46-1.62-3.02-3.15-4.67-4.57-1.73-1.5-3.56-2.89-5.47-4.16-2.04-1.36-4.17-2.59-6.36-3.69-2.37-1.18-4.81-2.22-7.31-3.11-2.72-.97-5.5-1.78-8.31-2.43-3.09-.72-6.23-1.27-9.38-1.66-1.61-.2-3.23-.37-4.85-.5-.01,0-.02,0-.03,0-.08,0-.12.06-.11.13,0,.08.04.17.13.19.52.12,1.03.26,1.53.41,1.4.4,2.79.86,4.16,1.35,2.09.75,4.16,1.58,6.19,2.49,2.6,1.16,5.15,2.44,7.63,3.83,2.91,1.63,5.74,3.41,8.45,5.35,3.03,2.16,5.93,4.52,8.65,7.06,2.97,2.77,5.74,5.77,8.25,8.97,2.74,3.48,5.17,7.2,7.26,11.11,2.29,4.27,4.16,8.75,5.61,13.37,1.63,5.16,2.74,10.49,3.38,15.86.17,1.42.31,2.84.42,4.26.01.17.27.22.29.03.02-.16.04-.32.06-.48.05-.46.1-.91.13-1.37Z"/>
      <path class="cls-5" d="M366.98,519.35c0-.06.01-.11.01-.17.09-1.07.15-2.15.19-3.23.04-1.25.05-2.49.03-3.74-.03-1.4-.09-2.8-.2-4.2-.12-1.52-.28-3.03-.5-4.54-.23-1.63-.53-3.25-.88-4.85-.37-1.7-.81-3.38-1.32-5.04-.54-1.76-1.16-3.5-1.85-5.21-.73-1.79-1.54-3.54-2.43-5.24-.94-1.8-1.97-3.54-3.09-5.24-1.18-1.78-2.45-3.49-3.81-5.13-1.45-1.75-3-3.41-4.63-4.99-1.75-1.7-3.6-3.29-5.53-4.78-2.07-1.6-4.23-3.08-6.46-4.45-2.42-1.49-4.92-2.84-7.48-4.07-2.79-1.34-5.64-2.54-8.54-3.61-3.19-1.18-6.45-2.2-9.73-3.09-1.69-.46-3.4-.88-5.11-1.27-.08-.02-.46-.09-.48.03-.02.08.18.19.22.22.56.42,1.19.76,1.78,1.13,2.52,1.53,5.05,3.07,7.51,4.69,3.38,2.22,6.68,4.58,9.79,7.17,3.11,2.59,6.1,5.42,8.49,8.71,1.07,1.47,2.01,3.04,2.69,4.73.31.77.56,1.57.73,2.38.15.71.24,1.42.45,2.11.88,3.04,2.82,5.7,4.86,8.07,2.5,2.9,5.32,5.51,8.1,8.13,2.96,2.77,5.93,5.55,8.63,8.57,2.55,2.85,4.91,5.95,6.47,9.47,1.04,2.35,1.66,4.85,1.75,7.4-.04.46-.08.91-.13,1.36-.08.77-.17,1.54-.29,2.3-.08.54-.16,1.07-.26,1.6-.05.27-.15.56-.16.83,0,.03-.02.07-.02.1,0,.03.32.06.34,0,.62-2,.91-4.07.85-6.13Z"/>
    </g>
    <g>
      <path class="cls-5" d="M373,521.58c-.12-1.44-.49-2.87-.91-4.25-.97-3.22-2.48-6.29-4.53-8.97-2.75-3.59-6.44-6.35-10.64-8.04-2.72-1.09-5.53-1.66-8.42-2.07-2.39-.34-4.75-.9-7.02-1.73-3.86-1.4-7.34-3.53-10.76-5.77-3.21-2.11-6.43-4.25-10-5.7-4.33-1.75-8.99-2.37-13.64-2.16-4.73.22-9.26,1.29-13.84,2.4-2.8.68-5.59,1.35-8.39,2.03-4.16,1-8.31,2.01-12.47,3.01-3.19.77-6.38,1.54-9.58,2.31-.38.09-.75.18-1.13.27-.1.02-.31.03-.4.1-.25.18-.25.84-.24,1.11.01.78.41,1.47,1.08,1.88,1.33.82,2.96.54,4.4.3,2.05-.34,4.09-.82,6.12-1.27,4.9-1.1,9.84-2.33,14.86-2.79,1.69-.15,3.6-.33,5.24.24,1.48.51,2.81,1.55,4.07,2.45,4.29,3.07,8.41,6.36,12.86,9.19,4.89,3.11,10.25,5.93,16.03,6.89,5,.84,10.13-.21,15.07-1,4.65-.75,9.47-1.61,14.18-1.01,2.13.27,4.22.88,6.07,1.99,2.03,1.22,3.65,2.97,4.88,4.98,1.6,2.61,2.56,5.57,3.24,8.54.02.09.18.19.26.12,1.18-.99,2.37-1.97,3.55-2.96.03-.01.06-.04.05-.1Z"/>
      <path class="cls-10" d="M310.5,496.15c-.62-1.14-1.92-1.79-3.09-2.24-1.65-.63-3.42-.96-5.16-1.21-3.29-.47-6.61-.52-9.91-.82-2.74-.25-5.52.2-8.22.58-3.98.56-7.94,1.24-11.89,1.96-2.62.48-5.24.97-7.86,1.49-.12.02-.24.05-.37.07-.05,0-.12.04-.17.08-.05.03-.09.06-.09.07,0,0,0,0,0,0,3.31.93,6.73,1.41,10.16,1.6,2.09.12,4.2.03,6.29.17,5.45.37,10.89,1.05,16.22,2.26,1.66.38,3.32.81,4.96,1.27,1.11.31,2.23.64,3.36.88,1.41.3,2.88.39,4.02-.64.63-.56,1.06-1.33,1.44-2.07.56-1.09.95-2.32.32-3.47Z"/>
    </g>
    <path class="cls-13" d="M130.89,684.45c-4.43-.77-33.35-.07-50.9,23.18-17.55,23.24-56.23,42.38-50.38,64.97,5.84,22.59-8.75,32.82,6.56,85.95,15.31,53.13,1.5,76.47,17.35,127.56,15.86,51.09,35.35,64.64,45.69,118.24,10.34,53.6,12.07,119.2,63.26,164.96,51.19,45.77,25.4,60.67,55.7,99.57,30.3,38.9,21.67,32.96,55.31,75.95,33.64,42.99,19.55,93.36,84.37,136.52,64.81,43.15,89.98,75.65,173.95,79.58,0,0,24.61,8.53,32.26-73.89,7.64-82.42,53.55-97.04,6.64-240.74-46.91-143.7-49.21-161.75-75.55-206.59-26.34-44.84-45.47-91.75-81.44-130.09-35.97-38.34-36.64-91.86-100.46-150.72,0,0-39.43-65.47-89.36-101.95-49.93-36.48-48.76-64.81-92.98-72.49Z"/>
    <path class="cls-12" d="M5.24,789.71c14.93,4.16,29.78,4.71,44.21,3.41,7.78-.7,15.44-1.92,23.05-3.31,8.02-1.47,16.25-2.69,23.83-5.5,1.53-.57.96,3.37-.14,3.78-7.09,2.63-14.74,3.81-22.25,5.21-7.87,1.47-15.79,2.79-23.83,3.58-14.86,1.46-30.17,1.02-45.58-3.28-1.54-.43-.54-4.23.71-3.88Z"/>
    <path class="cls-9" d="M544.94,1731.28c-5.26-24.15-13.15-70.35-13.15-70.35-.32-1.74-.89-3.93-1.68-6.52-.25.08-.45.16-.59.26l.57-.33c-1.58-5.13-4.05-11.87-7.33-20.08-1.84,1.06-3.66,2.14-5.5,3.01-4.45,2.11-9.08,3.87-13.77,5.39-4.85,1.58-10.15,2.32-14.88,4.16-2.95,1.15-4.67,4.16-7.15,6.05-1.55,1.18-3.22,2.07-5,2.82-1.37.58-3.74-.23-1.46-1.19,4.73-2.01,7.22-6.91,11.91-8.81,5.51-2.23,11.66-3.1,17.32-5,6.16-2.07,12.03-4.67,17.7-7.82.08-.04.16-.08.23-.13-1.24-3.08-2.59-6.35-4.05-9.81-7.52,4.93-14.71,10.47-22.9,14.2-5.89,2.68-12.07,4.66-18.28,6.51-6.85,2.04-14.41,3.4-20.4,7.44-.71.48-1.36-3.63-.48-4.22,5.14-3.46,11.33-4.8,17.2-6.52,7.28-2.13,14.58-4.28,21.48-7.43,7.82-3.56,14.72-8.78,21.88-13.53-1.37-3.21-2.81-6.57-4.34-10.07-10.58,3.01-19.4,11.41-29,16.62-7.01,3.8-14.86,5.35-22.38,7.86-7.47,2.49-14.03,7.23-21.79,8.95-1.22.27-1.23-3.92-.13-4.16,7.76-1.72,14.31-6.46,21.79-8.95,7.98-2.65,16.24-4.32,23.59-8.53,8.68-4.97,16.83-12.23,26.3-15.47-1.4-3.18-2.87-6.49-4.39-9.89-4.45,1.83-7.64,5.28-11.66,7.89-3.83,2.49-7.98,4.21-11.67,6.99-2.86,2.16-5.74,4.11-9.13,5.27-4.1,1.41-8.4,2.2-12.48,3.66-4.3,1.54-8.47,3.38-12.7,5.06-8.03,3.2-16.4,5.26-24.91,7.12-.61.13,1.47-2.06,2.19-2.24.34-.09.68-.17,1.02-.26.04-.01.07,0,.08.01,8.62-1.92,17.03-4.15,25.16-7.46,4.22-1.72,8.41-3.52,12.74-4.97,4.48-1.5,9.42-2.08,13.57-4.33,3.69-1.99,6.78-5,10.47-7.01,2.39-1.3,4.85-2.35,7.03-4.03,1.64-1.26,3.1-2.77,4.74-4.02,1.54-1.18,3.21-2.15,4.96-2.97-1.54-3.44-3.15-7-4.81-10.65-5.21,2.99-10.2,6.46-15.43,9.3-8.72,4.73-17.84,8.62-27.15,12.06-9.66,3.57-19.52,6.65-29.37,9.7-4.85,1.5-9.7,3.02-14.64,4.3-2.52.65-5.87,2.38-8.73.84-.18-.1-.58-.36-.59-.65,0-.12,0-.24,0-.37-.01-.61.94-.64,1.29-.67.08,0,.17-.01.25-.02.47-.03.98.09,1.39.29.03-.12.25-.18.67-.17.68-.15,1.36-.31,2.03-.48,1.46-.36,2.9-.75,4.34-1.15,2.23-.62,4.45-1.29,6.66-1.96,4.61-1.41,9.22-2.84,13.82-4.3,9.18-2.91,18.31-5.96,27.22-9.54,9-3.61,17.77-7.77,26.08-12.82,3.71-2.25,7.36-4.59,11.13-6.66-1.46-3.19-2.96-6.48-4.5-9.82-5.41,2.09-10.51,5.02-15.52,7.89-9.18,5.24-18.12,10.91-27.39,15.97-8.91,4.86-18.16,9.15-28.02,11.83-10.25,2.78-21.08,3.37-31.9,3.87-1.84.09-2.01-4.12-.41-4.2,10.82-.5,21.64-1.09,31.9-3.87,10.49-2.85,20.25-7.6,29.68-12.86,9.23-5.15,18.16-10.84,27.38-16,4.08-2.28,8.24-4.55,12.57-6.32-2.05-4.43-4.16-8.98-6.35-13.65-5.86,3.06-11.39,7.1-17.4,9.41-11.47,4.41-23.67,6.52-34.72,12.03-19.28,9.64-37.58,23.65-61.29,20.11-2.38-.36.38-1.77,1.47-1.61,25.95,3.87,44.98-15.5,66.93-23.8,10.94-4.14,22.8-5.82,33.09-11.5,3.75-2.07,7.39-4.34,11.17-6.23-2.33-4.98-4.74-10.1-7.21-15.33-7.02,3.71-13.81,7.83-20.9,11.53-11.18,5.83-23.75,8.38-35.26,13.47-20.72,9.17-39.56,22.95-64.03,21.19-2.08-.15-2.18-.75-.05-.6,25.24,1.81,44.92-15.44,66.76-23.63,10.54-3.95,21.51-6.69,31.38-12.2,7.09-3.95,14-8.06,21.2-11.66-3.05-6.44-6.19-13.06-9.44-19.85-2.24,1.6-4.37,3.34-6.43,4.78-4.7,3.31-9.29,6.79-13.98,10.13-9.86,7.04-20.57,11.92-31.85,16.12-23.08,8.61-46.04,17.95-70.17,23.78-1.72.41-3.84-1.74-1.52-2.29,24.55-5.93,47.96-15.43,71.42-24.25,11.9-4.47,22.74-10.1,33.05-17.65,4.99-3.65,9.97-7.29,15.06-10.78,1.09-.75,2.17-1.52,3.26-2.26-3.21-6.7-6.5-13.55-9.88-20.57-2.59,1.34-4.52,3.34-6.62,5.98-3.99,5.03-8.4,9.56-13.15,13.63-9.82,8.41-20.89,14.91-32.13,20.92-23.01,12.32-46.42,24.83-72.59,29.54-1.46.26-1.22-1.16-.3-1.68.62-.34,1.23-.69,1.85-1.03.74-.41,1.82-.34,2.24,0,25.34-5.15,48.36-17.69,70.68-29.92,11.29-6.19,22.37-13,31.88-22.07,4.4-4.19,7.9-9.36,12.14-13.71,1.57-1.62,3.35-2.58,5.22-3.29-1.81-3.76-3.66-7.57-5.52-11.4-9.96,4.3-18.35,11.8-26.65,19.11-9.6,8.46-19.59,15.59-30.93,21.16-23.19,11.38-47.39,20.58-71.55,29.75-.08.05-.15.09-.21.11-.94.34-1.88.69-2.82,1.04-.53.19,1.38-2.17,2.09-2.44,26.25-9.97,52.84-19.64,77.79-32.54,12.7-6.57,22.96-16.24,33.97-25.46,5.52-4.62,11.34-8.87,17.71-11.96-1.58-3.25-3.17-6.53-4.78-9.84-8.86,3.46-17.61,7.17-26.01,11.66-11.98,6.42-22.26,15.26-33.53,22.83-11.36,7.62-24.7,11.4-37.21,16.64-12.7,5.32-25.11,11.28-37.23,17.82-.83.45-1.53-3.69-.67-4.15,12.12-6.53,24.53-12.5,37.23-17.82,12.51-5.24,25.85-9.02,37.21-16.64,11.28-7.57,21.55-16.41,33.53-22.83,8.03-4.3,16.4-7.88,24.88-11.22-1.28-2.63-2.57-5.27-3.86-7.93-9.28,4.3-19.1,7.36-28.74,10.87-13,4.72-24.65,11.44-36.17,19.1-22.67,15.07-46.42,28.08-71.5,38.47-1.43.59-3.1-.58-1.38-1.82.53-.38,1.06-.76,1.58-1.14.51-.37,1.17-.44,1.68-.3,24.59-10.44,47.74-23.49,70.09-38.29,10.51-6.96,21.24-13.07,33.05-17.47,10.15-3.78,20.56-6.94,30.37-11.47-2.09-4.27-4.2-8.59-6.33-12.95-3.51,2.26-7.08,4.41-10.83,6.24-6.07,2.96-12.6,4.92-18.58,8.08-6.29,3.33-12.02,7.69-18.11,11.39-6.19,3.75-12.6,7.09-19.13,10.17-13.03,6.14-26.64,10.97-39.61,17.24-6.27,3.03-11.98,7.09-18.19,10.18-5.75,2.86-12.6.85-18.37,3.29-2.04.86-2.68-3.13-1.01-3.84,5.81-2.45,12.64-.44,18.37-3.29,6-2.99,11.52-6.93,17.57-9.88,12.73-6.21,26.13-10.97,38.97-16.95,6.55-3.05,12.98-6.34,19.2-10.04,5.77-3.43,11.2-7.46,17.01-10.82,5.85-3.39,12.26-5.48,18.41-8.22,4.4-1.96,8.57-4.37,12.64-6.96-2.51-5.12-5.06-10.31-7.63-15.54-7.42,3.64-14.84,7.29-22.2,11.05-10.64,5.43-20.67,11.74-30.69,18.29-9.43,6.17-19.41,10.62-29.91,14.57-11.45,4.31-22.28,9.74-33.13,15.35-5.92,3.06-11.87,6.09-17.99,8.74-3.07,1.33-7.85,4.97-11.59,2.9-.16-.08-.27-.21-.32-.39,0-.66.21-.8.68-1.07.6-.34,2.12-.61,2.9.03,3.23-.97,6.37-2.78,9.33-4.15,3.34-1.54,6.64-3.17,9.92-4.84,6.16-3.13,12.24-6.39,18.44-9.43,12.24-6,25.55-9.67,37.64-15.96,12.4-6.46,23.53-15.27,35.88-21.87,9.9-5.3,20.01-10.21,30.1-15.14-1.95-3.95-3.91-7.94-5.89-11.95-7.34,2.95-14.77,5.69-22.3,8.18-12.28,4.07-24.46,7.13-33.53,17.26-3.39,3.78-6.54,7.88-10.39,11.08-4.02,3.34-8.81,5.25-13.69,6.9-11.43,3.87-21.56,9.33-31.74,15.78-10.37,6.57-20.91,12.99-33.12,15.52-1.51.31-3.74-1.14-1.37-1.63,22.07-4.58,38.16-22.1,59.08-29.38,5.85-2.04,11.98-3.58,17.01-7.37,4.66-3.52,8.18-8.57,12.23-12.87,7.42-7.88,16.99-11.45,26.95-14.6,10.14-3.2,20.12-6.76,29.94-10.73-2.41-4.87-4.83-9.78-7.28-14.73-11.07,3.2-20.51,11.18-30.44,16.62-12.73,6.97-26.12,12.58-39.44,18.31-13.34,5.74-26.59,11.67-39.11,19.08-12.35,7.31-24.26,15.42-37.93,20.07-2.18.74-1.69-2.77-.12-3.3,11.39-3.88,21.57-10.32,31.8-16.57,9.73-5.95,19.74-11.26,30.1-15.98,20.8-9.49,42.42-17.36,61.99-29.39,7.07-4.35,13.97-9.05,21.77-11.65-2.22-4.48-4.46-9-6.72-13.54-7.74,3.71-15.82,6.68-23.85,9.74-10.49,4.01-20.45,8.68-30.06,14.52-9.98,6.06-20.42,10.62-31.24,14.95-10.69,4.28-21.05,9.28-31.19,14.75-11.56,6.23-22.83,13.01-34.11,19.78-1.19.71-.57-3.15.33-3.68,19.75-11.87,39.57-23.78,60.82-32.7,10.75-4.51,21.67-8.41,31.73-14.38,9.64-5.72,19.21-11.1,29.65-15.21,8.86-3.49,17.87-6.63,26.49-10.62-2.03-4.09-4.08-8.2-6.13-12.33-17.22,10.6-38.07,13.45-56.19,22.31-10.68,5.23-20.46,12.18-30.95,17.77-10.33,5.51-21.09,10.16-31.25,15.99-6.1,3.5-11.99,7.44-17.3,12.2-4.33,3.88-8.01,9.63-14.03,10.48-1.72.24-2.19-3.99-.74-4.19,5.76-.82,9.3-6.44,13.46-10.16,4.39-3.92,9.16-7.29,14.11-10.31,9.71-5.93,20.09-10.58,30.21-15.72,10.22-5.19,19.78-11.56,29.79-17.14,10.14-5.65,21.06-9.3,32.12-12.84,10.01-3.2,20.01-6.57,28.98-11.98-2.49-4.99-4.98-10-7.5-15.04-7.99,4.57-16.55,8.01-25.05,11.56-10.79,4.51-20.89,9.72-30.23,16.95-4.41,3.41-8.81,6.85-13.68,9.49-5.09,2.76-10.55,4.76-16.02,6.68-10.96,3.83-21.63,8.05-31.89,13.44-11.92,6.27-23.33,13.5-34.73,20.74.4-.26.76-2.76,1.61-3.3,19.88-12.62,39.88-24.89,62.18-32.64,10.86-3.78,21.17-7.82,30.43-14.85,9.22-7,18.44-13.1,29-17.71,9.19-4.01,18.61-7.52,27.44-12.24-2.11-4.22-4.22-8.46-6.35-12.71-17.79,11.93-36.54,22.25-56.14,30.72-11.18,4.83-22.65,9.01-33.85,13.8-11.16,4.78-21.68,10.51-31.95,17.03-10.7,6.8-21.53,13.54-34.23,15.92-1.19.22-.75-3.7.11-4.07.65-.28,1.3-.55,1.95-.83.2-.08.35.06.46.32,10.64-2.48,20.02-7.94,29.18-13.73,9.59-6.06,19.22-11.83,29.55-16.49,21.59-9.74,43.99-17.37,64.92-28.57,9.76-5.22,19.25-10.95,28.5-17.1-2.01-4.03-4.04-8.06-6.07-12.11-9.61,2.55-18.43,7.28-26.91,12.39-10.58,6.37-21.02,12.98-31.62,19.29-21.14,12.58-42.75,24.41-65.58,33.55-6.3,2.52-12.68,4.83-19.16,6.89-3.14,1-6.31,1.98-9.51,2.82-1.64.43-3.08.79-4.83-.2-.19-.11-.57-.33-.6-.64-.06-.66.05-.74.46-1.1.69-.62,2.34-.4,3.18.24.03.02.06.04.08.06.1-.04.21-.09.37-.14.94-.34,1.96-.55,2.92-.84,1.53-.45,3.05-.91,4.56-1.39,2.81-.89,5.61-1.82,8.38-2.79,5.77-2.03,11.45-4.25,17.07-6.62,11.05-4.67,21.83-9.95,32.41-15.6,21.33-11.4,41.54-24.78,62.47-36.89,8.04-4.65,16.38-8.62,25.4-10.84-1.98-3.94-3.97-7.9-5.96-11.87-18.34,11.34-37.32,21.55-56.9,30.49-22.11,10.09-44.97,18.19-66.05,30.43-11.19,6.5-22.81,10.64-35.41,13.82-2.05.52-2.79-1.54-.71-2.07,11.83-2.99,22.87-6.76,33.4-12.85,9.68-5.61,19.52-10.75,29.78-15.19,21.38-9.26,42.94-17.87,63.57-28.76,10.63-5.61,21.04-11.64,31.26-18-2.37-4.73-4.75-9.46-7.15-14.22-16.97,13.62-35.46,24.84-54.7,34.52-21.71,10.92-44.6,19.06-66.64,29.22-12.68,5.85-24.43,13.46-36.13,21.13-.62.41-.73-3.45.18-4.05,10.18-6.68,20.38-13.37,31.24-18.79,10.56-5.27,21.66-9.38,32.56-13.9,22.29-9.26,44.27-19.39,64.91-32.01,9.4-5.75,18.48-12.04,27.17-18.94-2.73-5.42-5.47-10.86-8.22-16.31-20.8,8.4-36.38,27.01-54.91,39.46-19.93,13.39-41.74,23.68-63.36,33.84-11.83,5.56-23.92,10.57-36.78,13.57-.44.1-3.55-.28-3.39-.5.28-.4.57-.79.86-1.19.36-.49,1.99-.07,2.92.22,22.17-5.81,42.63-16.93,62.85-27.22,10.8-5.5,21.46-11.32,31.62-18.01,9.94-6.55,19.05-14.25,28.24-21.95,9.57-8.02,19.52-15.55,31.2-19.73-1.63-3.23-3.26-6.46-4.89-9.7-8.85,4.28-16.22,11.54-24.37,17.05-10.28,6.95-21.29,12.64-32.54,17.75-22.38,10.16-45.66,18.25-67.66,29.24-11.91,5.95-23.77,12.04-36.77,15.46-.06.01-.11.03-.17.05-.59.15-1.01-3.84-.25-4.19.7-.31,1.4-.63,2.1-.94.15-.07.29.04.41.25,11.16-3.22,21.51-8.38,31.83-13.56,10.85-5.44,21.9-10.41,33.13-15.03,22.48-9.24,45.45-17.73,66.04-30.91,8.95-5.73,16.99-13.78,26.48-18.67-1.35-2.67-2.7-5.34-4.05-8.02-20.38,11.06-40.86,22.04-62.67,30.08-11.25,4.15-22.82,7.54-33.82,12.32-10.98,4.77-21.17,11.14-31.58,17.04-11.25,6.37-22.86,12.15-35.7,14.78-.88.18.85-2.69,1.63-2.85,22.87-4.68,41.32-19.33,61.85-29.32,10.75-5.23,22.2-8.81,33.49-12.76,11.2-3.91,22.11-8.5,32.79-13.61,11.25-5.39,22.25-11.29,33.22-17.24-1.99-3.94-3.99-7.89-5.99-11.84-10.67,1.17-19.81,8.06-29.2,12.4-11.21,5.18-22.78,9.58-33.82,15.13-11.42,5.73-21.4,13.59-31.96,20.8-10.1,6.9-21.27,11.26-32.65,15.5-12.34,4.6-24.84,8.86-38.29,10.09-1.17.11-.59-3.83.56-3.93,12.59-1.15,24.38-4.95,35.95-9.22,11.32-4.18,22.64-8.32,32.76-15.02,10.65-7.05,20.52-15.17,31.86-21.04,10.98-5.68,22.54-10.1,33.78-15.2,9.42-4.27,18.68-11.18,29.19-13.1-2.86-5.66-5.73-11.33-8.61-16.99-1.96.77-3.89,2.03-5.2,2.66-2.85,1.36-5.67,2.77-8.47,4.24-5.73,3.01-11.31,6.29-16.81,9.73-10.29,6.45-20.34,13.32-30.91,19.25-10.76,6.03-21.91,11.3-33.11,16.44-10.68,4.9-21.34,9.91-32.38,14.02-5.73,2.13-11.57,4.03-17.56,5.47-3.12.75-6.28,1.37-9.48,1.86-1.82.28-6.15,1.71-8.35.69.12.46-.46.85-.71.95-.11.04-.21.09-.32.13-.64.25-1.87.46-2.54-.22-.08-.08-.17-.17-.25-.25-.38-.38-.45-.67-.22-1.1.75-1.45,2.27-1.35,3.72-1.46,3.53-.27,7.03-.68,10.48-1.31,6.15-1.11,12.14-2.76,18-4.73,12.42-4.18,24.27-9.8,36.14-15.23,12.26-5.61,24.48-11.35,36.2-18.05,12.1-6.91,23.52-15.05,35.51-22.15,5.94-3.52,12.03-6.77,18.24-9.76,2.13-1.02,4.47-2.45,6.94-3.31-2.3-4.54-4.6-9.08-6.91-13.62-5.04.8-9.6,2.67-13.82,5.74-4.98,3.63-9.47,8-14.44,11.65-9.68,7.11-20.27,12.67-31.07,17.68-11.16,5.17-22.6,9.72-33.81,14.77-11.02,4.97-21.22,11.42-32.08,16.67-5.74,2.78-11.75,4.43-18.24,5.03-6.79.63-13.72.56-20.26,2.2-2.14.54-3.44-2.77-1.26-3.32,11.23-2.81,23.57-1.07,34.35-5.37,11.29-4.51,21.46-11.7,32.5-16.82,22.87-10.62,47.19-18.63,67.76-33.74,5.51-4.05,10.42-9.06,16.11-12.83,3.84-2.54,8.08-4.14,12.58-4.96-2.09-4.13-4.19-8.25-6.28-12.37-4.53,1.69-8.4,5.66-12.26,8.34-4.86,3.38-9.84,6.55-14.91,9.57-10.3,6.12-20.97,11.54-31.8,16.58-21.47,10-43.36,19.91-65.92,27.36-6.05,2-12.21,3.73-18.49,5.04-6.4,1.33-13.43,1.41-19.15,4.6-1.99,1.11-3.16-2.82-1.36-3.83,4.67-2.61,10.07-3.04,15.36-3.95,6.06-1.04,12-2.51,17.83-4.28,11.54-3.51,22.64-8.12,33.71-12.79,22.45-9.47,44.99-18.91,66.1-31.18,6.23-3.62,12.33-7.49,18.23-11.68,3.49-2.48,6.89-5.65,10.86-7.39-2.87-5.64-5.73-11.27-8.6-16.9-8.77,5.95-17.31,12.28-25.55,19.07-9.01,7.42-17.83,14.12-28.4,18.88-21.89,9.85-44.02,19.3-66.5,27.81-12.84,4.86-25.85,9.32-39.07,13.2-2.13.63-2.33-3.36-.6-3.87,22.93-6.73,45.17-15.25,67.11-24.43,10.77-4.5,21.47-9.16,32.16-13.82,5.75-2.5,11.54-4.94,16.91-8.22,4.93-3.01,9.43-6.74,13.9-10.48,9.14-7.63,18.59-14.78,28.35-21.44-2.18-4.29-4.36-8.56-6.54-12.84-9,5.53-18.91,9.41-27.38,15.88-4.49,3.43-8.5,7.58-13.26,10.6-4.8,3.04-10.14,5.11-15.31,7.4-21.5,9.51-43,19.02-64.51,28.54-12.13,5.37-24.27,10.74-36.4,16.1-.31.14-.5-3.65.29-4,21.29-9.42,42.58-18.84,63.87-28.25,10.86-4.8,21.72-9.61,32.57-14.41,5.24-2.32,10.58-4.47,15.68-7.06,5.05-2.57,9.33-6.18,13.68-9.89,8.88-7.57,19.45-11.94,29.29-17.79-1.91-3.75-3.82-7.49-5.72-11.23-10.17,4.56-18.72,12.02-28.09,18.08-9.7,6.27-20.57,9.86-31.31,13.94-22.67,8.62-42.96,22.69-64.19,34.27-9.88,5.39-20.33,9.95-32.24,9.32-1.4-.08.75-2.84,1.79-2.78,11.77.63,22.01-4.14,31.71-9.54,10.27-5.71,20.45-11.62,30.67-17.44,9.83-5.6,19.66-11.22,30.2-15.39,10.8-4.27,22.01-7.57,31.9-13.79,9.63-6.05,18.35-13.67,28.59-18.56-2.31-4.53-4.62-9.05-6.92-13.56-25.85,10.72-49.43,26.02-73.28,40.64-12.33,7.57-24.78,14.95-37.71,21.4-6.35,3.17-12.79,6.47-19.79,8.09-6.7,1.55-13.81,1.57-20.15,4.23-1.88.79-1.72-3.27-.57-3.98.5-.31.99-.62,1.49-.92.37-.23.66-.17.89.05,5.71-1.82,11.89-2.01,17.77-3.36,7-1.61,13.44-4.92,19.79-8.09,12.93-6.45,25.37-13.84,37.71-21.4,23.48-14.4,46.69-29.45,72.07-40.15-2.05-4.01-4.09-8-6.13-11.99-5.16,3.14-10.54,5.72-16.13,8.03-3.7,1.53-6.64,3.57-9.46,6.56-2.28,2.42-4.64,4.69-7.22,6.71-9.91,7.75-21.76,12.02-33.59,15.83-27.19,8.74-53.95,18.32-79.22,31.55-2.12,1.11-1.52-1.24-.17-1.95,24.11-12.63,49.54-22.32,75.56-30.55,13.52-4.27,27.58-8.5,38.54-17.98,4.63-4.01,8.17-8.9,13.74-11.48,5.81-2.69,11.62-5.07,17.15-8.28-2.23-4.36-4.45-8.71-6.67-13.04-11.79,4.11-20.72,14.45-31.23,20.99-11.66,7.25-24.31,12.68-36.87,18.12-11.63,5.03-23.92,7.68-36.07,11.35-13.16,3.97-25.87,9.09-38.11,15.21-.68.34-1.26-3.74-.45-4.14,11.73-5.87,23.9-10.81,36.48-14.72,13.1-4.07,26.4-6.92,38.97-12.4,12.55-5.47,25.18-10.92,36.78-18.31,9.69-6.17,17.99-15.36,28.66-19.7-1.61-3.15-3.22-6.28-4.82-9.41-.04.01-.08.03-.12.04-13.46,2.61-24.08,11.24-34.8,19.35-9.95,7.53-20.11,13.7-32.07,17.26-12.8,3.81-25.41,7.34-37.59,12.76-11.84,5.26-23.54,10.86-36.18,14.19-2.27.6-2.14-2.43-.33-2.9,13.2-3.47,25.32-9.53,37.71-14.95,11.68-5.11,23.82-8.35,36.06-11.99,13.09-3.89,23.71-11.42,34.54-19.64,9.6-7.28,19.51-14.22,31.41-16.78-1.78-3.48-3.56-6.95-5.34-10.42-11.01,6.67-22.06,13.28-33.53,19.09-11.88,6.01-24.23,10.61-36.91,14.74-13.63,4.44-25.53,11.36-37.8,18.6-10.16,6-20.69,11.24-32.62,12.96-1.54.22,1.38-1.53,2.02-1.62,13.54-1.95,24.92-9.32,36.33-16.19,9.98-6.01,20.18-10.99,31.27-14.64,12.72-4.19,25.13-8.7,37.05-14.77,11.51-5.86,22.58-12.54,33.64-19.25-1.51-2.94-3.01-5.88-4.51-8.8-12.46,3.76-23.96,10.83-35.61,16.4-11.91,5.69-23.87,11.28-35.88,16.76-12.01,5.48-24.07,10.85-36.18,16.12-11.46,4.98-22.94,10.08-35.5,12.16-2.29.38-.59-2.29.65-2.5,13.2-2.18,25.19-7.77,37.22-13.02,12.1-5.28,24.15-10.67,36.16-16.16,12-5.49,23.96-11.09,35.86-16.8,10.6-5.08,21.01-11.25,32.26-14.93-1.63-3.17-3.25-6.34-4.87-9.49-6.45,2.87-12.29,6.92-18.43,10.42-5.44,3.09-11.15,5.62-17.02,7.79-13.8,5.11-28.29,8.4-41.67,14.55-23.02,10.59-44.43,26.27-71.11,27.23-.5.02,1.82-1.63,2.58-1.66,27.54-.99,49.15-18.26,73.23-28.44,12-5.07,24.78-8.14,37.04-12.56,7.49-2.7,14.46-6.24,21.25-10.38,4.49-2.74,9.02-5.41,13.8-7.58-1.54-3-3.08-6-4.61-8.98-12.49,3.96-24.95,8.06-36.53,14.17-11.42,6.03-22.6,12.17-34.66,16.87-24.81,9.67-50.36,17.58-75.7,25.91-2.05.67-3.1-1.97-1.03-2.64,25.34-8.33,50.89-16.24,75.7-25.91,12.62-4.92,24.17-11.63,36.23-17.72,11.05-5.59,22.85-9.47,34.67-13.23-1.35-2.63-2.7-5.25-4.04-7.86-11.06,5.04-23,7.9-34.5,11.89-13.27,4.6-25.18,12.2-37.94,17.94-25.2,11.35-51.86,19.34-79.51,23.95-1.73.29-.84-3.51.41-3.72,27.86-4.64,54.75-12.69,80.1-24.24,12.14-5.53,23.51-12.73,36.12-17.22,11.22-4,22.93-6.74,33.83-11.5-2.27-4.41-4.52-8.79-6.76-13.15-23.39,10.56-43.9,26.97-69.17,33.44-13.75,3.52-27.99,5.36-41.59,9.4-13.33,3.97-26.54,8.3-39.79,12.47-1.48.47-2.35-3.76-1.15-4.14,13.26-4.17,26.46-8.5,39.79-12.47,12.91-3.84,26.37-5.78,39.5-8.91,25.88-6.16,46.73-22.72,70.46-33.57-2.01-3.91-4.01-7.79-5.99-11.65-6.18,2.31-10.99,7.72-16.38,11.42-4.71,3.24-9.99,5.41-15.38,7.22-13.18,4.4-26.73,7.93-40.09,11.84-13.53,3.96-27.05,7.92-40.58,11.88-12.35,3.62-24.62,7.78-37.53,9.62-2.21.31.73-1.13,1.44-1.23,14.18-2.02,27.65-6.8,41.2-10.77,13.53-3.96,27.06-7.92,40.58-11.88,6.76-1.98,13.53-3.96,20.29-5.94,7.04-2.06,14.3-3.81,20.96-6.85,9.14-4.18,15.87-12.35,25.14-15.97-1.85-3.59-3.68-7.16-5.51-10.7-11.8,6.74-24.09,12.73-36.92,17.27-12.3,4.36-25.58,5.62-38.08,9.4-24.8,7.52-47.9,21.22-75.56,19.01-2.22-.18-.69-3.37.84-3.25,27.34,2.19,50.23-11.49,74.75-18.93,12.64-3.83,26.09-5.07,38.51-9.56,12.19-4.4,23.88-10.13,35.13-16.52-2.03-3.95-4.06-7.88-6.06-11.77-7.3,5.48-14.57,11.08-22.38,15.7-9.04,5.35-18.41,7.52-28.94,8.8-23.05,2.79-45.09,7.56-66.96,14.19-5.33,1.62-10.72,3.06-16.3,3.86-2.9.42-5.85.65-8.85.62-1.33-.01-3.6.54-4.67-.99-.34-.49.02-1.17.24-1.47.05-.08.11-.15.16-.23.42-.6,1.6-1.17,2.36-.66.06.04.12.08.17.12.09.06.16.12.23.19,12.95.5,24.63-3.83,36.47-7.42,12.45-3.78,25.27-6.44,38.25-8.49,12.81-2.02,26.92-1.84,38.71-6.93,11-4.74,20.57-12.53,30.2-19.79-2.35-4.55-4.67-9.05-6.97-13.52-10.03,6.59-19.8,14.37-31.31,18.04-11.5,3.67-23.49,6.22-35.42,8.57-23.94,4.71-48.44,7.45-73.3,8.28-2.3.08-1.99-3.87.01-3.93,24.56-.82,48.76-3.53,72.43-8.19,11.52-2.27,23.02-4.82,34.19-8.19,11.67-3.53,21.52-11.36,31.63-18.01-1.68-3.26-3.35-6.49-5-9.7-19.2,13.59-40.9,21.92-64.34,25.74-12.73,2.08-25.49,4.04-38.23,6.05-11.34,1.79-22.73,3.66-34.73,1.72-1.08-.18.52-3.44,1.72-3.24,12.05,1.95,23.49-.06,34.87-1.86,12.09-1.91,24.19-3.79,36.27-5.74,23.06-3.71,44.41-11.53,63.39-24.7-2.08-4.03-4.13-8.01-6.17-11.96-5.62.96-10.39,3.74-15.25,6.49-5.03,2.85-10.2,5.39-15.54,7.6-10.92,4.52-22.38,7.72-34.03,10.24-11.3,2.44-22.78,4.35-34.32,5.94-10.55,1.45-21.31,2.15-32.4-.57.35.09,1.2-3.26,2.1-3.04,11.69,2.87,23,1.93,34.09.32,11.35-1.64,22.66-3.51,33.78-5.97,11.19-2.48,22.21-5.6,32.71-9.95,5.34-2.21,10.51-4.75,15.54-7.6,3.94-2.23,7.82-4.47,12.14-5.75-1.41-2.72-2.8-5.42-4.19-8.11-18.49,8.2-37.72,14.8-57.8,18.77-10.62,2.1-21.45,3.44-32.46,3.92-11.71.51-23.65-.28-35.15,1.29-1.26.17-4.22-1.78-1.91-2.1,10.49-1.43,21.32-.94,32.03-1.21,11.64-.29,23.08-1.61,34.29-3.76,20.78-3.98,40.63-10.88,59.69-19.44-2.09-4.04-4.15-8.02-6.18-11.96-1.57,2.52-4.53,3.13-7.38,4.11-5.39,1.85-10.78,3.72-16.19,5.51-10.34,3.42-20.83,6.56-31.7,8.41-11.3,1.93-22.96,2.01-34.63,2.13-12.35.13-24.7.25-37.05.38-1.86.02-.77-3.66.6-3.67,10.92-.11,21.85-.23,32.77-.34,10.81-.11,21.69.02,32.29-1.22,10.55-1.24,20.74-3.85,30.71-6.95,4.84-1.51,9.65-3.13,14.44-4.77,2.48-.85,4.96-1.7,7.44-2.55,1.47-.51,6.63-1.25,7.02-3.11.05-.23.15-.44.27-.65-1.43-2.76-2.84-5.49-4.24-8.2-9.84,3.4-19.68,6.8-29.53,10.19-9.62,3.3-19.51,5.01-29.67,6.59-21.22,3.29-42.65,6.06-64.77,4.86-2.36-.13.23-1.82,1.3-1.76,21.37,1.16,42.07-1.44,62.58-4.6,10.68-1.65,21-3.51,31.1-7,9.41-3.25,18.82-6.49,28.24-9.74-1.4-2.71-2.79-5.39-4.16-8.05-2.24,1.5-5.64,1.98-8.2,2.84-2.94.99-5.89,1.97-8.84,2.93-11.21,3.64-22.55,6.98-34.18,9.4-24.18,5.03-49.44,4.66-74.91,2.88-.39-.03-.4-4.15.47-4.09,21.95,1.54,43.9,2.22,65.01-1.07,11.04-1.72,21.8-4.42,32.38-7.57,4.9-1.46,9.76-3.01,14.61-4.61,2.53-.83,5.05-1.68,7.57-2.53.85-.29,2.81-.64,4.51-1.24-1.66-3.21-3.3-6.37-4.92-9.49-3.78,2.47-8.26,2.83-12.69,3.64-5.08.93-10.01,2.38-14.89,3.91-9.25,2.89-18.47,6.08-28.41,6.66-10.57.62-21.44-1.22-31.96-.12-11.04,1.15-21.84,3.49-32.68,5.42-.81.15-4.36-1.26-2.64-1.57,9.8-1.75,19.56-3.73,29.47-5.05,10.37-1.38,20.77-.42,31.38-.27,10.73.15,20.55-2.97,30.36-6.07,4.68-1.48,9.37-2.94,14.2-3.98,5.12-1.1,10.67-1.13,15.03-4.18.34-.23,1.27-.11,2.07.17-1.54-2.98-3.07-5.92-4.57-8.82-9.17,2.19-18.34,4.38-27.5,6.56-10.14,2.42-20.25,5.53-30.74,6.75-20.77,2.42-42.17,1.27-62.58,5.41-2.18.44-1.97-3.52-.14-3.89,19.99-4.05,40.88-3.19,61.3-5.27,10.66-1.08,20.91-4.26,31.19-6.71,8.89-2.12,17.77-4.24,26.66-6.36-1.49-2.88-2.96-5.71-4.41-8.51-7.35,5.27-16.63,6.93-25.3,9.18-9.46,2.46-19.03,4.47-28.85,5.71-20.13,2.53-40.75,3.08-61.16,4.25-1.22.07-.49-3.8.71-3.87,19.51-1.12,39.19-1.72,58.47-3.93,9.51-1.09,18.82-2.83,27.99-5.12,8.9-2.23,18.99-3.79,26.77-8.87-1.9-3.66-3.74-7.22-5.56-10.72-9.73,2-18.44,6.62-27.78,9.67-8.89,2.91-18.2,4.63-27.64,5.69-9.68,1.09-19.52,1.49-29.36,1.8-9.81.3-19.63.78-29.67-.72.45.07,1.07-3.3,1.98-3.16,9.81,1.47,19.41,1.04,29,.74,10.07-.31,20.12-.7,30.03-1.82,10.05-1.13,19.95-3.01,29.34-6.28,7.67-2.67,14.98-6.23,22.86-8.33-1.09-2.1-2.16-4.16-3.22-6.2-.13.21-.23.43-.24.62-.08,1.58-3.29,2.84-3.19.7.07-1.41.71-2.56,1.64-3.52-17.61,4.34-32.1,16.13-49.88,20.01-8.86,1.94-18.35,1.37-27.7.67-9.45-.71-18.94-1.94-28.44-3.63-1.4-.25-.44-3.78.36-4.06.44-.15.89-.3,1.33-.46.39-.13.63.23.75.78,9.18,1.58,18.35,2.74,27.47,3.37,9.36.65,18.76,1.06,27.59-1.06,15.68-3.77,28.87-13.5,44.08-18.42-.75-.59-1.04-1.67.04-2.42.58-.4,1.14-.81,1.71-1.22-1.04-1.99-2.05-3.96-3.06-5.89.03.92,0,1.82-.39,2-15.57,6.89-31.57,13.31-48.94,15.17-17.29,1.86-35.42.96-53.26-.94-.11-.01.11-3.8.49-4.08.35-.26.71-.52,1.06-.78-.15.11-.18.44-.18.87,17.56,1.84,35.37,2.68,52.38.85,17.01-1.83,32.71-8.03,47.98-14.76-2.72-5.23-5.31-10.22-7.76-14.94-.19.36-.39.72-.56,1.09-.81,1.73-2.34-.26-2.5-1.97-13.29,5.93-29.29,6.19-43.99,7.24-8.16.58-16.37.95-24.61,1.11-4.12.08-8.25.1-12.39.08-2.37-.02-5.49.85-7.6-1.42-.42-.45-.59-1.3-.35-1.79.52-1.07,1.17-1.31,2.32-1.15.51.07,1.13.5,1.45,1.07,1.22.02,3.7-.26,4.16-.26,1.84,0,3.68,0,5.51,0,3.67-.02,7.34-.09,10.99-.19,7.54-.22,15.05-.62,22.53-1.2,14.3-1.11,29.67-1.46,42.33-7.8-.49-.94-.97-1.86-1.44-2.78-.49.58-.97,1.15-1.46,1.73-1.53,1.82-2.72-1.79-1.57-3.16-5.66,2.6-11.9,3.49-18.18,4.27-7.14.88-14.36,1.42-21.64,1.59-14.64.34-29.51-.82-44.44-3.33-1.38-.23,1.13-2.54,2.18-2.37,13.82,2.32,27.58,3.46,41.17,3.3,6.52-.07,12.99-.44,19.39-1.09,7.22-.73,14.98-1.26,21.41-4.43.47-.23.88-.28,1.2-.23-2.17-4.18-4.22-8.11-6.11-11.75-.36.4-.71.79-1.06,1.19-.34.39-1.82.84-2.55.78-.2.22-.48.39-.86.46-13.31,2.62-27.02,3.84-40.95,3.56-6.88-.14-13.82-.64-20.77-1.5-3.7-.46-7.4-1.02-11.1-1.69-1.95-.35-4.2-.21-5.67-2.21-.39-.53-.3-1.34-.03-1.76.61-.95,1.37-1.06,2.46-.8.57.13.98.61,1.2,1.17,1.1.19,3.59.39,3.99.45,1.53.26,3.05.5,4.57.72,3.27.48,6.53.88,9.78,1.2,6.08.6,12.13.92,18.14.96,12.73.09,25.23-1.15,37.41-3.54,1.21-.24,2.05.7,2.19,1.66.75-.84,1.51-1.69,2.27-2.54-10.2-19.6-15.96-30.61-15.96-30.61,5.9,9.66,11.73,19.27,17.51,28.82,1.11-1.33,2.18-2.7,3.09-4.21,1.91-3.14,2.35-7.21,4.15-10.42,2.12-3.76,3.39-7.3,4.11-11.96.67-4.4,1.02-8.93,1.46-13.41,1.73-17.75,5.08-34.91,10.01-51.22.33-1.09,3.45-1.62,3.27-1.02-5.21,17.22-8.53,35.31-10.28,54.06-.42,4.49-.83,8.99-1.66,13.33-.79,4.15-2.34,6.75-4.1,10.2-1.79,3.54-2.31,7.63-4.52,10.91-1.34,1.99-2.88,3.79-4.44,5.55,1.1,1.82,2.2,3.64,3.3,5.46,1.99-3.75,6.84-6.85,8.69-8.59,2.3-2.16,5.84-4.54,6.41-8.25.33-2.14.16-4.47.51-6.62.5-3.09,1.61-5.66,3.12-8.03,2.72-4.26,2.81-9.03,4.17-14.06,1.18-4.34,2.98-8.29,4.44-12.45,3.41-9.74,4.71-20.62,6-31.41.13-1.11,2.14-2.3,2.18-2.64-1.16,9.75-2.34,19.56-5.05,28.57-1.31,4.36-3.12,8.39-4.56,12.66-1.37,4.07-1.54,8.66-2.78,12.75-1.23,4.02-4.21,6.54-5.13,10.79-.76,3.53-.15,7.71-1.52,10.91-.95,2.24-2.56,4.03-4.16,5.6-1.57,1.55-3.21,3.03-4.82,4.55-1.51,1.42-6.83,4.91-6.09,7.83.05.19,0,.39-.08.59.79,1.31,1.58,2.62,2.37,3.94,5.1-6,10.24-11.99,14.78-18.57,5.4-7.83,9.44-16.78,13.42-25.79,3.9-8.83,7-17.64,8.83-27.68,1.53-8.45,3-16.9,6.79-24.06,1.16-2.2,3.08.55,2.1,2.4-4.24,8.01-5.23,17.86-7.14,27.18-1.91,9.32-5.38,17.58-9.04,25.83-4.03,9.11-8.24,18-13.79,25.84-4.42,6.24-9.31,12-14.18,17.76.7,1.16,1.4,2.33,2.1,3.49,4.09-5.48,9.76-9.79,15-13.21,7.97-5.2,12.44-15.14,16.71-24.28,4.28-9.16,7.84-18.87,10.63-28.99,2.56-9.29,4.03-19.25,8.39-27.43,1.11-2.07,3.2,1.48,2.34,3.09-4.63,8.67-6.01,19.52-8.85,29.3-2.74,9.44-6.15,18.52-10.17,27.12-3.78,8.08-7.86,17.81-14.48,23.07-5.83,4.63-12.73,8.58-17.48,14.82,2.13,3.55,4.25,7.09,6.37,10.63,4.35-1.73,8.4-4.03,12.18-6.86,3.88-2.91,8.07-5.88,11.29-9.71,2.81-3.34,4.84-7.65,6.97-11.66,2.19-4.13,4.28-8.37,5.9-12.95,3.33-9.38,3.81-20.31,6.39-30.13,2.73-10.35,6.43-20.16,9.94-30.01.31-.88,3.32-.65,3.27-.52-3.82,10.71-7.94,21.39-10.64,32.81-2.58,10.9-3.3,22.28-7.62,32.19-3.91,8.96-8.42,18.11-15.33,23.96-6.75,5.71-13.7,10.64-21.85,13.72,2.3,3.84,4.59,7.68,6.87,11.5,14.17-10.93,26.61-24.39,36.86-40.07,5.88-9,10.87-18.72,15.34-28.89,2.21-5.01,4.36-10.07,6.84-14.88,2.27-4.39,5.75-8.31,7.4-13.11.61-1.76,4.01-1.08,3.21,1.21-1.75,5.07-5.35,9.06-7.71,13.71-2.56,5.03-4.78,10.31-7.09,15.53-4.43,10-9.46,19.5-15.26,28.36-10.52,16.06-23.35,29.82-37.92,40.97.68,1.14,1.35,2.27,2.03,3.41.63-.32,1.22-.62,1.71-.91,5.04-3.05,10.19-5.77,15.6-8.09,5.42-2.32,11.14-4.51,15.26-9.08,1.91-2.11,3.36-4.62,4.19-7.64.76-2.74.93-5.74,2.04-8.28,2.04-4.67,6.2-7.32,9.26-10.94,3.82-4.51,6.83-9.88,9.75-15.26,5.82-10.75,11.87-20.95,19.6-29.87,1.23-1.42,3.75-.2,2.16,1.63-7.53,8.69-13.4,18.66-19.07,29.13-2.64,4.88-5.38,9.68-8.65,13.97-3.12,4.09-8.18,7.07-10.24,12.12-2,4.92-2.08,10.27-5.13,14.57-2.53,3.57-5.9,6.16-9.52,8.21-4.85,2.74-10.16,4.5-15.13,6.98-2.47,1.23-4.89,2.58-7.27,3.99-.52.31-1.82.91-3.25,1.65,2.36,3.98,4.72,7.94,7.06,11.9,2.19-2.34,4.44-4.6,6.88-6.62,3.96-3.28,8.41-5.64,12.91-7.98,5.13-2.67,10.04-5.51,14.25-9.69,3.86-3.84,7.32-8.24,10.79-12.53,7.23-8.93,12.57-18.73,17.6-29.64,4.58-9.94,10.16-18.82,17.16-26.46.64-.69,3.63.37,3.57.43-7.44,8.12-13.13,17.62-17.95,28.19-4.7,10.31-9.99,19.49-16.81,27.91-6.69,8.27-13.23,15.89-22.35,20.81-5.15,2.78-10.46,5.23-15.07,8.96-3.39,2.74-6.44,5.94-9.42,9.24,1.58,2.66,3.14,5.32,4.71,7.97,7.72-6,14.24-13.52,21.96-19.56,8.81-6.9,19.21-11.11,28-18.04,8.3-6.54,14.37-15.74,19.88-25.34,2.61-4.54,5.1-9.17,7.72-13.71,2.83-4.9,6.57-9.37,8.77-14.76.61-1.5.15,2.42-.1,3.02-1.96,4.81-5.19,8.72-7.75,13.04-2.88,4.87-5.58,9.89-8.38,14.82-5.28,9.28-10.99,18.34-18.69,25.04-8.84,7.7-19.74,11.98-29.03,18.95-7.5,5.63-13.84,12.78-21.06,18.77,2.94,4.99,5.87,9.97,8.78,14.92,8.74-5.36,16.51-12.29,24.14-19.38,4.49-4.17,9.07-8.29,13.07-13.08,3.58-4.29,6.72-9.06,10.07-13.59,3.5-4.73,7.12-9.33,10.93-13.72,3.74-4.31,7.95-8.18,11.04-13.18,5.57-9.01,8.48-20.35,18.77-23.6,1.73-.55,3.6,1.7,1.37,2.41-10.83,3.43-13.57,19.31-20.69,27.66-7.61,8.92-15.22,17.59-22.15,27.27-6.52,9.11-14.08,16.55-22.08,23.91-7.21,6.63-14.67,12.93-22.95,17.87,1.33,2.27,2.65,4.53,3.98,6.8,7.14-6.77,15.1-12.44,22.84-18.34,9.6-7.31,20.02-14,28.56-22.81,15.82-16.31,22.47-43.1,43.59-52.69,1.13-.51,4.22.72,2.14,1.67-21.27,9.66-27.69,38.08-44.34,53.81-16.01,15.13-35.69,25.25-51.27,40.97,1.77,3.03,3.54,6.06,5.3,9.08,18.34-11.53,35.19-25.58,50.11-42.06,7.91-8.74,15.26-18.12,22.04-28.08,6.61-9.71,13.06-19.86,23.24-25.02,1.77-.9,4.15,1.71,2.08,2.76-10.52,5.33-16.87,16.19-23.74,26.13-6.97,10.09-14.56,19.57-22.7,28.37-14.75,15.95-31.32,29.61-49.29,40.86,2.42,4.15,4.82,8.28,7.21,12.41,8.29-6.67,16.31-13.52,23.79-21.42,8.97-9.49,18.96-16.97,28.82-25.2,9.94-8.31,16.64-18.89,23.11-30.89,5.93-11,12.42-21.81,22.85-27.56,1.35-.74,2.21,3.49.99,4.17-11.43,6.3-17.79,18.86-24.27,30.82-6.28,11.6-13.51,21.06-23.22,28.9-9.85,7.95-19.39,15.72-28.23,25.07-6.83,7.22-14.25,13.45-21.85,19.53,1.34,2.31,2.67,4.61,4,6.91,8.36-7.54,17.11-14.53,25.6-21.91,9.81-8.53,19.09-17.78,28.12-27.32,4.47-4.73,8.83-9.61,12.74-14.97,3.8-5.22,6.94-11.02,10.4-16.56,6.5-10.38,14.98-18.34,25.42-23.37,1.45-.7,4.3,1.39,2.22,2.39-11.86,5.72-20.12,15.29-27.18,27.21-6.25,10.55-13.49,19.67-21.62,28.21-8.75,9.19-17.73,18.12-27.2,26.36-8.87,7.72-18.04,15.01-26.74,22.95,1.27,2.2,2.54,4.4,3.81,6.6,3.55-1.57,7.36-2.63,10.78-4.53,5.97-3.32,11.24-8.07,16.49-12.52,10.01-8.48,19.6-17.54,28.61-27.34,17.95-19.53,34.1-41.43,55.23-56.82,1.86-1.36,3.32,2.25,1.74,3.4-21.13,15.39-37.29,37.29-55.23,56.82-9.01,9.8-18.6,18.86-28.61,27.34-4.83,4.09-9.67,8.31-14.98,11.66-3.72,2.34-8.09,3.53-12.12,5.31,1.83,3.17,3.64,6.33,5.45,9.48,2.24-1.86,4.65-3.47,7.15-5.01,5.73-3.51,11.09-7.22,16.06-11.92,9.69-9.17,20.09-17.1,30.54-25.18,22.21-17.16,43.43-35.82,63.63-55.78,1.28-1.26,4.33.42,2.66,2.07-19.42,19.19-39.79,37.15-61.04,53.78-10.56,8.26-21.43,16.02-31.24,25.38-4.53,4.32-9.08,8.39-14.31,11.65-4.01,2.5-8.18,4.79-11.78,7.91,2.19,3.82,4.38,7.64,6.55,11.44,7.8-5.57,18.27-6.57,26.8-10.93,12.49-6.38,22.39-17.01,32.28-27.23,19.66-20.31,40.8-38.67,63.37-54.86,1.82-1.31,3.07,2.69,1.52,3.81-22.34,16.03-43.25,34.2-62.71,54.3-9.16,9.46-18.31,19.23-29.45,25.86-5.42,3.23-11.24,5.27-17.27,7.11-4.37,1.34-8.86,2.74-12.61,5.32,2.12,3.71,4.22,7.4,6.32,11.09,8.7-8.96,20.16-10.98,31.69-14.89,12.73-4.32,24.29-11.6,33.94-21.35,9.76-9.86,18.2-21.18,28.39-30.54,10.34-9.49,21.59-17.65,33.58-24.52.12-.07.34,3.5-.45,3.95-11.79,6.76-22.88,14.76-33.07,24.05-10.39,9.47-18.97,20.97-28.9,31-9.48,9.59-20.82,16.79-33.31,21.13-10.94,3.81-21.94,5.72-30.57,13.43,3.34,5.87,6.65,11.71,9.93,17.53,3.69-2.42,7.49-4.65,11.25-6.95,9.84-6.02,19.66-12.09,29.34-18.39,19.93-12.99,38.89-27.49,57.51-42.55,10.16-8.21,20.27-16.49,30.4-24.74,1.84-1.5,2.39,1.39.99,2.53-22.12,18.02-43.99,36.46-67.05,53.05-11.22,8.07-22.76,15.62-34.43,22.94-5.87,3.68-11.77,7.3-17.68,10.91-3.01,1.84-6.05,3.64-9.03,5.54,2.89,5.12,5.76,10.21,8.61,15.28,11.01-6.62,22.07-13.17,32.99-19.94,5.93-3.68,11.62-7.69,16.62-12.79,4.84-4.94,9.15-10.51,13.78-15.7,18.55-20.84,42.25-34.45,65.66-47.77,1.99-1.13,3.49,2.38,1.65,3.43-23.96,13.64-48.03,27.59-66.77,49.25-4.56,5.27-8.92,10.79-13.91,15.54-4.7,4.48-9.97,8.1-15.39,11.47-10.86,6.73-21.84,13.24-32.79,19.81,3.22,5.73,6.41,11.44,9.58,17.11,1.73-.92,3.46-1.85,5.21-2.74,5.61-2.86,11.29-5.59,16.84-8.57,10.27-5.51,19.75-12.14,28.11-20.64,16.15-16.42,27.83-37.89,45.42-52.56,9.78-8.15,20.73-14.47,32.49-18.97.68-.26,3.72.29,3.22.49-21.12,8.09-38.52,22.27-52.77,40.87-14.21,18.55-27.9,36.7-47.56,48.15-5.16,3.01-10.5,5.69-15.83,8.37-3.2,1.6-6.4,3.19-9.56,4.84-.46.24-2.71,1.32-4.59,2.53,3.12,5.59,6.2,11.14,9.27,16.67,10.75-7.18,21.41-14.52,31.96-22.03,12.19-8.68,24.92-17.1,34.92-28.87,9.16-10.79,16.28-23.6,26.08-33.71,9.86-10.17,20.95-18.74,31.73-27.65,1.25-1.03,3.65-.3,1.79,1.24-8.57,7.09-17.3,13.99-25.51,21.59-8.52,7.88-15.62,16.99-22.45,26.8-6.62,9.51-13.78,18.02-22.39,25.18-8.69,7.22-17.98,13.61-27.15,20.08-9.24,6.53-18.58,12.9-27.97,19.18,2.03,3.66,4.05,7.32,6.06,10.96,6.98-5.34,13.89-10.81,19.92-17.38,3.91-4.27,7.83-8.3,12.55-11.44,5.05-3.37,10.45-6.11,15.49-9.5,20.14-13.57,35.84-33.37,52.11-52.04,4.45-5.11,8.96-10.16,13.63-15.01,4.17-4.33,8.28-8.96,14.39-9.83,2.32-.33,2.5,3.11.45,3.4-6.23.88-10.61,6.94-14.8,11.41-4.15,4.43-8.18,9-12.18,13.62-7.85,9.05-15.56,18.26-23.75,26.9-7.92,8.36-16.28,16.23-25.51,22.75-4.76,3.36-9.83,6.15-14.79,9.18-5.41,3.31-9.96,7.35-14.34,12.14-6.53,7.14-13.98,13.07-21.51,18.86,2.14,3.87,4.26,7.73,6.37,11.57,15.77-13.38,36.78-18.79,53.34-30.96,9.63-7.08,18.34-15.62,25.89-25.4,7.56-9.81,12.73-21.86,20.28-31.61,4.16-5.38,9.31-9.62,14.35-13.88,5.17-4.37,10.51-8.36,16.83-10.69.53-.19,1.49,3.91.48,4.28-5.99,2.21-11.08,6-16,10.12-4.57,3.84-9.22,7.67-13.21,12.28-7.82,9.05-12.75,21.16-19.91,30.93-7.33,10-15.85,18.79-25.31,26.14-9.44,7.33-19.86,12.68-30.51,17.81-8.51,4.1-17,8.38-24.4,14.33,1.97,3.59,3.93,7.16,5.87,10.73,16.05-14.23,34.81-24.2,52.94-35.06,10.8-6.47,21.44-13.33,30.96-21.86,9.11-8.16,16.67-18.16,24.56-27.78,7.73-9.43,15.95-18.26,25.97-24.61,2.07-1.31.78.64-.28,1.31-19.21,12.18-30.83,34.63-47.66,50.07-16.69,15.3-36.57,25.54-55.59,37.01-10.65,6.42-21.06,13.32-30.41,21.79,1.51,2.76,3.01,5.51,4.5,8.25,1.19-.7,2.22-1.25,2.71-1.6,5.24-3.71,10.44-7.46,15.76-11.04,10.3-6.94,21.15-12.03,32.63-16.6,12.11-4.83,22.29-11.89,31.47-21.58,8.06-8.51,15.26-18.01,23.13-26.74,8.44-9.38,17.74-17.77,29.03-22.76.87-.39,4.18-.06,2.14.85-20.47,9.05-33.46,29.33-48.57,45.98-7,7.72-14.61,14.8-23.49,19.79-10.47,5.87-22.27,8.86-32.73,14.76-6.52,3.67-12.68,7.97-18.81,12.31-1.43,1.01-8.04,4.95-12.24,8.51,3.55,6.51,7.06,12.99,10.54,19.42,10.59-5.92,20.5-13.08,30.79-19.57,5.95-3.75,12.05-7.28,18.45-10.17,6.37-2.87,13.17-4.81,19.37-8.03,7-3.63,12.56-9.43,17.97-15.38,5.04-5.54,10.14-10.99,15.46-16.19,5.32-5.21,10.77-10.24,16.26-15.24,4.73-4.31,9.28-9.16,15.12-11.7,1.35-.59,3.67.29,1.46,1.25-6.84,2.97-12.34,9.49-17.88,14.59-5.46,5.02-10.87,10.12-16.12,15.42-9.86,9.95-18.45,22.15-30.8,28.5-6.22,3.2-13,5.16-19.37,8.03-6.99,3.15-13.58,7.09-20.04,11.25-9.89,6.37-19.53,13.18-29.81,18.84,2.41,4.46,4.8,8.9,7.18,13.32,18.77-10.51,39.31-17.47,57.87-28.41,10.15-5.98,19.76-13.2,27.6-22.55,7.74-9.22,14.83-18.69,23.82-26.43,9.96-8.58,21.07-15.45,32.99-20.58.77-.33.71,3.6-.27,4.02-10.97,4.72-21.24,10.92-30.55,18.61-9.3,7.69-16.87,16.98-24.57,26.59-15,18.7-36.24,28.83-57.01,38.19-9.53,4.29-19.09,8.53-28.27,13.53,3.09,5.76,6.15,11.47,9.19,17.16,8.46-6.93,18.78-10.24,29.04-13.56,10.91-3.53,21.23-7.69,30.18-15.14,9.18-7.64,16.79-17.31,24.66-26.58,7.71-9.08,15.9-17.55,24.87-25.03,10.36-8.64,21.58-15.96,33.46-22,.91-.46,1.37,3.66.41,4.15-21.3,10.84-40.11,25.91-56.18,44.6-7.46,8.67-14.56,17.79-22.83,25.49-8.75,8.15-18.66,13.48-29.8,17.23-11.14,3.75-22.68,6.8-32.13,14,4.27,8.01,8.49,15.94,12.64,23.79,4.85-6.4,8.6-14.15,13.86-20.05,8.2-9.22,19.06-14.72,29.3-20.76,10.95-6.46,20.13-14.59,28.76-24.37,8.51-9.65,17.08-18.89,26.79-27.01,11.58-9.67,23.38-19.03,35.08-28.53,1.74-1.42,4.11,1.72,2.34,3.15-20.45,16.59-41.51,32.24-59.23,52.51-8.12,9.29-16.41,17.99-26.56,24.49-10.72,6.88-22.56,12.08-31.85,21.26-6.59,6.51-10.85,15.56-16.61,22.89,1.83,3.47,3.65,6.92,5.46,10.36,9.61-6.66,16.84-16.45,24.37-25.79,7.32-9.07,15.37-16.98,24.43-23.79,9.72-7.31,20.07-13.6,30.05-20.49,10.34-7.14,19.74-15.28,28.51-24.63,9.34-9.95,18.61-20.17,30.86-25.74-.32.15-.84,2.79-1.74,3.2-11.31,5.14-20.07,14.3-28.69,23.51-8.21,8.77-16.72,16.85-26.28,23.75-9.85,7.12-20.22,13.36-30.11,20.41-10.44,7.45-19.78,16.03-28.08,26.33-7.08,8.78-13.93,17.9-22.6,24.62,1.03,1.95,2.05,3.9,3.07,5.84.3-.34.65-.66,1.13-1.01,2.73-2.02,5.66-3.74,8.38-5.78,4.99-3.74,9.76-7.82,14.42-12.05,9.17-8.34,17.9-17.27,27.11-25.55,9.19-8.26,19.03-14.96,29.34-21.44,5.64-3.54,9.94-8.42,14.51-13.42,4.13-4.52,8.53-8.71,13.18-12.55,10.52-8.69,22.28-15.4,34.88-20.24,2.14-.82,1.04,2.37-.25,2.87-11.41,4.38-22.08,10.44-31.71,18.13-4.81,3.84-9.35,8.07-13.59,12.66-3.64,3.95-7.04,8.23-11.2,11.51-4.5,3.54-9.64,6.04-14.38,9.18-4.81,3.17-9.4,6.73-13.84,10.47-9.2,7.76-17.77,16.4-26.57,24.72-4.64,4.39-9.35,8.71-14.24,12.76-2.41,1.99-4.86,3.93-7.37,5.77-1.43,1.05-2.89,2.08-4.36,3.07-.52.35-1.08.87-1.67,1.1-.25.16-.5.33-.76.49-.03.02-.06.03-.09.05.02.1.03.21.05.31.16,1.01-.61,1.74-1.32,2.09,2.24,4.27,4.47,8.53,6.67,12.76,7.65-5.9,15.32-11.77,22.81-17.91,5.06-4.14,9.87-8.57,14.36-13.46,3.98-4.33,7.86-8.8,12.34-12.47,9.12-7.48,20.07-11.79,29.93-18,10.61-6.68,19.7-15.71,29.43-23.74,10.42-8.61,21.93-14.88,33.91-20.74,1.28-.63,3.55,0,1.38,1.07-11.29,5.52-22.16,11.43-32.01,19.51-9.15,7.5-17.71,15.87-27.43,22.53-9.73,6.67-20.82,10.9-30.31,17.97-9.64,7.18-16.99,17.59-26.21,25.41-8.86,7.51-18.12,14.48-27.3,21.55,1.34,2.58,2.68,5.14,4.01,7.7,6.35-6.17,14.52-9.51,21.52-14.81,4.42-3.35,7.79-7.98,11.78-11.9,4.04-3.96,8.58-7.21,13.2-10.29,19.91-13.22,40.21-25.82,60.32-38.71,11.6-7.44,23.08-15.11,34.93-22.11.98-.58,4.18.04,2.22,1.2-25.77,15.21-50.65,32.18-75.88,48.36-12.83,8.22-26.15,15.63-36.6,27.4-4.24,4.78-9.03,8.39-14.34,11.59-5.66,3.41-11.41,6.6-15.87,11.73,1.46,2.81,2.91,5.61,4.35,8.39,4.89-7.55,12.38-11.6,19.09-17.01,4.34-3.49,7.87-8.06,12.41-11.26,4.39-3.09,9.37-5.14,14.43-6.86,11.81-4.02,23.75-7.33,34.65-13.48,10.37-5.85,19.35-14.02,28.93-21.16,11.31-8.43,23.08-16.09,35.26-23.04,1.08-.61.45,3.18-.34,3.63-10.14,5.79-20.02,12.07-29.57,18.89-9.39,6.7-18.13,14.43-27.63,20.95-9.39,6.44-19.85,10.93-30.65,14.43-11.26,3.64-22.45,6.57-31.14,15.24-3.92,3.92-7.97,7.36-12.42,10.53-4.39,3.12-8.88,6.32-12.06,10.98,2.76,5.34,5.49,10.64,8.2,15.9,13.12-5.61,26.3-11.36,37.88-19.94,5.46-4.04,10.05-9.15,15.25-13.53,5.48-4.62,11.92-7.69,17.81-11.64,11.99-8.04,22.1-18.76,33.36-27.87,11.66-9.43,24.28-17.44,38.46-22.08,1.54-.5,2.3,3.75,1.01,4.17-14.19,4.64-26.81,12.65-38.46,22.08-11.27,9.12-21.37,19.83-33.36,27.87-6.17,4.13-12.94,7.31-18.57,12.31-4.85,4.3-9.31,9.02-14.49,12.86-11.31,8.38-24.14,14.06-36.95,19.54,3.97,7.74,7.87,15.38,11.72,22.93,7.98-7.25,16.38-13.91,25.25-19.82,9.63-6.42,19.44-12.1,27.75-20.54,8.31-8.43,16.27-17.03,25.45-24.32,9.09-7.23,18.66-13.75,28.11-20.41,5.39-3.79,10.77-7.59,16.16-11.38,4.82-3.39,9.63-6.73,15.38-8.24,1.91-.5,1.91,3.6.46,3.98-7.09,1.86-12.86,6.52-18.79,10.69-6.16,4.34-12.31,8.67-18.47,13.01-11.84,8.34-23.77,16.66-34.33,26.89-5.08,4.92-9.74,10.37-14.81,15.3-5.38,5.23-11.39,9.41-17.62,13.35-11.58,7.34-22.63,15.35-32.95,24.61,2,3.93,3.97,7.83,5.93,11.71,7.44-6.2,14.88-12.39,22.32-18.59,9.55-7.95,18.87-16.4,28.86-23.69,9.69-7.07,20.94-11.24,30.59-18.39,9.4-6.97,17.77-15.41,26.45-23.4,9.5-8.75,19.46-16.85,31.17-21.96.57-.25.17,3.42-.81,3.85-21.37,9.31-36.32,28.84-54.57,43.15-9.29,7.28-20.01,11.6-29.78,18-10.29,6.75-19.53,15.44-29.05,23.37-8.01,6.67-16.01,13.34-24.02,20,.94,1.86,1.89,3.73,2.82,5.59,20.28-12.41,40.15-25.68,59.13-40.25,18.72-14.36,34.5-32.73,53.54-46.66,5.41-3.96,11-7.64,16.86-10.83,4.3-2.34,8.74-4.03,13.89-3.51,2.09.21-.48,2.61-1.69,2.49-7.8-.78-14.94,5.06-20.96,9.06-6.1,4.06-11.94,8.54-17.58,13.3-11,9.27-20.95,19.92-31.83,29.33-21.71,18.78-46.08,34.37-70.3,49.15,3.05,6.06,6.06,12.06,9.03,17.99,10.48-6.97,18.9-16.99,28.12-25.82,11.02-10.54,23.61-18.77,36.02-27.24,12.8-8.74,24.74-18.52,36.54-28.75,11.73-10.17,23.6-20.17,37.06-27.62.89-.49,1.23,3.64.23,4.19-13.46,7.45-25.34,17.45-37.06,27.62-11.8,10.23-23.73,20.02-36.54,28.75-13.07,8.91-26.24,17.61-37.69,28.9-8.14,8.03-15.84,16.75-25.06,23.2,1.57,3.15,3.13,6.28,4.68,9.39,8.24-10.16,18.59-17.57,28.8-25.15,12.16-9.02,24.58-17.63,37.26-25.8,12.34-7.96,25.18-15.21,36.43-24.92,11.13-9.61,21.01-21.07,34.32-27.29-.12.06,1.1,3.98.41,4.3-13.09,6.12-22.87,17.32-33.79,26.83-11.03,9.61-23.6,16.79-35.76,24.6-12.29,7.89-24.34,16.18-36.15,24.87-10.52,7.74-21.39,15.3-30.04,25.55,3.18,6.41,6.31,12.73,9.39,18.98,8.15-10.11,16.42-20.14,25.73-28.91,10.6-9.99,22.8-17.68,34.55-25.93,24.36-17.08,48.52-34.49,72.49-52.2,1.68-1.24,2.87,2.88,1.52,3.87-23.58,17.42-47.34,34.55-71.3,51.37-11.57,8.12-23.65,15.68-34.21,25.34-9.85,9.02-18.49,19.5-27.01,30.08,2.55,5.19,5.06,10.31,7.54,15.39,8.6-9.6,17.17-19.25,25.86-28.74,9.33-10.19,20.31-17.31,31.76-24.29,24.63-15.01,47.31-32.68,67.06-52.62,1.36-1.38,4.47.6,2.82,2.26-19.89,19.99-41.75,37.38-65.36,51.8-11.97,7.32-23.69,14.43-33.46,25.11-9.07,9.9-18,19.97-26.97,29.98,2.27,4.66,4.51,9.27,6.73,13.84,9.84-8.4,17.73-19.28,27.07-28.34,10.04-9.74,21.37-17.82,32.57-25.87,10.94-7.87,22.12-15.34,33.44-22.6,11.75-7.53,23.61-15.39,31.5-28.08,1.17-1.89,2.68-.51,1.5,1.39-7.16,11.52-17.33,19.41-27.97,26.42-12.03,7.92-24.15,15.65-35.91,24.03-11.6,8.27-23.37,16.56-33.83,26.53-9.51,9.06-17.47,20.05-27.33,28.66,2.54,5.25,5.05,10.44,7.51,15.56,11.64-6.19,17.82-20.84,27.09-30.25,9.44-9.59,21.76-14.86,31.51-24.06,4.64-4.38,9.12-8.96,14.14-12.81,4.91-3.77,10.14-7.02,15.37-10.25,12.36-7.64,24.15-16.06,35.15-25.86.4-.36,3.46-1.74,2.4-.79-8.67,7.72-17.8,14.78-27.4,21.06-10.05,6.58-20.61,12.24-29.58,20.53-7.72,7.13-15.14,14.04-23.85,19.72-5.38,3.5-10.79,6.99-15.34,11.74-3.9,4.05-7.22,8.76-10.62,13.37-5.4,7.31-11.07,13.92-18.58,18.17,2.72,5.66,5.39,11.23,8.01,16.73,15.6-23.41,36.82-41.2,56.76-59.41,5.22-4.76,10.59-9.33,16.47-13.08,5.42-3.46,11.26-6.09,16.95-9.03,6.35-3.28,12.13-7.19,17.37-12.24,5.21-5.02,10.08-10.43,15.99-14.45,1.3-.88,1.52,3.23.62,3.84-10.85,7.37-18.73,18.63-30.24,25.07-5.91,3.3-12.16,5.95-18,9.39-6.32,3.72-12.03,8.45-17.54,13.43-10.27,9.28-20.35,18.85-30.39,28.45-9.74,9.32-18.89,19.32-26.66,30.87,2.02,4.24,4.01,8.43,5.97,12.57,6.99-9.59,15.03-18.04,23.08-26.44,9.94-10.37,19.93-20.73,30.76-29.94,21.81-18.52,47.86-30.58,68.16-51.3,1.44-1.47,4,.67,2.34,2.35-19.99,20.41-45.54,32.34-67.11,50.42-10.89,9.13-20.9,19.45-30.85,29.82-8.66,9.03-17.39,18.03-24.77,28.5,2.41,5.1,4.78,10.13,7.1,15.08,9.46-18.75,26.56-28.78,39.43-43.9,7.2-8.46,13.32-18.21,21.51-25.5,8.83-7.86,20.19-10.49,30.43-15.72,12.22-6.24,23.12-14.96,32.32-25.72,1.49-1.75.43,1.65-.13,2.31-9.05,10.59-19.58,19.37-31.5,25.75-6.38,3.42-13.21,5.71-19.79,8.67-6.71,3.02-12.39,7.47-17.43,13.1-9.23,10.32-16.99,21.91-27.09,31.23-9.94,9.18-20.88,17.81-27.16,31.03,4.69,10.01,9.2,19.69,13.52,29.06,19.26-21.49,38.88-42.35,61.32-59.67,10.86-8.38,22.28-15.74,33.76-23.09,11.67-7.47,23.09-15.44,32.32-26.43,1.1-1.31,4.35.51,2.9,2.24-8.82,10.5-19.65,18.28-30.77,25.48-11.96,7.74-23.96,15.29-35.3,24.04-22.58,17.42-42.3,38.43-61.68,60.06-.28.32-.7.44-1.14.42,1.62,3.52,3.22,6.99,4.79,10.42,11.95-8.19,24.35-15.88,35.68-25.05,11.1-8.98,19.78-20.95,29.47-31.68,9.38-10.38,20.15-18.81,31.68-26.06,5.91-3.71,11.97-7.14,18.09-10.47,5.94-3.23,11.83-6.94,18.28-9.07,2.04-.68,3.1,1.91,1.03,2.59-6.98,2.3-13.38,6.43-19.8,9.96-5.9,3.25-11.75,6.61-17.43,10.26-11.83,7.59-22.53,16.62-32.02,27.52-9.04,10.38-17.53,21.35-28.17,29.73-11.39,8.96-23.67,16.69-35.56,24.87-.02.01-.04.02-.05.03,1.81,3.95,3.58,7.82,5.31,11.64,11.22-7.15,20.08-17.76,30.78-25.71,11.03-8.21,23.97-12.9,35.6-20.02,12.29-7.53,22.21-18.55,33.59-27.45,10.77-8.42,23.44-13.88,32.94-24.19-.08.09.64,3.36,0,4.07-9.81,10.64-22.97,16.21-34,25.04-10.63,8.5-20.06,18.77-31.54,26-12.25,7.72-26.05,12.53-37.64,21.43-9.78,7.52-18.13,17.08-28.31,23.97,2.84,6.26,5.59,12.35,8.24,18.26,3.78-2.88,7.07-6.53,10.6-9.82,4.98-4.63,10.41-8.6,16-12.3,11.27-7.45,22.93-14.22,34.24-21.61,11.5-7.52,22.85-15.31,34.05-23.34,5.4-3.87,10.9-7.75,15.29-13.03,3.16-3.8,5.19-7.63,10.44-7.58,2.06.02,2.22.7.1.68-2.85-.03-4.97,4.58-6.57,6.57-2,2.48-4.26,4.66-6.64,6.67-5.06,4.28-10.56,7.96-15.94,11.75-10.68,7.53-21.5,14.83-32.47,21.89-10.71,6.89-21.81,13.17-32.3,20.44-5.16,3.57-10.08,7.49-14.64,11.94-3.63,3.54-7.1,7.15-11.28,9.72,2.78,6.21,5.47,12.22,8.04,18.03,3.61-3.04,6.41-7.15,9.35-11.06,3.44-4.59,7.19-8.48,11.92-11.34,10.66-6.45,22.94-9.84,33.93-15.69,22.81-12.15,45.57-24.77,64.58-43.18.72-.69,3.46-.12,3.5-.16-19.11,18.51-41.94,31.23-64.88,43.45-5.28,2.82-10.66,5.43-16.2,7.69-6.38,2.6-12.96,4.9-18.79,8.66-9.11,5.88-13.64,17.57-22.6,23.45,1.74,3.94,3.44,7.78,5.08,11.52,7.55-6.48,15.31-12.53,23.89-17.45,9.8-5.61,19.88-10.72,30.05-15.61,10.61-5.1,21.85-9.12,32.17-14.79,10.47-5.76,16.82-15.36,23.68-25.62,1-1.5,4.3.15,3.01,2.08-6.43,9.6-12.45,19.07-22,24.85-9.92,6-21.1,9.81-31.55,14.74-10.97,5.17-21.82,10.65-32.38,16.65-9.14,5.2-17.36,11.63-25.37,18.55,3.25,7.42,6.3,14.44,9.16,21.07,1.25-3.58,2.88-6.62,5.67-8.89,3.84-3.12,8.6-4.67,13.01-6.7,10.98-5.05,20.44-11.72,28.91-20.82,14.51-15.59,30.68-33.68,52.17-36.94,1.89-.29-.19,2.58-1.22,2.73-20.76,3.14-36.04,21.38-50.09,36.31-6.52,6.93-13.67,12.68-21.81,17.12-3.91,2.14-7.96,3.99-12.05,5.77-2.35,1.02-4.78,2-6.88,3.51-2.89,2.08-4.24,5.15-5.36,8.86-.14.45-.75.95-1.4,1.28,1.97,4.57,3.84,8.94,5.63,13.11.14-.01.14.09.08.23.35.82.7,1.64,1.04,2.44,5.53-6.79,12.51-11.54,19.3-16.62,8.1-6.06,15.74-12.8,23.33-19.6,3.66-3.27,7.35-6.5,10.81-10.04,3.65-3.73,6.71-8.03,9.99-12.17,5.59-7.07,12.52-11.67,21.09-13.45,1.24-.26,4.19,1.58,1.93,2.05-10.24,2.14-16.68,8.88-23.06,17.27-5.47,7.19-12.03,12.95-18.57,18.79-6.91,6.17-13.87,12.28-21.2,17.84-7.44,5.64-15.36,10.65-21.22,18.46-.21.28-.67.38-1.18.37,1.79,4.23,3.49,8.24,5.07,12.02,7.44-.24,14.04-4.44,19.94-8.55,7.21-5.02,14.16-10.5,20.84-16.33,6.17-5.39,11.98-11.22,17.84-17.03,5.71-5.67,11.73-10.89,19.15-13.64.82-.3,4.2,1.13,3.16,1.52-8.7,3.22-15.36,9.9-21.98,16.58-6.66,6.71-13.55,13.09-20.78,19-10.65,8.71-22.91,20.15-37.46,20.15,3.14,7.5,5.86,14.08,8.15,19.69.23-.34.46-.68.72-.98,1.29-1.52,2.89-2.72,4.47-3.87,2.39-1.74,4.75-3.38,6.78-5.6,1.73-1.89,3.25-3.98,4.85-5.99,6.85-8.61,14.44-16.49,22.02-24.35.82-.86,1.13,2.1.55,2.7-7.83,8.13-15.65,16.28-22.7,25.22-3.21,4.07-6.35,7.5-10.48,10.46-1.95,1.4-3.79,2.81-5.29,4.69,1.85,4.55,3.6,9.17,5.27,13.84l.25-.15c2.06,5.19,3.08,7.84,3.08,7.84l-.57.26c7.07,20.94,12.92,42.64,20.06,63.41,22.06,64.18,27,132.78,31.77,200.48"/>
    <path class="cls-12" d="M557.79,1365.17c-12.01,7.48-24.15,14.78-35.37,23.57-11.1,8.7-21.34,18.63-31.18,29.02-10.11,10.68-20.74,21.37-29.58,33.5-.65.89-.99-3.05-.47-3.76,8.12-11.14,17.8-20.92,27.02-30.81,9.77-10.48,19.9-20.57,30.84-29.5,11.06-9.03,23.05-16.51,35.07-23.96,5.83-3.61,11.65-7.23,17.35-11.06,5.33-3.58,11.42-7.12,13.59-14.28.54-1.78.97,2.36.73,3.17-1.73,5.71-5.6,9.22-9.87,12.28-5.88,4.22-12.02,8.03-18.14,11.84Z"/>
    <path class="cls-1" d="M130.89,684.45c-4.43-.77-33.35-.07-50.9,23.18-17.55,23.24-56.23,42.38-50.38,64.97,5.84,22.59-8.75,32.82,6.56,85.95,15.31,53.13,1.5,76.47,17.35,127.56,15.86,51.09,35.35,64.64,45.69,118.24,10.34,53.6,12.07,119.2,63.26,164.96,51.19,45.77,25.4,60.67,55.7,99.57,30.3,38.9,21.67,32.96,55.31,75.95,33.64,42.99,19.55,93.36,84.37,136.52,64.81,43.15,89.98,75.65,173.95,79.58,0,0,24.61,8.53,32.26-73.89,7.64-82.42,53.55-97.04,6.64-240.74-46.91-143.7-49.21-161.75-75.55-206.59-26.34-44.84-45.47-91.75-81.44-130.09-35.97-38.34-36.64-91.86-100.46-150.72,0,0-39.43-65.47-89.36-101.95-49.93-36.48-48.76-64.81-92.98-72.49Z"/>
    <path class="cls-3" d="M273.11,583.78c.86-2.41,1.45-4.01,1.4-4.67-.14-1.67-.97.31-1.4,4.67Z"/>
  </g>
</svg>