<?xml version="1.0" encoding="UTF-8"?>
<svg id="Layer_2" data-name="Layer 2" xmlns="http://www.w3.org/2000/svg" xmlns:xlink="http://www.w3.org/1999/xlink" viewBox="0 0 1041.81 1221.56">
  <defs>
    <style>
      .cls-1 {
        fill: none;
      }

      .cls-2 {
        fill: #992;
      }

      .cls-3 {
        fill: #784433;
      }

      .cls-4 {
        fill: #59590e;
      }

      .cls-5 {
        fill: #719ca8;
      }

      .cls-6 {
        clip-path: url(#clippath);
      }
    </style>
    <clipPath id="clippath">
      <path class="cls-1" d="M704.68,197.82s82.29-112.99,164.21-177.4c24.24-19.06,55.15-25.01,82.4-15.88,26.65,8.93,57.58,22.41,64.84,38.56,13.33,29.64,17.6,144.23,22.81,223.57,5.21,79.34-25.88,344.68-251.63,637.41,0,0-123.46,161.26-268.19,198.52,0,0-22.44,14.1-46.27-50.71-23.83-64.81-29.88-250.25-8.73-318.5,21.15-68.25,25.48-112.88,30.73-133.73,5.26-20.85,68.26-188.74,209.82-401.84Z"/>
    </clipPath>
  </defs>
  <g id="Layer_1-2" data-name="Layer 1">
    <g>
      <g>
        <g>
          <g>
            <path class="cls-4" d="M495.2,1092.9c2.83-5.06,5.66-10.11,8.49-15.17.4-.71,1.13-.9,1.84-.92,7.39-.13,14.77-.25,22.16-.38.35-.13.73-.12,1.09,0,1.25.08,1.85,1.26,1.72,2.37,0,.33-.06.66-.23,1-20.35,41.11-40.7,82.21-61.05,123.32-2.89,5.84-5.78,11.68-8.67,17.52-.52,1.06-2.08,1.14-2.84.54-7.41-5.77-14.83-11.54-22.24-17.31-.88-.69-1.28-1.9-.66-3.01,20.14-35.99,40.27-71.98,60.41-107.97Z"/>
            <g>
              <path class="cls-2" d="M704.68,197.82s82.29-112.99,164.21-177.4c24.24-19.06,55.15-25.01,82.4-15.88,26.65,8.93,57.58,22.41,64.84,38.56,13.33,29.64,17.6,144.23,22.81,223.57,5.21,79.34-25.88,344.68-251.63,637.41,0,0-123.46,161.26-268.19,198.52,0,0-22.44,14.1-46.27-50.71-23.83-64.81-29.88-250.25-8.73-318.5,21.15-68.25,25.48-112.88,30.73-133.73,5.26-20.85,68.26-188.74,209.82-401.84Z"/>
              <g class="cls-6">
                <path class="cls-4" d="M968.94,69.38c-9.4-.2-19.02-.09-28.02-1.87-1.82-.36-.83,3.94.48,4.2,8.42,1.67,17.37,1.61,26.16,1.83,9.22.23,18.49.28,27.86-.28,17.31-1.04,34.97-4.29,52.43-11.86,1.74-.76.27-4.83-1.14-4.22-16.92,7.34-34.04,10.63-50.83,11.76-9.06.61-18.02.63-26.93.44Z"/>
                <path class="cls-4" d="M1055.45,79.56c-20.15,5.21-40.67,9.35-60.5,10.37-20.24,1.03-39.28-3.28-57.86-8.19.51.13-.07,4.22.9,4.48,18.58,4.91,37.62,9.22,57.86,8.19,20.15-1.03,41.04-5.29,61.5-10.63.12-.03-.44-4.23-.9-4.48-.43-.23-.86-.46-1.29-.69.18.1.25.46.28.95Z"/>
                <path class="cls-4" d="M990.54,117.22c-11.71.54-23.32.21-34.45-1.76-10.42-1.85-20.37-5.08-31.21-5.5.84.03,1.34,3.14,2.55,3.18,11.53.44,22.07,4.1,33.22,5.86,10.52,1.65,21.43,1.91,32.44,1.4,11.29-.52,22.69-1.84,34.1-3.26,11.37-1.42,22.77-2.66,34.25-6.14-.52.16-1.52-3.5-2.55-3.18-11.23,3.41-22.36,4.65-33.48,6.05-11.66,1.46-23.33,2.83-34.87,3.36Z"/>
                <path class="cls-4" d="M989.95,133.53c-11.09.49-22,.22-32.79-.7-11.33-.96-24.21-.8-33.95-6.24-1.91-1.07-1.18,3.22-.11,3.82,9.12,5.09,20.44,5.25,31.03,6.25,11.14,1.05,22.38,1.59,33.84,1.2,23.48-.79,47.38-3.87,71.08-6.24,1.42-.14.25-4.35-1.15-4.21-22.66,2.26-45.46,5.12-67.94,6.11Z"/>
                <path class="cls-4" d="M953.38,144.67c-11.86-.88-23.72-1.76-35.57-2.64-2.63-.19-3.11,4.17-.82,4.34,11.86.88,23.72,1.76,35.57,2.64,11.93.89,23.88,2.55,36.12,2.03,24.22-1.03,48.86-6.16,72.81-5.2,2.56.1,1.98-4.3-.16-4.38-23.45-.94-47.54,3.78-71.32,5.12-12.42.7-24.54-1.01-36.62-1.91Z"/>
                <path class="cls-4" d="M981.22,160.82c-12.39,2.1-24.01.37-35.62-1.34-5.53-.81-11.08-1.6-16.76-1.9-6.01-.32-12.44.66-17.73-1.98-.87-.44-4.82,1.5-3.6,2.11,4.68,2.33,10.08,1.88,15.45,1.99,5.96.13,11.77.87,17.55,1.7,10.93,1.57,21.86,3.48,33.42,2.35,12.28-1.21,24.69-5.22,36.94-5.88,12.87-.7,25.54-.02,38.24.2.95.02,4.94-2.2,2.92-2.23-11.48-.19-22.93-.66-34.5-.35-12.11.32-24.05,3.27-36.31,5.34Z"/>
                <path class="cls-4" d="M1047.09,185.99c-24.61,5.14-48.77,5.95-72.75,6.1-12.49.08-24.58-.16-36.55-2.24-11.84-2.06-23.68-4.12-35.53-6.19-1.62-.28-4.23,1.17-1.52,1.64,12.61,2.19,25.21,4.4,37.82,6.58,11.4,1.97,22.98,2.1,34.86,2.04,24.81-.13,49.83-.89,75.3-6.21,2.72-.57-.42-2-1.65-1.74Z"/>
                <path class="cls-4" d="M1045.37,195.16c-13,1.69-26,3.37-39,5.06-12.86,1.67-25.79,3.63-38.51,3.99-12.67.36-25.05-.89-37.22-2.73-5.91-.89-11.79-1.92-17.65-2.97-3.04-.54-6.07-1.09-9.11-1.63-1.8-.32-8.01-.31-8.66-2.34-.58-1.8-4.01-2.66-3.1.14,1.61,5,6.14,5.09,10.51,5.87,6.6,1.19,13.19,2.4,19.81,3.52,12.65,2.14,25.43,3.93,38.54,4.22,13.63.29,27.51-1.55,41.39-3.35,14.7-1.91,29.39-3.82,44.09-5.72,2.22-.29.55-4.25-1.08-4.04Z"/>
                <path class="cls-4" d="M958.15,241.64c-13.15-.76-26.15-2.28-38.66-5.26-6.36-1.51-12.55-3.43-18.61-5.71-5.88-2.22-11.65-4.49-18.28-4.53.36,0,1.41,3.04,2.49,3.04,6.62.04,12.4,2.31,18.28,4.53,6.05,2.29,12.25,4.2,18.61,5.71,13.01,3.09,26.53,4.62,40.21,5.35,13.27.71,26.71.78,40.18.48,12.32-.27,24.82-1.43,37.42-6.47-.39.16-1.66-3.44-2.68-3.03-13.28,5.31-26.43,6.29-39.39,6.49-13.26.2-26.5.15-39.56-.61Z"/>
                <path class="cls-4" d="M911.13,272.36c-13.84-1.85-25.91-8.89-38.19-14.53-2.32-1.07-3.81,3.22-1.65,4.21,12.15,5.58,24.1,12.53,37.71,14.57,13.6,2.04,27.69,2.74,41.68,3.23,28.08.97,56.64-.37,85.45-3.91,2.67-.33,1.98-4.69-.34-4.4-28.47,3.49-56.68,4.82-84.43,3.86-13.51-.47-27.03-1.26-40.22-3.02Z"/>
                <path class="cls-4" d="M991.23,298.57c-14.71-1.99-29.75-2.67-44.94-2.62-14.98.04-31.28,2.78-45.34-.79-14.28-3.63-26.91-11.61-39.71-18.41-1.8-.95-4.5,1.34-2.19,2.57,10.27,5.46,20.39,11.38,31.22,15.72,10.91,4.36,21.92,5.11,34.2,4.64,26.88-1.02,52.77.35,78.61,3.85,6.29.85,12.65,1.49,19.17,1.39,3.39-.06,6.82-.32,10.28-.89,1.53-.25,4.21-.04,5.32-1.95.36-.61-.12-1.3-.4-1.61-.07-.08-.14-.15-.21-.23-.53-.6-1.95-1.03-2.79-.31-.06.05-.13.11-.19.16-.1.08-.17.17-.25.25-14.93,2.89-28.8.14-42.79-1.75Z"/>
                <path class="cls-4" d="M900.18,308.38c-15.67-3.05-30.84-7.85-45.5-13.54-2.5-.97-2.64,2.6-.66,3.37,15.13,5.88,30.81,10.79,47.02,13.83,14.93,2.81,30.72,1.97,45.82,4.1,29.98,4.24,58.55,15.72,90.96,8.53,2.6-.58.49-3.9-1.3-3.51-32.04,7.11-60.35-4.38-90-8.57-15.28-2.16-31.26-1.27-46.35-4.2Z"/>
                <path class="cls-4" d="M934,334c-8.39-1.17-16.78-2.34-25.18-3.51-8.74-1.22-17.7-2.05-26.08-4.44-13.37-3.82-23.42-14.27-38.04-14.9-2.68-.12,1.02,1.13,1.88,1.17,9.41.41,16.73,6.96,24.72,10.8,6.06,2.91,12.67,4.54,19.39,5.73,16.41,2.9,33.17,4.74,49.75,7.05,16.78,2.34,33.57,4.68,50.35,7.02,15.32,2.14,30.61,4.91,46.41,4.94,2.7,0-1.01-1.17-1.88-1.17-17.35-.04-34.16-3.32-50.98-5.67-16.78-2.34-33.57-4.68-50.35-7.02Z"/>
                <path class="cls-4" d="M933.4,353.84c-34.54-3.12-63.36-20.9-96.21-28.8-1.78-.43-2.41,4.5-.92,4.86,31.99,7.69,60.17,24.99,93.63,28.56,17.03,1.82,34.47,1.66,51.37,4.09,16.57,2.39,33.04,5.21,49.54,7.84,1.85.29,2.42-4.62.92-4.86-16.51-2.63-32.97-5.45-49.54-7.84-16.05-2.31-32.55-2.39-48.79-3.86Z"/>
                <path class="cls-4" d="M1027.85,385.69c-34.98-1.18-69.2-6.38-101.95-15.79-15.69-4.51-30.64-11.02-46.77-14.27-16.64-3.35-33.88-4.68-49.85-10.1-2.37-.8-1.31,3.47.17,3.97,15.73,5.34,32.66,6.81,49.09,9.99,16.96,3.28,32.63,10.17,49.11,14.83,32.54,9.21,66.48,14.37,101.19,15.54,2.17.07.6-4.12-.98-4.17Z"/>
                <path class="cls-4" d="M827,363.25c17.24,3.05,34.48,6.18,50.84,11.92,15.51,5.44,30.72,11.05,46.85,14.89,33.18,7.9,67.03,13.69,100.68,19.98,2.72.51,3.66-2.65.92-3.17-33.65-6.29-67.51-12.08-100.68-19.99-16.88-4.02-32.65-10.23-48.98-15.67-15.73-5.24-32.22-8.23-48.7-11.14-2.73-.48-3.67,2.68-.92,3.17Z"/>
                <path class="cls-4" d="M821.56,374.59c9.87,2.42,18.88,6.88,28.26,10.49,7.53,2.9,15.33,5.1,23.27,6.89,18.68,4.2,37.96,6.22,56.26,11.67,31.49,9.38,61.71,24.82,96.4,22.67.65-.04-2.62-1.65-3.6-1.59-35.81,2.21-66.54-15.02-99.34-23.81-16.34-4.38-33.38-6.34-49.95-9.94-10.12-2.2-19.71-5.42-29.16-9.36-7.51-3.13-15.02-6.19-23-8.15-3.09-.76-.66.75.87,1.12Z"/>
                <path class="cls-4" d="M816.68,388.93c17.98,2.83,35.17,10.18,52.32,15.6,16.89,5.34,33.83,10.54,50.81,15.62,16.98,5.08,34.02,10.03,51.09,14.85,16.17,4.56,32.37,9.25,49.48,10.33,3.12.2.38-2.72-1.32-2.83-17.97-1.13-34.96-6.34-51.93-11.15-17.07-4.84-34.1-9.8-51.08-14.9-16.98-5.1-33.91-10.32-50.79-15.68-16.38-5.2-32.71-11.96-49.91-14.68-3.05-.48-.3,2.58,1.32,2.83Z"/>
                <path class="cls-4" d="M809.52,399.58c17.11,7.09,34.23,14.18,51.84,20.12,16.8,5.67,33.98,9.65,51.52,13.05,18.84,3.65,35.84,10.37,53.38,17.42,14.52,5.84,29.4,10.77,45.51,11.46,2.08.09-2.1-1.62-2.96-1.66-18.29-.78-34.68-8.08-51-14.79-14.29-5.87-28.69-10.52-44.03-13.54-17.6-3.46-34.85-7.34-51.72-13.07-16.95-5.76-33.44-12.59-49.91-19.42-.97-.4-5.33-.68-2.64.44Z"/>
                <path class="cls-4" d="M806.75,416.99c18.65,1.7,34.6,10.68,50.58,19.06,14.84,7.78,29.7,13.94,46.51,16.9,17.98,3.16,35.65,6.01,53.1,11.11,16.96,4.95,33.79,10.3,51.46,12.91,3.18.47,2.43-3.04-.1-3.41-18.45-2.73-35.94-8.57-53.68-13.65-16.72-4.78-33.69-7.35-50.89-10.37-18.39-3.23-34.14-10.93-50.29-19.42-14.68-7.71-29.73-14.98-46.8-16.54-3.2-.29-2.49,3.17.1,3.41Z"/>
                <path class="cls-4" d="M797.42,432.35c18.3,2.92,33.32,15.16,49.92,22.22,17.37,7.39,35.72,12.57,53.95,17.75,16.88,4.8,34.2,6.77,51.51,9.93,18.76,3.42,37.14,8.23,55.07,14.25,1,.34.98-4.48-.21-4.87-17.19-5.77-34.79-10.41-52.74-13.82-18.7-3.55-37.44-5.64-55.69-10.88-18.23-5.23-36.56-10.43-53.87-17.98-16.17-7.06-30.68-18.69-48.6-21.56-.65-.1-.79,4.73.65,4.96Z"/>
                <path class="cls-4" d="M839.11,468.6c-6.98-4.19-12.66-9.53-20.63-11.97-9.75-2.99-19.43-5.46-28.73-9.62-2.96-1.33-1.7,1.46.13,2.28,8.53,3.82,17.32,6.62,26.4,9.05,5.27,1.41,9.6,3.48,13.95,6.68,3.51,2.58,7.12,4.99,10.96,7.07,14.79,8.01,31.52,11.79,48.14,15.02,38.22,7.43,76.01,15.86,112.47,28.71,3.06,1.08,1.81-1.6-.13-2.28-34.8-12.26-70.83-20.96-107.36-27.9-18.99-3.61-38.69-7.1-55.21-17.03Z"/>
                <path class="cls-4" d="M965.81,529.5c-9.32-1-18.19-4.03-26.92-6.9-17.77-5.85-35.07-12.84-52.25-20.05-34.59-14.51-68.92-29.91-105.75-39-2.44-.6-2.01,4.18-.1,4.65,36.84,9.09,71.16,24.49,105.75,39,17.18,7.21,34.48,14.2,52.25,20.05,8.73,2.87,17.6,5.89,26.92,6.9,8.92.97,18.14.13,26.77,2.42,2.56.68,1.7-3.97.1-4.65-.69-.29-1.38-.59-2.08-.88-.52-.22-.89-.12-1.14.17-7.69-1.4-15.72-.86-23.56-1.71Z"/>
                <path class="cls-4" d="M903.05,529.53c-13.6-5.24-27.21-10.51-41.49-14-14.64-3.59-29.66-6.01-43.44-11.96-15.12-6.52-29.05-15.48-45.35-19.36-2.88-.69-.51,2.49.95,2.84,15.36,3.65,28.56,11.99,42.73,18.3,13.54,6.03,28.17,8.83,42.69,12.21,30.68,7.14,59.15,20.84,88.44,31.57,13.63,4.99,27.86,8.96,43.16,6.77,1.8-.26-1.42-3.17-2.76-2.98-15.12,2.16-29.11-2.06-42.52-7.09-14.19-5.32-28.28-10.87-42.42-16.31Z"/>
                <path class="cls-4" d="M850.83,533.5c-6.98-1.96-14.07-3.72-20.93-6.01-6.79-2.27-12.73-5.84-18.79-9.51-14-8.48-30.17-11.98-45.01-18.72-.25-.11-.11,4.06.95,4.54,13,5.91,27.3,8.99,39.89,15.76,6.2,3.33,11.89,7.55,18.37,10.37,6.53,2.85,13.61,4.51,20.51,6.44,28.67,8.04,57.34,16.08,86.01,24.12,16.18,4.54,32.36,9.08,48.54,13.61.42.12.11-4.24-.95-4.54-28.39-7.96-56.77-15.92-85.15-23.88-14.48-4.06-28.95-8.12-43.43-12.18Z"/>
                <path class="cls-4" d="M841.29,557.39c-7.39-2-14.84-3.91-21.86-6.84-6.45-2.69-12.45-6.27-18.43-9.85-13.54-8.11-27.44-15.53-41.77-22.16-.12-.17-.32-.33-.63-.45-.17-.07-.36-.1-.57-.1-.17-.08-.33-.16-.49-.23-1.37-.62-2.22.37-2.39,1.57-.6.67-.71,1.43.31,1.85,0,0,.01,0,.02,0,.2.33.47.61.84.78,13.45,6.14,26.57,12.95,39.29,20.46,12.02,7.1,23.73,13.41,37.35,17.25,28.2,7.95,56.64,15.41,85.38,21.75,16.43,3.62,33,6.77,49.78,9.22,2.71.4,2.45-4.16.25-4.49-29.08-4.25-57.54-10.64-85.72-17.82-13.83-3.52-27.59-7.23-41.34-10.94Z"/>
                <path class="cls-4" d="M969.5,605.2c-6.31-2.37-13.23-2.15-20.07-2.48-7.85-.38-15.6-1.28-23.25-2.54-15.16-2.49-29.93-6.3-44.65-10.18-29.88-7.87-59.86-15.7-88.44-26.95-8.44-3.32-16.74-6.95-24.84-10.96-6.67-3.3-13.3-8.23-21.33-7.81-2.94.15-2.72,4.85-.07,4.71,7.91-.41,14.87,5.15,21.52,8.37,6.66,3.22,13.45,6.2,20.32,8.98,13.96,5.64,28.29,10.43,42.78,14.78,28.71,8.61,57.93,17.06,87.66,22.61,7.97,1.49,16.04,2.66,24.21,3.32,8.32.67,17.26-.17,24.98,2.73,2.69,1.01,3.6-3.65,1.17-4.57Z"/>
                <path class="cls-4" d="M869.25,608.1c-29.25-8.57-59.96-13.97-86.94-28-7.23-3.76-13.84-8.7-21.25-12.11-7.08-3.26-14.86-4.29-23.04-3.57-2.9.25-2.59,4.24.02,4.01,8.38-.74,15.9.61,22.98,4.25,6.53,3.36,12.54,7.64,19.06,11.03,12.69,6.6,26.31,11.3,40.13,15.34,14.27,4.17,28.81,7.6,43.13,11.63,14.08,3.96,27.33,9.73,41.24,14.05,7.36,2.28,14.9,3.24,22.91,2.94,8.38-.32,16.84-1.45,25.04-.58,2.68.28,3.87-3.67,1.15-3.95-14.07-1.48-28.96,2.36-42.66-.88-14.36-3.4-27.66-10.02-41.78-14.15Z"/>
                <path class="cls-4" d="M928.88,644.4c-7.61-.31-15.09-1.25-22.45-2.58-15.6-2.82-30.67-7.35-45.75-11.67-15.57-4.46-31.1-9.08-46.15-14.86-15.53-5.97-30.36-13.42-45.79-19.61-7.64-3.07-15.42-5.82-23.33-8.24-5.48-1.68-12.17-5.09-18.39-1.32-2.34,1.41,1.57,2.42,2.92,1.6,3.47-2.1,9.19.9,12.22,1.81,3.63,1.1,7.23,2.26,10.8,3.5,7.32,2.53,14.5,5.38,21.58,8.43,13.27,5.72,26.29,11.94,39.85,17.03,13.79,5.17,27.97,9.42,42.2,13.51,13.57,3.9,27.12,7.93,41.02,10.88,7.22,1.53,14.55,2.78,22,3.48,3.89.37,7.81.58,11.75.64,2.24.03,7.68.98,10.24-.5-.1.54.66.89.98.96.13.03.27.06.4.1.8.19,2.33.23,3.07-.64.09-.11.18-.22.28-.32.42-.49.46-.83.14-1.28-1.09-1.52-2.92-1.17-4.69-1.08-4.33.24-8.63.32-12.9.14Z"/>
                <path class="cls-4" d="M932.1,664.98c-15.3.7-29.93-1.71-44.36-4.7-14.11-2.92-28.21-5.8-41.15-11.76-13.62-6.27-26.42-13.89-40.74-18.71-13.86-4.67-28.28-7.84-42.4-11.81-13.9-3.91-27.95-12.02-43.51-9.86-1.5.21-.28,4.55,1.11,4.36,14.58-2.02,27.54,5.3,40.55,9.06,14.09,4.07,28.52,7.21,42.45,11.72,14.4,4.67,27.3,11.96,40.82,18.43,12.94,6.19,26.88,9.34,41.08,12.33,15.38,3.24,30.93,6.06,47.27,5.31,1.42-.07.29-4.42-1.11-4.36Z"/>
                <path class="cls-4" d="M798.65,653.05c14.26,3,28.82,5.09,42.84,8.84,14.01,3.74,27.23,9.43,40.68,14.54,14.53,5.52,29.42,10.31,45.45,11.34,1.1.07-1.36-2.92-2.34-2.98-28.54-1.84-52.87-15.66-79.18-23.87-13.78-4.3-28.21-6.63-42.5-9.39-14.17-2.74-28.06-6.28-41.74-10.47-16.22-4.97-32.13-10.71-48.04-16.44-1.83-.66.89,2.49,1.67,2.77,27.21,9.8,54.51,19.63,83.16,25.66Z"/>
                <path class="cls-4" d="M916.67,702.11c-.88-.24-1.77-.49-2.65-.73-.19-.05-.35.09-.47.35-13.85-1.88-26.94-6.09-39.99-10.31-13.72-4.44-27.63-8.32-41.72-11.77-28.2-6.9-56.92-12.88-83.27-24.53-14.4-6.37-27.48-17.15-43.69-19.19-1.12-.14-1.08,4.62-.04,4.75,14.67,1.85,26.41,11.1,39.27,17.17,13.21,6.24,27.14,10.94,41.31,14.94,28.18,7.95,57.22,13.44,85.04,22.39,15.06,4.85,30.07,9.87,46.17,11.68,0,0,0,0,0,0,0,0,0,0,0,0,.07,0,.14.02.21.03.73.08.79-4.51-.17-4.77Z"/>
                <path class="cls-4" d="M904.96,727.24c-.38-.4-.76-.8-1.14-1.2-.48-.5-2.39.25-3.46.73-27.07-2.91-52.64-12.1-77.85-20.38-13.47-4.42-26.79-9.24-39.62-15.12-12.55-5.75-24.22-12.95-35.99-20.12-13.03-7.94-26.5-15.19-42.01-17.61-.84-.13-4.32,1.08-3.78,1.16,28.45,4.43,50.25,24.83,75.39,36.63,25.19,11.83,52.29,19.85,79.15,27.76,14.7,4.33,29.66,7.99,45.32,9.26.54.04,4.2-.9,3.99-1.12Z"/>
                <path class="cls-4" d="M895.13,745.01c-12.94-5.9-25.9-11.81-39.53-16.18-13.24-4.25-27.02-7.1-40.58-10.45-27.76-6.87-55.23-14.76-81.38-25.68-15.06-6.29-29.62-13.64-43.47-22.24-1.3-.81-.82,3.71.13,4.3,23.87,14.82,49.83,25.79,76.67,34.5,27.24,8.84,55.6,14.34,83.16,22.26,15.86,4.56,30.78,11.26,45.66,18.04.79.36.51-4.01-.65-4.54Z"/>
                <path class="cls-4" d="M888.52,755.39c-14.55-1.48-28.23-3.96-41.55-9.16-12.25-4.78-24.63-9.01-37.45-12.38-26.71-7.03-53.57-13.3-79.55-22.29-15.31-5.3-30.36-11.23-45.15-17.71-1.35-.59-5.12.78-2.67,1.86,25.55,11.21,51.89,20.74,78.94,28.41,27.67,7.85,56.05,13.33,82.72,23.78,14.17,5.55,28.58,8.36,44.07,9.93,2.52.26,3.18-2.19.63-2.45Z"/>
                <path class="cls-4" d="M672.93,714.91c15.6-.29,29.86,4.62,43.55,10.23,13.44,5.51,26.75,11.32,40.22,16.76,26.85,10.84,54.19,20.78,82.7,27.46,7.86,1.84,15.81,3.44,23.85,4.73,3.9.63,7.82,1.23,11.76,1.67,2.03.23,3.79.4,5.8-1,.22-.15.65-.46.65-.81,0-.75-.14-.82-.67-1.17-.91-.59-2.87-.07-3.8.77-.03.03-.06.06-.09.08-.13-.03-.27-.07-.46-.1-1.17-.24-2.42-.31-3.61-.48-1.89-.26-3.77-.55-5.65-.84-3.49-.55-6.95-1.16-10.41-1.82-7.17-1.37-14.27-2.97-21.3-4.76-13.83-3.52-27.39-7.77-40.76-12.47-26.95-9.48-52.77-21.39-79.33-31.74-13.05-5.08-26.56-8.88-41.27-8.61-1.88.03-4.14,2.16-1.19,2.1Z"/>
                <path class="cls-4" d="M867.76,790.32c-.8-.2-1.6-.4-2.4-.61-.24-.06-.41.12-.51.43-12.89-1.03-24.57-5.61-36.03-10.6-12-5.23-24.02-10.13-36.76-13.65-26.62-7.37-54-12.24-79.98-21.37-15.23-5.35-30.06-11.64-44.47-18.75-1.47-.73-1.02,3.82,0,4.33,24.58,12.13,50.37,21.82,77.18,28.79,13.77,3.58,27.81,6.37,41.6,9.91,13.73,3.52,26.81,8.23,39.66,13.86,13.4,5.87,26.94,11.67,42.26,12.22,1.44.05.52-4.29-.55-4.56Z"/>
                <path class="cls-4" d="M776.34,784.96c-13.27-2.44-25.91-5.27-37.61-11.64-11.65-6.35-23.2-11.68-36.19-15.1-14.85-3.92-30.11-6.77-43.92-13.31.52.24,1.19,2.95,2.24,3.45,11.92,5.65,24.94,8.58,37.85,11.77,13.26,3.28,25.76,7.47,37.58,14.04,5.58,3.11,11.14,6.24,17.19,8.41,6.32,2.26,13,3.6,19.68,4.84,13.39,2.48,26.47,5.45,39.2,9.81,14.78,5.07,29.05,11.31,43.3,17.56-.51-.22-1.18-2.98-2.24-3.45-24.87-10.89-49.83-21.37-77.08-26.38Z"/>
                <path class="cls-4" d="M838.55,830.07c-6.73.12-11.29-5.53-16.42-8.95-5.4-3.6-11.2-6.51-17.18-9-11.73-4.9-24.12-8.23-36.26-12.16-12.25-3.97-23.84-9.39-35.88-13.83-12.2-4.5-25.13-6.62-38.21-8.6-15.02-2.26-30.04-4.82-42.99-12.33-1.82-1.06-2.56,3.76-1.18,4.56,22.33,12.96,50.24,11.24,74.73,18.76,12.79,3.93,24.68,9.95,37.28,14.33,12.4,4.31,25.24,7.58,37.48,12.28,7.34,2.82,14.48,6.17,21.03,10.54,5.33,3.56,10.07,9.34,17.1,9.21,2.01-.04,2.2-4.86.5-4.83Z"/>
                <path class="cls-4" d="M830.31,843.46c-23.84-9.74-47.75-19.51-73.07-25.67-12.81-3.12-25.76-5.51-37.9-10.39-11.63-4.68-23.14-8.97-35.56-11.7-14.13-3.11-28.52-5.45-41.93-10.52-1.47-.55-.41,3.65.69,4.06,11.75,4.44,24.27,6.81,36.71,9.4,12.46,2.6,24.38,6.04,35.98,10.84,12.05,4.99,24.5,8.22,37.37,11.12,12.72,2.87,25.12,6.61,37.3,10.9,13.89,4.9,27.5,10.46,41.1,16.01,1.44.59.39-3.62-.69-4.06Z"/>
                <path class="cls-4" d="M818.83,864.57c-13.5-2.3-25.81-7.67-38.16-12.83-11.75-4.91-23.78-9.05-36.15-12.48-24.85-6.88-50.51-11.8-74.14-21.75-11.72-4.93-23.12-10.71-36.89-9.61-2.51.2-.7,3.8,1.1,3.66,16.61-1.33,30.47,8.15,44.87,13.34,15.3,5.52,31.26,9.38,47.14,13.4,15.9,4.03,31.73,8.28,46.83,14.33,14.9,5.97,29.35,12.9,45.54,15.65,2.58.44,1.72-3.4-.14-3.72Z"/>
                <path class="cls-4" d="M809.87,887.37c-25.9-1.16-45.98-17.88-70.78-22.26-6.94-1.23-14.15-1.85-20.28-5.2-5.69-3.11-10.17-8.12-15.22-12.21-9.24-7.49-20.61-9.77-32.39-11.5-15.33-2.26-30.43-5.18-45.27-8.96-1.23-.31-4.89,1.26-2.4,1.9,12.39,3.15,24.95,5.78,37.7,7.84,14.54,2.35,28.88,3.58,40.22,13.29,4.23,3.63,8.22,7.64,12.95,10.53,4.93,3.01,10.63,4.29,16.4,5.26,13.54,2.27,25.71,6.56,38.02,11.96,12.54,5.49,25.26,10.78,39.59,11.42,1.77.08,4.23-1.95,1.44-2.07Z"/>
                <path class="cls-4" d="M801.7,900.21c-.72-.27-2.51-.3-3.36.55-3.82-.5-7.59-1.97-11.14-2.96-3.99-1.12-7.94-2.36-11.87-3.64-7.38-2.4-14.69-4.96-22.12-7.24-14.66-4.51-30.36-6.23-44.86-11.1-14.88-5-28.49-12.86-43.32-18.04-15.15-5.29-30.64-9.8-45.99-14.58-.9-.28-5,1.01-3.12,1.6,12.91,4.02,25.87,7.93,38.71,12.13,12.75,4.17,24.89,9.42,37.02,14.96,11.42,5.22,23.33,8.4,35.81,10.94,13.6,2.77,26.58,6.9,39.59,11.23,7.11,2.36,14.24,4.68,21.54,6.55,3.66.94,9.5,4.15,13.65,1.16.18-.12.29-.28.34-.49-.06-.74-.31-.85-.88-1.07Z"/>
                <path class="cls-4" d="M790.45,915.81c-6.92-1.7-14.66,1.78-21.52-.38-7.19-2.26-13.9-5.68-21.14-7.9-15.24-4.67-31.13-7.59-46.49-11.96-7.83-2.23-15.54-4.76-23.04-7.79-6.96-2.81-13.58-6.34-20.57-9.06-7.05-2.74-14.64-3.93-21.98-5.89-8.37-2.23-16.14-5.86-23.87-9.53-2.3-1.09-3.65,3.16-1.7,4.08,7.09,3.37,14.19,6.77,21.76,9.08,7.27,2.22,14.98,3.24,22.17,5.71,7.56,2.6,14.54,6.45,21.9,9.49,7.47,3.09,15.16,5.67,22.97,7.94,15.58,4.53,31.73,7.49,47.25,12.17,7.5,2.26,14.45,5.78,21.89,8.12,6.89,2.17,14.64-1.31,21.52.38,2.43.6,2.84-3.99.85-4.48Z"/>
                <path class="cls-4" d="M776.55,939.35c-.64-.33-1.29-.66-1.93-1-.63-.32-1.39-.28-1.97-.04-29.31-7.27-57.17-17.71-84.26-30.27-12.74-5.9-25.66-10.81-39.68-13.61-15.37-3.07-31.17-4.88-45.62-10.52-2.22-.87-3.15,1.62-.96,2.48,13.83,5.39,28.89,7.32,43.65,10.14,15.43,2.95,29.46,8.38,43.42,14.88,27.48,12.79,56.03,23.09,85.9,30.21,1.7.41,3.54-1.21,1.45-2.29Z"/>
                <path class="cls-4" d="M767.21,951.91c-14.57-5.13-29.42-9.58-44.55-13.25-14.91-3.62-30.64-5.45-44.42-11.94-13.68-6.44-26.3-14.5-40.69-19.53-14.18-4.95-29.05-8.05-43.93-11.06-1.13-.23-1.46,4.56-.43,4.77,14.88,3.01,29.76,6.11,43.93,11.06,14.39,5.03,27.01,13.08,40.69,19.53,13.78,6.49,29.51,8.32,44.42,11.94,15.13,3.67,29.98,8.12,44.55,13.25,1,.35,1.46-4.41.43-4.77Z"/>
                <path class="cls-4" d="M756.94,970.51c-31.19-6.44-62.75-12.48-92.68-22.44-15.24-5.07-27.91-14.05-41.42-22.39-11.41-7.04-23.71-12.79-37.93-12.69.25,0,1.89,2.38,3.08,2.38,17.58-.13,31.5,9.22,45.21,18.2,11.81,7.74,23.96,13.93,37.54,18.12,27.76,8.58,56.53,14.52,85.23,20.44.09.04.18.08.25.09,1.12.22,2.23.43,3.35.65.62.12-1.78-2.18-2.62-2.35Z"/>
                <path class="cls-4" d="M744.62,986.79c-.74-.27-1.48-.55-2.23-.82-.89-.33-2.14-.06-2.59.41-29.74-1.21-57.4-11.11-84.24-20.79-13.57-4.89-26.95-10.53-38.72-18.97-5.44-3.9-9.92-9.06-15.18-13.17-5.46-4.27-12.33-2.56-18.53-4.93-1.58-.6-4.24.68-1.72,1.64,2.89,1.1,5.87,1.42,9.04,1.67,5.37.43,8.58,2.72,12.28,6.34,5.03,4.91,10.51,9.19,16.35,12.9,12.06,7.65,25.41,12.93,38.9,17.64,27.64,9.65,55.76,19.44,86.42,20.01,1.71.03,1.31-1.52.2-1.93Z"/>
                <path class="cls-4" d="M731.48,996.89c-28.89-2.22-56.75-8.65-84.62-14.3-14.13-2.86-27.14-7.22-39.69-13.82-6.07-3.19-12.14-6.37-18.32-9.36-5.43-2.63-10.76-5.76-17.29-5.38-2.52.15-3.04,3.05-.48,2.9,7.45-.43,14.33,4.56,20.51,7.65,5.71,2.86,11.32,5.93,17.01,8.82,12,6.1,24.79,9.64,38.18,12.32,27.41,5.49,54.75,11.82,83.13,14,2.02.16,4.29-2.63,1.57-2.84Z"/>
                <path class="cls-4" d="M716.47,1016.01c-29.03,6.56-53.23-9.21-79.17-14.45-12.52-2.53-25.43-3.63-37.31-8.01-12.43-4.59-24.43-9.64-37.55-12.54-1.11-.24-3.62,1.29-4.09,1.18,14.13,3.12,26.87,8.99,40.4,13.55,13.41,4.52,28.17,5.11,41.9,8.74,24.73,6.54,47.67,18.58,75.81,12.21,2.39-.54,2.46-1.24,0-.68Z"/>
                <path class="cls-4" d="M698.62,1031.56c-29.68,9-53.32-9.27-79.39-14.61-13-2.66-26.85-2.41-39.23-6.93-10.34-3.77-20.09-8.81-32.18-6.81-2.88.48-.98,2.06.81,1.77,14.04-2.32,25.45,6.71,38.11,9.38,13.64,2.88,27.92,3.04,41.15,7.23,23.1,7.32,45.44,19.72,72.56,11.49,2.72-.83-.59-1.91-1.84-1.53Z"/>
                <path class="cls-4" d="M680.33,1048.85c-12.55,1.38-25.12,2.67-37.21,1.4-12.37-1.31-24.06-4.87-35.4-9.06-11.1-4.11-21.91-8.87-33.01-12.98-10.23-3.79-20.78-7.5-32.58-5.95-2.15.28-1.98,5.01-.12,4.77,12.58-1.65,23.74,2.71,34.58,6.84,11.05,4.21,21.87,8.96,33.02,12.95,10.71,3.84,21.77,6.98,33.39,8.2,12.09,1.27,24.65-.02,37.21-1.4,2.14-.23,1.98-4.98.12-4.77Z"/>
                <path class="cls-4" d="M666.46,1064.51c-.03-.69-1.14-.55-1.55-.52-.1,0-.19.02-.29.02-.54.05-1.12.28-1.59.58-.05-.13-.31-.16-.79-.07-.8-.05-1.6-.11-2.39-.17-1.71-.14-3.42-.32-5.12-.51-2.63-.3-5.25-.64-7.86-1-5.45-.75-10.9-1.53-16.34-2.33-10.86-1.61-21.67-3.38-32.27-5.78-10.71-2.42-21.2-5.51-31.23-9.66-9.23-3.82-18.14-8.12-28.5-8.97-1.26-.1-4.76,1.99-2.14,2.2,12.64,1.03,23.35,7.62,34.83,11.7,10.47,3.72,21.36,6.44,32.4,8.62,11.47,2.26,23.12,3.93,34.78,5.58,5.74.81,11.47,1.64,17.29,2.18,2.97.28,6.99,1.61,10.17-.63.2-.14.64-.51.62-.84,0-.14-.01-.27-.02-.41Z"/>
                <path class="cls-4" d="M643.13,1080.04c-.4-.04-.8-.07-1.2-.11-.05,0-.08,0-.1.03-10.13-.6-20.05-1.59-29.72-3.83-5.02-1.16-10.02-2.42-15.15-3.27-5.3-.88-11.07-.64-16.06-2.41-4.43-1.57-8.25-4.38-12.69-5.97-2.87-1.02-5.81-1.76-8.47-3.25-2-1.12-3.82-2.54-5.82-3.65-7.51-4.16-17.12-4.37-26.1-3.76-.8.05,1.83,2.18,2.72,2.12,5.19-.35,10.31-.29,15.26.44,6.12.9,10.36,4.65,15.71,7.06,4.64,2.1,9.58,3.28,14.08,5.73,3.49,1.9,6.98,3.57,11,4.26,4.85.84,9.9.95,14.74,1.85,5.1.95,10.08,2.26,15.12,3.38,9.55,2.13,19.41,2.94,29.4,3.49.72.04-1.88-2.04-2.72-2.12Z"/>
                <path class="cls-4" d="M628.78,1092.56c-9.12-.53-17.09-4.66-25.95-6.1-9.45-1.53-19.15-1.92-27.99-5.31-15.49-5.94-30.04-17.74-48.97-11.24-1.31.45-.68,5.12.74,4.63,19.3-6.63,33.98,6.17,49.89,11.83,8.42,3,17.63,3.32,26.54,4.77,8.85,1.44,16.83,5.57,25.95,6.1,1.44.08,1.09-4.61-.2-4.68Z"/>
                <path class="cls-4" d="M930.84-18.26c.86,4.95,1.72,9.92,3.04,14.63,1.26,4.5,3.28,7.13,5.59,10.68,2.37,3.64,3.32,8.12,6.14,11.4,2.71,3.14,5.95,5.67,9.01,8.35.43.38,2.17.62,3.01.41.25.21.59.35,1.03.36,15.61.54,31.56-.56,47.65-3.38,7.95-1.39,15.92-3.2,23.89-5.42,4.23-1.18,8.47-2.47,12.7-3.88,2.23-.74,4.83-.99,6.37-3.5.41-.66.23-1.55-.12-1.98-.79-.95-1.67-.94-2.91-.46-.65.25-1.08.86-1.29,1.53-1.25.41-4.12,1.08-4.57,1.22-1.74.56-3.48,1.11-5.23,1.63-3.73,1.12-7.47,2.16-11.21,3.1-6.98,1.76-13.95,3.21-20.9,4.33-14.71,2.39-29.27,3.25-43.55,2.76-1.42-.05-2.31,1.15-2.39,2.26-3.01-2.6-6.21-5.08-8.71-8.31-2.47-3.18-3.32-7.65-5.67-10.91-2.76-3.83-4.54-7.56-5.75-12.65-1.15-4.81-1.93-9.81-2.81-14.75-3.49-19.56-8.8-38.16-15.88-55.54-.47-1.16-4.12-1.19-3.86-.56,7.47,18.34,12.82,37.99,16.42,58.67Z"/>
                <path class="cls-4" d="M886.16-54.03c5.57,8.2,7.55,19.05,10.54,29.14,2.99,10.09,7.7,18.71,12.62,27.29,5.43,9.47,11.04,18.67,18.11,26.45,7.11,7.82,15.02,14.65,22.71,21.72,1.92,1.77,2.99-2.49,1.55-3.82,0,0,0,0,0,0,6.77,1.89,14.05,1.77,21.38,1.51,8.33-.29,16.72-.99,25.16-2.11,16.96-2.25,34.06-6.22,51.1-11.71,1.58-.51-1.52-2.65-2.72-2.26-15.79,5.09-31.6,8.83-47.33,11.1-7.54,1.09-15.05,1.85-22.51,2.27-8.41.48-17.43,1.28-25.13-1.11-1.02-.32-1.77-.05-2.06.39-7.2-6.55-14.56-12.98-21.1-20.37-6.9-7.79-12.33-17.08-17.68-26.45-5.25-9.18-9.58-18.49-12.53-29.39-2.48-9.18-4.89-18.38-9.86-25.71-1.53-2.25-3.52,1.17-2.23,3.07Z"/>
                <path class="cls-4" d="M870.94-34.95c6.08,8.87,8.58,20.77,12.69,31.21,3.96,10.07,8.67,19.62,14.04,28.53,5.04,8.37,10.58,18.52,18.68,23.22,8.83,5.13,19.49,8.78,25.32,18.39,1.09,1.79,2.69-.72,2.72-2.65,15.87,4.25,34.39,1.66,51.47.19,9.49-.81,19.01-1.88,28.55-3.18,4.77-.65,9.55-1.37,14.33-2.14,2.74-.44,6.42-.03,8.66-2.95.45-.58.58-1.56.25-2.07-.7-1.1-1.47-1.26-2.78-.87-.59.17-1.27.76-1.59,1.46-1.41.24-4.3.37-4.84.46-2.13.34-4.25.67-6.37.99-4.25.63-8.49,1.22-12.73,1.76-8.74,1.11-17.46,2.01-26.15,2.71-16.82,1.35-34.84,3.76-50.12-1.28-.54-.18-1.06-.08-1.49.18-5.3-6.4-13.08-10.72-20.12-13.92-9.65-4.39-15.65-14.72-21.35-24.18-5.72-9.49-10.65-19.71-14.72-30.54-3.74-9.94-6.28-20.83-12.01-29.19-1.45-2.12-3.58,2.23-2.45,3.88Z"/>
                <path class="cls-4" d="M891.25,39.41c5.28,9.33,11.25,18.76,19.74,24.06,8.97,5.61,18.14,10.19,28.86,11.91,1.32.21,3.93-.43,1.27-.86-6.39-1.03-12.3-3.15-17.86-6.15-4.73-2.56-9.83-5.13-13.87-8.84-3.53-3.24-6.24-7.69-9.04-11.79-2.88-4.23-5.65-8.6-7.91-13.43-4.63-9.9-6.11-22.05-9.92-32.57-4.02-11.1-9.13-21.42-14.01-31.81-.43-.92-3.89-.14-3.83,0,5.31,11.3,10.97,22.52,15.06,34.82,3.9,11.74,5.68,24.35,11.51,34.66Z"/>
                <path class="cls-4" d="M822.52,9.76c9.44,8.37,17.06,18.48,24.49,29.18,3.46,4.98,7.03,9.87,11.18,14.08,3.95,4.02,10.06,6.45,12.85,11.73,2.73,5.15,3.27,11.12,7.15,15.38,3.23,3.55,7.34,5.84,11.7,7.48,5.83,2.2,12.13,3.22,18.09,5.1,2.96.94,5.87,2.01,8.75,3.16,1.69.67,10.06,2.75,10.34,4.95.22,1.76,4.04,2.58,3.74.21-.2-1.57-1.04-2.74-2.19-3.65,20.72,1.69,38.48,12.28,59.35,13.44,10.41.57,21.34-1.77,32.09-4.23,10.86-2.49,21.73-5.57,32.58-9.17,1.59-.53.2-4.31-.75-4.48-.53-.09-1.05-.18-1.58-.27-.46-.08-.71.37-.8,1.01-10.48,3.42-20.98,6.36-31.48,8.71-10.77,2.41-21.61,4.56-31.99,3.78-18.45-1.4-34.51-9.92-52.52-12.69.82-.8,1.07-2.06-.25-2.7-20.35-10.03-38.48-24.24-53.54-42.2-7.56-9.01-14.14-19.01-20.17-29.58-2.97-5.22-5.89-10.49-9.16-15.42-2.99-4.51-7.34-8.27-9.66-13.34-.85-1.86-4.72-.49-3.61,1.94,2.45,5.36,6.94,9.18,10.07,13.96,3.38,5.17,6.39,10.68,9.5,16.11,5.96,10.4,12.57,20.13,20.02,29,14.75,17.56,32.44,31.57,52.21,41.67-.33-.03-.65-.08-.98-.1-1.14-.09-1.09,2.59-.37,3.88-2.46-1.46-5.72-2.13-7.68-2.94-6.08-2.51-12.27-4.63-18.71-6.25-6.46-1.62-13.26-3.04-18.41-7.42-2.38-2.02-4.27-4.57-5.49-7.79-1.11-2.93-1.55-6.26-3.05-8.9-2.75-4.86-7.78-7.08-11.63-10.58-4.8-4.36-8.73-9.83-12.55-15.33-7.63-10.98-15.48-21.32-25.17-29.91-1.54-1.37-4.35.45-2.37,2.21Z"/>
                <path class="cls-4" d="M861.38,81.43c8.43,8.05,16.64,15.41,27.59,19.28,6.19,2.18,12.53,3.98,18.18,7.32,4.86,2.88,9.24,6.53,13.55,10.25-.03.02-.04.03-.04.04.46.38.93.75,1.39,1.13.78.63,4.18-1.05,4.09-1.12-4.57-3.95-9.15-7.92-14.26-11.03-4.85-2.96-10.2-4.8-15.6-6.61-6.16-2.07-12.07-4.36-17.29-8.28-4.79-3.6-9.15-7.9-13.53-12.08-9.11-8.7-16.11-18.71-22.83-30.02-6.13-10.3-13.33-19.24-22.07-26.54-.79-.66-4.16,1.06-4.09,1.12,9.28,7.75,16.66,17.37,23.12,28.33,6.3,10.7,13.19,20.02,21.78,28.22Z"/>
                <path class="cls-4" d="M806.26,42.89c2.67,5.03,6.73,8.83,10.05,13.21,3.74,4.93,7.28,10.07,10.94,15.09,6.88,9.44,14.25,18.55,23.72,24.67,10.87,7.03,23.83,9.86,35.15,16,11.49,6.23,21.03,15.5,32.93,21.07.04.02-.12-3.76-1.09-4.21-11.46-5.36-20.69-14.1-31.61-20.33-10.77-6.14-23.14-8.98-33.89-15.16-10.14-5.83-17.94-15.03-25.12-24.8-3.39-4.61-6.67-9.35-10.07-13.95-3.68-4.98-8.38-9.31-11.38-14.95-.84-1.57.03,2.74.37,3.37Z"/>
                <path class="cls-4" d="M791.93,59.44c12.82,1.89,17.31,19.18,26.25,27.24,9.54,8.62,19.07,16.95,27.9,26.54,8.31,9.03,17.67,16,27.54,22.79,10.37,7.14,21.06,13.73,33.06,17.75,1.59.53,4.82-1.97,2.36-2.79-12.93-4.33-24.26-11.83-35.38-19.58-5.54-3.87-11.18-7.64-16.21-12.29-4.5-4.16-8.53-8.93-12.79-13.4-4.44-4.66-9.02-9.16-13.79-13.39-4.69-4.15-9.87-7.73-13.87-12.77-7.19-9.08-11.51-21.25-23.68-23.04-2.05-.3-4.03,2.56-1.38,2.94Z"/>
                <path class="cls-4" d="M779.03,75.67c25.4,6.99,35.22,37.65,55.78,52.26,20.94,14.89,46.17,22.72,66.09,39.31.3.25.96.27,1.66.15-.22,2.53.68,4.85,2.55,5.77,2.72,1.35,6.78,1.26,9.86,1.77,3.49.58,6.98,1.15,10.47,1.69,13.27,2.06,26.66,3.76,40.31,4.38,28.39,1.28,57.56-3.67,86.86-10.24.45-.1.12-4.71-.88-4.49-25.25,5.67-50.57,10.38-75.27,10.49-12.91.06-25.57-1.03-38.08-2.65-5.79-.75-11.54-1.61-17.28-2.53-2.99-.48-5.98-.97-8.97-1.47-1.64-.28-6.76-.2-8.39-1.79-.11-.39-.24-.77-.38-1.12,1.09-.35,1.95-.99,1.28-1.54-10.19-8.49-22.05-14.35-33.52-20.67-11.71-6.46-24.32-12.08-34.94-20.4-19.67-15.41-29.6-44.2-54.83-51.15-1.35-.37-4.82,1.56-2.34,2.25Z"/>
                <path class="cls-4" d="M774.92,90.83c12.61,4.07,20.87,15.09,29.64,24.99,8.91,10.04,18.47,19.29,28.63,27.68,19.88,16.43,41.97,29.54,65.7,39.13,2.08.84,4.58-2.49,2.18-3.46-24.35-9.85-46.94-23.39-67.16-40.5-9.88-8.36-19.16-17.54-27.84-27.47-8.46-9.68-16.77-19.89-28.97-23.83-2.12-.68-4.65,2.66-2.18,3.46Z"/>
                <path class="cls-4" d="M762.74,100.51c13.75,5,22.16,17.91,30.65,30.13,8.24,11.86,17.38,21.15,29.28,28.18,12.06,7.12,23.74,14.11,34.75,22.98,10.97,8.84,22.92,15.66,35.01,22.63,1.4.81,2.14-4.07.8-4.84-12.58-7.25-24.81-14.53-36.21-23.73-11.17-9.01-23.35-15.58-35.44-23.03-12.2-7.51-20.82-18.16-29.31-30.42-7.78-11.24-16.19-22.18-28.73-26.74-1.62-.59-2.27,4.31-.8,4.84Z"/>
                <path class="cls-4" d="M750.91,113.09c14.2,4.27,24.55,13.5,33.71,25.58,8.11,10.68,17.24,19.59,27.37,27.69,10.89,8.72,22.02,17.1,33.67,24.62,12.11,7.82,24.6,14.98,36.38,23.33.57.41,1.6.22,2.43-.24-.29.42-.26.81.45,1.01,23.8,6.71,48.46,11.22,74,12.12,12.45.44,25.09,0,37.86-1.44,13.58-1.53,27.32-4.56,40.75-4.87,1.47-.03,4.73-2.75,2.04-2.69-12.25.28-24.73,2.78-37.14,4.41-13.48,1.77-26.83,2.35-39.97,1.96-25.78-.76-50.64-5.34-74.63-12.09-.51-.14-1.5.21-2.31.7.35-.52.37-1.1-.3-1.57-11.79-8.35-24.28-15.51-36.38-23.33-12.05-7.78-23.57-16.47-34.8-25.53-5.57-4.49-11.02-9.17-15.99-14.47-4.84-5.16-8.95-11.09-13.42-16.66-8.39-10.45-18.86-17.84-31.35-21.59-1.73-.52-4.85,2.33-2.36,3.08Z"/>
                <path class="cls-4" d="M735.97,130.72c25.73,13.43,46.24,35.04,68.63,53.68,11.24,9.35,23.09,17.77,35.38,25.47,5.93,3.72,11.88,7.56,18.3,10.35,7.01,3.05,15.64,2.65,22,6.95,2.13,1.44,3.52-2.91,1.72-4.12-5.93-4.01-13.55-3.82-20.18-6.25-7.18-2.64-13.67-7.01-20.12-11.05-12.28-7.7-24.14-16.11-35.38-25.47-22.39-18.64-42.9-40.24-68.63-53.68-2.27-1.18-3.66,3.11-1.72,4.12Z"/>
                <path class="cls-4" d="M720.39,149.9c24.07,17.99,49.12,34.43,75.1,49.23,12.9,7.35,26.12,14.09,38.25,22.79,5.6,4.02,11.2,7.76,17.53,10.47,6.99,3,14.36,5.39,19.72,11.22.67.73,2.14.57,3.08,0,.25.43.55.79.85.95,24.15,12.87,51.02,18.76,79.65,18.83,14.89.04,29.81-.06,44.71-.1,13.27-.03,26.59.01,40.3-4.32,1.24-.39-.89-3.75-2.26-3.32-13.77,4.35-27.16,4.15-40.48,4.19-14.14.03-28.29.1-42.42.1-28.65,0-55.46-5.54-79.63-18.43-.15-.08-.29-.14-.41-.18-4.46-4.78-9.98-7.61-15.84-10.06-6.93-2.9-13.42-6.08-19.57-10.46-11.97-8.53-24.66-15.54-37.42-22.69-27.12-15.21-53.22-32.29-78.26-51-1.58-1.18-4.97,1.24-2.9,2.79Z"/>
                <path class="cls-4" d="M708.1,175.53c27.18,13.92,52.89,30.5,77.07,49.51,11.38,8.94,22.79,18.24,36.22,23.65,6.54,2.64,13.44,3.87,20.57,4.86,7.95,1.09,16.23,2.3,21.59,8.71,1.67,2,4.48-1.36,2.9-3.25-9.67-11.57-26.21-9-39.43-13.32-14.97-4.9-27.31-15.02-39.61-24.68-24.43-19.2-50.42-35.95-77.88-50.02-2.21-1.13-3.33,3.57-1.43,4.54Z"/>
                <path class="cls-4" d="M696.26,195.86c14.2,5.44,27.69,12.41,40.26,20.98,12.81,8.73,23.7,20.07,36.01,29.51,11.77,9.03,25.49,15.05,40.29,17.67,14.94,2.64,29.76,2.45,41.16,13.27-.11-.11-.02-3.56-.85-4.34-11.2-10.63-25.68-10.65-40.42-13.14-15.09-2.55-29.06-8.62-41.03-17.8-12.11-9.29-22.82-20.44-35.39-29.08-12.75-8.76-26.45-15.87-40.89-21.41-.15-.06-.1,3.98.85,4.34Z"/>
                <path class="cls-4" d="M681.98,217.38c27.08,16.19,53.93,32.91,81.98,47.33,13.65,7.02,27.63,13.39,41.73,19.49,7.09,3.07,14.22,6.06,21.36,9.04,3.68,1.54,7.39,3.02,11.03,4.64,2.05.91,4.09,1.86,6.06,2.93.43.24,2.49,1.07,3.56,1.75,0,.15.03.32.09.51.04.12.07.24.11.36.35,1.14,1.51,2.47,2.82,1.78.15-.08.31-.16.46-.24.56-.3.55-1.02.49-1.5-.53-4.2-6.97-5.93-9.8-7.3-5.28-2.55-10.76-4.69-16.17-6.95-11.89-4.97-23.75-9.99-35.47-15.32-24.14-10.96-47.27-23.78-70.07-37.29-12.43-7.37-24.82-14.82-37.23-22.23-2.25-1.35-2.64,1.99-.93,3.01Z"/>
                <path class="cls-4" d="M670.38,236.12c28.85,10.96,57.86,22.25,81.33,43.13,5.71,5.08,11.21,10.48,17.38,14.9,5.81,4.16,12.2,7.28,18.75,10.07,14.85,6.32,29.87,12.29,44.81,18.42,2.37.97,3.81-3.23,1.62-4.13-14.94-6.13-29.96-12.1-44.81-18.42-7.17-3.05-14.08-6.52-20.29-11.32-6.02-4.66-11.47-10.12-17.25-15.1-23.2-19.99-51.75-30.96-79.93-41.67-2.39-.91-3.84,3.29-1.62,4.13Z"/>
                <path class="cls-4" d="M657.33,249.67c25.1,5.26,46.41,18,64.45,36.26,17.99,18.2,35.34,36.06,59.03,45.35,6.22,2.44,12.62,4.49,19.01,6.52,3.83,1.22,7.66,2.42,11.46,3.7,1.09.37,10.76,3.21,8.59,5.31.11-.1,3.08.44,4.06-.51.18-.18.36-.35.55-.53.03-.04.06-.09.08-.13-.11-2.52-2.4-2.74-4.13-3.36-2.94-1.06-5.92-2.06-8.9-3.03-6.73-2.19-13.52-4.23-20.19-6.57-12.34-4.33-23.85-10.04-34.24-18.06-20.06-15.48-35.36-37.41-56.93-50.67-11.99-7.37-25.18-12.47-39.16-15.4-.8-.17-4.28,1-3.68,1.12Z"/>
                <path class="cls-4" d="M651.93,262.29c10.51,6.39,21.18,12.55,31.31,19.58,10.51,7.29,19.49,16.21,28.2,25.96,8.45,9.45,17.45,17.7,28.01,24.16,10.66,6.52,21.93,12,33.08,17.6,13.26,6.67,26.63,13.11,40.11,19.35,2.13.99,3.17-1.22,1.04-2.21-15.13-7.01-30.13-14.27-44.99-21.81-14.82-7.53-30.25-14.66-42.8-26.04-11.5-10.43-20.8-23.5-32.98-33.05-12.25-9.61-25.8-17.22-39.01-25.25-1.53-.93-4.24.32-1.96,1.71Z"/>
                <path class="cls-4" d="M642.37,277.33c7.28-.13,12.86,5.86,18.07,10.11,5.17,4.22,10.22,8.61,15.23,13.05,9.83,8.71,19.52,17.64,29.72,25.84,9.86,7.93,20.18,15.24,31.41,20.88,5.79,2.91,11.89,5.11,17.87,7.61,6.53,2.73,12.13,6.44,17.6,11.01,10.57,8.84,22.75,15.12,34.62,21.81.08,1.09,1.06,2.11,2.37,1.72.42-.13.84-.26,1.26-.38,1.79-.54,2.07-2.8.74-3.56-11.99-6.85-24.62-12.96-35.34-21.92-4.88-4.08-9.75-7.88-15.48-10.55-6.12-2.86-12.6-4.96-18.71-7.85-24.43-11.57-44.25-30.91-64.63-48.89-5.58-4.92-11.21-9.76-17.02-14.35-5.19-4.1-10.33-8.55-17.46-8.42-2.71.05-2.63,3.93-.24,3.88Z"/>
                <path class="cls-4" d="M631.55,299.58c7.11,1.39,13.32,4.72,19.35,8.46,5.61,3.48,11.31,6.93,16.3,11.38,9.8,8.73,16.52,21.4,25.62,31.05,9.32,9.88,19.9,18.19,31.46,24.71,11.53,6.5,24.03,10.62,36.77,14.45,14.6,4.39,29.2,9.17,40.48,19.9.5.48,1.42-3.98.58-4.78-20.16-19.16-50.3-20.07-74.08-32.62-11.73-6.19-22.52-14.19-32.06-23.78-9.57-9.62-16.55-22.18-26.11-31.73-5.27-5.27-11.58-9.09-17.76-12.95-6.34-3.96-12.86-7.47-20.35-8.94-.63-.12-1.4,4.64-.2,4.88Z"/>
                <path class="cls-4" d="M620.41,317.56c23.24,10.18,38.55,33.23,59.31,47.48,20.58,14.13,44.43,22.02,67.38,31.44,14.53,5.96,28.75,12.64,41.43,22.06.67.5,4.17,1.54,2.2.08-21.15-15.72-46.13-24.18-70.32-34.02-13.03-5.3-25.91-11.07-37.63-18.9-11.22-7.5-20.8-17.33-30.73-26.68-9.73-9.16-19.98-17.57-32.09-22.88-2.5-1.1-.85.86.44,1.42Z"/>
                <path class="cls-4" d="M673,381.44c8.75,7.38,18.13,13.95,28.82,17.93,12.6,4.69,26.49,5.91,39.09,10.64,7.84,2.94,15.33,6.65,22.79,10.4,2.76,1.39,21.17,8.66,19.23,12.52-.4.79,3.37,1.67,4.07.28,2.53-5.03-8.46-7.93-10.68-9.05-6.37-3.21-12.7-6.48-19.15-9.53-12.49-5.92-25.47-9.67-39.12-12.72-14.41-3.23-26.77-9.3-38.2-18.5-10.03-8.08-19.16-17.41-28.99-25.78-10.55-8.98-22-16.7-35.48-20.26-1.04-.27-4.84.69-2.41,1.33,24.43,6.45,41.15,26.82,60.02,42.74Z"/>
                <path class="cls-4" d="M604.07,369.23c8.16,2.1,15.07,8.4,21.9,13.11,6.73,4.64,13.41,9.37,19.93,14.36,12.24,9.37,23.19,21.47,38.01,26.37,7.46,2.47,15.47,3.44,23.08,5.51,8.34,2.27,16.3,5.5,24.11,8.99,13.27,5.93,26.21,12.55,40.08,17.15.17.34.62.66,1.41.81,1.2.24,2.4.47,3.61.71,1.66.33,3.3-1.11,1.06-1.77-16.28-4.78-31.08-12.78-46.49-19.48-7.2-3.13-14.55-5.99-22.19-8.07-7.61-2.07-15.63-3.02-23.08-5.51-8.4-2.81-15.32-8.3-22.07-13.99-6.29-5.3-12.65-10.48-19.23-15.34-6.59-4.87-13.32-9.53-20.07-14.14-5.83-3.98-11.5-8.59-18.46-10.38-1.61-.41-4.23.98-1.58,1.66Z"/>
                <path class="cls-4" d="M587.87,389.86c13.08,3.32,25.47,8.4,36.89,15.34,11.4,6.93,20.92,15.97,30.64,25.35,18.91,18.24,44.33,25.76,69.12,32.5,14.97,4.07,30.02,8.01,44.15,14.12.73.32.46-3.97-.65-4.45-24.77-10.71-52.3-14.63-77.37-24.61-12.24-4.87-23.95-11.23-33.81-20.28-9.72-8.93-18.71-18.25-29.76-25.31-12.24-7.82-25.66-13.51-39.87-17.11-.92-.23-.52,4.16.65,4.45Z"/>
                <path class="cls-4" d="M581.13,409.69c26.21,8.58,49.89,22.36,70.69,40.66,9.65,8.49,18.93,17.54,29.44,24.8,11.13,7.69,23.35,12,36.87,14.34,13.92,2.4,28.27,3.88,40.36,10.88-.17,1.69.58,4.12,1.25,3.25.98-1.26,1.05-1.47,1.5-3,.37-1.27.18-3.23-.74-3.83-10.96-7.05-24.02-9.08-36.99-11.17-13.23-2.12-25.82-5.05-37.12-11.92-11.58-7.04-21.52-16.63-31.71-25.72-9.99-8.91-20.48-17.05-31.8-23.94-13.08-7.96-27.04-14.3-41.66-19.08-1.12-.37-1.26,4.35-.08,4.74Z"/>
                <path class="cls-4" d="M567.58,419.58c25.04,14.9,50.7,28.63,72.89,48.14,10.17,8.94,20.49,17.18,32.77,22.64,12.98,5.77,27.1,9.46,38.61,18.07,10.3,7.7,16.66,20.63,27.26,27.74-.66,1.4-.22,3.3,1.43,3.14,1.32-.13,2.64-.26,3.95-.39,2.5-.24,2.87-3.66.99-4.48-12.13-5.27-18.41-19.13-28.32-27.67-10.26-8.85-23.27-13.05-35.62-17.97-13.2-5.27-24.5-12.71-35.3-22.11-10.65-9.27-21.33-18.08-33.25-25.42-14.2-8.75-28.64-17.1-42.96-25.63-2.14-1.27-4.61,2.66-2.45,3.95Z"/>
                <path class="cls-4" d="M600.42,460.36c10.42,8.43,21.12,16.01,32.95,22.1,12.19,6.28,24.91,11.49,37.13,17.69,12.91,6.55,24.63,14.56,35.3,24.68,10.57,10.02,20.8,20.64,34.11,26.41-.45-.2-1.27-2.83-2.33-3.29-12.98-5.63-22.93-16.03-33.24-25.8-9.41-8.92-19.55-16.39-30.79-22.47-12.05-6.52-24.75-11.78-37.07-17.78-12.77-6.22-24.52-13.72-35.65-22.7-11.84-9.55-23.64-19.41-38.5-23.54.39.11,1.24,2.99,2.33,3.29,13.71,3.81,24.81,12.57,35.75,21.41Z"/>
                <path class="cls-4" d="M591.84,478.33c6.03,3.5,11.79,7.47,17.23,11.92,4.67,3.82,9.08,8.06,14.31,11.03,5.64,3.21,11.94,5.15,17.83,7.86,5.97,2.75,11.72,5.96,17.31,9.41,11.59,7.16,22.51,15.41,33.67,23.27,5.89,4.15,11.85,8.2,18,11.92,3.03,1.83,6.11,3.58,9.24,5.23,1.79.94,3.6,1.84,5.43,2.71.65.31,1.36.79,2.07.95.31.14.62.28.94.42.03.02.07.02.11.04,0,.12-.02.24-.03.35-.11,1.34,1.22,2.05,2.16,2.22.88.15,1.4.15,2.18-.64.28-.28.47-.7.36-1.07-.52-1.81-1.25-2.36-2.72-3.14-3.41-1.81-7.02-3.24-10.43-5.07-6.24-3.35-12.25-7.12-18.14-11.08-11.61-7.81-22.74-16.36-34.39-24.1-11.63-7.72-23.85-13.58-36.62-19.1-6.98-3.02-12.52-7.77-18.38-12.62-5.29-4.38-10.89-8.34-16.73-11.86-13.23-7.97-27.73-13.52-43.04-16.81-2.6-.56-1,2.85.56,3.18,13.86,2.98,27.01,7.97,39.1,14.97Z"/>
                <path class="cls-4" d="M583.27,498.08c11.21,6.75,21.81,14.58,33.6,20.29,11.81,5.71,24.99,8.46,36.55,14.67,11.75,6.31,21.12,16.63,32.44,23.73,12.63,7.92,25.82,14.9,38.77,22.24.75.42,4.8.13,3.16-.8-11.86-6.72-23.85-13.22-35.53-20.25-6.19-3.73-12.13-7.82-17.74-12.48-4.96-4.13-9.82-8.43-15.31-11.74-11.18-6.74-24.19-9.59-36.11-14.77-12.83-5.58-24.1-14.05-36.02-21.29-12.77-7.76-26.61-12.71-40.95-17.12-1.53-.47-4.1.65-1.5,1.44,13.52,4.15,26.58,8.81,38.65,16.09Z"/>
                <path class="cls-4" d="M631,542.68c16.06,7.12,32.62,13.24,46.22,24.75,5.52,4.67,11.57,7.95,18.2,10.66,7.86,3.22,15.85,6.1,21.97,12.36.79.81,4.95.22,3.87-.89-8.74-8.94-21.02-11.22-31.59-16.97-5.59-3.04-10.05-7.69-15.18-11.44-5.19-3.79-10.91-6.7-16.71-9.39-24.98-11.57-50.35-22.38-75.52-33.54-14.52-6.44-28.93-13.17-43.7-19.08-1.22-.49-4.96.74-2.51,1.72,32.13,12.84,63.38,27.81,94.96,41.82Z"/>
                <path class="cls-4" d="M568,538.97c11.94,6.04,23.23,13.33,35.28,19.14,11.92,5.74,24.91,9.11,38.2,11.29,13.85,2.27,27.57,3.76,38.88,12.13,5.11,3.78,10.32,7.01,15.98,9.86,6.64,3.34,13.49,6.74,17.89,13.32,1.62,2.42,1.98-.6.96-2.12-6.65-9.96-17.3-13.48-26.95-19.09-5.56-3.23-10.27-7.82-16.04-10.68-5.58-2.77-11.76-4.27-17.99-5.39-14.56-2.62-29.19-4.4-42.89-9.57-13.03-4.92-24.64-12.67-36.86-19.17-14.42-7.67-29.33-14.4-44.63-20.26-1.35-.52-.2,3.66.8,4.05,12.75,4.88,25.23,10.36,37.38,16.5Z"/>
                <path class="cls-4" d="M519.47,540.82c17.53,2.96,33.55,9.97,48.56,18.74,14.51,8.48,27.8,18.95,43.07,26.1,7.85,3.67,16.32,6.17,23.62,10.91,6.28,4.08,12.15,8.68,18.79,12.19,15.29,8.07,32.31,12.46,49.17,16.81,1.82.47,2.34-4.47.76-4.88-16.86-4.35-33.87-8.74-49.17-16.81-6.99-3.69-13.06-8.71-19.77-12.82-7.08-4.34-15.14-6.77-22.64-10.27-15.26-7.14-28.56-17.62-43.07-26.1-15.01-8.77-31.03-15.78-48.56-18.74-1.91-.32-2.36,4.6-.76,4.87Z"/>
                <path class="cls-4" d="M510.83,561.36c8.91,1.04,16.54,5.45,24.3,9.3,8.06,3.99,16.13,7.98,24.19,11.97,15.51,7.68,31.12,15.31,45.3,25.32,6.82,4.82,13.18,10.3,19.99,15.13,7.23,5.13,15.08,8.96,23.19,12.49,16.31,7.12,31.97,15.2,46.72,25.16,2.15,1.45,2.4-3.22.89-4.23-11.47-7.75-23.48-14.61-36.04-20.44-12.57-5.83-25.26-10.8-36.47-19.12-11.19-8.31-21.98-16.87-34.1-23.76-12.01-6.83-24.51-12.78-36.9-18.91-7.05-3.49-14.11-6.99-21.16-10.48-6.31-3.12-12.61-6.19-19.83-7.03-2.4-.28-1.9,4.37-.08,4.58Z"/>
                <path class="cls-4" d="M572.78,617.1c11.35,6.48,24.12,9.39,35.94,14.8,12.47,5.71,23.87,13.77,35.55,20.94,13.08,8.03,26.16,16.06,39.24,24.09,1.08.66.13-3.47-.74-4.01-11.75-7.21-23.5-14.42-35.25-21.64-11.71-7.19-23.2-14.97-35.36-21.33-11.79-6.17-25.16-8.81-36.92-15.09-11.45-6.11-21.85-14.06-32.55-21.44-11.72-8.08-23.92-15.37-37.88-18.97-.69-.18.09,3.86,1.26,4.16,25.49,6.58,44.42,25.75,66.72,38.5Z"/>
                <path class="cls-4" d="M524.94,599.47c7.72,3.58,15.17,7.69,22.42,12.14,14.13,8.67,27.15,19.06,41.16,27.9,28.18,17.79,59.24,31.5,90.01,44.3,1.85.77,4.58-1.04,1.95-2.13-26.14-10.88-51.87-22.85-76.63-36.47-23.9-13.15-44.71-31.3-68.94-43.92-6.88-3.58-13.97-6.83-21.3-9.47-5.38-1.94-10.87-3.12-16.97-1.7-2.47.57.85,2.87,2.29,2.54,9.25-2.15,18.4,3.27,26.02,6.8Z"/>
                <path class="cls-4" d="M537.77,633.21c14.5,9.33,29.12,18.14,44.66,25.62,15.86,7.63,31.82,14.99,46.01,25.58,13.18,9.84,25.61,21.16,41.76,25.7,1.17.33,1.13-4.39-.09-4.73-17.02-4.79-29.8-17.15-43.83-27.26-13.63-9.82-28.88-16.77-43.94-24.02-15.54-7.48-30.16-16.29-44.66-25.62-14.41-9.27-28.99-18.34-45.18-24.26-1.07-.39-1.11,4.29.09,4.73,16.19,5.92,30.76,14.98,45.18,24.26Z"/>
                <path class="cls-4" d="M531.41,660.29c13.81,8.88,29.21,14.77,44.17,21.43,15.13,6.73,30.01,13.95,44.65,21.66,14.51,7.64,29.51,14.94,41.21,26.99-.16-.16.95-4.01.23-4.76-11.02-11.35-24.85-18.36-38.49-25.62-15.08-8.02-30.43-15.53-46.04-22.52-15.2-6.8-30.91-12.71-44.99-21.67-13.93-8.86-26.57-20.02-42.73-24.69.14.04-.93,4.66-.08,4.9,15.91,4.6,28.4,15.49,42.06,24.27Z"/>
                <path class="cls-4" d="M616.25,721.28c13.22,9.06,24.94,20.33,36.61,31.56,1.84,1.77,3.51-2.68,2.1-4.03-11.32-10.89-22.69-21.83-35.38-30.82-13.09-9.27-27.84-15.7-42.13-22.81-29.6-14.74-59-29.88-88.2-45.4-2.04-1.08-3.08,3.74-1.44,4.61,28.72,15.26,57.64,30.16,86.75,44.68,14.06,7.01,28.67,13.3,41.68,22.22Z"/>
                <path class="cls-4" d="M601,745.99c12.82,10.52,25.47,21.3,38.19,31.96,1.7,1.43,5.16-1.3,3.12-3.02-12.73-10.66-25.37-21.44-38.19-31.96-12.07-9.9-25.76-16.13-40.05-22.02-30.14-12.43-58.53-28.37-84.7-48-1.75-1.32-5.24,1.43-3.12,3.02,25.56,19.17,53.19,35.08,82.6,47.36,14.91,6.23,29.5,12.28,42.15,22.65Z"/>
                <path class="cls-4" d="M554.67,741.59c14.1,7.17,28.41,14.34,41.34,23.61,12.95,9.29,23.92,21.54,37.75,29.47,2.22,1.27,1.32-2.48.1-3.18-13.38-7.67-24.05-19.45-36.5-28.57-12.43-9.1-26.21-16.11-39.83-23.1-13.32-6.84-26.87-13.2-40.56-19.28-14.22-6.32-28.6-12.98-38.78-25.77-1.52-1.9-3.14-.09-1.62,1.83,9.25,11.61,21.67,18.61,34.56,24.54,14.58,6.71,29.24,13.18,43.54,20.45Z"/>
                <path class="cls-4" d="M536.1,752.71c9.52,6.6,18.68,13,29.23,17.79,6.51,2.96,13.06,5.89,18.73,10.38,4.85,3.84,9.09,8.51,13.41,13.05,7.8,8.21,15.94,15.35,26.87,18.23,2.37.63-.92-1.1-1.62-1.28-15.19-4.01-23.79-20.34-35.84-29.63-11.72-9.03-26.41-12.72-38.45-21.27-5.74-4.07-11.3-8.39-17.43-11.8-6-3.33-12.31-6.04-18.63-8.71-14.94-6.33-29.27-13.63-42.81-22.63-.49-.33-4.15-1.33-2.84-.46,10.67,7.09,21.82,13.34,33.45,18.65,12.17,5.56,24.85,9.99,35.93,17.66Z"/>
                <path class="cls-4" d="M463.36,739.57c13.16,6.3,23.22,17.49,37.07,22.62,7.11,2.64,14.56,4.47,21.6,7.27,7.62,3.03,14.62,7.29,21.41,11.88,12.65,8.54,25.11,17.45,37.52,26.38,12.69,9.14,24.69,19.22,35.02,31.6,1.44,1.72,1.71-2.92.91-3.88-20.15-24.15-46.73-40.53-71.8-57.66-6.43-4.39-13.03-8.54-20.15-11.68-6.55-2.9-13.54-4.79-20.36-7.06-7.62-2.53-14.63-5.86-21.11-10.58-6.44-4.68-12.53-9.86-19.71-13.3-1.58-.75-1.48,3.89-.4,4.41Z"/>
                <path class="cls-4" d="M535.84,794.97c-26.77-16.81-57.9-25.63-83.12-45.18-1.79-1.38-4.56,1.46-2.51,3.06,24.83,19.25,55.37,28.02,81.83,44.37,13.36,8.26,25.8,18.01,38.17,27.83,12.29,9.75,24.67,19.44,34.91,31.93,1.33,1.62,4.92-.29,3.23-2.35-10.13-12.35-22.29-22.04-34.43-31.68-12.37-9.83-24.78-19.63-38.08-27.98Z"/>
                <path class="cls-4" d="M604.8,876.95c-13.25-21.59-36.11-30.24-54.01-45.93-9.59-8.41-18.03-18.45-28.69-25.38-11.5-7.47-25.45-8.63-38.35-12.9-15.39-5.1-29.47-13.2-41.72-23.9-1.99-1.74-.33,1.94.41,2.58,12.06,10.52,25.69,18.75,40.73,24.06,8.05,2.84,16.53,4.34,24.77,6.63,8.41,2.34,15.73,6.46,22.42,12.02,12.24,10.18,22.85,22.05,36.03,30.97,13.32,9.01,27.84,17.19,36.81,31.81.84,1.37,3.17,2.59,1.59.03Z"/>
                <path class="cls-4" d="M434.1,785.94c2.74,6.19,7.81,9.55,13.31,12.34,7.59,3.84,15.44,7.18,23.27,10.53,15.36,6.57,30.86,12.91,45.41,21.09,14.39,8.09,27.9,17.71,40.97,27.91,13.43,10.49,27.48,20.91,39.53,33.24.89.91.85-3.6.14-4.33-11.07-11.32-23.88-20.86-36.14-30.6-12.99-10.32-26.37-20.13-40.61-28.51-14.38-8.47-29.73-15.04-45.09-21.58-7.45-3.17-14.9-6.35-22.23-9.78-6.85-3.22-14.6-6.25-18.04-14.01-.85-1.93-.91,2.82-.53,3.7Z"/>
                <path class="cls-4" d="M420.91,810.85c11.3,10.26,24.7,17.12,38.39,23.27,14.72,6.61,29.47,13.01,43.57,20.87,28.05,15.64,53.09,35.81,77.78,56.74,1.45,1.23,5.1-1.4,3.19-3.02-24.69-20.93-49.72-41.09-77.78-56.74-13.49-7.52-27.55-13.81-41.67-20.07-14.36-6.36-28.46-13.33-40.29-24.07-1.41-1.28-5.05,1.33-3.19,3.02Z"/>
                <path class="cls-4" d="M455.65,851.75c14.32,6.37,27.44,14.55,39.34,25.05,11.33,10,22.06,20.75,35.06,28.21,13.93,7.99,28.77,14.43,43.2,21.45,1.87.91,4.34-1.64,1.99-2.78-14.73-7.17-30.01-13.62-44.11-21.99-13.58-8.06-24.62-19.89-36.74-30.16-11.72-9.93-24.88-17.43-38.82-23.47-7.14-3.1-14.45-5.84-21.8-8.47-7.14-2.55-14.26-5.64-21.9-6.87-2.42-.39-3.42,2.69-.98,3.09,8.26,1.33,16.02,4.79,23.73,7.59,7.1,2.58,14.14,5.29,21.02,8.35Z"/>
                <path class="cls-4" d="M570.32,941.4c-14.57-5.8-26.19-16.82-39.92-24.17-13.45-7.2-28.8-10.13-42.85-16.01-14.84-6.22-27.23-16.77-41.14-24.69-13.16-7.49-28.27-11.33-40.12-21.16.1.08-.46,3.88.35,4.55,12.23,10.15,27.92,14.02,41.42,21.91,13.01,7.61,24.77,17.4,38.65,23.43,14.81,6.43,31.18,9.34,45.32,17.22,13.24,7.38,24.66,17.91,38.85,23.56-.3-.12.46-4.23-.56-4.64Z"/>
                <path class="cls-4" d="M428.26,902.92c6.21,3.88,12.88,7.02,19.41,10.29,12.99,6.5,26.11,12.74,39.38,18.66,12.97,5.79,26.32,10.82,39.06,17.08,6.26,3.07,12.29,6.57,17.93,10.73,5.79,4.27,11.27,8.74,18.45,10.35.79.18,4.2-.86,3.67-.98-8.01-1.8-13.93-7.43-20.48-12-6.14-4.28-12.76-7.76-19.53-10.89-13.65-6.32-27.71-11.8-41.4-18.03-13.93-6.35-27.71-13.03-41.33-20-6.57-3.36-13.25-6.72-18.78-11.83-3.98-3.68-6.64-7.61-12.71-6.6-2.38.39-2.51,1.18-.06.77,3.3-.55,6.13,4.24,8.15,6.17,2.52,2.42,5.32,4.45,8.23,6.28Z"/>
                <path class="cls-4" d="M555.12,992.51c-6.93-2.2-11.71-7.85-16.74-13.05-4.37-4.52-9.02-8.2-14.74-10.56-12.87-5.31-27.35-6.89-40.56-11.47-27.4-9.5-54.77-19.54-78.29-36.73-.89-.65-4.01.48-4.06.45,23.65,17.29,51.12,27.42,78.67,36.97,6.35,2.2,12.78,4.16,19.38,5.69,7.59,1.76,15.4,3.15,22.45,6.32,11.91,5.34,18.21,19.26,30.81,23.26.65.21,4.71-.37,3.07-.89Z"/>
                <path class="cls-4" d="M550.31,1009.95c-11.16-7.37-22.44-14.24-34.96-19.04-11.8-4.52-23.89-8.43-36.05-12.07-12.7-3.8-26.03-6.28-38.44-10.78-12.59-4.57-20.74-14.18-29.53-24.42-1.28-1.5-4.96.95-3.31,2.87,8.24,9.59,15.99,19.11,27.53,23.87,11.97,4.94,25.22,7.19,37.72,10.82,13.12,3.81,26.13,8,38.84,12.82,12.79,4.85,24.28,11.79,35.66,19.31,1.72,1.14,4.68-1.96,2.54-3.37Z"/>
                <path class="cls-4" d="M526.86,1026.52c-4.7-2.81-10.34-3.68-15.61-5.16-13.12-3.68-24.62-9.44-35.17-18.1-18.08-14.85-38.3-32.19-63.43-31.97-2.21.02.44,2.85,1.64,2.84,24.27-.21,43.47,17.45,60.97,31.64,8.12,6.59,16.86,11.74,26.66,15.25,4.71,1.69,9.54,3.03,14.41,4.29,2.8.72,5.69,1.38,8.25,2.69,3.52,1.81,5.34,5,6.94,8.95.47,1.17,4.19,2.14,3.55.57-1.92-4.72-4.18-8.59-8.21-10.99Z"/>
                <path class="cls-4" d="M472.09,1027.27c8.51,5.67,17.07,11.26,26.01,16.16,9.08,4.98,18.65,9.16,26.08,16.85.93.96,4.92-.96,4.05-1.86-7.22-7.48-16.32-11.76-25.19-16.54-9.87-5.33-19.27-11.5-28.63-17.74-4.5-3.01-9.05-5.96-13.35-9.29-4.53-3.51-8.43-7.78-12.57-11.83-7.06-6.91-15.45-10.81-25.52-11.27-1.46-.07-4.71,2.52-2.06,2.64,12.02.55,20.03,6.95,28.12,15.19,6.93,7.06,15,12.34,23.05,17.7Z"/>
                <path class="cls-4" d="M518.9,1069.88c-7.12,2.51-13.67-.34-19.43-3.18-5.85-2.89-11.52-6.15-17.01-9.71-5.07-3.28-9.88-6.95-14.73-10.59-4.73-3.55-9.67-6.73-15.55-7.9-.65-.13-3.18,1.35-2.35,1.51,6.9,1.36,12.41,5.56,17.9,9.75,5.52,4.22,11.2,8.16,17.11,11.71,9.76,5.87,21.29,14.09,34.18,9.55,1.64-.58,1.53-1.73-.12-1.15Z"/>
              </g>
              <path class="cls-4" d="M866.91,20.71c19.16-14.79,42.88-22.02,65.87-20.52,13.17.86,25.37,5.34,37.4,10.07,12.47,4.91,25.05,10.5,35.79,18.56,7.09,5.33,12.1,11.53,14.83,20.26,2.47,7.88,3.96,16.16,5.28,24.39,3.94,24.55,5.94,49.58,7.78,74.52,2.14,28.9,3.76,57.88,5.48,86.83.95,16,2.43,31.99,2.47,48.1.06,27.41-2.79,55.04-6.9,82.39-13.68,91.07-42.69,180.75-80.67,265.66-25.63,57.3-55.72,112.71-89.43,165.8-24.97,39.32-51.5,78.32-80.98,114.39-48.39,59.2-106.66,113.29-171.52,151.98-20.81,12.42-42.54,23.16-65.06,31.3-8.66,3.13-17.51,5.36-26.21,8.19-2.34.76-4.52,1.4-6.98,1.6-10.73.91-18.87-7.08-24.75-15.01-12.61-17.01-20.11-38.45-25.04-59.47-10.2-43.48-13.32-89.5-14.68-134.68-1.37-45.48-1.12-92.34,7-137.89,4.31-24.17,12.97-47.62,18.8-71.54,5.56-22.84,9.76-45.83,13.97-68.86,3.49-19.08,9.87-36.63,17.1-54.79,35.84-90.02,81.59-176.8,131.12-260.29,18.4-31.02,37.52-61.63,57.3-91.79,6.32-9.64,12.88-18.72,19.91-27.84,28.81-37.35,59.49-73.42,92.44-107.02,18.88-19.25,38.6-37.7,59.67-54.33.97-.77,3.82-.11,4.26-.47-42.74,33.74-80.45,74.45-115.7,116.27-19.18,22.76-38.5,45.89-54.89,70.83-63.33,96.33-120.56,197.29-167.7,302.31-11.45,25.5-22.55,51.29-31.78,77.61-8.93,25.48-11.24,52.73-16.94,78.87-3.2,14.67-6.82,29.28-10.85,43.78-3.26,11.72-7.29,23.3-9.99,35.15-4.25,18.62-6.27,37.64-7.67,56.48-3.56,47.96-2.69,96.13,1.12,143.51,3.27,40.65,7.61,83.12,23.8,119.91,6.06,13.76,15.26,33.84,31.04,38.05.95.25,1.9.39,2.88.51.69.09,2.06-.18.86.09.6-.14,1.12-.44,1.69-.66,9.06-3.46,18.69-5.4,27.83-8.76,81.09-29.75,152.34-90.61,211.2-155.42,14.28-15.73,27.63-32.04,40.41-49.05,40.43-53.79,77.21-110.42,109.41-169.5,49.45-90.73,88.52-187.6,111.76-287.47,13.3-57.16,22.4-116.07,18.75-173.79-3.42-54.04-5.43-108.4-11.61-162.02-1.99-17.29-3.51-36.36-10.15-52.27-4.08-9.77-13.35-16.08-22.01-21.15-12.03-7.05-25.15-12.28-38.34-16.9-14.31-5.01-29.23-7.62-44.81-4.47-13.79,2.79-26.83,9.25-38.27,18.08-.99.76-3.8.11-4.26.47Z"/>
            </g>
          </g>
          <path class="cls-4" d="M963.99,6.28c.52,3.94-1.3,8.81-2.35,12.62-2.4,8.68-5.29,17.24-8.22,25.78-9.82,28.62-20.64,56.94-31.52,85.22-15.43,40.09-31.26,80.03-47.23,119.93-19.22,48.03-38.67,95.97-58.23,143.87-21.15,51.8-42.44,103.55-63.81,155.26-21.52,52.07-43.13,104.11-64.8,156.13-20.12,48.3-40.3,96.57-60.52,144.83-16.98,40.52-33.99,81.02-51.03,121.51-12.27,29.15-24.56,58.3-36.86,87.44-5.75,13.61-10.77,27.98-17.42,41.21-.29.57-.51,1.2-.76,1.79-.24.56-1.24.8-2.22.97-.61.25-1.17.46-1.37.51-9.21,2.31-19.36.26-21.95-10,.02-.03.04-.06.06-.09,3.2-2.7,5.34-7.47,7.34-11.05,4.43-7.94,8.46-16.11,12.44-24.27,13.31-27.32,25.76-55.03,38.12-82.76,17.56-39.37,34.75-78.9,51.81-118.47,20.45-47.43,40.69-94.94,60.83-142.5,21.76-51.38,43.39-102.81,64.94-154.28,21.77-51.98,43.45-103.99,65.08-156.02,19.93-47.96,39.82-95.94,59.66-143.94,16.77-40.58,33.52-81.16,50.23-121.76,11.99-29.12,23.96-58.24,35.91-87.37,5.59-13.61,10.41-27.98,16.9-41.22.28-.58.49-1.2.74-1.8.24-.6,4.23-1.7,4.25-1.55Z"/>
        </g>
        <g>
          <path class="cls-4" d="M365.38,314.44c.2-.29.6-.41.94-.02,2.55,1.78,4.92,3.84,7.26,5.88,6.67,5.81,12.91,12.12,18.85,18.67,9.56,10.53,18.35,21.75,26.5,33.4,11.01,15.75,20.85,32.32,29.69,49.38,11.4,22.02,21.12,44.89,29.41,68.25,10.16,28.6,18.18,57.94,24.48,87.63,7.68,36.25,12.77,73.03,15.82,109.95,3.65,44.16,4.4,88.54,2.94,132.82-1.75,53.23-6.7,106.33-13.99,159.08-8.67,62.67-20.68,124.87-35.11,186.46-3.9,16.64-7.98,33.23-12.22,49.78-.09.37-.4.58-.78.48-7.64-1.94-15.29-3.88-22.93-5.83-.44-.11-.72-.59-.56-1.02,1.89-5.24,3.62-10.55,5.34-15.85,4.75-14.62,9.17-29.35,13.37-44.14,6.41-22.6,12.27-45.35,17.64-68.21,6.75-28.75,12.71-57.68,17.84-86.76,5.91-33.46,10.72-67.12,14.28-100.92,3.88-36.82,6.28-73.81,6.87-110.84.62-38.68-.73-77.41-4.55-115.91-3.85-38.78-10.21-77.35-19.73-115.15-9.6-38.13-22.45-75.5-39.11-111.14-16.92-36.22-37.81-70.59-62.65-101.94-6.26-7.9-12.78-15.61-19.52-23.11-.42-.29-.36-.71-.09-.94Z"/>
          <path class="cls-4" d="M393.34,344.32c.25-1.11.18,4.29,5.14,6.25,5.46,2.16,8.3-2.08,8.3-2.08,0,0-1.05,2.9-1.17,3.2-3.55,8.72-55.12,136.57-83.31,273.38,15.97-91.36,43.69-231.26,71.04-280.76Z"/>
          <path class="cls-4" d="M113.86,408.59c4.43-14.96,10.95-29.3,18.36-42.99,6.41-11.58,21.96-13.95,33.89-14.85,18.84-1.43,37.89.5,56.65,2.12,18.69,1.62,37.66,3.8,56.44,2.65,11.15-.68,27.36-2.54,30.96-15.32,1.1-3.91,2.04-8.75-.02-12.53-1.72-3.15-5.22-4.44-8.59-4.95-4.87-.73-9.91-.18-14.75.54-6.42.95-12.76,2.4-19.06,3.95-15.53,3.83-30.87,8.35-46.39,12.22-15.78,3.93-32.01,7.79-48.31,8.51-6.92.3-24.89-.13-19.46-11.8.43-.93.98-1.82,1.59-2.64,2.55-3.42,5.55-6.59,8.43-9.73,9.37-10.24,19.66-19.68,30.85-27.9,18.48-13.58,39.41-23.7,61.68-29.25,18.12-4.51,36.94-5.99,55.55-4.7,13.78.96,27.47,3.39,40.72,7.27,5.93,1.73,11.93,3.65,17.54,6.27,8.53,3.99,16.5,10.21,20.8,18.74,4.04,8.01,4.4,17.05,3.82,25.84-.51,7.68-2.33,16.12-.29,23.71.67,2.49,1.91,5.47,4.56,6.35,3.77,1.24,7.97-2.03,10.68-4.27,6.4-5.29,11.43-12.07,17.68-17.56,12.47-10.97,27.26-19.01,43.15-23.82,12.6-3.81,25.72-4.87,38.36-.64,13.4,4.49,25.05,13.38,36.3,21.67,12.07,8.89,22.58,19.34,31.46,31.43,13.98,19.04,24.78,41.54,29.93,64.67,2.14,9.63,2.74,19.75,1.42,29.54-.65,4.83-2.54,16.44-9.79,15.22-4.07-.68-7.24-4.86-9.5-7.95-4.17-5.69-8.16-11.35-13.01-16.51-9.94-10.6-21.8-19.22-34.69-25.89-14.72-7.62-30.85-13.15-47.09-16.41-2.93-.59-19.84-4.48-18.37,2.94.33,1.68,1.38,3.23,2.39,4.56,1.9,2.49,5.06,2.85,7.93,3.96,14.45,5.58,28.67,11.82,42.33,19.14,18.7,10.02,37.04,22.2,50.7,38.67,9.15,11.04,15.72,24.13,17.64,38.43,1.64,12.24-.15,24.64-3.74,36.38-3.35,10.96-8.21,21.37-13.18,31.67-2.16,4.46-4.34,8.91-6.33,13.46-3.66,8.38-6.18,17.37-11.51,24.93-2.36,3.35-6.76,7.91-10.94,4.48-1.15-.94-1.99-2.25-2.64-3.57-.84-1.71-.54-2.96-.48-4.96.6-21.38-7.57-41.79-20.15-58.79-12.61-17.04-29.35-31.05-47.64-41.64-15.27-8.84-32.62-16.26-50.39-17.7-6.22-.5-12.86-.27-18.67,2.26-3.18,1.39-8.01,4.23-7.48,8.37.51,4.01,4.88,7.12,7.87,9.3,5.69,4.14,11.96,7.5,18.14,10.84,16.46,8.88,33.18,17.33,48.73,27.78,15.69,10.54,31.16,23.41,39.94,40.5,10.31,20.05,8.38,44.4,1.97,65.36-6.28,20.53-17.23,40.93-32.41,56.28-4.53,4.58-21.03,18.8-23.32,4.7-.52-3.19.05-6.32.28-9.5.25-3.39.01-6.81-.45-10.17-1.18-8.55-3.82-16.89-6.86-24.95-7.28-19.28-17.34-37.61-28.59-54.85-9.22-14.12-19.49-28.93-32.65-39.7-3.08-2.52-7.69-6.3-12.01-5.7-4.68.64-5.09,7.27-5.11,10.84-.06,9.05,3.87,17.61,8.55,25.15,5.49,8.86,12.29,16.87,19.12,24.72,13.6,15.63,29.54,31.21,37.55,50.69,3.51,8.53,4.65,17.45,2.56,26.48-2.86,12.37-8.33,24.95-17.5,33.97-4.83,4.75-12.67,10.21-19.76,7.16-8.57-3.68-8.71-16.18-8.18-23.9,1.03-15.12-.9-30.34-6.46-44.49-4.15-10.56-10.56-21.7-20.37-27.94-6.24-3.97-16.44-6.04-20.16,2.16-1.73,3.81-2.01,8.25-2.06,12.38-.07,5.4.45,10.81,1.12,16.16,1.58,12.72,4.14,25.29,6.33,37.91,1.01,5.84,1.97,11.69,2.68,17.57.57,4.7,1.35,9.74.75,14.46-2.26,17.61-24.63,24.91-39.13,28.69-8.41,2.19-16.99,3.69-25.61,4.72-2.6.31-5.2.58-7.81.79-.79.06-1.8.31-2.55.04-1.09-.39-2.24-1.57-3.17-2.24-2.46-1.76-4.91-3.56-7.33-5.37-7.8-5.83-15.44-11.89-22.85-18.21-8.71-7.42-17.17-15.2-24.9-23.64-6.66-7.28-13.21-15.2-17.26-24.28-2.65-5.95-3.41-11.38-.97-17.51,2.76-6.95,7.75-13,12.7-18.5,13.39-14.91,29.09-27.62,43.75-41.21,6.94-6.43,13.82-13.03,19.87-20.32,4.39-5.29,9.03-11.41,10.36-18.32.94-4.87-.61-10.82-5.33-13.25-4.5-2.32-9.94.02-13.96,2.29-6.69,3.77-12.52,9.11-17.94,14.49-6.88,6.82-13.24,14.15-19.35,21.66-12.43,15.29-23.91,31.4-34.51,48.01-3.69,5.78-7.32,11.64-10.57,17.69-2.29,4.28-3.72,9.3-7.35,12.68-4.08,3.8-9.43,3.7-14.05.89-8.41-5.11-13.65-15.2-17.67-23.78-3.43-7.33-6.23-14.95-8.68-22.66-.98-3.07-1.71-6.07-1.67-9.32.08-5.76,2.19-11.29,5.07-16.21,7.9-13.51,20.86-23.97,33.19-33.24,16.04-12.06,33.14-22.67,50.22-33.18,16.2-9.97,32.6-19.7,48.21-30.59,6.15-4.29,12.21-8.77,17.74-13.85,3.94-3.62,7.95-7.69,10.26-12.59,1.72-3.64,2.08-7.75-.21-11.23-2.43-3.69-6.96-4.58-11.1-4.41-6.32.26-12.56,2.46-18.36,4.84-8.04,3.29-15.74,7.42-23.22,11.84-17.84,10.53-34.67,22.82-50.72,35.89-15.1,12.29-29.79,25.37-42.73,39.95-4.61,5.2-9.13,10.64-12.65,16.66-2.63,4.5-4.09,9.49-7.19,13.74-5.16,7.07-13.74,12.4-22.76,10.69-11.13-2.11-17.29-13.27-20.2-23.23-2.64-9.03-3.38-18.57-3.33-27.94.08-13.62,1.91-27.22,4.53-40.57,2.52-12.88,5.55-25.7,10.85-37.75,4.17-9.49,9.56-18.44,16-26.57,11.74-14.83,26.79-26.68,43.21-35.93,14.67-8.26,30.39-14.47,46.38-19.63,10.88-3.51,22.19-6.06,32.84-10.23,1.74-.68,5.6-1.84,6.24-3.94.63-2.08-2.72-3.78-4.1-4.54-17.67-9.79-38.12-6.45-55.84,1.31-20.08,8.79-37.47,22.37-55.22,34.98-7.15,5.08-27.4,21.44-32.96,5.95-1.42-3.97-1.3-8.46-.9-12.59.58-6.01,2-11.94,3.72-17.72Z"/>
          <g>
            <path class="cls-2" d="M445.28,415.82c9.67,2.87,19.08,7.12,27.96,11.9.17.09.35.19.52.28.05.03.11.08.16.13.07.04.13.08.18.14,5.17,5.04,18.43,19.49,5.98,24.42-4.71,1.87-10.27,1.57-15.2.92-6.44-.86-12.78-2.72-18.72-5.34-10.54-4.65-22.59-13.03-23.26-25.69-.65-12.4,15.01-8.94,22.37-6.76Z"/>
            <path class="cls-2" d="M128.76,501.64c1.74-5.46,5.05-10.41,8.45-14.97,5.45-7.3,11.74-14.34,18.56-20.4.13-.12.26-.24.39-.36,4.43-4.42,11.15-7.2,17.35-5.12,2.18.73,4.21,2.16,5.12,4.34,1.13,2.73.27,5.78-1.09,8.26-1.36,2.49-3.05,4.84-4.51,7.27-1.65,2.75-3.28,5.51-4.95,8.25-3.64,5.97-7.43,11.9-11.92,17.27-3.57,4.27-7.92,8.84-13.41,10.53-4.36,1.34-9.43.09-12.54-3.3-2.99-3.26-2.71-7.83-1.45-11.78Z"/>
          </g>
        </g>
      </g>
      <g>
        <path class="cls-5" d="M392.58,845.13c-5.2,6.22-8.55,14.02-11.62,21.45-3.61,8.76-6.69,17.73-10,26.61-1.39,3.74-2.82,7.47-4.45,11.11-1.1,2.45-2.25,5.16-4.05,7.19-1,1.12-2.29,1.84-3.67.9-.94-.64-1.49-1.74-2.16-2.62-1.32-1.73-2.85-3.3-4.43-4.79-8.52-7.99-18.96-14.2-29.43-19.26-5.38-2.6-10.94-4.92-16.69-6.57-4.22-1.21-8.74-2.23-13.16-1.87-7.41.6-11.01,6.87-9.15,13.87,2.36,8.89,11.33,15.21,18.57,19.98,9.64,6.35,20.02,11.46,30.11,17.03,4.28,2.36,8.57,4.77,12.53,7.64,2.56,1.85,5.57,4.1,6.84,7.1,3.13,7.45-8.58,7.25-12.72,6.46-10.91-2.09-21.29-7.69-30.89-13.03-11.19-6.22-21.97-13.16-32.5-20.44-8.24-5.7-16.05-11.87-24.05-17.89-6.27-4.72-13.25-9.43-20.96-11.39-4.43-1.13-9.21-1.12-13.13,1.49-3.54,2.36-5.82,6.23-7.25,10.15-.93,2.54-2.28,5.62-.98,8.25,2.38,4.82,8.56,7.97,13,10.48,17.08,9.66,35.69,16.61,53.6,24.55,8.45,3.74,16.92,7.56,24.97,12.12,4.5,2.55,11.02,5.84,13.34,10.8,2.45,5.22-5.82,7.19-9.32,8-11.4,2.65-23.61.16-34.58-3.25-24.87-7.73-47.94-21.54-69.37-36.1-5.97-4.06-11.8-8.29-17.55-12.64-2.77-2.09-6.18-3.23-9.49-4.17-4.87-1.38-9.92-2.22-14.97-2.6-8.75-.65-20.44-.42-26.77,6.72-4.77,5.38-4.82,13.48-.13,18.85,5.27,6.04,13.19,9.86,20.31,13.21,10.22,4.81,20.85,8.73,31.49,12.48,21.28,7.51,43.22,13.66,63.92,22.68,3.48,1.52,6.95,3.14,10.2,5.13,2.11,1.29,4.42,2.8,5.83,4.89.82,1.21,1.58,3.3.17,4.3-2.07,1.45-5.78.88-8.08.58-9.93-1.28-19.67-5.03-28.97-8.58-11.26-4.3-22.32-9.13-33.26-14.19-16.33-7.56-31.91-16.61-48.34-23.94-10.84-4.84-22.25-9.65-34.05-11.52-6.5-1.03-16.02-1.01-17.25,7.37-.78,5.31,5.22,9.08,9.07,11.43,7.92,4.84,16.71,8.3,25.32,11.69,20.97,8.26,42.72,15.04,62.88,25.23,6.82,3.45,14.63,7.47,19.26,13.79,2.89,3.94,3.77,9.73-1.39,12.08-6.28,2.85-14.54,1.45-21.06.39-10.71-1.75-21.21-4.74-31.56-7.93-22.08-6.81-43.63-15.15-65.39-22.85-6.62-2.34-13.36-4.96-20.27-6.33-3.92-.78-9.27-1.18-12.58,1.47-2.64,2.11-3.02,5.4-1.96,8.44,2.17,6.25,9.37,9.57,14.99,12.06,10.2,4.52,21.15,7.34,31.95,10.01,11.37,2.82,22.83,5.25,34.15,8.25,4.64,1.23,9.28,2.54,13.78,4.23,3.08,1.16,6.29,2.46,8.89,4.53,1.63,1.29,3.26,3.23,2.61,5.45-.82,2.8-4.28,4.34-6.82,5.07-9,2.56-19.45.35-28.38-1.46-12.24-2.48-24.27-5.92-36.37-9.01-10.03-2.56-20.42-5.4-30.83-5.73-5.43-.17-13.55.77-14.94,7.38-.52,2.46,1.27,4.27,3.17,5.53,3.5,2.3,7.74,3.55,11.73,4.71,11.79,3.43,23.91,5.59,35.83,8.53,5.9,1.45,11.78,3.03,17.5,5.08,4.52,1.62,9.33,3.48,13.16,6.44.87.67,1.64,1.61,1.63,2.41-.02.01-.04.02-.07.04-.13.08-.4.29-.6.41-.71.44-1.51.75-2.29,1.03-5.4,1.95-11.34,2.64-16.99,3.46-18.01,2.63-36.12,4.46-54.02,7.85-8.94,1.7-17.86,3.72-26.47,6.66-6.91,2.35-13.95,5.31-19.61,10.03-4.34,3.62-7.88,8.54-8.36,14.32-.57,6.95,3.06,14.7,8.3,19.15,6.54,5.55,15.6,5.34,23.52,3.56,10.59-2.39,20.58-7.26,30.18-12.2,10.5-5.41,20.72-11.36,31.26-16.71,8.03-4.08,16.91-8.72,26.05-9.43,2.85-.22,13.72,1.03,10.61,6.29-1.41,2.39-4.27,4.19-6.49,5.74-3.68,2.58-7.55,4.88-11.41,7.17-8.58,5.1-17.32,10.03-25.35,15.98-5.85,4.34-12.84,9.93-14.84,17.31-1.55,5.73,1.79,12.34,7.94,13.23,7.79,1.12,16.14-4.56,22.21-8.67,20.27-13.72,37.35-31.9,55.19-48.52,3.57-3.33,7.16-6.64,10.94-9.73,1.43-1.17,2.89-2.31,4.42-3.36,1.42-.97,3.52-2.63,5.36-2.68,3.29-.08.73,6.07.22,7.53-2.18,6.25-5.03,12.28-7.68,18.34-3.45,7.88-6.82,15.8-9.77,23.89-3.07,8.42-5.04,17.14-7.96,25.6-2.32,6.7-5.3,13.09-8.36,19.48-1.51,3.16-3.62,6.84-3.59,10.46.03,3.36,2.74,5.29,5.53,6.61,3.05,1.45,6.87,3.21,10.35,2.54,6.1-1.17,10.44-7.57,13.49-12.44,5.34-8.53,9.23-17.96,12.91-27.3,4.49-11.41,8.53-22.99,12.67-34.53,4.11-11.44,8.25-22.9,13.17-34.03,3.6-8.15,7.57-17.03,13.86-23.51,1.63-1.68,8.26-7.6,9.76-2.85.65,2.05.19,4.52-.14,6.58-.59,3.61-1.54,7.17-2.52,10.69-5.46,19.47-12.77,38.42-17.08,58.21-1.69,7.77-3.36,16.19-2.15,24.16.7,4.62,3.38,10.5,8.88,10.49,5.2,0,8.6-6.33,10.55-10.3,4.04-8.23,6.37-17.33,8.57-26.19,5.84-23.5,9.72-47.45,15.94-70.87,2.52-9.49,5.25-19.3,10.02-27.94.48-.87,5.12-9.21,7.01-7.43.69.65.33,2.57.25,3.34-.23,2.28-.74,4.54-1.26,6.77-1.66,7.14-3.76,14.18-5.82,21.21-5.71,19.43-11.68,38.8-16.58,58.46-2.34,9.41-4.48,18.89-5.98,28.47-1.17,7.47-2.09,15.17-1.45,22.74.38,4.51,1.35,10.15,5.32,12.98,3.94,2.81,9.09,1.58,12.66-1.2,5.39-4.21,8.76-10.87,11.48-16.99,4.05-9.1,6.92-18.73,9.5-28.33,6.16-22.94,10.42-46.35,15.34-69.58,2.09-9.87,4.23-19.75,7.01-29.45,1.69-5.9,3.4-12.94,7.34-17.83,1.43-1.77,5.79-6.79,8-3.37.94,1.45,1.1,3.48,1.25,5.14.26,2.84.19,5.72.08,8.57-.65,17.53-3.04,34.94-3.61,52.48-.3,9.23-.4,18.29-1.99,27.41-1.29,7.38-3.24,14.6-5.22,21.82-1.33,4.87-2.93,9.93-3.1,15.01-.12,3.46.72,6.86,3.69,8.94,2.99,2.1,7.98,3.27,11.6,2.78,2.32-.32,4.29-1.67,5.88-3.32,4.63-4.82,6.82-11.86,8.52-18.16,5.24-19.41,6.54-39.9,8.4-59.85.82-8.88,1.57-17.8,2.89-26.62.45-3.04.95-6.09,1.81-9.05.34-1.17.88-3.44,1.87-3.83,1.38-.54,2.59,1.06,3.28,2.02,2.19,3.05,3.24,6.92,4.05,10.53,2.45,10.87,2.82,22.22,3.4,33.31.63,11.98,1.06,24.02,2.71,35.92,1.11,7.95,2.47,18.21,8.45,24.19,3.6,3.6,9.5,4.54,12.57-.09,3.41-5.14,2.65-12.67,2.16-18.47-.9-10.53-3-20.97-5.09-31.32-2.43-12.03-5.06-24.02-7.34-36.09-2.08-11.03-4.03-22.19-4.56-33.41-.2-4.3-.2-8.66.41-12.93.42-2.94,1.09-6.3,2.88-8.75,5.16-7.04,12.53,17.09,13.3,19.42,5.51,16.69,9.96,33.78,16.75,50.02,2.74,6.54,5.84,13.31,10.48,18.74,3.1,3.62,7.45,6.82,12.47,5.67,2.65-.61,4.96-2.18,6.96-3.97,2.22-1.99,4.73-4.45,5.76-7.31,2.09-5.79-.87-12.98-3.05-18.3-7.44-18.12-18.84-34.53-29-51.18-3.28-5.37-7.37-11.07-9.21-17.15-.03-.1-.15-.9-.23-1.47.19,0,.4-.01.48,0,2.36.33,4.8,2.32,6.7,3.61,15.05,10.23,28.64,22.19,42.95,33.36,4.55,3.55,9.28,7.06,14.55,9.49,2.93,1.35,6.61,2.86,9.93,2.41,4.16-.56,6.78-4.47,7.55-8.33,1.24-6.25-1.28-12.88-4.25-18.27-5.4-9.8-13.68-17.88-22.42-24.71-14.18-11.09-30.42-19.38-47-26.24-6-2.95-11.51-8.22-14.52-14.17-2.88-5.68-3.27-12.11-1.45-18.18,1.22-4.06,3.23-7.94,5.06-11.75,2.02-4.2,4.14-8.35,6.26-12.5,7.89-15.43,17.17-31.63,19.19-49.14.86-7.43.02-15.05-3.36-21.79-2.26-4.5-5.71-9.79-10.38-12.15-5.23-2.65-10.04.93-13.35,4.89ZM128.47,1072.56c.04-.07.18-.12,0,0h0Z"/>
        <path class="cls-3" d="M389.05,956.2c-.17,1.12-.62,2.92-1.5,3.74-16.39,15.23-34.72,28.28-53.68,40.11-20.07,12.53-40.97,23.73-62.24,34.08-19.54,9.51-39.43,18.3-59.55,26.52-15.06,6.15-30.24,11.99-45.55,17.49-4.72,1.69-9.45,3.35-14.2,4.97-1.44.49-2.88.97-4.32,1.45-.66.22-1.54.69-2.24.73-.09,0-.2.06-.28.09-.85.27-.3-1.93-.22-2.23.18-.74.7-2.99,1.61-3.28,5.63-1.8,11.22-3.76,16.79-5.73,14.45-5.11,28.79-10.54,43.01-16.25,19.63-7.88,39.06-16.29,58.18-25.35,21.24-10.07,42.13-20.94,62.3-33.04,19.4-11.65,38.28-24.43,55.37-39.31,2-1.74,3.96-3.51,5.9-5.32.89-.82.7.84.63,1.32Z"/>
      </g>
    </g>
  </g>
</svg>