<?xml version="1.0" encoding="UTF-8"?>
<svg id="Layer_2" xmlns="http://www.w3.org/2000/svg" version="1.1" viewBox="0 0 994.7 1006.2">
  <!-- Generator: Adobe Illustrator 29.8.2, SVG Export Plug-In . SVG Version: 2.1.1 Build 3)  -->
  <defs>
    <style>
      .st0 {
        fill: #001418;
      }

      .st1 {
        fill: #030a05;
      }

      .st2 {
        fill: #0255ad;
      }

      .st3 {
        fill: #ff891e;
      }

      .st4 {
        fill: #fff;
      }

      .st5 {
        fill: #ff9c1b;
      }

      .st6 {
        fill: #784433;
      }

      .st7 {
        fill: #59590e;
      }

      .st8 {
        fill: #f29100;
      }
    </style>
  </defs>
  <g id="Layer_2-2">
    <g id="Layer_1-2">
      <g>
        <path class="st7" d="M705.7,722.6c4.8,6.4,12,12.3,20.3,8.6,7.4-3.3,13.2-11.3,17-18.1,5.8-10.2,7.6-22,6.9-33.6-1.8-27.3-15-53.2-26.1-77.7-3-6.6-6-13.2-8.8-19.9-2.6-6-5.4-12.2-7-18.6-2.4-9.6-1.3-19.5,3.6-28.1,5.1-9,14.1-16.8,23.6-20.9,26.2-9.4,52.1-21,74.9-37.2,14.1-10,27.5-21.9,36.7-36.6,5-8.1,9.4-18.2,8-28-.9-6-4.7-12.3-11.1-13.5-5.1-1-10.9,1.1-15.6,3-8.4,3.4-16,8.5-23.3,13.6-23.1,16.2-45,33.8-69.2,48.5-3,1.9-7,4.8-10.7,5.1-.1,0-.4,0-.7,0,.2-.9.4-2.1.5-2.3,3.3-9.3,10.1-17.8,15.6-25.9,17-25.1,35.9-49.7,48.9-77.2,3.8-8.1,8.9-19,6.1-28.2-1.4-4.5-5.1-8.5-8.4-11.8-3-2.9-6.4-5.5-10.5-6.7-7.7-2.2-14.7,2.5-19.8,7.9-7.6,8.1-12.9,18.3-17.7,28.3-11.8,24.7-20,50.9-29.8,76.4-1.4,3.5-14.6,40.4-22.1,29.1-2.6-3.9-3.4-9.2-3.8-13.8-.6-6.7-.3-13.4.3-20.1,1.7-17.4,5.5-34.5,9.6-51.5,4.4-18.5,9.4-37,14.1-55.4,4-15.9,8.1-31.9,10.3-48.2,1.2-9,3-20.6-2-28.8-4.4-7.4-13.7-6.4-19.5-1.1-9.7,8.8-12.6,24.6-14.9,36.9-3.5,18.3-5,37-6.9,55.5-1.7,17.1-3.2,34.7-7.8,51.4-1.5,5.5-3.5,11.5-7.1,16-1.1,1.4-3.1,3.8-5.2,2.9-1.5-.7-2.2-4.2-2.6-6.1-1.1-4.6-1.7-9.4-2.1-14.2-1.4-13.8-1.9-27.7-2.5-41.5-1.4-31.1-1.8-63-8.5-93.5-2.2-9.9-5-21-11.8-28.8-2.3-2.7-5.3-4.9-8.9-5.6-5.6-1-13.4.4-18.2,3.4-4.8,3-6.3,8.2-6.4,13.6-.1,7.9,2,15.9,3.7,23.5,2.5,11.4,5,22.7,6.5,34.2,1.8,14.3,1.2,28.4,1,42.7-.4,27.3,2,54.5,1.6,81.7,0,4.4-.2,8.9-.8,13.3-.4,2.6-.8,5.7-2.3,7.9-3.7,5.1-10.1-3-12.2-5.8-5.8-7.9-7.9-18.9-10-28.2-3.6-15.3-6.2-30.8-8.7-46.2-5.9-36.4-10.7-73-18.5-109.1-3.3-15.1-7-30.2-12.6-44.7-3.8-9.7-8.5-20.3-16.5-27.2-5.3-4.6-13.2-6.9-19.5-2.8-6.4,4.1-8.3,12.8-9.2,19.7-1.5,11.7-.7,23.7.5,35.4,1.6,15,4.2,29.9,7.1,44.6,6.1,30.9,13.9,61.4,21.3,92,2.7,11.1,5.4,22.1,7.4,33.4.6,3.5,1.2,7,1.4,10.6,0,1.2.5,4.2-.6,5.2-3.1,2.6-9.6-10.7-10.3-12.1-6.7-13.8-10.2-29.2-13.4-44.1-7.9-36.8-12.1-74.2-19.4-111.2-2.8-13.9-5.7-28.2-11.3-41.3-2.7-6.3-7.5-16.4-15.6-16.8-8.5-.4-13.1,8.5-14.6,15.6-2.5,12.3-.5,25.5,1.5,37.7,5.2,31,15.1,61,22.1,91.6,1.3,5.5,2.5,11.1,3.1,16.8.4,3.2.9,7.1-.3,10.2-2.7,7.2-12.5-2.4-14.9-5.2-9.3-10.5-14.8-24.6-19.7-37.5-6.8-17.6-12.4-35.7-17.9-53.8-5.6-18.2-10.9-36.5-17-54.5-5-14.8-10.3-29.7-18-43.3-4.4-7.8-10.6-18-20-20.3-5.3-1.3-11.4,1.1-16.2,3.1-4.4,1.8-8.8,4.6-9.1,9.8-.3,5.6,2.7,11.5,4.8,16.5,4.3,10.1,8.4,20.3,11.5,30.9,3.9,13.3,6.3,27,10.4,40.3,4,12.8,8.6,25.3,13.4,37.8,3.7,9.6,7.6,19.2,10.5,29,.7,2.3,4.2,12-.9,11.7-2.9-.2-6-2.9-8.1-4.6-2.3-1.7-4.5-3.6-6.6-5.5-5.6-5.1-11-10.5-16.2-15.9-26.4-27.1-51.6-56.6-82-79.5-9.1-6.8-21.6-16.3-33.8-15.1-9.6.9-15.3,10.9-13.3,19.9,2.6,11.6,13,20.8,21.7,28,12,9.8,25.2,18.1,38.1,26.7,5.8,3.9,11.6,7.7,17.2,12,3.3,2.6,7.6,5.6,9.6,9.4,4.4,8.4-12.5,9.5-16.9,9-14.1-1.8-27.6-9.7-39.7-16.6-15.9-9.1-31.4-19.1-47.2-28.3-14.5-8.4-29.6-16.7-45.9-21.2-12.2-3.4-26.2-4.4-36.8,3.7-8.5,6.5-14.7,18.3-14.3,29.1.3,9,5.4,16.9,11.9,22.9,8.4,7.8,19.1,12.9,29.7,17,13.2,5.2,26.8,9,40.6,12.3,27.5,6.6,55.5,10.8,83.2,16.3,8.7,1.7,17.9,3.2,26.1,6.6,1.2.5,2.4,1,3.5,1.8.3.2.7.6.9.7,0,0,0,0,.1,0,0,1.2-1.3,2.6-2.7,3.6-6.2,4.3-13.8,6.8-20.9,9-9,2.7-18.3,4.8-27.5,6.6-18.7,3.7-37.7,6.1-56.2,10.5-6.3,1.5-13,3.1-18.6,6.4-3.1,1.8-6,4.5-5.3,8.3,1.7,10.4,14.2,12.4,22.6,12.6,16.2.3,32.5-3.4,48.3-6.6,19-3.9,37.9-8.3,57.1-11.2,14-2.1,30.4-4.8,44.1-.1,3.9,1.3,9.1,4,10.2,8.4.9,3.5-1.8,6.4-4.5,8.3-4.2,3-9.3,4.8-14.1,6.4-7.1,2.3-14.4,4-21.7,5.5-17.8,3.8-35.8,6.7-53.6,10.2-17,3.3-34.2,6.9-50.3,13.1-8.9,3.4-20.3,8.1-24.2,17.6-1.9,4.6-1.5,9.8,2.4,13.2,4.9,4.4,13.3,4.1,19.4,3.2,10.8-1.6,21.5-5.2,31.9-8.3,34.4-10.3,68.4-21.6,103.2-30.5,16.3-4.2,32.8-8,49.6-9.9,10.2-1.1,23.1-2.7,32.6,2.2,7.8,4,6,13,1.2,18.9-7.7,9.5-20.1,15.1-30.9,19.9-32,14.3-66.3,23.2-99.5,34.4-13.6,4.6-27.5,9.3-40.2,16.2-6.1,3.4-15.7,8.8-14.9,17.1,1.3,13.1,16.1,13.8,26.2,12.7,18.4-2,36.5-8.6,53.7-15.3,26-10.1,50.9-23,76.8-33.5,17.4-7,34.9-13.7,52.7-19.5,14.7-4.8,30.1-9.9,45.6-11.1,3.6-.3,9.4-.9,12.5,1.5,2.1,1.7.8,4.8-.6,6.7-2.4,3.1-6,5.3-9.4,7.1-5.2,2.8-10.7,5.1-16.2,7.2-32.8,12.4-67.3,20.3-100.9,30.4-16.8,5-33.6,10.3-49.8,17-11.3,4.7-23.9,10-32.5,19-7.7,8-8.2,20.5-1.2,29.2,9.3,11.6,27.4,12.8,41,12.5,7.9-.2,15.8-1.1,23.4-2.9,5.2-1.2,10.6-2.7,15-5.8,9.3-6.3,18.6-12.4,28.2-18.3,34.4-21,71.2-40.7,110.4-50.8,17.3-4.5,36.4-7.4,53.9-2.4,5.4,1.5,18,5.2,13.8,13.1-4,7.5-14.3,12.1-21.5,15.8-12.8,6.5-26.3,11.8-39.7,16.9-28.4,11-57.8,20.3-85,34-7.1,3.6-16.9,8-21,15.3-2.2,4-.4,8.9.9,12.9,1.9,6.2,5.2,12.4,10.5,16.3,5.9,4.3,13.3,4.7,20.3,3.3,12.1-2.5,23.3-9.2,33.4-16.1,12.9-8.7,25.4-17.7,38.7-26,16.9-10.5,34.1-20.5,52-29.3,15.3-7.6,31.8-15.5,48.9-17.9,6.5-.9,24.7-.3,19.2,11-2.2,4.6-7,7.8-11.1,10.5-6.4,4.2-13.2,7.6-20,10.9-16.1,7.9-32.6,15-48,24.2-11.6,6.8-26,16-30.3,29.6-3.4,10.7,1.7,20.7,13.1,22.2,6.8.9,13.9-.3,20.6-1.9,9-2.1,17.8-5.3,26.4-8.9,16.6-7.1,33.3-15.9,47.1-27.7,2.6-2.2,5.1-4.5,7.2-7.1,1.1-1.3,2-3,3.5-3.9,2.2-1.3,4.2-.1,5.6,1.7,2.6,3.3,4.2,7.6,5.7,11.5,2.3,5.8,4.2,11.7,6.1,17.6,4.5,14,8.5,28.2,13.5,42,4.2,11.8,8.8,24.1,16.4,34.2h0c0,0,0,0,0,0ZM313.1,349.8c.3.2,0,.1,0,0h0Z"/>
        <path class="st6" d="M708.6,550.1c0,.8.2,3.3-1.1,2-2.9-3-5.8-5.8-8.8-8.7-25.4-24.4-53.7-45.6-82.9-65.2-30.4-20.3-62-38.7-94.2-56-29-15.5-58.5-30-88.4-43.7-21.6-9.9-43.5-19.4-65.5-28.5-8.5-3.5-17-6.9-25.6-10.2-1.4-.5-2-4-2.3-5.2,0-.5-.8-3.9.5-3.5.1,0,.3.1.4.2,1.1.1,2.4.9,3.4,1.3,2.2.9,4.4,1.7,6.6,2.6,7.2,2.9,14.5,5.8,21.7,8.8,23.3,9.7,46.5,19.9,69.4,30.6,30.6,14.3,60.8,29.4,90.4,45.6,32.2,17.7,63.8,36.6,94,57.6,28.5,19.8,56,41.4,80.3,66.3,1.3,1.3,1.9,4.2,2,5.9h0s0,0,0,0Z"/>
        <g>
          <path class="st0" d="M207.9,715.5c-4.8,12.9-22,58.2,9.6,49.4,13.8-3.9,23.2-19.3,30.2-30.7,11.6-18.7,20.9-38.8,29.6-59-6.3,25.3-12.3,51.8-11.5,77.4.2,7.3,1.2,16.2,9.7,17.7,9.7,1.7,17.1-5.6,21.7-13.2,8.2-13.6,12.2-30,15.9-45.3,2.7-11.5,5-23.1,7-34.7,0,1.4.1,2.8.2,4.2,1.3,19.1,2.8,39,8.8,57.3,2.7,8.4,7.3,20.3,18.1,19.1,8.1-1,9.8-8.6,11-15.5,2.6-13.7,2.7-28,2.9-41.8.8-58.5-3.1-117.4-7.9-175.7,6.2-2.7,12.3-6.8,18-10.2,25.1-14.6,48.8-32,68.5-53.5,29.5-32.2,47.3-72.8,48.1-116.8.8-39.5-11.2-78.2-28.2-113.5-14.4-29.9-32.9-57.9-53.6-83.9-6.3-7.9-12.9-15.6-19.7-23.1-1.4-1.5-4.1-3.5-5-5.3-2-4.3,1.7-14.4,2.3-19.6,4.6-41.8-7.5-84.2-52.3-95.3-20.7-5.1-44.1-4.3-64.8,1.1-.4,0-.8.2-1.2.3-1.4.5-2.1,1-2.3,1.6-.2.3-.4.7-.5,1.1-.5,5-1,10.1-1.5,15.1-2.3,22.3-4.6,44.6-6.9,66.9-1.1,10.5-3.7,17.5-7.6,27.7-7.9,20.5-15.3,41.1-22.2,62-20,60.6-36.4,124-38.6,188.1-2.3,65.9,35.8,127.2,98.5,150.3,6.6,2.4,13.4,4.3,20.2,5.8-13.1,22.8-25.8,45.8-38.2,69-21.3,39.9-42.9,80.5-58.6,123h0s0,0,0,0Z"/>
          <path class="st4" d="M262.4,99.2c-2.5,3.8.3,7.6,2.7,10.6,5.7,7.3,11.7,13.6,16.7,21.5,0,0,.1.1.2.2,0,.1.1.2.2.3,16.4,21,42.7,4.1,52.7-14.1,9.1-16.7,11.3-37.6,9.3-56.3-1.1-10.1-4.5-22.1-16.8-23-6.9-.5-11.5,4.1-14.4,9.9-3.7,7.5-3.7,16-6.5,23.8-2.6,7.4-8.2,13.2-15,17.1-6.2,3.5-13,5-19.9,6.3-3,.6-7.3.7-9.2,3.7h0Z"/>
        </g>
        <path class="st4" d="M375.4,222.5c2.6,13.6,6.3,26.9,11.5,39.7,2.2,5.5,4.6,13.2,11.4,14.6,8.1,1.7,11.6-3.7,12.8-10.6,2.7,4.3,6.2,7.1,10.6,5.7,6.7-2.2,7.7-11.5,7.2-20.1,3.3,4.3,7.2,7.5,12.2,6.7,10.3-1.9,2.9-17.9,1.5-23.8-.6-2.6-7.3-2.1-6.6.9.7,2.9,1.8,6.2,2.1,9.2s1.1,7.9-1.1,7.1c-2.9-.9-8.3-12.1-10.2-15-1-1.5-6.7-1.7-6.4.9,1,6.5,3.9,18.7.4,24.8.1,3.6-.8,4.1-2.9,1.7-1.3-2.3-2.5-4.7-3.6-7.1-1.6-3.6-2.9-7.4-4.1-11.2-.8-2.5-7.2-2.1-6.6.9,1,4.8,3.7,18.8-.6,22.9-5.9,5.7-9-6.8-10.5-10.6-4.8-12.2-8.2-24.8-10.7-37.7-.5-2.5-7.2-2.2-6.6.9h0,0Z"/>
        <path class="st5" d="M15.3,119.2s-23.2,26.9-7.6,56.3l12.1-17.7,246.2-60.8s24.4-34,31.4-87.1c.3-2.5-4.2-3.9-8.8-4.6-4.9-.8-9.8-.8-14.7-.3C241.4,8.6,71.7,30.7,15.4,119.2h0Z"/>
        <path class="st1" d="M8,121.5c-.2.3-17,27.5-1.4,56.7l.3.6,5.3-16.1c.4-1.3,1.5-2.4,2.9-2.7l60.4-14.9c2.9-.7,16.2-37.2,16.7-39.5,2.6-12,1.5-20.7-3.2-25.9-4.2-4.7-11.1-6.5-20.6-5.6-10.4,1.1-20.5,5.4-29,12.5-13,10.8-23.5,22.5-31.4,34.9h0s0,0,0,0Z"/>
        <path class="st8" d="M8.7,164.5l-3.6,18.6,12.5-15.1,256-71.9-29-36.3-.7.2c-.5.2-50.9,15.4-104.8,35.7C66.7,123.1,22.9,146.1,8.9,164.2l-.2.2h0Z"/>
        <path class="st0" d="M220,110.4c-.4.3-.5.9-.2,1.4.2.4.8.7,1.2.6,0,0,0,0,0,0l37.9-10.6c.4-.1.7-.4.8-.8.1-.4,0-.8-.4-1.1l-13.7-12.1c-.2-.2-.6-.3-.9-.3-.3,0-.6.2-.7.4-.9,1-14.9,14-24.1,22.6h0Z"/>
        <path class="st3" d="M243.1,71.1c4.1,77,114.8-9.9,62.1-52.5-50.1-40.4-63.3,31.8-64.5,39.5,0,.4,2.4,12.6,2.4,13h0Z"/>
        <path class="st1" d="M237.3,75.6c2.2,12.3,9.5,21.5,19.4,28.8,1.3.9,7.5.3,5.9-.8-21.7-15.8-22-40.6-14.4-64.6,4.8-15.1,15.1-33.7,33.8-32,5.9.6,12.1,3.1,17,6.3,1.3.9,7.5.2,5.9-.9-15.8-10.4-39-11.1-52,3.9-12.7,14.7-19,40.2-15.6,59.2h0s0,0,0,0Z"/>
        <path class="st2" d="M268.7,48.9c1.7-6.1,8-9.6,14.1-7.9s9.5,8.1,7.7,14.1-8,9.6-14.1,7.9c-6-1.7-9.5-8.1-7.7-14.1Z"/>
        <path d="M280.5,59.6c2-.2,2.5-3.7,2.1-7-.3-3.3-1.6-6.7-3.5-6.5s-2.5,3.7-2.1,7c.3,3.3,1.6,6.7,3.5,6.5Z"/>
        <path class="st6" d="M65.2,570.2h0c-7.4,1.4-17-3.5-16.8-11.9.3-9.2,9.9-14.2,17.8-15.6-4.7.9-1,.2,2.2-.9,1.1-.4,2.2-.9,3.2-1.3-.3.1-3.8,1.9-.6.2,5-2.6,10-5.2,15-7.9,14.5-7.9,29.2-15.3,44.5-21.6,46.3-19.1,97-27.1,146.8-30,84.7-4.9,170,3.9,253.9,15.6,77.5,10.8,154.4,25.8,232,36.1,63.3,8.4,128,13.7,191.2,1.7,7.4-1.4,17,3.5,16.8,11.9-.3,9.3-9.9,14.1-17.8,15.6-72.2,13.7-147,6-219.1-4.3-78.7-11.3-156.9-26.3-235.8-36.5-81.3-10.5-164.3-18.5-246.2-10.7-25.7,2.4-51.4,6.4-76.3,13.4-9.4,2.6-18.6,5.6-27.7,9-4.2,1.6-8.4,3.3-12.6,5-1,.4-2,.8-2.9,1.3.6-.3,3.2-1.4,0,0-1.6.7-3.1,1.5-4.7,2.2-20.6,9.8-40.3,24.6-63,28.7h0Z"/>
        <path class="st4" d="M428.1,468.6c-10.4,9.8-20.9,19.6-31.3,29.4-1,1,4.3,3.2,5.5,2.2,9.8-9.2,19.5-18.4,29.3-27.5,2.9,10.5,8.3,21.1,8.3,31.8,0,2.3,5.9,3.5,5.9.7,0-11-5.6-21.7-8.5-32.5,14.7,10.5,29.4,20.9,44.1,31.4,1.8,1.3,6.9.7,3.6-1.6-16.3-11.6-32.6-23.2-48.8-34.8-.1-.6-.2-1.2-.3-1.8-1.9-15.6-1.7-31.6-2.6-47.3-.1-2.3-6-3.4-5.9-.7.9,15.7.7,31.8,2.6,47.3,0,.4.1.8.2,1.2-8-.1-16.1-.3-24.1-.4-2.2,0-.4,2.3,1.1,2.3,7,.1,13.9.2,20.9.4h0Z"/>
        <path class="st4" d="M272.6,500.4c-1,1,4.3,3.2,5.5,2.2,9.8-9.2,19.5-18.4,29.3-27.5,2.9,10.5,8.3,21.1,8.3,31.8,0,2.3,5.9,3.5,5.9.7,0-11-5.6-21.7-8.5-32.5,14.7,10.5,29.4,20.9,44.1,31.4,1.8,1.3,6.9.7,3.6-1.6-16.3-11.6-32.5-23.2-48.8-34.8-.1-.6-.2-1.2-.3-1.8-1.9-15.6-1.7-31.6-2.6-47.3-.1-2.3-6-3.4-5.9-.7.9,15.7.7,31.8,2.6,47.3,0,.4.1.8.2,1.2-8-.1-16.1-.3-24.1-.4-2.2,0-.4,2.3,1.1,2.3,7,.1,13.9.2,20.9.4-10.4,9.8-20.9,19.6-31.3,29.4h0Z"/>
      </g>
    </g>
  </g>
</svg>