<?xml version="1.0" encoding="UTF-8"?>
<svg id="Layer_2" data-name="Layer 2" xmlns="http://www.w3.org/2000/svg" viewBox="0 0 448.14 614.87">
  <defs>
    <style>
      .cls-1 {
        fill: #001418;
      }

      .cls-2 {
        fill: #030a05;
      }

      .cls-3 {
        fill: #0255ad;
      }

      .cls-4 {
        fill: #ff891e;
      }

      .cls-5 {
        fill: #fff;
      }

      .cls-6 {
        fill: #ff9c1b;
      }

      .cls-7 {
        fill: #f29100;
      }
    </style>
  </defs>
  <g id="Layer_1-2" data-name="Layer 1">
    <g>
      <g>
        <path class="cls-6" d="M239.7,12.24c-3.97-.73-8.02-.88-12.05-.56C200.93,13.75,61.52,27.88,13.36,98.95c0,0-19.67,21.5-7.53,45.93l10.28-14.21,202.92-43.95s20.73-27.26,27.77-70.51c.34-2.06-3.33-3.27-7.09-3.97Z"/>
        <path class="cls-2" d="M74.59,68.32c-3.31-3.91-8.93-5.6-16.69-5.03-8.55.62-16.87,3.94-24.07,9.58-10.86,8.51-19.79,17.87-26.52,27.81-.15.22-14.56,22.08-2.5,46.35l.24.48,4.74-13.04c.4-1.09,1.31-1.89,2.45-2.14l49.78-10.78c2.38-.52,14.16-30.03,14.62-31.93h0c2.36-9.74,1.68-16.9-2.04-21.3Z"/>
      </g>
      <g>
        <path class="cls-7" d="M202.4,55.75l-.6.16c-.42.11-42.03,11.39-86.57,26.75C55.3,103.34,18.89,121.18,7.01,135.68l-.14.17-3.4,15.16,10.59-12.05,211.24-52.83-22.9-30.37Z"/>
        <path class="cls-1" d="M213.63,88.75l-10.9-10.22c-.2-.19-.44-.32-.71-.29-.27.04-.48.14-.63.37-.64.69-12.49,11.11-20.3,17.94-.32.28-.41.75-.21,1.13.19.37.61.56,1.01.48.01,0,.02,0,.03,0l31.31-7.82c.33-.08.59-.34.67-.67.09-.33-.02-.68-.26-.91Z"/>
      </g>
      <g>
        <path class="cls-1" d="M406.62,161.28c-9.66-11.8-32.56-26.03-54.7-39.8-25.11-15.61-51.07-31.75-47.6-39.18,1.15-2.46,1.74-5.25,2.63-9.47.5-2.36,1.06-5.03,1.87-8.31,12.18-49.8-16.81-60.73-17.1-60.83-35.78-11.63-66.94,7.37-75.64,13.47l-.71.57.28.68c.38.94.71.93,8.76-.32,4.66-.72,13.32-2.07,14.46-1.55,3.99,3.79,5.36,7.41,4.09,10.78-2.76,7.28-17.43,12.2-26.74,12.53-1.62.06-3.16.27-3.41,1.43-.33,1.53,1.82,2.65,7.13,5.27,2.82,1.39,8.08,3.98,8.26,5.07.18,1.14.92,2.19,2.21,3.12,1.08.78,1.38,2.27.74,3.62-1.85,3.87-3.62,7.47-5.3,10.88-18.71,37.94-26.45,53.65.65,178.86,20.34,93.97,76.64,119.6,94.84,118.3.9-.06,1.74.31,2.3,1.02.57.73.73,1.65.45,2.52-5.67,17.65-20.1,63.54-31.49,108.46-14.68,57.87-18.62,91.63-11.7,100.35,1.73,2.18,3.73,3.05,5.93,2.59,0,0,.02,0,.03,0,15.27-3.28,36.79-76.96,45.69-109.92-4.06,35.48-11.19,122.08,5.1,138.9,3.39,3.5,6.43,4.99,9.05,4.44.42-.09.84-.23,1.24-.43,16.6-8.08,4.21-115.58.29-146.39,8.65,22.39,35.02,85.8,55.44,83.61,2.25-.24,3.95-1.36,5.06-3.31,8.82-15.52-23.4-85.82-46.93-137.15-10.66-23.25-19.07-41.61-20.6-48.19-.23-1.01-.14-1.97.2-2.09,59.26-21.68,94.23-50.65,103.93-86.12,13.56-49.59-25.79-97.62-38.72-113.41Z"/>
        <path class="cls-5" d="M273.9,40.17c-4.65-1.48-9.28.91-12.31,4.42-7.95,9.22-5.26,23.19-14.19,31.79-5.24,5.04-12.51,7.27-19.54,8.43-3.6.59-7.99.47-10.69,3.4-2.59,2.81-1.88,5.56-.05,8.61,4.1,6.83,10.13,12.53,14.26,19.51,11.28,15.29,30.06,5.47,39.48-6.55,9.82-12.52,12.99-29.63,12.93-45.2-.03-8.23-.1-21.28-9.91-24.4Z"/>
      </g>
      <path class="cls-5" d="M340.82,361.07c-.4-.88-1.95-.62-3.23.06-7.59,2.76-13.19,3.29-15.63,11.37-3.57,11.81-8.29,29.34-.93,40.6,4.61,7.05,11.34,4.49,14.18-2.49.05-.13.09-.27.14-.4,1.3,6.31,3.73,11.2,8.24,10.78,3.78-.35,5.35-3.68,5.77-8.03,1.88,3.08,4.09,5.5,6.68,6.31,5.28,1.66,6.19-3.33,5.33-7.16-3.92-17.53-13.11-34.76-20.54-51.04Z"/>
      <path class="cls-4" d="M252.96,23.44c-40.07-34.27-52.54,24.56-53.7,30.78-.06.35,1.65,10.38,1.66,10.73,1.58,63.09,94.22-5.43,52.04-41.51Z"/>
      <path class="cls-2" d="M252.68,17.26c-13.35-9.42-31.16-8.03-42.18,4.21-10.42,11.57-15.93,31-14.43,46.4,1.06,10.9,6.81,19.2,15.27,25.76,1.01.78,5.53-2.08,4.59-2.81-17.38-13.48-17.29-33.6-10.4-53.22,5.05-14.38,14.8-27.27,31.56-22.63,3.86,1.07,7.73,2.8,11.01,5.11,1.07.76,5.51-2.16,4.59-2.81Z"/>
      <g>
        <path class="cls-3" d="M228.7,59.24c4.94,1.37,10.07-1.56,11.46-6.55s-1.5-10.15-6.44-11.52c-4.94-1.37-10.07,1.56-11.46,6.55-1.39,4.99,1.5,10.15,6.44,11.52Z"/>
        <path d="M229.05,51.13c-.3-2.74.1-5.59,1.7-5.77,1.59-.18,2.61,2.51,2.92,5.25.3,2.74-.1,5.59-1.7,5.77-1.6.18-2.62-2.51-2.92-5.26Z"/>
      </g>
      <path class="cls-5" d="M387.38,186c-.57-1.54-5.91.88-5.25,2.66,4.61,12.37,7.84,25.11,9.03,38.29.36,3.97,2.54,15.74-4.29,7.88-3.33-3.83-5.42-10.82-7.58-15.32-.77-1.6-5.75.92-5.25,2.66,1.22,4.27,2.34,8.56,3.18,12.92.64,3.32,3.63,13.95,1.99,17.21-.93,1.85-1.17-.02-2.25-1.89-1.08-1.85-1.83-4-2.63-5.98-1.83-4.53-3.28-9.15-4.55-13.87-.42-1.55-5.37.85-5.31,2.31.32,7.39.64,14.79.97,22.19.14,3.27,2.56,16,.5,18.41-1.54,1.8-.6.93-1.6-1.8-1.34-3.64-2.02-8.94-2.55-12.58-.94-6.44-1.26-12.89-1.2-19.4.02-1.86-5.35.19-5.37,1.97-.12,13.36,1.84,26.28,5.7,39.06.19.62,1.4.39,1.79.31,5.25-1.07,7.87-4.15,8.59-9.53.75-5.58.67-11.51.3-17.49,2.39,3.66,5.47,5.58,9.42,3.16,3.98-2.43,3.68-7.33,3.38-11.37-.16-2.12-.4-4.24-.7-6.34,3.45,3.76,7.5,5.19,11.75.02,4.25-5.16.95-17.15.06-22.99-1.59-10.45-4.43-20.59-8.12-30.49Z"/>
    </g>
  </g>
</svg>