<?xml version="1.0" encoding="UTF-8"?>
<svg id="Layer_2" data-name="Layer 2" xmlns="http://www.w3.org/2000/svg" viewBox="0 0 517.67 1157.05">
  <defs>
    <style>
      .cls-1 {
        fill: #87c474;
      }

      .cls-2 {
        fill: #992;
      }

      .cls-3 {
        fill: #ff6c5e;
      }

      .cls-4 {
        fill: #ff9721;
      }

      .cls-5 {
        fill: #6172c8;
      }

      .cls-6 {
        fill: #ecf2fc;
      }

      .cls-7 {
        fill: #006d70;
      }

      .cls-8 {
        fill: #ffde4a;
      }

      .cls-9 {
        fill: #00a0fb;
      }

      .cls-10 {
        fill: #59590e;
      }

      .cls-11 {
        fill: #0041b6;
      }
    </style>
  </defs>
  <g id="Layer_1-2" data-name="Layer 1">
    <g>
      <path class="cls-10" d="M183.26,705.79c-17.47,2.6-32.62,12.95-45.42,24.61-14.21,12.95-26.73,27.96-38.42,43.18-12.24,15.94-23.44,32.66-33.89,49.82-10.45,17.17-20.15,34.79-29.44,52.61-9.35,17.93-18.28,36.08-27.16,54.25-1.1,2.24-2.19,4.49-3.29,6.73-.67,1.38-6.25,1.04-5.6-.29,8.99-18.43,17.99-36.85,27.39-55.08,9.34-18.13,19.06-36.07,29.53-53.58,10.46-17.5,21.66-34.57,33.91-50.87,11.83-15.74,24.55-31.12,38.84-44.71,12.87-12.24,27.81-23.08,45.33-27.31,2.17-.53,4.37-.95,6.58-1.28.78-.12,3.13-.35,3.59.55.48.95-1.41,1.28-1.96,1.36h0Z"/>
      <g>
        <path class="cls-2" d="M210.04,617.57c4.94-7.37,10.89-14.51,18.5-19.7,19.7-13.13,40.63-23.33,60.8-35.21,11.95-7.04,23.77-14.51,35.18-22.77,10.2-7.38,19.85-15.51,29.46-23.74,17.95-15.36,35.64-31.04,53.76-46.19,8.02-6.71,16.13-13.33,24.47-19.59,6.19-4.64,12.65-9.33,19.37-12.77,2.12-1.09,4.24-1.98,6.4-2.61,4.58-1.34,8.71-3.19,13.08-5.97,7.43-4.72,14.38-10.9,22.19-14.61,6.59-3.13,13.67-4.14,18.87-2.07,3.28,1.31,6.13,4.22,5.44,8.41-.86,5.28-6.97,10.64-11.06,14.95-5.94,6.27-11.89,12.53-17.72,18.88-17.02,18.52-33.28,37.68-47.79,57.67-9.53,13.13-17.45,26.74-26.58,40-6.82,9.9-14.07,19.64-21.56,29.24-18.95,24.3-39.5,47.89-61.68,69.98-22.18,22.1-46.63,43.6-73.32,59.21-22.13,12.94-46.75,21.37-67.16,17.88-9.17-1.57-17.61-5.38-23.77-11.01-5.5-5.02-10.98-11.44-12.03-19.66-.55-4.29.64-9.18,4.79-13.41,2.74-2.79,5.93-4.36,9.07-6.47,3.83-2.57,7.24-5.84,10.22-9.34,13.46-15.79,19.9-34.47,31.06-51.13Z"/>
        <path class="cls-10" d="M166.61,715.03l218.45-192.66s-157.93,162.13-218.45,192.66Z"/>
      </g>
    </g>
    <g>
      <path class="cls-10" d="M65.35,1022.14c-.21,38.59.1,77.19.91,115.77.1,4.73.21,9.46.32,14.2.04,1.62-2.36,3.43-3.52,4.26-.12.09-.45.31-.85.55-.85.04-1.7.09-2.55.14-.93-38.55-1.36-77.1-1.28-115.66.08-38.77.68-77.55,1.78-116.31,1.1-38.58,2.71-77.14,4.82-115.67,2.02-36.84,4.01-73.78,7.93-110.48,3.71-34.78,9.7-69.57,21.51-102.6,1.45-4.04,2.98-8.05,4.6-12.02.73-1.79,2.63-3.38,4.27-4.31.66-.38,3.12-1.47,2.38.33-13.26,32.64-20.29,67.32-24.55,102.19-4.41,36.09-6.39,72.49-8.49,108.77-2.23,38.53-3.95,77.09-5.17,115.66-1.21,38.39-1.92,76.8-2.12,115.21Z"/>
      <g>
        <path class="cls-2" d="M225.8,490.04c7.35-34.21,11.18-69.09,17.85-103.44,3.94-20.27,8.63-40.42,14.65-60.18,5.14-16.88,11.47-33.37,17.8-49.83,11.89-30.94,24.26-61.69,35.82-92.75,9.21-24.73,19.06-50.01,23.99-76.03.77-4.07,1.41-8.21,1.51-12.36.12-4.93-.73-9.76-.36-14.71,1.09-14.32,6.7-27.75,9.71-41.68,2.52-11.68,2.68-23.79-5.39-33.39-3.38-3.89-8.96-6.69-14.14-5.32-8.82,2.33-12.89,13.43-16.7,20.81-12.61,24.41-25.24,48.79-39.01,72.57-19.24,33.22-40.25,65.6-64.5,95.4-9.72,11.95-19.15,24.02-28.06,36.59-24.5,34.54-46.75,70.74-67.01,107.91-22.86,41.94-43.46,85.52-58.16,131.04-12.19,37.77-22.13,79.93-14.62,119.67,5.3,28.04,22.13,54.18,49.29,65.13,14.44,5.82,34.45,9.01,44.09-6.49,3.11-4.99,4.27-10.57,5.4-16.25,1.48-7.4,4.48-14.41,8.22-20.93,7.92-13.81,18.87-25.68,29.63-37.29,11.27-12.16,22.9-24.14,32.5-37.7,4.6-6.5,8.71-13.38,11.77-20.74,2.68-6.45,4.24-13.22,5.7-20.03Z"/>
        <path class="cls-10" d="M84.92,646.89L248.43,239.44s-151.8,305.61-163.5,407.46Z"/>
      </g>
    </g>
    <path class="cls-10" d="M142.89,559.28c-1.08.64-33.3,31.18-45.89,54.08l-4.08-3.59s36.4-48.93,43.79-56.47l6.18,5.98Z"/>
    <g>
      <path class="cls-11" d="M285.96,439.68c-.97.27-1.95.63-2.85,1.07-2.74,1.34-5.34,3.02-7.94,4.6-4.79,2.9-9.55,5.86-14.32,8.81-6.14,3.81-12.28,7.62-18.43,11.43-6.77,4.19-13.56,8.36-20.36,12.5-6.57,3.99-13.16,7.95-19.8,11.83-5.63,3.29-11.3,6.54-17.05,9.62-3.93,2.1-7.92,4.24-12.09,5.82-1.04.39-2.17.84-3.29.89-1.38.06-2.19-1.02-2.31-2.3-.22-2.27.69-4.68,1.44-6.78,1.07-2.98,2.34-5.88,3.58-8.79,1.19-2.8,2.41-5.61,3.32-8.51.35-1.11.66-2.25.81-3.41.1-.82.15-1.73-.16-2.52-.61-1.57-2.68-1.61-4.04-1.11-1.26.46-2.07,1.79-2.67,2.91-1.12,2.08-1.86,4.36-2.53,6.62-1.88,6.36-3.06,12.94-4.13,19.48-.6,3.68-1.33,7.31-2.34,10.9-.5,1.79-1.06,3.57-1.67,5.34-.4,1.15-.84,2.26-.98,3.48-.19,1.56-.15,3.85,1.17,4.96,1.42,1.19,3.41-.24,4.49-1.21,5.77-5.26,11.88-10.15,18.09-14.88,7.15-5.45,14.46-10.67,21.84-15.79,7.71-5.34,15.51-10.56,23.36-15.7,7.44-4.88,14.91-9.68,22.41-14.46,6.34-4.04,12.69-8.05,19.03-12.07,4.48-2.85,8.97-5.68,13.37-8.65,1.27-.86,2.54-1.72,3.76-2.66.35-.27.7-.55,1.03-.86.12-.11.41-.34.42-.53.02-.42-.95-.08-1.15-.03Z"/>
      <path class="cls-9" d="M273.03,449.77c-.54.17-1.08.6-1.57.88-1.52.86-3.03,1.72-4.53,2.6-2.26,1.32-4.52,2.66-6.77,4-2.85,1.69-5.69,3.39-8.53,5.09-3.28,1.96-6.57,3.92-9.85,5.88-3.57,2.13-7.15,4.25-10.73,6.37-3.71,2.2-7.43,4.39-11.16,6.57-3.72,2.18-7.45,4.34-11.19,6.49-3.57,2.05-7.15,4.08-10.74,6.09-3.24,1.81-6.49,3.6-9.77,5.34-2.79,1.49-5.59,2.94-8.42,4.34-2.18,1.07-4.38,2.11-6.62,3.03-1.4.57-2.86,1.17-4.37,1.42-.54.09-1,.08-1.52-.11-1.15-.43-1.71-1.52-1.94-2.66-.3-1.56-.12-3.21.12-4.77.3-1.99.78-3.94,1.27-5.89,1.01-3.92,2.27-7.82,2.89-11.83.2-1.28.46-2.83.09-4.1-.23-.82-.84-.12-1.06.3-.72,1.37-1.13,2.93-1.57,4.4-.73,2.49-1.36,5-1.95,7.52-.7,3.02-1.34,6.05-1.91,9.1-.62,3.33-1.07,6.68-1.8,9.99-.39,1.8-.84,3.58-1.35,5.35-.5,1.74-1.1,3.45-1.64,5.18-.54,1.72-.75,4.16.28,5.75,1.15,1.76,3.15.44,4.26-.62,3.35-3.23,6.86-6.29,10.44-9.26,4.06-3.36,8.21-6.59,12.43-9.75,4.52-3.39,9.11-6.69,13.74-9.94,4.74-3.32,9.53-6.58,14.35-9.79,4.72-3.14,9.47-6.24,14.24-9.3,4.46-2.86,8.94-5.68,13.43-8.48,3.96-2.46,7.93-4.9,11.91-7.32,3.22-1.95,6.45-3.89,9.68-5.82,2.24-1.33,4.49-2.66,6.74-3.98.99-.58,2.03-1.12,3-1.74.04-.02.08-.04.11-.07.05-.03.11-.05.14-.09.09-.11-.05-.22-.16-.19Z"/>
      <path class="cls-6" d="M193.34,498.62c-.17-.42-.57-.83-1.01-.97-.58-.19-1.26-.02-1.83.13-.98.26-1.92.64-2.85,1.03-2.64,1.12-5.19,2.44-7.74,3.75-2.71,1.4-5.41,2.83-8.15,4.16-1.11.54-2.22,1.07-3.36,1.53-.79.32-1.6.65-2.44.81-.5.09-.9.12-1.15-.38-.34-.68-.29-1.58-.25-2.32.14-2.66.77-5.31,1.33-7.91.57-2.64,1.23-5.28,1.62-7.96.12-.81.26-1.68.15-2.49-.05-.36-.25-.92-.73-.81-.39.09-.6.68-.73.99-.33.77-.55,1.58-.77,2.39-.66,2.45-1.15,4.95-1.61,7.45-.51,2.75-.98,5.5-1.42,8.26-.3,1.89-.59,3.78-.87,5.68-.04.27-.08.55-.12.82-.21,2.32-.28,5.88,2.3,6.98,1.84.78,4.03.05,5.74-.72,1.29-.58,2.56-1.28,3.69-2.12.88-.64,1.7-1.36,2.55-2.04,2.09-1.68,4.19-3.35,6.28-5.03,2.07-1.66,4.15-3.32,6.22-4.98.64-.51,1.27-1.02,1.91-1.53.26-.21.47-.37.67-.53.91-.71,1.84-1.57,2.37-2.61.25-.49.4-1.07.19-1.6Z"/>
      <path class="cls-6" d="M291.39,436.01c-.09-.54-.8-.57-1.21-.54-.54.05-1.17.14-1.64.42-1.2.77-2.4,1.54-3.6,2.32-2.8,1.8-5.6,3.6-8.4,5.4-3.25,2.09-6.49,4.18-9.74,6.27-2.54,1.63-5.08,3.27-7.62,4.9-.65.42-1.29.83-1.94,1.25-.1.07-.21.13-.31.2-.96.65-.94,1.91-.15,2.67.36.34.8.57,1.31.56.45-.01.8-.23,1.17-.46.5-.31,1-.63,1.5-.94,1.29-.81,2.58-1.62,3.86-2.44,3.28-2.09,6.55-4.2,9.79-6.35,3.29-2.18,6.56-4.39,9.75-6.71,1.29-.94,2.57-1.89,3.81-2.89.89-.71,1.77-1.44,2.56-2.27.29-.31.93-.9.85-1.38Z"/>
    </g>
    <g>
      <path class="cls-11" d="M140.19,521.79c.2-2.32.31-4.66.35-6.99.05-3.1-.02-6.21-.21-9.3-.23-3.75-.63-7.48-1.18-11.2-.64-4.35-1.5-8.67-2.56-12.93-1.2-4.84-2.66-9.61-4.36-14.29-1.87-5.16-4.04-10.22-6.46-15.14-2.73-5.53-5.79-10.9-9.14-16.07-3.69-5.69-7.72-11.15-12.05-16.37-1.14-1.38-2.3-2.73-3.48-4.08-.09-.11-.38-.04-.26.11.71.91,1.41,1.84,2.1,2.77,1.82,2.45,3.59,4.92,5.33,7.43,2.45,3.53,4.83,7.11,7.11,10.75,2.62,4.16,5.12,8.4,7.44,12.73,2.35,4.37,4.52,8.85,6.35,13.47,1.62,4.09,3,8.32,3.7,12.68.38,2.34.45,4.7.52,7.07.09,3.13.12,6.26.11,9.39-.02,6.23-.21,12.45-.49,18.68-.23,5.07-.53,10.13-.89,15.19-.19,2.62-.38,5.23-.61,7.84-.01.12-.02.24-.03.36-.01.12.19.21.28.14,2.22-1.81,4.44-3.62,6.66-5.43.31-.25.62-.5.92-.75.04,0,.06-.03.07-.07.11-.52.19-1.04.26-1.56.22-1.47.38-2.95.51-4.43Z"/>
      <path class="cls-5" d="M125.05,450.17c-.03-.38-.28-.81-.44-1.14-.77-1.65-1.69-3.24-2.6-4.82-1.28-2.23-2.62-4.42-3.98-6.6-1.37-2.18-2.77-4.35-4.24-6.46-1.05-1.51-2.12-3.06-3.39-4.41-.23-.24-1.53-1.53-1.73-.61-.04.19-.01.4.02.59.02.12.11.25.17.36.15.27.3.53.45.8.53.9,1.07,1.79,1.61,2.68,1.62,2.66,3.25,5.31,4.9,7.95,1.64,2.63,3.28,5.26,4.93,7.88.55.87,1.1,1.74,1.65,2.6.27.41.53.83.81,1.24.15.21.29.46.49.63.19.17.46.2.6-.02.07-.1.12-.21.21-.3.14-.13.29-.1.44-.18.1-.05.1-.09.09-.19ZM123.89,450.88s0,0,0,0c-.02,0-.04,0,0,0Z"/>
      <path class="cls-6" d="M112.27,428.77c-.45-.63-.92-1.26-1.38-1.89-1.08-1.46-2.18-2.91-3.29-4.35-1.28-1.64-2.58-3.27-3.94-4.85-1.03-1.19-2.08-2.43-3.33-3.39-.4-.31-1.54-1.02-1.73-.1-.02.09-.02.18-.02.27.01.15.23.37.32.48.27.37.55.74.84,1.11.93,1.2,1.87,2.4,2.81,3.59,2.11,2.66,4.23,5.31,6.35,7.96.48.6.97,1.2,1.45,1.8.05.06.19.03.25,0,.53-.19,1.07-.37,1.6-.56.03-.01.1-.05.07-.09Z"/>
    </g>
    <path class="cls-1" d="M102.97,513.04l-.03-.07s.02.03.03.07Z"/>
    <path class="cls-4" d="M296.34,525.6c-1.89-.28-3.77-.04-5.61.42-.37.09-.74.16-1.12.19-1.23.13-2.48.1-3.71.05-4.47-.17-8.93-.73-13.36-1.31-7.19-.94-14.35-2.07-21.5-3.25-10.06-1.67-20.11-3.46-30.14-5.31-6.16-1.13-12.31-2.29-18.46-3.46-5.6-1.07-11.18-2.24-16.86-2.79-8.74-.86-17.61-.51-26.2,1.37-7.12,1.55-14,4.16-20.36,7.73-5.31,2.98-10.24,6.62-14.69,10.77-3.45,3.22-6.62,6.75-9.45,10.54-1.62,2.17-3.15,4.43-4.48,6.8-.17.3-.34.61-.5.92,0,0-.01.02-.01.03,0,0,0,.01,0,.02-.05,3.02.31,6.36,2.43,8.69,1.91,2.1,4.82,2.9,7.54,3.28,4.31.61,8.72.42,13.05.26,5.32-.19,10.45-1.05,15.49-2.78,11.29-3.86,21.33-10.78,30.84-17.83,2.35-1.74,4.49-3.53,7.2-4.64,2.2-.9,4.51-1.52,6.83-2.03,6.17-1.37,12.49-2.01,18.78-2.48,7.52-.57,15.05-.82,22.59-.95,7.73-.14,15.47-.13,23.21-.08,6.68.04,13.36.14,20.03.16,4.51.02,9.04.08,13.54-.22,1.1-.07,2.25-.14,3.32-.44.95-.27,1.94-.65,2.79-1.16.41-.24,1.07-.63,1.1-1.16.07-.97-1.69-1.24-2.33-1.33Z"/>
    <path class="cls-3" d="M289.79,529.32c-2.16-.31-4.33-.61-6.49-.91-5.32-.74-10.65-1.46-15.97-2.16-6.84-.9-13.68-1.76-20.53-2.57-6.59-.78-13.18-1.51-19.79-2.11-6.49-.59-13.05-.65-19.51-1.52-9.45-1.28-18.64-3.84-27.94-5.85-3.63-.79-7.32-1.53-11.04-1.72-3.23-.17-6.25.37-9.24,1.62-7.54,3.15-14.22,9.27-18.36,16.28-1.02,1.73-1.9,3.56-2.54,5.46-.61,1.8-.79,3.67-1.3,5.5-.93,3.35-3.01,6.26-5.44,8.7-3.83,3.86-8.61,6.86-13.54,9.11-.29.13-.58.26-.88.38-.03,0-.04.02-.06.04,0,0,0,0,0,0,0,0,0,0,0,0-.04.05-.03.14.01.2,0,0,0,0,0,0,.03.05.08.08.13.07,9.07,1.8,18.45,1.8,27.47-.3,6.82-1.59,13.36-4.34,19.31-8.04,3.47-2.16,6.79-4.63,9.73-7.48,1.55-1.5,3.18-2.82,5.1-4.04,6.98-4.45,15.21-7.21,23.37-8.43,5.22-.77,10.53-1.04,15.8-1.29,7.13-.34,14.26-.51,21.4-.63,7.4-.12,14.81-.17,22.21-.18,6.08,0,12.15.01,18.23.06,3.15.03,6.31.06,9.46.1.14,0,.29,0,.43,0,.19,0,.14-.3-.02-.32Z"/>
    <path class="cls-8" d="M170.26,542.35c-.3-1.37-1.34-2.41-2.47-3.16-1.38-.92-2.97-1.51-4.56-1.98-1.59-.47-3.23-.8-4.87-1.06-1.09-.17-2.18-.31-3.28-.4-.15-.01-.29-.02-.44-.03-.02,0-.04-.02-.05-.02-.06-.03-.12-.06-.18-.08-.17-.08-.34-.15-.51-.22-.52-.21-1.06-.37-1.6-.49-1.65-.35-3.36-.26-4.95.31-2.42.88-4.31,2.78-5.72,4.89-1.07,1.6-1.83,3.33-2.58,5.1-.62,1.47-1.42,2.86-2.37,4.13-1.73,2.31-3.94,4.21-6.4,5.7-2.11,1.27-4.4,2.24-6.76,2.98-1.64.51-3.32.9-5.01,1.2-.4.07-.81.13-1.2.22-.22.05-.47.27-.13.39.27.09.58.11.85.15.57.1,1.14.18,1.72.26,1.88.27,3.78.46,5.68.58,2.65.18,5.3.23,7.95.16,3.13-.09,6.26-.36,9.35-.86,3.33-.54,6.63-1.34,9.81-2.47,3.32-1.18,6.52-2.72,9.46-4.66,1.47-.97,2.88-2.04,4.19-3.22.98-.88,1.92-1.82,2.69-2.88.94-1.29,1.74-2.91,1.38-4.55ZM117.29,559.75c0,.05-.03-.02,0,0h0Z"/>
    <path class="cls-5" d="M253.1,528.48c-.79-.81-2.16-.96-3.21-1.08-.86-.1-1.73-.21-2.59-.33-3.76-.5-7.52-1.02-11.28-1.55-5.3-.75-10.61-1.52-15.9-2.31-5.43-.81-10.85-1.65-16.27-2.54-4.19-.69-8.39-1.39-12.55-2.28-1.95-.41-3.87-.92-5.81-1.37-2.81-.65-5.65-1.21-8.51-1.58-5.87-.77-12.08-.81-17.69,1.36-5.3,2.05-10.48,6.48-11.62,12.28-1.01,5.12,1.08,10.35,3.7,14.66,1.95,3.21,4.32,6.2,6.97,8.86.14.14.29.29.44.43.64.67,1.62.56,2.43.32,1.44-.42,2.78-1.24,4.04-2.03,4.06-2.55,7.85-5.54,11.77-8.3,2.31-1.63,4.66-3.22,7.07-4.7,1.75-1.07,3.52-2.17,5.41-2.98,2.56-1.1,5.31-1.76,8.03-2.32,3.49-.71,7.02-1.21,10.55-1.61,3.91-.45,7.84-.77,11.77-1.03,3.88-.26,7.76-.44,11.65-.58,3.45-.12,6.89-.21,10.34-.26,2.56-.04,5.12-.06,7.68-.06,1.23,0,2.48.06,3.71.02.05,0,.11,0,.16,0,.03,0,.06-.03.07-.06.09-.35-.12-.72-.36-.96Z"/>
    <path class="cls-7" d="M264.8,529.41c-1.33-.22-2.66-.41-3.99-.6-3.53-.51-7.07-.97-10.61-1.39-5.08-.6-10.18-1.13-15.27-1.57-6.02-.52-12.05-.92-18.08-1.16-6.31-.25-12.63-.34-18.95-.15-5.94.18-11.89.59-17.78,1.45-5.08.75-10.18,1.81-14.98,3.68-1.99.78-3.94,1.7-5.74,2.85-2.83,1.81-5.33,4.16-7.7,6.54-5.68,5.7-10.56,12.14-16.13,17.94-1,1.04-2.02,2.06-3.14,2.97-.25.21-.5.4-.77.6-.1.08-.37.19-.42.32-.08.17.03.25.18.35.62.4,1.68.31,2.38.32,1.42.03,2.85-.02,4.27-.08,1.02-.05,2.05-.1,3.07-.2,5.41-.55,10.64-2.6,15.53-4.88,6.69-3.12,13.02-6.99,19.1-11.16,1.91-1.31,3.75-2.72,5.79-3.84,1.59-.87,3.24-1.62,4.92-2.29,3.86-1.54,7.88-2.68,11.92-3.63,9.3-2.19,18.82-3.41,28.33-4.28,8.47-.78,16.97-1.24,25.48-1.47,2.84-.08,5.69-.13,8.54-.15.9,0,1.8,0,2.7,0,.45,0,.94.06,1.39,0,.06,0,.12,0,.18,0,.11,0-.16-.17-.2-.18Z"/>
    <g>
      <g>
        <path class="cls-4" d="M158.08,453.55c.01-8.9-1.06-17.8-3.19-26.44-1.2-4.88-2.74-9.69-4.57-14.37-1.88-4.78-4.08-9.44-6.16-14.13-2.98-6.75-5.92-13.51-8.74-20.33-1.53-3.7-3.04-7.42-4.42-11.18-.58-1.58-1.17-3.18-1.57-4.82-.05-.21-.09-.91-.15-1.04,0-.02,0-.05,0-.07.01-.14-.17-.15-.25-.1-.12.07-.13.24-.11.41-.54,5.22-1.08,10.44-1.62,15.66-.08.75-.15,1.5-.23,2.25-.73,4.36-1.1,8.8-1.37,13.21-.61,9.88-.45,19.85.9,29.66.76,5.52,1.91,11.01,3.62,16.32.85,2.63,1.84,5.21,3,7.72,1.24,2.68,2.79,5.16,4.21,7.74,6.08,10.98,8.61,23.6,8.26,36.09-.18,6.53-1.05,13.14-2.9,19.41-.03.09-.06.18-.09.27-.06.19.23.21.31.08.86-1.33,1.62-2.74,2.35-4.14,1.96-3.74,3.67-7.62,5.16-11.57,2.19-5.79,3.92-11.76,5.18-17.82,1.55-7.49,2.35-15.13,2.37-22.78Z"/>
        <path class="cls-8" d="M151.19,468.81c.19-6.35-.18-12.71-1.14-18.99-.53-3.44-1.23-6.85-2.11-10.22-.88-3.35-1.93-6.65-2.91-9.97-1.4-4.76-2.79-9.53-4.1-14.31-.72-2.62-1.42-5.25-2.05-7.89-.26-1.11-.53-2.24-.7-3.37-.02-.16.01-.64-.05-.76,0,0,0-.01,0-.02.02-.14-.25-.04-.3,0-.07.05-.07.17-.06.28-.39,3.75-.79,7.49-1.18,11.24-.06.54-.11,1.09-.17,1.63-.47,3.09-.75,6.22-.99,9.34-.53,6.94-.67,13.93-.22,20.88.25,3.86.7,7.72,1.44,11.52.73,3.69,1.82,7.22,3.22,10.71,3.33,8.3,4.32,17.42,3.91,26.3-.22,4.8-.78,9.67-1.95,14.35-.02.07-.03.14-.05.21-.03.13.28.06.32-.02.48-.98.9-2,1.31-3.01,1.12-2.75,2.08-5.56,2.94-8.4,1.28-4.25,2.32-8.58,3.1-12.95.98-5.46,1.56-10.99,1.72-16.53Z"/>
      </g>
      <path class="cls-4" d="M152.49,465.62c-1.02-4.32-3.03-8.33-5.81-11.79-2.78-3.47-6.21-6.35-9.87-8.85-4.37-2.99-7.36-7.5-9.74-12.15-2.61-5.11-4.54-10.55-6.14-16.05-1.42-4.86-2.57-9.8-3.52-14.77-.52-2.71-.98-5.43-1.35-8.16-.02-.13-.03-.25-.05-.38,0-.07-.23-.22-.22-.25-.82,3.88-.48,8.02-.02,11.92.66,5.48,1.83,10.89,3.22,16.23,1.54,5.88,3.38,11.69,5.48,17.39,1.96,5.31,4.16,10.56,6.73,15.61,1.09,2.14,2.25,4.24,3.53,6.27.3.47.61.93.93,1.38.49.73.98,1.42,1.47,2.06,0,0,.01.02.02.03.34.49.66.98.95,1.5,2.06,3.6,2.85,7.86,3.24,11.94.46,4.94.29,9.93-.13,14.87-.43,4.94-1.13,9.86-2.01,14.74-.72,3.97-1.55,7.93-2.48,11.85-.49,2.04-.99,4.07-1.56,6.09-.02.09-.05.18-.08.27,0,.01,0,.03.01.05,0,.01.01.02.02.03.06.08.19.17.19.18,1.55-3.15,3.1-6.31,4.64-9.47,1.88-3.84,3.84-7.66,5.55-11.59,3.13-7.21,5.84-14.72,7.14-22.5.91-5.42,1.11-11.06-.16-16.44ZM134.42,443.13c.64.57,1.3,1.1,1.98,1.61-.68-.48-1.34-1.02-1.98-1.61Z"/>
    </g>
    <g>
      <path class="cls-8" d="M136.79,518.91c.06-.72.11-1.45.15-2.17.05-.96.08-1.92.09-2.88.02-1.17,0-2.33-.02-3.5-.04-1.35-.1-2.69-.2-4.03-.11-1.49-.26-2.97-.44-4.45-.2-1.6-.45-3.2-.75-4.78-.32-1.69-.69-3.36-1.12-5.03-.45-1.75-.97-3.48-1.55-5.18-.61-1.78-1.29-3.53-2.05-5.24-.79-1.78-1.66-3.51-2.61-5.21-.99-1.75-2.07-3.45-3.24-5.09-1.21-1.69-2.52-3.32-3.91-4.87-1.46-1.62-3.02-3.15-4.67-4.57-1.73-1.5-3.56-2.89-5.47-4.16-2.04-1.36-4.17-2.59-6.36-3.69-2.37-1.18-4.81-2.22-7.31-3.11-2.72-.97-5.5-1.78-8.31-2.43-3.09-.72-6.23-1.27-9.38-1.66-1.61-.2-3.23-.37-4.85-.5-.01,0-.02,0-.03,0-.08,0-.12.06-.11.13,0,.08.04.17.13.19.52.12,1.03.26,1.53.41,1.4.4,2.79.86,4.16,1.35,2.09.75,4.16,1.58,6.19,2.49,2.6,1.16,5.15,2.44,7.63,3.83,2.91,1.63,5.74,3.41,8.45,5.35,3.03,2.16,5.93,4.52,8.65,7.06,2.97,2.77,5.74,5.77,8.25,8.97,2.74,3.48,5.17,7.2,7.26,11.11,2.29,4.27,4.16,8.75,5.61,13.37,1.63,5.16,2.74,10.49,3.38,15.86.17,1.42.31,2.84.42,4.26.01.17.27.22.29.03.02-.16.04-.32.06-.48.05-.46.1-.91.13-1.37Z"/>
      <path class="cls-4" d="M136.23,519.35c0-.06.01-.11.01-.17.09-1.07.15-2.15.19-3.23.04-1.25.05-2.49.03-3.74-.03-1.4-.09-2.8-.2-4.2-.12-1.52-.28-3.03-.5-4.54-.23-1.63-.53-3.25-.88-4.85-.37-1.7-.81-3.38-1.32-5.04-.54-1.76-1.16-3.5-1.85-5.21-.73-1.79-1.54-3.54-2.43-5.24-.94-1.8-1.97-3.54-3.09-5.24-1.18-1.78-2.45-3.49-3.81-5.13-1.45-1.75-3-3.41-4.63-4.99-1.75-1.7-3.6-3.29-5.53-4.78-2.07-1.6-4.23-3.08-6.46-4.45-2.42-1.49-4.92-2.84-7.48-4.07-2.79-1.34-5.64-2.54-8.54-3.61-3.19-1.18-6.45-2.2-9.73-3.09-1.69-.46-3.4-.88-5.11-1.27-.08-.02-.46-.09-.48.03-.02.08.18.19.22.22.56.42,1.19.76,1.78,1.13,2.52,1.53,5.05,3.07,7.51,4.69,3.38,2.22,6.68,4.58,9.79,7.17,3.11,2.59,6.1,5.42,8.49,8.71,1.07,1.47,2.01,3.04,2.69,4.73.31.77.56,1.57.73,2.38.15.71.24,1.42.45,2.11.88,3.04,2.82,5.7,4.86,8.07,2.5,2.9,5.32,5.51,8.1,8.13,2.96,2.77,5.93,5.55,8.63,8.57,2.55,2.85,4.91,5.95,6.47,9.47,1.04,2.35,1.66,4.85,1.75,7.4-.04.46-.08.91-.13,1.36-.08.77-.17,1.54-.29,2.3-.08.54-.16,1.07-.26,1.6-.05.27-.15.56-.16.83,0,.03-.02.07-.02.1,0,.03.32.06.34,0,.62-2,.91-4.07.85-6.13Z"/>
    </g>
    <g>
      <path class="cls-4" d="M142.24,521.58c-.12-1.44-.49-2.87-.91-4.25-.97-3.22-2.48-6.29-4.53-8.97-2.75-3.59-6.44-6.35-10.64-8.04-2.72-1.09-5.53-1.66-8.42-2.07-2.39-.34-4.75-.9-7.02-1.73-3.86-1.4-7.34-3.53-10.76-5.77-3.21-2.11-6.43-4.25-10-5.7-4.33-1.75-8.99-2.37-13.64-2.16-4.73.22-9.26,1.29-13.84,2.4-2.8.68-5.59,1.35-8.39,2.03-4.16,1-8.31,2.01-12.47,3.01-3.19.77-6.38,1.54-9.58,2.31-.38.09-.75.18-1.13.27-.1.02-.31.03-.4.1-.25.18-.25.84-.24,1.11.01.78.41,1.47,1.08,1.88,1.33.82,2.96.54,4.4.3,2.05-.34,4.09-.82,6.12-1.27,4.9-1.1,9.84-2.33,14.86-2.79,1.69-.15,3.6-.33,5.24.24,1.48.51,2.81,1.55,4.07,2.45,4.29,3.07,8.41,6.36,12.86,9.19,4.89,3.11,10.25,5.93,16.03,6.89,5,.84,10.13-.21,15.07-1,4.65-.75,9.47-1.61,14.18-1.01,2.13.27,4.22.88,6.07,1.99,2.03,1.22,3.65,2.97,4.88,4.98,1.6,2.61,2.56,5.57,3.24,8.54.02.09.18.19.26.12,1.18-.99,2.37-1.97,3.55-2.96.03-.01.06-.04.05-.1Z"/>
      <path class="cls-8" d="M79.74,496.15c-.62-1.14-1.92-1.79-3.09-2.24-1.65-.63-3.42-.96-5.16-1.21-3.29-.47-6.61-.52-9.91-.82-2.74-.25-5.52.2-8.22.58-3.98.56-7.94,1.24-11.89,1.96-2.62.48-5.24.97-7.86,1.49-.12.02-.24.05-.37.07-.05,0-.12.04-.17.08-.05.03-.09.06-.09.07,0,0,0,0,0,0,3.31.93,6.73,1.41,10.16,1.6,2.09.12,4.2.03,6.29.17,5.45.37,10.89,1.05,16.22,2.26,1.66.38,3.32.81,4.96,1.27,1.11.31,2.23.64,3.36.88,1.41.3,2.88.39,4.02-.64.63-.56,1.06-1.33,1.44-2.07.56-1.09.95-2.32.32-3.47Z"/>
    </g>
    <path class="cls-2" d="M42.36,583.78c.86-2.41,1.45-4.01,1.4-4.67-.14-1.67-.97.31-1.4,4.67Z"/>
  </g>
</svg>