<?xml version="1.0" encoding="UTF-8"?>
<svg id="Layer_2" data-name="Layer 2" xmlns="http://www.w3.org/2000/svg" viewBox="0 0 994.68 1006.17">
  <defs>
    <style>
      .cls-1 {
        fill: #001418;
      }

      .cls-2 {
        fill: #030a05;
      }

      .cls-3 {
        fill: #589ca9;
      }

      .cls-4 {
        fill: #0255ad;
      }

      .cls-5 {
        fill: #ff891e;
      }

      .cls-6 {
        fill: #fff;
      }

      .cls-7 {
        fill: #ff9c1b;
      }

      .cls-8 {
        fill: #784433;
      }

      .cls-9 {
        fill: #59590e;
      }

      .cls-10 {
        fill: #f29100;
      }
    </style>
  </defs>
  <g id="Layer_1-2" data-name="Layer 1">
    <g>
      <path class="cls-9" d="M294.98,823.89c.62,2.72,1.08,5.69,1.11,8.53.02,1.84-.02,8.19-2.74,4.68-2.6-3.36-5.2-6.72-7.8-10.08-7.01-9.06-14.03-18.12-21.04-27.17-10.44-13.48-20.88-26.97-31.32-40.45-12.65-16.34-25.3-32.67-37.95-49.01-13.95-18.02-27.9-36.03-41.85-54.05-13.98-18.06-27.97-36.12-41.95-54.19-13.13-16.96-26.26-33.91-39.39-50.87-11.02-14.23-22.04-28.47-33.06-42.7-7.98-10.31-15.96-20.61-23.94-30.92-3.75-4.85-7.63-9.61-11.27-14.55-.16-.22-.33-.42-.49-.64-1.18-1.53-1.78-4.52-2.19-6.32-.62-2.72-1.08-5.69-1.11-8.53-.02-1.84.02-8.19,2.74-4.68,2.6,3.36,5.2,6.72,7.8,10.08,7.01,9.06,14.03,18.12,21.04,27.17,10.44,13.48,20.88,26.97,31.32,40.45,12.65,16.34,25.3,32.67,37.95,49.01,13.95,18.02,27.9,36.03,41.85,54.05,13.98,18.06,27.97,36.12,41.95,54.19,13.13,16.96,26.26,33.91,39.39,50.87,11.02,14.23,22.04,28.47,33.06,42.7,7.98,10.31,15.96,20.61,23.94,30.92,3.75,4.85,7.63,9.61,11.27,14.55.16.22.33.42.49.64,1.18,1.53,1.78,4.52,2.19,6.32Z"/>
      <path class="cls-3" d="M583.41,803.19c-4.33-3.82-11.86-3.21-17.43-2.55-9.78,1.14-19.47,3.9-28.96,6.76-11.6,3.49-23.09,7.43-34.6,11.26-11.42,3.8-22.86,7.58-34.48,10.59-8.51,2.2-17.8,4.58-26.47,3.79-2.25-.21-10.66-1.58-7.71-5.53,1.27-1.7,3.5-2.85,5.33-3.83,3.21-1.73,6.57-3.15,9.93-4.52,18.57-7.6,37.75-13.51,55.94-22.15,7.14-3.39,14.78-7.19,20.46-12.85,3.3-3.28,6.5-8.78,3.42-12.86-2.9-3.85-9.84-2.59-14.09-1.65-8.81,1.93-17.37,5.65-25.66,9.31-22,9.72-43.26,21.18-65.4,30.57-8.97,3.81-18.32,7.65-27.87,9.29-.96.16-10.2,1.72-9.83-.75.13-.9,1.86-1.78,2.53-2.18,1.95-1.19,4.03-2.17,6.1-3.12,6.62-3.04,13.4-5.69,20.16-8.37,18.68-7.39,37.45-14.55,55.86-22.67,8.81-3.89,17.56-7.97,26.03-12.6,6.61-3.61,13.26-7.53,18.95-12.52,3.39-2.98,7.34-7.07,7.39-11.71.05-4.6-3.8-7.68-8.01-8.66-6.36-1.48-13.55,0-19.94,1.65-9.51,2.45-18.79,6.07-27.89,9.91-21.73,9.16-42.77,19.99-64.04,30.24-9.04,4.35-18.11,8.68-27.4,12.42-5.65,2.27-12.22,5.22-18.31,5.22-2.21,0-8.64-.23-7.15-3.91.63-1.56,2.16-2.89,3.4-4,2.12-1.89,4.46-3.56,6.79-5.19,14.34-10,29.56-18.64,43.87-28.71,7.53-5.29,14.81-10.64,22.97-14.92,6.6-3.46,13.45-6.33,20.31-9.18,4.63-1.92,9.55-3.77,13.7-6.68,2.82-1.98,5.07-4.64,5.07-8.08,0-3.48-1.83-7.87-4.25-10.25-1.54-1.53-3.72-2.18-5.93-2.37-6.42-.55-13.26,2.04-19.23,4.54-18.4,7.73-35.47,19.01-52.41,29.57-7.54,4.7-15.07,9.48-22.84,13.78-2.67,1.48-5.39,2.94-8.22,4.07-1.13.45-3.23,1.41-4.1.91-1.2-.7-.59-2.55-.21-3.64,1.21-3.45,3.71-6.54,6.14-9.3,7.31-8.31,16.15-15.38,24.67-22.44,9.2-7.63,18.57-15.15,27.13-23.49,5.72-5.57,13.15-12.72,14.59-20.73.87-4.82-1.67-9.76-7.08-9.27-6,.55-11.58,5.61-15.93,9.45-7.9,6.96-15.05,14.77-22.14,22.5-8.24,9-16.34,18.12-24.69,27.02-7.63,8.14-15.45,16.26-24.11,23.36-3.32,2.72-6.79,5.33-10.54,7.43-2.58,1.44-5.63,2.96-8.58,3.09-8.49.39,6.65-19.51,8.08-21.47,10.24-14.07,21.39-27.58,30.56-42.33,3.69-5.94,7.36-12.28,9.11-18.98,1.16-4.47,1.28-9.6-2.43-12.63-1.96-1.6-4.51-2.37-7.05-2.78-2.82-.45-6.18-.84-9.04.1-5.79,1.91-9.87,8.41-12.9,13.21-10.3,16.35-17.04,34.61-24.66,52.1-2.46,5.64-4.73,12.08-8.55,17.08-.07.09-.64.65-1.05,1.05-.11-.14-.23-.29-.27-.35-1.05-1.95-.83-4.95-.86-7.12-.23-17.27,1.75-34.5,2.68-51.78.3-5.5.46-11.1-.54-16.45-.56-2.98-1.4-6.61-3.61-8.8-2.76-2.75-7.35-2.35-10.85-.61-5.68,2.82-9.56,8.65-12.2,14.08-4.8,9.86-6.63,20.83-7.22,31.39-.95,17.14,1.5,34.13,5.26,50.52.99,6.21-.14,13.45-3.21,19.23-2.92,5.53-7.83,9.66-13.69,11.95-3.92,1.53-8.13,2.35-12.19,3.27-4.47,1.02-8.97,1.93-13.46,2.84-16.7,3.37-34.79,6.2-49.88,15.17-6.41,3.81-12.01,8.98-15.51,15.52-2.33,4.36-4.62,10.09-3.91,14.96.8,5.46,6.34,6.88,11.33,6.97,7.86.13,15.94-2.04,23.58-4.22,9-2.56,17.87-5.65,26.79-8.5,3.76-1.2,7.53-2.38,11.34-3.35,2.56-.65,5.37-1.42,7.99-1.3,1.45.07,2.74.59,2.76,2.18.01,1.07-.56,2.15-.89,3.17-.64,2.01-1.05,4.08-1.35,6.15-1.62,11.09-.76,22.54,1.03,33.33.92,5.54,2.17,11.04,4.06,16.29,1.38,3.85,3.09,7.81,5.84,10.87,4.6,5.13,11.61,4.05,16.16-1.52,5.78-7.06,5.82-17.49,5.59-25.71-.3-10.94-2.01-21.69-3.19-32.5-.5-4.58-.97-9.2-.89-13.85.05-3,.16-6.58,1.86-9.31,4.2-6.77,10.56,2.02,12.24,5.56,4.41,9.33,5.72,20.37,6.82,30.69,1.27,12.01,1.75,24.15,1.81,36.3.05,9.52-.53,19-.87,28.52-.27,7.47-.14,15.46,2.59,22.34,1.57,3.96,4.24,7.5,8.51,8.84,3.85,1.21,8.21.58,12.13-.7,2.54-.83,5.75-1.67,7.13-4.21,2.52-4.65,1.58-11.11,1.11-15.9-1.81-18.44-6.63-36.39-10.28-54.41-1.72-8.5-3.4-17.06-4.24-25.75-.47-4.86-1.48-11.66,1.18-16.35,2.8-4.94,8.97.01,11.57,2.12,8.47,6.86,13.28,17.4,16.67,27.57,7.69,23.05,9.53,48.41,9.85,73,.09,6.85-.04,13.7-.3,20.57-.13,3.31.86,6.51,1.96,9.52,1.61,4.44,3.75,8.68,6.27,12.65,4.36,6.88,11.05,15.4,20.27,15.82,6.95.32,13.43-4.49,15.1-11.17,1.88-7.52.51-15.67-.78-22.95-1.86-10.45-4.66-20.67-7.59-30.8-5.87-20.26-13.18-40.19-17.52-60.94-.73-3.49-1.37-7.03-1.59-10.62-.14-2.34-.23-4.95.65-7.24.51-1.33,1.75-3.15,3.33-2.69,2.31.66,3.92,3.76,4.96,5.64,4.51,8.12,6.95,17.59,9.29,26.6,2.84,10.92,5.16,22,7.21,33.13,3.06,16.62,4.53,33.58,7.83,50.14,2.18,10.93,4.7,22.26,9.78,32.12,2.8,5.43,8.11,12.48,15.49,8.37,4.67-2.6,4.33-9.3,4.07-13.56-.55-8.77-2.69-17.35-4.78-25.76-5.1-20.48-11.8-40.66-14.91-61.69-1.05-7.11-2.19-15.31.26-22.52,1.53-4.5,5.66-8.62,10.41-6.19,5.77,2.95,9.26,9.91,12.04,15.37,4.57,8.98,8.04,18.55,11.26,28.13,6.87,20.43,12.23,41.39,18.21,62.13,1.82,6.31,3.49,12.87,6.24,18.81,1.56,3.37,4.22,7.57,8.18,8.44,3.16.7,5.99-.99,7.82-3.59,3.77-5.35,2.41-12.67,1.27-18.32-2.08-10.26-5.93-20.06-9.81-29.67-4.09-10.11-8.53-20.06-12.44-30.24-1.6-4.18-3.14-8.4-4.3-12.74-.79-2.97-1.54-6.14-1.34-9.3.13-1.98.76-4.35,2.9-5.2,2.69-1.07,5.85.57,7.84,2.02,7.06,5.14,11.11,14.21,14.64,21.9,4.84,10.56,8.8,21.53,13.08,32.34,3.55,8.97,7.07,18.36,12.61,26.28,2.89,4.13,8.17,9.58,14.21,6.66,2.25-1.09,2.7-3.5,2.64-5.66-.11-3.97-1.48-7.86-2.78-11.51-3.83-10.79-8.86-21.07-13.16-31.65-2.13-5.24-4.15-10.55-5.7-16.01-1.23-4.31-2.43-8.99-2.19-13.61.05-1.05.38-2.18,1.01-2.65.02,0,.04.01.07.02.13.05.46.12.66.2.74.26,1.44.67,2.1,1.08,4.56,2.83,8.42,6.83,12.22,10.52,12.13,11.77,23.68,24.11,36.35,35.34,6.33,5.61,12.91,11.01,20.06,15.64,5.73,3.71,12.01,7.16,18.92,8.54,5.3,1.05,11.2.74,16.08-2.37,5.86-3.73,10.02-11.06,10.65-17.61.78-8.17-4.43-14.76-10.27-19.56-7.81-6.42-17.25-10.91-26.55-15.07-10.17-4.55-20.6-8.56-30.74-13.17-7.73-3.51-16.37-7.32-22.03-13.66-1.77-1.98-6.82-10.78-.89-11.62,2.7-.38,5.72.66,8.19,1.37,4.1,1.19,8.1,2.68,12.07,4.17,8.85,3.31,17.65,6.84,26.87,9.23,6.72,1.74,15.08,3.57,22.07.64,5.44-2.28,8.85-8.71,6.12-13.8-3.45-6.44-12.63-9.23-19.29-11.27-22.23-6.82-46.25-8.6-69.44-11.88-4.64-.66-9.29-1.34-13.86-2.29-1.73-.36-3.46-.76-5.14-1.27-1.57-.47-4.06-1.04-5.12-2.37-1.9-2.39,4.44-4.17,5.89-4.67,6.2-2.12,12.6-3.61,18.91-5.27,8.21-2.16,16.4-4.39,24.49-7.04,8.42-2.76,16.48-6.52,24.85-9.41,6.64-2.29,13.4-3.9,20.19-5.46,3.37-.77,7.47-1.41,10.34-3.6,2.67-2.03,2.69-5.2,2.19-8.05-.55-3.13-1.27-7.01-3.74-9.19ZM491.16,905.07c-.08.01-.2-.07,0,0h0Z"/>
      <path class="cls-9" d="M490.25,886.29c-.69.31-2.77,1.27-3.51.76-4.59-3.11-9.28-6.09-13.98-9.05-12.11-7.64-24.42-15.01-36.88-22.13-17.19-9.82-34.69-19.17-52.54-27.91-19.91-9.74-40.25-18.74-61.18-26.47-20.07-7.4-40.74-13.73-62.09-17.49-2.51-.44-5.04-.84-7.58-1.2-1.15-.16.27-1.02.7-1.25.99-.54,2.68-1.29,3.82-1.12,21.24,3.04,41.83,8.8,61.79,15.75,21.15,7.36,41.69,16.14,61.76,25.69,18.52,8.81,36.66,18.32,54.47,28.33,13.32,7.49,26.47,15.27,39.41,23.35,3.97,2.48,7.93,4.99,11.85,7.54,1.18.77,2.36,1.54,3.54,2.32.55.36,1.43.73,1.85,1.23.05.06.16.11.23.16.69.47-1.37,1.37-1.66,1.5Z"/>
      <path class="cls-9" d="M344.43,765.64c7.6-10.05,12.21-22.4,16.4-34.15,4.95-13.87,9.04-28.02,13.5-42.05,1.88-5.91,3.8-11.81,6.06-17.58,1.52-3.88,3.1-8.18,5.74-11.46,1.46-1.81,3.41-3.03,5.62-1.68,1.5.92,2.44,2.59,3.55,3.9,2.18,2.58,4.67,4.91,7.24,7.09,13.83,11.75,30.49,20.6,47.11,27.67,8.54,3.63,17.34,6.8,26.39,8.93,6.64,1.56,13.73,2.79,20.56,1.91,11.45-1.48,16.56-11.49,13.15-22.22-4.33-13.62-18.73-22.75-30.33-29.6-15.44-9.13-31.93-16.27-48.01-24.15-6.82-3.34-13.65-6.76-20.02-10.91-4.1-2.67-8.96-5.94-11.14-10.51-5.42-11.32,12.76-11.9,19.25-10.98,17.08,2.42,33.61,10.33,48.92,17.89,17.83,8.8,35.09,18.76,51.97,29.26,13.22,8.22,25.8,17.21,38.66,25.95,10.09,6.85,21.27,13.64,33.38,16.09,6.96,1.41,14.38,1.05,20.27-3.3,5.31-3.93,8.56-10.11,10.48-16.3,1.25-4.01,3.11-8.9.9-12.88-4.05-7.3-13.88-11.72-20.96-15.28-27.24-13.7-56.64-23.08-85.03-34.05-13.39-5.17-26.83-10.45-39.66-16.92-7.18-3.62-17.53-8.23-21.52-15.75-4.2-7.92,8.48-11.59,13.85-13.12,17.49-4.98,36.63-2.03,53.89,2.43,39.17,10.12,76.01,29.81,110.36,50.78,9.57,5.84,18.93,11.97,28.19,18.28,4.46,3.04,9.83,4.55,15.04,5.75,7.67,1.77,15.56,2.7,23.42,2.9,13.63.35,31.74-.89,41.03-12.45,7-8.71,6.46-21.28-1.22-29.25-8.64-8.97-21.21-14.3-32.51-18.96-16.22-6.69-33.01-11.97-49.8-16.99-33.58-10.04-68.09-17.93-100.9-30.37-5.52-2.09-11.02-4.35-16.21-7.19-3.37-1.85-7.07-4.01-9.42-7.14-1.36-1.81-2.71-5-.58-6.65,3.1-2.41,8.9-1.8,12.49-1.51,15.5,1.23,30.9,6.32,45.59,11.13,17.8,5.83,35.32,12.48,52.67,19.51,25.91,10.5,50.77,23.36,76.81,33.5,17.18,6.69,35.26,13.29,53.7,15.3,10.16,1.11,24.93.37,26.21-12.74.81-8.3-8.79-13.7-14.93-17.06-12.65-6.91-26.56-11.62-40.18-16.23-33.17-11.23-67.42-20.12-99.47-34.4-10.84-4.83-23.27-10.49-30.93-19.94-4.79-5.9-6.59-14.82,1.25-18.85,9.52-4.89,22.46-3.35,32.64-2.2,16.74,1.9,33.27,5.75,49.57,9.92,34.77,8.9,68.84,20.21,103.2,30.52,10.45,3.14,21.11,6.69,31.93,8.29,6.14.91,14.47,1.13,19.41-3.23,3.94-3.48,4.28-8.61,2.41-13.25-3.84-9.53-15.26-14.15-24.17-17.59-16.17-6.24-33.37-9.79-50.33-13.13-17.85-3.51-35.82-6.43-53.61-10.23-7.3-1.56-14.59-3.25-21.7-5.53-4.86-1.56-9.95-3.35-14.14-6.35-2.62-1.88-5.31-4.76-4.46-8.27,1.06-4.41,6.31-7.06,10.2-8.38,13.78-4.66,30.15-2,44.14.13,19.19,2.92,38.11,7.36,57.11,11.23,15.76,3.21,32.1,6.84,48.27,6.56,8.44-.14,20.97-2.23,22.63-12.58.62-3.85-2.29-6.53-5.34-8.33-5.6-3.31-12.29-4.92-18.56-6.42-18.55-4.43-37.53-6.87-56.23-10.53-9.26-1.81-18.51-3.82-27.54-6.56-7.13-2.17-14.74-4.69-20.91-9-1.4-.98-2.66-2.38-2.71-3.61.03-.02.06-.04.1-.07.19-.13.61-.49.9-.69,1.06-.74,2.29-1.27,3.48-1.77,8.23-3.43,17.4-4.95,26.1-6.65,27.74-5.44,55.72-9.64,83.22-16.26,13.74-3.31,27.42-7.12,40.58-12.33,10.54-4.18,21.25-9.29,29.67-17.04,6.46-5.94,11.59-13.85,11.89-22.85.36-10.82-5.86-22.58-14.33-29.09-10.57-8.12-24.61-7.11-36.77-3.74-16.26,4.5-31.39,12.81-45.91,21.21-15.89,9.19-31.3,19.19-47.24,28.29-12.16,6.93-25.57,14.8-39.71,16.6-4.41.56-21.36-.56-16.94-8.96,2.01-3.82,6.31-6.82,9.63-9.4,5.51-4.28,11.35-8.14,17.16-11.99,12.93-8.56,26.12-16.87,38.13-26.71,8.75-7.17,19.17-16.38,21.72-27.98,1.98-9.01-3.7-19.02-13.33-19.93-12.17-1.15-24.69,8.3-33.81,15.14-30.42,22.82-55.54,52.33-81.97,79.45-5.29,5.43-10.62,10.84-16.24,15.92-2.13,1.93-4.32,3.81-6.61,5.55-2.13,1.62-5.27,4.35-8.12,4.56-5.1.37-1.59-9.37-.91-11.67,2.91-9.87,6.88-19.44,10.54-29.04,4.75-12.49,9.39-25.03,13.36-37.8,4.13-13.29,6.52-26.98,10.42-40.32,3.09-10.58,7.24-20.72,11.5-30.86,2.11-5.02,5.1-10.88,4.78-16.5-.3-5.22-4.66-8-9.07-9.84-4.84-2.01-10.91-4.45-16.25-3.15-9.37,2.28-15.62,12.54-19.99,20.32-7.64,13.63-12.97,28.57-17.97,43.33-6.11,18.04-11.49,36.32-17.05,54.54-5.51,18.07-11.07,36.16-17.87,53.79-4.98,12.92-10.45,27-19.73,37.53-2.4,2.73-12.25,12.41-14.93,5.16-1.16-3.13-.64-7-.28-10.22.64-5.65,1.84-11.24,3.11-16.77,7-30.63,16.91-60.58,22.11-91.61,2.04-12.19,3.98-25.37,1.51-37.65-1.43-7.11-6.03-16.04-14.57-15.61-8.07.4-12.86,10.47-15.59,16.78-5.65,13.07-8.57,27.38-11.32,41.28-7.29,36.91-11.5,74.37-19.38,111.16-3.2,14.91-6.69,30.34-13.43,44.12-.67,1.38-7.24,14.68-10.31,12.06-1.11-.95-.7-3.96-.64-5.17.19-3.56.81-7.1,1.44-10.6,2.04-11.2,4.76-22.28,7.44-33.35,7.39-30.58,15.19-61.09,21.31-91.96,2.93-14.77,5.53-29.64,7.12-44.62,1.24-11.69,2.09-23.69.54-35.39-.92-6.97-2.87-15.65-9.23-19.74-6.32-4.07-14.23-1.77-19.55,2.82-8.05,6.94-12.78,17.53-16.53,27.22-5.59,14.43-9.32,29.58-12.6,44.68-7.83,36.07-12.67,72.71-18.55,109.12-2.5,15.47-5.07,30.97-8.66,46.23-2.18,9.28-4.3,20.34-10.05,28.21-2.08,2.85-8.47,10.97-12.16,5.83-1.56-2.17-1.97-5.31-2.33-7.88-.61-4.39-.72-8.86-.78-13.29-.31-27.24,2.08-54.45,1.64-81.71-.23-14.34-.76-28.4,1.02-42.69,1.44-11.55,3.93-22.9,6.46-34.25,1.7-7.66,3.79-15.62,3.68-23.53-.08-5.37-1.64-10.59-6.4-13.59-4.8-3.03-12.62-4.47-18.2-3.43-3.57.67-6.53,2.92-8.87,5.6-6.82,7.82-9.69,18.92-11.85,28.81-6.67,30.52-7.14,62.4-8.51,93.49-.61,13.84-1.09,27.73-2.48,41.53-.48,4.75-1.02,9.53-2.13,14.17-.44,1.85-1.1,5.41-2.61,6.09-2.1.95-4.1-1.45-5.24-2.89-3.63-4.57-5.55-10.49-7.08-16.04-4.61-16.68-6.05-34.27-7.79-51.42-1.89-18.54-3.45-37.2-6.92-55.53-2.32-12.25-5.2-28.07-14.93-36.9-5.86-5.31-15.09-6.33-19.51,1.09-4.91,8.24-3.16,19.85-1.95,28.82,2.19,16.28,6.25,32.31,10.27,48.21,4.68,18.49,9.67,36.9,14.11,55.44,4.06,16.95,7.93,34.12,9.6,51.5.64,6.66.97,13.42.34,20.09-.43,4.59-1.22,9.85-3.82,13.79-7.47,11.31-20.73-25.58-22.1-29.13-9.81-25.48-18-51.66-29.77-76.35-4.74-9.95-10.06-20.21-17.68-28.29-5.08-5.39-12.08-10.01-19.78-7.85-4.06,1.14-7.54,3.76-10.5,6.69-3.29,3.26-7,7.26-8.39,11.78-2.81,9.15,2.32,20.08,6.12,28.17,12.92,27.55,31.84,52.15,48.86,77.22,5.49,8.08,12.26,16.62,15.58,25.92.06.16.3,1.39.46,2.27-.3.02-.63.05-.74.04-3.69-.34-7.63-3.23-10.67-5.09-24.12-14.73-46.11-32.28-69.17-48.53-7.33-5.17-14.93-10.26-23.29-13.62-4.65-1.87-10.47-3.94-15.59-2.99-6.41,1.18-10.18,7.45-11.08,13.49-1.45,9.79,2.96,19.89,7.98,28.02,9.12,14.79,22.58,26.7,36.66,36.65,22.84,16.14,48.67,27.77,74.91,37.16,9.53,4.13,18.48,11.89,23.6,20.88,4.9,8.59,5.99,18.54,3.62,28.11-1.58,6.39-4.41,12.56-6.97,18.61-2.82,6.67-5.79,13.27-8.77,19.87-11.08,24.53-24.25,50.38-26.06,77.7-.77,11.6,1.1,23.35,6.86,33.56,3.84,6.81,9.6,14.76,17.02,18.07,8.32,3.71,15.51-2.21,20.34-8.59ZM737.06,392.79c-.06.11-.28.2,0,0h0Z"/>
      <path class="cls-8" d="M341.52,593.03c.18-1.75.74-4.58,2.05-5.92,24.29-24.87,51.74-46.5,80.26-66.3,30.2-20.96,61.78-39.91,94-57.58,29.61-16.23,59.81-31.37,90.4-45.65,22.9-10.69,46.02-20.89,69.36-30.57,7.2-2.98,14.42-5.92,21.66-8.78,2.2-.87,4.39-1.73,6.6-2.58,1-.39,2.33-1.19,3.41-1.31.14-.01.3-.11.43-.16,1.31-.49.61,2.97.52,3.45-.22,1.16-.86,4.69-2.26,5.21-8.6,3.22-17.12,6.68-25.62,10.16-22.03,9.02-43.87,18.53-65.51,28.46-29.87,13.7-59.38,28.22-88.36,43.73-32.2,17.23-63.8,35.67-94.17,55.97-29.23,19.54-57.55,40.79-82.94,65.18-2.97,2.85-5.88,5.75-8.76,8.7-1.32,1.35-1.16-1.24-1.08-1.99Z"/>
      <g>
        <path class="cls-1" d="M786.8,715.47c-15.74-42.51-37.26-83.07-58.59-122.98-12.39-23.17-25.08-46.21-38.17-69,6.87-1.48,13.63-3.4,20.23-5.83,62.71-23.11,100.73-84.39,98.46-150.32-2.2-64.1-18.66-127.51-38.62-188.13-6.86-20.84-14.32-41.5-22.2-61.98-3.92-10.19-6.52-17.25-7.59-27.73-2.29-22.3-4.57-44.59-6.86-66.89-.52-5.03-1.03-10.05-1.55-15.08-.04-.39-.22-.74-.46-1.07-.24-.54-.96-1.08-2.34-1.56-.37-.14-.76-.25-1.16-.35-20.63-5.45-44.08-6.23-64.77-1.1-44.77,11.08-56.88,53.51-52.3,95.29.57,5.24,4.31,15.33,2.3,19.61-.87,1.86-3.62,3.81-5,5.32-6.83,7.44-13.37,15.16-19.68,23.05-20.72,25.93-39.13,53.93-53.57,83.85-17.03,35.28-28.97,73.96-28.22,113.47.83,43.91,18.61,84.52,48.14,116.75,19.63,21.43,43.41,38.92,68.47,53.48,5.72,3.32,11.81,7.49,18.03,10.17-4.78,58.35-8.68,117.18-7.88,175.72.19,13.88.33,28.14,2.89,41.84,1.29,6.91,2.9,14.56,11.05,15.53,10.83,1.29,15.43-10.66,18.14-19.06,5.92-18.32,7.47-38.22,8.76-57.32.09-1.38.14-2.77.23-4.15,2.03,11.64,4.31,23.24,7.05,34.73,3.65,15.28,7.63,31.73,15.86,45.31,4.6,7.6,11.99,14.89,21.71,13.17,8.54-1.51,9.49-10.34,9.74-17.66.87-25.54-5.2-52.06-11.47-77.37,8.73,20.18,18.05,40.3,29.61,59.02,7.03,11.38,16.37,26.87,30.21,30.73,31.51,8.78,14.34-36.51,9.55-49.43Z"/>
        <path class="cls-6" d="M732.31,99.15c-1.92-2.98-6.14-3.11-9.18-3.7-6.9-1.34-13.67-2.86-19.87-6.32-6.8-3.8-12.33-9.64-14.96-17.05-2.77-7.81-2.77-16.24-6.51-23.77-2.9-5.86-7.49-10.39-14.42-9.92-12.3.83-15.71,12.85-16.81,22.98-2.03,18.67.16,39.63,9.3,56.31,9.98,18.2,36.27,35.08,52.69,14.1.09-.12.14-.23.21-.34.05-.06.12-.12.16-.19,5-7.93,11.01-14.25,16.73-21.53,2.37-3.01,5.14-6.73,2.66-10.57Z"/>
      </g>
      <path class="cls-6" d="M619.34,222.48c.6-3.12-6.09-3.47-6.58-.93-2.48,12.88-5.92,25.5-10.72,37.72-1.51,3.85-4.63,16.31-10.48,10.62-4.27-4.16-1.61-18.1-.61-22.91.64-3.08-5.8-3.47-6.58-.93-1.17,3.82-2.42,7.58-4.06,11.23-1.08,2.43-2.29,4.79-3.6,7.1-2.05,2.42-3,1.85-2.85-1.72-3.52-6.16-.57-18.34.39-24.81.38-2.54-5.36-2.35-6.35-.88-1.93,2.84-7.36,14.07-10.24,14.98-2.28.72-1.5-4.12-1.15-7.14.35-3.02,1.44-6.27,2.11-9.22.71-3.08-5.99-3.48-6.58-.93-1.35,5.88-8.72,21.94,1.55,23.8,4.92.89,8.89-2.37,12.16-6.65-.51,8.63.48,17.9,7.22,20.11,4.44,1.46,7.93-1.39,10.63-5.69,1.23,6.93,4.72,12.29,12.81,10.62,6.75-1.4,9.13-9.11,11.37-14.64,5.21-12.85,8.92-26.14,11.54-39.74Z"/>
      <path class="cls-7" d="M979.32,119.17C923.01,30.72,753.31,8.6,720.76,5.13c-4.91-.52-9.86-.49-14.73.27-4.61.72-9.13,2.06-8.79,4.59,7.08,53.05,31.43,87.06,31.43,87.06l246.19,60.76,12.05,17.71c15.67-29.4-7.58-56.34-7.58-56.34Z"/>
      <path class="cls-2" d="M986.65,121.49c-7.88-12.37-18.44-24.11-31.41-34.88-8.59-7.14-18.63-11.47-29.05-12.53-9.46-.97-16.38.9-20.56,5.56-4.7,5.23-5.79,13.95-3.24,25.93.5,2.34,13.84,38.78,16.73,39.5l60.4,14.91c1.38.34,2.47,1.35,2.91,2.69l5.33,16.09.31-.58c15.57-29.21-1.26-56.4-1.43-56.67Z"/>
      <path class="cls-10" d="M985.95,164.46l-.16-.21c-14-18.12-57.83-41.17-130.26-68.51-53.84-20.32-104.25-35.54-104.75-35.69l-.73-.22-29.02,36.28,256.04,71.9,12.51,15.08-3.61-18.62Z"/>
      <path class="cls-1" d="M774.64,110.37c-9.25-8.56-23.25-21.6-24.14-22.59-.18-.24-.44-.39-.74-.44-.33-.05-.67.05-.92.27l-13.67,12.1c-.31.27-.45.7-.35,1.1.09.4.4.72.8.84l37.95,10.64s.03,0,.04.01c.49.12,1-.1,1.25-.55.26-.46.16-1.03-.22-1.38Z"/>
      <path class="cls-5" d="M751.53,71.1c.02-.43,2.47-12.61,2.4-13.04-1.19-7.64-14.36-79.9-64.48-39.46-52.76,42.57,57.94,129.47,62.07,52.5Z"/>
      <path class="cls-2" d="M757.39,75.6c3.38-19.02-2.9-44.55-15.59-59.23-12.99-15.02-36.24-14.39-51.99-3.94-1.56,1.04,4.58,1.72,5.89.85,4.92-3.26,11.12-5.79,17-6.34,18.68-1.74,28.94,16.87,33.77,32,7.66,23.99,7.31,48.74-14.36,64.56-1.56,1.14,4.63,1.78,5.89.85,9.91-7.23,17.21-16.44,19.4-28.77Z"/>
      <path class="cls-4" d="M718.22,63.04c-6.02,1.73-12.32-1.8-14.06-7.88s1.72-12.41,7.74-14.14c6.02-1.73,12.32,1.8,14.06,7.88,1.75,6.08-1.72,12.41-7.74,14.14Z"/>
      <path d="M717.71,53.15c.34-3.35-.19-6.82-2.14-7.02-1.95-.2-3.17,3.1-3.51,6.45-.34,3.35.19,6.83,2.14,7.02,1.95.2,3.17-3.1,3.51-6.45Z"/>
      <path class="cls-8" d="M929.43,570.23c-22.77-4.17-42.43-18.97-63.04-28.74-1.57-.74-3.14-1.46-4.71-2.19-3.11-1.43-.54-.26.08.01-.97-.43-1.95-.85-2.93-1.26-4.17-1.74-8.35-3.44-12.57-5.02-9.1-3.41-18.35-6.4-27.71-9.02-24.92-6.96-50.55-10.96-76.28-13.4-81.87-7.78-164.9.17-246.17,10.69-78.89,10.22-157.02,25.23-235.75,36.51-72.13,10.34-146.92,18.02-219.14,4.31-7.86-1.49-17.49-6.33-17.75-15.59-.24-8.36,9.35-13.31,16.79-11.9,63.21,12,127.9,6.68,191.21-1.7,77.59-10.27,154.48-25.28,232-36.07,83.83-11.67,169.15-20.43,253.86-15.56,49.77,2.86,100.43,10.86,146.75,29.97,15.28,6.31,29.97,13.68,44.47,21.6,4.96,2.71,9.99,5.28,15,7.9,3.23,1.69-.21-.08-.55-.2,1.09.39,2.14.92,3.24,1.28,3.21,1.03,6.94,1.74,2.23.88,7.86,1.44,17.49,6.37,17.75,15.59.24,8.4-9.35,13.26-16.79,11.9h0Z"/>
      <path class="cls-6" d="M566.52,468.66c6.95-.12,13.9-.23,20.85-.35,1.5-.02,3.33-2.33,1.12-2.3-8.03.13-16.07.27-24.1.4.06-.39.13-.78.18-1.17,1.93-15.56,1.74-31.65,2.59-47.31.15-2.72-5.76-1.61-5.89.71-.86,15.66-.66,31.75-2.59,47.31-.07.59-.17,1.18-.27,1.77-16.27,11.59-32.55,23.18-48.83,34.76-3.22,2.29,1.86,2.84,3.65,1.57,14.7-10.47,29.4-20.93,44.1-31.4-2.86,10.79-8.49,21.56-8.45,32.51.01,2.76,5.9,1.58,5.89-.71-.04-10.71,5.35-21.24,8.26-31.79,9.77,9.18,19.55,18.36,29.32,27.54,1.16,1.09,6.51-1.18,5.47-2.16-10.43-9.8-20.87-19.6-31.3-29.39Z"/>
      <path class="cls-6" d="M722.02,500.43c-10.43-9.8-20.87-19.6-31.3-29.39,6.95-.12,13.9-.23,20.85-.35,1.5-.03,3.33-2.33,1.12-2.3-8.04.13-16.07.27-24.1.4.06-.39.13-.78.18-1.17,1.93-15.56,1.73-31.65,2.59-47.31.15-2.72-5.76-1.61-5.89.71-.86,15.66-.66,31.75-2.59,47.31-.07.59-.17,1.18-.27,1.77-16.28,11.59-32.55,23.18-48.83,34.76-3.22,2.29,1.86,2.84,3.65,1.57,14.7-10.47,29.4-20.93,44.1-31.4-2.86,10.79-8.49,21.56-8.45,32.51.01,2.76,5.89,1.58,5.89-.71-.04-10.71,5.35-21.24,8.26-31.79,9.77,9.18,19.55,18.36,29.32,27.54,1.16,1.09,6.51-1.18,5.47-2.16Z"/>
    </g>
  </g>
</svg>