<svg preserveAspectRatio="none" width="100%" height="100%" overflow="visible" style="display: block;" viewBox="0 0 120 109" fill="none" xmlns="http://www.w3.org/2000/svg">
<g id="Group 2">
<path id="Vector 1379" d="M20.2908 91.8016C17.7906 92.4461 15.4022 91.3449 13.8739 88.6977C10.1098 82.1782 6.9209 64.211 14.7669 60.4367C15.3668 60.1481 18.3875 60.0884 18.727 60.6764C19.6547 62.2833 20.2502 64.0245 20.8845 65.7625C21.3712 67.0962 21.7814 70.0143 22.8818 70.2971C32.3174 72.722 42.5894 73.9215 52.1416 71.922C56.6151 70.9855 60.9279 69.7959 65.0372 67.6962C68.9542 65.6947 73.0897 63.4035 76.477 60.5906C79.1932 58.335 81.1748 55.4481 82.8593 52.3985C84.1626 50.0389 85.3925 47.9553 85.8861 45.309C86.3503 42.8205 86.9762 40.3946 87.5199 37.9148C87.9862 35.7888 88.168 33.7868 88.2709 31.6265C88.318 30.6375 86.9549 29.9379 86.3025 29.3766C83.5849 27.038 78.7245 22.4286 81.2533 18.4598C82.4918 16.5161 86.0253 14.7917 88.2729 15.8618C90.2888 16.8214 92.0428 18.2648 93.8941 19.4846C97.0007 21.5315 101.941 26.0501 104.481 28.7781C105.211 29.5614 107.022 32.7151 105.986 33.8715C102.928 37.2822 100.983 36.7595 99.091 36.7073C98.2508 36.8415 95.4671 35.7113 96.2003 37.1601C96.6497 38.0483 96.7516 39.2672 96.8773 40.2511C97.0905 41.9209 97.3686 43.5133 97.3314 45.2116C97.2213 50.2441 96.5185 55.4424 94.5223 60.1407C92.2371 65.519 88.5497 69.8734 84.2099 73.7736C78.7843 78.6497 72.3461 81.6496 65.2339 82.9408C57.959 84.2615 50.4393 85.5746 43.0921 85.2967C37.7781 85.0958 32.1334 83.897 26.9901 81.6079C25.5554 81.0411 24.3064 79.8381 24.2065 80.3175C24.011 81.2559 24.4905 82.863 24.5443 83.8011C24.6152 85.0373 24.6258 86.3024 24.5122 87.54C24.354 89.2626 22.791 91.1571 20.2908 91.8016Z" fill="var(--fill-0, #709CA8)"/>
<path id="101" fill-rule="evenodd" clip-rule="evenodd" d="M45.5158 1.98103C47.929 1.70948 50.0652 5.69343 51.2837 7.39605C55.0855 12.7087 59.428 19.275 60.7337 25.7483C61.2286 28.2025 61.7099 34.1907 58.3088 35.0442C56.307 35.5466 53.5315 32.8431 52.2401 31.6247C47.1578 26.8298 45.7569 20.3582 42.596 14.2348C40.0514 9.30479 38.7433 2.74294 45.5158 1.98103Z" fill="var(--fill-0, #709CA8)"/>
<path id="100" fill-rule="evenodd" clip-rule="evenodd" d="M17.9624 15.6812C16.5206 17.6353 18.9027 21.4773 19.768 23.3839C22.4679 29.3326 25.9832 36.3766 30.9365 40.7439C32.8144 42.3996 37.7597 45.8105 40.1994 43.2919C41.6354 41.8095 40.6818 38.0541 40.2724 36.3265C38.661 29.5277 33.7569 25.0786 30.0343 19.2795C27.0371 14.6108 22.0084 10.197 17.9624 15.6812Z" fill="var(--fill-0, #709CA8)"/>
</g>
</svg>
