<svg preserveAspectRatio="none" width="100%" height="100%" overflow="visible" style="display: block;" viewBox="0 0 483 304" fill="none" xmlns="http://www.w3.org/2000/svg">
<path id="Vector 1" d="M288.538 110.267L277.672 114.032L288.538 110.267ZM432.725 115.429C429.777 109.803 422.827 107.632 417.201 110.58L325.524 158.618C319.898 161.565 317.727 168.516 320.675 174.141C323.623 179.767 330.573 181.938 336.199 178.99L417.689 136.29L460.389 217.781C463.337 223.407 470.287 225.578 475.913 222.63C481.539 219.682 483.71 212.732 480.762 207.106L432.725 115.429ZM96.5382 289.767L94.8483 301.142C134.158 306.982 199.058 302.844 247.576 275.328C272.122 261.407 293.051 241.15 303.704 212.674C314.359 184.195 314.15 149.06 299.404 106.502L288.538 110.267L277.672 114.032C291.163 152.967 290.469 182.413 282.162 204.615C273.855 226.821 257.348 243.345 236.23 255.322C193.421 279.6 134.085 283.718 98.2281 278.391L96.5382 289.767ZM288.538 110.267L299.404 106.502C273.719 32.3689 194.203 -2.59039 125.483 0.716726C90.8275 2.38448 57.3224 13.7624 33.5613 36.2119C9.42751 59.0136 -3.53068 92.2107 1.62201 134.653L13.0382 133.267L24.4544 131.881C20.1071 96.0726 30.9605 70.3111 49.3568 52.9302C68.1259 35.1972 95.8694 25.1685 126.588 23.6901C188.616 20.7051 256.351 52.4959 277.672 114.032L288.538 110.267ZM13.0382 133.267L1.62201 134.653C6.87979 177.96 33.3617 212.356 69.6927 236.013C105.95 259.622 152.605 273.013 200.335 274.635C295.547 277.871 399.221 233.989 433.515 124.195L422.538 120.767L411.561 117.338C381.355 214.044 289.779 254.662 201.116 251.648C156.909 250.146 114.47 237.724 82.2431 216.739C50.0897 195.802 28.6966 166.823 24.4544 131.881L13.0382 133.267Z" fill="var(--stroke-0, #7B9927)"/>
</svg>
