<?xml version="1.0" encoding="UTF-8"?>
<svg id="Layer_2" data-name="Layer 2" xmlns="http://www.w3.org/2000/svg" viewBox="0 0 138.83 102.76">
  <defs>
    <style>
      .cls-1 {
        fill: #51362e;
      }
    </style>
  </defs>
  <g id="Layer_2-2" data-name="Layer 2">
    <g>
      <g>
        <path class="cls-1" d="M138.83,32.51c0-1.4-.18-2.65-.58-3.69-1.6-4.15-4.9-6.86-9.54-7.83-1.35-.28-2.62-.38-3.67-.39,1.08-2.41,2.03-5.24,2.61-7.89,1.01-4.61.8-7.86-.62-9.65-.64-.8-2.13-2.02-4.93-1.18h0c-1.53.46-3.09,2.29-6.2,6.06-7.07,8.59-18.89,22.96-33.63,15.82-11.5-5.57-19.73-8.68-27.78-8.11-3.91.28-7.7,1.4-11.93,3.54-3.81,1.93-8.14,4.78-13.63,8.97-7.59,5.8-14.4,15.3-19.17,26.76-4.19,10.06-6.19,20.39-5.21,26.96.73,4.86,2.91,6.64,4.62,7.28,4.26,1.58,9.55-1.83,13.38-5.14.11,1.8.3,3.58.59,5.3.67,4.01,2.46,11,6.84,12.72,2.49.98,4.77.98,6.76-.01,4.22-2.09,6.63-8.1,9.36-17.76,1.82-6.42,5.91-11.77,12.18-15.91,1.13-.74,2.23-1.38,3.25-1.91-4.05,6.04-4.86,12.95-3.26,17.69,1.14,3.36,3.43,5.39,6.28,5.58,3.28.21,7.18-1.79,12.59-4.57,7.36-3.78,17.44-8.96,30.74-10.55,7.79-.94,16.15-7.92,22.92-19.17,4.38-7.28,8.05-16.62,8.05-22.9ZM121.02,22.25c0,.3.09.6.27.86.33.48.91.72,1.48.62.02,0,2.56-.4,5.41.21,3.61.78,6.06,2.78,7.28,5.96,1.38,3.58-.95,13.53-7.24,23.96-2.89,4.8-6.2,8.94-9.58,11.97-3.79,3.4-7.53,5.34-11.13,5.77-13.84,1.66-24.19,6.98-31.75,10.86-4.79,2.46-8.57,4.4-11.02,4.24-2.16-.14-3.2-2.28-3.63-3.55-.87-2.56-.81-5.93.17-9.25.8-2.72,2.61-6.7,6.64-10.22.53-.46.66-1.22.33-1.84-.33-.62-1.05-.92-1.72-.73-.19.05-4.7,1.32-9.82,4.68-6.84,4.48-11.5,10.59-13.5,17.65-1.91,6.76-4.25,14.12-7.8,15.88-1.22.6-2.64.57-4.33-.09-2.13-.84-4.04-4.83-4.98-10.42-.41-2.42-.62-4.98-.64-7.53,5.06-5.15,11.47-13.91,11.47-18.81,0-.53-.08-1.02-.24-1.45-.44-1.18-1.48-1.92-2.84-2.02-4.88-.35-8.54,3.75-10.32,11.55-.66,2.89-1.02,6.16-1.07,9.49-4.91,4.76-9.6,7.29-12.25,6.3-1.72-.64-2.42-3.02-2.7-4.91-.9-6.05,1.02-15.77,5.01-25.36,4.57-10.97,11.04-20.04,18.22-25.53,10.73-8.2,17.23-11.43,23.96-11.9,7.38-.52,15.22,2.47,26.26,7.82,7.36,3.56,14.9,2.87,22.42-2.05,6.18-4.04,11.18-10.12,14.83-14.56,1.77-2.16,3.98-4.84,4.74-5.1,1.28-.38,1.6.02,1.72.17.61.76.94,3.04.04,7.14-.72,3.27-2.09,6.98-3.49,9.44-.13.23-.2.49-.2.74ZM33.84,62.04c.04.1.36,1.05-.98,3.99-1.08,2.36-2.9,5.22-5.11,8.06-.71.91-1.42,1.78-2.14,2.61.16-1.92.44-3.76.83-5.47.81-3.58,2.83-9.54,7.17-9.22.13,0,.2.03.23.05Z"/>
        <path class="cls-1" d="M100.17,74.77c0-.09,0-.18-.03-.28-.15-.81-.93-1.35-1.75-1.2-6.33,1.18-11.84.44-14.74-1.97-1.63-1.35-2.42-3.17-2.42-5.57h0c0-6.57,9.82-12.82,13.6-14.68.66-.32.99-1.08.77-1.78-.21-.7-.9-1.15-1.63-1.05-.09.01-8.64,1.14-17.49,1.51-16.27.68-18.51-1.8-18.79-2.31-2.72-4.86,5.19-10.39,5.27-10.45.64-.44.84-1.3.46-1.97s-1.21-.95-1.92-.63c-.05.02-5.19,2.33-10.7,3.84-6.5,1.78-10.86,1.74-11.98-.13-1.16-1.95-.69-4.32-.08-5.96,2.04-5.56,8.31-11.1,15.25-13.48.78-.27,1.2-1.12.93-1.91-.27-.78-1.12-1.2-1.91-.93-7.86,2.7-14.73,8.84-17.09,15.28-1.19,3.23-1.07,6.18.32,8.53,1.14,1.92,3.4,2.89,6.71,2.9,2.33,0,5.25-.47,8.67-1.42,1.54-.42,3.05-.9,4.43-1.38-2.75,4.04-2.08,7.19-.97,9.18,1.11,1.99,4.56,4.55,21.55,3.84,3.98-.17,7.89-.49,11.03-.79-4.32,3.11-9.43,8.02-9.43,13.78v.02c0,3.3,1.19,5.95,3.51,7.87,3.64,3.02,9.91,3.97,17.21,2.61.72-.13,1.23-.76,1.23-1.47Z"/>
        <path class="cls-1" d="M113.45,29.36c0-.46-.21-.91-.61-1.21-.67-.49-1.61-.35-2.1.31-.03.03-3.34,4.24-12.34,5.84-4.93.87-9.42.18-14.18-.55-4.36-.67-8.87-1.36-13.9-.85-.82.08-1.42.82-1.34,1.64.08.82.82,1.42,1.64,1.34,4.65-.47,8.97.19,13.14.83,4.79.74,9.75,1.5,15.16.54,10.28-1.82,14.07-6.79,14.23-7.01.2-.27.29-.58.29-.89Z"/>
        <path class="cls-1" d="M119.01,32.78c0-.59-.35-1.14-.92-1.38-.76-.32-1.64.04-1.96.8-2.26,5.38-8.14,12.23-15.72,14.55-.79.24-1.24,1.08-1,1.87s1.08,1.24,1.87.99c3.81-1.17,7.55-3.45,10.82-6.61,2.96-2.86,5.37-6.28,6.78-9.65.08-.19.12-.39.12-.58Z"/>
        <path class="cls-1" d="M119.01,48.18c0-.6-.36-1.17-.96-1.4-.77-.3-1.64.08-1.94.85-3.54,9.1-14.42,15.21-27.09,15.21-.83,0-1.5.67-1.5,1.5s.67,1.5,1.5,1.5c13.89,0,25.9-6.88,29.88-17.13.07-.18.1-.36.1-.54Z"/>
      </g>
      <path class="cls-1" d="M26.32,14.22c0-1.88-.42-3.8-1.28-5.68C22.8,3.6,18.05.17,13.23,0,10.49-.09,5.33.84,1.44,8.06h0C-.17,11.04-.44,14.51.68,17.83c1,2.99,3.11,5.73,5.77,7.51,2.56,1.71,5.52,2.47,8.32,2.13,3.19-.38,6.14-2.14,8.54-5.08,1.99-2.43,3-5.25,3-8.17ZM2.76,8.77l1.32.71c2.35-4.36,5.48-6.6,9.05-6.48,3.71.13,7.4,2.85,9.18,6.77,1.69,3.72,1.21,7.62-1.31,10.71-5.37,6.58-11.21,3.47-12.88,2.35-4-2.68-6.78-8.26-4.04-13.35l-1.32-.71Z"/>
    </g>
  </g>
</svg>