<?xml version="1.0" encoding="UTF-8"?>
<svg id="Layer_2" data-name="Layer 2" xmlns="http://www.w3.org/2000/svg" viewBox="0 0 107.04 224.56">
  <defs>
    <style>
      .cls-1 {
        fill: #64848c;
      }

      .cls-2 {
        fill: #79a2ad;
      }
    </style>
  </defs>
  <g id="OBJECTS">
    <g>
      <path class="cls-2" d="M103.28,96.13c-.25-9.86-.38-19.72-.38-29.58,0-8.9.39-18.23-3.95-26.32-3.51-6.54-9.55-11.54-16.17-14.72-.42-.2-.85-.39-1.27-.58.6-3.02,1.61-5.98,3.02-8.68,1.77-3.38,4.14-6.41,7.06-8.86,1.49-1.25,3.16-2.31,4.9-3.19,2.03-1.03,4.74-2.08,7.02-1.49.22.06.3-.26.09-.34-1.02-.39-1.97-.66-2.96-.8-4.01-2.25-9.08-1.77-13.35-.46-4.24,1.3-8.09,3.59-11.59,6.28-4.71,3.62-9.2,7.95-12.21,13.12-2.06-.2-4.13-.33-6.2-.41-4.7-.16-9.39-.03-14.08.12-4.33.14-8.71.32-12.94,1.33-4.06.97-7.77,2.73-10.96,5.44-3.11,2.65-5.59,6.03-7.55,9.6-4.18,7.62-5.98,16.17-7.08,24.71-1.2,9.32-1.84,18.73-2.5,28.1C.81,109.12.1,128.89.01,148.67c-.04,9.73.01,19.47.34,29.2.25,7.29.84,14.91,3.6,21.74,1.38,3.43,3.24,6.62,5.81,9.3,2.79,2.91,6.28,4.98,10.04,6.38,8.85,3.3,18.53,3.34,27.84,2.8,4.71-.27,9.41-.73,14.11-1.06,4.71-.33,9.47-.07,14.15-.75,7.9-1.15,15.28-4.68,20.55-10.78,11.93-13.79,11.21-32.79,9.9-49.84-1.52-19.81-2.56-39.66-3.07-59.53Z"/>
      <path class="cls-1" d="M57.1,23.47c3.71,0,7.42.25,11.11.92,10.37,1.88,18.91,7.14,23.42,14.44,3.59,5.81,4.66,12.52,5.6,20.05,4.55,36.54,6.85,73.73,6.82,110.54,0,12.95-.51,25.47-6.48,36.22h0c-5.43,9.79-14.23,14.81-28.51,16.27-2.82.29-5.71.68-8.51,1.05-7.95,1.07-16.17,2.17-24.23,1.27-10.47-1.16-19.25-5.89-24.1-12.96-4.52-6.59-5.55-14.77-6.29-23.27-3.67-42.18-4.19-84.99-1.55-127.24.59-9.39,1.68-19.13,7.87-25.95,6.8-7.49,17.25-9.11,28.28-10.22,5.45-.55,11-1.11,16.57-1.11ZM42.58,222.56c5.9,0,11.87-.8,17.7-1.58,2.82-.38,5.73-.77,8.57-1.06,13.56-1.39,21.88-6.09,26.96-15.25h0c5.74-10.33,6.22-22.57,6.23-35.25.03-36.73-2.26-73.84-6.8-110.29-.91-7.3-1.94-13.78-5.31-19.25-4.21-6.82-12.26-11.74-22.07-13.52-8.95-1.62-18.19-.69-27.13.22-10.62,1.07-20.68,2.61-27,9.58-5.75,6.34-6.79,15.7-7.35,24.73-2.64,42.15-2.12,84.86,1.54,126.94.72,8.23,1.71,16.12,5.95,22.31,4.52,6.59,12.78,11.01,22.67,12.11,2,.22,4.02.32,6.05.32ZM96.69,205.15h0,0Z"/>
      <path class="cls-1" d="M10.11,163.16c.52,0,.96.4,1,.93l1.65,23.81c.34,4.97.74,10.6,3.32,15.16.27.48.1,1.09-.38,1.36-.48.27-1.09.1-1.36-.38-2.81-4.96-3.22-10.83-3.58-16.01l-1.65-23.81c-.04-.55.38-1.03.93-1.07.02,0,.05,0,.07,0Z"/>
      <path class="cls-1" d="M92.69,67.93c.51,0,.95.39,1,.91l3.48,40.34c.05.55-.36,1.03-.91,1.08-.55.05-1.03-.36-1.08-.91l-3.48-40.33c-.05-.55.36-1.03.91-1.08.03,0,.06,0,.09,0Z"/>
      <path class="cls-1" d="M90.44,51.67c.4,0,.78.24.93.64,1.41,3.6,1.99,7.54,1.66,11.39-.05.55-.52.96-1.08.91-.55-.05-.96-.53-.91-1.08.3-3.55-.23-7.18-1.53-10.5-.2-.51.05-1.09.57-1.3.12-.05.24-.07.36-.07Z"/>
      <path class="cls-1" d="M42.77,28.71c1.66,0,3.32.08,4.97.25.55.06.95.55.89,1.1-.06.55-.55.95-1.1.89-9.37-.97-19.1.96-27.39,5.43-.49.26-1.09.08-1.35-.41-.26-.49-.08-1.09.41-1.35,7.18-3.87,15.4-5.92,23.58-5.92Z"/>
    </g>
  </g>
</svg>