<?xml version="1.0" encoding="UTF-8"?>
<svg id="Layer_2" data-name="Layer 2" xmlns="http://www.w3.org/2000/svg" viewBox="0 0 130.83 230.85">
  <defs>
    <style>
      .cls-1 {
        fill: #64848c;
      }

      .cls-2 {
        fill: #79a2ad;
      }

      .cls-3 {
        fill: #779187;
      }
    </style>
  </defs>
  <g id="OBJECTS">
    <g>
      <path class="cls-2" d="M125.78,150.08c-4.18-20.85-9.45-41.49-12.73-62.51-1.64-10.52-2.46-21.05-3.06-31.67-.55-9.75-1.55-19.76-6.18-28.54-3.94-7.48-10.43-13.75-18.84-15.68-5.17-1.19-10.55-1-15.82-1-5.4,0-10.8,0-16.2,0-9.13,0-19.32-.53-26.32,6.43-5.7,5.67-7.66,13.98-8.57,21.7-1.2,10.23-1.11,20.68-1,30.97,0,.62.02,1.23.03,1.85-1.53-.42-3.06-.98-4.46-1.73-2.74-1.46-5.16-3.53-7.09-5.96-.97-1.23-1.76-2.59-2.52-3.95-.8-1.43-1.71-3.01-2.15-4.59-.13-.48-.9-.4-.88.12.04,1.2.04,2.33.14,3.47-.07,1.14.11,2.37.19,3.44.14,1.75.55,3.55,1.07,5.23,1.06,3.41,2.79,6.76,4.8,9.7,2.09,3.04,4.55,5.77,7.46,8.04,1.2.94,2.43,1.8,3.74,2.56.1,4.81.2,9.62.23,14.43.07,12.08-.71,24.15-2.2,36.14-1.5,12-4.79,23.91-4.96,36.02-.12,8.18,1.11,16.38,2.46,24.42.81,4.83,2.05,9.7,4.61,13.92,2.03,3.35,4.85,6.15,8.1,8.31,9.62,6.38,21.32,6.8,32.43,5.46,5.6-.68,11.15-1.75,16.7-2.71,6.27-1.08,12.6-1.71,18.96-1.98,2.84-.12,5.73-.53,8.57-.53,4.78-.39,9.57-1.37,13.77-3.79,3.58-2.07,6.53-5.13,8.78-8.58,5.29-8.08,6.42-17.97,5.8-27.41-.7-10.6-2.81-21.18-4.9-31.59Z"/>
      <path class="cls-1" d="M61.73,0c11.48,0,22.7,5.6,29.01,14.84,4.76,6.96,6.68,15.56,8.37,23.14l25.09,112.37c2.46,11.04,5.01,22.46,4.66,34.04-.39,13.05-4.7,24.38-12.14,31.91h0c-12.29,12.45-31.76,13.5-47.41,14.36-13.91.75-33.62-.05-44.12-15.73-7.78-11.6-7.99-25.85-7.48-41.92l3.69-117.09c.33-10.54.71-22.48,5.52-32.84C32.54,10.96,43.92,2.27,56.61.38,58.31.12,60.02,0,61.73,0ZM115.31,214.9c7.08-7.17,11.18-18.02,11.56-30.56.34-11.34-2.18-22.63-4.62-33.55l-25.09-112.37c-1.65-7.41-3.53-15.8-8.07-22.45C82.26,5.98,69.33.5,56.91,2.35c-11.85,1.76-22.91,10.23-28.17,21.56-4.64,9.99-5.01,21.72-5.33,32.06l-3.69,117.09c-.5,15.72-.3,29.64,7.15,40.75,9.94,14.83,28.93,15.58,42.36,14.85,15.3-.83,34.35-1.87,46.09-13.76h0Z"/>
      <path class="cls-1" d="M123.76,178.8c.52,0,.96.4,1,.93.92,12.7-3.79,25.78-12.6,34.98-.38.4-1.01.41-1.41.03-.4-.38-.41-1.01-.03-1.41,8.42-8.8,12.93-21.3,12.05-33.45-.04-.55.37-1.03.93-1.07.02,0,.05,0,.07,0Z"/>
      <path class="cls-3" d="M122.01,162.55c.5,0,.94.38.99.89l1.14,10.74c.06.55-.34,1.04-.89,1.1-.55.05-1.04-.34-1.1-.89l-1.14-10.73c-.06-.55.34-1.04.89-1.1.04,0,.07,0,.11,0Z"/>
      <path class="cls-1" d="M37.65,17.16c.25,0,.49.09.69.27.4.38.42,1.01.04,1.41-4.94,5.21-8.29,12.64-9.69,21.5-1.27,8.01-.91,16.29-.57,24.29.02.55-.4,1.02-.96,1.04-.57.02-1.02-.4-1.04-.96-.35-8.1-.71-16.48.59-24.69,1.47-9.26,5-17.06,10.22-22.56.2-.21.46-.31.73-.31Z"/>
    </g>
  </g>
</svg>