<?xml version="1.0" encoding="UTF-8"?>
<svg id="Layer_2" data-name="Layer 2" xmlns="http://www.w3.org/2000/svg" viewBox="0 0 192.51 107.06">
  <defs>
    <style>
      .cls-1 {
        fill: #64848c;
      }

      .cls-2 {
        fill: #79a2ad;
      }
    </style>
  </defs>
  <g id="OBJECTS">
    <g>
      <path class="cls-2" d="M180.56,87.75c-2.73,3.37-6.78,5.32-11.02,5.98-4.69.73-9.41.3-14.12-.08-5.43-.44-10.86-.88-16.29-1.32-20.15-1.63-39.99-5.16-59.96-8.17-4.81-.72-9.61-1.44-14.42-2.17-5.41-.82-10.82-1.64-16.22-2.47-2.95-.45-5.9-.91-8.83-1.48-.3.16-.6.32-.9.5-6.06,3.54-11.14,9.02-12.22,16.17-.59,3.89.17,8.15,1.96,11.65.12.16.24.33.37.49.09.12-.06.28-.17.17-.2-.21-.39-.43-.58-.64-1.23-1.22-2.17-2.46-2.87-4.09-.08-.2-.15-.4-.22-.6-.69-1.44-1.23-2.97-1.61-4.56-.93-3.84-1.6-7.7-1.1-11.65.53-4.17,2.06-8.02,4.32-11.42-1.6-.76-3.13-1.63-4.58-2.65-3.37-2.36-6.18-5.34-8.42-8.78-3.5-5.38-5.5-11.58-6.8-17.83-1.05-5.02-2.45-10.32-2.56-15.47-.07-2.95.46-5.98,2.01-8.5,2.89-4.7,8.33-6.32,13.18-8.21,6.19-2.41,12.64-4.09,19.16-5.31,9.9-1.86,19.95-2.79,29.97-3.67,10.9-.96,21.81-1.73,32.73-2.31,10.84-.58,21.69-.97,32.54-1.17,5.3-.1,10.61-.19,15.91-.16,4.2.02,8.44.23,12.55,1.14,4,.89,7.86,2.56,10.93,5.32,3.32,2.99,5.31,7.13,6.54,11.36,1.36,4.68,2.05,9.58,2.78,14.38.81,5.33,1.47,10.69,1.98,16.06.5,5.34.84,10.7,1.02,16.06.14,4.22.14,8.43-.55,12.61-.65,3.91-2.01,7.72-4.53,10.82Z"/>
      <path class="cls-1" d="M36.53,2.34c-9.51,0-18.52.82-25.69,6.09C4.84,12.83.84,20.28.13,28.36c-.64,7.27,1.19,14.91,5.29,22.09.84,1.48,1.78,2.93,2.79,4.32,8.4,11.59,22.55,20.43,36.91,23.07,0,0,.01,0,.02,0,12.72,2.12,25.74,3.71,38.34,5.25,7.78.95,15.82,1.94,23.7,3.03,12.96,1.8,26.77,3.66,40.52,4.81,7.26.61,13.93.97,20.38,1.12,6.09.15,11.85-1.87,15.83-5.52,6.02-5.52,7.45-14.22,8.05-22.01.85-10.91.73-21.96-.34-32.85-.58-5.86-1.67-11.83-5.72-15.87-4.21-4.19-10.26-5.13-16.61-5.79C126.45,5.58,82.9,3.01,39.84,2.37c-1.11-.02-2.22-.03-3.32-.03ZM45.48,75.86c-13.87-2.55-27.53-11.08-35.65-22.27-.97-1.33-1.87-2.73-2.67-4.14-3.85-6.73-5.64-14.16-5.04-20.92.66-7.51,4.37-14.42,9.9-18.48,7.51-5.51,17.43-5.83,27.8-5.68,43,.64,86.49,3.21,129.27,7.64,5.98.62,11.65,1.48,15.4,5.21,3.6,3.59,4.6,9.16,5.14,14.65,1.06,10.77,1.17,21.71.34,32.5-.57,7.39-1.9,15.63-7.41,20.69-3.6,3.31-8.88,5.12-14.43,5-6.41-.15-13.03-.51-20.26-1.12-13.7-1.15-27.48-3-40.41-4.8-7.9-1.1-15.95-2.08-23.73-3.04-12.57-1.54-25.57-3.13-38.24-5.24Z"/>
      <path class="cls-1" d="M89.09,7.53c-.53,0-.97.41-1,.94-.03.55.39,1.02.94,1.05l33.51,1.87c.56.02,1.02-.39,1.05-.94.03-.55-.39-1.02-.94-1.05l-33.51-1.87s-.04,0-.06,0Z"/>
      <path class="cls-1" d="M127.85,10.22c-.53,0-.97.41-1,.95-.03.55.39,1.02.95,1.05l9.75.52c.54.02,1.02-.39,1.05-.95.03-.55-.39-1.02-.95-1.05l-9.75-.52s-.04,0-.05,0Z"/>
      <path class="cls-1" d="M16.75,55.51c-.26,0-.51.1-.71.29-.39.39-.39,1.02,0,1.41,10.24,10.21,24.38,16.77,38.8,17.98.56.05,1.03-.36,1.08-.91.05-.55-.36-1.03-.91-1.08-13.95-1.17-27.64-7.52-37.55-17.4-.19-.19-.45-.29-.71-.29Z"/>
      <path class="cls-1" d="M182.87,19.39c-.14,0-.29.03-.43.1-.5.24-.71.83-.48,1.33,3.35,7.08,4.89,14.97,4.44,22.79-.03.55.39,1.02.94,1.06.55.03,1.02-.39,1.06-.94.47-8.16-1.13-16.38-4.63-23.76-.17-.36-.53-.57-.9-.57Z"/>
    </g>
  </g>
</svg>