<?xml version="1.0" encoding="UTF-8"?>
<svg id="Layer_2" data-name="Layer 2" xmlns="http://www.w3.org/2000/svg" viewBox="0 0 191.09 198.42">
  <defs>
    <style>
      .cls-1 {
        fill: #765345;
      }

      .cls-2 {
        fill: #604840;
      }
    </style>
  </defs>
  <g id="OBJECTS">
    <g>
      <path class="cls-1" d="M5.85,110.05c2.29,12.91,8.74,25.09,17.96,34.39,9.59,9.68,22.21,15.98,35.72,17.8,3.49.47,7.04.64,10.59.49.15.42.28.84.44,1.25,2.55,6.57,6.43,12.56,11.29,17.65,9.72,10.17,23.52,16.63,37.66,16.78,14.42.15,28.62-6.2,38.75-16.36,2.81-2.82,5.25-5.93,7.31-9.24,3.57,4.27,6.25,9.84,6.32,15.44,0,.02,0,.03-.01.05-.02.09-.01.17,0,.24,0,.33,0,.66-.02.99-.02.27.4.32.47.06.06-.25.11-.5.17-.76.08-.03.16-.09.22-.19,1.62-2.85,2.46-5.93,2.66-9.2.21-3.53.06-7.08-.51-10.57-.53-3.24-1.62-6.3-3.08-9.23-.08-.16-.16-.31-.24-.46,1.39-5.07,2-10.37,1.76-15.75-.25-5.57-1.33-11.11-3.18-16.39,4.55-3.02,8.12-7.33,10.38-12.45,3.32-7.51,4.1-15.82,2.97-23.91-1-7.16-3.83-14.47-9-19.65-2.21-2.21-4.88-4.01-7.82-5.11.14-.29.3-.57.44-.86,4.65-9.57,6.66-20.83,2.83-31.02-3.25-8.65-9.81-15.87-18.02-20.09-8.42-4.33-18.08-5.2-27.21-2.75-2.25.6-4.43,1.4-6.54,2.36-.09-.12-.19-.24-.28-.35-2.42-2.93-5.63-5.29-9.03-6.96-7.04-3.47-15.22-4.27-22.74-1.95-7.49,2.31-13.94,7.12-19.47,12.56-5.73,5.63-10.82,12.07-13.78,19.6-1.58,4.02-2.41,8.4-2.32,12.74-1.61.02-3.22.39-4.62.99-3.41,1.47-5.55,4.9-6.01,8.51-3.09-.66-6.52-.31-9.49.55-6.01,1.75-11.3,5.96-15.26,10.72-9.27,11.17-11.8,26.02-9.3,40.08Z"/>
      <path class="cls-2" d="M114.63,192.01c-4.71,0-9.41-.71-13.92-2.17-16.16-5.23-28.68-19.81-31.53-36.52-14.89,6.8-33.16,5.52-46.92-3.4C8.12,140.76-.6,123.96.03,107.12c.64-16.84,10.6-32.93,25.39-41,8.27-4.51,17.08-5.87,24.44-3.8-1.91-17.96,5.82-36.61,19.97-47.88l.39-.3c5.64-4.3,13.84-5.99,22.5-4.64,8.84,1.37,14.94,4.43,18.57,9.31C116.37,7.62,128.46-.2,140.77,0c12.95.2,25.38,9.25,29.55,21.51,3.97,11.67.23,25.6-8.88,33.86,9.67,3.18,18.13,9.86,23.41,18.56,5.61,9.23,7.56,20.59,5.35,31.16-1.67,7.97-5.6,14.95-11.09,19.63-5.72,4.88-13.03,7.17-19.89,6.29,5.23,16,1.08,34.59-10.6,46.76-8.79,9.16-21.39,14.23-33.99,14.23ZM69.96,150.84c.16,0,.32.04.47.12.28.15.48.43.52.75,2.29,16.53,14.5,31.09,30.38,36.23,15.88,5.14,34.3.5,45.85-11.54,11.55-12.05,15.41-30.65,9.6-46.3-.13-.34-.06-.72.18-1,.24-.28.61-.4.96-.33,6.63,1.38,14.25-.75,19.89-5.57,5.15-4.4,8.85-10.98,10.43-18.52,2.11-10.08.25-20.91-5.1-29.71-5.35-8.8-14.1-15.44-24.02-18.22-.36-.1-.64-.4-.71-.77-.07-.37.06-.75.36-.98,9.5-7.55,13.56-21.37,9.65-32.86-3.91-11.49-15.55-19.97-27.68-20.16-12.13-.21-24.04,7.92-28.3,19.28-.14.36-.47.61-.85.64-.39.03-.75-.16-.95-.49-3.12-5.28-9.08-8.54-18.22-9.96-8.13-1.27-15.78.29-20.98,4.25l-.35.28c-13.8,10.99-21.46,30.12-19.05,47.6.05.35-.09.69-.36.91-.27.22-.64.28-.97.17-7.11-2.53-15.98-1.36-24.33,3.19-14.18,7.74-23.74,23.18-24.35,39.32-.61,16.15,7.76,32.26,21.31,41.05,13.56,8.79,31.68,9.85,46.17,2.7.14-.07.29-.1.44-.1Z"/>
      <path class="cls-2" d="M54.98,54.16s-.04,0-.06,0c-.55-.03-.97-.5-.94-1.05.63-11.39,5-22.48,12.29-31.24.35-.43.98-.48,1.41-.13.42.35.48.98.13,1.41-7.02,8.44-11.22,19.12-11.83,30.08-.03.53-.47.94-1,.94Z"/>
      <path class="cls-2" d="M71,20.92c-.27,0-.53-.11-.73-.31-.38-.4-.36-1.03.04-1.41,2.17-2.04,4.85-3.43,7.76-4.02.54-.11,1.07.24,1.18.78.11.54-.24,1.07-.78,1.18-2.51.51-4.93,1.76-6.79,3.52-.19.18-.44.27-.69.27Z"/>
      <path class="cls-2" d="M114.38,188.01c-6.12,0-12.27-1.41-17.69-4.16-8.13-4.1-14.81-11.27-18.34-19.66-.21-.51.02-1.1.53-1.31.51-.21,1.09.02,1.31.53,3.35,7.96,9.69,14.76,17.4,18.65,7.71,3.89,16.94,4.96,25.34,2.94.54-.13,1.08.2,1.21.74.13.54-.2,1.08-.74,1.21-2.94.71-5.97,1.06-9.02,1.06Z"/>
      <path class="cls-2" d="M129.39,185c-.45,0-.86-.31-.97-.77-.13-.54.2-1.08.74-1.21,3.26-.79,6.32-2.13,9.1-4.01.46-.31,1.08-.19,1.39.27.31.46.19,1.08-.27,1.39-2.98,2.01-6.25,3.46-9.75,4.3-.08.02-.16.03-.24.03Z"/>
      <path class="cls-2" d="M27.1,71.72c-.35,0-.68-.18-.87-.5-.27-.48-.11-1.09.37-1.36,5.74-3.3,12.54-4.85,19.15-4.39.55.04.97.52.93,1.07-.04.55-.51.97-1.07.93-6.21-.44-12.61,1.02-18.01,4.12-.16.09-.33.13-.5.13Z"/>
    </g>
  </g>
</svg>