<?xml version="1.0" encoding="UTF-8"?>
<svg id="Layer_2" data-name="Layer 2" xmlns="http://www.w3.org/2000/svg" viewBox="0 0 138.47 212.34">
  <defs>
    <style>
      .cls-1 {
        fill: #765345;
      }

      .cls-2 {
        fill: #604840;
      }
    </style>
  </defs>
  <g id="OBJECTS">
    <g>
      <path class="cls-1" d="M6.93,60.86c1.62-8.58,3.89-17.14,7.19-25.23,3.16-7.75,7.47-15.25,14.04-20.6,6.44-5.26,14.34-8.44,22.64-9.07,17.61-1.35,31.41,10.17,41.32,23.46,1.57,2.11,3.04,4.3,4.38,6.56,3.5,5.89,6.23,12.15,8.35,18.61,1.15-.09,2.29-.14,3.44-.13,3.76.05,7.52.64,11.12,1.7,3.55,1.05,7.04,2.54,10.15,4.57,2.64,1.73,5.21,3.71,6.94,6.36.75.76,1.4,1.63,1.91,2.63.23.45-.32.9-.71.54-4.22-3.96-10.35-4.52-15.8-3.48-4.51.85-8.89,2.73-12.7,5.36.95,5.28,1.63,10.6,2.11,15.9,1.69,18.58.82,37.37-2.42,55.74-1.62,9.17-3.85,18.23-6.68,27.1-2.71,8.49-5.81,17.12-10.84,24.55-4.55,6.72-10.76,12.38-18.45,15.23-8.24,3.05-17.15,1.67-24.89-2.13-7.74-3.8-14.27-9.86-18.96-17.06-4.89-7.5-8.07-16.1-11.1-24.48-6.13-16.99-10.4-34.58-12.54-52.52-2.12-17.83-1.84-35.96,1.49-53.62Z"/>
      <path class="cls-2" d="M60.37,210.35c8.37,0,17.24-4.22,23.83-11.5,7.06-7.8,10.93-17.75,13.79-26.45,3.42-10.44,6.05-21.29,7.8-32.27,1.92-12.01,2.88-24.26,2.85-36.41-.04-19.79-2.65-38.48-7.75-55.56-.86-2.89-1.67-5.41-2.47-7.71-2.7-7.74-5.6-13.76-9.12-18.94-.58-.85-1.18-1.69-1.79-2.49C78.23,6.91,62.44-.39,46.31.02,31.45.37,18.4,7.12,10.51,18.53,1.8,31.1.36,47.44.07,60.27c-.95,41.89,8.39,83.88,27,121.42,8.68,17.52,18.49,26.82,29.98,28.43,1.09.15,2.21.23,3.33.23ZM47.54,2c15.09,0,29.71,6.92,38.38,18.24.59.77,1.17,1.58,1.73,2.4,3.42,5.03,6.24,10.9,8.89,18.47h0c.79,2.27,1.59,4.76,2.44,7.62,5.04,16.9,7.62,35.4,7.66,54.99.03,12.04-.92,24.19-2.83,36.09-1.74,10.87-4.34,21.62-7.73,31.96-2.79,8.5-6.56,18.21-13.37,25.73-7.04,7.77-16.77,11.85-25.4,10.63-10.78-1.52-20.09-10.46-28.46-27.34C10.39,143.55,1.13,101.89,2.06,60.32c.28-12.55,1.69-28.51,10.09-40.65C19.68,8.79,32.14,2.36,46.35,2.01c.4,0,.79-.01,1.19-.01ZM97.48,40.78h0,0Z"/>
      <path class="cls-2" d="M101.52,76.5c.05,0,.1,0,.15-.01.55-.08.92-.59.84-1.14-1.92-12.67-5.19-25.18-9.72-37.17-.2-.52-.77-.78-1.29-.58-.52.19-.78.77-.58,1.29,4.48,11.86,7.71,24.23,9.61,36.77.08.5.5.85.99.85Z"/>
      <path class="cls-2" d="M103.43,92.83s.08,0,.11,0c.55-.06.94-.56.88-1.11l-1.29-11.3c-.06-.55-.56-.94-1.11-.88-.55.06-.94.56-.88,1.11l1.29,11.3c.06.51.49.89.99.89Z"/>
      <path class="cls-2" d="M82.31,192.71c.31,0,.62-.15.82-.42,6.87-9.67,11.81-20.91,14.27-32.52.11-.54-.23-1.07-.77-1.19-.54-.12-1.07.23-1.19.77-2.41,11.34-7.23,22.33-13.95,31.77-.32.45-.21,1.07.24,1.39.18.12.38.19.58.19Z"/>
      <path class="cls-2" d="M37.87,191.02c.22,0,.43-.07.62-.21.43-.34.51-.97.17-1.4-2.22-2.81-3.84-6.13-4.7-9.61-.13-.54-.68-.86-1.21-.73-.54.13-.86.67-.73,1.21.93,3.75,2.68,7.33,5.07,10.37.2.25.49.38.79.38Z"/>
      <path class="cls-2" d="M30.3,176.44c.12,0,.24-.02.35-.07.52-.2.78-.77.58-1.29l-9.48-25.01c-.2-.52-.78-.78-1.29-.58-.52.2-.78.77-.58,1.29l9.48,25.01c.15.4.53.65.94.65Z"/>
      <path class="cls-2" d="M6.02,52.5s.04,0,.07,0c.55-.04.97-.51.93-1.06-.87-13.38,5.01-26.98,15.35-35.51.43-.35.49-.98.14-1.41-.35-.43-.98-.49-1.41-.14C10.27,23.31,4.11,37.56,5.03,51.56c.03.53.47.94,1,.94Z"/>
    </g>
  </g>
</svg>