<?xml version="1.0" encoding="UTF-8"?>
<svg id="Layer_2" data-name="Layer 2" xmlns="http://www.w3.org/2000/svg" viewBox="0 0 170.43 141.07">
  <defs>
    <style>
      .cls-1 {
        fill: #7f7d2f;
      }

      .cls-2 {
        fill: #a0a041;
      }
    </style>
  </defs>
  <g id="OBJECTS">
    <g>
      <path class="cls-2" d="M8.99,54.93c2.96-2.73,6.18-5.2,8.51-8.52,2.38-3.41,4.08-7.22,6.19-10.8,1.79-3.04,3.9-5.91,6.25-8.55,9.53-10.73,23.12-17.64,37.35-19.27,8.02-.92,15.96.23,23.72,2.28,4.44,1.18,8.8,2.58,13.21,3.87,4.31,1.26,8.66,2.39,12.99,3.58,2.35.64,4.71,1.32,7.08,2.04.24-1.14.42-2.29.52-3.46.23-2.6.09-5.28-.32-7.85-.42-2.6-1.32-5.8-3.57-7.41-.39-.28-.17-.97.35-.82.61.18,1.16.43,1.67.73,1.52.81,2.95,1.6,4.31,2.68,1.37,1.09,2.61,2.32,3.77,3.64,2.27,2.58,4.23,5.42,5.62,8.57,1.36,3.09,2.35,6.26,2.88,9.59,7.48,3.48,14.35,8.04,19.76,14.49,5.42,6.46,8.18,14.09,9.66,22.32,1.57,8.79,2.52,17.68-.2,26.34-2.54,8.11-7.23,15.32-11.81,22.4-2.21,3.41-4.51,6.82-7.35,9.75-2.9,2.99-6.39,5.29-10.17,7.01-7.93,3.61-16.69,5.7-25.22,7.32-8.94,1.71-18.21,2.94-27.33,2.88-2.13-.01-4.26-.07-6.39-.19-1.47-.08-2.94-.26-4.4-.41-7.06-.55-14.16-1.44-21.07-2.8-8.43-1.66-16.15-4.84-22.99-10.06-6.54-4.99-12.21-11.07-17.52-17.32-5.29-6.23-10.17-13.02-12.73-20.87-2.3-7.06-2.47-15.07.47-21.97,1.53-3.59,3.94-6.55,6.8-9.18Z"/>
      <path class="cls-1" d="M77.29,7.54c-9.31,0-18.32,1.48-26.66,4.44C30.16,19.26,14.42,35.75,9.56,55c-4.58,18.16.67,39.5,13.7,55.71h0c.43.54.88,1.07,1.32,1.6,7.34,8.65,16.87,16.11,27.57,21.58,10.64,5.58,22.66,6.7,33.02,7.07,30.17,1.06,52.55-5.77,66.52-20.3,15.01-15.62,18.69-41.74,8.94-63.52-8.56-19.14-26.64-34.96-49.6-43.4-11.24-4.13-22.7-6.21-33.73-6.21ZM91.16,139.07c-1.94,0-3.91-.04-5.93-.11-10.13-.36-21.87-1.45-32.17-6.84-10.47-5.35-19.79-12.65-26.96-21.1-.44-.52-.87-1.04-1.29-1.56h0c-12.65-15.73-17.75-36.4-13.32-53.96,4.7-18.62,19.95-34.57,39.8-41.63,17.78-6.32,38.75-5.7,59.04,1.76,22.45,8.25,40.12,23.68,48.46,42.34,9.42,21.06,5.9,46.28-8.56,61.32-12.64,13.14-32.5,19.79-59.08,19.79Z"/>
      <path class="cls-1" d="M14.4,52.04c-.45,0-.86.31-.97.76-3.21,13.27-1.85,27.42,3.83,39.84.23.5.82.72,1.33.49.5-.23.72-.82.49-1.33-5.49-12.01-6.81-25.7-3.7-38.54.13-.54-.2-1.08-.74-1.21-.08-.02-.16-.03-.24-.03Z"/>
      <path class="cls-1" d="M126.65,27.06c-.35,0-.69.18-.87.51-.27.48-.1,1.09.38,1.36,12.03,6.75,21.88,17.34,27.73,29.84.23.5.83.72,1.33.48.5-.23.72-.83.48-1.33-6.03-12.87-16.17-23.79-28.57-30.74-.15-.09-.32-.13-.49-.13Z"/>
    </g>
  </g>
</svg>