<?xml version="1.0" encoding="UTF-8"?>
<svg id="Layer_2" data-name="Layer 2" xmlns="http://www.w3.org/2000/svg" viewBox="0 0 146 185.55">
  <defs>
    <style>
      .cls-1 {
        fill: #7f7d2f;
      }

      .cls-2 {
        fill: #a0a041;
      }
    </style>
  </defs>
  <g id="OBJECTS">
    <g>
      <path class="cls-2" d="M.57,55.86c-.07-.87-.11-1.75-.1-2.64,0-.3.48-.39.54-.07,1.17,7.04,4.9,13.63,10.4,18.21,1.48,1.23,3.12,2.28,4.84,3.17,1.39-3.42,2.89-6.8,4.5-10.13,7.38-15.23,17.09-29.37,28.72-41.67,5.9-6.25,12.37-12.55,20.41-15.91,6.85-2.87,15.23-3.11,21.66,1.05,4.59,2.97,8.47,8.32,11.69,12.67,3.8,5.14,7.02,10.68,10.2,16.22,9.05,15.8,16.31,32.61,21.68,50,2.69,8.7,4.89,17.55,6.58,26.49.85,4.48,1.56,8.98,2.16,13.49.65,4.86,1.16,9.76.9,14.67-.44,8.22-3.36,15.75-8.49,22.17-4.78,5.99-11.18,10.7-18.1,13.93-17.18,8.02-37.18,7.33-55.67,6.28-9.57-.54-19.55-1.3-28.68-4.42-8.02-2.74-14.68-7.73-19.63-14.61-10.81-15.02-10.88-34.46-8.34-52.04.95-6.56,2.31-13.06,4.06-19.45-.41-.44-.81-.87-1.18-1.32-2.58-3.06-4.55-6.51-5.99-10.25-1.59-4.13-2.34-8.56-2.6-12.96-.14-2.31-.16-4.6-.03-6.9.11-2.03.09-4.02.49-5.99Z"/>
      <path class="cls-1" d="M74.54,185.55c10.96,0,21.92-.55,32.8-1.65,11.75-1.19,23.68-3.47,31.27-12.04,5.02-5.66,7.63-13.87,7.37-23.1-.23-8.01-2.46-15.81-4.92-23.77h0c-6.62-21.39-14.24-42.76-22.65-63.53l-1.12-2.78c-6.6-16.36-14.08-34.91-26.4-47.1C82.19,2.97,67.62-3.35,54.7,1.93c-10.81,4.42-17.1,15.33-21.82,25.42C13.99,67.68,5.86,112.45,9.38,156.84c.42,5.34,1.09,10.93,4.12,15.52,5.3,8.03,15.73,10.18,25.23,11.23,11.88,1.31,23.84,1.96,35.81,1.96ZM64.74,2c9.33,0,18.57,4.9,24.73,11,12.03,11.9,19.43,30.24,25.96,46.43l1.13,2.79c8.39,20.71,15.99,42.03,22.59,63.37h0c2.42,7.82,4.61,15.48,4.83,23.24.25,8.72-2.19,16.44-6.87,21.72-7.14,8.06-18.63,10.23-29.98,11.38-22.64,2.29-45.58,2.18-68.19-.31-9.04-1-18.93-3.01-23.78-10.34-2.77-4.19-3.39-9.5-3.79-14.57-3.49-44.04,4.57-88.47,23.32-128.48,4.56-9.74,10.6-20.26,20.77-24.42,3.03-1.24,6.16-1.79,9.29-1.79ZM140.1,125.28h0,0Z"/>
      <path class="cls-1" d="M135.02,125.43c.11,0,.22-.02.32-.05.52-.18.8-.75.62-1.27l-10.97-31.95c-.18-.52-.75-.8-1.27-.62-.52.18-.8.75-.62,1.27l10.97,31.95c.14.41.53.68.95.68Z"/>
      <path class="cls-1" d="M139.48,139.28c.11,0,.22-.02.32-.05.52-.18.8-.75.62-1.27l-3.03-8.82c-.18-.52-.75-.8-1.27-.62-.52.18-.8.75-.62,1.27l3.03,8.82c.14.41.53.68.95.68Z"/>
      <path class="cls-1" d="M42.69,24.44c.41,0,.79-.25.94-.65,2.5-6.72,7.6-12.46,13.98-15.74.49-.25.69-.85.43-1.35-.25-.49-.85-.69-1.35-.43-6.82,3.5-12.27,9.63-14.94,16.82-.19.52.07,1.09.59,1.29.12.04.23.06.35.06Z"/>
      <path class="cls-1" d="M18.51,163.55c.12,0,.24-.02.36-.07.52-.2.77-.78.57-1.29-4.19-10.81-5.51-22.59-3.81-34.06.08-.55-.3-1.05-.84-1.14-.54-.08-1.05.3-1.14.84-1.75,11.81-.39,23.94,3.93,35.07.15.4.53.64.93.64Z"/>
    </g>
  </g>
</svg>