<?xml version="1.0" encoding="UTF-8"?>
<svg id="Layer_2" data-name="Layer 2" xmlns="http://www.w3.org/2000/svg" viewBox="0 0 465.36 216.34">
  <defs>
    <style>
      .cls-1 {
        fill: none;
      }

      .cls-2 {
        fill: #f6e7d3;
      }

      .cls-3 {
        stroke: #330;
        stroke-miterlimit: 10;
        stroke-width: .5px;
      }

      .cls-3, .cls-4 {
        fill: #330;
      }

      .cls-5 {
        fill: #993;
      }

      .cls-6 {
        opacity: .5;
      }

      .cls-7 {
        fill: #6c5272;
      }
    </style>
  </defs>
  <g id="Layer_2-2" data-name="Layer 2">
    <g>
      <g>
        <path class="cls-7" d="M463.78,123.76c.16,5.18.11,10.86-.32,16.71-10.36,13.04-22.99,2.15-24.42,16.38-1,9.92,7.29,7.56,10.32,13.15,1.32,2.42,1.64,6.34-.21,13.4-6.45,7.91-11.87,13.83-16.39,18.25-.47.46-.92.9-1.37,1.32-.43.41-.84.8-1.25,1.17-.72-.84-1.3-1.67-1.75-2.49-4.12-7.53,2.85-14.28,8.44-21.38,2.91-3.7,1.08-6.79-1.68-9.04-3.01-2.45-7.14-3.88-7.4-3.97,2.49-6.58,5.05-14.17,5.9-19.15.01-.05.02-.11.03-.16,0-.06,0-.14.03-.24s.04-.2.05-.3c.01-.05.02-.11.03-.17.66-3.52,3.89-16.44,15.75-15.27,2.32.23,6.72,1.62,9.05,1.81,2.55.21,5.13-2.12,5.19-10.02Z"/>
        <path class="cls-5" d="M462.74,119.88v-.03c-.45-8.89-1.37-15.83-1.6-18.82-.42-5.47-4.96-30.28-20.83-53.83.07,9.09-1.5,11.17-31.78-1.46-27.04-11.29.5,29.35-25.38,44.79-6.6,3.94-15.06,2.65-20.28-2.99-21.67-23.45,13.9-41.48-19.42-45.32-.44-.05-.88-.1-1.3-.16-1.13-.15-2.22-.31-3.26-.5-.25-.04-.49-.08-.74-.13-.58-.11-1.14-.22-1.69-.34-.48-.1-.94-.2-1.4-.31-1.05-.25-2.06-.52-3.02-.8-1.01-.3-1.97-.62-2.88-.95-.39-.15-.77-.29-1.14-.44-.4-.16-.79-.32-1.17-.49-.81-.35-1.57-.71-2.29-1.09-.28-.15-.56-.3-.83-.45-.15-.09-.3-.17-.45-.26-.12-.06-.23-.13-.34-.2-.26-.15-.51-.31-.76-.47s-.49-.32-.73-.48c-.23-.16-.46-.32-.69-.49-.45-.32-.87-.65-1.27-.99-.19-.15-.37-.3-.54-.46-.24-.21-.48-.42-.7-.64-.15-.14-.29-.28-.42-.41-.19-.19-.37-.38-.55-.57-.15-.17-.31-.34-.45-.51-.46-.52-.87-1.06-1.25-1.59-.13-.17-.25-.35-.37-.53-.01-.01-.01-.02-.02-.03-.19-.3-.38-.59-.56-.89-.18-.31-.35-.61-.51-.92-.11-.21-.21-.42-.31-.62-.08-.18-.16-.35-.24-.52-.01-.03-.03-.07-.04-.1-.09-.21-.17-.41-.25-.61-.12-.3-.22-.59-.32-.88-.09-.28-.18-.57-.26-.85-.16-.56-.29-1.11-.4-1.64h0c-.01-.06-.02-.11-.03-.16-.05-.27-.09-.53-.12-.78-.02-.13-.04-.25-.05-.38-.03-.22-.05-.43-.07-.64-.01-.03-.01-.06-.01-.08-.02-.28-.04-.55-.05-.81-.1-2.3.24-3.85.28-4-12.97,8.19-19.92,17.1-19.92,17.1l-2.56.35c-5.1-3.24-10.45-5.49-15.68-5.89-9.2-.71-27.73,11.17-43.18,29.26-7.96,9.31-15.11,20.26-19.74,31.99-.64,1.63-1.24,3.27-1.78,4.92-.73,2.2-1.36,4.42-1.88,6.66-.13.57-.25,1.13-.37,1.7-.24,1.12-.45,2.24-.63,3.37-.09.57-.17,1.14-.25,1.71-.15,1.14-.28,2.27-.37,3.41-.08,1.07-.15,2.14-.18,3.22-.02.55-.03,1.1-.03,1.65,0,.71,0,1.43.03,2.14.02.52.04,1.04.07,1.55.03.57.07,1.14.12,1.71.04.52.1,1.04.16,1.57.01.17.03.34.06.52.06.52.13,1.03.21,1.55.02.11.03.23.05.34,0,0-.07.2-.17.57-.23.84-.61,2.53-.61,4.54,0,.27.01.55.03.83.01.18.02.37.04.56.01.19.03.38.06.57,0,.03.01.07.02.1.02.2.05.41.1.62v.04c.04.2.09.4.14.61.12.5.27,1,.47,1.5.09.24.19.47.3.7.11.24.23.47.36.7.09.17.19.34.3.5.05.08.1.16.16.24.53.78,1.19,1.54,2.02,2.23.19.16.39.32.6.47,6.22,4.56,47.43,34.48,69.04,33.51,3.24-.14,6.03-.97,8.2-2.69,1.99-1.57,3.77-3.02,5.35-4.33,5.26-4.38,8.37-7.38,10.2-9.36.94,4.06,2.13,5.53,4.76,6.28,2.62.76,9.05-1.51,11.56.76,2.5,2.26,3.46,6.94,3.22,10.98l.36.34c1.88-2.05,3.5-4.25,4.74-6.58.37-.71.73-1.41,1.06-2.11.01-.02.01-.03.01-.03.56-1.18,1.05-2.34,1.48-3.5,0,0,0,.04.04.13.02.04.03.08.05.14h0c.02.07.05.14.07.22.02.05.04.11.06.17.24.68.67,1.84,1.26,3.15.12.28.25.57.39.86.08.18.17.36.26.54.15.29.3.59.46.88.15.28.3.55.46.82.31.54.64,1.07,1,1.57.18.25.36.49.55.73.5.64,1.04,1.2,1.61,1.64.07.06.15.12.22.17.07.06.15.11.22.15.15.1.3.19.46.27.15.08.3.15.46.21.16.06.31.11.47.15.15.04.31.06.46.08.4.04.82.04,1.27-.01.03.01.04.01.07,0,.1-.01.21-.02.31-.04.11-.02.23-.03.35-.06.16-.03.32-.06.49-.11,1.11-.28,2.31-.81,3.48-1.64.1-.07.21-.14.31-.22.72-.53,1.42-1.17,2.08-1.94.16-.18.31-.36.46-.55.23-.28.44-.57.64-.87.17-.25.34-.51.51-.78.14-.23.28-.47.41-.72.12-.2.22-.41.32-.62.11-.21.21-.43.31-.66.1-.21.19-.42.27-.64.16-.36.3-.74.42-1.13.06-.17.12-.35.17-.52.16-.47.3-.97.42-1.49.05-.22.1-.44.15-.67.1-.46.18-.92.26-1.41.06-.41.12-.82.17-1.24.03-.21.05-.43.07-.65.03-.22.05-.44.06-.66.02-.13.03-.27.03-.4.03-.31.05-.62.05-.94.02-.46.03-.93.03-1.41,0-2.4-.22-5.07-.71-8.01-.33-1.97-.38-3.82-.18-5.54.05-.51.12-1.02.22-1.51.11-.57.24-1.11.4-1.64.16-.53.34-1.04.54-1.54.13-.31.27-.62.41-.92.06-.12.11-.24.18-.35.33-.66.7-1.29,1.11-1.87.19-.29.4-.58.62-.85.31-.39.64-.76.97-1.11.16-.18.33-.35.51-.51.33-.32.66-.62,1-.88.17-.14.34-.27.51-.4.18-.13.35-.25.53-.37.19-.13.38-.25.56-.36.08-.05.17-.1.26-.15.09-.06.17-.11.26-.15.18-.1.36-.2.55-.29.68-.34,1.37-.61,2.05-.81.19-.05.38-.11.58-.15.98-.24,1.96-.33,2.89-.27.13,0,.25.01.38.03.59.06,1.16.19,1.7.37.15.05.29.11.43.17.31.13.62.28.91.46.21.13.41.27.61.43.3.23.58.49.84.77.14.15.27.31.39.48.17.21.33.44.47.69.07.1.13.21.18.32.24.43.45.91.62,1.43.48,1.46.7,3.24.58,5.37-.01.3-.04.61-.07.92-.05.48-.11.98-.2,1.5-.02.14-.04.28-.07.42-.06.33-.13.67-.2,1.02h0c-.01.07-.02.13-.04.19-.05.26-.11.53-.18.81-3.82,15.67-5.89,29.23-3.34,34.7.09.19.19.37.3.54.11.17.23.34.37.5.07.08.14.15.22.23.15.15.31.29.48.42.33.24.7.45,1.11.6.08.04.16.06.25.09.09.03.17.06.26.08.09.02.17.04.26.06.17.04.35.07.53.09h.05c.19.02.39.03.59.03.38,0,.78-.03,1.2-.11.12-.02.23-.04.35-.07.26-.06.54-.13.83-.23.09-.03.19-.06.29-.1.03,0,.05-.01.08-.02.09-.04.19-.07.28-.11.03-.01.05-.02.08-.04.15-.06.31-.13.46-.2.11-.05.21-.1.32-.15.13-.06.26-.12.39-.2.11-.06.22-.12.33-.18.11-.06.22-.12.34-.2.33-.2.67-.42,1.02-.67.19-.13.39-.28.6-.44.19-.14.38-.29.57-.44.84-.68,1.72-1.49,2.63-2.45.02-.02.03-.03.05-.05-.68-6.68-1.09-13.82-1.02-20.78,0-.35,0-.69.01-1.02,0-.17.01-.35.01-.53.03-1.34.07-2.67.14-3.98.03-.66.07-1.32.11-1.97.03-.45.06-.91.1-1.35.04-.52.08-1.04.13-1.55.01-.1.02-.2.03-.29.04-.5.09-1,.15-1.49.07-.64.15-1.28.23-1.91.16-1.26.35-2.51.57-3.72,0-.03.01-.06.01-.09v-.05c.08-.35.14-.7.21-1.04.06-.31.12-.62.19-.93.03-.17.07-.34.11-.5.06-.29.12-.57.19-.85.06-.28.13-.56.2-.84.14-.55.29-1.1.44-1.63.2-.72.41-1.42.64-2.1.1-.3.21-.59.31-.88.1-.3.21-.59.33-.88.11-.29.22-.57.34-.85.23-.57.47-1.11.73-1.64.12-.27.25-.53.39-.79.13-.25.26-.51.4-.75.13-.24.27-.49.42-.73v-.02s.02-.02.02-.02c.17-.28.35-.56.52-.83.12-.18.24-.35.36-.52.19-.28.39-.55.6-.82.23-.29.46-.58.7-.85.05-.06.1-.11.15-.17.24-.27.48-.52.73-.77.21-.2.42-.4.64-.6.23-.2.46-.4.7-.58h.01s.01-.02.01-.02c.33-.26.67-.5,1.02-.73.14-.1.29-.19.43-.27.17-.1.34-.2.51-.29.2-.11.41-.22.62-.32.18-.09.37-.18.56-.25.17-.08.34-.15.52-.21.26-.1.52-.19.79-.27.11-.04.22-.07.32-.1.19-.06.39-.11.59-.15.15-.04.3-.07.46-.1.15-.03.29-.06.45-.08.3-.05.61-.09.92-.12.14-.02.27-.03.41-.04.36-.03.73-.05,1.11-.05.59,0,1.17,0,1.74.01.38,0,.75.01,1.12.03.44,0,.87.03,1.3.05.65.04,1.29.08,1.91.14.04,0,.08,0,.12,0,.31.03.61.05.9.09.68.07,1.33.15,1.98.25.32.04.64.1.95.15.85.14,1.68.3,2.47.49.21.04.42.09.62.15.65.16,1.28.33,1.89.52.31.09.61.19.9.29.13.04.25.08.37.13.44.15.87.31,1.29.48.43.17.85.35,1.26.54.14.06.29.13.43.2.37.17.74.36,1.09.55.22.11.44.23.65.36.12.06.25.14.37.22.29.17.58.35.86.53.3.19.59.39.87.6.28.2.56.41.83.62.36.28.72.58,1.06.89.32.29.63.59.94.89.06.06.11.12.16.17.25.26.49.52.73.79.31.35.6.71.88,1.08h.01c.11.16.22.3.33.46.12.17.24.33.35.5.07.1.14.2.21.31.12.18.23.36.34.54.13.2.25.41.37.62.12.21.24.42.35.64.33.63.64,1.28.91,1.94l.03.07c.43,1.05.79,2.13,1.08,3.24.07.27.14.53.2.8.07.3.14.61.2.93.05.25.1.5.14.75.1.59.19,1.19.26,1.79.04.35.08.7.11,1.05.02.3.04.59.06.89s.04.6.05.9c.01.29.02.58.02.88.05,2.75-.18,5.55-.62,8.35.05-.28.12-.61.21-.99.02-.09.04-.18.06-.27.13-.56.3-1.21.52-1.91l.02-.06c.31-1.01.72-2.13,1.25-3.27.12-.25.24-.5.37-.75.14-.28.29-.56.45-.84.16-.29.33-.57.5-.84.4-.65.85-1.27,1.35-1.86.06-.09.14-.17.22-.25h.01s.03-.07.07-.09c.06-.09.14-.17.22-.25.17-.19.35-.38.54-.55.14-.15.3-.29.46-.42.2-.18.4-.35.61-.51.11-.09.23-.17.35-.26.14-.11.27-.21.43-.3h.01c.22-.15.44-.29.68-.42.23-.14.47-.26.72-.37.19-.1.38-.18.58-.25.02-.02.05-.03.08-.03.07-.04.15-.07.23-.09.01-.02.02-.02.04-.02.19-.08.37-.14.58-.2.32-.1.65-.19.99-.26.15-.03.3-.06.46-.08.03-.02.07-.03.12-.02.07-.02.14-.04.22-.04.02-.01.04-.01.06-.01.09-.02.17-.03.27-.03.11-.03.22-.04.35-.04h.01c.13,0,.25-.02.38-.03.73-.05,1.51-.04,2.33.04,2.32.23,6.72,1.62,9.05,1.81,2.55.21,5.13-2.12,5.19-10.02-.04-1.38-.1-2.72-.16-4.02ZM233.15,99.51c1.34-.33,2.88,1.25,3.44,3.53.55,2.28-.08,4.4-1.43,4.72-1.34.33-2.88-1.25-3.44-3.53-.55-2.28.09-4.39,1.43-4.72ZM215.86,99.53c1.41-1.88,3.45-2.73,4.55-1.9,1.11.83.87,3.03-.54,4.9-1.41,1.88-3.45,2.73-4.55,1.9-1.11-.82-.87-3.02.54-4.9Z"/>
        <path class="cls-5" d="M463.46,140.47c-.7,9.64-2.47,19.74-6.16,28.84-2.05,5.1-4.72,9.89-8.15,14.09,1.85-7.06,1.53-10.98.21-13.4-3.03-5.59-11.32-3.23-10.32-13.15,1.43-14.23,14.06-3.34,24.42-16.38Z"/>
        <path class="cls-7" d="M441.19,47.06c.07,9.09-1.5,11.17-31.78-1.46-27.04-11.29.5,29.35-25.38,44.79-6.6,3.94-15.06,2.65-20.28-2.99-21.67-23.45,13.9-41.48-19.42-45.32-36.25-4.18-31.34-26.59-31.2-27.17,6.11-3.86,13.55-7.56,22.24-10.08.24.58,9.06,21.61,31.88,24.34,3.98.48,6.82,4.08,6.44,8.06-.79,8.29-.5,20.22,7.67,20.53,11.69.44,7.13-41.23,18.35-37.61,1.61.52,2.82,1.86,3.37,3.46,2.16,6.35,10.68,26.16,29.46,14.3l.52-1.52c3,3.47,5.7,7.06,8.13,10.67Z"/>
        <path class="cls-5" d="M383.53,176.92c-.05-.46-.1-.92-.15-1.39-.07-.61-.13-1.23-.2-1.86-2.73-26.87-1.14-61.16,18.52-61.32,29.55-.24,34.8,17.52,32.09,34.89-.01.06-.02.12-.03.17,0,.1-.03.2-.05.3s-.03.18-.03.24c-.01.05-.02.11-.03.16-.85,4.98-3.41,12.57-5.9,19.15.26.09,4.39,1.52,7.4,3.97,2.76,2.25,4.59,5.34,1.68,9.04-5.59,7.1-12.56,13.85-8.44,21.38.45.82,1.03,1.65,1.75,2.49-8.54,7.88-13.37,9.87-15.56,10.25-5.88,1.04-20.27.96-25.51-10.49-.16-.36-.33-.78-.51-1.26-.34-.93-.69-2.09-1.06-3.45-.22-.81-.44-1.69-.66-2.65h0c-1.13-4.78-2.27-11.19-3.16-18.33l-.15-1.29Z"/>
        <path class="cls-5" d="M433.06,36.39l-.52,1.52c-18.78,11.86-27.3-7.95-29.46-14.3-.55-1.6-1.76-2.94-3.37-3.46-11.22-3.62-6.66,38.05-18.35,37.61-8.17-.31-8.46-12.24-7.67-20.53.38-3.98-2.46-7.58-6.44-8.06-22.82-2.73-31.64-23.76-31.88-24.34,14.45-4.22,32.34-5.21,53.22,1.67,19.35,6.38,33.78,17.47,44.47,29.89Z"/>
        <path class="cls-5" d="M386.84,196.54c.22.96.44,1.84.66,2.65,0,0-19.04,4.69-22.19,2.46-3.15-2.24,5.48-7.28,5.3-10.86s-16.98,7.39-12.93,0c1.99-3.61,8.22-7.01,14.07-9.55,1.66-.47,3.14-1.11,4.42-1.78,0,0,.01,0,.02,0,4.01-1.53,7.12-2.46,7.34-2.53l.15,1.29-.79.09-5.64,7.97c-1.26,1.78-.72,4.26,1.16,5.36l8.43,4.9h0Z"/>
        <path class="cls-7" d="M386.84,196.53l-8.43-4.9c-1.88-1.1-2.42-3.58-1.16-5.36l5.64-7.97.79-.09c.89,7.14,2.03,13.55,3.16,18.32Z"/>
        <g class="cls-6">
          <path class="cls-4" d="M386.84,196.54h0c-1.13-4.78-2.27-11.19-3.16-18.33-.05-.43-.1-.86-.15-1.29-.22.07-3.33,1-7.34,2.53-.01,0-.02,0-.02.01-1.28.67-2.76,1.31-4.42,1.78-5.85,2.54-12.08,5.94-14.07,9.55-4.05,7.39,12.75-3.58,12.93,0,.18,3.58-8.45,8.62-5.3,10.86,3.15,2.23,22.19-2.46,22.19-2.46-.22-.81-.44-1.69-.66-2.65Z"/>
        </g>
        <path class="cls-7" d="M383.18,173.67c.07.63.13,1.25.2,1.86-.68.05-1.35.11-2.02.16,0,0-1.88,2-5.17,3.76,0,0-.02,0-.02,0-1.4.53-2.89,1.13-4.42,1.78-3.75,1.07-8.43,1.3-13.75-.78-8.3-3.25-13.67-.77-19.91-1.34h-.02c-1.27-.12-2.57-.37-3.94-.81-7.88-2.54-4.75-12.42-4.56-12.99,0-.02,0-.03,0-.03.56-1.18,1.05-2.34,1.48-3.5,0,0,3.58,11.36,8.5,11.88,5.27.55,15.97-6.1,12.4-27.39-3.58-21.29,26.33-29.01,20.32-4.29-3.82,15.67-5.89,29.23-3.34,34.7,1.47,3.16,6.74,4.85,14.24-3.02Z"/>
        <path class="cls-7" d="M323.77,174.01c-2.27,2.48-4.94,4.75-7.83,6.82-2.65,1.9-5.48,3.63-8.35,5.18l-.17-.31.78-4.28h.01l1.02-5.59c.63-3.39-1.53-6.69-5.04-7.72l-10.52-3.1c5.26-4.38,8.37-7.38,10.2-9.36.94,4.06,2.13,5.53,4.76,6.28,2.62.76,9.05-1.51,11.56.76,2.5,2.26,3.46,6.94,3.22,10.98l.36.34Z"/>
        <path class="cls-5" d="M304.19,168.11c3.51,1.03,5.67,4.33,5.04,7.72l-1.02,5.59h-.01l-.78,4.28.17.31c-6.04,3.3-12.29,5.84-17.44,7.65l-.17-.46,1.6-9.31c.54-3.2-1.35-6.32-4.45-7.3l-9.08-2.86.31-.98c1.08-.43,1.76-.69,1.76-.69v-.03c3.24-.14,6.03-.97,8.2-2.69,1.99-1.57,3.77-3.02,5.35-4.33l10.52,3.1Z"/>
        <path class="cls-2" d="M296.49,93.86l11.25,3.38c.33.1.64.23.93.4.19-.28.37-.56.53-.85.18-.28.34-.57.49-.87,1.67-3.13,2.62-6.7,2.62-10.49s-.88-7.11-2.44-10.15c-3.69-7.23-11.21-12.18-19.89-12.18-11.56,0-21.07,8.78-22.21,20.05-.04.33-.07.68-.08,1.02-.02.34-.04.68-.03,1.03l2.97.89,22.34,6.71,3.52,1.06ZM294.35,86.84c-.07-.1-.14-.21-.2-.31h0s-.03-.07-.05-.1c-.02-.03-.03-.06-.04-.09-.07-.14-.13-.29-.18-.44-.02-.05-.04-.1-.05-.16-.11-.34-.16-.71-.16-1.09,0-2.14,1.73-3.88,3.87-3.88s3.88,1.74,3.88,3.88c0,.13-.01.27-.02.4-.01.1-.02.19-.05.29l-.03.15c-.02.11-.04.22-.08.32-.03.12-.08.24-.13.35-.05.13-.12.26-.19.39-.04.07-.08.13-.12.2-.07.1-.14.21-.23.31-.04.05-.08.1-.13.15-.1.12-.21.24-.34.34-.05.05-.1.09-.15.13-.13.1-.26.2-.4.28-.14.08-.29.16-.45.23-.12.05-.24.1-.37.14-.04.01-.09.03-.14.04-.17.06-.36.09-.54.11-.07.01-.14.02-.21.02-.1.02-.2.02-.3.02-.26,0-.51-.02-.75-.08-.13-.02-.26-.05-.39-.09h-.01c-.18-.06-.35-.13-.52-.21-.17-.08-.33-.17-.48-.27,0,0-.01,0-.02-.01-.19-.13-.38-.29-.55-.46-.18-.17-.33-.36-.47-.56Z"/>
        <path class="cls-4" d="M297.54,80.76c2.14,0,3.88,1.74,3.88,3.88s-1.74,3.87-3.88,3.87-3.87-1.73-3.87-3.87,1.73-3.88,3.87-3.88Z"/>
        <path class="cls-7" d="M278.05,173.73l9.08,2.86c3.1.98,4.99,4.1,4.45,7.3l-1.6,9.31.17.46c-4.42,1.56-8.04,2.59-10.03,3.09-7.63,1.91-1.72-13.09-1.72-13.09,0,0-.05,0-.14,0-.74.03-4.46.09-12.5-1.22-7.52-1.24,7.33-7.58,12.6-9.7l-.31.98Z"/>
        <path class="cls-4" d="M237.47,102.9c.55,2.28-.08,4.4-1.43,4.72-1.34.33-2.88-1.25-3.44-3.53-.55-2.28.09-4.39,1.43-4.72s2.88,1.25,3.44,3.53Z"/>
        <path class="cls-2" d="M229.23,55.21c.94.54,1.08,1.34,1.7,2.03-7.96,9.31-14.26,18.76-18.89,30.49-.55-.2-1.11-.47-1.68-.8-7.3-4.21-8.95-15.02-3.68-24.15,5.27-9.12,15.24-11.79,22.54-7.57Z"/>
        <path class="cls-4" d="M221.29,97.49c1.11.83.87,3.03-.54,4.9-1.41,1.88-3.45,2.73-4.55,1.9-1.11-.82-.87-3.02.54-4.9s3.45-2.73,4.55-1.9Z"/>
        <g>
          <path class="cls-4" d="M381.36,177.19c-.78,0-1.44-.6-1.49-1.39-.06-.83.56-1.55,1.38-1.61l2.02-.16c.82-.06,1.54.56,1.61,1.39.06.83-.56,1.55-1.39,1.61l-2.02.16s-.08,0-.11,0Z"/>
          <path class="cls-3" d="M283.08,132.88c-.09,0-.19,0-.28-.03-19.34-3.66-44.83-6.03-75.76-7.03-92-3-204.04,6.95-205.16,7.06-.84.07-1.55-.53-1.63-1.36-.07-.82.53-1.55,1.36-1.63,1.12-.1,113.34-10.07,205.52-7.06,31.08,1.01,56.73,3.39,76.22,7.09.81.15,1.35.94,1.19,1.75-.14.72-.77,1.22-1.47,1.22Z"/>
          <path class="cls-4" d="M279.09,173.56c-21.1,0-57.95-25.8-68.89-33.82-6.85-5.02-5.21-13.37-4.55-15.81.03-.11.06-.21.08-.29-1.74-11.54-.08-23.81,4.93-36.46.31-.77,1.18-1.15,1.95-.84.77.31,1.15,1.18.84,1.95-4.86,12.27-6.44,24.13-4.7,35.24l.06.37-.12.36s-.06.18-.14.46c-.54,1.98-1.88,8.72,3.43,12.61,22.54,16.53,52.29,33.93,68.09,33.22,3.05-.13,5.52-.93,7.33-2.37,1.77-1.4,3.51-2.81,5.33-4.31,4.41-3.67,7.79-6.78,10.06-9.22,1.88-2.04,2.28-2.84,2.29-2.88.3-.77,1.15-1.13,1.92-.84.77.3,1.15,1.19.85,1.97-.1.27-.62,1.35-2.87,3.78-2.35,2.54-5.83,5.74-10.34,9.49-1.83,1.52-3.59,2.94-5.38,4.35-2.32,1.84-5.37,2.85-9.06,3.01-.36.02-.73.02-1.1.02Z"/>
          <path class="cls-4" d="M325.04,92.34c-.83,0-1.5-.67-1.5-1.5,0-.19-.07-18.78-5.52-27.84-4.3-7.17-15.75-21.49-28.18-29.38-5.36-3.41-10.4-5.31-14.99-5.66-8.01-.61-25.89,9.96-41.92,28.74-.54.63-1.48.7-2.12.17-.63-.54-.7-1.48-.17-2.11,15.17-17.76,34.29-30.57,44.44-29.78,5.08.39,10.59,2.45,16.37,6.12,12.96,8.22,24.53,22.67,29.14,30.37,5.88,9.77,5.94,28.58,5.94,29.38s-.67,1.5-1.5,1.5Z"/>
          <path class="cls-4" d="M233.96,86.14c-.07,0-.14,0-.21-.01-.82-.12-1.39-.87-1.28-1.69,3.87-27.55,34.21-46.98,35.49-47.79.7-.44,1.63-.23,2.07.47.44.7.23,1.63-.47,2.07-.3.19-30.45,19.51-34.12,45.67-.11.75-.75,1.29-1.48,1.29Z"/>
          <path class="cls-4" d="M265.76,62.77c-.32,0-.64-.1-.91-.31-.66-.5-.79-1.44-.28-2.1,11.93-15.62,24.35-9.05,24.47-8.98.73.4.99,1.31.59,2.04-.4.72-1.31.99-2.03.59-.44-.24-10.36-5.31-20.65,8.17-.29.39-.74.59-1.19.59Z"/>
          <path class="cls-4" d="M214.89,46.09c-.12,0-.23-.01-.35-.04-.81-.19-1.3-1-1.11-1.81.28-1.17,1.01-2.11,2.1-2.73,4.03-2.28,12.67.39,13.64.7.79.25,1.22,1.1.97,1.89-.25.79-1.1,1.22-1.89.97-3.19-1.02-9.07-2.18-11.26-.95-.38.21-.57.46-.66.82-.16.69-.78,1.15-1.46,1.15Z"/>
          <path class="cls-4" d="M212.91,89.63l-1.37-.5c-.62-.22-1.26-.53-1.92-.91-3.93-2.27-6.52-6.28-7.29-11.3-.75-4.9.34-10.19,3.06-14.9,2.69-4.66,6.73-8.07,11.37-9.62,4.6-1.53,9.32-1.11,13.29,1.18.88.51,1.24.89,1.68,1.42.09.11.2.24.33.38l.88.98-.86,1c-8.04,9.41-14.14,19.52-18.63,30.9l-.54,1.36ZM222.2,54.5c-1.48,0-3,.25-4.5.75-3.94,1.31-7.39,4.25-9.72,8.27-2.38,4.12-3.33,8.72-2.69,12.94.62,4.1,2.69,7.35,5.82,9.16.04.02.09.05.13.07,4.39-10.7,10.19-20.29,17.69-29.26-.1-.07-.22-.15-.39-.25-1.94-1.12-4.1-1.69-6.34-1.69Z"/>
          <path class="cls-4" d="M307.93,98.75c-.23,0-.45-.03-.62-.08l-41.11-12.35-.03-1.08c-.01-.38,0-.75.03-1.13.01-.37.04-.77.09-1.15,1.23-12.17,11.42-21.37,23.7-21.37,9,0,17.13,4.98,21.23,13,1.73,3.37,2.6,7.01,2.6,10.83s-.97,7.77-2.8,11.2c-.15.31-.34.64-.54.96-.49.78-1.66,1.17-2.54,1.17ZM308.16,95.8h0s0,0,0,0ZM269.19,84.09l38.8,11.66s.06-.01.1-.02c.09-.16.18-.32.26-.48,1.62-3.03,2.46-6.41,2.46-9.82s-.77-6.52-2.27-9.46c-3.58-7.01-10.69-11.37-18.56-11.37-10.73,0-19.64,8.04-20.72,18.7-.03.27-.06.54-.07.79Z"/>
          <path class="cls-4" d="M297.54,90.01c-2.96,0-5.37-2.41-5.37-5.37s2.41-5.38,5.37-5.38,5.38,2.41,5.38,5.38-2.41,5.37-5.38,5.37ZM297.54,82.26c-1.31,0-2.37,1.07-2.37,2.38s1.06,2.37,2.37,2.37,2.38-1.06,2.38-2.37-1.07-2.38-2.38-2.38Z"/>
          <path class="cls-4" d="M235.68,109.17c-.94,0-1.91-.45-2.73-1.28-.83-.86-1.48-2.07-1.81-3.43-.77-3.18.32-5.99,2.53-6.53,1.17-.29,2.42.15,3.45,1.2.83.86,1.48,2.07,1.81,3.43h0c.45,1.87.26,3.74-.52,5.01-.49.8-1.19,1.33-2.02,1.53-.23.06-.47.09-.71.09ZM234.41,100.83s-.01,0-.02,0c-.19.05-.76,1.13-.33,2.91.41,1.67,1.36,2.45,1.62,2.43.25-.09.74-1.23.33-2.91-.4-1.64-1.33-2.43-1.61-2.43Z"/>
          <path class="cls-4" d="M217.22,106.11c-.72,0-1.38-.21-1.92-.62-.67-.5-1.11-1.26-1.25-2.2-.22-1.47.34-3.26,1.49-4.8,1.15-1.53,2.71-2.57,4.18-2.78.93-.13,1.79.07,2.47.58.68.51,1.12,1.28,1.25,2.23.21,1.47-.35,3.26-1.5,4.78-1.15,1.53-2.71,2.57-4.18,2.78-.19.03-.37.04-.55.04ZM220.26,98.67c-.4,0-1.42.42-2.32,1.62-1.03,1.37-1.03,2.61-.85,2.79.22.12,1.38-.16,2.46-1.59h0c.75-.99,1-2,.92-2.55-.02-.17-.07-.24-.08-.25-.03-.02-.07-.02-.13-.02Z"/>
          <path class="cls-4" d="M261.28,143.5c-.58,0-1.13-.34-1.38-.91-.33-.76.02-1.64.78-1.97.66-.29,16.4-6.96,28.33-1,3.35,1.67,6.94.89,8.94-1.94,2.14-3.02,2.32-8.78-4.21-15.07-.6-.57-.62-1.52-.04-2.12.58-.6,1.53-.61,2.12-.04,7.9,7.6,7.4,14.97,4.58,18.96-2.85,4.03-8.08,5.22-12.73,2.89-10.69-5.34-25.64,1-25.79,1.07-.19.08-.4.12-.59.12Z"/>
          <path class="cls-4" d="M278.68,166.77c-6.4,0-17.31-7.4-19.7-9.08-.68-.48-.84-1.41-.37-2.09.48-.68,1.41-.84,2.09-.37,6.18,4.34,16.19,9.8,19.08,8.35,4.63-2.31,8.94-7.97,8.99-8.02.5-.66,1.44-.79,2.1-.29s.79,1.44.29,2.1c-.19.25-4.77,6.27-10.04,8.9-.7.35-1.53.51-2.46.51Z"/>
          <path class="cls-4" d="M278.89,198.42c-1.5,0-2.42-.64-2.97-1.26-2.92-3.33.39-12.28,1.08-14.04.3-.77,1.18-1.15,1.94-.85.77.3,1.15,1.17.85,1.94-1.68,4.27-2.73,9.7-1.62,10.96.31.35,1.03.26,1.58.12,1.02-.26,4.76-1.24,9.89-3.05,6.32-2.22,12.11-4.76,17.22-7.55,2.98-1.61,5.73-3.32,8.19-5.08.67-.48,1.61-.33,2.09.34.48.67.33,1.61-.34,2.09-2.56,1.84-5.43,3.62-8.51,5.28-5.24,2.86-11.18,5.47-17.66,7.75-5.11,1.8-8.81,2.79-10.16,3.13-.59.15-1.12.21-1.59.21Z"/>
          <path class="cls-4" d="M308.21,182.92c-.83,0-1.5-.67-1.5-1.5s.67-1.5,1.5-1.5h0c.83,0,1.5.67,1.5,1.5s-.67,1.5-1.5,1.5Z"/>
          <path class="cls-4" d="M315.94,182.33c-.47,0-.93-.22-1.22-.63-.48-.67-.33-1.61.35-2.09,2.97-2.13,5.53-4.35,7.6-6.61,1.87-2.04,3.39-4.15,4.52-6.27.35-.68.71-1.36,1.03-2.04.35-.75,1.24-1.07,2-.72.75.35,1.07,1.25.72,2-.34.72-.71,1.44-1.09,2.17-1.25,2.35-2.92,4.67-4.96,6.9-2.21,2.41-4.92,4.77-8.06,7.03-.26.19-.57.28-.87.28Z"/>
          <path class="cls-4" d="M331.06,163.3c-.18,0-.36-.03-.53-.1-.77-.29-1.17-1.16-.87-1.93,5.62-14.84,1.53-27.57,1.49-27.7-.26-.79.17-1.63.95-1.9.79-.26,1.63.16,1.9.95.19.56,4.48,13.83-1.53,29.71-.23.6-.8.97-1.4.97Z"/>
          <path class="cls-4" d="M277.6,185.19c-1.63,0-5.39-.16-12.08-1.25-2.07-.34-3.19-1.17-3.33-2.48-.13-1.19-.4-3.65,15.61-10.1,1.1-.44,1.78-.7,1.78-.7.77-.29,1.64.09,1.94.87.3.77-.09,1.64-.87,1.94,0,0-.68.26-1.74.68-8.42,3.39-12.12,5.66-13.33,6.75.12.03.26.05.42.08,7.93,1.29,11.55,1.23,12.19,1.2.87-.04,1.53.61,1.56,1.44.03.83-.61,1.53-1.44,1.56-.16,0-.4.01-.72.01Z"/>
          <path class="cls-4" d="M425.88,173.52c-.19,0-.38-.04-.56-.11-.77-.31-1.14-1.19-.83-1.95.6-1.47,1.22-3.06,1.85-4.72l.37-.97h1.04c.83,0,1.5.67,1.5,1.5,0,.23-.05.45-.15.65-.62,1.64-1.24,3.21-1.83,4.66-.24.58-.8.94-1.39.94Z"/>
          <path class="cls-4" d="M409.29,216.34c-7.62,0-17.33-2.52-21.58-11.81-.18-.4-.36-.85-.55-1.36-.34-.93-.7-2.09-1.1-3.58-.22-.83-.45-1.73-.67-2.71l-.04-.17c-1.19-5.07-2.31-11.56-3.15-18.31l-.3-2.71c-.04-.33-.07-.67-.11-1.02l-.09-.84c-1.65-16.28-2.8-45.39,8.11-57.56,3.19-3.56,7.19-5.39,11.89-5.43,12.93-.08,22.36,3.18,28.04,9.77,5.39,6.25,7.31,15.53,5.54,26.85-.13.82-.9,1.38-1.71,1.25-.82-.13-1.38-.89-1.25-1.71,1.13-7.27,1.21-17.41-4.85-24.43-5.08-5.89-13.73-8.83-25.75-8.73-3.87.03-7.03,1.48-9.68,4.43-10.52,11.74-8.65,42.54-7.36,55.24l.09.84c.04.34.07.67.11,1l.3,2.68c.84,6.71,1.95,13.16,3.13,18.15l.04.19c.2.88.41,1.68.61,2.43.38,1.41.72,2.5,1.02,3.33.16.44.32.83.47,1.17,4.63,10.13,17.65,10.72,23.88,9.62,1.46-.25,5.65-1.64,13.78-8.94-.39-.53-.73-1.07-1.02-1.6-.4-.73-.13-1.64.59-2.04.72-.4,1.64-.13,2.04.59.4.74.93,1.49,1.57,2.24l.94,1.1-1.06.98c-9.05,8.35-14.11,10.24-16.32,10.63-1.6.28-3.5.47-5.55.47Z"/>
          <path class="cls-4" d="M412.91,186.28c-5.38,0-8.3-3.83-8.76-7.59-.54-4.42,2.17-9.7,9.37-10.86.82-.13,1.59.42,1.72,1.24.13.82-.43,1.59-1.24,1.72-5.27.85-7.25,4.4-6.87,7.54.33,2.69,2.44,5.25,6.51,4.92,1.27-.1,1.59-.26,2.3-.59l.36-.17c2.8-1.32,5.08-3.72,6.41-6.76.52-1.22,1.14-2.67,1.78-4.27.31-.77,1.18-1.14,1.95-.83.77.31,1.14,1.18.83,1.95-.65,1.62-1.28,3.09-1.81,4.34-1.63,3.72-4.43,6.66-7.89,8.29l-.34.16c-.95.45-1.62.74-3.35.88-.33.03-.66.04-.97.04Z"/>
          <path class="cls-4" d="M428.39,203.16c-.53,0-1.04-.28-1.32-.78-4.09-7.48,1.28-14.05,6.47-20.41.71-.87,1.42-1.74,2.11-2.62,1.29-1.64,2.29-3.91-1.45-6.95-2.73-2.22-6.52-3.57-6.94-3.71l-1.46-.5.55-1.44c3.06-8.08,5.13-14.78,5.82-18.87l.02-.09c0-.11.03-.23.05-.36.01-.06.02-.1.03-.14l.04-.26c1.63-8.67,7.03-17.54,17.38-16.52,1.23.12,2.85.51,4.57.92,1.66.39,3.37.8,4.46.89.6.05,1.09-.13,1.54-.54.74-.68,1.99-2.61,2.03-8l3-.03c.18,5.83.07,11.5-.32,16.87l-.03.46-.29.36c-5.3,6.67-11.14,7.52-15.83,8.2-4.92.71-7.64,1.11-8.27,7.4-.51,5.08,1.59,6.13,4.5,7.59,2,1,4.26,2.13,5.65,4.7,1.71,3.14,1.69,7.75-.08,14.5l-.08.31-.21.25c-5.97,7.32-11.52,13.5-16.5,18.38-.59.58-1.54.57-2.12-.02-.58-.59-.57-1.54.02-2.12,4.84-4.74,10.25-10.75,16.07-17.87,1.46-5.71,1.55-9.63.26-11.99-.94-1.74-2.6-2.57-4.36-3.45-3.05-1.53-6.86-3.44-6.14-10.57.87-8.63,5.93-9.36,10.82-10.07,4.29-.62,9.15-1.33,13.63-6.74.14-1.94.23-3.93.29-5.95,0,0-.01,0-.02.01-1.07.98-2.38,1.43-3.81,1.32-1.31-.11-3.14-.54-4.91-.96-1.54-.37-3.14-.75-4.17-.85-10.46-1.04-13.46,10.5-14.13,14.05l-.02.11c-.01.12-.04.23-.06.35l-.07.45c-.85,4.99-3.32,12.28-5.44,17.97,1.64.68,4.26,1.92,6.42,3.67,4.19,3.42,4.87,7.37,1.91,11.13-.7.89-1.42,1.78-2.14,2.66-4.98,6.1-9.28,11.37-6.16,17.07.4.73.13,1.64-.6,2.04-.23.12-.47.18-.72.18Z"/>
          <path class="cls-4" d="M463.78,125.26c-.81,0-1.47-.64-1.5-1.46-.04-1.37-.1-2.7-.16-3.99-.04-.83.6-1.53,1.43-1.57.87-.02,1.53.6,1.57,1.43.06,1.31.12,2.66.16,4.05.02.83-.63,1.52-1.46,1.54-.02,0-.03,0-.04,0Z"/>
          <path class="cls-4" d="M463.62,121.21c-.79,0-1.46-.62-1.5-1.42-.32-6.25-.88-11.61-1.25-15.16-.16-1.51-.29-2.74-.35-3.62-.51-6.61-5.38-30.55-20.58-53.11-2.52-3.75-5.22-7.29-8.02-10.53-11.96-13.9-26.7-23.81-43.8-29.45-18.08-5.96-35.69-6.51-52.33-1.65-7.58,2.2-14.93,5.53-21.86,9.91-12.57,7.94-19.47,16.67-19.54,16.76-.51.65-1.45.77-2.11.26-.65-.51-.77-1.45-.26-2.1.29-.37,7.26-9.21,20.3-17.45,7.17-4.53,14.78-7.98,22.62-10.25,17.23-5.03,35.44-4.47,54.11,1.69,17.63,5.81,32.81,16.02,45.14,30.34,2.88,3.33,5.65,6.97,8.24,10.81,15.56,23.09,20.56,47.74,21.08,54.55.07.86.19,2.06.35,3.54.37,3.58.94,8.99,1.26,15.32.04.83-.59,1.53-1.42,1.57-.03,0-.05,0-.08,0Z"/>
          <path class="cls-4" d="M449.15,184.9c-.33,0-.67-.11-.95-.34-.64-.52-.74-1.47-.21-2.11,3.15-3.86,5.82-8.47,7.92-13.7,3.23-7.96,5.27-17.51,6.06-28.39.06-.83.79-1.44,1.6-1.39.83.06,1.45.78,1.39,1.6-.81,11.19-2.92,21.05-6.27,29.29-2.21,5.51-5.03,10.38-8.38,14.48-.3.36-.73.55-1.16.55Z"/>
          <path class="cls-4" d="M430.14,205.64c-.41,0-.82-.17-1.11-.5-.56-.62-.51-1.56.11-2.12.4-.36.8-.74,1.22-1.14.45-.42.9-.86,1.36-1.31.59-.58,1.54-.57,2.12.02.58.59.57,1.54-.02,2.12-.48.47-.94.92-1.4,1.35-.43.41-.85.81-1.27,1.19-.29.26-.65.39-1,.39Z"/>
          <path class="cls-4" d="M366.07,183.55c-2.86,0-5.74-.56-8.62-1.69-5.13-2.01-9.11-1.69-12.97-1.38-2.07.17-4.21.34-6.46.14h-.09c-1.46-.15-2.85-.43-4.26-.88-2.43-.78-4.2-2.24-5.26-4.34-2.05-4.05-.7-9.14-.33-10.34v-.1l.14-.31c.54-1.15,1.01-2.25,1.43-3.38l1.52-4.1,1.32,4.17c1.37,4.33,4.51,10.55,7.23,10.84,1.6.17,4.32-.56,6.77-3.17,2.46-2.62,6.25-9.02,3.99-22.48-1.61-9.6,3.05-16.27,7.96-19.31,4.29-2.66,8.98-2.86,12.23-.5,2.18,1.58,5.48,5.71,3.08,15.63-5.44,22.3-4.87,30.64-3.44,33.71.35.75.03,1.64-.73,1.99-.75.35-1.64.02-1.99-.73-2.41-5.17-1.35-16.85,3.24-35.69,1.48-6.08.8-10.52-1.92-12.49-2.21-1.6-5.7-1.35-8.88.62-4.08,2.53-7.95,8.13-6.58,16.26,2.35,14-1.3,21.34-4.77,25.03-3.2,3.4-6.87,4.35-9.27,4.1-3.88-.41-6.81-5.61-8.41-9.32l-.03.05c-.22.72-1.43,5.08.12,8.15.7,1.38,1.84,2.3,3.51,2.84,1.17.38,2.34.62,3.56.74h.08c2.01.19,3.96.03,6.02-.13,4-.32,8.53-.69,14.3,1.57,4.27,1.67,8.54,1.93,12.7.76,1.17-.5,2.31-.96,3.42-1.39v-.47h1.13c2.81-1.57,4.45-3.28,4.47-3.3.57-.6,1.52-.63,2.12-.06.6.57.63,1.51.06,2.12-.08.08-1.79,1.89-4.78,3.62v.15l-1.2.45c-1.32.5-2.71,1.06-4.13,1.67l-.18.06c-2.01.57-4.05.86-6.09.86Z"/>
          <path class="cls-4" d="M371.75,182.75c-.65,0-1.25-.43-1.44-1.09-.23-.8.24-1.63,1.03-1.85,1.37-.39,2.76-.95,4.13-1.67.73-.38,1.64-.1,2.02.63.38.73.1,1.64-.63,2.02-1.55.81-3.14,1.45-4.71,1.89-.14.04-.27.06-.41.06Z"/>
          <path class="cls-4" d="M368.83,203.72c-1.96,0-3.54-.24-4.39-.84-.96-.68-1.24-1.52-1.31-2.11-.21-1.88,1.42-3.72,3.15-5.67.95-1.07,2.17-2.45,2.64-3.47-1.17.24-3.18,1-4.51,1.5-4.01,1.52-6.91,2.61-8.33.97-1.19-1.36-.13-3.3.27-4.03,1.82-3.3,6.8-6.73,14.79-10.21.76-.33,1.64.02,1.97.78s-.02,1.64-.78,1.97c-9.18,3.99-12.33,7.04-13.35,8.9-.06.12-.12.22-.17.32,1.19-.25,3.21-1.01,4.53-1.51,3.99-1.51,6.31-2.31,7.77-1.35.59.39.94,1.01.98,1.75.11,2.21-1.76,4.33-3.58,6.37-.89,1-2.37,2.67-2.41,3.3.01,0,.03.02.06.04,1.55,1.09,12.09-.51,20.96-2.69.81-.2,1.62.29,1.81,1.1.2.8-.29,1.62-1.1,1.82-3.48.86-13.04,3.07-19.02,3.07Z"/>
          <path class="cls-4" d="M376.19,180.96c-.6,0-1.17-.37-1.4-.97-.29-.77.09-1.64.87-1.94,2.4-.92,5-1.81,7.32-2.53l.32-.1h.23c.83,0,1.5.67,1.5,1.5,0,.71-.49,1.3-1.15,1.46h-.03c-2.26.7-4.79,1.58-7.13,2.47-.18.07-.36.1-.54.1Z"/>
          <path class="cls-4" d="M375.8,94.15c-4.85,0-9.68-1.97-13.15-5.73-10.82-11.71-8.05-22.36-6.02-30.14,1.13-4.33,2.02-7.75.43-10.07-1.58-2.3-5.8-3.82-12.9-4.64-14.15-1.63-23.92-6.18-29.05-13.51-5.13-7.34-3.61-14.76-3.45-15.46.14-.68.75-1.2,1.47-1.2.83,0,1.5.67,1.5,1.5l-.04.36c-.02.07-1.51,6.67,3,13.1,4.62,6.58,13.67,10.7,26.91,12.22,8.24.95,12.87,2.78,15.03,5.92,2.36,3.45,1.27,7.66,0,12.53-1.95,7.5-4.38,16.84,5.32,27.34,4.73,5.12,12.48,6.26,18.41,2.72,12.13-7.24,11.79-20.38,11.53-30.95-.18-7-.32-12.52,3.21-14.93,2.48-1.7,6.3-1.39,11.99.99,13.12,5.47,25.66,10.27,28.56,8.32.98-.66,1.16-2.5,1.14-5.46,0-.83.66-1.51,1.49-1.51.85,0,1.5.66,1.51,1.49.03,3.44-.14,6.41-2.46,7.97-3.55,2.39-10.89.51-31.39-8.04-4.54-1.9-7.62-2.33-9.14-1.29-2.18,1.49-2.05,6.54-1.9,12.38.27,10.75.64,25.46-12.99,33.6-2.78,1.66-5.9,2.47-9,2.47Z"/>
          <path class="cls-4" d="M381.56,59.27c-.09,0-.17,0-.26,0-2.39-.09-4.37-1.02-5.9-2.76-3.03-3.46-4.1-9.99-3.21-19.41.3-3.17-2-6.05-5.13-6.43-23.24-2.78-32.45-23.73-33.07-25.21-.24-.53-.17-1.18.25-1.64.56-.61,1.5-.66,2.11-.11l.26.24.13.31c.35.85,8.82,20.81,30.67,23.42,4.73.57,8.21,4.92,7.75,9.69-.79,8.32.09,14.41,2.48,17.15.97,1.11,2.2,1.68,3.76,1.74,4.56.16,6.27-9.86,7.81-18.7,1.5-8.64,2.8-16.1,6.64-18.42,1.29-.78,2.74-.92,4.3-.41,1.98.64,3.6,2.29,4.33,4.4,1.37,4.02,5.35,13.63,12.91,16.3,4.22,1.49,9.04.56,14.33-2.78.7-.44,1.63-.23,2.07.47.44.7.23,1.63-.47,2.07-6.11,3.86-11.8,4.89-16.93,3.08-8.79-3.11-13.24-13.74-14.75-18.16-.42-1.22-1.32-2.16-2.41-2.52-.94-.3-1.47-.09-1.83.12-2.67,1.61-4.04,9.45-5.24,16.37-1.81,10.42-3.69,21.19-10.62,21.19Z"/>
          <path class="cls-4" d="M386.05,103.61c-.62,0-1.2-.38-1.41-1-.28-.78.13-1.64.91-1.92,17.51-6.2,16.71-23.97,16.66-24.72-.05-.83.58-1.54,1.41-1.58.81-.05,1.54.58,1.58,1.41.01.21,1.01,20.76-18.66,27.72-.17.06-.33.09-.5.09Z"/>
          <path class="cls-4" d="M463.78,125.27h-.01c-.83,0-1.5-.68-1.49-1.51,0-1.19-.04-2.5-.16-3.89v-.08s0-.07-.01-.11c-.09-.82.5-1.59,1.33-1.68.82-.09,1.56.48,1.65,1.3,0,.07.01.14.02.21v.22c.13,1.39.18,2.78.17,4.06,0,.82-.68,1.49-1.5,1.49Z"/>
          <path class="cls-4" d="M342.72,138.68s-.06,0-.09,0c-.83-.05-1.46-.76-1.41-1.58.48-8.25,3.13-14.08,7.89-17.3,7.18-4.87,16.35-1.89,16.73-1.76.79.26,1.21,1.11.95,1.9-.26.78-1.11,1.21-1.9.95-.13-.04-8.2-2.62-14.12,1.41-3.94,2.68-6.14,7.72-6.56,14.98-.05.8-.71,1.41-1.5,1.41Z"/>
          <path class="cls-4" d="M386.84,198.04c-.26,0-.52-.07-.75-.2l-8.43-4.9c-1.26-.74-2.16-1.98-2.47-3.41-.31-1.43,0-2.93.84-4.12l5.64-7.97c.48-.68,1.42-.83,2.09-.36.68.48.84,1.42.36,2.09l-5.64,7.97c-.36.51-.49,1.13-.36,1.75.13.62.51,1.13,1.05,1.45l8.43,4.9c.72.42.96,1.33.54,2.05-.28.48-.78.75-1.3.75Z"/>
          <path class="cls-4" d="M289.98,194.7c-.08,0-.17,0-.26-.02-.82-.14-1.37-.92-1.22-1.73l1.6-9.31c.41-2.45-1.06-4.87-3.42-5.62l-9.28-2.93c-.79-.26-1.21-1.11-.95-1.9.26-.79,1.11-1.21,1.9-.95l.18.06,9.05,2.85c3.79,1.2,6.14,5.06,5.48,8.98l-1.6,9.31c-.13.73-.76,1.25-1.48,1.25Z"/>
          <path class="cls-4" d="M307.42,187.21c-.09,0-.18,0-.27-.02-.82-.15-1.36-.93-1.21-1.74l.78-4.28c.15-.82.94-1.36,1.74-1.21.82.15,1.36.93,1.21,1.74l-.78,4.28c-.13.72-.76,1.23-1.47,1.23Z"/>
          <path class="cls-4" d="M308.21,182.93c-.09,0-.18,0-.27-.02-.81-.15-1.35-.93-1.21-1.74l1.02-5.59c.49-2.62-1.23-5.2-3.99-6.01l-10.52-3.1c-.79-.23-1.25-1.07-1.01-1.86.23-.79,1.07-1.25,1.86-1.02l10.52,3.1c4.24,1.24,6.86,5.3,6.09,9.43l-1.02,5.58c-.13.72-.76,1.23-1.47,1.23Z"/>
          <path class="cls-4" d="M323.41,175.17s-.06,0-.09,0c-.83-.05-1.46-.76-1.41-1.59.25-4.15-.85-8.08-2.73-9.78-1.04-.94-3.82-.65-6.06-.42-1.85.19-3.61.37-4.91,0-3.24-.92-4.76-2.85-5.8-7.38-.19-.81.32-1.61,1.12-1.8.81-.19,1.61.32,1.8,1.12.88,3.8,1.81,4.64,3.71,5.18.75.22,2.29.06,3.77-.09,2.98-.3,6.35-.65,8.38,1.18,3.1,2.8,3.95,8.13,3.71,12.18-.05.8-.71,1.41-1.5,1.41Z"/>
          <path class="cls-4" d="M373.37,180.84c-.43,0-.83-.04-1.2-.1-2.07-.34-3.74-1.58-4.59-3.41-.35-.75-.02-1.64.73-1.99.75-.35,1.64-.02,1.99.73.25.54.89,1.48,2.36,1.72,2.5.41,5.93-1.46,9.44-5.14.57-.6,1.52-.62,2.12-.05.6.57.62,1.52.05,2.12-4.66,4.89-8.36,6.13-10.89,6.13Z"/>
        </g>
        <g class="cls-6">
          <path class="cls-4" d="M292.34,32.91l18.6-16.21s26.3,56.47,14.74,74.83c0,0,1.95-38.75-33.34-57.35v-1.27Z"/>
        </g>
        <g class="cls-6">
          <path class="cls-4" d="M335.13,141.99s15.7,35.26,33.02,6.33c17.32-28.93,15.5-29.1,24.84-32.99l-4.43,5.18-6.41,18.9-.79,20.3,2.17,17.2-11.78,4.32c-7.89.61-15.66-1.27-15.66-1.27l-8.92-1.14-13.04.63-4.57-5.79-.77-4.03,4.55-13.17.79-14.98,1,.51Z"/>
        </g>
        <g class="cls-6">
          <path class="cls-4" d="M406.77,183.69s11.92,10.08,22.73-.25c10.81-10.32,23.72-31.3,19.65-42.27-4.07-10.97-14.18-19.23-23.27-24.48l1.87,3.02,6.67,11.66.33,11.86-3.3,16.53-4.3,12.25-4.48,8.82-7.47,4-8.42-1.15Z"/>
        </g>
        <g class="cls-6">
          <path class="cls-4" d="M258.4,156.46s9.85,13.47,20.9,12.52,12.37-13.33,12.37-13.33l-8.59,7.65-8.16,1.36-5.27-2.32-11.24-5.88Z"/>
        </g>
        <g class="cls-6">
          <path class="cls-4" d="M261.58,141.99l9.54-2.49,10.41-.72,8.82,2.62,6.36-.64,4.08-6.99v-3.89s4.08,6.35,0,12.63c-4.08,6.28-11,4.93-17.2,2.3-6.2-2.62-11.52-4.39-22.01-2.83Z"/>
        </g>
        <g class="cls-6">
          <path class="cls-4" d="M404.81,75.27c3.7,4.59,3.04,32.13-16.57,28.13l-2.19-.54,8.51-4.83,5.6-4.65,1.97-7.63,2.68-10.49Z"/>
        </g>
        <g class="cls-6">
          <path class="cls-4" d="M343.74,137.18l1.11-8.37,6.52-9.36h11.76l3.18.29s-14.46,1.65-22.57,17.44Z"/>
        </g>
        <g class="cls-6">
          <path class="cls-4" d="M265.76,60.88l6.13-5.77,7.95-3.81,8.48,2.1s-10.27-1.73-22.03,8.39l-.53-.9Z"/>
        </g>
        <g class="cls-6">
          <path class="cls-4" d="M206.43,124.57l-.74,4.81c-.06.37.01.75.2,1.07l.99.52c.31.54.9.86,1.53.82,0,0,1.93-5.95,57.7-1.89,2.02.15-2.43-1.35-4.44-1.54l-53.46-5.17c-.87-.08-1.65.52-1.78,1.39Z"/>
        </g>
        <g>
          <path class="cls-5" d="M204.38,64.01c4.98-9.12,17-13.87,23.9-9.65l2.4,1.52-3.14,4.59-23.16,3.54Z"/>
          <path class="cls-4" d="M202.53,65.3l.97-1.77c2.88-5.27,8.31-9.52,14.18-11.09,4.21-1.12,8.16-.74,11.12,1.07l3.29,2.08-3.97,5.8-25.59,3.91ZM222.3,53.8c-1.3,0-2.68.19-4.1.57-4.67,1.25-9.04,4.36-11.82,8.32l20.59-3.15,2.31-3.37-1.52-.97c-1.52-.93-3.38-1.4-5.45-1.4Z"/>
        </g>
        <path class="cls-4" d="M211.63,65.96c2.14,0,3.88,1.74,3.88,3.88s-1.74,3.87-3.88,3.87-3.87-1.73-3.87-3.87,1.73-3.88,3.87-3.88Z"/>
      </g>
      <g>
        <path class="cls-5" d="M212.23,60.66l-7.58,1.06c-1.52.21-2.55,1.75-2.32,3.43h0c.24,1.68,1.66,2.87,3.17,2.66l18.29-2.56,4.93-6.61-7.52,1.13-8.97.88Z"/>
        <path class="cls-4" d="M205.16,69.34c-2.11,0-3.99-1.68-4.31-3.98-.17-1.18.1-2.36.74-3.31.68-1,1.69-1.65,2.85-1.81l7.58-1.06c.81-.12,1.58.46,1.69,1.28.12.82-.46,1.58-1.28,1.69l-7.58,1.06c-.41.06-.67.35-.78.52-.23.34-.32.77-.26,1.22.12.86.78,1.48,1.48,1.39l17.67-2.48,2.37-3.18-3.91.59c-.83.12-1.58-.44-1.71-1.26-.12-.82.44-1.58,1.26-1.71l11.12-1.68-7.48,10.03-18.91,2.65c-.19.03-.37.04-.56.04Z"/>
      </g>
      <g class="cls-6">
        <path class="cls-4" d="M313.04,98.82l-43.33-16.18c-1.81-.68-3.82.24-4.5,2.05l-.33.89c-.68,1.81.24,3.82,2.05,4.5l1.23.46c-1.42,9.81,4.11,19.62,13.78,23.22l.52.19c9.66,3.61,20.27-.18,25.62-8.51l2.17.81c1.81.68,3.82-.24,4.5-2.05l.33-.89c.68-1.81-.24-3.82-2.05-4.5Z"/>
      </g>
      <g>
        <path class="cls-5" d="M263.05,88.85h43.6c0,11.88-9.64,21.52-21.52,21.52h-.56c-11.88,0-21.52-9.64-21.52-21.52h0Z" transform="translate(52.83 -93.34) rotate(20.47)"/>
        <path class="cls-4" d="M288.89,112.66c-2.72,0-5.44-.49-8.06-1.47h0s-.52-.2-.52-.2c-5.76-2.15-10.34-6.42-12.89-12.01s-2.77-11.85-.62-17.61l.52-1.4,43.66,16.3-.52,1.41c-2.15,5.76-6.42,10.34-12.01,12.89-3.05,1.39-6.29,2.09-9.55,2.09ZM281.87,108.38c9.87,3.68,20.85-.95,25.18-10.37l-37.93-14.16c-1.34,4.6-1,9.48,1.02,13.89,2.22,4.87,6.2,8.58,11.21,10.45l.52.19Z"/>
      </g>
      <g>
        <path class="cls-5" d="M268.77,87.01l-2.96-1.1c-1.81-.68-2.73-2.69-2.05-4.5l.33-.89c.68-1.81,2.69-2.73,4.5-2.05l43.33,16.18c1.81.68,2.73,2.69,2.05,4.5l-.33.89c-.68,1.81-2.69,2.73-4.5,2.05l-9.19-3.43-31.18-11.64Z"/>
        <path class="cls-4" d="M310.36,103.81c-.58,0-1.17-.1-1.74-.32l-9.19-3.43c-.78-.29-1.17-1.15-.88-1.93.29-.78,1.16-1.17,1.93-.88l9.19,3.43c1.03.38,2.18-.14,2.57-1.17l.33-.89c.19-.5.17-1.04-.05-1.53-.22-.48-.62-.85-1.12-1.04l-43.33-16.18c-1.03-.38-2.18.14-2.57,1.17l-.33.89c-.19.5-.17,1.04.05,1.53.22.49.62.86,1.12,1.04l2.96,1.1c.78.29,1.17,1.15.88,1.93-.29.78-1.16,1.17-1.93.88l-2.96-1.1c-1.25-.47-2.25-1.39-2.8-2.61-.55-1.21-.6-2.57-.13-3.82l.33-.89c.96-2.58,3.84-3.9,6.43-2.93l43.33,16.18c1.25.47,2.24,1.39,2.8,2.61.55,1.21.6,2.57.13,3.82l-.33.89c-.75,2.01-2.66,3.25-4.69,3.25Z"/>
      </g>
      <g>
        <line class="cls-1" x1="287.07" y1="93.84" x2="272.79" y2="88.51"/>
        <path class="cls-4" d="M287.07,95.34c-.17,0-.35-.03-.52-.1l-14.27-5.33c-.78-.29-1.17-1.15-.88-1.93.29-.78,1.16-1.17,1.93-.88l14.27,5.33c.78.29,1.17,1.15.88,1.93-.23.6-.8.98-1.41.98Z"/>
      </g>
    </g>
  </g>
</svg>