<?xml version="1.0" encoding="UTF-8"?>
<svg id="Layer_2" data-name="Layer 2" xmlns="http://www.w3.org/2000/svg" viewBox="0 0 431.85 779.52">
  <defs>
    <style>
      .cls-1 {
        opacity: .3;
      }

      .cls-2 {
        opacity: .4;
      }

      .cls-3 {
        fill: #f6e7d3;
      }

      .cls-4 {
        fill: #b0a690;
      }

      .cls-5 {
        fill: #c7b299;
      }

      .cls-6 {
        fill: #e5e0da;
      }

      .cls-7 {
        fill: #330;
      }

      .cls-8 {
        fill: #854428;
      }

      .cls-9 {
        opacity: .48;
      }

      .cls-10 {
        fill: #a8a29f;
      }

      .cls-11 {
        fill: #958573;
      }
    </style>
  </defs>
  <g id="Layer_2-2" data-name="Layer 2">
    <g>
      <g>
        <g>
          <path class="cls-6" d="M421.32,408.76c-16.69-9.61-52.72-28.59-95.36-40.24-56.84-55.61-125.49-44.46-145.18-48.37-.03-.01-.08-.02-.12-.03,26.94-83.16-10.19-145.72-10.86-146.85h-.02c-9.91-5.97-19.51-10.55-27.34-11.96-29.16-5.29-30.07-21.19-32.56-45.17-.89-8.58,2.86-14.83,8.03-19.31,1.36.26,2.77.35,4.18.32,1.59-.03,3.19-.24,4.79-.65l.52-.13c7.9-2,13.67-8.14,15.55-15.53.06-.23.13-.49.19-.74v-.02c.26-1.23.43-2.5.46-3.77l-3.56.92-3.32.84c-.8.21-1.62-.28-1.81-1.09-.01-.06-.04-.12-.03-.19-.07-.52.15-1.04.55-1.36.16-.12.35-.23.55-.28l2.61-.66,2.87-.72,2.04-.52,2.01-.5c.63-.17,1.12-.62,1.35-1.18.16-.38.19-.82.09-1.25l-.23-.91c-.04-.15-.1-.29-.17-.42-.17-.33-.42-.61-.76-.81-.46-.26-.99-.35-1.51-.22l-1.56.4-6.11,1.55-1.13.28-1.94.51-1.54.38-3.05.78-5.86,1.5-23.36,5.93-.26.07c-1.06.27-1.72,1.36-1.45,2.44l.24.91c.13.52.46.95.91,1.23.46.28,1,.35,1.51.22l1.02-.26.35-.09,1.68-.43c.11-.03.22-.04.33-.04.67-.01,1.31.43,1.5,1.12v.02c.2.8-.28,1.6-1.08,1.81l-1.42.36-1.64.41c-1.29.34-2.64.14-3.78-.54-1.15-.68-1.96-1.77-2.3-3.07l-.23-.93c-.67-2.67.94-5.39,3.61-6.06l.14-.04c-.43-1.86-.61-3.76-.53-5.65l-1.99.5c-1.29.34-2.63.14-3.78-.54-1.15-.68-1.96-1.77-2.3-3.07l-.23-.93c-.53-2.07.33-4.18,1.99-5.34.49-.34,1.03-.58,1.61-.74l3.19-.81,5.68-1.44.63-.17c.8-.21,1.62.28,1.83,1.08.19.8-.28,1.62-1.09,1.81l-3.5.89-3.92,1-2.08.53c-1.06.27-1.72,1.36-1.44,2.42l.23.93c.13.52.46.95.91,1.23.46.26,1,.35,1.51.22l1.3-.32,1.74-.44,29.54-7.52,1.53-.38,1.87-.48,2.21-.57,1.74-.44,2.59-.66.99-.24,1.33-.34c1.06-.27,1.71-1.37,1.44-2.43l-.23-.93c-.13-.51-.46-.95-.92-1.22-.05-.02-.09-.05-.14-.07-.42-.22-.9-.27-1.37-.15l-1.79.47-.33.07-.94.25c-.62.15-1.24-.09-1.59-.58-.1-.14-.2-.32-.24-.51v-.02c-.07-.31-.04-.64.07-.91v-.02c.16-.38.46-.69.87-.83.04-.02.09-.05.14-.05l3.06-.77c.39-.09.78-.16,1.17-.14.91-.04,1.83.2,2.63.68.23.14.43.28.63.44.8.67,1.38,1.58,1.65,2.62l.23.93c.21.79.21,1.57.04,2.32-.1.4-.23.78-.42,1.15-.08.17-.18.35-.29.51-.66,1.01-1.69,1.77-2.94,2.08l-1.25.32s.05.09.07.13c.93,1.6,1.64,3.28,2.13,5,0,.03.01.06.03.09l1.4-.36c1.23-.33,2.51-.17,3.61.46.07.02.12.04.17.08.48.28.89.63,1.24,1.04.41.46.73,1.01.92,1.6.05.14.1.29.13.43l.23.93c.08.32.14.64.14.96.04.76-.09,1.51-.37,2.18l3.56-.92c1.57-.74,3.15-1.35,4.7-1.85,2.37-.77,4.8-1.23,7.25-1.37.32-.04.65-.06.97-.05,3.66-.13,7.32.45,10.82,1.65.37.13.75.26,1.14.39.27-1.22.44-2.46.49-3.74l-6.6,1.68c-.77.21-1.55-.26-1.74-1.03-.21-.77.26-1.55,1.03-1.74l7.21-1.83,1.88-.48c1.03-.26,1.65-1.31,1.39-2.33l-.22-.88c-.13-.49-.44-.91-.88-1.17-.44-.25-.95-.33-1.45-.2l-1.48.37-13.19,3.36-1.65.41c-.2-.42-.41-.86-.62-1.33-.09-.18-.19-.36-.26-.54-.17.01-.37,0-.54-.04-.23-.04-.47-.1-.67-.2-.12-.03-.24-.07-.33-.12h-.02s-.05-.04-.09-.05c-.02-.03-.04-.03-.05-.04,0-.02-.02-.01-.02-.01-.14-.07-.27-.17-.38-.26-.05-.02-.09-.05-.13-.09-.28-.21-.52-.46-.72-.77-.86-1.24-.86-2.83-.13-4.04.02-.05.06-.11.1-.16-.21-.38-.42-.78-.63-1.18l-1.19.29c.32-.23.65-.44,1.01-.61-.02-.01-.04-.04-.04-.07-.18-.29-.34-.6-.52-.91l15.63-3.97.94-.25,1.27-.32c1.03-.26,1.65-1.3,1.39-2.31l-.23-.9c-.13-.49-.44-.91-.88-1.16-.44-.27-.96-.34-1.45-.21l-2.04.52-.9.23c-.76.19-1.54-.28-1.74-1.03-.18-.73.23-1.47.91-1.71-4.9-6.06-13.05-9.06-21.09-7l-.52.13c-.97.25-1.9.55-2.79.93-12.94-15.99-32.31-30.24-57.58-21.92-.64.2-1.28.42-1.92.66-3.96,1.46-8.06,3.48-12.31,6.12-6.59,4.12-11.73,8.78-15.62,13.84-1.98,2.55-3.63,5.23-4.98,8-21.29,43.37,30.56,108.6,51.95,132.76,10.56,11.93,19.08,25.53,24.83,40.39,6.16,15.87,9.99,34.73,2,48.66-16.69,29.1-70.42,22.7-101.64,60.46-30.45,36.79-45.78,100.13,0,152.11,19.55,22.21,73.21,61.26,135,71.75,5.63.97,11.36,1.69,17.12,2.12.05,0,.08.02.13.01,3.19.25,6.41.42,9.64.48.65.02,1.31.04,1.97.03,5.97.08,11.99-.18,18.01-.78h.02c4.14-.4,8.31-.98,12.47-1.74,1.12-.2,3.55-.69,6.79-1.34,5.39-1.13,13.01-2.8,20.51-4.6h.02c10.53-2.55,20.77-5.36,23.98-7.36l92.21,75.79c6.12,2.96,13.49-.1,15.64-6.57,7.82-23.58,13.2-73.13,1.62-124.07,18.89-12.91,37.22-30.5,43.26-52.41,2.07-7.53-1.14-15.53-7.91-19.44Z"/>
          <path class="cls-4" d="M212.74,551.05h-.02c-6.02.79-12.04,1.12-18.01,1.02v.94s-.01,191.22-.01,191.22c0,.57-.39,1.08-.99,1.29l-12.64,2.22-10.09,1.77c-1.66.62-1.08,2.79.73,2.73l11.47,6.28c1.3-.04,2.14,1.2,1.46,2.15l-8.45,12.06c-.9,1.29.84,2.76,2.3,1.92l18.91-5.11c.75-.45,1.75-.26,2.26.38l8.47,6.96c.9,1.15,2.97.61,2.99-.78l-3.11-21.29c-.38-2.69-.55-5.43-.46-8.16l5.2-195.61Z"/>
          <path class="cls-4" d="M164.88,715.26l-22.73,4c-1.66.62-1.08,2.79.73,2.73l11.47,6.28c1.3-.04,2.14,1.2,1.46,2.15l-8.45,12.06c-.9,1.29.84,2.74,2.3,1.92l18.92-5.13c.73-.43,1.74-.24,2.25.4l8.47,6.96c.42.54,1.12.7,1.73.58.67-.14,1.25-.64,1.26-1.37v-.04s-3.11-21.23-3.11-21.23c-.38-2.69-.53-5.44-.44-8.17l4.38-164.98s-.08,0-.13-.01c-5.76-.56-11.48-1.5-17.12-2.76v165.33c0,.57-.39,1.06-.98,1.29Z"/>
        </g>
        <path class="cls-8" d="M306.76,216.41c7.98,24.74-5.89,20.26-10.52,18.2-.04-.03-.07-.04-.12-.06-.43-.2-.87-.42-1.31-.64-21.63-10.87-40.85-35.22-79.72-75.69-10.82-11.27-20.5-20.21-28.99-27.3,1.68.76,108.96,49.18,120.66,85.48Z"/>
        <g class="cls-9">
          <path class="cls-2" d="M113.36,138.32s-2.72,28.96,31.57,34.95c34.29,5.99,37.21,7.96,37.21,7.96l-68.78-42.9Z"/>
        </g>
        <path class="cls-7" d="M184.49,60.39c.5,1.99-.31,4-1.92,5.11-.45.31-.97.56-1.54.7l-2.48.63c.02-.48.02-.98,0-1.48l2.13-.54c1.79-.45,2.87-2.28,2.42-4.07l-.22-.88c-.45-1.79-2.28-2.87-4.07-2.42l-1.37.35c-.09-.47-.2-.93-.34-1.39l1.36-.35c1.23-.31,2.53-.12,3.62.52,1.1.66,1.88,1.7,2.2,2.94l.22.88Z"/>
        <path class="cls-7" d="M183.1,60.74c.45,1.79-.63,3.62-2.42,4.07l-2.13.54c-.01-.48-.06-.95-.11-1.44l1.88-.48c1.03-.26,1.65-1.31,1.39-2.33l-.22-.88c-.13-.49-.44-.91-.88-1.17-.44-.25-.95-.33-1.45-.2l-1.48.37c-.04-.47-.14-.94-.25-1.42l1.37-.35c1.79-.45,3.62.63,4.07,2.42l.22.88Z"/>
        <path class="cls-7" d="M179.63,45.29c.65,2.54-.9,5.16-3.46,5.81l-1.19.31c-.25-.44-.51-.87-.8-1.28l1.64-.41c1.79-.47,2.87-2.28,2.42-4.07l-.23-.9c-.45-1.79-2.28-2.86-4.07-2.41l-2.5.63c-.3-.43-.6-.83-.91-1.23.05,0,.08-.03.12-.04l2.93-.75c1.23-.31,2.53-.14,3.62.52,1.1.66,1.88,1.69,2.2,2.94l.22.88Z"/>
        <path class="cls-7" d="M178.24,45.64c.45,1.79-.64,3.61-2.42,4.07l-1.64.41s-.06-.09-.09-.13c-.06-.09-.12-.17-.18-.24l.56-.14c-.08-.32-.17-.66-.27-.98l1.27-.32c1.03-.26,1.65-1.3,1.39-2.31l-.23-.9c-.13-.49-.44-.91-.88-1.16-.44-.27-.96-.34-1.45-.21l-2.04.52c-.25-.44-.53-.88-.82-1.28l2.5-.63c1.79-.45,3.62.62,4.07,2.41l.23.9Z"/>
        <path class="cls-7" d="M177.43,57.79c.11.48.2.95.25,1.42l-13.19,3.36c.49-.51.88-1.11,1.14-1.78l11.8-3.01Z"/>
        <path class="cls-7" d="M171.24,65.74l7.21-1.83c.05.49.09.96.11,1.44l-6.96,1.77-1.39.35c-.21-.77.26-1.55,1.03-1.74Z"/>
        <path class="cls-7" d="M177.43,57.79l-11.8,3.01c.19-.5.31-1.03.37-1.59l11.09-2.81c.14.46.25.92.34,1.39Z"/>
        <path class="cls-3" d="M177.1,56.4l-11.09,2.81c0-.15.02-.29,0-.44,0-.58-.09-1.14-.25-1.66v-.03c-.03-.14-.04-.28-.07-.41-.02-.13-.06-.25-.09-.35-.02-.09-.06-.2-.11-.29l-.05-.14c-.03-.09-.08-.18-.12-.25-.07-.12-.13-.24-.2-.34-.32-.46-.73-.83-1.17-1.09l11.05-2.8c.93,1.6,1.64,3.28,2.11,4.99Z"/>
        <path class="cls-7" d="M171.59,67.12l6.96-1.77c.02.5.02.99,0,1.48l-6.6,1.68c-.77.21-1.55-.26-1.74-1.03l1.39-.35Z"/>
        <path class="cls-7" d="M174.99,51.41l-11.05,2.8c-.34-.19-.7-.34-1.08-.4-.45-.22-.94-.36-1.45-.44l12.77-3.24c.29.42.55.84.8,1.28Z"/>
        <path class="cls-7" d="M174.47,49.61l-.56.14c-.21-.3-.42-.59-.66-.87l.94-.25c.1.32.19.66.27.98Z"/>
        <path class="cls-7" d="M174.1,50s.06.09.09.13l-12.77,3.24c-.28-.05-.57-.07-.86-.07-.27,0-.56.01-.81.05l14.18-3.6c.06.07.12.16.18.24Z"/>
        <path class="cls-7" d="M173.91,49.75l-14.18,3.6c-.36.06-.7.15-1.02.26l-.57.14c-.18-.29-.34-.6-.52-.91l15.63-3.97c.24.28.45.57.66.87Z"/>
        <path class="cls-7" d="M172.27,44.25l-.9.23c-.76.19-1.54-.28-1.74-1.03l1.39-.35.43-.12c.29.4.57.84.82,1.28Z"/>
        <path class="cls-7" d="M171.45,42.97l-.43.12-1.39.35c-.18-.73.23-1.47.91-1.71.31.4.61.8.91,1.23Z"/>
        <path class="cls-10" d="M231.99,547.42c5.39-1.13,13.01-2.8,20.51-4.6-13.83,3.77-22.41,5.24-22.41,5.24l1.9-.65Z"/>
        <path class="cls-3" d="M165.76,57.12c.16.52.26,1.08.25,1.66,0,.14,0,.29,0,.44l-.85.22s.04-.05.05-.07c.09-.14.16-.28.24-.42.06-.14.11-.29.16-.43.02-.07.04-.12.05-.18.06-.15.06-.32.09-.46,0-.07.01-.13.02-.18.01-.13,0-.26,0-.37,0-.07,0-.13,0-.19Z"/>
        <path class="cls-7" d="M165.75,57.08v.03c0,.07,0,.13,0,.19,0,.11,0,.24,0,.37,0,.05-.01.11-.02.18-.02.15-.03.31-.09.46,0,.07-.03.12-.05.18-.04.14-.1.29-.16.43-.07.14-.15.28-.24.42-.01.02-.02.05-.05.07l-3.58.92c-.72-1.49-1.57-3.14-2.51-4.89l4.6-1.18c.98.68,1.72,1.67,2.09,2.81Z"/>
        <path class="cls-7" d="M165.15,59.43l.85-.22c-.05.56-.18,1.09-.37,1.59l-3.41.86c-.09-.18-.19-.36-.26-.54.05,0,.1.02.15,0h.02c.18,0,.35-.01.52-.04s.36-.07.53-.12v-.02c.14-.04.24-.09.36-.14.23-.09.43-.2.63-.34.07-.06.16-.11.23-.18.06-.04.1-.08.15-.14.13-.1.27-.24.36-.38.04-.02.07-.08.1-.1.07-.09.12-.16.15-.25Z"/>
        <path class="cls-7" d="M162.22,61.66l3.41-.86c-.26.67-.65,1.26-1.14,1.78l-1.65.41c-.2-.42-.41-.86-.62-1.33Z"/>
        <path class="cls-7" d="M165.15,59.43c-.03.09-.09.16-.15.25-.03.02-.05.07-.1.1-.09.14-.23.28-.36.38-.05.06-.1.1-.15.14-.07.08-.16.12-.23.18-.2.15-.41.26-.63.34-.12.05-.22.1-.36.14v.02c-.17.04-.35.09-.52.12s-.35.04-.52.04h-.02s-.1,0-.15,0c-.12-.25-.24-.51-.38-.77l3.58-.92Z"/>
        <path class="cls-7" d="M163.94,54.21l-.28.06c-.25-.17-.52-.33-.8-.46.38.07.74.22,1.08.4Z"/>
        <path class="cls-7" d="M163.66,54.28l-4.6,1.18s-.04-.07-.07-.12c.25-.36.56-.69.94-.96.88-.61,1.94-.8,2.93-.57.28.13.55.3.8.46Z"/>
        <path class="cls-7" d="M162.86,53.81c-.98-.23-2.05-.04-2.93.57-.37.27-.69.59-.94.96-.21-.38-.42-.78-.63-1.18l3.04-.78c.51.08,1,.22,1.45.44Z"/>
        <path class="cls-7" d="M161.41,53.37l-3.04.78c-.06-.1-.13-.2-.18-.32.16-.09.34-.15.53-.21l1.02-.26c.25-.04.54-.06.81-.05.29,0,.58.02.86.07Z"/>
        <path class="cls-10" d="M161.58,60.35c.14.27.26.52.38.77-.17.01-.37,0-.54-.04-.23-.04-.47-.1-.67-.2-.12-.03-.24-.07-.33-.12h-.02s-.05-.04-.09-.05c-.02-.03-.04-.03-.05-.04l1.31-.33Z"/>
        <path class="cls-10" d="M161.58,60.35l-1.31.33s-.02-.01-.02-.01c-.14-.07-.27-.17-.38-.26-.05-.02-.09-.05-.13-.09-.28-.21-.52-.46-.72-.77-.86-1.24-.86-2.83-.13-4.04l.17-.04c.94,1.76,1.79,3.4,2.51,4.89Z"/>
        <path class="cls-7" d="M159.73,53.35l-1.02.26c.32-.12.66-.2,1.02-.26Z"/>
        <path class="cls-11" d="M265.11,150.38l-67.6-47.73c-10.92-2.66-21.44-4.1-31.04-3.82-5.42.16-10.54.86-15.3,2.21,0,0-4.72,1.71-10.35,2.72l.04.27s8.93,1.15,26.42,12.74c5.44,3.62,11.71,8.24,18.81,14.14,0,0,0,.02.02.01,1.68.76,108.96,49.18,120.66,85.48,7.98,24.74-5.89,20.26-10.52,18.2,5.13,2.43,10.41,4.09,16.16,5.06,3.46-.55,8.7-.03,10.46-2.24,5.16-6.52-8.32-52.67-57.75-87.05Z"/>
        <path class="cls-10" d="M159,55.34s.04.07.07.12l-.17.04c.02-.05.06-.11.1-.16Z"/>
        <path class="cls-7" d="M158.15,53.76l.57-.14c-.18.06-.37.12-.53.21-.02-.01-.04-.04-.04-.07Z"/>
        <path class="cls-10" d="M158.37,54.15l-1.19.29c.32-.23.65-.44,1.01-.61.05.12.12.22.18.32Z"/>
        <path class="cls-5" d="M339.02,160.25c-11.3-35.6-127.65-78.15-160.95-89.68-.39-.13-.77-.26-1.14-.39-3.5-1.2-7.16-1.78-10.82-1.65-.32-.01-.66.01-.97.05-2.45.14-4.88.6-7.25,1.37-1.54.51-3.13,1.12-4.7,1.85l-.03.02c-3.76,1.77-7.34,4.27-9.65,7.75-.12.18-.23.34-.35.51v.02c-.05.25-.12.5-.18.74-1.89,7.39-7.65,13.53-15.55,15.53l-.52.13c-1.6.4-3.21.62-4.79.65-1.41.04-2.82-.06-4.18-.32-5.17,4.48-8.93,10.73-8.03,19.31,2.49,23.98,3.4,39.88,32.56,45.17,7.83,1.41,17.42,5.99,27.34,11.95h.02c24.68,14.82,51.33,38.18,57.72,42.62,3.1,2.16,49.77,37.98,83.17,24.23.48-.21,1.05-.33,1.7-.44-5.75-.96-11.03-2.63-16.16-5.06-.04-.03-.07-.04-.12-.06-.43-.2-.87-.42-1.31-.64-21.63-10.87-40.85-35.22-79.72-75.69-10.82-11.27-20.5-20.21-28.99-27.3-.02,0-.02-.01-.02-.01-7.09-5.9-13.37-10.52-18.81-14.14-17.49-11.59-26.42-12.74-26.42-12.74l-.04-.27c5.64-1.01,10.35-2.72,10.35-2.72,4.76-1.35,9.88-2.05,15.3-2.21,9.61-.29,20.12,1.15,31.04,3.82,57.96,14.05,127.64,62.04,136.04,67.18,10.89,6.63,5.47-9.58,5.47-9.58Z"/>
        <polygon class="cls-10" points="153.18 71.8 153.16 71.82 149.62 72.71 153.18 71.8"/>
        <path class="cls-10" d="M149.62,72.71l3.53-.89c-3.76,1.77-7.34,4.27-9.65,7.75-.12.18-.23.34-.35.51.27-1.23.43-2.5.46-3.77l2.62-.67c.6-.15,1.14-.39,1.62-.73.79-.55,1.41-1.32,1.76-2.2Z"/>
        <path class="cls-7" d="M149.85,69.57c.08.32.14.64.14.96l-1.5.48c.02-.36,0-.71-.09-1.08l-.23-.93c-.04-.14-.08-.28-.15-.41l1.46-.38c.05.14.1.29.13.43l.23.93Z"/>
        <path class="cls-7" d="M148.5,71.02l1.5-.48c.04.76-.09,1.51-.37,2.18l-.6.15-1.51.39c.58-.59.95-1.37.99-2.23Z"/>
        <path class="cls-7" d="M149.49,68.22l-1.46.38c-.23-.64-.65-1.16-1.18-1.54l1.73-.44c.41.46.73,1.01.92,1.6Z"/>
        <path class="cls-7" d="M149.02,72.86l.6-.15c-.36.88-.97,1.65-1.76,2.2-.48.33-1.01.58-1.62.73l-2.62.67c.03-.5.03-1.03,0-1.54l2.25-.57c.63-.17,1.19-.5,1.63-.94l1.51-.39Z"/>
        <path class="cls-7" d="M148.57,66.62l-1.73.44c-.82-.61-1.87-.84-2.92-.57l-1.45.36-.03-.16,4.71-1.2c.07.02.12.04.17.08.48.28.89.63,1.24,1.04Z"/>
        <g class="cls-1">
          <path d="M143.75,75.65l-7.61,17.33-19.72,4.52c-1.13.26-1.28,1.8-.23,2.29,4.47,2.06,13.64,4.55,23.11-3.16,9.19-7.49,8.45-16.19,7.12-20.82-.36-1.27-2.14-1.38-2.67-.16Z"/>
        </g>
        <path class="cls-7" d="M148.4,69.94c.09.37.12.72.09,1.08l-1.63.54c.16-.38.19-.82.09-1.25l-.23-.91c-.04-.15-.1-.29-.17-.42l1.47-.37c.07.13.11.27.15.41l.23.93Z"/>
        <path class="cls-7" d="M146.86,71.55l1.63-.54c-.04.86-.41,1.64-.99,2.23l-3.9.99c-.02-.33-.04-.67-.1-1l2.01-.5c.63-.17,1.12-.62,1.35-1.18Z"/>
        <path class="cls-7" d="M148.02,68.6l-1.47.37c-.17-.33-.42-.61-.76-.81-.46-.26-.99-.35-1.51-.22l-1.56.4c0-.08,0-.16-.02-.24l4.14-1.04c.53.38.95.91,1.18,1.54Z"/>
        <path class="cls-7" d="M147.15,65.5l-4.71,1.2c-.09-.44-.2-.87-.31-1.3l1.4-.36c1.23-.33,2.51-.17,3.61.46Z"/>
        <path class="cls-7" d="M144.77,53.79c.21.79.21,1.57.04,2.32l-1.74.44c.37-.72.47-1.57.25-2.4l-.23-.93c-.23-.9-.8-1.64-1.53-2.08.03-.18.04-.38-.01-.56l1.34-.35c.8.67,1.38,1.58,1.65,2.62l.23.93Z"/>
        <path class="cls-7" d="M146.84,67.06l-4.14,1.04c-.05-.43-.13-.83-.23-1.25l1.45-.36c1.05-.27,2.1-.04,2.92.57Z"/>
        <path class="cls-7" d="M143.07,56.56l1.74-.44c-.1.4-.23.78-.42,1.15l-2.47.63c.51-.34.9-.8,1.15-1.33Z"/>
        <path class="cls-7" d="M143.6,74.23l3.9-.99c-.44.44-1,.77-1.63.94l-2.25.57c0-.18,0-.35-.02-.53Z"/>
        <path class="cls-7" d="M141.92,57.88l2.47-.63c-.08.17-.18.35-.29.51l-4.91,1.25c-.04-.06-.07-.12-.12-.17l1.73-.44c.42-.1.79-.29,1.12-.52Z"/>
        <path class="cls-7" d="M142.89,50.24l-1.34.35c-.19-.77-.97-1.24-1.74-1.05l-.62.16c.14-.22.29-.42.44-.58.91-.04,1.83.2,2.63.68.23.14.43.28.63.44Z"/>
        <path class="cls-7" d="M139.19,59.02l4.91-1.25c-.66,1.01-1.69,1.77-2.94,2.08l-1.25.32c-.23-.4-.46-.78-.72-1.15Z"/>
        <path class="cls-7" d="M143.32,54.15c.22.83.11,1.68-.25,2.4l-3.89.98c-.03-.08-.06-.15-.07-.25l1.33-.34c1.06-.27,1.71-1.37,1.44-2.43l-.23-.93c-.13-.51-.46-.95-.92-1.22-.05-.02-.09-.05-.14-.07.54-.17.91-.63.99-1.16.73.44,1.3,1.19,1.53,2.08l.23.93Z"/>
        <path class="cls-7" d="M139.18,57.54l3.89-.98c-.25.52-.64.99-1.15,1.33l-2.98.76c-.04-.07-.1-.14-.15-.2l.59-.14c-.06-.25-.13-.51-.2-.75Z"/>
        <path class="cls-7" d="M141.55,50.58c.05.19.05.38.01.56-.24-.17-.5-.29-.77-.37l.76-.19Z"/>
        <path class="cls-7" d="M141.55,50.58l-.76.19c-.61-.21-1.29-.24-1.95-.07l-.39.09c.23-.39.47-.75.74-1.1l.62-.16c.77-.19,1.56.28,1.74,1.05Z"/>
        <path class="cls-7" d="M140.79,50.77c.27.08.53.2.77.37-.08.53-.45.99-.99,1.16-.42-.22-.9-.27-1.37-.15l-1.79.47c.18-.38.39-.77.62-1.14l2.13-.54.63-.17Z"/>
        <path class="cls-7" d="M140.79,50.77l-.63.17-2.13.54c.12-.23.26-.46.42-.68l.39-.09c.66-.17,1.34-.14,1.95.07Z"/>
        <path class="cls-7" d="M138.94,58.64l2.98-.76c-.33.23-.7.42-1.12.52l-1.73.44s-.05-.1-.09-.15c-.02-.01-.02-.04-.04-.06Z"/>
        <path class="cls-7" d="M142.47,66.85c.1.42.18.82.23,1.25l-6.17,1.58c-.16-.39-.29-.79-.42-1.2l6.35-1.63Z"/>
        <path class="cls-7" d="M142.71,68.1c.01.08.03.16.02.24l-6.11,1.55c-.03-.08-.05-.14-.08-.21l6.17-1.58Z"/>
        <path class="cls-7" d="M139.63,49.11c-.15.17-.29.37-.44.58l-3.52.89c-.12-.17-.26-.34-.4-.51.04-.02.09-.05.14-.05l3.06-.77c.39-.09.78-.16,1.17-.14Z"/>
        <path class="cls-7" d="M142.45,66.7l.03.16-6.35,1.63s-.03-.11-.04-.17l6.37-1.61Z"/>
        <path class="cls-7" d="M142.45,66.7l-6.37,1.61c-.13-.43-.25-.84-.35-1.28l6.42-1.64c.1.43.22.86.31,1.3Z"/>
        <path class="cls-7" d="M141.47,73.76l2.04-.52c.05.33.08.66.1,1l-1.48.38c-.11-.37-.34-.68-.65-.86Z"/>
        <path class="cls-7" d="M142.12,74.62l1.48-.38c.01.17.02.35.02.53l-1.48.38c.04-.17.02-.34-.02-.53Z"/>
        <path class="cls-3" d="M142.14,65.4l-6.42,1.64-.02-.11,6.4-1.62s.01.06.03.09Z"/>
        <path class="cls-3" d="M142.11,65.31l-6.4,1.62c-.42-1.8-.59-3.62-.52-5.41l4.8-1.21c.93,1.6,1.64,3.28,2.13,5Z"/>
        <path class="cls-7" d="M142.15,75.15l1.48-.38c.02.51.02,1.04,0,1.54l-3.56.92c-.12-.17-.21-.33-.32-.51l1.34-.35c.6-.15,1-.64,1.07-1.22Z"/>
        <path class="cls-7" d="M135.67,50.59l3.52-.89c-.26.35-.51.71-.74,1.1l-2.22.57c-.17-.26-.36-.52-.56-.78Z"/>
        <path class="cls-7" d="M136.23,51.37l2.22-.57c-.16.22-.3.45-.42.68l-1.46.38c-.11-.18-.21-.33-.34-.49Z"/>
        <path class="cls-3" d="M139.91,60.17l.07.13-4.8,1.21s0-.1,0-.15l4.72-1.2Z"/>
        <path class="cls-7" d="M139.91,60.17l-4.72,1.2c0-.45.05-.91.1-1.35l3.9-1c.25.38.49.76.72,1.15Z"/>
        <path class="cls-7" d="M142.12,74.62c.05.19.06.36.02.53l-2.89.73c-.07-.15-.16-.31-.24-.46l1.7-.44,1.4-.36Z"/>
        <path class="cls-7" d="M142.12,74.62l-1.4.36-1.7.44c-.14-.3-.29-.61-.42-.93l2.87-.72c.32.17.55.49.65.86Z"/>
        <path class="cls-7" d="M139.26,75.87l2.89-.73c-.07.57-.47,1.07-1.07,1.22l-1.34.35-.47-.84Z"/>
        <path class="cls-7" d="M139.18,57.54c.07.25.15.51.2.75l-.59.14c-.17-.23-.33-.46-.49-.67l.88-.22Z"/>
        <path class="cls-7" d="M139.11,57.29c.02.09.04.17.07.25l-.88.22c-.06-.09-.12-.16-.18-.23l.99-.24Z"/>
        <path class="cls-7" d="M136.57,51.86l1.46-.38c-.23.37-.44.76-.62,1.14l-.33.07-.52-.83Z"/>
        <path class="cls-7" d="M139.07,58.84c.06.05.08.12.12.17l-3.9,1c-.01-.08,0-.15.01-.23l3.77-.95Z"/>
        <path class="cls-7" d="M138.98,58.7s.06.1.09.15l-3.77.95c0-.08,0-.15.03-.23l3.61-.92s.02.04.04.06Z"/>
        <path class="cls-7" d="M138.79,58.44c.04.06.1.13.15.2l-3.61.92c0-.08.02-.16.04-.25l3.42-.88Z"/>
        <path class="cls-7" d="M138.3,57.76c.16.21.33.44.49.67l-3.42.88c.02-.28.07-.56.12-.84l2.81-.71Z"/>
        <path class="cls-7" d="M138.3,57.76l-2.81.71c.02-.08.03-.18.04-.28l2.59-.66c.06.07.12.14.18.23Z"/>
        <path class="cls-7" d="M137.09,52.69l-.94.25c-.62.15-1.24-.09-1.59-.58l2.01-.5.52.83Z"/>
        <path class="cls-7" d="M136.57,51.86l-2.01.5c-.1-.14-.2-.32-.24-.51v-.02s1.46-.37,1.46-.37l.45-.1c.12.16.23.32.34.49Z"/>
        <path class="cls-7" d="M136.23,51.37l-.45.1-1.47.37c-.07-.31-.04-.64.08-.91v-.02s1.28-.32,1.28-.32c.2.26.39.52.56.78Z"/>
        <path class="cls-7" d="M139.73,76.71c.11.18.2.34.32.51l-3.32.84c-.8.21-1.62-.28-1.81-1.09l.28-.06c.93.38,1.97.45,2.96.2l1.57-.4Z"/>
        <path class="cls-7" d="M135.67,50.59l-1.28.32c.16-.38.47-.69.88-.83.14.17.28.34.4.51Z"/>
        <path class="cls-7" d="M139.26,75.87l.47.84-1.57.4c-.99.26-2.03.18-2.96-.2l1.17-.3,2.88-.74Z"/>
        <path class="cls-7" d="M139.02,75.41c.07.15.16.31.24.46l-2.88.74-1.17.3c-.1-.05-.21-.09-.31-.13-.07-.52.15-1.04.55-1.36.7.38,1.54.5,2.36.29l1.22-.31Z"/>
        <path class="cls-7" d="M139.02,75.41l-1.22.31c-.82.21-1.66.09-2.36-.29.16-.12.35-.23.55-.28l2.61-.66c.13.32.28.63.42.93Z"/>
        <path class="cls-7" d="M135.52,58.2c0,.1-.02.2-.04.28l-1.67.43-.04-.27,1.74-.44Z"/>
        <path class="cls-7" d="M135.49,58.48c-.05.28-.1.56-.12.84l-1.37.35c-.06-.25-.12-.51-.17-.76l1.67-.43Z"/>
        <path class="cls-7" d="M135.37,59.31c-.02.08-.04.17-.04.25l-1.28.32c-.01-.08-.04-.14-.05-.22l1.37-.35Z"/>
        <path class="cls-7" d="M134.05,59.88l1.28-.32c-.02.08-.02.15-.03.23l-3.5.91c-.33-.03-.66-.1-.95-.23l3.15-.8c.01.08.04.14.05.22Z"/>
        <path class="cls-7" d="M135.3,59.79c0,.08-.02.15-.01.23l-2.35.59c-.39.09-.77.12-1.14.09l3.5-.91Z"/>
        <path class="cls-7" d="M132.94,60.61l2.35-.59c-.06.44-.1.9-.1,1.35l-3.07.79c-.85,0-1.69-.22-2.44-.68-.09-.05-.18-.12-.27-.18l2.39-.6c.38.04.76,0,1.14-.09Z"/>
        <path class="cls-7" d="M136.54,69.68c.03.08.05.14.08.21l-1.13.28c.21-.19.49-.35.8-.43l.25-.06Z"/>
        <path class="cls-3" d="M135.19,61.37s-.02.1,0,.15l-1.88.48c-.39.09-.78.16-1.18.16l3.07-.79Z"/>
        <path class="cls-7" d="M136.54,69.68l-.25.06c-.31.08-.59.24-.8.43l-1.94.51c.21-.79.71-1.46,1.41-1.92l1.16-.28c.13.41.26.81.42,1.2Z"/>
        <path class="cls-3" d="M133.3,62l1.88-.48c-.06,1.79.1,3.61.52,5.41l-.12.04c-.31.08-.61.2-.89.34l-4.17,1.06.02-.48c0-.61-.1-1.19-.27-1.74v-.03c-.03-.14-.04-.28-.07-.42-.02-.13-.06-.25-.09-.35s-.07-.21-.12-.32l-.07-.13c-.03-.11-.08-.18-.12-.27-.07-.12-.13-.24-.2-.34-.35-.49-.78-.87-1.26-1.14l3.78-.97c.4,0,.79-.06,1.18-.16Z"/>
        <path class="cls-7" d="M136.07,68.31c.01.06.04.12.04.17l-1.16.28c.29-.19.62-.33.98-.42l.14-.04Z"/>
        <path class="cls-7" d="M136.07,68.31l-.14.04c-.35.09-.69.22-.98.42l-2.45.62c.48-.9,1.23-1.64,2.18-2.09l1.03-.26c.1.43.22.85.35,1.28Z"/>
        <path class="cls-3" d="M135.7,66.92l.02.11-1.03.26c.28-.14.59-.26.89-.34l.12-.04Z"/>
        <path class="cls-7" d="M134,59.67l-3.15.8c-.43-.17-.83-.44-1.14-.78l1.87-.48c.32.09.67.1,1.01.01l1.23-.31c.06.25.12.51.17.76Z"/>
        <path class="cls-7" d="M133.78,58.64l.04.27-1.23.31c-.34.09-.69.08-1.01-.01l2.21-.57Z"/>
        <path class="cls-7" d="M132.5,69.39l2.45-.62c-.7.45-1.2,1.13-1.41,1.92l-1.54.38c.07-.59.24-1.16.5-1.67Z"/>
        <path class="cls-7" d="M130.52,68.36l4.17-1.06c-.96.44-1.7,1.19-2.18,2.09l-2.37.61c.21-.52.34-1.07.39-1.64Z"/>
        <path class="cls-7" d="M135.2,76.91l-.28.06c-.01-.06-.04-.12-.03-.19.1.03.21.08.31.13Z"/>
        <path class="cls-7" d="M132.12,62.15l-3.78.97c-.32-.19-.66-.33-1.01-.41-.02,0-.03-.01-.05,0-.47-.23-.98-.39-1.51-.48l3.64-.93c.09.07.18.13.27.18.75.46,1.59.69,2.44.68Z"/>
        <path class="cls-7" d="M131.8,60.7l-2.39.6c-.16-.1-.31-.22-.46-.34l1.9-.48c.29.13.63.2.95.23Z"/>
        <path class="cls-7" d="M130.13,70l2.37-.61c-.26.51-.43,1.08-.5,1.67l-3.05.78c.51-.53.9-1.16,1.18-1.85Z"/>
        <path class="cls-7" d="M130.85,60.47l-1.9.48c-.3-.26-.56-.55-.77-.89l1.53-.38c.31.34.71.61,1.14.78Z"/>
        <path class="cls-3" d="M130.27,66.13c.17.55.26,1.13.27,1.74l-.02.48-.88.22.07-.09c.09-.14.16-.3.23-.44s.13-.31.17-.46c.02-.07.04-.12.05-.18.05-.17.08-.32.08-.48.02-.07.03-.13.03-.2.01-.13,0-.26,0-.39,0-.07,0-.14,0-.21Z"/>
        <path class="cls-10" d="M130.2,65.68c.04.14.05.28.07.42v.03c-.38-1.21-1.16-2.25-2.18-2.96l.25-.06c.48.28.91.66,1.26,1.14.06.1.13.22.2.34.05.09.09.16.12.27l.07.13c.05.1.08.21.12.32s.07.23.09.35Z"/>
        <path class="cls-7" d="M130.27,66.13c0,.07,0,.14,0,.21,0,.13,0,.26,0,.39,0,.07-.01.13-.03.2,0,.16-.03.31-.08.48,0,.07-.03.12-.05.18-.04.15-.09.32-.17.46s-.14.3-.23.44l-.07.09-5.09,1.29s-.03-.01-.04-.03c-.14-.07-.28-.16-.41-.25-.04-.04-.09-.07-.13-.11-.28-.21-.53-.49-.76-.81-.9-1.28-.9-2.95-.14-4.22l5.01-1.28c1.01.7,1.79,1.75,2.18,2.96Z"/>
        <path class="cls-7" d="M129.41,61.29l-3.64.93c-.31-.05-.62-.08-.94-.07-.31,0-.6.03-.9.08l5.03-1.28c.15.12.3.24.46.34Z"/>
        <path class="cls-7" d="M129.64,68.58l.88-.22c-.05.57-.19,1.12-.39,1.64l-8.96,2.27c-.44-.35-.82-.78-1.12-1.25l4.5-1.15s.02.01.04.03c.03.01.07.02.1.05.1.05.23.11.34.14.22.09.46.17.71.21.23.04.48.07.7.06h.03c.17-.02.37-.03.55-.06.17-.03.36-.07.54-.12.14-.05.26-.09.38-.16.23-.09.45-.22.66-.36.09-.05.16-.11.23-.18.06-.04.12-.08.17-.14.14-.12.28-.25.38-.4l.08-.11c.07-.08.12-.16.17-.24Z"/>
        <path class="cls-7" d="M128.95,60.95l-5.03,1.28h-.03c-.3.05-.59.13-.86.23l-.09.03-24.47,6.22c.05-.38.1-.76.17-1.12l29.54-7.52c.21.33.47.63.77.89Z"/>
        <path class="cls-7" d="M121.17,72.27l8.96-2.27c-.27.69-.67,1.31-1.18,1.85l-5.86,1.5c-.71-.24-1.37-.6-1.92-1.07Z"/>
        <path class="cls-7" d="M124.55,69.87l5.09-1.29c-.05.07-.1.16-.17.24l-.08.11c-.1.15-.24.28-.38.4-.05.06-.11.1-.17.14-.07.08-.14.13-.23.18-.22.15-.44.28-.66.36-.12.07-.24.1-.38.16-.19.05-.37.09-.54.12-.19.03-.38.05-.55.06h-.03c-.22,0-.47-.02-.7-.06-.25-.04-.48-.11-.71-.21-.12-.03-.24-.09-.34-.14-.04-.03-.07-.04-.1-.05-.02-.01-.03-.01-.04-.03Z"/>
        <path class="cls-7" d="M128.34,63.12l-.25.06c-.25-.17-.5-.32-.77-.47.35.09.7.22,1.01.41Z"/>
        <path class="cls-7" d="M128.09,63.18l-5.01,1.28c.28-.45.65-.86,1.11-1.18.94-.65,2.05-.83,3.09-.58.02,0,.03.01.05,0,.27.15.51.3.77.47Z"/>
        <path class="cls-7" d="M127.28,62.7c-1.04-.25-2.15-.07-3.09.58-.46.32-.83.73-1.11,1.18l-3.36.85c.39-.77.94-1.44,1.63-1.95l4.43-1.14c.53.09,1.04.25,1.51.48Z"/>
        <path class="cls-7" d="M125.77,62.22l-4.43,1.14c.47-.38,1.02-.66,1.59-.87l.09-.03.86-.22h.03c.3-.05.6-.09.9-.09.32,0,.63.03.94.07Z"/>
        <path class="cls-7" d="M123.89,62.24l-.86.22c.27-.09.57-.17.86-.22Z"/>
        <path class="cls-3" d="M124.55,69.87l-4.5,1.15c-.6-.9-.95-1.98-.94-3.14,0-.93.22-1.8.61-2.57l3.36-.85c-.76,1.26-.76,2.93.14,4.22.23.32.48.6.76.81.04.04.09.07.13.11.13.09.27.18.41.25,0,.02.02.01.04.03Z"/>
        <path class="cls-7" d="M98.47,68.71l24.47-6.22c-.58.21-1.13.49-1.59.87l-22.93,5.82c0-.16.03-.31.05-.47Z"/>
        <path class="cls-7" d="M123.09,73.34l-23.36,5.93c-.17-.47-.35-.94-.49-1.42l21.92-5.58c.56.47,1.21.83,1.92,1.07Z"/>
        <path class="cls-7" d="M98.42,69.18l22.93-5.82c-.69.51-1.24,1.18-1.63,1.95l-21.38,5.44c0-.53.02-1.05.08-1.57Z"/>
        <path class="cls-7" d="M121.17,72.27l-21.92,5.58c-.14-.48-.27-.97-.38-1.45l21.18-5.38c.3.47.68.9,1.12,1.25Z"/>
        <path class="cls-3" d="M98.33,70.75l21.38-5.44c-.39.77-.62,1.64-.61,2.57,0,1.16.35,2.24.94,3.14l-21.18,5.38c-.43-1.86-.61-3.76-.53-5.65Z"/>
        <path class="cls-7" d="M104.98,59.31c.19.8-.28,1.62-1.09,1.81l-3.5.89c.27-.61.58-1.19.92-1.77l2.22-.57,1.45-.36Z"/>
        <path class="cls-7" d="M104.98,59.31l-1.45.36-2.22.57c.36-.64.76-1.26,1.21-1.85l.63-.17c.8-.21,1.62.28,1.83,1.08Z"/>
        <path class="cls-7" d="M96.83,59.83l5.68-1.44c-.45.59-.85,1.21-1.21,1.85l-4.71,1.2c.04-.54.13-1.08.24-1.61Z"/>
        <path class="cls-7" d="M105.57,84.45c.19.8-.29,1.6-1.09,1.81l-1.42.36c-.25-.44-.5-.9-.73-1.36l1.79-.45,1.45-.36Z"/>
        <path class="cls-7" d="M105.57,84.44v.02s-1.45.36-1.45.36l-1.79.45c-.22-.45-.44-.91-.63-1.39l.35-.09c.03.06.06.1.11.16l1.91-.63c.67-.01,1.31.43,1.5,1.12Z"/>
        <path class="cls-7" d="M96.6,61.44l4.71-1.2c-.34.59-.65,1.17-.92,1.77l-3.92,1c.03-.53.05-1.05.13-1.58Z"/>
        <path class="cls-7" d="M104.07,83.32l-1.91.63c-.04-.06-.08-.1-.11-.16l1.68-.43c.11-.03.22-.04.33-.04Z"/>
        <path class="cls-7" d="M103.06,86.63l-1.64.41c-1.29.34-2.64.14-3.78-.54-1.15-.68-1.96-1.77-2.3-3.07l-.23-.93c-.67-2.67.94-5.39,3.61-6.06l.14-.04c.11.48.24.97.38,1.45l-.15.04c-1.87.48-2.99,2.38-2.52,4.25l.25.92c.46,1.87,2.37,3.01,4.25,2.52l1.27-.32c.24.46.49.92.73,1.36Z"/>
        <path class="cls-7" d="M102.33,85.27l-1.27.32c-1.88.48-3.78-.66-4.25-2.52l-.25-.92c-.46-1.87.66-3.77,2.52-4.25l.15-.04c.14.48.31.95.49,1.42l-.26.07c-1.06.27-1.72,1.36-1.45,2.44l.24.91c.13.52.46.95.91,1.23.46.28,1,.35,1.51.22l1.02-.26c.19.48.41.95.63,1.39Z"/>
        <path class="cls-7" d="M98.64,67.59c-.07.36-.12.74-.17,1.12l-1.34.35c-.09-.34-.16-.68-.23-1.02l1.74-.44Z"/>
        <path class="cls-7" d="M97.13,69.05l1.34-.35c-.02.16-.05.31-.05.47l-2.44.62c-1.88.48-3.78-.66-4.25-2.52l-.25-.92c-.47-1.88.66-3.78,2.54-4.25l2.58-.66c-.08.53-.1,1.04-.13,1.58l-2.08.53c-1.06.27-1.72,1.36-1.44,2.42l.23.93c.13.52.46.95.91,1.23.46.26,1,.35,1.51.22l1.3-.32c.07.34.14.68.23,1.02Z"/>
        <path class="cls-7" d="M95.98,69.8l2.44-.62c-.06.52-.09,1.04-.08,1.57l-1.99.5c-1.29.34-2.63.14-3.78-.54s-1.96-1.77-2.3-3.07l-.23-.93c-.53-2.07.33-4.18,1.99-5.34.49-.34,1.03-.58,1.61-.74l3.19-.81c-.11.53-.19,1.08-.24,1.61l-2.58.66c-1.88.47-3.01,2.37-2.54,4.25l.25.92c.46,1.87,2.37,3.01,4.25,2.52Z"/>
        <path class="cls-7" d="M179.29,748.63c-.45,0-.9-.15-1.27-.46l-8.47-6.96s-.1-.08-.14-.13c-.1.05-.21.08-.31.11l-18.92,5.13c-1.06.29-2.16-.34-2.45-1.41-.29-1.07.34-2.17,1.41-2.45l18.72-5.08c1.46-.68,3.28-.34,4.37.84l8.34,6.85c.85.7.98,1.96.28,2.81-.4.48-.97.73-1.55.73ZM169.57,741s0,0-.01,0c0,0,0,0,.01,0Z"/>
        <path class="cls-7" d="M182.27,747.79c-.98,0-1.83-.72-1.98-1.71l-3.1-21.23c-.4-2.82-.56-5.69-.46-8.53l4.38-164.97c.03-1.1.93-2.01,2.05-1.95,1.1.03,1.98.95,1.95,2.05l-4.38,164.98c-.09,2.62.05,5.25.42,7.83l3.1,21.22c.16,1.09-.6,2.11-1.69,2.27-.1.01-.2.02-.29.02Z"/>
        <path class="cls-7" d="M180.61,749.25c-1.11,0-2.15-.47-2.85-1.33l-8.35-9.42s-.06.03-.09.04l-18.83,7.68c-1.51.78-3.38.47-4.52-.77-1.06-1.16-1.17-2.8-.28-4.09l7.87-11.23c-.07-.03-.13-.06-.19-.09l-11.07-6.07c-1.53-.19-2.78-1.28-3.08-2.77-.33-1.63.58-3.19,2.22-3.8.11-.04.23-.08.35-.1l22.07-3.88v-164.77c-.01-1.1.88-2,1.99-2s2,.9,2,2v165.33c-.01,1.41-.91,2.64-2.27,3.16-.12.05-.24.08-.37.1l-20.34,3.58,10.02,5.49c1.17.15,2.19.83,2.74,1.85.59,1.1.5,2.42-.22,3.43l-7.34,10.48,17.62-7.19c1.56-.81,3.55-.42,4.63.91l8.37,9.45c1.03-.16,2.04.52,2.25,1.57.23,1.08-.47,2.14-1.55,2.37-.27.06-.55.09-.82.09ZM169.23,738.29s0,0,0,0t0,0ZM154.17,729.28s0,0,0,0h0Z"/>
        <path class="cls-7" d="M208.11,778.89c-.45,0-.9-.15-1.27-.46l-8.47-6.96s-.09-.08-.13-.12c-.11.05-.22.09-.34.13l-18.91,5.11c-1.07.28-2.16-.34-2.45-1.41s.34-2.16,1.41-2.45l18.7-5.05c1.47-.71,3.3-.37,4.4.81l8.34,6.85c.85.7.98,1.96.28,2.81-.39.48-.97.73-1.55.73ZM198.41,771.27s0,0,0,0c0,0,0,0,0,0Z"/>
        <path class="cls-7" d="M209.45,779.52c-1.11,0-2.17-.47-2.87-1.33l-8.35-9.42s-.06.03-.09.04l-18.81,7.68c-1.52.8-3.35.51-4.51-.74-1.08-1.16-1.2-2.82-.29-4.12l7.87-11.23c-.07-.03-.13-.06-.19-.09l-11.07-6.07c-1.53-.19-2.78-1.28-3.08-2.77-.33-1.63.58-3.19,2.21-3.8.12-.04.23-.08.36-.1l22.07-3.88v-190.66c0-1.1.89-2,2-2s2,.9,2,2v191.22c-.02,1.44-.96,2.71-2.34,3.18-.1.04-.21.06-.31.08l-20.33,3.58,10.02,5.49c1.17.15,2.19.83,2.74,1.85.59,1.1.5,2.42-.22,3.43l-7.34,10.48,17.62-7.19c1.56-.81,3.55-.43,4.64.9l7.71,8.7-2.87-19.62c-.41-2.88-.57-5.75-.48-8.52l5.2-195.6c.03-1.1.94-2.02,2.05-1.95,1.1.03,1.98.95,1.95,2.05l-5.2,195.61c-.09,2.56.06,5.18.44,7.83l3.11,21.28c.01.11.02.21.02.32-.02,1.44-.96,2.68-2.4,3.16-.41.14-.83.21-1.25.21ZM198.4,768.68s0,0,0,0c0,0,0,0,0,0ZM198.06,768.55h0s0,0,0,0ZM182.99,759.54s0,0,0,0h0Z"/>
        <path class="cls-7" d="M177.1,57.9c-.66,0-1.26-.44-1.45-1.1-.44-1.6-1.1-3.16-1.96-4.63-.42-.72-.18-1.63.54-2.05.71-.42,1.63-.18,2.05.54.99,1.7,1.75,3.5,2.26,5.35.22.8-.25,1.62-1.05,1.84-.13.04-.27.05-.4.05Z"/>
        <path class="cls-7" d="M165.15,60.93c-.47,0-.93-.22-1.22-.63-.4-.55-.36-1.28.04-1.8,0,0,0,0,0-.01.02-.03.06-.11.1-.19.03-.08.06-.16.08-.24,0,0,0-.02.01-.04.01-.07.03-.14.06-.21v-.07s0,0,0,0c0-.08.01-.15.02-.22,0-.05,0-.1,0-.14,0-.06,0-.16,0-.21h0s0-.08,0-.17c.06-.83.78-1.45,1.61-1.38.81.06,1.42.75,1.39,1.55,0,.03,0,.07,0,.11h0c0,.19,0,.35,0,.52,0,.04,0,.07-.01.11,0,.04-.01.15-.02.19-.02.18-.05.37-.11.58-.03.12-.06.21-.08.27-.06.18-.13.38-.2.56-.02.04-.04.08-.06.12-.09.17-.18.34-.29.52-.1.17-.29.39-.45.5-.26.19-.57.28-.87.28ZM164.15,58.19h0s0,0,0,0Z"/>
        <path class="cls-7" d="M165.73,58.54c-.72,0-1.34-.49-1.46-1.22l-.03-.19c-.02-.06-.03-.16-.04-.22,0-.05-.02-.09-.04-.13,0-.02-.01-.05-.02-.07-.02-.04-.05-.1-.05-.12l-.05-.14c-.08-.16-.14-.25-.19-.34-.15-.22-.39-.44-.67-.61-.71-.42-.95-1.34-.52-2.06.43-.71,1.34-.94,2.06-.52.66.39,1.23.92,1.65,1.54.1.16.18.3.26.44.09.15.18.33.24.5.07.14.15.32.2.54.04.13.08.27.1.42.03.13.05.26.07.4.13.82-.42,1.63-1.24,1.76-.08.01-.17.02-.25.02ZM164.17,56.75h0,0ZM164.11,56.55s0,0,0,0c0,0,0,0,0,0Z"/>
        <path class="cls-7" d="M178.06,72.07c-.11,0-.22-.01-.32-.04-.81-.18-1.32-.98-1.14-1.79.25-1.15.41-2.32.45-3.48.03-.83.7-1.45,1.56-1.44.83.03,1.47.73,1.44,1.56-.05,1.33-.23,2.68-.52,4.01-.15.7-.78,1.18-1.46,1.18Z"/>
        <path class="cls-7" d="M170.54,43.24c-.44,0-.87-.19-1.17-.56-4.68-5.79-12.35-8.34-19.55-6.5l-.53.13c-1,.26-1.82.54-2.56.86-.76.33-1.64-.02-1.97-.78-.33-.76.02-1.64.78-1.97.87-.38,1.85-.71,3-1.01l.54-.14c8.32-2.13,17.21.82,22.62,7.52.52.64.42,1.59-.22,2.11-.28.22-.61.33-.94.33Z"/>
        <path class="cls-7" d="M154.34,48.82c-.67,0-1.28-.45-1.45-1.13-.2-.8.28-1.62,1.08-1.82l8.39-2.13c.81-.21,1.62.28,1.82,1.08.2.8-.28,1.62-1.08,1.82l-8.39,2.13c-.12.03-.25.05-.37.05Z"/>
        <path class="cls-7" d="M196.73,553.3c-.68,0-1.37,0-2.05-.01-.64.01-1.33-.01-2.02-.04-3.06-.05-6.3-.21-9.6-.47-.13,0-.24-.01-.33-.03-5.6-.42-11.39-1.14-17.21-2.14-62.02-10.53-116.43-50-136.16-72.41C8.18,454.15-1.87,425.38.29,394.99c1.8-25.31,12.39-51.37,29.04-71.49,16.53-19.99,39.22-27.86,59.25-34.81,18.53-6.43,34.53-11.98,42.21-25.36,7.93-13.82,3.22-33.15-2.13-46.94-5.55-14.33-13.78-27.72-24.46-39.79-22.92-25.9-73.88-90.88-52.24-134.97,1.42-2.93,3.17-5.74,5.2-8.35,4.13-5.38,9.56-10.2,16.14-14.31,4.23-2.64,8.5-4.76,12.68-6.3.58-.23,1.25-.46,2.01-.7,21.4-7.05,42.07.75,59.73,22.57,1.47,1.8,2.95,3.75,4.51,5.95,1.3,1.87,2.59,3.8,3.82,5.76.03.04.05.08.07.13,1.08,1.7,2.15,3.49,3.27,5.48l.22.39c.09.16.18.32.27.47,0,.01.01.02.02.04.06.09.1.18.14.27.03.05.09.14.12.19.21.39.41.78.61,1.16.02.03.05.09.09.16.94,1.75,1.8,3.42,2.53,4.92.12.23.26.51.39.78.09.2.15.32.22.44.02.04.05.11.07.15.15.33.3.66.45.97l.15.32c.05.11.1.22.15.34.04.08.07.16.11.24.15.31.27.58.39.85l.36.82c.11.25.21.49.31.71.66,1.57,1,2.43,1,2.43.4,1.03-.11,2.19-1.14,2.59-1.02.4-2.19-.11-2.59-1.14,0-.01-.33-.84-.94-2.29-.09-.19-.2-.45-.32-.73l-.34-.76c-.11-.24-.22-.49-.34-.75-.05-.11-.12-.25-.18-.4l-.25-.53c-.15-.32-.31-.66-.47-1.01-.11-.22-.21-.42-.3-.62-.08-.16-.19-.39-.32-.63-.73-1.51-1.57-3.13-2.5-4.88-.02-.03-.05-.09-.09-.15-.18-.33-.38-.71-.58-1.1-.08-.12-.15-.25-.21-.38-.11-.19-.22-.38-.33-.58l-.2-.35c-1.12-1.99-2.18-3.76-3.24-5.43-.03-.05-.06-.09-.08-.14-1.18-1.86-2.4-3.71-3.64-5.48-1.5-2.12-2.92-3.99-4.34-5.73-16.77-20.72-35.4-27.88-55.41-21.29-.71.22-1.29.42-1.82.63-3.96,1.46-7.97,3.46-11.98,5.96-6.17,3.86-11.25,8.35-15.09,13.36-1.86,2.4-3.46,4.98-4.77,7.66-20.57,41.92,29.26,105.27,51.64,130.56,11,12.42,19.48,26.21,25.2,40.99,8.24,21.23,8.87,38.18,1.87,50.37-8.42,14.68-25.88,20.73-44.36,27.15-19.53,6.78-41.66,14.46-57.48,33.58-30.73,37.14-43.85,99.77-.04,149.51,19.36,21.99,72.82,60.74,133.83,71.11,5.73.98,11.42,1.69,16.93,2.1.03,0,.05,0,.08,0,.02,0,.04,0,.06,0,3.26.26,6.46.42,9.51.47.65.02,1.28.05,1.9.04,6,.08,11.99-.19,17.84-.78,1.11-.11,2.08.69,2.19,1.79.11,1.1-.69,2.08-1.79,2.19-5.32.54-10.76.81-16.19.81ZM182.79,548.8s0,0,0,0c0,0,0,0,0,0ZM183.27,548.78s.01,0,.02,0c0,0,0,0-.02,0Z"/>
        <path class="cls-7" d="M212.73,552.5c-1.02,0-1.89-.77-1.99-1.81-.11-1.1.7-2.08,1.8-2.18,4.07-.39,8.21-.97,12.31-1.71,1.14-.2,3.74-.73,6.75-1.33,1.08-.22,2.14.48,2.36,1.56s-.48,2.14-1.56,2.36c-3.03.61-5.65,1.14-6.83,1.35-4.2.76-8.46,1.35-12.63,1.75-.07,0-.13,0-.19,0Z"/>
        <path class="cls-7" d="M373.64,614.38c-1.99,0-3.97-.44-5.8-1.33-.14-.07-.28-.16-.4-.26l-91.18-74.94c-3.68,1.76-11.33,4.03-23.27,6.91-1.08.26-2.15-.4-2.41-1.47-.26-1.07.4-2.15,1.47-2.41,16.16-3.9,21.64-6.02,23.39-7.11.73-.45,1.66-.39,2.33.15l92.02,75.63c2.37,1.08,5.08,1.11,7.49.1,2.45-1.04,4.34-3.08,5.17-5.59,8.44-25.44,12.53-74.78,1.57-123-.25-1.08.43-2.15,1.51-2.39,1.08-.25,2.15.43,2.39,1.51,11.12,48.97,6.93,99.2-1.68,125.14-1.2,3.61-3.9,6.53-7.41,8.02-1.66.7-3.43,1.05-5.19,1.05Z"/>
        <path class="cls-7" d="M325.96,370.52c-.5,0-1.01-.19-1.4-.57-45.02-44.05-98.25-45.72-126.84-46.61-7.41-.23-13.26-.42-17.33-1.22-1.08-.22-1.79-1.27-1.57-2.35.22-1.08,1.26-1.79,2.35-1.57,3.74.74,9.45.92,16.67,1.15,29.14.91,83.38,2.62,129.51,47.75.79.77.8,2.04.03,2.83-.39.4-.91.6-1.43.6Z"/>
        <path class="cls-7" d="M180.78,321.65c-.15,0-.3-.02-.45-.07,0,0-.06-.01-.12-.03-.38-.12-.7-.39-.88-.74s-.22-.77-.09-1.15c26.35-81.32-9.19-143.02-10.71-145.61l2.58-1.54-1.29.76,1.3-.75c1.55,2.63,37.57,65.18,11.17,147.49.02.19,0,.39-.06.59-.2.64-.79,1.05-1.43,1.05Z"/>
        <path class="cls-7" d="M337.8,172.93c-2.04,0-4.16-1.29-5.03-1.82-.89-.54-2.42-1.54-4.53-2.91-52.67-34.21-96.77-55.78-131.08-64.1-11.38-2.77-21.69-4.05-30.65-3.77-5.41.16-10.42.88-14.89,2.14-.57.2-5.11,1.79-10.55,2.77-7.79,1.4-13.47.84-16.91-1.67-2.01-1.47-3.21-3.57-3.55-6.23-.11-.82.47-1.57,1.29-1.68.83-.11,1.57.47,1.68,1.29.24,1.85,1.01,3.22,2.35,4.2,2.71,1.98,7.76,2.37,14.61,1.14,5.45-.98,10.06-2.64,10.11-2.66.03-.01.07-.02.1-.03,4.72-1.34,10-2.1,15.67-2.27,9.22-.27,19.8,1.02,31.44,3.86,34.64,8.4,79.06,30.1,132.01,64.5,2.09,1.36,3.6,2.34,4.46,2.86,2.32,1.41,3.59,1.55,3.98,1.24,1.07-.85.48-5.46-.72-9.06-11.04-34.77-125.27-76.71-160.02-88.74-.38-.13-.76-.26-1.15-.4-3.38-1.16-6.84-1.68-10.27-1.57-.03,0-.07,0-.11,0-.21,0-.46,0-.75.04-2.4.14-4.71.58-6.95,1.3-1.57.52-3.07,1.11-4.44,1.75-.04.02-.07.04-.11.06-4.09,1.92-7.13,4.35-9.04,7.22-.12.18-.25.37-.38.55-.48.67-1.42.82-2.09.34-.67-.48-.82-1.42-.34-2.09.1-.14.21-.28.3-.44,2.22-3.34,5.65-6.11,10.2-8.26.04-.02.07-.04.11-.06,1.51-.71,3.15-1.36,4.86-1.92,2.49-.81,5.05-1.29,7.63-1.44.34-.04.71-.06,1.06-.05,3.78-.12,7.58.46,11.31,1.73.38.13.75.26,1.13.39,35.1,12.15,150.46,54.57,161.91,90.65.75,2.23,2.95,9.77-.26,12.34-.72.58-1.55.79-2.39.79Z"/>
        <path class="cls-7" d="M293.82,244.75c-25.88,0-53.95-18.04-66.46-27.15-.31-.23-.54-.4-.68-.49-1.78-1.23-4.95-3.79-9.34-7.32-11.38-9.16-30.41-24.49-48.3-35.22-.03-.02-.07-.04-.1-.06-10.84-6.51-19.87-10.47-26.75-11.71-29.54-5.36-31.25-21.87-33.61-44.72l-.18-1.78c-.84-8.02,2.04-14.96,8.54-20.6.63-.54,1.57-.48,2.12.15.54.63.48,1.57-.15,2.12-5.72,4.96-8.25,11.03-7.52,18.02l.18,1.78c2.39,23.14,3.83,37.11,31.16,42.07,7.24,1.31,16.61,5.39,27.84,12.14.03.02.07.04.1.06,17.98,10.78,37.12,26.2,48.56,35.41,4.18,3.36,7.48,6.02,9.17,7.2.15.11.4.28.73.53,12.23,8.9,39.7,26.59,64.62,26.6,5.67,0,11.2-.91,16.39-3.05.66-.28,1.39-.43,2.03-.53,1.06-.17,2.26-.24,3.42-.31,2.35-.14,5.27-.32,6.12-1.38.59-.75,1.01-3.02.41-7.14-2.49-16.81-19.95-51.39-57.84-77.74l-67.61-47.74c-.68-.48-.84-1.41-.36-2.09.48-.68,1.42-.84,2.09-.36l67.6,47.73c41.68,28.99,56.88,64.85,59.08,79.76.46,3.13.66,7.31-1.02,9.44-1.68,2.11-5.04,2.32-8.28,2.52-1.14.07-2.21.14-3.12.28-.42.07-.96.17-1.34.33-5.56,2.29-11.46,3.26-17.48,3.26Z"/>
        <path class="cls-7" d="M312.4,241.17c-.08,0-.17,0-.25-.02-5.84-.98-11.26-2.67-16.55-5.18-.75-.35-1.07-1.25-.71-2,.35-.75,1.25-1.07,2-.71,5.04,2.39,10.2,4,15.77,4.93.82.14,1.37.91,1.23,1.73-.12.73-.76,1.25-1.48,1.25Z"/>
        <path class="cls-7" d="M296.11,236.05c-.21,0-.43-.05-.63-.14-.45-.21-.9-.43-1.35-.66-16.8-8.44-32.28-25.02-55.72-50.13-7.16-7.67-15.28-16.37-24.4-25.87-9.91-10.32-19.62-19.47-28.87-27.18-.64-.53-.72-1.48-.19-2.11.53-.64,1.48-.72,2.11-.19,9.33,7.79,19.12,17.01,29.11,27.41,9.14,9.51,17.26,18.22,24.43,25.9,23.22,24.87,38.56,41.3,54.87,49.5.42.21.85.42,1.27.62.75.35,1.08,1.24.73,1.99-.25.55-.8.87-1.36.87Z"/>
        <path class="cls-7" d="M186.08,132.41c-.34,0-.68-.11-.96-.35-6.44-5.36-12.73-10.09-18.68-14.04-16.88-11.18-25.7-12.49-25.79-12.5-.82-.11-1.39-.87-1.29-1.68.11-.82.86-1.39,1.68-1.29.38.05,9.47,1.33,27.06,12.98,6.04,4.02,12.41,8.81,18.94,14.23.64.53.72,1.48.19,2.11-.3.36-.72.54-1.15.54Z"/>
        <path class="cls-7" d="M172.97,86.65c-.26,0-.52-.07-.76-.21-1.19-.7-2.34-1.28-3.53-1.78-1.19-.51-2.26-.84-3.18-.98-3.17-.56-3.93.85-3.96.92-.32.76-1.19,1.1-1.95.78-.76-.32-1.11-1.22-.79-1.99.06-.15,1.61-3.66,7.21-2.67,1.16.18,2.43.57,3.86,1.18,1.31.55,2.58,1.19,3.88,1.96.71.42.95,1.34.53,2.05-.28.47-.78.74-1.29.74Z"/>
        <path class="cls-7" d="M118.85,400.63c-.64,0-1.28-.31-1.66-.88-.62-.92-.37-2.16.54-2.78,49-32.97,60.64-75.53,61.12-77.33.04-.17.08-.28.08-.28.34-1.05,1.47-1.63,2.52-1.29,1.04.33,1.62,1.44,1.3,2.49,0,0-.03.1-.03.1-.49,1.86-12.51,45.83-62.75,79.63-.34.23-.73.34-1.11.34Z"/>
        <path class="cls-7" d="M98.86,77.9c-.68,0-1.3-.47-1.46-1.16-.46-1.99-.65-4.03-.57-6.05.04-.83.74-1.47,1.56-1.44.83.03,1.47.73,1.44,1.56-.07,1.75.09,3.52.49,5.25.19.81-.32,1.61-1.12,1.8-.11.03-.23.04-.34.04Z"/>
        <path class="cls-7" d="M142.14,66.9c-.47,0-.93-.22-1.22-.63-.1-.14-.2-.36-.25-.55h0c-.46-1.63-1.13-3.2-1.98-4.66l-.1-.19c-.39-.73-.11-1.64.63-2.03.73-.38,1.64-.11,2.03.63l.07.13c.94,1.61,1.71,3.41,2.24,5.27.23.62.03,1.34-.54,1.74-.26.19-.57.28-.87.28Z"/>
        <path class="cls-7" d="M129.64,70.02c-.3,0-.6-.09-.85-.27-.67-.49-.85-1.38-.36-2.05.04-.06.07-.12.1-.18l.08-.16s.03-.09.04-.14c0-.02.02-.06.03-.09.01-.05.02-.11.04-.16,0-.1.02-.24.05-.35,0-.08,0-.14,0-.2,0-.03,0-.07,0-.1,0-.02,0-.04,0-.06v-.09c-.03-.05-.04-.17-.05-.23,0-.05-.03-.11-.04-.15-.01-.04-.02-.09-.04-.13l-.04-.07c-.04-.08-.07-.15-.1-.24-.06-.09-.11-.18-.16-.26-.16-.22-.43-.47-.74-.65-.72-.41-.96-1.33-.55-2.05.41-.72,1.33-.96,2.05-.55.68.39,1.26.92,1.73,1.57.12.19.2.32.27.45,0,.02.05.09.06.11.05.1.1.2.15.32l.02.05c.11.23.17.4.22.57.05.15.09.31.12.48.03.14.05.27.07.41,0,.02.02.15.02.17,0,.07.01.15.01.22,0,.06,0,.12,0,.17,0,.17,0,.34,0,.51,0,.08-.02.18-.04.3-.02.2-.05.4-.11.59-.03.13-.06.23-.08.29-.07.25-.16.5-.27.71l-.06.12c-.07.14-.15.29-.23.43-.02.03-.04.06-.06.09-.3.41-.79.65-1.28.65ZM128.66,67.29h0s0,0,0,0ZM128.81,66.48s0,0,0,0t0,0ZM128.81,66.48h0s0,0,0,0ZM128.81,66.47s0,0,0,0c0,0,0,0,0,0ZM128.81,66.47s0,0,0,0c0,0,0,0,0,0ZM131.77,66.22s0,.01,0,.02c0,0,0-.01,0-.02Z"/>
        <path class="cls-7" d="M124.55,71.37c-.25,0-.51-.06-.74-.2-.04-.02-.07-.04-.1-.06-.16-.09-.33-.2-.47-.3-.04-.03-.07-.06-.11-.09-.04-.03-.08-.06-.12-.1-.35-.28-.69-.64-1-1.07-1.23-1.75-1.3-4.05-.21-5.87.43-.71,1.35-.94,2.06-.51.71.43.94,1.35.51,2.06-.48.79-.45,1.83.08,2.59.18.25.34.4.44.48.02.02.05.04.07.06.02.02.05.04.07.05.06.04.12.08.18.11.07.04.14.08.21.13.01,0,.02.02.03.02.66.5.8,1.44.3,2.1-.29.39-.75.6-1.2.6Z"/>
        <path class="cls-7" d="M121.52,98.65c-1.36,0-2.67-.12-3.89-.35-6.63-1.14-12.43-5.11-15.87-10.91-.42-.71-.19-1.63.52-2.06.71-.42,1.63-.19,2.06.52,2.99,5.04,8.03,8.49,13.82,9.49,1.22.23,2.52.33,3.89.3,1.5-.03,3-.23,4.46-.6l.52-.13c7.11-1.8,12.65-7.34,14.47-14.45l.07-.26c.04-.14.08-.29.11-.44.18-.81.97-1.32,1.79-1.14.81.18,1.32.98,1.14,1.79-.04.18-.09.36-.13.54l-.06.23c-2.09,8.18-8.46,14.55-16.64,16.62l-.53.13c-1.69.43-3.42.66-5.13.69-.2,0-.41,0-.61,0Z"/>
        <path class="cls-7" d="M143.15,81.58c-.1,0-.21-.01-.32-.03-.81-.17-1.32-.97-1.15-1.78.26-1.18.4-2.36.43-3.49.02-.83.69-1.51,1.54-1.46.83.02,1.48.71,1.46,1.54-.04,1.32-.2,2.68-.5,4.05-.15.7-.77,1.18-1.46,1.18Z"/>
        <path class="cls-7" d="M96.84,61.33c-.09,0-.18,0-.27-.03-.81-.15-1.35-.93-1.2-1.75,1.63-8.81,8.28-15.93,16.96-18.13l.54-.14c8.15-2.07,16.78.47,22.51,6.62.39.4.74.82,1.06,1.22.52.64.42,1.59-.22,2.11-.65.52-1.59.42-2.11-.22-.29-.36-.58-.71-.9-1.04-5.01-5.37-12.51-7.58-19.6-5.78l-.54.14c-7.54,1.92-13.33,8.1-14.74,15.77-.13.72-.76,1.23-1.47,1.23Z"/>
        <path class="cls-7" d="M112.79,84.11c-.67,0-1.28-.45-1.45-1.13-.21-.8.28-1.62,1.08-1.82l14.76-3.76c.8-.21,1.62.28,1.82,1.08.21.8-.28,1.62-1.08,1.82l-14.76,3.76c-.12.03-.25.05-.37.05Z"/>
        <path class="cls-7" d="M112.35,58.94c-.67,0-1.28-.45-1.45-1.13-.21-.8.28-1.62,1.08-1.82l14.76-3.76c.8-.21,1.62.28,1.82,1.08.21.8-.28,1.62-1.08,1.82l-14.76,3.76c-.12.03-.25.05-.37.05Z"/>
        <path class="cls-7" d="M303.02,237.81c-2.71,0-5.52-.99-7.39-1.82-.04-.02-.08-.04-.12-.06-.91-.41-1.42-.7-1.42-.7-.72-.4-.98-1.31-.58-2.04.4-.72,1.31-.99,2.04-.59.03.01.47.26,1.2.58.05.02.12.05.19.09,2.04.9,6.83,2.65,9.17.55,1.36-1.23,3.08-5.06-.76-16.96-11.45-35.51-118.76-84.09-119.85-84.58h0c-.44-.2-.78-.6-.88-1.1-.15-.81.38-1.6,1.2-1.75.36-.07.7,0,1,.16,5.58,2.51,109.6,49.8,121.39,86.35,3.37,10.45,3.34,17.02-.09,20.11-1.43,1.29-3.23,1.75-5.08,1.75Z"/>
        <path class="cls-7" d="M230.09,550.07c-.96,0-1.8-.69-1.97-1.66-.19-1.09.54-2.12,1.63-2.31.08-.01,8.66-1.5,22.22-5.2l.07-.02c8-2.18,16.01-4.64,23.8-7.31,16.16-5.52,31.69-11.96,46.18-19.14.99-.49,2.19-.09,2.68.9.49.99.09,2.19-.9,2.68-14.64,7.26-30.34,13.76-46.66,19.34-7.89,2.7-16,5.19-24.1,7.4-.02,0-.05.01-.07.02-13.73,3.74-22.19,5.21-22.54,5.27-.11.02-.23.03-.34.03Z"/>
        <path class="cls-7" d="M335.57,508.46c-.83,0-1.6-.52-1.89-1.35-.36-1.04.19-2.18,1.23-2.54.25-.09,25.71-9.02,49.93-25.61,23.16-15.83,37.44-33.09,42.46-51.29,1.83-6.68-1.04-13.74-6.98-17.18-17.42-10.03-52.9-28.57-94.89-40.04-70.48-19.29-127.01-10.62-168.01,25.76-.83.73-2.09.66-2.82-.17-.73-.83-.66-2.09.17-2.82,23.07-20.47,51.41-32.49,84.21-35.73,26.44-2.61,55.89.45,87.52,9.11,42.41,11.59,78.25,30.31,95.83,40.44,7.52,4.35,11.16,13.27,8.84,21.7-5.27,19.14-20.1,37.16-44.06,53.53-24.69,16.9-50.62,26-50.88,26.09-.22.08-.44.11-.66.11Z"/>
        <path class="cls-7" d="M51.43,43.73c-.48,0-.95-.23-1.24-.65-6.06-8.88-8.13-15.77-6.34-21.08,1.28-3.77,4.51-6.54,9.61-8.22,7.3-2.41,18.53-2.66,33.37-.73,1.21.16,2.4.32,3.55.49,12.19,1.8,22.23,4.38,22.33,4.4.8.21,1.28,1.03,1.08,1.83-.21.8-1.02,1.29-1.83,1.08-.1-.03-10-2.57-22.01-4.34-1.14-.17-2.32-.33-3.51-.48-14.39-1.87-25.17-1.67-32.04.6-4.16,1.37-6.75,3.5-7.71,6.33-1.45,4.29.55,10.49,5.97,18.42.47.68.29,1.62-.39,2.08-.26.18-.55.26-.84.26Z"/>
        <path class="cls-7" d="M58.82,36.32c-.64,0-1.23-.41-1.43-1.06l-.09-.28c-2.71-7.83-4.34-14.44-4.86-19.63-.71-7.25.79-12,4.46-14.13,5.92-3.45,16.87.39,32.53,11.43.55.38,1.08.76,1.6,1.14,4.84,3.5,8.11,6.25,8.25,6.37.63.53.71,1.48.18,2.11-.53.63-1.48.72-2.11.18-.03-.03-3.33-2.8-8.05-6.21-.54-.39-1.05-.76-1.59-1.14C73.7,5.24,63.03,1.13,58.41,3.82c-2.56,1.49-3.56,5.27-2.98,11.25.49,4.95,2.08,11.33,4.71,18.96l.11.35c.25.79-.2,1.63-.99,1.88-.15.05-.3.07-.44.07Z"/>
        <path class="cls-7" d="M162.05,157.37c-.46,0-.91-.21-1.2-.6-3.82-5.13-12.5-6.67-20.15-8.03-6.36-1.13-12.36-2.19-15.36-5.23-6.56-6.64-4.39-22.31-4.29-22.97.12-.82.88-1.39,1.7-1.27.82.12,1.39.88,1.27,1.7-.02.15-2.06,14.85,3.46,20.43,2.33,2.36,7.88,3.34,13.75,4.38,8.21,1.45,17.5,3.1,22.04,9.19.5.66.36,1.6-.31,2.1-.27.2-.58.3-.89.3Z"/>
        <path class="cls-7" d="M267.22,230.27c-.16,0-.32-.02-.47-.08-.86-.29-21.34-7.28-50.78-31.49-.64-.53-.73-1.47-.21-2.11.52-.64,1.47-.73,2.11-.21,28.96,23.82,49.62,30.9,49.82,30.96.79.26,1.21,1.11.95,1.9-.21.63-.79,1.03-1.42,1.03Z"/>
        <path class="cls-7" d="M199.98,471.28c-7.47,0-11.86-1.38-12.29-1.52-1.05-.34-1.62-1.48-1.28-2.52s1.47-1.62,2.52-1.28c.34.11,24.6,7.48,58.83-15.15,10.97-7.28,21.89-16.89,32.44-28.56.74-.82,2-.89,2.82-.14.82.74.88,2,.14,2.82-10.78,11.92-21.95,21.75-33.2,29.22-21.43,14.17-39.03,17.13-49.99,17.13Z"/>
        <path class="cls-7" d="M278.83,459.13c-5.56,0-8.87-1.02-9.27-1.16-1.05-.34-1.62-1.47-1.28-2.52.34-1.05,1.47-1.62,2.52-1.28.31.1,29.56,8.83,66.38-31.91.74-.82,2-.88,2.82-.14.82.74.88,2,.14,2.82-26.53,29.35-49.23,34.19-61.32,34.19Z"/>
        <path class="cls-7" d="M169.59,453.51c-34.73,0-47.47-16.85-48.12-17.73-.65-.89-.45-2.14.44-2.79.89-.65,2.14-.45,2.79.44.22.29,18.84,24.45,72.52,12.92,1.08-.23,2.14.46,2.38,1.54.23,1.08-.46,2.14-1.54,2.38-10.81,2.32-20.26,3.27-28.48,3.27Z"/>
        <path class="cls-7" d="M371.55,594.08c-3.55,0-6.78-4.31-7.94-5.86-.66-.88-.48-2.14.4-2.8.89-.67,2.14-.48,2.8.4,2.94,3.92,4.52,4.39,4.87,4.24.5-.21,4.77-3.07,1.74-38.69-1.59-18.77-4.43-37.29-4.46-37.47-.17-1.09.58-2.11,1.67-2.28,1.09-.17,2.11.58,2.28,1.67.03.19,2.89,18.82,4.49,37.72,2.98,35.06-.67,41.25-4.18,42.73-.56.24-1.12.34-1.68.34Z"/>
        <g class="cls-9">
          <path class="cls-2" d="M180.46,321.28s41.36.15,51.87,2.56c10.51,2.41-110.92,74.8-110.92,74.8,0,0,50.23-36.95,59.05-77.36Z"/>
        </g>
        <g class="cls-9">
          <path class="cls-2" d="M190.95,469.24s57.77,41.58,90.74-45.65c0,0-39.64,49.55-90.74,45.65Z"/>
        </g>
        <g class="cls-9">
          <path class="cls-2" d="M270.8,458.03s42.83,30.82,67.27-33.84c0,0-29.39,36.74-67.27,33.84Z"/>
        </g>
        <g class="cls-9">
          <path class="cls-2" d="M123.96,438.17s18.69,49.35,74.77,8.94c0,0-44.79,14.4-74.77-8.94Z"/>
        </g>
        <g class="cls-9">
          <path class="cls-2" d="M369.72,516.22s7.21,71.21-4.5,69.66l4.98,6.79,6.31-7.03-.07-17.41-6.72-52Z"/>
        </g>
        <g class="cls-9">
          <path class="cls-2" d="M277.71,535.05l43.72-18.1s-12.52,41.63,14.13,66.3l-57.85-48.2Z"/>
        </g>
        <g class="cls-9">
          <path class="cls-2" d="M344.05,504.14l41.25-22.25,6.44,42.6s.16-42.99-47.68-20.34Z"/>
        </g>
      </g>
      <path class="cls-7" d="M24.52,452.59c-.82,0-1.59-.51-1.88-1.33-10.72-30.27-12.64-57.67-5.69-81.43.31-1.06,1.42-1.67,2.48-1.36,1.06.31,1.67,1.42,1.36,2.48-6.71,22.94-4.82,49.51,5.62,78.97.37,1.04-.18,2.18-1.22,2.55-.22.08-.45.12-.67.12Z"/>
      <path class="cls-7" d="M33.61,342.75c-.41,0-.83-.13-1.19-.39-.89-.66-1.08-1.91-.42-2.8,8.84-11.97,20.57-22.35,34.85-30.87.95-.57,2.18-.25,2.74.69.57.95.25,2.18-.69,2.74-13.82,8.24-25.16,18.27-33.68,29.81-.39.53-1,.81-1.61.81Z"/>
    </g>
  </g>
</svg>