<?xml version="1.0" encoding="UTF-8"?>
<svg id="Layer_2" data-name="Layer 2" xmlns="http://www.w3.org/2000/svg" viewBox="0 0 962.81 539.66">
  <defs>
    <style>
      .cls-1 {
        fill: #aa9d8f;
      }

      .cls-2 {
        opacity: .3;
      }

      .cls-3 {
        fill: #666;
      }

      .cls-4 {
        fill: #aaa8a5;
      }

      .cls-5 {
        fill: #c7b299;
      }

      .cls-6 {
        fill: #e5e0da;
      }

      .cls-7 {
        fill: #330;
      }

      .cls-8 {
        opacity: .5;
      }

      .cls-9 {
        fill: #958573;
      }
    </style>
  </defs>
  <g id="Layer_2-2" data-name="Layer 2">
    <g>
      <g>
        <polygon class="cls-7" points="702.72 314.9 721.01 303.66 760.92 332.11 724.53 288.82 715.14 285.26 694.46 301.54 702.72 314.9"/>
        <path class="cls-6" d="M467.78,284.16c3.59,7.14,9.79,12.77,17.33,15.62l-.28.68.28,23.55c0,.72.26,1.42.7,1.95l5.3,6.51c.74.9.92,2.19.44,3.29l-4.36,10.03c-.5,1.16-.26,2.54.57,3.44l5.1,5.48c.92,1.01,1.1,2.54.42,3.72l-5.85,10.4c-.64,1.12-.53,2.58.31,3.57l7.14,8.7c1.18,1.47,3.35,1.36,4.42-.22l8.21-11.98c.35-.55.55-1.2.55-1.86l-1.29-66.85v-.02c12.64-4.32,21.71-16.25,21.71-30.34s-9.55-26.66-22.69-30.67c.11-.88.18-1.8.18-2.69,0-11.67-9.46-21.14-21.12-21.14s-21.14,9.46-21.14,21.14c0,3.61.92,7.03,2.52,10.01,1.03,1.91,2.32,3.61,3.86,5.13-3.59,5.17-5.7,11.46-5.7,18.22,0,5.17,1.23,10.03,3.4,14.35ZM604.92,262.7l.61.09c-8.21,54.61-7.05,103.61,7.03,142.31,0,0,6.31,45.12-42.71,69.9-1.1.44-2.02.9-2.8,1.36-10.01,4.69-22.19,8.56-37,11.11-9.13,1.58-19.28,2.63-30.51,3.09-25.52,1.03-46.55-2.02-63.92-7.69-4.82-1.58-9.33-3.35-13.6-5.3h-.02c-65.32-29.86-67.86-100.23-67.9-101.7v-.02c9.13-30.78,14.19-70.29,8.06-118.92,3.04-2.91,26.81-28.1,53.34-126.96,0,0,4.62-21.03,14.98-44.71l.07,6.44c.15,13.49,13.87,24.64,30.64,24.91,6.75.11,12.97-1.58,17.98-4.51.07.2.13.37.22.57,1.12,3.13,2.83,6.09,4.93,8.72l9.18,11.5c2.1,2.65,6.09,2.76,8.28.2,2.28-2.65,5.04-6.77,7.45-12.81,1.18-3,2.56-6.37,3.68-9.81.37-1.14.72-2.3,1.01-3.44,5.61,5.72,14.22,9.44,23.83,9.59,16.78.26,30.25-10.45,30.1-23.94l-.04-4.01c3.37,12.51,4.93,25.23,4.4,36.76-2.26,48.3,16.76,84.51,16.76,84.51,0,0,17.9,38.35,15.97,52.79Z"/>
        <path class="cls-6" d="M242.49,260.29c-.7,2.83-1.1,5.78-1.1,8.83,0,5.76,1.36,11.19,3.79,16.01,4.01,7.97,10.89,14.24,19.32,17.44l-.31.74.31,26.29c0,.81.28,1.6.79,2.19l5.91,7.25c.83,1.03,1.03,2.45.5,3.68l-4.88,11.19c-.55,1.29-.31,2.83.64,3.83l5.7,6.13c1.03,1.1,1.23,2.83.48,4.14l-6.53,11.61c-.72,1.27-.59,2.89.33,4.01l7.97,9.68c1.34,1.64,3.75,1.53,4.93-.22l9.18-13.41c.42-.59.61-1.31.61-2.06l-1.45-74.63v-.02c14.11-4.8,24.25-18.14,24.25-33.86s-10.67-29.77-25.34-34.24c.13-.99.2-1.99.2-3,0-13.03-10.56-23.59-23.57-23.59s-23.59,10.56-23.59,23.59c0,4.03,1.03,7.84,2.8,11.17,1.16,2.12,2.61,4.03,4.32,5.72-2.39,3.46-4.18,7.34-5.26,11.52ZM175.05,494.27l-1.75-.09c-32.7,4.32-61.18-12.29-61.18-12.29,0,0-3.13,1.51-20.46,4.86-1.14.24-2.37.46-3.64.7-20.55,3.83-113.84-1.69-78.2-12.77,35.64-11.08,72.66-51.19,72.66-51.19-22.19-56.53,27.12-133.66,57.37-166.27,30.25-32.59,46.13-98.46,59.71-160.12,1.18-5.39,2.78-10.51,4.71-15.35v-.02c7.36-1.16,14.33-2.37,14.33-2.37h.81l.22,19.93c.15,13.47,13.87,24.64,30.62,24.91,12.05.2,22.39-5.3,27.21-13.41l.24.18c-1.07,1.69-1.8,3.31-1.91,4.67h-.02s-3.33,19.54,15.86,22.15c18.6,2.54,18.36-4.91,18.31-5.39,1.36.72,2.61,1.53,3.7,2.3,1.99,1.4,4.71-.26,4.38-2.67-.46-3.18-1.18-6.07-2.1-8.72,2.48.55,5.04.85,7.71.9,7.47.11,14.28-1.95,19.54-5.48,10.73,48.74,12.46,101.22,12.46,101.22,2.89,12.86,5.04,25.19,6.53,36.97,6.13,48.63,1.07,88.14-8.06,118.92v.02c-16.8,56.64-47.38,83.74-47.38,83.74,0,0-8.89,10.38-25.54,20.06h-.02c-4.95,2.89-10.6,5.72-16.91,8.17-16.98,6.64-38.75,10.67-64.68,6.35l-2.85.61c4.47,7.93,11.61,16.49,15.27,20.7.55.64-.13,1.6-.94,1.27l-17.63-7.18v16.38c0,.81-1.07,1.12-1.51.44l-11.37-17.7-18.36,12.09c-.74.48-1.62-.39-1.14-1.14l9.9-15.16c2.8-3.88,3.99-7.27,4.12-10.23Z"/>
        <path class="cls-6" d="M956.55,468.33c-29.09-9.65-70.25-34.52-80.17-98.32-18.45-118.46-71.34-125.45-76.43-210.69-3.3-55.55-12.57-87.58-21.04-105.74l-.02-.02c-1.19-.19-1.88-.32-1.88-.32l-2.14.06-1.27.03c1.23.99,1.97,2.36,1.95,3.9l-.02,2.64h0s-.21,20.62-.21,20.62c-.16,13.5-13.87,24.64-30.64,24.91-12.01.19-22.32-5.26-27.16-13.33l-.25.16c.64,1.03,1.16,2.02,1.49,2.93.04.13.08.26.12.38h0c.06.19.11.37.15.54.07.27.1.53.12.77h.02s.35,2.04.18,4.87c-.02.25-.04.5-.07.76-.01.21-.03.43-.07.65-.02.22-.04.45-.09.67-.04.35-.1.69-.17,1.04-.03.18-.08.35-.11.53-.1.44-.2.87-.34,1.31-.11.4-.24.81-.38,1.21-.3.85-.67,1.7-1.12,2.52-.09.17-.19.35-.29.52-.02.02-.03.04-.04.07-.11.19-.22.38-.35.56-.34.5-.69.99-1.09,1.46-.15.18-.29.35-.46.52-.48.54-1.02,1.04-1.61,1.52-.18.15-.36.29-.55.43-.25.19-.52.37-.78.55-.26.17-.52.32-.8.49-.06.02-.1.06-.15.08-.22.12-.46.25-.69.37-.09.03-.17.08-.26.12-.22.11-.46.21-.69.31-.09.04-.18.08-.27.11-.18.08-.37.16-.56.22-.2.08-.4.16-.62.22-.07.02-.15.04-.21.07-.27.09-.55.18-.84.26-.3.08-.6.17-.91.24-.39.1-.81.18-1.23.26s-.85.16-1.3.21c-18.59,2.54-18.36-4.91-18.31-5.39-1.36.72-2.6,1.53-3.7,2.3-1.99,1.4-4.72-.26-4.38-2.67.03-.24.07-.47.11-.71.06-.37.12-.73.18-1.08.19-1.06.41-2.11.66-3.1.16-.62.32-1.22.49-1.8.2-.69.43-1.38.65-2.04-2.48.55-5.03.86-7.71.9-9.68.16-18.27-3.37-23.77-8.97-.8,2.08-1.6,4.26-2.42,6.52-10.79,29.61-23.86,74.17-35.97,138.6-1.37,7.16-2.56,14.26-3.62,21.25-.37,2.43-.72,4.85-1.04,7.26-.15,1.08-.29,2.15-.43,3.23-.09.63-.17,1.27-.25,1.9-.15,1.1-.28,2.18-.4,3.27-.07.58-.13,1.15-.2,1.72-.13,1.14-.26,2.28-.38,3.43-.25,2.27-.47,4.52-.68,6.78v.02c-.4,4.36-.74,8.68-1.01,12.95-.08,1.2-.15,2.39-.21,3.57,0,.11-.01.22-.01.34-.07,1.28-.13,2.54-.18,3.81-.06,1.27-.11,2.53-.15,3.79-.03.99-.07,1.97-.08,2.95-.02.82-.04,1.64-.06,2.44-.01.77-.02,1.55-.03,2.31-.06,5.04,0,10,.17,14.87h0c.03,1.21.09,2.41.15,3.6v.04c.06,1.19.12,2.37.19,3.56v.06c.06.9.11,1.79.18,2.68,0,.12.01.26.02.38.04.68.1,1.37.15,2.04.04.5.08,1.01.12,1.51.04.55.09,1.1.15,1.64.01.21.03.41.06.63.09,1,.18,2,.29,2.99.09.91.19,1.81.29,2.71.04.45.1.88.16,1.32.17,1.4.35,2.8.54,4.18.15,1.11.3,2.22.47,3.32,0,.01.01.02.01.03.19,1.27.39,2.52.6,3.77.21,1.24.43,2.49.66,3.72.25,1.36.52,2.7.8,4.04.2.97.4,1.95.63,2.91.04.24.1.46.16.71.18.8.36,1.59.55,2.39.13.54.26,1.05.39,1.58.18.77.38,1.55.58,2.31s.4,1.53.62,2.28c.2.76.41,1.52.64,2.27.22.77.45,1.55.68,2.32.16.52.31,1.03.48,1.55.29.95.59,1.88.91,2.81.3.92.62,1.83.94,2.73.02.07.04.15.07.21.17.47.34.94.5,1.4,12.04,33.11,33.55,58.65,66.78,73.72.3.16.62.29.92.43,3.28,1.49,6.7,2.86,10.2,4.1.29.1.58.2.87.3,22.04,7.75,48.56,11.42,80.11,10.37l1.4.78c-3.14,5.36-9.03,12.07-19.87,19.64-.78.55-.28,1.78.66,1.58l15.57-3.3-6.28,24.07c-.27.99,1.1,1.53,1.6.64l16.16-28.72,8.25,11.74c.5.75,1.67.31,1.58-.59-.65-6.19-1.51-19.49,1.76-29.57l1.15.37c38.53-4.16,57.22-18.24,57.22-18.24,11.35,4.54,23.13,7.47,34.8,9.23,25.85,3.92,51.17,2.09,69.99-.68,6.81-1.01,7.63-10.43,1.1-12.62ZM702.43,328.39c-.02.81-.3,1.6-.78,2.22l-5.94,7.25c-.82,1.01-1.01,2.45-.48,3.66l4.86,11.21c.57,1.29.3,2.8-.64,3.83l-5.69,6.12c-1.03,1.12-1.21,2.82-.46,4.16l6.52,11.59c.73,1.27.57,2.89-.32,4.01l-7.97,9.7c-.58.73-1.39,1.1-2.21,1.14-1.03.06-2.07-.4-2.74-1.38l-9.15-13.38c-.43-.62-.64-1.33-.62-2.08l1.28-65.92.17-8.7v-.02c-14.11-4.79-24.25-18.14-24.25-33.87,0-8.04,2.65-15.48,7.15-21.46,4.5-6,10.84-10.54,18.2-12.78-.13-.99-.2-1.99-.2-3,0-13.03,10.56-23.59,23.58-23.59s23.59,10.56,23.59,23.59c0,4.03-1.03,7.85-2.8,11.18-1.16,2.13-2.61,4.03-4.32,5.71,4.01,5.79,6.35,12.8,6.35,20.35,0,5.77-1.36,11.2-3.79,16.02-.08.16-.16.31-.25.47-2.48,4.77-6,8.9-10.27,12.11-2.67,2.02-5.63,3.66-8.83,4.86l.31.76-.03,2.53-.07,6.97-.19,16.77Z"/>
        <g class="cls-8">
          <path class="cls-2" d="M775.38,59.74c1.26,1.01,2.02,2.43,2,4l-.25,23.86c-.16,13.84-14.22,25.28-31.44,25.55-12.31.2-22.9-5.39-27.86-13.66-1.95-3.26-3.06-6.97-3.01-10.9l.27-23.89c.02-3.15,3.24-5.75,7.15-5.82l48.11-.74c1.98-.04,3.75.58,5.03,1.6Z"/>
        </g>
        <g class="cls-2">
          <path d="M769.82,338.56l-30.31-22.39c-9.65-7.13-22.48-8.31-33.26-3.05l-1.4.67-2.23-2.17-4.47-4.36-3.99-3.88-.8-.78,23.37-16.78,3.9-2.8.86,1.37,9.71,15.52,38.61,38.64Z"/>
        </g>
        <g class="cls-8">
          <path class="cls-2" d="M695.1,58.15c3.93-.07,7.08,2.45,7.03,5.6l-.25,23.1c-.27.07-.54.16-.81.29-5.89,2.81-17.48,10.07-22.72,25.12-2.54.56-5.17.88-7.91.92-9.93.16-18.74-3.46-24.38-9.21-4.11-4.18-6.56-9.53-6.49-15.37l.27-23.86c.02-3.15,3.24-5.77,7.15-5.82l20.56-.34,27.55-.43Z"/>
        </g>
        <g class="cls-8">
          <path class="cls-2" d="M569.65,100.1c.16,13.84-13.95,24.83-31.52,24.56-10.07-.16-19.09-3.98-24.96-9.84,2.11-8.18,1.79-16.13-7.16-19.93l-.23-19.64c-.02-3.17,3.19-5.66,7.18-5.6l46.76.7,2.36.04c4.01.07,7.27,2.67,7.32,5.82l.21,19.77.05,4.11Z"/>
        </g>
        <g class="cls-8">
          <path class="cls-2" d="M491.57,76.21l.19,16.61c-11.38,1.33-11.01,8.99-11.37,16.29-.19,3.73.43,7.44,1.75,10.92-5.5,3.01-12.32,4.74-19.72,4.63-18.4-.27-33.43-11.71-33.6-25.55l-.07-6.61v-.02l-.19-17.23c-.05-3.17,3.34-5.66,7.52-5.6l5.02.07,46.4.67c4.18.07,4.05,2.67,4.07,5.82Z"/>
        </g>
        <g class="cls-8">
          <path class="cls-2" d="M355.36,107.87c.07,7.66-4.13,14.47-10.83,18.96-5.39,3.62-12.38,5.73-20.04,5.62-2.74-.04-5.37-.36-7.91-.92-5.24-15.05-16.83-22.31-22.72-25.12-.27-.13-.54-.22-.81-.29l-.25-23.1c-.04-3.15,3.1-5.66,7.03-5.6l29.26.47,18.85.29c3.91.04,7.12,2.67,7.15,5.82l.27,23.86Z"/>
        </g>
        <g class="cls-8">
          <path class="cls-2" d="M280.08,107.87c.04,3.91-1.01,7.57-2.97,10.83-4.94,8.31-15.55,13.95-27.91,13.75-17.19-.27-31.26-11.73-31.41-25.55l-.22-20.45-.04-3.44c-.02-3.15,3.12-5.66,7.03-5.6l48.11.76c3.93.04,7.12,2.65,7.17,5.82l.25,23.86Z"/>
        </g>
        <g class="cls-8">
          <path class="cls-2" d="M654.01,267.91c0-8.04,2.65-15.48,7.15-21.46-8.68,6.52-14.28,16.91-14.28,28.59,0,15.72,10.14,29.07,24.25,33.87.02,0,.07.02.09.02,2.21.75,4.5,1.28,6.88,1.57l.17-8.7v-.02c-14.11-4.79-24.25-18.14-24.25-33.87ZM689.78,241.98c-2.39,0-4.54.99-6.12,2.54-1.22,1.25-2.07,2.89-2.34,4.69.43-.07.87-.1,1.32-.1,4.73,0,8.56,3.83,8.56,8.53,0,.45-.03.9-.11,1.33,3.04-.47,5.54-2.52,6.62-5.29.41-.99.63-2.06.63-3.18,0-4.7-3.83-8.53-8.56-8.53ZM693.37,302.6l.8.78,3.99,3.88c1.58-.76,3.09-1.64,4.54-2.61,3.28-2.23,6.17-5,8.55-8.15,1.29-1.7,2.42-3.53,3.38-5.44.85-1.67,1.56-3.42,2.13-5.23l-23.37,16.78Z"/>
        </g>
        <g class="cls-8">
          <path class="cls-2" d="M689.32,393.27l-4.93,5.99c-1.33,1.62-3.74,1.51-4.95-.24l-9.15-13.38c-.41-.62-.64-1.33-.62-2.08l1.44-74.62v-.02s.07.02.09.02c2.21.75,4.5,1.28,6.88,1.57l-1.28,65.92c-.02.75.19,1.47.62,2.08l9.15,13.38c.67.97,1.71,1.43,2.74,1.38Z"/>
        </g>
        <g class="cls-2">
          <g class="cls-8">
            <path d="M489.33,266.01c1.1,2.83,3.86,4.82,7.1,4.82,4.25,0,7.69-3.44,7.69-7.67,0-2.08-.85-3.99-2.21-5.39-1.4-1.38-3.33-2.28-5.48-2.28-4.23,0-7.67,3.44-7.67,7.67,0,.99.2,1.95.57,2.85ZM470.08,260.51c3.66-5.28,8.87-9.42,14.98-11.74,3.53-1.34,7.38-2.08,11.37-2.08,3.26,0,6.37.5,9.35,1.38,13.14,4.01,22.69,16.23,22.69,30.67s-9.07,26.02-21.71,30.34c-.02,0-.07.02-.09.02-3.22,1.1-6.68,1.66-10.25,1.66-3.99,0-7.8-.72-11.32-2.06-7.54-2.85,12.18-15.88,8.59-23.02-2.17-4.32-29.31-1.78-29.31-6.95,0-6.77,2.1-13.05,5.7-18.22Z"/>
          </g>
        </g>
        <g class="cls-2">
          <g class="cls-8">
            <path d="M506.76,309.09l1.29,66.85c0,.66-.2,1.31-.55,1.86l-8.21,11.98c-1.07,1.58-3.24,1.69-4.42.22l-7.14-8.7c-.83-.99-.94-2.45-.31-3.57l5.85-10.4c.68-1.18.5-2.72-.42-3.72l-5.1-5.48c-.83-.9-1.07-2.28-.57-3.44l4.36-10.03c.48-1.1.31-2.39-.44-3.29l-5.3-6.51c-.44-.53-.7-1.23-.7-1.95l-.28-23.55.28-.68c3.53,1.34,7.34,2.06,11.32,2.06,3.57,0,7.03-.57,10.25-1.66.02,0,.07-.02.09-.02v.02Z"/>
          </g>
        </g>
        <g class="cls-2">
          <g class="cls-8">
            <path d="M254.88,255.9c4.07-5.89,9.9-10.51,16.71-13.1,3.94-1.49,8.24-2.32,12.7-2.32,3.64,0,7.12.55,10.43,1.53,14.68,4.47,25.34,18.11,25.34,34.24s-10.14,29.07-24.25,33.86c-.02,0-.07.02-.09.02-3.59,1.23-7.45,1.86-11.43,1.86-4.47,0-8.72-.81-12.66-2.3-8.43-3.2-15.31-9.46-19.32-17.44-2.43-4.82-3.79-10.25-3.79-16.01,0-3.04.39-6,1.1-8.83,1.07-4.18,2.87-8.06,5.26-11.52ZM276.37,262.03c1.23,3.15,4.32,5.39,7.93,5.39,4.73,0,8.56-3.83,8.56-8.56,0-2.32-.94-4.45-2.45-6-1.58-1.56-3.72-2.54-6.11-2.54-4.73,0-8.56,3.83-8.56,8.54,0,1.12.22,2.19.64,3.18Z"/>
          </g>
        </g>
        <g class="cls-8">
          <path class="cls-2" d="M295.82,310.13l1.45,74.63c0,.74-.2,1.47-.61,2.06l-9.18,13.41c-1.18,1.75-3.59,1.86-4.93.22l-7.97-9.68c-.92-1.12-1.05-2.74-.33-4.01l6.53-11.61c.74-1.31.55-3.04-.48-4.14l-5.7-6.13c-.94-1.01-1.18-2.54-.64-3.83l4.88-11.19c.53-1.23.33-2.65-.5-3.68l-5.91-7.25c-.5-.59-.79-1.38-.79-2.19l-.31-26.29.31-.74c3.94,1.49,8.19,2.3,12.66,2.3,3.99,0,7.84-.64,11.43-1.86.02,0,.07-.02.09-.02v.02Z"/>
        </g>
        <path class="cls-6" d="M708.2,16.8c5.65-2.21,11.02-3.18,16.01-3.26,4.51-.09,8.7.53,12.55,1.56,7.54,2.06,13.71,5.74,18.11,9.05,2.02,1.51,3.66,2.94,4.91,4.1,1.69,1.58,3.46,3.09,5.19,4.64,2.98,2.69,8.3,8.65,13.91,20.68-1.18-.2-1.88-.33-1.88-.33l-3.4.09c-1.25-.99-2.98-1.6-4.91-1.56l-46.9.72c-3.81.07-6.94,2.61-6.97,5.67l-.26,23.28c-.04,3.83,1.03,7.45,2.94,10.62l-.24.15c-2.56-4.03-7.1-8.54-9.97-11.24-1.45-1.34-3.5-1.82-5.34-1.25l.24-22.52c.04-3.07-3.02-5.52-6.86-5.45l-26.85.42c.15-.22.24-.33.24-.33,13.95-19.87,27.36-30.32,39.47-35.05Z"/>
        <g>
          <path class="cls-1" d="M689.78,259.08c-4.74,0-8.57-3.83-8.57-8.57,0-.44.03-.87.11-1.3-1.86.29-3.52,1.18-4.79,2.43-1.51,1.56-2.45,3.68-2.45,6,0,4.74,3.83,8.57,8.57,8.57,3.61,0,6.7-2.23,7.93-5.39.25-.58.43-1.21.52-1.85-.43.07-.86.1-1.31.1ZM719.19,247.56c-4.08-5.89-9.9-10.51-16.71-13.09-3.94-1.49-8.23-2.32-12.7-2.32-3.64,0-7.12.54-10.43,1.52-7.36,2.24-13.7,6.78-18.2,12.78,3.29-2.5,7.03-4.41,11.07-5.64,3.3-.99,6.79-1.53,10.43-1.53,4.47,0,8.76.84,12.7,2.33,6.81,2.59,12.64,7.2,16.71,13.09,4.01,5.79,6.35,12.79,6.35,20.35,0,3.76-.58,7.38-1.66,10.79l-23.37,16.78.8.78c2.87-.35,5.63-1.03,8.24-2.03,3.19-1.2,6.16-2.84,8.83-4.86,4.27-3.2,7.8-7.34,10.27-12.11.09-.16.17-.31.25-.47,2.43-4.82,3.79-10.25,3.79-16.02,0-7.55-2.34-14.56-6.35-20.35ZM681.21,250.51c0-.44.03-.87.11-1.3-1.86.29-3.52,1.18-4.79,2.43-1.51,1.56-2.45,3.68-2.45,6,0,4.74,3.83,8.57,8.57,8.57,3.61,0,6.7-2.23,7.93-5.39.25-.58.43-1.21.52-1.85-.43.07-.86.1-1.31.1-4.74,0-8.57-3.83-8.57-8.57Z"/>
          <path class="cls-1" d="M718.4,275.04c0-7.56-2.34-14.56-6.35-20.35-4.07-5.89-9.9-10.51-16.71-13.09-3.94-1.49-8.23-2.33-12.7-2.33-3.64,0-7.12.55-10.43,1.53-4.03,1.23-7.77,3.15-11.07,5.64-4.49,5.98-7.15,13.42-7.15,21.46,0,15.72,10.14,29.07,24.25,33.87v.02l-.17,8.7-1.28,65.92c-.02.75.19,1.47.62,2.08l9.15,13.38c.67.97,1.71,1.43,2.74,1.38l3.05-3.71c.9-1.12,1.05-2.74.32-4.01l-6.52-11.59c-.75-1.33-.57-3.04.46-4.16l5.69-6.12c.94-1.03,1.21-2.54.64-3.83l-4.86-11.21c-.53-1.21-.34-2.65.48-3.66l5.94-7.25c.48-.62.76-1.41.78-2.22l.29-26.26-.31-.76c.97-.37,1.94-.78,2.88-1.23l-3.99-3.88-.8-.78,23.37-16.78c1.08-3.4,1.66-7.02,1.66-10.79ZM697.71,253.69c-1.08,2.77-3.58,4.82-6.62,5.29-.09.64-.27,1.27-.52,1.85-1.23,3.16-4.32,5.39-7.93,5.39-4.74,0-8.57-3.83-8.57-8.57,0-2.32.94-4.45,2.45-6,1.28-1.25,2.93-2.14,4.79-2.43.27-1.8,1.12-3.44,2.34-4.69,1.58-1.56,3.73-2.54,6.12-2.54,4.73,0,8.56,3.83,8.56,8.53,0,1.12-.21,2.2-.63,3.18Z"/>
        </g>
        <path class="cls-6" d="M726.31,230.67c0,4.03-1.03,7.84-2.8,11.17-4.29-1.86-8.52-4.21-12.55-7.14-4.82-3.53-7.6-3.24-8.48-.24-3.94-1.49-8.24-2.32-12.7-2.32-3.64,0-7.12.55-10.43,1.53-.13-.99-.2-1.99-.2-3,0-13.03,10.56-23.59,23.57-23.59s23.59,10.56,23.59,23.59Z"/>
        <path class="cls-6" d="M723.51,241.84c-1.16,2.12-2.61,4.03-4.32,5.72-4.07-5.89-9.9-10.51-16.71-13.1.88-3,3.66-3.29,8.48.24,4.03,2.94,8.26,5.28,12.55,7.14Z"/>
        <path class="cls-9" d="M719.17,96.84s3.33,19.54-15.86,22.15c-18.6,2.54-18.36-4.91-18.31-5.39v-.02c2.67-1.47,5.74-2.69,8.89-3.07,9.16-1.05,22.85-6.4,25.08-12.13.18-.46.24-.99.18-1.53h.02Z"/>
        <path class="cls-5" d="M719.15,96.84c.07.55,0,1.07-.18,1.53-2.23,5.74-15.92,11.08-25.08,12.13-3.15.37-6.22,1.6-8.89,3.07v.02c-1.36.72-2.61,1.53-3.7,2.3-1.99,1.4-4.71-.26-4.38-2.67.46-3.18,1.18-6.07,2.1-8.72,5.1-14.68,16.41-21.75,22.15-24.49.26-.13.53-.22.79-.28,1.84-.57,3.9-.09,5.34,1.25,2.87,2.69,7.4,7.21,9.97,11.24,1.05,1.69,1.77,3.26,1.88,4.62Z"/>
        <path class="cls-1" d="M702.72,302.12l-.03,2.53-.07,6.97-.19,16.77c-.02.81-.3,1.6-.78,2.22l-5.94,7.25c-.82,1.01-1.01,2.45-.48,3.66l4.86,11.21c.57,1.29.3,2.8-.64,3.83l-5.69,6.12c-1.03,1.12-1.21,2.82-.46,4.16l6.52,11.59c.73,1.27.57,2.89-.32,4.01l-7.97,9.7c-.58.73-1.39,1.1-2.21,1.14l3.05-3.71c.9-1.12,1.05-2.74.32-4.01l-6.52-11.59c-.75-1.33-.57-3.04.46-4.16l5.69-6.12c.94-1.03,1.21-2.54.64-3.83l-4.86-11.21c-.53-1.21-.34-2.65.48-3.66l5.94-7.25c.48-.62.76-1.41.78-2.22l.29-26.26-.31-.76c.97-.37,1.94-.78,2.88-1.23l-3.99-3.88c2.87-.35,5.63-1.03,8.24-2.03l.31.76Z"/>
        <path class="cls-3" d="M695.34,51.76c3.83-.07,6.9,2.39,6.86,5.45l-.24,22.52c-.26.07-.53.15-.79.28-5.74,2.74-17.04,9.81-22.15,24.49-2.48.55-5.04.85-7.71.9-9.68.15-18.27-3.37-23.77-8.98-4.01-4.07-6.4-9.29-6.33-14.98l.26-23.26c.02-3.07,3.15-5.63,6.97-5.67l20.04-.33,26.85-.42Z"/>
        <g class="cls-8">
          <path class="cls-7" d="M698.33,250.51c0,1.12-.21,2.2-.63,3.18-5.75-1.23-10.72-4.58-14.04-9.17,1.58-1.56,3.73-2.54,6.12-2.54,4.73,0,8.56,3.83,8.56,8.53Z"/>
        </g>
        <g class="cls-8">
          <path class="cls-7" d="M697.71,253.69c-1.08,2.77-3.58,4.82-6.62,5.29-.43.07-.86.1-1.31.1-4.74,0-8.57-3.83-8.57-8.57,0-.44.03-.87.11-1.3.27-1.8,1.12-3.44,2.34-4.69,3.33,4.59,8.3,7.94,14.04,9.17Z"/>
        </g>
        <g>
          <path class="cls-6" d="M690.48,483.34l-.13,1.8c-7.49,4.23-14.06,19.08-16.65,25.54-.26.66-1.23.46-1.23-.22l-.24-11.59-18.47,11.37c-.59.37-1.25-.33-.88-.9l9.66-14.41h-11.28c-.77,0-.9-1.05-.15-1.25,15.68-4.1,29.15-14.43,29.15-14.43,3.29,1.49,6.7,2.85,10.21,4.1Z"/>
          <g class="cls-2">
            <path d="M690.48,483.34l-.13,1.8c-7.49,4.23-14.06,19.08-16.65,25.54-.26.66-1.23.46-1.23-.22l-.24-11.59-18.47,11.37c-.59.37-1.25-.33-.88-.9l9.66-14.41h-11.28c-.77,0-.9-1.05-.15-1.25,15.68-4.1,29.15-14.43,29.15-14.43,3.29,1.49,6.7,2.85,10.21,4.1Z"/>
          </g>
          <g class="cls-8">
            <path class="cls-7" d="M673.11,511.97c-.1,0-.2-.01-.3-.03-.73-.14-1.24-.75-1.24-1.49l-.21-10.01-17.14,10.55c-.6.38-1.39.29-1.9-.22-.51-.52-.59-1.31-.19-1.92l8.73-13.03h-9.61c-.79,0-1.43-.56-1.53-1.32-.1-.77.38-1.48,1.15-1.68,15.32-4,28.71-14.18,28.84-14.28l.42-.33.49.22c3.12,1.41,6.53,2.78,10.14,4.07l.64.23-.21,2.95-.42.24c-7.25,4.09-13.79,18.91-16.26,25.09-.24.6-.79.97-1.41.97ZM673.36,510.43h0s0,0,0,0ZM653.29,509.48s0,0,0,0h0ZM673.09,497.29l.25,11.9c3.23-7.87,9.22-20.32,16.15-24.59l.05-.65c-3.23-1.17-6.31-2.41-9.16-3.68-2.34,1.71-13.87,9.84-27.22,13.76h11.06l-9.95,14.84,18.82-11.59Z"/>
          </g>
        </g>
        <g>
          <path class="cls-6" d="M588.23,500.03c1.18.72.68,2.54-.72,2.54h-14.68l5.72,16.45c.48,1.36-1.16,2.43-2.21,1.47l-14.52-13.43-5.19,18.57c-.31,1.03-1.64,1.38-2.34.57-1.8-2.1-4.01-7.25-1.53-19.45,3.79-18.6-22.69-19.3-22.69-19.3,14.81-2.54,26.99-6.42,37-11.11-13.25,7.84,13.41,18.93,21.18,23.68Z"/>
          <g class="cls-2">
            <path d="M588.23,500.03c1.18.72.68,2.54-.72,2.54h-14.68l5.72,16.45c.48,1.36-1.16,2.43-2.21,1.47l-14.52-13.43-5.19,18.57c-.31,1.03-1.64,1.38-2.34.57-1.8-2.1-4.01-7.25-1.53-19.45,3.79-18.6-22.69-19.3-22.69-19.3,14.81-2.54,26.99-6.42,37-11.11-13.25,7.84,13.41,18.93,21.18,23.68Z"/>
          </g>
          <g class="cls-8">
            <path class="cls-7" d="M555.25,527.54c-.63,0-1.23-.27-1.65-.76-2.15-2.52-4.2-8.06-1.73-20.21.85-4.18.15-7.73-2.1-10.56-5.72-7.21-19.6-7.67-19.74-7.67l-.13-1.77c13.83-2.37,26.2-6.09,36.77-11.03l.83,1.58c-2.16,1.27-3.23,2.67-3.2,4.16.12,5.01,11.49,11.04,19.01,15.03,2.16,1.15,4.03,2.14,5.38,2.96.88.53,1.28,1.56,1,2.54-.28.99-1.16,1.65-2.19,1.65h-13.42l5.31,15.27c.35.99,0,2.06-.88,2.64-.88.58-2,.49-2.78-.22l-13.45-12.44-4.8,17.17c-.25.83-.91,1.44-1.74,1.62-.16.03-.32.05-.48.05ZM535.98,487.25c4.83.89,11.44,2.95,15.18,7.66,2.59,3.26,3.42,7.3,2.45,12.03-2.44,12.05-.21,16.88,1.34,18.69.13.15.29.15.41.13.15-.03.34-.15.4-.37l5.58-19.97,15.59,14.42c.24.23.49.11.59.05.11-.07.29-.25.18-.56l-6.13-17.64h15.93c.34,0,.44-.25.47-.35s.07-.37-.21-.54h0c-1.3-.8-3.15-1.77-5.29-2.91-8.36-4.44-19.82-10.51-19.96-16.56-.02-.76.14-1.5.47-2.2-8.12,3.39-17.17,6.11-27.01,8.13Z"/>
          </g>
        </g>
        <path class="cls-3" d="M567.83,92.65c.15,13.49-13.32,24.2-30.1,23.94-9.62-.15-18.22-3.88-23.83-9.59,2.02-7.97,1.71-15.73-6.83-19.43l-.22-19.14c-.02-3.09,3.04-5.52,6.86-5.45l44.64.68,2.26.04c3.83.07,6.94,2.61,6.99,5.67l.2,19.28.04,4.01Z"/>
        <path class="cls-6" d="M558.35,63.65l-44.64-.68c-3.81-.07-6.88,2.37-6.86,5.45l.22,19.14c-2.69-1.16-6.22-1.93-10.78-2.17-1.86-.09-3.57-.04-5.1.15l-.18-16.19c-.02-3.07-3.15-5.61-6.97-5.67l-42.32-.66c11.3-18.99,26.53-36.01,46.31-41.44,31.04-8.5,55.86,13.03,70.31,42.06Z"/>
        <path class="cls-5" d="M507.07,87.57c8.54,3.7,8.85,11.46,6.83,19.43-.28,1.14-.64,2.3-1.01,3.44l-1.42-.31-12.53,12.2c-.88.83-2.21.94-3.2.26l-16.36-9.26v-.68c-.09-.2-.15-.37-.22-.57-1.2-3.4-1.77-7.01-1.6-10.65.33-7.12,3.24-14.59,13.62-15.88,1.53-.2,3.24-.24,5.1-.15,4.56.24,8.08,1.01,10.78,2.17Z"/>
        <path class="cls-9" d="M511.47,110.13l1.42.31c-1.12,3.44-2.5,6.81-3.68,9.81-2.41,6.05-5.17,10.16-7.45,12.81-2.19,2.56-6.18,2.45-8.28-.2l-9.18-11.5c-2.1-2.63-3.81-5.59-4.93-8.72l1.36-.5,15,10.45c.99.68,2.32.57,3.2-.26l12.53-12.2Z"/>
        <path class="cls-1" d="M506.76,300.17l1.29,66.85c0,.66-.2,1.31-.55,1.86l-8.21,11.98c-1.07,1.58-3.24,1.69-4.42.22l-7.14-8.7c-.83-.99-.94-2.45-.31-3.57l5.85-10.4c.68-1.18.5-2.72-.42-3.72l-5.1-5.48c-.83-.9-1.07-2.28-.57-3.44l4.36-10.03c.48-1.1.31-2.39-.44-3.29l-5.3-6.51c-.44-.53-.7-1.23-.7-1.95l-.28-23.55.28-.68c3.53,1.34,7.34,2.06,11.32,2.06,3.57,0,7.03-.57,10.25-1.66.02,0,.07-.02.09-.02v.02Z"/>
        <path class="cls-6" d="M505.95,236.46c0,.9-.07,1.82-.18,2.69-2.98-.88-6.09-1.38-9.35-1.38-3.99,0-7.84.74-11.37,2.08-.79-2.69-3.29-2.94-7.6.22-3.61,2.63-7.4,4.73-11.24,6.4-1.6-2.98-2.52-6.4-2.52-10.01,0-11.67,9.46-21.14,21.14-21.14s21.12,9.46,21.12,21.14Z"/>
        <g class="cls-8">
          <path class="cls-7" d="M501.9,248.85c1.36,1.4,2.21,3.31,2.21,5.39,0,4.23-3.44,7.67-7.69,7.67-3.24,0-6-1.99-7.1-4.82,5.15-1.12,9.59-4.12,12.57-8.24Z"/>
        </g>
        <path class="cls-7" d="M501.54,95.16c1.48-.3,3,1.1,3.42,3.14.42,2.06-.42,3.96-1.9,4.26s-3-1.1-3.42-3.16c-.42-2.04.44-3.94,1.9-4.24Z"/>
        <path class="cls-7" d="M491.89,95.22c1.45.4,2.17,2.35,1.61,4.36s-2.18,3.33-3.63,2.93-2.17-2.35-1.61-4.38,2.18-3.3,3.62-2.91Z"/>
        <g class="cls-8">
          <path class="cls-7" d="M501.9,248.85c-2.98,4.12-7.43,7.12-12.57,8.24-.37-.9-.57-1.86-.57-2.85,0-4.23,3.44-7.67,7.67-7.67,2.15,0,4.07.9,5.48,2.28Z"/>
        </g>
        <path class="cls-3" d="M491.02,69.37l.18,16.19c-10.38,1.29-13.3,8.76-13.62,15.88-.18,3.64.39,7.25,1.6,10.65-5.02,2.94-11.24,4.62-17.98,4.51-16.78-.26-30.49-11.41-30.64-24.91l-.07-6.44v-.02l-.18-16.8c-.04-3.09,3.04-5.52,6.86-5.45l4.58.07,42.32.66c3.81.07,6.94,2.61,6.97,5.67Z"/>
        <path class="cls-6" d="M477.46,240.07c4.32-3.15,6.81-2.91,7.6-.22-6.11,2.32-11.32,6.46-14.98,11.74-1.53-1.51-2.83-3.22-3.86-5.13,3.83-1.66,7.62-3.77,11.24-6.4Z"/>
        <g>
          <path class="cls-6" d="M435.62,482.88c7.6,2.72,6.77,35.42,2.15,35.99-4.64.59-10.01-14.04-10.01-14.04,0,0-14.13,24.38-19.21,22.65-5.1-1.73,13.21-29.18,9.42-29.42-3.81-.22-27.58,18.53-22.1,7.73,5.32-10.58,25.23-27.47,26.13-28.23h.02c4.27,1.95,8.78,3.72,13.6,5.3v.02Z"/>
          <g class="cls-2">
            <path d="M435.62,482.88c7.6,2.72,6.77,35.42,2.15,35.99-4.64.59-10.01-14.04-10.01-14.04,0,0-14.13,24.38-19.21,22.65-5.1-1.73,13.21-29.18,9.42-29.42-3.81-.22-27.58,18.53-22.1,7.73,5.32-10.58,25.23-27.47,26.13-28.23h.02c4.27,1.95,8.78,3.72,13.6,5.3v.02Z"/>
          </g>
          <g class="cls-8">
            <path class="cls-7" d="M409,528.44c-.26,0-.51-.04-.75-.12-.59-.2-1.03-.62-1.27-1.21-1.08-2.61,1.7-8.63,6.07-17.51,1.9-3.86,4.45-9.06,4.55-10.62-1.49.31-5.64,2.83-9.03,4.88-8.43,5.11-12.29,7.19-13.89,5.71-1.05-.97-.35-2.75.38-4.19,5.05-10.03,22.78-25.46,26.28-28.45l.25-.21.59-.06.2.08c4.33,1.98,8.88,3.75,13.51,5.27l.61.2v.1c5.58,3.06,6.23,19.51,5.29,27.99-.67,6.04-1.99,9.22-3.93,9.46-4.32.55-8.55-8.58-10.29-12.88-3.58,6-13.36,21.57-18.59,21.57ZM417.91,497.16s.07,0,.11,0c.5.03.9.27,1.13.68.82,1.42-.58,4.56-4.5,12.53-2.9,5.9-6.87,13.99-6.02,16.05.06.15.13.18.2.21,2.76.94,11.39-10.58,18.15-22.25l.95-1.64.65,1.79c2.13,5.79,6.35,13.81,9.06,13.46.5-.06,1.74-2.07,2.38-7.88,1.22-10.99-.58-24.9-4.71-26.38l-.59-.22c-4.3-1.43-8.53-3.08-12.58-4.91-4.32,3.71-20.77,18.21-25.49,27.6-.85,1.67-.72,2.12-.71,2.14,1.13.38,7.75-3.6,11.7-6,5.27-3.19,8.62-5.17,10.25-5.17Z"/>
          </g>
        </g>
        <path class="cls-3" d="M353.72,100.23c.07,7.47-4.03,14.11-10.56,18.49-5.26,3.53-12.07,5.59-19.54,5.48-2.67-.04-5.24-.35-7.71-.9-5.1-14.68-16.41-21.75-22.15-24.49-.26-.13-.53-.22-.79-.28l-.24-22.52c-.04-3.07,3.02-5.52,6.86-5.45l28.52.46,18.38.28c3.81.04,6.94,2.61,6.97,5.67l.26,23.26Z"/>
        <path class="cls-6" d="M262.58,30.82c10.78-1.84,21.75-.74,31.87,3.7,7.47,3.26,14.48,8.35,20.63,15.4,4.91,5.61,9.24,12.81,13.03,21.09l-28.52-.46c-3.83-.07-6.9,2.39-6.86,5.45l.24,22.52c-1.84-.57-3.9-.09-5.34,1.25-2.87,2.69-7.38,7.16-9.94,11.19l-.24-.18c1.91-3.18,2.94-6.75,2.89-10.56l-.24-23.26c-.04-3.09-3.15-5.63-6.99-5.67l-46.9-.74c-3.81-.07-6.88,2.39-6.86,5.45l.04,3.35h-.81s-6.97,1.2-14.33,2.37c7.54-18.86,20.28-33.38,35.02-42.17l.66-.39c7.21-4.18,14.87-7.03,22.63-8.35Z"/>
        <path class="cls-5" d="M318.02,132.02c.33,2.41-2.39,4.07-4.38,2.67-1.1-.77-2.34-1.58-3.7-2.3v-.02c-2.67-1.47-5.74-2.69-8.89-3.07-9.16-1.05-22.85-6.4-25.08-12.13-.18-.46-.24-.99-.18-1.53.11-1.36.83-2.98,1.91-4.67,2.56-4.03,7.08-8.5,9.94-11.19,1.45-1.34,3.5-1.82,5.34-1.25.26.07.53.15.79.28,5.74,2.74,17.04,9.81,22.15,24.49.92,2.65,1.64,5.54,2.1,8.72Z"/>
        <g>
          <path class="cls-6" d="M316.4,494.42c.64.26.39,1.23-.28,1.16l-13.71-1.29,12.97,14.7c.44.5-.15,1.27-.74.94l-18.97-10.32v15.42c0,.61-.81.83-1.12.31-3.77-6.62-16.38-26.77-30.29-27.51,6.31-2.45,11.96-5.28,16.91-8.17h.02l35.22,14.76Z"/>
          <g class="cls-2">
            <path d="M316.4,494.42c.64.26.39,1.23-.28,1.16l-13.71-1.29,12.97,14.7c.44.5-.15,1.27-.74.94l-18.97-10.32v15.42c0,.61-.81.83-1.12.31-3.77-6.62-16.38-26.77-30.29-27.51,6.31-2.45,11.96-5.28,16.91-8.17h.02l35.22,14.76Z"/>
          </g>
          <g class="cls-8">
            <path class="cls-7" d="M295.04,516.53c-.52,0-1-.27-1.27-.74-3.52-6.17-16.02-26.34-29.57-27.07l-4.13-.22,3.86-1.5c5.76-2.24,11.41-4.97,16.78-8.11l.21-.12.61.07,35.22,14.76c.69.28,1.06,1.02.88,1.74-.18.72-.83,1.19-1.59,1.13l-11.47-1.08,11.48,13.01c.49.56.5,1.36.03,1.94-.47.57-1.23.73-1.88.37l-17.65-9.6v13.92c0,.68-.44,1.26-1.1,1.44-.13.03-.27.05-.4.05ZM267.56,487.45c12.45,3.19,23.29,19.82,27.2,26.5v-15.83l18.88,10.27-13.4-15.19,14.08,1.33-33.09-13.87c-4.41,2.55-8.99,4.83-13.67,6.8ZM315.05,509.14h0s0,0,0,0Z"/>
          </g>
        </g>
        <path class="cls-9" d="M309.93,132.39c.04.48.28,7.93-18.31,5.39-19.19-2.61-15.86-22.15-15.86-22.15h.02c-.07.55,0,1.07.18,1.53,2.23,5.74,15.92,11.08,25.08,12.13,3.15.37,6.22,1.6,8.89,3.07v.02Z"/>
        <path class="cls-6" d="M287.79,231.88c0,1.01-.07,2.02-.2,3-3.31-.99-6.79-1.53-10.43-1.53-4.47,0-8.76.83-12.7,2.32-.88-3-3.66-3.29-8.48.24-4.03,2.94-8.26,5.28-12.55,7.14-1.77-3.33-2.8-7.14-2.8-11.17,0-13.03,10.56-23.59,23.59-23.59s23.57,10.56,23.57,23.59Z"/>
        <g class="cls-8">
          <path class="cls-7" d="M283.28,245.72c1.51,1.56,2.45,3.68,2.45,6,0,4.73-3.83,8.56-8.56,8.56-3.61,0-6.7-2.23-7.93-5.39,5.74-1.23,10.71-4.58,14.04-9.18Z"/>
        </g>
        <path class="cls-3" d="M280.34,100.23c.04,3.81-.99,7.38-2.89,10.56-4.82,8.1-15.16,13.6-27.21,13.41-16.76-.26-30.47-11.43-30.62-24.91l-.22-19.93-.04-3.35c-.02-3.07,3.04-5.52,6.86-5.45l46.9.74c3.83.04,6.94,2.58,6.99,5.67l.24,23.26Z"/>
        <g class="cls-8">
          <path class="cls-7" d="M283.28,245.72c-3.33,4.6-8.3,7.95-14.04,9.18-.42-.99-.64-2.06-.64-3.18,0-4.71,3.83-8.54,8.56-8.54,2.39,0,4.53.99,6.11,2.54Z"/>
        </g>
        <path class="cls-6" d="M255.98,235.91c4.82-3.53,7.6-3.24,8.48-.24-6.81,2.58-12.64,7.21-16.71,13.1-1.71-1.69-3.15-3.59-4.32-5.72,4.29-1.86,8.52-4.21,12.55-7.14Z"/>
        <g class="cls-2">
          <path d="M264.46,320.81h0c-4.84-5.28-11.62-8.47-18.78-8.5-6.82-.03-13.61,2.11-19.29,6.31l-30.3,22.39,38.6-38.64,10.58-16.89,27.27,19.58-8.07,15.75Z"/>
        </g>
        <g class="cls-2">
          <path d="M484.93,314.58l-.71-.13c-4.84-5.28-7.82-6.11-14.98-6.14s-13.61,2.11-19.29,6.31l-30.3,22.39,38.6-38.64,10.58-16.89,15.44,15.08.67,18.02Z"/>
        </g>
        <path class="cls-1" d="M489.33,257.09c1.1,2.83,3.86,4.82,7.1,4.82,4.25,0,7.69-3.44,7.69-7.67,0-2.08-.85-3.99-2.21-5.39-1.4-1.38-3.33-2.28-5.48-2.28-4.23,0-7.67,3.44-7.67,7.67,0,.99.2,1.95.57,2.85ZM470.08,251.59c3.66-5.28,8.87-9.42,14.98-11.74,3.53-1.34,7.38-2.08,11.37-2.08,3.26,0,6.37.5,9.35,1.38,13.14,4.01,22.69,16.23,22.69,30.67s-9.07,26.02-21.71,30.34c-.02,0-.07.02-.09.02-3.22,1.1-6.68,1.66-10.25,1.66-3.99,0-7.8-.72-11.32-2.06-7.54-2.85-13.73-8.48-17.33-15.62-2.17-4.32-3.4-9.18-3.4-14.35,0-6.77,2.1-13.05,5.7-18.22Z"/>
        <path class="cls-1" d="M247.75,248.77c4.07-5.89,9.9-10.51,16.71-13.1,3.94-1.49,8.24-2.32,12.7-2.32,3.64,0,7.12.55,10.43,1.53,14.68,4.47,25.34,18.11,25.34,34.24s-10.14,29.07-24.25,33.86c-.02,0-.07.02-.09.02-3.59,1.23-7.45,1.86-11.43,1.86-4.47,0-8.72-.81-12.66-2.3-8.43-3.2-15.31-9.46-19.32-17.44-2.43-4.82-3.79-10.25-3.79-16.01,0-3.04.39-6,1.1-8.83,1.07-4.18,2.87-8.06,5.26-11.52ZM269.24,254.9c1.23,3.15,4.32,5.39,7.93,5.39,4.73,0,8.56-3.83,8.56-8.56,0-2.32-.94-4.45-2.45-6-1.58-1.56-3.72-2.54-6.11-2.54-4.73,0-8.56,3.83-8.56,8.54,0,1.12.22,2.19.64,3.18Z"/>
        <path class="cls-1" d="M288.69,303l1.45,74.63c0,.74-.2,1.47-.61,2.06l-9.18,13.41c-1.18,1.75-3.59,1.86-4.93.22l-7.97-9.68c-.92-1.12-1.05-2.74-.33-4.01l6.53-11.61c.74-1.31.55-3.04-.48-4.14l-5.7-6.13c-.94-1.01-1.18-2.54-.64-3.83l4.88-11.19c.53-1.23.33-2.65-.5-3.68l-5.91-7.25c-.5-.59-.79-1.38-.79-2.19l-.31-26.29.31-.74c3.94,1.49,8.19,2.3,12.66,2.3,3.99,0,7.84-.64,11.43-1.86.02,0,.07-.02.09-.02v.02Z"/>
        <path class="cls-3" d="M773.6,53.31c1.23.99,1.97,2.37,1.95,3.9l-.24,23.26c-.15,13.49-13.87,24.64-30.64,24.91-12,.2-22.32-5.26-27.16-13.32-1.91-3.18-2.98-6.79-2.94-10.62l.26-23.28c.02-3.07,3.15-5.61,6.97-5.67l46.9-.72c1.93-.04,3.66.57,4.91,1.56Z"/>
        <g class="cls-2">
          <path d="M366.63,249.26s30.03,47.66-9.49,148.06l-3.04-23.24,2.43-14.55,6.07-35.76,1.46-29.4.79-17.72-2.93-14.99,4.72-12.4Z"/>
        </g>
        <g class="cls-2">
          <path d="M601.71,249.34s-31.82,53.85,7.7,179.74l3.04-29.14-5.26-13.71-6.8-45.08,2.1-41.15-.79-22.22,2.93-18.79-2.93-9.65Z"/>
        </g>
        <g class="cls-2">
          <path d="M850.39,470.38s11.78-5.14,22.4-23.22c10.89-18.56-5.37,26.54,77.7,34.31,0,0-56.68,9.2-100.1-11.09Z"/>
        </g>
        <circle class="cls-4" cx="277.16" cy="251.73" r="8.29"/>
        <circle class="cls-4" cx="688.79" cy="250.53" r="8.29"/>
        <circle class="cls-4" cx="496.49" cy="254.41" r="8.29"/>
        <g>
          <path class="cls-7" d="M604.81,265.2c-.11,0-.23-.01-.35-.03-.97-.19-1.59-1.13-1.4-2.1.03-.16.06-.34.08-.53,1.85-13.84-15.63-51.5-15.81-51.88-.16-.29-19.18-37.12-16.92-85.34.51-11.25-.99-23.77-4.34-36.21-.26-.95.31-1.93,1.26-2.19.95-.25,1.93.31,2.19,1.26,3.45,12.79,4.99,25.69,4.46,37.3-2.2,47.22,16.37,83.24,16.56,83.59.78,1.66,18.13,39.07,16.16,53.86-.02.25-.07.55-.13.83-.17.85-.91,1.44-1.75,1.44Z"/>
          <path class="cls-7" d="M361.84,258.98c-.53,0-1.06-.23-1.41-.68-.59-.76-.48-1.85.26-2.46.03-.02.09-.08.2-.19,2.65-2.53,26.36-27.35,52.87-126.16.03-.13,4.76-21.39,15.07-44.96.39-.9,1.45-1.32,2.35-.92.9.4,1.31,1.45.92,2.35-10.16,23.23-14.83,44.17-14.87,44.38-26.78,99.82-51.15,125.29-53.85,127.86-.29.29-.45.41-.45.41-.33.25-.71.37-1.1.37Z"/>
          <path class="cls-7" d="M558.35,65.44c-.65,0-1.29-.36-1.6-.99-16.42-32.96-41.94-48.34-68.25-41.13-16.7,4.59-31.93,18.26-45.24,40.63-.51.84-1.6,1.13-2.45.62-.85-.5-1.12-1.6-.62-2.45,13.8-23.19,29.74-37.41,47.37-42.25,28.07-7.7,55.14,8.37,72.38,42.98.44.88.08,1.95-.8,2.39-.26.13-.53.19-.79.19Z"/>
          <path class="cls-7" d="M793.44,492.44c-.9,0-1.67-.68-1.77-1.59-.11-.98.6-1.86,1.58-1.96,37.5-4.05,56.15-17.76,56.33-17.9l.8-.6.93.37c10.51,4.2,22.09,7.26,34.41,9.11,26.46,4.02,52.38,1.85,69.46-.68,2.74-.4,3.88-2.54,4.03-4.24.15-1.72-.61-4.03-3.24-4.92-31.67-10.52-71.51-36.37-81.36-99.75-9.47-60.83-28.12-92.17-44.58-119.83-15.77-26.49-29.38-49.38-31.87-91.04-3.39-56.88-13.14-88.38-20.77-104.84l-.14-.27c-5.55-11.9-10.83-17.71-13.49-20.11-.62-.56-1.26-1.12-1.89-1.67-1.12-.99-2.24-1.98-3.32-2.99-1.49-1.39-3.09-2.72-4.76-3.97-3.79-2.84-9.9-6.67-17.52-8.75-3.99-1.07-8.04-1.58-12.05-1.49-5.12.09-10.3,1.15-15.4,3.14-13.25,5.18-26.26,16.75-38.66,34.41l-.24.32c-.57.81-1.68,1-2.48.44-.81-.56-1-1.68-.44-2.48.2-.29.32-.43.32-.43,12.74-18.14,26.29-30.15,40.21-35.59,5.49-2.15,11.08-3.29,16.63-3.39,4.3-.08,8.72.46,13.04,1.62,6.47,1.77,12.94,5,18.72,9.34,1.76,1.32,3.46,2.74,5.05,4.22,1.06.99,2.16,1.96,3.25,2.92.64.56,1.28,1.13,1.92,1.7,3.47,3.14,8.73,9.32,14.22,21h0l.14.28c11.32,24.24,18.45,60.03,21.21,106.38,2.43,40.8,15.84,63.33,31.37,89.43,16.62,27.93,35.46,59.59,45.04,121.1,9.58,61.6,48.23,86.7,78.97,96.91,3.74,1.25,6.01,4.71,5.67,8.62-.34,3.89-3.18,6.88-7.06,7.46-17.32,2.56-43.62,4.76-70.51.68-12.24-1.84-23.78-4.85-34.3-8.97-4.07,2.78-22.71,14.27-57.26,18.01-.06,0-.13.01-.19.01Z"/>
          <path class="cls-7" d="M761.11,495.96c-26.99,0-50.91-3.67-71.24-10.95-3.67-1.31-7.15-2.71-10.34-4.15-32.69-14.56-55.79-39.84-68.65-75.16-13.45-36.97-15.85-85.15-7.12-143.19,1.07-7.07,2.29-14.24,3.63-21.31,10.95-58.18,23.9-107.11,38.48-145.42.35-.92,1.38-1.39,2.3-1.03.92.35,1.38,1.38,1.03,2.3-14.51,38.11-27.4,86.83-38.31,144.81-1.33,7.03-2.54,14.16-3.6,21.18-8.64,57.45-6.3,105.03,6.94,141.44,12.51,34.37,34.97,58.98,66.76,73.13,3.11,1.41,6.5,2.77,10.08,4.04,22.48,8.05,49.49,11.6,80.32,10.57.02,0,.04,0,.06,0,.96,0,1.75.76,1.78,1.72.03.98-.74,1.81-1.72,1.84-3.51.12-6.99.18-10.4.18Z"/>
          <path class="cls-7" d="M489.95,492.52c-20.23,0-38.66-2.67-54.88-7.97-4.73-1.54-9.37-3.35-13.79-5.37-.9-.41-1.29-1.47-.88-2.36.41-.9,1.47-1.29,2.36-.88,4.3,1.96,8.82,3.72,13.42,5.23,18.37,6,39.66,8.55,63.29,7.6,10.91-.45,21.1-1.48,30.28-3.06,13.75-2.36,26.05-6.05,36.54-10.96.94-.43,1.82-.87,2.71-1.31,47.3-23.9,42.04-66.29,41.8-68.08-.13-.98.55-1.88,1.52-2.01.98-.13,1.88.54,2.01,1.52.06.47,5.91,46.68-43.67,71.74-.99.49-1.91.95-2.87,1.39-10.77,5.04-23.37,8.82-37.44,11.24-9.33,1.61-19.68,2.66-30.74,3.11-3.26.13-6.48.2-9.66.2Z"/>
          <path class="cls-7" d="M421.99,479.34c-.25,0-.5-.05-.74-.16-66.03-30.18-68.85-100.3-68.94-103.27-.03-.98.75-1.81,1.73-1.84h.05c.96,0,1.75.76,1.78,1.73.09,2.88,2.83,70.86,66.86,100.13.9.41,1.29,1.47.88,2.36-.3.65-.95,1.04-1.62,1.04Z"/>
          <path class="cls-7" d="M281.18,481.44c-.61,0-1.21-.32-1.54-.89-.5-.85-.21-1.94.64-2.44,16.16-9.4,25-19.58,25.08-19.68l.17-.17c.3-.27,30.32-27.4,46.78-82.67l.07-.27c10.67-35.94,13.36-75.7,8-118.19-1.51-11.98-3.7-24.36-6.5-36.81l-.04-.33c-.02-.52-1.85-52.89-12.42-100.89-.21-.96.4-1.91,1.36-2.12.96-.21,1.91.4,2.12,1.36,10.34,46.96,12.37,98.02,12.5,101.37,2.81,12.5,5,24.94,6.52,36.98,5.41,42.88,2.7,83.05-8.05,119.4l-.07.27c-16.29,54.91-45.89,82.72-47.81,84.48-.96,1.1-9.82,10.99-25.92,20.36-.28.16-.59.24-.9.24Z"/>
          <path class="cls-7" d="M220.88,497.76c-7.11,0-14.33-.61-21.62-1.82-.97-.16-1.63-1.08-1.47-2.05.16-.97,1.08-1.64,2.05-1.47,22.23,3.7,43.67,1.59,63.74-6.25,5.72-2.23,11.33-4.93,16.66-8.05.85-.5,1.94-.21,2.44.64.5.85.21,1.94-.64,2.44-5.49,3.21-11.27,6-17.16,8.29-14.08,5.51-28.81,8.27-44,8.27Z"/>
          <path class="cls-7" d="M162.09,496.69c-25.34,0-45.91-10.52-50.12-12.83-1.85.64-6.98,2.14-19.97,4.65-.83.18-1.73.34-2.67.52l-.97.18c-8.4,1.57-29.11,1.67-49.25.24C1.72,486.79.5,481.87.1,480.25c-.9-3.63,4.44-5.79,9.19-7.27,32-9.95,65.68-44.21,71.12-49.9-20.45-54.51,23.41-129.65,58.13-167.08,29.3-31.57,44.76-93.36,59.28-159.29,1.14-5.19,2.71-10.34,4.67-15.31h0s.13-.34.13-.34c7.35-18.39,20.05-33.67,35.77-43.04.85-.51,1.94-.23,2.45.62.5.85.23,1.94-.62,2.45-14.97,8.92-27.09,23.48-34.17,41.02l-.11.3c-1.95,4.89-3.5,9.97-4.62,15.08-14.63,66.43-30.24,128.73-60.14,160.95-34.33,37.01-77.84,111.34-57.01,164.41l.41,1.04-.76.82c-1.52,1.65-37.75,40.59-73.44,51.68-5.12,1.59-6.41,2.74-6.71,3.11,3.81,5.21,64.93,9.77,84.05,6.21l.98-.18c.91-.17,1.79-.33,2.62-.51,16.55-3.2,19.94-4.67,20.07-4.74l.84-.37.81.45c.28.16,28.36,16.24,60.05,12.06.98-.13,1.87.56,2,1.53.13.98-.56,1.87-1.53,2-3.89.51-7.72.74-11.44.74Z"/>
          <path class="cls-7" d="M328.12,72.8c-.68,0-1.32-.39-1.62-1.04-3.88-8.47-8.17-15.42-12.75-20.66-5.8-6.65-12.53-11.67-20.01-14.94-9.49-4.17-20.16-5.4-30.86-3.58-7.52,1.27-14.93,4.01-22.03,8.13-.85.49-1.94.2-2.44-.65s-.2-1.94.65-2.44c7.47-4.33,15.28-7.21,23.22-8.56,11.39-1.94,22.76-.62,32.89,3.83,7.96,3.48,15.11,8.81,21.26,15.86,4.81,5.5,9.29,12.74,13.31,21.53.41.9.02,1.95-.88,2.36-.24.11-.49.16-.74.16Z"/>
          <path class="cls-7" d="M408.96,529.32c-.34,0-.67-.05-.99-.16-.82-.28-1.47-.89-1.81-1.71-1.23-2.96,1.48-8.87,6.09-18.25,1.42-2.88,3.23-6.56,4.03-8.76-1.88.93-4.88,2.74-7.24,4.18-9.22,5.58-12.9,7.52-14.96,5.6-1.68-1.56-.32-4.23.19-5.24,5.12-10.18,22.97-25.72,26.49-28.73l.5-.43.73-.06c.99,0,1.79.8,1.79,1.78,0,.62-.31,1.16-.79,1.48-9.54,8.16-21.83,20.17-25.55,27.55-.09.18-.17.34-.23.48,2.38-.9,6.99-3.7,9.97-5.5,6.34-3.85,9.12-5.4,10.88-5.29.8.05,1.47.46,1.85,1.13,1.05,1.81-.23,4.75-4.47,13.37-2.2,4.49-6.21,12.64-6.05,14.99,2.55-.55,10.21-10.43,16.82-21.83l1.91-3.29,1.31,3.57c2.47,6.73,6.17,12.7,7.94,12.89,1.54-1.7,3.14-13.65,1.37-24.06-.96-5.62-2.55-8.07-3.71-8.49-.93-.33-1.41-1.35-1.08-2.28.33-.93,1.36-1.41,2.28-1.08,7.05,2.52,7.41,20.76,6.47,29.19-.97,8.78-3.15,10.05-4.71,10.24-4.37.59-8.36-6.78-10.54-11.79-5.38,8.91-13.35,20.47-18.49,20.47ZM437.54,517.1h0,0Z"/>
          <path class="cls-7" d="M555.24,528.44c-.89,0-1.72-.38-2.32-1.07-2.29-2.67-4.47-8.47-1.93-20.97.81-3.96.18-7.18-1.92-9.82-5.46-6.88-18.94-7.33-19.07-7.34-.98-.03-1.76-.85-1.73-1.83.03-.99.92-1.71,1.83-1.73.62.02,15.26.5,21.76,8.68,2.76,3.47,3.65,7.77,2.63,12.76-2.1,10.35-.71,15.12.64,17.25l5.75-20.58,15.44,14.28-6-17.26h15.67c-1.11-.62-2.45-1.33-3.93-2.12-11.1-5.89-20.29-11.25-20.43-17.33-.06-2.52,1.46-4.72,4.51-6.52.95-.56,1.95-1.04,3.05-1.48.91-.37,1.95.08,2.32.99.37.91-.08,1.95-.99,2.32-.94.37-1.78.78-2.57,1.24-1.85,1.09-2.78,2.23-2.75,3.36.1,4.49,12.09,10.85,18.54,14.26,2.18,1.15,4.05,2.15,5.43,2.99,1.22.75,1.78,2.17,1.39,3.55-.39,1.38-1.61,2.3-3.05,2.3h-12.17l4.89,14.08c.49,1.38,0,2.86-1.23,3.67-1.23.81-2.78.69-3.87-.31l-12.39-11.45-4.41,15.77c-.34,1.15-1.26,2-2.41,2.25-.23.05-.45.07-.68.07ZM576.86,519.61s0,0,0,0h0Z"/>
          <path class="cls-7" d="M763.79,539.66c-.34,0-.68-.07-1.02-.2-1.25-.51-1.91-1.83-1.56-3.13l5.55-21.27-12.75,2.71c-1.25.25-2.48-.37-2.98-1.54-.51-1.18-.12-2.51.94-3.25,9.2-6.43,15.71-12.85,19.34-19.08,4.52-7.81,2.81-12.36,2.74-12.55-.36-.91.07-1.95.98-2.31.9-.37,1.93.04,2.31.94.11.25,2.54,6.23-2.95,15.72-3.41,5.85-9.09,11.79-16.91,17.69l14.19-3.01-5.22,20.01,14.08-25.01,7.92,11.26c-.56-7.3-.68-18.17,2.14-26.89,2.78-8.65,7.85-13.39,15.06-14.08.95-.1,1.85.62,1.95,1.6.09.98-.62,1.85-1.6,1.95-5.74.55-9.67,4.36-12.01,11.63-3.22,9.94-2.24,23.48-1.68,28.84.12,1.23-.6,2.37-1.75,2.78-1.15.42-2.39.01-3.08-1l-6.61-9.4-14.78,26.25c-.49.87-1.37,1.37-2.3,1.37ZM764.66,537.23h0s0,0,0,0ZM762.98,536.54h0s0,0,0,0ZM790.4,519.4l.02.02s-.01-.02-.02-.02ZM754.02,515.9s0,0,0,0c0,0,0,0,0,0Z"/>
          <path class="cls-7" d="M673.12,512.86c-.16,0-.31-.02-.47-.05-1.15-.22-1.96-1.19-1.96-2.36l-.18-8.43-15.81,9.73c-.96.61-2.2.46-3-.36-.81-.82-.93-2.07-.3-3.04l7.81-11.65h-7.94c-1.24,0-2.25-.88-2.41-2.1-.16-1.22.6-2.34,1.8-2.66,15.14-3.95,28.39-14.02,28.53-14.13.79-.6,1.9-.45,2.5.33.6.78.45,1.9-.33,2.5-.48.37-10.16,7.73-22.74,12.49h7.28l-8.6,12.83,16.66-10.25.19,9.34c3.55-7.92,9.05-17.93,15.33-21.47.86-.49,1.95-.18,2.43.68.48.86.18,1.95-.68,2.43-7,3.95-13.43,18.55-15.87,24.65-.38.94-1.26,1.53-2.23,1.53ZM674.25,510.38v.04s0-.03,0-.04ZM652.83,508.72s-.01,0-.02.01h.02Z"/>
          <path class="cls-7" d="M192.57,528.56c-.87,0-1.69-.43-2.18-1.19l-10.4-16.19-16.85,11.1c-1.06.69-2.4.54-3.27-.34-.88-.88-1.02-2.22-.34-3.26l9.9-15.16c2.43-3.37,3.7-6.48,3.83-9.33.48-10.34-14.7-14.88-14.86-14.92-.95-.28-1.49-1.26-1.22-2.21.28-.95,1.26-1.49,2.21-1.22.74.21,18.03,5.36,17.43,18.51-.16,3.55-1.66,7.32-4.45,11.19l-7.33,11.22,16-10.54,10.57,16.46v-15.75l16.42,6.69c-3.96-4.74-9.29-11.57-12.88-17.95-4.13-7.33-5.18-12.57-3.23-16.01,1.39-2.46,4.19-3.77,8.31-3.89.96.04,1.81.75,1.83,1.73.03.99-.75,1.81-1.73,1.83-2.78.08-4.57.78-5.3,2.08-.71,1.26-1.24,4.56,3.24,12.51,4.31,7.64,11.28,16.06,15.06,20.4.79.91.84,2.23.15,3.2-.7.98-1.98,1.35-3.1.9l-15.18-6.19v13.73c0,1.16-.75,2.16-1.87,2.49-.25.07-.5.11-.75.11Z"/>
          <path class="cls-7" d="M295.04,517.42c-.83,0-1.6-.43-2.04-1.18-3.46-6.08-15.75-25.93-28.85-26.63-.96-.05-1.73-.86-1.71-1.83.03-.97.79-1.74,1.76-1.74h.04c12.7.68,23.84,15.42,29.63,24.7v-14.13l15.77,8.58-11.55-13.1,10.5.99-28.04-11.75c-.68-.26-1.16-.91-1.16-1.67,0-.99.79-1.78,1.77-1.78h.36l.35.14,35.22,14.76c1.09.45,1.68,1.62,1.39,2.78-.29,1.16-1.36,1.93-2.54,1.8l-9.22-.87,9.99,11.32c.77.88.79,2.18.06,3.09-.74.92-1.97,1.16-3,.59l-16.32-8.88v12.42c0,1.09-.71,2.02-1.76,2.3-.21.06-.43.09-.64.09ZM315.46,508.35h.02s-.01,0-.02,0ZM315.7,496.07s0,0,.01,0h-.01ZM316.27,493.81h0,0Z"/>
          <path class="cls-7" d="M384.84,351.02c-.85,0-1.61-.61-1.76-1.48-.17-.97.48-1.89,1.45-2.06,41.65-7.18,71.03-47.34,81.72-64.27.53-.83,1.63-1.08,2.46-.56.83.53,1.08,1.63.56,2.46-10.95,17.34-41.07,58.46-84.13,65.88-.1.02-.2.03-.3.03Z"/>
          <path class="cls-7" d="M436.06,254.02c-13.42,0-23.48-2.81-24.18-3.01-.95-.27-1.49-1.26-1.22-2.2.27-.94,1.26-1.49,2.2-1.22.28.08,28.09,7.83,52.65-2.75,3.9-1.7,7.57-3.78,10.89-6.2,3.14-2.29,5.63-3.08,7.6-2.42.94.32,2.17,1.12,2.76,3.14.28.95-.27,1.93-1.21,2.21-.95.28-1.93-.27-2.21-1.21-.09-.3-.24-.68-.49-.76-.12-.04-1.27-.33-4.35,1.92-3.54,2.57-7.43,4.79-11.58,6.59-10.56,4.56-21.53,5.92-30.87,5.92Z"/>
          <path class="cls-7" d="M489.33,258.87c-.82,0-1.56-.57-1.74-1.41-.21-.96.4-1.91,1.37-2.12,4.63-1,8.72-3.68,11.51-7.54.58-.8,1.69-.98,2.49-.4.8.58.98,1.69.4,2.49-3.31,4.57-8.15,7.74-13.64,8.93-.13.03-.25.04-.38.04Z"/>
          <path class="cls-7" d="M470.08,253.37c-.45,0-.91-.17-1.25-.51-1.67-1.64-3.07-3.51-4.17-5.55-1.79-3.33-2.73-7.09-2.73-10.86,0-12.64,10.28-22.92,22.92-22.92s22.9,10.28,22.9,22.92c0,.93-.06,1.91-.19,2.92-.12.98-1,1.67-1.99,1.55-.98-.12-1.67-1.01-1.55-1.99.11-.86.16-1.69.16-2.47,0-10.67-8.67-19.35-19.33-19.35s-19.36,8.68-19.36,19.35c0,3.19.8,6.36,2.31,9.17.93,1.72,2.12,3.3,3.54,4.7.7.69.71,1.82.02,2.52-.35.35-.81.53-1.27.53Z"/>
          <path class="cls-7" d="M470.07,253.37c-.35,0-.7-.1-1.01-.32-.81-.56-1.01-1.67-.45-2.48,3.93-5.67,9.4-9.95,15.81-12.39,6.9-2.61,14.45-2.93,21.86-.75.95.28,1.49,1.27,1.21,2.21-.28.94-1.26,1.49-2.21,1.21-6.67-1.96-13.42-1.68-19.59.66-5.74,2.18-10.63,6.02-14.15,11.09-.35.5-.9.77-1.47.77Z"/>
          <path class="cls-7" d="M496.43,303.62c-4.13,0-8.15-.73-11.96-2.18-7.96-3.01-14.45-8.86-18.29-16.48-2.38-4.73-3.58-9.83-3.58-15.15,0-6.93,2.08-13.58,6.01-19.24l1.2-1.72,1.51,1.45c2.94,2.83,6.61,4.65,10.62,5.26,2.49.37,4.87.27,7-.22.95-.23,1.92.38,2.13,1.34.22.96-.38,1.92-1.34,2.13-2.57.59-5.39.7-8.33.27-4.04-.61-7.78-2.26-10.95-4.8-2.81,4.67-4.29,10-4.29,15.52,0,4.76,1.08,9.32,3.2,13.55,3.43,6.82,9.24,12.06,16.36,14.75,6.5,2.46,13.94,2.56,20.37.38l.33-.11c12.13-4.25,20.26-15.7,20.26-28.57s-8.61-25.05-21.43-28.96c-.94-.29-1.47-1.28-1.18-2.23.29-.94,1.28-1.48,2.23-1.18,14.33,4.37,23.95,17.38,23.95,32.37s-9.21,27.35-22.91,32.03l-.34.11c-3.36,1.11-6.92,1.68-10.58,1.68Z"/>
          <path class="cls-7" d="M496.43,263.69c-3.92,0-7.36-2.34-8.76-5.96-.45-1.09-.69-2.28-.69-3.49,0-5.21,4.24-9.45,9.45-9.45,2.51,0,4.9.99,6.73,2.79l.03.03c1.75,1.81,2.72,4.16,2.72,6.63,0,5.21-4.25,9.45-9.47,9.45ZM496.43,248.36c-3.24,0-5.88,2.64-5.88,5.88,0,.74.15,1.47.43,2.16.88,2.28,3.01,3.72,5.45,3.72,3.26,0,5.9-2.64,5.9-5.88,0-1.53-.6-3-1.69-4.13-1.15-1.13-2.65-1.75-4.21-1.75Z"/>
          <path class="cls-7" d="M496.99,383.91c-1.36,0-2.63-.61-3.5-1.7l-7.13-8.68c-1.28-1.52-1.48-3.82-.48-5.59l5.84-10.4c.3-.52.22-1.21-.18-1.65l-5.09-5.46c-1.32-1.42-1.68-3.57-.9-5.36l4.36-10.03c.21-.48.14-1.06-.17-1.44l-5.31-6.52c-.71-.85-1.1-1.94-1.1-3.08l-.29-23.53c-.01-.98.78-1.79,1.76-1.8.96-.06,1.79.78,1.8,1.76l.29,23.55c0,.31.11.61.29.83l5.32,6.52c1.17,1.41,1.44,3.42.69,5.13l-4.36,10.02c-.22.5-.12,1.13.24,1.52l5.1,5.47c1.45,1.59,1.72,3.98.66,5.83l-5.84,10.39c-.28.48-.22,1.14.11,1.54l7.16,8.72c.28.35.62.4.78.38.18,0,.52-.08.79-.47l8.22-11.99c.14-.22.24-.55.24-.85l-1.29-66.82c-.02-.99.76-1.8,1.75-1.82h.03c.97,0,1.76.78,1.78,1.75l1.29,66.85c0,1.02-.29,2.02-.83,2.86l-8.25,12.03c-.84,1.23-2.15,1.97-3.59,2.03-.06,0-.12,0-.18,0Z"/>
          <path class="cls-7" d="M487.19,291.45c-.79,0-1.57-.15-2.31-.51-3.04-1.47-4.17-5.71-3.45-12.96.75-7.65,2.56-11.53,5.69-12.21,4.37-.95,8.43,5.55,9.19,6.87.49.85.21,1.94-.64,2.44-.85.49-1.94.21-2.44-.64-1.55-2.66-4.17-5.43-5.35-5.17-.21.05-2.07.69-2.9,9.07-.76,7.7.92,9.14,1.45,9.4,1.76.85,5.8-1.87,7.97-3.97.71-.69,1.83-.67,2.52.04.69.71.67,1.84-.04,2.52-1,.98-5.54,5.14-9.69,5.14Z"/>
          <path class="cls-7" d="M508.3,288.3c-.79,0-1.57-.15-2.31-.51-3.04-1.47-4.17-5.71-3.45-12.96.76-7.65,2.57-11.53,5.7-12.21,4.4-.95,8.42,5.55,9.18,6.87.49.85.2,1.94-.65,2.44-.85.49-1.94.21-2.44-.65-1.54-2.65-4.16-5.45-5.34-5.17-.21.05-2.08.69-2.91,9.07-.76,7.7.92,9.14,1.45,9.4,1.75.85,5.8-1.87,7.97-3.97.71-.68,1.84-.67,2.52.04s.67,1.84-.04,2.52c-1,.98-5.54,5.14-9.69,5.14Z"/>
          <path class="cls-7" d="M152.59,359.57c-.85,0-1.61-.61-1.76-1.48-.17-.97.48-1.89,1.45-2.06,46.56-8.03,79.42-52.92,91.38-71.85.53-.83,1.63-1.08,2.46-.56.83.53,1.08,1.63.56,2.46-12.22,19.33-45.82,65.19-93.8,73.46-.1.02-.2.03-.3.03Z"/>
          <path class="cls-7" d="M209.77,251.27c-14.95,0-26.15-3.13-26.93-3.36-.95-.27-1.49-1.26-1.22-2.2.27-.95,1.25-1.5,2.2-1.22.31.09,31.43,8.76,58.91-3.08,4.38-1.9,8.49-4.24,12.21-6.95,3.44-2.52,6.16-3.39,8.29-2.67,1,.34,2.32,1.2,2.95,3.37.28.95-.27,1.93-1.21,2.21-.95.28-1.93-.27-2.21-1.21-.16-.56-.39-.89-.68-.99-.24-.08-1.58-.36-5.04,2.17-3.93,2.87-8.27,5.33-12.9,7.34-11.76,5.07-23.98,6.59-34.38,6.59Z"/>
          <path class="cls-7" d="M269.23,256.68c-.82,0-1.56-.57-1.74-1.41-.21-.96.41-1.91,1.37-2.12,5.21-1.12,9.82-4.13,12.97-8.48.58-.8,1.69-.98,2.49-.4s.98,1.69.4,2.49c-3.67,5.07-9.04,8.58-15.11,9.88-.13.03-.25.04-.37.04Z"/>
          <path class="cls-7" d="M247.75,250.55c-.45,0-.91-.17-1.25-.51-1.84-1.81-3.4-3.88-4.63-6.13-1.98-3.72-3.02-7.87-3.02-12.03,0-13.99,11.38-25.37,25.37-25.37s25.35,11.38,25.35,25.37c0,1.08-.07,2.17-.21,3.24-.13.98-1.02,1.66-2,1.53-.98-.13-1.66-1.03-1.53-2,.12-.91.18-1.84.18-2.77,0-12.02-9.77-21.81-21.78-21.81s-21.81,9.78-21.81,21.81c0,3.57.9,7.15,2.59,10.33,1.06,1.93,2.4,3.71,3.99,5.28.7.69.71,1.82.02,2.52-.35.35-.81.53-1.27.53Z"/>
          <path class="cls-7" d="M247.75,250.55c-.35,0-.7-.1-1.01-.32-.81-.56-1.01-1.67-.45-2.48,4.35-6.29,10.42-11.05,17.55-13.75,7.73-2.92,16.24-3.22,24.27-.83.94.28,1.48,1.27,1.2,2.22-.28.94-1.27,1.48-2.22,1.2-7.29-2.17-14.99-1.9-21.99.75-6.45,2.45-11.94,6.75-15.88,12.44-.34.5-.9.77-1.47.77Z"/>
          <path class="cls-7" d="M277.16,306.65c-4.58,0-9.05-.81-13.29-2.41-8.83-3.35-16.03-9.85-20.28-18.3-2.64-5.23-3.98-10.89-3.98-16.81,0-3.08.39-6.19,1.15-9.26,1.11-4.34,2.97-8.41,5.52-12.11l1.2-1.73,1.51,1.47c3.29,3.19,7.42,5.24,11.95,5.94,2.62.4,5.43.31,7.9-.26.96-.22,1.92.38,2.14,1.34.22.96-.38,1.92-1.34,2.14-2.91.67-6.16.78-9.23.31-4.55-.7-8.76-2.58-12.29-5.47-1.75,2.88-3.06,5.99-3.89,9.25-.69,2.77-1.04,5.6-1.04,8.38,0,5.36,1.21,10.48,3.6,15.21,3.85,7.66,10.37,13.54,18.36,16.57,7.33,2.77,15.68,2.88,22.89.42l.31-.1c13.66-4.75,22.82-17.62,22.82-32.1s-9.68-28.15-24.08-32.53c-.94-.29-1.47-1.28-1.19-2.23.29-.94,1.28-1.47,2.23-1.19,15.92,4.85,26.61,19.29,26.61,35.94s-10.23,30.37-25.46,35.55l-.31.1c-3.74,1.25-7.71,1.88-11.79,1.88Z"/>
          <path class="cls-7" d="M277.16,262.07c-4.22,0-8.07-2.62-9.59-6.53-.5-1.17-.76-2.47-.76-3.82,0-5.69,4.64-10.33,10.35-10.33,2.75,0,5.37,1.09,7.36,3.05l.03.03c1.91,1.96,2.96,4.54,2.96,7.25,0,5.71-4.64,10.35-10.35,10.35ZM277.16,244.96c-3.74,0-6.78,3.03-6.78,6.76,0,.87.17,1.71.49,2.48,1.01,2.59,3.53,4.3,6.29,4.3,3.74,0,6.78-3.04,6.78-6.78,0-1.77-.69-3.45-1.94-4.75-1.32-1.3-3.04-2.01-4.85-2.01Z"/>
          <path class="cls-7" d="M277.8,396.26c-1.46,0-2.82-.66-3.77-1.83l-7.97-9.67c-1.39-1.69-1.59-4.11-.5-6.02l6.52-11.6c.36-.64.27-1.52-.23-2.04l-5.7-6.14c-1.42-1.52-1.8-3.77-.97-5.74l4.89-11.21c.26-.6.16-1.33-.26-1.85l-5.91-7.24c-.76-.89-1.19-2.08-1.19-3.32l-.31-26.26c-.01-.99.78-1.79,1.76-1.8,1.06.04,1.79.78,1.8,1.76l.31,26.29c0,.41.13.78.36,1.06l5.94,7.28c1.26,1.56,1.55,3.67.76,5.51l-4.89,11.2c-.27.63-.14,1.42.3,1.9l5.7,6.14c1.56,1.66,1.86,4.23.73,6.23l-6.52,11.6c-.36.64-.3,1.46.15,2l7.97,9.68c.29.35.63.52,1.07.52.4-.02.76-.23,1.01-.6l9.19-13.42c.2-.29.3-.64.3-1.05l-1.45-74.59c-.02-.99.76-1.8,1.75-1.82h.03c.97,0,1.76.78,1.78,1.75l1.45,74.63c0,1.18-.32,2.25-.94,3.12l-9.17,13.39c-.88,1.3-2.26,2.09-3.8,2.16-.07,0-.14,0-.22,0Z"/>
          <path class="cls-7" d="M266.79,293.05c-.84,0-1.67-.16-2.45-.53-3.31-1.6-4.53-6.26-3.74-14.26.83-8.43,2.8-12.71,6.19-13.44,4.77-1.05,9.19,6.11,10.03,7.56.49.85.21,1.94-.64,2.44-.85.49-1.95.21-2.44-.64-1.52-2.61-4.59-6.22-6.19-5.86-.41.09-2.48,1-3.4,10.31-.84,8.49.93,10.31,1.74,10.7,2.07,1,6.59-2.02,9.13-4.49.71-.68,1.83-.67,2.52.04.68.71.67,1.84-.04,2.52-.69.67-6,5.68-10.72,5.68Z"/>
          <path class="cls-7" d="M290.36,289.52c-.84,0-1.67-.16-2.45-.53-3.31-1.6-4.53-6.26-3.74-14.26.84-8.43,2.81-12.71,6.21-13.45,4.78-1.03,9.2,6.11,10.03,7.56.49.85.21,1.94-.64,2.44-.85.49-1.94.21-2.44-.64-1.53-2.62-4.62-6.22-6.19-5.86-.41.09-2.49,1-3.41,10.31-.84,8.49.93,10.31,1.74,10.7,2.08,1.01,6.59-2.02,9.13-4.49.71-.69,1.84-.67,2.52.04.68.71.67,1.83-.04,2.52-.69.67-6,5.68-10.72,5.68Z"/>
          <path class="cls-7" d="M282.09,391c-.97,0-1.76-.77-1.78-1.75l-1.42-65.56c-.02-.98.76-1.8,1.75-1.82.95.02,1.8.76,1.82,1.75l1.42,65.56c.02.98-.76,1.8-1.75,1.82h-.04Z"/>
          <path class="cls-7" d="M814.34,358.36c-.1,0-.2,0-.3-.03-47.97-8.27-81.57-54.13-93.79-73.46-.53-.83-.28-1.93.56-2.46.84-.52,1.93-.28,2.46.56,11.96,18.93,44.82,63.82,91.38,71.85.97.17,1.62,1.09,1.45,2.06-.15.87-.9,1.48-1.76,1.48Z"/>
          <path class="cls-7" d="M757.17,250.07c-10.4,0-22.61-1.52-34.37-6.59-4.63-2-8.96-4.47-12.9-7.34-3.45-2.52-4.8-2.25-5.04-2.17-.29.1-.51.43-.68.99-.28.95-1.26,1.49-2.21,1.21-.95-.28-1.49-1.27-1.21-2.21.63-2.17,1.96-3.03,2.95-3.37,2.13-.72,4.84.15,8.29,2.67,3.72,2.71,7.82,5.04,12.21,6.94,27.47,11.83,58.59,3.16,58.9,3.08.95-.27,1.93.28,2.2,1.22.27.95-.28,1.93-1.22,2.2-.78.22-11.99,3.36-26.93,3.36Z"/>
          <path class="cls-7" d="M697.71,255.48c-.12,0-.25-.01-.37-.04-6.08-1.3-11.44-4.81-15.11-9.88-.58-.8-.4-1.91.4-2.49.8-.58,1.91-.4,2.49.4,3.15,4.35,7.76,7.37,12.97,8.48.96.21,1.58,1.15,1.37,2.12-.18.84-.92,1.41-1.74,1.41Z"/>
          <path class="cls-7" d="M719.19,249.34c-.46,0-.92-.18-1.27-.53-.69-.7-.68-1.83.02-2.52,1.59-1.57,2.94-3.36,4.01-5.3,1.69-3.17,2.58-6.74,2.58-10.32,0-12.02-9.78-21.81-21.81-21.81s-21.79,9.78-21.79,21.81c0,.93.06,1.86.18,2.77.13.98-.56,1.87-1.53,2-1.01.12-1.87-.56-2-1.53-.14-1.06-.21-2.15-.21-3.24,0-13.99,11.37-25.37,25.35-25.37s25.37,11.38,25.37,25.37c0,4.16-1.04,8.31-3.01,12.01-1.24,2.27-2.8,4.33-4.64,6.15-.35.34-.8.51-1.25.51Z"/>
          <path class="cls-7" d="M719.19,249.34c-.57,0-1.12-.27-1.47-.77-3.94-5.69-9.43-10-15.88-12.45-7-2.64-14.71-2.92-21.99-.75-.95.28-1.94-.26-2.22-1.2-.28-.94.26-1.94,1.2-2.22,8.02-2.39,16.54-2.09,24.27.83,7.13,2.71,13.2,7.46,17.55,13.75.56.81.36,1.92-.45,2.48-.31.21-.66.32-1.01.32Z"/>
          <path class="cls-7" d="M697.7,255.48c-.23,0-.47-.05-.69-.14-.91-.38-1.33-1.43-.95-2.34.33-.78.49-1.61.49-2.48,0-3.73-3.04-6.76-6.78-6.76-1.81,0-3.53.72-4.86,2.03-.7.69-1.83.68-2.52-.02-.69-.7-.68-1.83.02-2.52,2-1.97,4.61-3.05,7.36-3.05,5.71,0,10.35,4.63,10.35,10.32,0,1.35-.26,2.65-.78,3.87-.29.68-.95,1.09-1.64,1.09Z"/>
          <path class="cls-7" d="M689.77,305.44c-4.09,0-8.05-.63-11.79-1.88h-.03l-.28-.1c-15.23-5.18-25.46-19.46-25.46-35.55s10.69-31.1,26.61-35.94c.95-.29,1.94.25,2.23,1.19.29.94-.25,1.94-1.19,2.23-14.4,4.39-24.08,17.46-24.08,32.53s9.16,27.36,22.82,32.1h.02l.28.1c7.2,2.46,15.58,2.35,22.86-.42,8-3.01,14.52-8.9,18.38-16.57,2.39-4.74,3.6-9.85,3.6-15.21,0-6.27-1.7-12.33-4.93-17.64-3.53,2.89-7.74,4.77-12.29,5.47-2.61.39-5.36.37-7.83-.03-1.81,3.13-5.23,5.16-8.93,5.16-5.71,0-10.35-4.64-10.35-10.35,0-2.71,1.05-5.28,2.96-7.25.68-.7,1.81-.72,2.52-.03.71.69.72,1.81.03,2.52-1.26,1.29-1.95,2.98-1.95,4.76,0,3.74,3.04,6.78,6.78,6.78,2.76,0,5.28-1.71,6.27-4.25l.56-1.44,1.5.34c2.46.57,5.26.65,7.9.26,4.52-.69,8.66-2.75,11.95-5.94l1.51-1.46,1.2,1.73c4.36,6.29,6.67,13.68,6.67,21.36,0,5.92-1.34,11.58-3.98,16.82-4.26,8.47-11.47,14.97-20.3,18.3-4.22,1.6-8.68,2.41-13.27,2.41Z"/>
          <path class="cls-7" d="M689.15,395.06c-.07,0-.14,0-.21,0-1.54-.07-2.93-.86-3.83-2.16l-9.16-13.39c-.64-.94-.96-2.03-.92-3.14l1.45-74.61c.02-.97.81-1.75,1.78-1.75h.03c.98.02,1.77.83,1.75,1.82l-1.45,74.63c-.01.38.09.73.3,1.04l9.15,13.38c.35.51.8.6,1.04.61.42,0,.78-.16,1.06-.5l7.97-9.7c.44-.55.51-1.37.16-1.99l-6.53-11.6c-1.12-2.02-.83-4.58.7-6.25l5.7-6.12c.46-.5.59-1.27.31-1.9l-4.87-11.22c-.79-1.8-.5-3.96.73-5.48l5.95-7.26c.23-.29.37-.71.38-1.13l.29-26.24c.01-.98.81-2.68,1.78-2.68h.02c.99.01,1.77,1.73,1.76,2.71l-.29,26.26c-.03,1.22-.45,2.38-1.17,3.3l-5.96,7.28c-.39.49-.49,1.22-.23,1.82l4.86,11.22c.85,1.92.48,4.18-.96,5.75l-5.71,6.12c-.49.53-.58,1.41-.21,2.08l6.52,11.58c1.07,1.89.88,4.3-.49,6l-7.99,9.72c-.95,1.15-2.31,1.8-3.76,1.8Z"/>
          <path class="cls-7" d="M671.73,287.46c-.84,0-1.67-.16-2.45-.53-3.31-1.6-4.53-6.26-3.74-14.26.84-8.43,2.81-12.71,6.21-13.45,4.79-1.02,9.2,6.11,10.03,7.56.49.85.21,1.94-.64,2.44-.85.49-1.94.21-2.44-.64-1.53-2.62-4.61-6.22-6.19-5.86-.41.09-2.49,1-3.41,10.31-.84,8.49.93,10.31,1.74,10.7,2.08,1.02,6.59-2.02,9.13-4.49.71-.69,1.84-.67,2.52.04.68.71.67,1.83-.04,2.52-.69.67-6,5.68-10.72,5.68Z"/>
          <path class="cls-7" d="M693.12,292.7c-.85,0-1.67-.16-2.45-.54-3.31-1.6-4.53-6.27-3.74-14.27.84-8.43,2.81-12.71,6.21-13.45,4.78-1.06,9.2,6.11,10.03,7.56.49.85.21,1.94-.64,2.44-.85.49-1.94.21-2.44-.64-1.53-2.62-4.6-6.19-6.2-5.86-.41.09-2.49,1-3.41,10.31-.84,8.5.94,10.32,1.74,10.71,2.07,1,6.59-2.02,9.13-4.47.71-.69,1.84-.67,2.52.04.68.71.67,1.83-.04,2.52-.69.67-5.99,5.66-10.71,5.66Z"/>
          <path class="cls-7" d="M684.85,389.82h-.04c-.98-.02-1.77-.84-1.75-1.82l1.4-65.56c.02-.97.82-1.75,1.78-1.75h.04c.98.02,1.77.84,1.75,1.82l-1.4,65.56c-.02.97-.82,1.75-1.78,1.75Z"/>
          <path class="cls-7" d="M501.7,378.76h-.04c-.98.03-1.8-.75-1.83-1.74l-1.67-65.55c-.02-.97.73-1.78,1.7-1.83h.04c.98-.03,1.8.75,1.83,1.74l1.67,65.55c.02.97-.73,1.78-1.7,1.83Z"/>
          <path class="cls-7" d="M679.7,118.19c-.82,0-1.64-.23-2.39-.68-1.58-.96-2.42-2.7-2.17-4.53.46-3.16,1.19-6.2,2.19-9.06,5.26-15.13,16.71-22.48,23.06-25.51.32-.16.69-.3,1.12-.41,2.36-.74,5.07-.1,6.99,1.67,3.28,3.08,7.71,7.57,10.26,11.59,1.34,2.15,2.02,3.86,2.15,5.4.09.8,0,1.61-.28,2.34-2.69,6.9-17.4,12.22-26.55,13.27-2.31.27-4.79,1.08-7.39,2.41l-.87.48c-1.1.59-2.25,1.3-3.52,2.19-.79.56-1.7.84-2.62.84ZM703.53,81.28c-.35,0-.71.05-1.05.16-.26.07-.4.12-.52.18-5.89,2.81-16.42,9.57-21.26,23.48-.92,2.65-1.6,5.47-2.02,8.39-.08.57.32.88.49.99.17.1.62.31,1.1-.03,1.04-.72,2.01-1.35,2.94-1.89h0s.93-.54.93-.54c3.31-1.81,6.52-2.92,9.54-3.27,9.12-1.04,21.81-6.33,23.63-11.01.07-.19.1-.42.06-.67v-.07c-.08-.93-.63-2.22-1.62-3.82-2.35-3.69-6.56-7.95-9.67-10.88-.71-.65-1.62-1-2.54-1ZM685,113.59h.02-.02Z"/>
          <path class="cls-7" d="M696.36,121.29c-5.2,0-8.93-1.06-11.13-3.16-2.13-2.03-2.04-4.27-2-4.7.09-.98.98-1.72,1.94-1.62.98.09,1.71.96,1.62,1.94,0,.02-.03.94.98,1.86,1.31,1.2,5.06,3,15.31,1.6,5.08-.69,8.88-2.71,11.32-6.02,4.33-5.87,3.04-13.98,3.02-14.07-.16-.97.49-1.89,1.46-2.05.97-.16,1.89.49,2.05,1.46.07.39,1.57,9.65-3.65,16.75-3.03,4.12-7.65,6.63-13.73,7.46-2.65.36-5.04.54-7.19.54Z"/>
          <path class="cls-7" d="M315.23,136.99c-.91,0-1.82-.28-2.62-.84-1.26-.88-2.41-1.59-3.51-2.18l-.95-.52c-2.57-1.3-5.02-2.1-7.32-2.37-9.14-1.05-23.85-6.37-26.53-13.26-.29-.75-.38-1.57-.29-2.4.12-1.49.85-3.34,2.17-5.41,2.02-3.18,5.46-7.06,10.23-11.53,1.93-1.78,4.64-2.41,7.09-1.65.33.08.71.22,1.06.4,6.32,3.01,17.76,10.36,23.03,25.5h0c.99,2.87,1.73,5.91,2.18,9.05.25,1.85-.58,3.58-2.16,4.55-.75.45-1.57.68-2.39.68ZM311.72,131.34c.94.54,1.91,1.17,2.94,1.89.49.34.94.14,1.11.03.17-.1.57-.41.48-1-.42-2.9-1.1-5.72-2.02-8.38h0c-4.84-13.91-15.38-20.67-21.23-23.46-.15-.07-.28-.12-.46-.17-1.33-.41-2.71-.08-3.7.83-4.54,4.26-7.79,7.91-9.65,10.84-1.25,1.97-1.58,3.18-1.63,3.85-.04.32-.01.55.06.75,1.82,4.67,14.51,9.96,23.62,11,3.03.36,6.24,1.46,9.55,3.28l.92.53Z"/>
          <path class="cls-7" d="M298.57,140.09c-2.15,0-4.55-.18-7.19-.54-6.08-.83-10.7-3.34-13.72-7.46-5.22-7.11-3.72-16.36-3.65-16.75.17-.97,1.08-1.63,2.05-1.46.97.16,1.62,1.08,1.46,2.05-.01.08-1.3,8.2,3.02,14.07,2.43,3.3,6.24,5.33,11.32,6.01,10.25,1.4,14-.4,15.31-1.6,1.01-.92.98-1.84.98-1.88-.04-.97.69-1.82,1.66-1.89,1.01-.07,1.81.62,1.89,1.59.04.43.12,2.66-2,4.7-2.2,2.1-5.93,3.16-11.13,3.16Z"/>
          <path class="cls-7" d="M461.81,118.38c-.22,0-.44,0-.65,0-17.7-.28-32.23-12.24-32.4-26.67l-.24-23.26c-.02-1.75.69-3.43,2-4.74,1.65-1.64,4.12-2.53,6.67-2.51l46.89.72c4.78.08,8.69,3.42,8.72,7.44l.18,16.18c.01.98-.78,1.79-1.76,1.8h-.02c-.98,0-1.77-.79-1.78-1.76l-.18-16.19c-.01-2.07-2.4-3.86-5.21-3.91l-46.89-.72c-1.64-.01-3.14.52-4.09,1.47-.44.44-.97,1.18-.95,2.17l.24,23.27c.14,12.51,13.1,22.89,28.89,23.14,6.2.12,12.11-1.37,17.05-4.27.84-.5,1.94-.21,2.44.64.5.85.21,1.94-.64,2.44-5.33,3.12-11.63,4.76-18.26,4.76Z"/>
          <path class="cls-7" d="M538.34,118.38c-.21,0-.42,0-.63,0-9.78-.16-18.92-3.85-25.08-10.13-.69-.7-.68-1.83.02-2.52.7-.69,1.83-.68,2.52.02,5.51,5.62,13.74,8.92,22.59,9.06,8.81.16,16.9-2.86,22.3-8.24,3.98-3.96,6.05-8.77,5.99-13.9l-.24-23.29c-.03-2.07-2.43-3.86-5.24-3.91l-2.26-.04-44.63-.68c-1.59-.1-3.11.51-4.07,1.46-.45.44-.98,1.19-.98,2.2l.22,19.14c.01.99-.78,1.79-1.76,1.8-.95.03-1.79-.78-1.8-1.76l-.22-19.14c-.01-1.77.71-3.46,2.03-4.77,1.61-1.59,3.95-2.49,6.46-2.49.06,0,.12,0,.18,0l46.9.72c4.84.08,8.68,3.35,8.74,7.43l.24,23.29c.07,6.03-2.43,11.88-7.04,16.47-5.94,5.92-14.75,9.28-24.24,9.28Z"/>
          <path class="cls-7" d="M497.73,136.71h-.13c-2.16-.04-4.16-1.03-5.51-2.73l-9.17-11.5c-2.3-2.88-4.05-5.98-5.21-9.23-.06-.13-.15-.35-.23-.6-1.3-3.67-1.87-7.48-1.69-11.3.48-10.31,5.73-16.39,15.19-17.56,1.58-.21,3.4-.26,5.41-.17,4.57.24,8.4,1.02,11.4,2.31,8.06,3.49,10.63,10.53,7.86,21.5-.27,1.07-.61,2.24-1.04,3.56-.97,2.99-2.15,5.96-3.19,8.58l-.52,1.33c-2.65,6.63-5.68,10.91-7.76,13.32-1.35,1.58-3.31,2.48-5.39,2.48ZM494.53,87.14c-1.13,0-2.17.06-3.11.18-7.62.95-11.68,5.72-12.07,14.19-.16,3.36.34,6.71,1.5,9.97.06.17.11.3.17.44,1.08,3,2.64,5.76,4.69,8.32l9.18,11.5c.68.86,1.7,1.37,2.78,1.38,1.11.04,2.06-.43,2.74-1.23,1.91-2.22,4.69-6.15,7.15-12.32l.52-1.33c1.02-2.57,2.18-5.49,3.11-8.38.41-1.25.73-2.33.98-3.32h0c2.34-9.25.55-14.6-5.81-17.36-2.61-1.13-6.03-1.81-10.16-2.02-.57-.03-1.13-.04-1.67-.04Z"/>
          <path class="cls-7" d="M711.61,34.55c-.52,0-1.03-.22-1.38-.66-.62-.76-.51-1.89.26-2.51.13-.11,13.06-10.6,25.37-17.83,11.76-6.91,19.01-8.73,22.79-5.71,2.89,2.3,3.18,6.96.88,14.25-.3.94-1.29,1.46-2.24,1.17-.94-.3-1.69-.18-1.39-1.12,2.33-7.39,1.41-10.8.52-11.51-1.09-.87-5.11-2.02-18.76,6-12.08,7.1-24.8,17.42-24.92,17.52-.33.27-.73.4-1.12.4Z"/>
          <path class="cls-7" d="M738.75,37.18c-.51,0-1.01-.22-1.37-.63-.63-.75-.54-1.88.21-2.51.34-.29,8.44-7.09,16.42-11.46,1.66-.9,3.09-1.58,4.39-2.11,4.85-1.97,8.29-1.98,10.53-.05,2.47,2.15,2.63,8.89,1.04,15.34-.24.96-1.2,1.54-2.16,1.3-.96-.24-1.54-1.2-1.3-2.16,1.6-6.49.84-11.13.09-11.79-1.08-.93-3.51-.7-6.86.66-1.18.48-2.5,1.11-4.03,1.93-7.64,4.19-15.74,10.98-15.82,11.05-.33.28-.74.42-1.15.42Z"/>
          <path class="cls-7" d="M704.82,25.94c-.23,0-.46-.04-.68-.13-.91-.37-1.35-1.42-.97-2.33.06-.14,1.41-3.41,3.43-7.48,7.47-15.12,11.56-16.34,13.99-15.95,3.66.59,5.93,7.65,6.46,11.44.14.98-.54,1.88-1.52,2.01-.98.14-1.88-.55-2.01-1.52-.86-6.15-3.48-8.41-3.5-8.41-1.14-.21-4.56,2.55-10.23,14.01-1.96,3.94-3.31,7.21-3.32,7.25-.28.69-.95,1.11-1.65,1.11Z"/>
          <path class="cls-7" d="M537.34,50.24c-.44,0-.88-.16-1.23-.49-11.8-11.21-30.14-6.39-30.33-6.34-.94.26-1.93-.3-2.19-1.25-.26-.95.3-1.93,1.25-2.19.83-.22,20.48-5.38,33.72,7.2.71.68.74,1.81.06,2.52-.35.37-.82.56-1.29.56Z"/>
          <path class="cls-7" d="M461.51,50.24c-.47,0-.94-.19-1.29-.55-.68-.71-.65-1.84.06-2.52,13.21-12.57,32.89-7.42,33.72-7.2.95.26,1.51,1.23,1.25,2.19-.26.95-1.23,1.52-2.19,1.26-.18-.05-18.59-4.84-30.33,6.34-.34.33-.79.49-1.23.49Z"/>
          <path class="cls-7" d="M301.3,51.77c-.8,0-1.53-.55-1.73-1.37-.02-.06-1.62-6.61-5.24-13.52-3.52-6.71-9.61-14.95-18.65-16.16-9.07-1.2-19.67,4.65-31.51,17.42-.67.72-1.8.76-2.52.1-.72-.67-.76-1.8-.09-2.52,12.68-13.67,24.32-19.89,34.6-18.53,8.35,1.11,15.73,7.35,21.34,18.04,3.83,7.32,5.47,14.06,5.54,14.34.23.96-.36,1.92-1.32,2.15-.14.03-.28.05-.42.05Z"/>
          <path class="cls-7" d="M270.62,50.24c-.13,0-.27-.02-.4-.05-.96-.22-1.56-1.18-1.34-2.14.02-.08,1.9-8.51-1.34-12.9-1.15-1.55-2.81-2.39-5.09-2.56-4.4-.33-10.76,1.85-18.92,6.52l-.65.38c-.64.38-1.31.77-1.99,1.18l-.68.41c-.85.51-1.94.24-2.45-.61-.51-.84-.24-1.94.61-2.45l.66-.4c.68-.42,1.38-.83,2.05-1.22l.67-.39c8.8-5.04,15.84-7.37,20.97-6.99,3.33.25,5.93,1.59,7.7,4.01,4.21,5.71,2.03,15.4,1.94,15.81-.19.82-.92,1.38-1.74,1.38Z"/>
          <path class="cls-7" d="M412.38,187.38c-.19,0-.39-.03-.58-.1-.93-.32-1.43-1.33-1.11-2.27,10.94-31.9,16.71-56.77,16.77-57.01.22-.96,1.18-1.56,2.14-1.34.96.22,1.56,1.18,1.34,2.14-.06.25-5.87,25.28-16.87,57.37-.25.74-.95,1.21-1.69,1.21Z"/>
          <path class="cls-7" d="M426.31,183.19c-.18,0-.37-.03-.55-.09-.94-.3-1.45-1.31-1.15-2.24l9.42-29.24c.3-.94,1.31-1.45,2.24-1.15.94.3,1.45,1.31,1.15,2.24l-9.42,29.24c-.24.76-.94,1.24-1.7,1.24Z"/>
          <path class="cls-7" d="M587.21,241.97c-.87,0-1.64-.64-1.76-1.53-2.02-14.21-22.5-46.12-22.71-46.44-.53-.83-.29-1.93.53-2.47.83-.53,1.93-.29,2.47.53.86,1.34,21.11,32.9,23.24,47.87.14.97-.54,1.88-1.52,2.02-.08.01-.17.02-.25.02Z"/>
          <path class="cls-7" d="M418.16,461.79c-.24,0-.49-.05-.73-.16-41.46-18.72-49.45-70.31-49.53-70.83-.14-.97.53-1.88,1.5-2.02,1-.14,1.88.53,2.02,1.5.07.5,7.81,50.19,47.46,68.09.9.4,1.3,1.46.89,2.36-.3.66-.95,1.05-1.63,1.05Z"/>
          <path class="cls-7" d="M418.16,446.39c-.27,0-.54-.06-.8-.19-22.93-11.46-29.56-33.85-29.83-34.79-.27-.95.28-1.93,1.22-2.2.95-.27,1.93.28,2.2,1.22.06.22,6.51,21.85,28,32.58.88.44,1.24,1.51.8,2.39-.31.63-.94.99-1.6.99Z"/>
          <path class="cls-7" d="M429.14,270.02c-3.27,0-6.74-.23-10.39-.79-.97-.15-1.64-1.06-1.49-2.03.15-.97,1.06-1.64,2.03-1.49,20.52,3.12,35.81-4.77,35.96-4.85.88-.46,1.95-.13,2.41.74.46.87.13,1.95-.74,2.41-.55.29-11.57,6.01-27.78,6.01Z"/>
          <path class="cls-7" d="M223.22,264.82c-1.56,0-3.24-.02-5.05-.07-.99-.03-1.76-.85-1.73-1.83.03-.97.82-1.73,1.78-1.73h.05c18.82.54,22.67-1.95,22.99-2.18.66-.63,1.71-.66,2.41-.05.74.65.81,1.78.16,2.52-.73.83-4.31,3.35-20.61,3.35Z"/>
          <path class="cls-7" d="M196.03,174.58c-.13,0-.26-.01-.4-.04-.96-.22-1.56-1.17-1.35-2.13l13.82-60.96c.22-.96,1.18-1.56,2.13-1.35.96.22,1.56,1.17,1.35,2.13l-13.82,60.96c-.19.83-.92,1.39-1.74,1.39Z"/>
          <path class="cls-7" d="M215.09,141.42c-.13,0-.25-.01-.38-.04-.96-.21-1.57-1.16-1.36-2.12l4.27-19.58c.21-.96,1.16-1.58,2.12-1.36.96.21,1.57,1.16,1.36,2.12l-4.27,19.58c-.18.83-.92,1.4-1.74,1.4Z"/>
          <path class="cls-7" d="M340.16,214.27c-.87,0-1.63-.63-1.76-1.52l-8.89-58.77c-.15-.97.52-1.88,1.5-2.03.97-.15,1.88.52,2.03,1.5l8.89,58.77c.15.97-.52,1.88-1.5,2.03-.09.01-.18.02-.27.02Z"/>
          <path class="cls-7" d="M272.52,471.72c-.66,0-1.29-.36-1.6-.99-.44-.88-.08-1.95.8-2.39.54-.27,54.43-27.96,77.92-118.16.25-.95,1.23-1.52,2.18-1.28.95.25,1.52,1.22,1.28,2.18-23.94,91.9-79.23,120.19-79.79,120.46-.25.13-.52.18-.79.18Z"/>
          <path class="cls-7" d="M276.27,455c-.59,0-1.17-.29-1.5-.82-.53-.83-.29-1.93.54-2.46.3-.19,30.29-19.59,39.78-46.6.33-.93,1.34-1.42,2.27-1.09.93.33,1.42,1.34,1.09,2.27-9.9,28.19-39.95,47.61-41.22,48.42-.3.19-.63.28-.96.28Z"/>
          <path class="cls-7" d="M98.36,404.62c-.89,0-1.66-.67-1.77-1.57-2.9-24.31,10.09-48.85,10.65-49.88.47-.87,1.54-1.2,2.41-.73.87.47,1.19,1.55.73,2.41-.13.24-13.01,24.6-10.25,47.77.12.98-.58,1.87-1.56,1.98-.07,0-.14.01-.21.01Z"/>
          <path class="cls-7" d="M788.74,208.87c-.67,0-1.31-.38-1.61-1.02-6.89-14.61-7.03-35.17-7.16-55.05-.08-12.24-.16-23.79-1.85-32.97-.18-.97.46-1.9,1.43-2.08.97-.18,1.9.46,2.08,1.43,1.75,9.48,1.83,21.19,1.91,33.59.13,19.49.27,39.65,6.82,53.55.42.89.04,1.95-.85,2.37-.25.12-.5.17-.76.17Z"/>
          <path class="cls-7" d="M768.04,282.51s-.08,0-.12,0c-24.24-1.61-42.16-20.65-42.92-21.46-.67-.72-.63-1.85.09-2.52.72-.67,1.85-.63,2.52.09.18.19,17.74,18.82,40.54,20.33.98.07,1.73.91,1.66,1.9-.06.94-.85,1.67-1.78,1.67Z"/>
          <path class="cls-7" d="M634.69,420.9c-.61,0-1.21-.32-1.54-.88-30.55-52.37-13.38-103.4-13.2-103.91.32-.93,1.33-1.43,2.27-1.1.93.32,1.42,1.34,1.1,2.27-.17.49-16.79,50.04,12.91,100.94.5.85.21,1.94-.64,2.44-.28.17-.59.24-.9.24Z"/>
          <path class="cls-7" d="M641.21,401.58c-.57,0-1.12-.27-1.47-.77-12.44-17.98-12.58-39.79-12.58-40.71,0-.99.8-1.78,1.78-1.78s1.78.8,1.78,1.78c0,.21.14,21.6,11.95,38.68.56.81.36,1.92-.45,2.48-.31.21-.66.32-1.01.32Z"/>
          <path class="cls-7" d="M768.04,358.36c-.22,0-.44-.04-.65-.12-7.92-3.12-23.01-19.73-23.65-20.44-.66-.73-.6-1.86.13-2.52.73-.66,1.86-.6,2.52.13,4.2,4.64,16.38,17.18,22.31,19.51.92.36,1.37,1.4,1.01,2.31-.28.7-.95,1.13-1.66,1.13Z"/>
        </g>
        <path class="cls-7" d="M491.77,82.48c-.33,0-.67-.09-.96-.28-.83-.53-1.07-1.63-.54-2.46.13-.21,3.37-5.17,8.39-5.44,3.1-.18,6.12,1.49,8.88,4.93.62.77.49,1.89-.28,2.51-.77.62-1.89.49-2.51-.28-1.99-2.48-4-3.7-5.89-3.6-3.19.16-5.57,3.77-5.59,3.81-.34.53-.92.81-1.5.81Z"/>
        <g>
          <path class="cls-7" d="M554.81,84.21h-37.19c-.83,0-1.5-.67-1.5-1.5s.67-1.5,1.5-1.5h37.19c.83,0,1.5.67,1.5,1.5s-.67,1.5-1.5,1.5Z"/>
          <path class="cls-7" d="M554.81,92.52h-23.03c-.83,0-1.5-.67-1.5-1.5s.67-1.5,1.5-1.5h23.03c.83,0,1.5.67,1.5,1.5s-.67,1.5-1.5,1.5Z"/>
        </g>
        <g>
          <path class="cls-7" d="M478.76,84.21h-37.19c-.83,0-1.5-.67-1.5-1.5s.67-1.5,1.5-1.5h37.19c.83,0,1.5.67,1.5,1.5s-.67,1.5-1.5,1.5Z"/>
          <path class="cls-7" d="M464.6,92.52h-23.03c-.83,0-1.5-.67-1.5-1.5s.67-1.5,1.5-1.5h23.03c.83,0,1.5.67,1.5,1.5s-.67,1.5-1.5,1.5Z"/>
        </g>
        <path class="cls-7" d="M290.94,108.72c1.45.4,2.17,2.35,1.61,4.36-.56,2.03-2.18,3.33-3.63,2.93s-2.17-2.35-1.61-4.38c.55-2.01,2.18-3.3,3.62-2.91Z"/>
        <path class="cls-7" d="M701.94,89.71c1.36-.65,3.18.35,4.08,2.23s.55,3.94-.81,4.59-3.18-.35-4.09-2.25-.52-3.93.82-4.57Z"/>
        <g class="cls-2">
          <path d="M113.84,480.7s-11.41-5.93-20.77-24.69c-9.6-19.26,3.56,26.85-79.86,28.94,0,0,55.93,13.04,100.62-4.25Z"/>
        </g>
        <path class="cls-7" d="M496.34,125.19c-2.21,0-4.42-.77-6.2-2.31l-12.86-11.2c-.62-.54-.69-1.49-.15-2.12.54-.62,1.49-.69,2.12-.15l12.86,11.2c2.54,2.22,6.41,2.08,8.79-.3l10.93-10.93c.59-.59,1.54-.59,2.12,0,.59.59.59,1.54,0,2.12l-10.93,10.93c-1.83,1.83-4.26,2.76-6.68,2.76Z"/>
        <path class="cls-1" d="M679.97,304.2v-7.57c0-.58.5-1.04,1.08-.99l19.14,1.63c.53.04.93.5.91,1.02l-.32,8.86c-.02.59-.56,1.04-1.14.94l-18.82-2.91c-.48-.07-.84-.49-.84-.98Z"/>
        <polygon class="cls-1" points="486.66 305.65 486.66 296.77 505.03 296.77 505.03 306.42 486.66 305.65"/>
        <polygon class="cls-1" points="286.97 306.46 286.97 297.92 266.06 298.18 266.06 310.47 286.97 306.46"/>
      </g>
      <path class="cls-7" d="M809.62,69.09c.04.98-.71,1.82-1.7,1.86h-.08c-.95,0-1.74-.74-1.78-1.69-.02-.42-.6-9.77-8.14-10.85-6.29-.92-13.99-2.19-19.34-3.1-.28-.04-.88-.16-1.62-.3.26.71.39,1.46.37,2.23l-.24,23.25c-.16,14.43-14.69,26.4-32.4,26.67-.22,0-.44,0-.66,0-12.07,0-22.78-5.4-28.05-14.19-2.14-3.56-3.24-7.55-3.19-11.56l.09-8.12c-1.12-1.63-2.85-3.58-4.62-3.45-2.04.1-3.9,2.63-4.46,3.62l-.06,6.28c-.01.98-.86,1.84-1.81,1.76-.98,0-1.77-.81-1.76-1.8l.24-22.52c.01-1-.51-1.73-.95-2.18-.97-.96-2.55-1.51-4.09-1.47l-46.9.74c-2.81.04-5.2,1.83-5.21,3.91l-.26,23.27c-.06,5.04,1.95,9.78,5.81,13.71,5.41,5.51,13.55,8.65,22.47,8.45,2.5-.04,4.97-.33,7.35-.86.97-.21,1.92.4,2.13,1.36s-.39,1.91-1.35,2.12c-2.62.58-5.33.9-8.07.94-.21,0-.43,0-.64,0-9.6,0-18.48-3.45-24.43-9.52-4.48-4.56-6.91-10.33-6.84-16.25l.26-23.27c.03-4.04,3.95-7.37,8.73-7.43l46.89-.75c2.6.04,5.02.88,6.66,2.52,1.32,1.31,2.03,3,2.01,4.75l-.12,10.75c1.15-.9,2.56-1.62,4.22-1.7,1.69-.08,3.32.52,4.86,1.77l.11-9.93c.03-4.01,3.94-7.35,8.72-7.43l46.9-.73c.81,0,1.62.07,2.4.25h.05c.06.02,6.91,1.38,8.05,1.57,5.34.91,13.01,2.18,19.26,3.09,8.38,1.2,10.98,9.82,11.19,14.21ZM773.77,57.19c0-.93-.44-1.81-1.28-2.48-.96-.76-2.23-1.17-3.6-1.17h-.15l-46.91.72c-2.81.05-5.2,1.84-5.21,3.9l-.27,23.3c-.03,3.39.87,6.65,2.68,9.68,4.57,7.61,14.35,12.46,25.03,12.46h.58c15.79-.25,28.74-10.63,28.89-23.15l.24-23.26Z"/>
      <path class="cls-7" d="M763.65,69.45c.83,0,1.5.68,1.5,1.5s-.67,1.5-1.5,1.5h-37.18c-.83,0-1.5-.67-1.5-1.5s.67-1.5,1.5-1.5h37.18Z"/>
      <path class="cls-7" d="M763.65,77.77c.83,0,1.5.67,1.5,1.5s-.67,1.5-1.5,1.5h-23.03c-.82,0-1.5-.67-1.5-1.5s.68-1.5,1.5-1.5h23.03Z"/>
      <path class="cls-7" d="M687.08,68.82c.83,0,1.5.67,1.5,1.5s-.67,1.5-1.5,1.5h-37.19c-.83,0-1.5-.68-1.5-1.5s.67-1.5,1.5-1.5h37.19Z"/>
      <path class="cls-7" d="M687.08,77.13c.83,0,1.5.67,1.5,1.5s-.67,1.5-1.5,1.5h-23.03c-.83,0-1.5-.67-1.5-1.5s.67-1.5,1.5-1.5h23.03Z"/>
      <path class="cls-7" d="M355.5,100.21c.07,7.82-4.06,15.1-11.34,19.99-5.58,3.74-12.65,5.78-19.98,5.78h-.58c-2.74-.05-5.46-.36-8.07-.94-.96-.22-1.57-1.17-1.36-2.13.22-.96,1.16-1.56,2.13-1.36,2.38.53,4.85.82,7.35.86,6.77.13,13.4-1.74,18.52-5.17,6.26-4.21,9.83-10.4,9.77-16.99l-.27-23.26c-.01-2.09-2.39-3.88-5.2-3.91l-46.9-.74c-1.6-.07-3.13.5-4.09,1.47-.45.44-.97,1.18-.96,2.17l.24,22.52c.01.99-.77,1.8-1.76,1.81h-.02c-.98,0-1.77-.79-1.78-1.77l-.1-9.13c-.2-.13-.37-.3-.51-.51-1.04-1.59-2.62-3.47-4.28-3.47-.04,0-.07,0-.1,0-1.86.08-3.61,2.48-4.2,3.51l.11,11.26c.05,4.07-1.01,7.94-3.14,11.5-5.26,8.84-15.99,14.27-28.1,14.27h-.66c-17.69-.28-32.22-12.24-32.38-26.67l-.2-17.98c-2.34.4-7.6,1.29-13.09,2.15-2.33.38-4.71.75-6.91,1.06-7.54,1.08-8.11,10.45-8.13,10.85-.05.95-.84,1.69-1.78,1.69h-.09c-.98-.05-1.74-.88-1.69-1.86.2-4.39,2.81-13.01,11.19-14.21,2.18-.31,4.54-.68,6.85-1.05,5.97-.94,11.67-1.91,13.61-2.24l-.02-1.69c-.02-1.77.71-3.45,2.03-4.76,1.65-1.64,4.05-2.52,6.64-2.5l46.89.74c4.76.06,8.69,3.39,8.74,7.44l.07,6.6c1.11-.89,2.48-1.6,4.08-1.68,1.75-.04,3.43.64,5.01,2.05l-.09-7.9c-.02-1.74.69-3.43,2.01-4.74,1.65-1.64,4.03-2.5,6.67-2.51l46.89.74c4.78.06,8.69,3.4,8.72,7.45l.26,23.25ZM275.92,109.88c1.79-2.99,2.68-6.23,2.64-9.63l-.24-23.26c-.03-2.12-2.38-3.88-5.23-3.91l-46.9-.74s-.08-.01-.12-.01c-1.57,0-3.01.53-3.95,1.47-.45.45-.98,1.19-.98,2.19l.27,23.28c.14,12.51,13.09,22.89,28.86,23.14.2,0,.39,0,.58,0,10.72,0,20.51-4.89,25.07-12.54Z"/>
      <path class="cls-7" d="M346.66,88.56c.83,0,1.5.67,1.5,1.5s-.67,1.5-1.5,1.5h-37.18c-.83,0-1.5-.67-1.5-1.5s.67-1.5,1.5-1.5h37.18Z"/>
      <path class="cls-7" d="M332.51,96.87c.82,0,1.5.67,1.5,1.5s-.68,1.5-1.5,1.5h-23.03c-.83,0-1.5-.67-1.5-1.5s.67-1.5,1.5-1.5h23.03Z"/>
      <path class="cls-7" d="M270.09,89.2c.82,0,1.5.67,1.5,1.5s-.68,1.5-1.5,1.5h-37.19c-.83,0-1.5-.67-1.5-1.5s.67-1.5,1.5-1.5h37.19Z"/>
      <path class="cls-7" d="M255.93,97.51c.83,0,1.5.67,1.5,1.5s-.67,1.5-1.5,1.5h-23.03c-.83,0-1.5-.67-1.5-1.5s.67-1.5,1.5-1.5h23.03Z"/>
    </g>
  </g>
</svg>