<?xml version="1.0" encoding="UTF-8"?>
<svg id="Layer_2" data-name="Layer 2" xmlns="http://www.w3.org/2000/svg" xmlns:xlink="http://www.w3.org/1999/xlink" viewBox="0 0 545.93 864.66">
  <defs>
    <style>
      .cls-1 {
        fill: none;
      }

      .cls-2 {
        fill: #c5ba9f;
      }

      .cls-3 {
        fill: #3156aa;
      }

      .cls-4 {
        fill: #59591d;
      }

      .cls-5 {
        fill: #fff;
      }

      .cls-6 {
        fill: #6c4637;
      }

      .cls-7 {
        fill: #f3892e;
      }

      .cls-8 {
        fill: #0d120e;
      }

      .cls-9 {
        fill: #993;
      }

      .cls-10 {
        fill: #0e1b1e;
      }

      .cls-11 {
        fill: #59590e;
      }

      .cls-12 {
        fill: #ea9c2f;
      }

      .cls-13 {
        clip-path: url(#clippath);
      }
    </style>
    <clipPath id="clippath">
      <path class="cls-1" d="M320.37.4c3.45-.85,26.29-1.93,41.44,15.41,15.15,17.34,46.72,30.26,43.38,48.4s8.75,25.38-.33,68.14c-9.08,42.76,3.12,60.38-6.51,101.55-9.63,41.18-24.24,52.96-29.38,95.81-5.13,42.84-2.81,94.67-40.61,133.63-37.79,38.96-16.62,49.27-38.32,81.64-21.7,32.37-15.23,27.2-39.34,63-24.11,35.79-10.16,74.72-58.84,112.39-48.68,37.67-66.7,64.71-132.68,72.54,0,0-18.93,8.11-29.59-56.45-10.66-64.56-47.68-73.5-18.78-189.46,28.91-115.94,29.7-130.31,47.95-167.16,18.24-36.84,30.7-74.9,56.9-107.15,26.2-32.26,23.73-74.49,70.74-124.49,0,0,27.41-53.85,64.73-85.41C288.44,31.2,285.93,8.93,320.36.39h0Z"/>
    </clipPath>
  </defs>
  <g id="Layer_2-2" data-name="Layer 2">
    <g id="Object">
      <g>
        <path class="cls-6" d="M523.07,566.37c-81.65-8.41-164.36,1.51-246.17,3.71-83.57,2.25-167.2.43-250.75-1.4-6.8-.15-.45,4.82,1.44,5.88,5.14,2.9,12.15,4.87,18.89,5.01,82.15,1.79,164.39,3.58,246.56,1.5,81.4-2.06,164.05-12.33,245.25-3.96,5.75.59,6.69-1.77,3.4-4.42-4.21-3.37-12.26-5.68-18.62-6.34h0v.02Z"/>
        <g class="cls-13">
          <g>
            <path class="cls-2" d="M320.37.4c3.45-.85,26.29-1.93,41.44,15.41,15.15,17.34,46.72,30.26,43.38,48.4s8.75,25.38-.33,68.14c-9.08,42.76,3.12,60.38-6.51,101.55-9.63,41.18-24.24,52.96-29.38,95.81-5.13,42.84-2.81,94.67-40.61,133.63-37.79,38.96-16.62,49.27-38.32,81.64-21.7,32.37-15.23,27.2-39.34,63-24.11,35.79-10.16,74.72-58.84,112.39-48.68,37.67-66.7,64.71-132.68,72.54,0,0-18.93,8.11-29.59-56.45-10.66-64.56-47.68-73.5-18.78-189.46,28.91-115.94,29.7-130.31,47.95-167.16,18.24-36.84,30.7-74.9,56.9-107.15,26.2-32.26,23.73-74.49,70.74-124.49,0,0,27.41-53.85,64.73-85.41C288.44,31.2,285.93,8.93,320.36.39h0Z"/>
            <g>
              <path class="cls-4" d="M425.37,76.33c-11.54,4.12-23.21,5.39-34.67,5.17-6.18-.12-12.29-.64-18.36-1.32-6.41-.71-12.96-1.21-19.1-2.99-1.24-.36-.57,2.71.33,2.97,5.74,1.67,11.84,2.17,17.84,2.85,6.29.72,12.61,1.31,19,1.47,11.8.32,23.85-.9,35.76-5.15,1.19-.42.18-3.37-.78-3.02h0Z"/>
              <path class="cls-6" d="M425.29,47.03c-.44.13-.74.53-.88,1-.86.21-2.81.5-3.12.58-1.19.29-2.38.56-3.57.83-2.55.56-5.1,1.06-7.64,1.5-4.76.81-9.51,1.4-14.25,1.77-10.03.79-19.96.51-29.69-.69-.96-.12-1.58.67-1.64,1.44-.64-.62-1.29-1.24-1.94-1.88,6.94-16.02,10.86-25.03,10.86-25.03-4.11,7.95-8.16,15.85-12.19,23.72-.96-.98-1.87-2.01-2.68-3.14-1.68-2.37-2.26-5.56-3.87-7.98-1.88-2.85-3.09-5.56-3.91-9.21-.78-3.43-1.3-6.98-1.9-10.5-2.36-13.9-5.96-27.24-10.78-39.82-.32-.84-2.81-1.08-2.63-.62,5.08,13.29,8.71,27.37,11.14,42.05.58,3.52,1.17,7.05,2.06,10.42.86,3.23,2.22,5.19,3.81,7.81,1.62,2.69,2.25,5.89,4.18,8.35,1.17,1.49,2.48,2.82,3.81,4.12-.77,1.5-1.53,2.99-2.29,4.48-1.78-2.84-5.78-5.01-7.34-6.28-1.94-1.58-4.86-3.25-5.51-6.15-.38-1.67-.38-3.51-.77-5.19-.56-2.41-1.59-4.37-2.91-6.15-2.38-3.21-2.72-6.96-4.08-10.85-1.17-3.36-2.81-6.37-4.2-9.57-3.24-7.48-4.87-16-6.5-24.43-.17-.87-1.81-1.7-1.86-1.97,1.46,7.62,2.94,15.29,5.59,22.25,1.28,3.37,2.92,6.44,4.3,9.73,1.32,3.13,1.7,6.75,2.91,9.89,1.2,3.1,3.69,4.92,4.65,8.23.8,2.74.56,6.06,1.82,8.52.87,1.72,2.24,3.03,3.59,4.18,1.33,1.14,2.7,2.21,4.06,3.31,1.27,1.04,5.67,3.49,5.25,5.84-.03.16.02.31.09.45-.55,1.08-1.1,2.16-1.65,3.23-4.36-4.44-8.75-8.89-12.7-13.81-4.7-5.87-8.39-12.69-12.03-19.58-3.57-6.74-6.52-13.52-8.52-21.32-1.68-6.57-3.32-13.15-6.71-18.59-1.04-1.67-2.4.62-1.52,2.01,3.79,6.08,5.13,13.79,7.16,21.03,2.03,7.25,5.24,13.55,8.58,19.86,3.69,6.96,7.51,13.73,12.33,19.6,3.83,4.67,8.01,8.94,12.18,13.2-.48.95-.97,1.92-1.47,2.87-3.54-4.09-8.25-7.17-12.57-9.57-6.57-3.65-10.66-11.24-14.54-18.21-3.89-6.99-7.24-14.43-10.01-22.26-2.54-7.18-4.26-14.95-8.16-21.15-.99-1.57-2.44,1.35-1.67,2.56,4.14,6.57,5.84,15.06,8.63,22.61,2.69,7.29,5.89,14.25,9.55,20.81,3.43,6.16,7.2,13.6,12.72,17.38,4.86,3.33,10.52,6.05,14.61,10.7-1.48,2.92-2.95,5.83-4.43,8.74-3.53-1.12-6.84-2.71-9.99-4.72-3.22-2.07-6.7-4.18-9.45-7.02-2.4-2.48-4.25-5.75-6.15-8.79-1.96-3.13-3.84-6.36-5.38-9.88-3.15-7.2-4.15-15.81-6.73-23.4-2.73-8.01-6.2-15.53-9.52-23.1-.3-.67-2.65-.32-2.61-.23,3.61,8.23,7.46,16.42,10.24,25.27,2.65,8.45,3.85,17.38,7.81,24.95,3.59,6.85,7.65,13.8,13.44,18.03,5.64,4.12,11.41,7.62,18,9.6-1.6,3.16-3.19,6.31-4.77,9.46-11.78-7.82-22.36-17.73-31.32-29.52-5.14-6.76-9.63-14.15-13.72-21.91-2.02-3.83-4.01-7.69-6.23-11.34-2.03-3.34-5-6.23-6.57-9.92-.58-1.36-3.22-.63-2.46,1.13,1.67,3.9,4.73,6.84,6.85,10.38,2.3,3.83,4.35,7.86,6.46,11.84,4.05,7.64,8.56,14.84,13.62,21.5,9.2,12.07,20.08,22.2,32.2,30.17-.47.94-.94,1.86-1.41,2.8-.52-.21-1.01-.42-1.4-.62-4.14-2.12-8.36-3.98-12.75-5.5-4.41-1.52-9.04-2.93-12.55-6.3-1.63-1.56-2.91-3.45-3.73-5.78-.75-2.11-1.05-4.47-2.07-6.42-1.87-3.57-5.3-5.43-7.92-8.1-3.27-3.34-5.94-7.41-8.54-11.49-5.19-8.14-10.54-15.85-17.13-22.45-1.06-1.05-2.97.05-1.62,1.4,6.43,6.43,11.61,13.95,16.67,21.9,2.36,3.7,4.78,7.33,7.61,10.53,2.7,3.05,6.85,5.12,8.76,8.99,1.86,3.77,2.22,7.97,4.86,11.19,2.19,2.68,5,4.53,7.97,5.94,3.97,1.89,8.26,2.98,12.33,4.66,2.02.83,4,1.76,5.96,2.74.42.21,1.49.61,2.66,1.12-1.64,3.27-3.27,6.53-4.9,9.78-1.86-1.72-3.76-3.38-5.79-4.83-3.3-2.36-6.95-3.97-10.63-5.57-4.19-1.82-8.22-3.78-11.78-6.84-3.27-2.81-6.23-6.09-9.21-9.27-6.2-6.64-10.96-14.06-15.54-22.39-4.17-7.58-9.07-14.27-15.02-19.9-.54-.51-2.84.49-2.79.54,6.32,5.98,11.35,13.16,15.74,21.22,4.29,7.87,8.98,14.81,14.83,21.06,5.74,6.14,11.33,11.78,18.8,15.15,4.22,1.91,8.54,3.53,12.39,6.22,2.83,1.97,5.42,4.33,7.95,6.75-1.09,2.19-2.18,4.37-3.26,6.55-6.42-4.29-11.99-9.86-18.41-14.2-7.34-4.95-15.77-7.67-23.1-12.65-6.91-4.69-12.21-11.6-17.1-18.87-2.31-3.43-4.54-6.94-6.86-10.37-2.51-3.71-5.71-7.02-7.74-11.14-.57-1.15.02,1.92.25,2.38,1.81,3.68,4.58,6.58,6.84,9.84,2.54,3.68,4.95,7.49,7.44,11.22,4.68,7.02,9.7,13.85,16.15,18.69,7.41,5.57,16.24,8.33,23.95,13.31,6.23,4.02,11.63,9.3,17.66,13.61-2.04,4.1-4.07,8.19-6.09,12.26-7.19-3.74-13.71-8.76-20.12-13.92-3.77-3.04-7.62-6.03-11.04-9.58-3.06-3.18-5.81-6.76-8.71-10.15-3.02-3.53-6.14-6.95-9.39-10.19-3.19-3.19-6.72-6-9.45-9.77-4.9-6.79-7.84-15.57-16.12-17.56-1.4-.34-2.74,1.55-.94,1.98,8.74,2.09,11.78,14.47,17.87,20.65,6.5,6.61,12.99,13.02,18.99,20.25,5.66,6.82,12.03,12.26,18.76,17.61,6.06,4.82,12.29,9.37,19.1,12.8-.93,1.87-1.84,3.72-2.76,5.58-6.01-4.94-12.61-8.97-19.04-13.17-7.98-5.22-16.57-9.91-23.81-16.38-13.39-11.98-20.14-32.72-37.33-39.09-.91-.34-3.29.81-1.6,1.44,17.31,6.43,23.98,28.47,37.99,39.94,13.48,11.04,29.56,17.9,42.73,29.41-1.23,2.49-2.45,4.97-3.67,7.45-15.11-8.06-29.19-18.19-41.87-30.34-6.73-6.44-13.05-13.43-18.95-20.9-5.76-7.28-11.42-14.93-19.74-18.42-1.44-.61-3.18,1.58-1.49,2.29,8.6,3.61,14.22,11.82,20.2,19.27,6.06,7.57,12.58,14.61,19.5,21.09,12.53,11.75,26.36,21.59,41.17,29.45-1.67,3.41-3.34,6.8-4.99,10.18-6.91-4.79-13.62-9.75-19.96-15.55-7.6-6.98-15.9-12.31-24.14-18.25-8.31-5.99-14.18-13.96-19.96-23.05-5.29-8.34-11.02-16.5-19.57-20.45-1.11-.51-1.55,2.88-.55,3.34,9.37,4.33,15.09,13.87,20.87,22.94,5.61,8.79,11.83,15.85,19.94,21.48,8.22,5.71,16.18,11.3,23.67,18.18,5.79,5.31,11.99,9.81,18.33,14.16-.93,1.9-1.84,3.79-2.76,5.68-7.01-5.47-14.31-10.49-21.41-15.83-8.21-6.17-16.05-12.95-23.71-19.96-3.79-3.48-7.5-7.08-10.89-11.09-3.29-3.9-6.1-8.31-9.14-12.47-5.7-7.82-12.84-13.62-21.36-16.99-1.18-.47-3.31,1.34-1.62,2.01,9.67,3.84,16.72,10.92,22.97,19.93,5.52,7.97,11.74,14.74,18.64,21.02,7.42,6.75,15,13.29,22.93,19.26,7.42,5.59,15.07,10.82,22.38,16.6-.88,1.81-1.76,3.61-2.63,5.42-2.88-1.04-5.95-1.66-8.75-2.96-4.89-2.28-9.32-5.73-13.71-8.94-8.37-6.13-16.44-12.73-24.1-19.96-15.25-14.39-29.22-30.74-46.75-41.7-1.54-.97-2.49,1.96-1.18,2.78,17.53,10.94,31.49,27.31,46.75,41.7,7.66,7.22,15.73,13.83,24.1,19.96,4.04,2.95,8.09,6.01,12.47,8.35,3.06,1.64,6.59,2.33,9.85,3.5-1.26,2.6-2.52,5.2-3.77,7.78-1.87-1.34-3.86-2.48-5.92-3.55-4.72-2.44-9.15-5.07-13.33-8.49-8.16-6.69-16.8-12.36-25.5-18.13-18.48-12.28-36.26-25.79-53.31-40.4-1.08-.93-3.39.57-1.97,1.78,16.39,14.04,33.46,27.06,51.16,38.97,8.79,5.92,17.8,11.43,26.06,18.26,3.81,3.15,7.63,6.11,11.94,8.39,3.31,1.75,6.72,3.32,9.73,5.58-1.51,3.14-3.02,6.27-4.52,9.39-6.46-3.95-14.77-4.16-21.75-7.11-10.21-4.33-18.61-12.16-26.99-19.66-16.64-14.91-34.34-28.19-53.05-39.69-1.51-.92-2.27,2.3-.98,3.08,18.52,11.38,36.03,24.53,52.5,39.29,7.75,6.94,15.52,14.14,24.68,18.74,4.46,2.24,9.16,3.52,14.02,4.63,3.52.8,7.14,1.66,10.24,3.48-1.46,3.04-2.91,6.08-4.35,9.1-7.36-6.57-16.52-7.52-25.82-9.96-10.28-2.69-19.81-7.78-27.96-14.92-8.25-7.23-15.54-15.68-24.1-22.49-8.69-6.89-18.02-12.7-27.86-17.45-.1-.05-.07,2.78.57,3.09,9.68,4.66,18.87,10.35,27.44,17.11,8.72,6.88,16.14,15.47,24.53,22.82,8.02,7.02,17.36,12.06,27.45,14.79,8.84,2.38,17.62,3.28,24.86,8.88-2.3,4.82-4.58,9.61-6.85,14.38-3.05-1.7-6.17-3.25-9.26-4.85-8.1-4.19-16.19-8.42-24.17-12.85-16.45-9.12-32.21-19.49-47.74-30.32-8.47-5.91-16.91-11.86-25.37-17.8-1.53-1.08-1.8,1.23-.64,2.06,18.45,12.97,36.74,26.28,55.85,38.06,9.3,5.74,18.83,11.03,28.44,16.15,4.84,2.57,9.69,5.09,14.55,7.61,2.48,1.28,4.97,2.53,7.43,3.87-1.99,4.2-3.96,8.37-5.92,12.53-9.06-4.59-18.14-9.14-27.13-13.87-4.89-2.56-9.6-5.41-13.82-9.15-4.1-3.62-7.81-7.77-11.75-11.61-15.8-15.38-35.25-24.78-54.46-33.98-1.63-.78-2.62,2.07-1.1,2.8,19.67,9.41,39.43,19.06,55.42,35.08,3.89,3.9,7.64,8.01,11.84,11.47,3.96,3.27,8.31,5.83,12.78,8.18,8.94,4.7,17.97,9.22,26.96,13.78-2.21,4.7-4.42,9.38-6.59,14.03-1.42-.63-2.84-1.27-4.26-1.87-4.58-1.94-9.22-3.77-13.76-5.81-8.41-3.77-16.25-8.46-23.32-14.7-13.66-12.04-24.08-28.31-38.77-38.89-8.17-5.88-17.16-10.24-26.69-13.13-.55-.17-2.92.45-2.5.57,17.11,5.2,31.63,15.39,43.91,29.26,12.25,13.83,24.06,27.37,40.21,35.29,4.24,2.08,8.59,3.9,12.95,5.7,2.61,1.08,5.22,2.16,7.82,3.28.38.17,2.2.88,3.76,1.74-2.14,4.58-4.27,9.14-6.37,13.67-8.88-5.06-17.7-10.24-26.43-15.57-10.1-6.16-20.62-12.07-29.16-20.81-7.83-8-14.16-17.69-22.46-25.11-8.35-7.47-17.58-13.6-26.57-20.03-1.04-.75-2.89-.03-1.34,1.08,7.16,5.11,14.43,10.06,21.33,15.59,7.16,5.74,13.27,12.52,19.2,19.86,5.76,7.12,11.88,13.44,19.07,18.6,7.26,5.21,14.95,9.72,22.54,14.31,7.65,4.63,15.37,9.12,23.13,13.55-1.4,3.01-2.78,6-4.16,8.98-5.8-3.81-11.57-7.74-16.68-12.59-3.32-3.14-6.64-6.1-10.54-8.32-4.17-2.37-8.59-4.23-12.75-6.62-16.64-9.57-30.14-24.3-44.02-38.11-3.8-3.78-7.64-7.5-11.59-11.07-3.54-3.18-7.04-6.6-11.9-6.94-1.85-.13-1.8,2.59-.17,2.71,4.96.35,8.77,4.87,12.31,8.16,3.52,3.26,6.96,6.64,10.37,10.05,6.7,6.69,13.3,13.52,20.24,19.87,6.71,6.14,13.75,11.87,21.39,16.5,3.95,2.38,8.1,4.29,12.18,6.41,4.45,2.3,8.27,5.24,11.99,8.77,5.55,5.26,11.76,9.52,18.02,13.67-1.47,3.17-2.93,6.34-4.37,9.48-13.18-9.67-30.06-12.75-43.8-21.42-8-5.04-15.34-11.29-21.84-18.57-6.51-7.31-11.27-16.52-17.78-23.78-3.59-4-7.88-7.06-12.09-10.13-4.32-3.15-8.76-6-13.87-7.48-.43-.13-.96,3.16-.14,3.4,4.85,1.4,9.08,4.1,13.18,7.08,3.82,2.78,7.7,5.53,11.11,8.94,6.67,6.7,11.25,15.97,17.44,23.27,6.35,7.48,13.55,13.92,21.42,19.18,7.86,5.24,16.38,8.88,25.06,12.32,6.94,2.76,13.88,5.65,20.05,9.92-1.35,2.94-2.7,5.87-4.03,8.79-13.46-10.31-28.81-17.13-43.72-24.67-8.88-4.5-17.65-9.31-25.64-15.5-7.65-5.92-14.17-13.38-20.93-20.52-6.63-7-13.61-13.5-21.86-17.94-1.71-.92-.58.55.3,1.02,15.83,8.52,26.26,25.58,40.4,36.8,14.02,11.12,30.27,18.09,45.92,26.06,8.76,4.46,17.36,9.31,25.2,15.47-1.03,2.26-2.07,4.51-3.08,6.76-.97-.49-1.82-.86-2.23-1.11-4.34-2.63-8.66-5.29-13.04-7.82-8.51-4.89-17.35-8.3-26.66-11.26-9.83-3.13-18.24-8.12-26.03-15.25-6.83-6.26-13.05-13.34-19.74-19.78-7.18-6.92-14.98-13.01-24.17-16.31-.71-.25-3.3.19-1.64.79,16.65,5.98,28.03,21.24,40.88,33.52,5.96,5.69,12.35,10.85,19.63,14.28,8.58,4.04,18.06,5.73,26.65,9.8,5.34,2.53,10.45,5.57,15.53,8.65,1.18.72,6.62,3.45,10.13,6.02-2.43,5.34-4.84,10.64-7.21,15.9-8.69-4.08-16.9-9.16-25.38-13.69-4.91-2.62-9.91-5.07-15.12-6.98-5.19-1.91-10.65-3.05-15.72-5.24-5.72-2.47-10.44-6.73-15.03-11.12-4.29-4.09-8.62-8.09-13.1-11.9-4.48-3.81-9.07-7.47-13.67-11.11-3.97-3.14-7.84-6.7-12.58-8.37-1.1-.39-2.88.43-1.08,1.07,5.56,1.96,10.27,6.79,14.92,10.5,4.59,3.65,9.14,7.37,13.57,11.25,8.34,7.29,15.79,16.42,25.89,20.74,5.09,2.17,10.55,3.33,15.72,5.24,5.69,2.09,11.11,4.83,16.44,7.74,8.16,4.46,16.14,9.29,24.56,13.17-1.65,3.66-3.29,7.29-4.91,10.91-15.39-7.23-31.97-11.56-47.23-19.14-8.34-4.14-16.33-9.3-23.03-16.23-6.62-6.84-12.74-13.9-20.27-19.5-8.34-6.21-17.48-11-27.17-14.37-.63-.22-.36,2.88.44,3.15,8.92,3.1,17.36,7.41,25.13,12.95s14.25,12.44,20.88,19.59c12.88,13.9,30.2,20.7,47.1,26.91,7.75,2.85,15.54,5.65,23.06,9.08-2.12,4.71-4.21,9.39-6.28,14.04-7.06-4.99-15.39-7.01-23.66-9.05-8.81-2.17-17.17-4.87-24.65-10.24-7.66-5.51-14.21-12.71-20.93-19.57-6.59-6.72-13.52-12.95-21.01-18.33-8.65-6.23-17.91-11.36-27.62-15.47-.74-.31-.87,2.96-.09,3.29,17.4,7.35,33.08,18.18,46.81,32.01,6.37,6.42,12.49,13.2,19.43,18.81,7.36,5.94,15.47,9.58,24.47,11.9,8.99,2.33,18.26,4.08,26.12,9.23-2.91,6.56-5.8,13.05-8.63,19.47-4.18-4.77-7.58-10.67-12.06-15.04-6.98-6.81-15.86-10.54-24.27-14.73-9-4.48-16.7-10.37-24.05-17.6-7.25-7.13-14.53-13.94-22.64-19.8-9.68-6.97-19.51-13.69-29.27-20.52-1.46-1.02-3.14,1.58-1.67,2.62,17.05,11.94,34.54,23.09,49.65,38.08,6.92,6.86,13.96,13.26,22.32,17.82,8.84,4.82,18.47,8.26,26.31,14.97,5.56,4.76,9.43,11.67,14.38,17.12-1.24,2.84-2.49,5.67-3.72,8.48-7.95-4.72-14.2-12.02-20.67-18.97-6.28-6.75-13.07-12.52-20.6-17.39-8.08-5.22-16.59-9.59-24.85-14.46-8.56-5.05-16.43-10.93-23.87-17.81-7.92-7.32-15.81-14.86-25.78-18.56.26.1.82,2.15,1.55,2.42,9.21,3.42,16.63,10.15,23.94,16.93,6.97,6.46,14.13,12.34,22.06,17.24,8.17,5.05,16.7,9.4,24.89,14.4,8.65,5.28,16.5,11.53,23.63,19.18,6.08,6.52,11.99,13.33,19.21,18.14-.7,1.6-1.4,3.19-2.09,4.78-.26-.25-.55-.49-.94-.73-2.27-1.44-4.67-2.63-6.93-4.08-4.15-2.66-8.13-5.61-12.04-8.69-7.71-6.06-15.08-12.6-22.82-18.62-7.72-6-15.85-10.73-24.34-15.25-4.65-2.48-8.31-6.08-12.19-9.77-3.5-3.33-7.22-6.39-11.1-9.16-8.78-6.26-18.44-10.89-28.64-14-1.73-.53-.68,1.93.35,2.25,9.24,2.81,18,6.99,26.03,12.52,4.01,2.75,7.83,5.84,11.43,9.22,3.09,2.91,6.01,6.1,9.48,8.45,3.75,2.54,7.94,4.22,11.86,6.42,3.97,2.24,7.79,4.77,11.5,7.48,7.7,5.61,14.94,11.94,22.34,18,3.91,3.2,7.86,6.35,11.95,9.26,2.02,1.44,4.06,2.82,6.14,4.14,1.19.75,2.39,1.48,3.61,2.17.42.24.91.63,1.37.77.21.12.42.23.63.34.03.01.05.02.07.03,0,.09-.02.16-.02.24-.07.81.58,1.33,1.16,1.57-1.52,3.5-3.04,6.98-4.54,10.44-6.36-4.22-12.75-8.42-18.99-12.83-4.22-2.98-8.26-6.2-12.08-9.81-3.38-3.19-6.69-6.5-10.43-9.14-7.61-5.38-16.49-8.17-24.61-12.51-8.74-4.67-16.42-11.28-24.54-17.07-8.71-6.2-18.13-10.5-27.91-14.44-1.05-.42-2.8.2-1.02.92,9.22,3.72,18.12,7.76,26.33,13.58,7.63,5.4,14.86,11.52,22.89,16.22,8.04,4.71,17.03,7.43,24.91,12.47,8,5.12,14.39,12.91,22.1,18.56,7.41,5.43,15.1,10.41,22.74,15.45-.92,2.11-1.82,4.2-2.73,6.3-5.35-4.51-11.99-6.67-17.8-10.47-3.67-2.39-6.59-5.86-9.96-8.72-3.41-2.9-7.17-5.21-10.99-7.37-16.44-9.3-33.16-18.1-49.74-27.13-9.56-5.21-19.05-10.62-28.78-15.47-.81-.4-3.29.27-1.68,1.07,21.17,10.54,41.74,22.53,62.55,33.87,10.58,5.77,21.5,10.85,30.41,19.54,3.61,3.53,7.6,6.11,11.96,8.33,4.65,2.37,9.36,4.56,13.18,8.36-.99,2.29-1.98,4.59-2.95,6.87-4.28-5.68-10.42-8.45-16.01-12.34-3.62-2.51-6.66-5.92-10.41-8.18-3.64-2.19-7.68-3.53-11.76-4.6-9.54-2.51-19.14-4.44-28.08-8.69-8.5-4.03-16.05-9.96-24-15.05-9.39-6.01-19.11-11.39-29.1-16.19-.88-.42-.18,2.53.47,2.84,8.32,3.99,16.46,8.4,24.38,13.23,7.78,4.75,15.12,10.36,22.97,14.96,7.76,4.56,16.27,7.5,24.97,9.65,9.08,2.23,18.08,3.91,25.41,10.27,3.31,2.87,6.7,5.36,10.38,7.6,3.63,2.22,7.36,4.49,10.12,7.98-1.87,4.37-3.73,8.7-5.57,13-10.66-3.68-21.38-7.48-31-13.6-4.53-2.88-8.44-6.65-12.79-9.82-4.58-3.34-9.83-5.39-14.7-8.17-9.91-5.66-18.48-13.55-27.88-20.1-9.73-6.78-20.12-12.38-31.58-15.25-1.24-.31-1.6,3.08-.56,3.35,11.44,2.87,21.85,8.47,31.57,15.25,9.39,6.55,17.97,14.44,27.88,20.1,5.09,2.91,10.61,5.04,15.34,8.66,4.07,3.12,7.85,6.58,12.15,9.33,9.39,5.97,19.83,9.72,30.24,13.33-2.7,6.32-5.35,12.57-7.95,18.74-6.7-5.27-13.7-10.05-21.02-14.21-7.95-4.52-16.01-8.45-23.04-14.64-7.03-6.18-13.79-12.51-21.43-17.75-7.58-5.18-15.48-9.8-23.31-14.51-4.47-2.69-8.92-5.38-13.38-8.06-3.98-2.4-7.98-4.77-12.59-5.64-1.53-.29-1.3,2.94-.14,3.16,5.7,1.06,10.51,4.41,15.42,7.37,5.1,3.07,10.19,6.15,15.29,9.22,9.8,5.91,19.67,11.8,28.58,19.27,4.28,3.6,8.26,7.62,12.54,11.24,4.54,3.83,9.5,6.78,14.64,9.54,9.54,5.13,18.71,10.83,27.37,17.55-1.35,3.21-2.69,6.39-4.02,9.57-6.22-4.47-12.43-8.94-18.65-13.41-7.97-5.73-15.8-11.88-24.09-17.06-8.03-5.02-17.15-7.68-25.16-12.79-7.8-4.97-14.88-11.15-22.18-16.96-7.98-6.37-16.3-12.19-25.81-15.55-.47-.16.05,2.7.85,2.99,17.37,6.14,30.27,20.69,45.45,30.95,7.73,5.22,16.43,8.03,24.49,12.52,8.5,4.75,16.27,11.08,24.22,16.8,6.69,4.81,13.37,9.61,20.06,14.43-.63,1.52-1.28,3.05-1.91,4.56-16.69-8.64-33.1-17.99-48.89-28.41-15.57-10.26-29.04-23.87-44.84-33.78-4.49-2.82-9.11-5.41-13.89-7.59-3.51-1.6-7.11-2.69-11.15-1.99-1.64.29.53,2.03,1.48,1.87,6.1-1.05,12.07,3.15,17.03,5.96,5.03,2.86,9.89,6.07,14.6,9.5,9.19,6.7,17.64,14.53,26.75,21.34,18.18,13.59,38.27,24.51,58.19,34.8-2.07,4.95-4.1,9.85-6.11,14.69-8.66-4.9-15.86-12.33-23.62-18.78-9.28-7.69-19.68-13.47-29.94-19.45-10.58-6.17-20.55-13.22-30.43-20.62-9.82-7.36-19.74-14.58-30.77-19.69-.73-.34-.77,2.94.06,3.32,11.03,5.12,20.96,12.33,30.78,19.7,9.88,7.4,19.84,14.45,30.43,20.62,10.81,6.29,21.68,12.4,31.35,20.67,6.87,5.88,13.44,12.32,21.07,16.88-1.06,2.57-2.12,5.12-3.16,7.67-7.07-7.54-15.65-12.81-24.12-18.21-10.09-6.43-20.38-12.52-30.83-18.25-10.18-5.59-20.71-10.58-30.13-17.6-9.32-6.95-17.75-15.43-28.6-19.58.1.04-.64,3.2-.08,3.42,10.67,4.08,19.01,12.37,28.15,19.25,9.24,6.96,19.56,11.91,29.58,17.39,10.13,5.53,20.11,11.39,29.9,17.57,8.73,5.51,17.73,10.86,25.12,18.45-2.15,5.23-4.25,10.39-6.33,15.49-7-7.51-14.08-14.96-21.92-21.35-8.92-7.28-18.97-12.66-28.71-18.51-20.17-12.1-40.2-24.46-60.09-37.09-1.39-.88-2.11,2.43-.98,3.14,19.57,12.42,39.27,24.58,59.11,36.49,9.58,5.76,19.53,11.03,28.4,18.06,8.27,6.55,15.68,14.34,22.98,22.2-1.72,4.23-3.42,8.42-5.09,12.56-7.32-7.08-14.62-14.22-22.02-21.21-7.93-7.51-16.99-12.51-26.41-17.37-20.26-10.45-39.14-23.11-55.83-37.72-1.16-1.01-3.5.72-2.1,1.94,16.81,14.65,35.02,27.13,54.44,37.17,9.85,5.1,19.49,10.05,27.79,17.91,7.7,7.3,15.32,14.74,22.96,22.12-1.53,3.81-3.04,7.56-4.52,11.29-8.23-6.07-15.06-14.2-22.94-20.83-8.47-7.12-17.86-12.85-27.13-18.57-9.07-5.59-18.31-10.86-27.63-15.94-9.69-5.27-19.49-10.8-26.42-20.36-1.03-1.42-2.14-.26-1.1,1.18,6.29,8.68,14.75,14.33,23.54,19.26,9.93,5.57,19.93,10.98,29.66,16.93,9.61,5.86,19.36,11.75,28.17,19.01,8.01,6.61,14.91,14.83,23.16,21.06-1.71,4.28-3.4,8.51-5.05,12.69-9.52-4.23-15.22-15.43-23.06-22.33-7.99-7.03-17.99-10.5-26.2-17.2-3.91-3.19-7.7-6.55-11.87-9.31-4.09-2.69-8.39-4.96-12.7-7.22-10.19-5.33-19.95-11.3-29.16-18.41-.33-.25-2.83-1.18-1.94-.49,7.27,5.6,14.87,10.65,22.8,15.07,8.29,4.62,16.93,8.49,24.48,14.53,6.48,5.19,12.73,10.22,19.91,14.2,4.44,2.47,8.9,4.91,12.75,8.39,3.31,2.98,6.19,6.5,9.12,9.94,4.67,5.46,9.51,10.35,15.68,13.28-1.82,4.61-3.62,9.15-5.38,13.64-13.62-17.57-31.35-30.41-48.1-43.65-4.38-3.46-8.88-6.76-13.73-9.39-4.47-2.42-9.23-4.16-13.87-6.16-5.19-2.22-9.97-4.98-14.39-8.67-4.39-3.66-8.53-7.66-13.43-10.49-1.07-.62-1.01,2.63-.28,3.06,8.97,5.21,15.81,13.63,25.26,18.06,4.85,2.27,9.92,4,14.72,6.39,5.19,2.58,9.97,5.98,14.59,9.6,8.62,6.74,17.1,13.72,25.56,20.73,8.21,6.8,15.98,14.17,22.77,22.85-1.36,3.46-2.69,6.87-4,10.25-6.05-7.17-12.87-13.38-19.69-19.55-8.42-7.62-16.88-15.23-25.94-21.87-18.24-13.38-39.46-21.42-56.63-36.62-1.21-1.08-3.12.75-1.71,1.98,16.91,14.96,37.73,22.94,55.75,35.98,9.1,6.58,17.58,14.16,26.01,21.78,7.33,6.63,14.72,13.24,21.14,21.07-1.62,4.17-3.2,8.25-4.76,12.29-8.51-14.26-22.56-21.2-33.56-32.4-6.16-6.26-11.53-13.61-18.4-18.89-7.41-5.7-16.51-7.14-24.88-10.69-9.98-4.24-19.07-10.49-26.93-18.46-1.28-1.29-.25,1.33.24,1.81,7.73,7.84,16.53,14.17,26.28,18.53,5.22,2.33,10.74,3.75,16.1,5.73,5.45,2,10.19,5.19,14.48,9.35,7.86,7.62,14.63,16.32,23.12,23.1,8.36,6.68,17.47,12.88,23.17,22.94-3.14,8.16-6.15,16.05-9.03,23.67-16.4-15.86-33.04-31.21-51.71-43.6-9.03-5.99-18.45-11.15-27.92-16.3-9.62-5.23-19.08-10.87-26.97-19.02-.94-.97-3.4.65-2.16,1.93,7.54,7.78,16.52,13.31,25.7,18.36,9.86,5.43,19.75,10.71,29.19,16.97,18.79,12.47,35.52,27.92,52.01,43.89.24.23.57.31.92.26-1.09,2.87-2.14,5.69-3.19,8.49-9.88-5.79-20.1-11.15-29.54-17.74-9.26-6.46-16.77-15.41-25.02-23.32-7.98-7.66-16.95-13.69-26.45-18.77-4.87-2.59-9.84-4.95-14.85-7.24-4.86-2.21-9.72-4.81-14.92-6.13-1.65-.42-2.34,1.68-.67,2.1,5.63,1.42,10.91,4.32,16.17,6.74,4.84,2.23,9.64,4.55,14.32,7.11,9.76,5.32,18.7,11.84,26.8,19.89,7.72,7.68,15.02,15.86,23.88,21.85,9.49,6.42,19.6,11.83,29.44,17.62.01,0,.03.01.04.02-1.2,3.21-2.38,6.37-3.53,9.48-9.24-5-16.84-12.87-25.72-18.54-9.16-5.85-19.62-8.82-29.2-13.78-10.11-5.24-18.55-13.38-28.03-19.76-8.97-6.03-19.26-9.63-27.33-17.23.06.06-.31,2.68.24,3.2,8.33,7.83,19.02,11.48,28.22,17.83,8.86,6.11,16.88,13.67,26.33,18.72,10.09,5.4,21.25,8.41,30.88,14.78,8.14,5.38,15.26,12.45,23.66,17.31-1.89,5.1-3.72,10.06-5.47,14.86-3.14-2.06-5.94-4.75-8.91-7.14-4.18-3.37-8.7-6.2-13.31-8.8-9.3-5.24-18.88-9.92-28.21-15.11-9.49-5.28-18.88-10.78-28.16-16.48-4.48-2.75-9.04-5.5-12.79-9.41-2.71-2.81-4.52-5.72-8.66-5.39-1.63.13-1.71.67-.05.54,2.25-.18,4.17,3.33,5.55,4.81,1.71,1.85,3.62,3.44,5.6,4.89,4.23,3.09,8.77,5.69,13.23,8.37,8.85,5.33,17.79,10.49,26.83,15.43,8.83,4.83,17.94,9.16,26.62,14.3,4.27,2.52,8.38,5.34,12.21,8.59,3.06,2.59,6,5.24,9.44,7.03-1.85,5.05-3.62,9.95-5.32,14.67-3.01-2.2-5.46-5.28-8-8.19-2.97-3.42-6.14-6.29-10.04-8.28-8.77-4.49-18.64-6.47-27.64-10.47-18.68-8.3-37.32-16.97-53.35-30.41-.6-.51-2.73.09-2.77.08,16.11,13.52,34.83,22.26,53.61,30.61,4.32,1.92,8.71,3.68,13.22,5.15,5.18,1.69,10.5,3.14,15.3,5.77,7.51,4.13,11.75,13.09,19.14,17.23-1.15,3.2-2.27,6.32-3.36,9.37-6.32-4.69-12.78-9.03-19.82-12.42-8.05-3.88-16.28-7.34-24.57-10.62-8.65-3.42-17.74-5.96-26.2-9.85-8.58-3.95-14.13-11.17-20.11-18.87-.88-1.12-3.38.36-2.26,1.81,5.61,7.21,10.89,14.33,18.74,18.36,8.16,4.17,17.18,6.54,25.71,9.84,8.94,3.46,17.8,7.17,26.46,11.31,7.5,3.59,14.34,8.19,21.04,13.2-2.14,6.03-4.16,11.73-6.04,17.12-1.18-2.75-2.64-5.05-4.97-6.69-3.2-2.25-7.05-3.2-10.64-4.55-8.94-3.36-16.78-8.08-23.97-14.79-12.32-11.48-26.09-24.83-43.22-26.19-1.5-.12.3,2.02,1.12,2.09,16.55,1.31,29.63,14.83,41.54,25.81,5.53,5.1,11.49,9.23,18.16,12.27,3.21,1.46,6.5,2.7,9.82,3.87,1.91.67,3.88,1.31,5.62,2.38,2.4,1.47,3.63,3.83,4.73,6.69.13.36.65.71,1.17.93-1.3,3.72-2.53,7.27-3.71,10.66-.11,0-.11.08-.05.19-.23.66-.46,1.33-.68,1.99-4.74-5.04-10.51-8.4-16.15-12.02-6.73-4.32-13.13-9.21-19.5-14.15-3.06-2.37-6.17-4.71-9.1-7.31-3.08-2.74-5.74-5.95-8.56-9.03-4.81-5.26-10.53-8.5-17.38-9.42-.99-.13-3.21,1.48-1.4,1.72,8.19,1.11,13.65,6.06,19.16,12.32,4.72,5.35,10.21,9.54,15.69,13.78,5.8,4.48,11.62,8.91,17.72,12.87,6.18,4.03,12.71,7.53,17.76,13.36.18.21.55.26.95.22-1.17,3.44-2.28,6.7-3.32,9.76-5.87.23-11.33-2.71-16.2-5.62-5.96-3.55-11.75-7.49-17.35-11.71-5.17-3.89-10.08-8.18-15.02-12.43-4.82-4.14-9.86-7.92-15.88-9.68-.67-.19-3.25,1.13-2.4,1.38,7.04,2.06,12.66,6.95,18.26,11.84,5.63,4.92,11.43,9.56,17.45,13.81,8.88,6.27,19.2,14.6,30.67,13.79-2.06,6.1-3.83,11.43-5.32,15.99-.2-.26-.4-.51-.63-.73-1.1-1.13-2.43-1.98-3.74-2.8-1.98-1.24-3.94-2.4-5.67-4.04-1.47-1.39-2.79-2.96-4.16-4.45-5.89-6.41-12.31-12.19-18.73-17.96-.7-.63-.78,1.72-.28,2.16,6.64,5.97,13.26,11.96,19.32,18.61,2.76,3.03,5.42,5.55,8.85,7.65,1.62.99,3.15,2.01,4.43,3.4-1.2,3.69-2.32,7.44-3.38,11.21l-.2-.1c-1.34,4.21-1.99,6.36-1.99,6.36l.46.18c-4.39,16.91-7.79,34.34-12.25,51.13-13.78,51.85-13.82,106.22-13.78,159.87.01,18.68.05,37.48,3.46,55.84,1.01,5.43,2.35,11.23,5.61,15.81,2.28,3.2,6.94,4.29,9.66.54,1.55-2.15,1.73-4.97,1.85-7.61,2.95-35.33,3.04-70.68,3.79-106.16.76-36.26,3.27-72.37,8.45-108.28,2.8-19.34,6.41-56.21,6.41-56.21.15-1.39.48-3.14.96-5.24.2.05.37.11.47.17l-.46-.23c.95-4.13,2.52-9.59,4.65-16.25,1.52.73,3.01,1.48,4.51,2.07,3.63,1.41,7.38,2.54,11.17,3.48,3.92.96,8.14,1.25,11.97,2.44,2.39.74,3.92,3.02,5.97,4.38,1.28.85,2.65,1.45,4.1,1.95,1.12.38,2.94-.39,1.08-1.02-3.84-1.32-6.08-5.05-9.88-6.28-4.47-1.45-9.37-1.79-13.93-2.97-4.97-1.28-9.75-3-14.4-5.17-.06-.03-.13-.06-.19-.09.8-2.49,1.69-5.15,2.64-7.97,6.21,3.46,12.19,7.43,18.86,9.91,4.79,1.78,9.78,2.99,14.78,4.1,5.51,1.22,11.55,1.87,16.5,4.72.58.34.87-2.93.14-3.35-4.24-2.44-9.2-3.15-13.93-4.17-5.86-1.27-11.74-2.56-17.36-4.65-6.36-2.37-12.1-6.09-18.01-9.43.9-2.61,1.85-5.34,2.86-8.19,8.51,1.78,15.93,7.9,23.8,11.47,5.74,2.61,12.01,3.38,18.09,4.94,6.04,1.55,11.47,4.92,17.69,5.83.98.14.75-3.16-.13-3.29-6.22-.91-11.64-4.29-17.69-5.83-6.44-1.64-13.05-2.5-19.09-5.4-7.13-3.43-13.95-8.7-21.61-10.72.93-2.59,1.9-5.28,2.9-8.04,3.61,1.19,6.32,3.73,9.64,5.56,3.16,1.75,6.53,2.87,9.6,4.86,2.38,1.54,4.76,2.92,7.5,3.64,3.3.88,6.74,1.26,10.05,2.18,3.47.97,6.86,2.19,10.31,3.28,6.52,2.07,13.23,3.22,20.04,4.21.49.07-1.28-1.54-1.85-1.64-.27-.05-.54-.1-.82-.15-.03,0-.05,0-.07.02-6.91-1.03-13.67-2.32-20.26-4.46-3.43-1.11-6.83-2.3-10.32-3.2-3.62-.93-7.55-1.11-10.94-2.65-3.02-1.36-5.63-3.56-8.65-4.94-1.95-.89-3.96-1.58-5.77-2.78-1.36-.9-2.6-2.01-3.97-2.9-1.28-.85-2.65-1.51-4.08-2.06,1.02-2.8,2.09-5.7,3.19-8.67,4.27,2.07,8.41,4.52,12.69,6.46,7.14,3.24,14.55,5.8,22.08,7.98,7.81,2.27,15.76,4.14,23.71,5.99,3.91.91,7.82,1.84,11.78,2.56,2.03.37,4.77,1.55,6.93.18.14-.09.44-.32.42-.55,0-.09,0-.2-.02-.29-.02-.48-.77-.46-1.06-.46-.06,0-.13,0-.2,0-.37,0-.76.13-1.08.31-.03-.09-.2-.13-.54-.1-.55-.08-1.09-.17-1.63-.27-1.17-.2-2.33-.43-3.48-.66-1.79-.37-3.58-.76-5.35-1.17-3.72-.85-7.43-1.73-11.14-2.62-7.4-1.78-14.77-3.67-22-5.99-7.3-2.35-14.45-5.13-21.28-8.64-3.06-1.57-6.05-3.2-9.15-4.62.97-2.6,1.97-5.27,2.99-7.99,4.39,1.34,8.57,3.37,12.69,5.35,7.53,3.61,14.9,7.59,22.5,11.06,7.3,3.33,14.84,6.19,22.76,7.74,8.24,1.62,16.81,1.47,25.37,1.26,1.46-.03,1.36-3.36.09-3.33-8.56.21-17.13.36-25.37-1.26-8.44-1.65-16.4-4.86-24.13-8.47-7.57-3.54-14.93-7.52-22.49-11.07-3.35-1.58-6.75-3.12-10.27-4.28,1.37-3.61,2.78-7.31,4.23-11.12,4.8,2.09,9.39,4.95,14.25,6.45,9.29,2.84,19.03,3.8,28.05,7.54,15.75,6.52,30.96,16.53,49.46,12.41,1.86-.41-.4-1.38-1.25-1.18-20.24,4.51-36.34-9.69-54.11-15-8.86-2.65-18.3-3.31-26.74-7.21-3.07-1.43-6.07-3.01-9.16-4.28,1.56-4.06,3.17-8.22,4.82-12.5,5.74,2.53,11.33,5.4,17.13,7.92,9.14,3.97,19.2,5.27,28.56,8.63,16.86,6.07,32.48,15.87,51.68,13.11,1.63-.23,1.68-.71,0-.48-19.8,2.85-36.28-9.65-53.96-14.88-8.54-2.53-17.34-4.07-25.44-7.85-5.81-2.72-11.49-5.56-17.38-8,2.04-5.26,4.15-10.64,6.33-16.19,1.86,1.13,3.64,2.38,5.34,3.41,3.89,2.35,7.71,4.83,11.59,7.19,8.17,5,16.9,8.23,26.02,10.92,18.68,5.49,37.31,11.56,56.67,14.8,1.37.23,2.93-1.58,1.07-1.9-19.7-3.3-38.69-9.46-57.68-15.1-9.63-2.86-18.5-6.69-27.05-12.06-4.14-2.6-8.27-5.19-12.48-7.66-.9-.52-1.79-1.07-2.7-1.6,2.15-5.46,4.36-11.05,6.64-16.77,2.12.91,3.75,2.38,5.55,4.34,3.42,3.74,7.16,7.07,11.14,10.01,8.22,6.08,17.31,10.58,26.51,14.69,18.83,8.42,38,16.97,58.91,19.21,1.17.12.89-.99.14-1.34-.51-.24-1.01-.47-1.52-.71-.61-.29-1.46-.17-1.77.13-20.27-2.64-39.12-11.23-57.42-19.62-9.25-4.24-18.37-8.99-26.38-15.61-3.7-3.06-6.76-6.93-10.34-10.13-1.34-1.19-2.78-1.85-4.3-2.3,1.22-3.06,2.45-6.17,3.71-9.3,8.09,2.83,15.13,8.28,22.09,13.57,8.05,6.12,16.33,11.19,25.58,14.94,18.92,7.67,38.53,13.57,58.1,19.44.06.03.12.06.17.08.77.22,1.52.44,2.28.65.43.13-1.22-1.63-1.78-1.8-21.26-6.38-42.77-12.51-63.17-21.28-10.38-4.47-19.02-11.52-28.22-18.17-4.62-3.34-9.44-6.35-14.64-8.44,1.06-2.66,2.13-5.33,3.22-8.03,7.18,2.23,14.29,4.66,21.16,7.73,9.8,4.39,18.41,10.78,27.73,16.12,9.38,5.37,20.12,7.6,30.27,11.03,10.31,3.48,20.44,7.49,30.36,11.96.68.3,1-3,.3-3.31-9.93-4.47-20.05-8.47-30.36-11.96-10.17-3.43-20.89-5.65-30.27-11.03-9.32-5.33-17.92-11.73-27.73-16.12-6.57-2.94-13.38-5.29-20.24-7.45.86-2.14,1.73-4.3,2.6-6.47,7.56,2.87,15.47,4.74,23.27,6.95,10.51,2.99,20.08,7.64,29.59,13.03,18.73,10.6,38.19,19.53,58.54,26.32,1.16.39,2.42-.63.99-1.51-.43-.27-.88-.54-1.31-.81-.43-.26-.95-.28-1.34-.15-19.98-6.85-38.96-15.84-57.42-26.25-8.68-4.89-17.49-9.11-27.04-11.92-8.21-2.41-16.61-4.31-24.6-7.34,1.41-3.49,2.83-7.01,4.27-10.57,2.89,1.59,5.83,3.08,8.89,4.31,4.96,2,10.22,3.17,15.11,5.33,5.15,2.27,9.91,5.39,14.92,7.96,5.08,2.61,10.33,4.88,15.66,6.94,10.62,4.11,21.62,7.16,32.2,11.37,5.12,2.04,9.85,4.91,14.92,7,4.7,1.93,9.98-.04,14.67,1.56,1.66.57,1.94-2.63.59-3.09-4.71-1.61-10,.36-14.67-1.56-4.9-2.02-9.48-4.82-14.41-6.8-10.39-4.18-21.22-7.18-31.69-11.17-5.34-2.04-10.6-4.27-15.7-6.84-4.74-2.38-9.25-5.26-14.02-7.58-4.81-2.34-9.97-3.63-14.98-5.44-3.58-1.3-7.01-2.97-10.36-4.78,1.7-4.18,3.41-8.41,5.14-12.68,6.06,2.45,12.11,4.91,18.13,7.46,8.69,3.68,16.96,8.09,25.22,12.7,7.78,4.34,15.9,7.28,24.4,9.81,9.26,2.75,18.12,6.43,26.98,10.24,4.85,2.08,9.7,4.13,14.68,5.88,2.49.88,6.47,3.47,9.31,1.64.12-.07.2-.18.24-.33-.04-.53-.21-.61-.6-.81-.49-.23-1.71-.36-2.29.18-2.61-.58-5.17-1.84-7.59-2.74-2.72-1.03-5.41-2.13-8.09-3.26-5.03-2.12-10.01-4.35-15.07-6.4-9.99-4.04-20.69-6.19-30.57-10.46-10.14-4.39-19.41-10.71-29.52-15.22-8.11-3.62-16.35-6.92-24.59-10.24,1.31-3.23,2.63-6.48,3.97-9.75,5.95,1.92,11.96,3.65,18.04,5.2,9.91,2.52,19.69,4.24,27.41,11.72,2.88,2.8,5.6,5.84,8.82,8.15,3.36,2.41,7.25,3.65,11.18,4.67,9.23,2.4,17.52,6.14,25.92,10.66,8.54,4.6,17.22,9.06,26.98,10.37,1.21.16,2.89-1.1.99-1.36-17.65-2.37-31.33-15.28-48.24-19.84-4.73-1.27-9.64-2.14-13.82-4.86-3.87-2.51-6.93-6.3-10.37-9.46-6.29-5.8-14.04-8.07-22.07-10-8.17-1.96-16.25-4.2-24.21-6.77,1.62-3.98,3.26-7.99,4.91-12.02,8.91,1.9,16.8,7.66,24.93,11.39,10.43,4.78,21.3,8.44,32.13,12.22,10.84,3.78,21.63,7.71,31.91,12.84,10.15,5.07,20,10.79,31.03,13.69,1.76.47,1.18-2.27-.1-2.61-9.2-2.41-17.59-6.92-26-11.27-8.01-4.14-16.2-7.77-24.64-10.9-16.94-6.31-34.42-11.3-50.53-19.68-5.82-3.03-11.52-6.35-17.82-7.97,1.5-3.66,3.02-7.35,4.54-11.06,6.31,2.49,12.85,4.37,19.35,6.34,8.49,2.57,16.61,5.7,24.52,9.76,8.22,4.22,16.7,7.22,25.47,10.03,8.67,2.78,17.13,6.13,25.42,9.88,9.46,4.26,18.74,8.97,28.01,13.68.98.5.27-2.51-.47-2.89-16.24-8.25-32.54-16.52-49.8-22.36-8.73-2.95-17.56-5.41-25.83-9.55-7.92-3.97-15.76-7.66-24.23-10.32-7.18-2.25-14.46-4.22-21.49-6.89,1.38-3.34,2.75-6.69,4.15-10.07,14.18,7.39,30.78,8.46,45.56,14.43,8.71,3.52,16.82,8.45,25.41,12.27,8.45,3.77,17.2,6.83,25.54,10.85,5.01,2.42,9.87,5.19,14.33,8.64,3.63,2.81,6.85,7.14,11.65,7.48,1.37.09,1.51-3.27.35-3.35-4.59-.33-7.7-4.55-11.18-7.25-3.68-2.85-7.63-5.23-11.71-7.33-8-4.13-16.44-7.21-24.71-10.69-8.35-3.51-16.24-8.01-24.45-11.84-8.31-3.88-17.13-6.15-26.04-8.32-8.08-1.96-16.15-4.06-23.53-7.82,1.68-4.07,3.37-8.17,5.07-12.28,6.57,3.15,13.51,5.38,20.41,7.71,8.76,2.95,17.02,6.5,24.79,11.67,3.67,2.45,7.34,4.91,11.32,6.71,4.17,1.89,8.58,3.17,13,4.36,8.86,2.41,17.51,5.13,25.91,8.81,9.75,4.28,19.16,9.34,28.55,14.4-.34-.18-.75-2.14-1.46-2.51-16.39-8.84-32.85-17.38-50.87-22.25-8.78-2.37-17.13-4.97-24.83-10-7.67-5-15.28-9.3-23.86-12.33-7.47-2.65-15.1-4.88-22.33-8.11,1.43-3.44,2.85-6.91,4.29-10.37,14.7,8.41,30.06,15.49,46,21.06,9.1,3.18,18.36,5.83,27.47,8.98,9.06,3.14,17.69,7.07,26.15,11.63,8.82,4.76,17.74,9.47,27.89,10.63.95.11.39-2.96-.32-3.2-.53-.18-1.06-.36-1.59-.54-.16-.05-.27.06-.35.28-8.53-1.35-16.23-5.14-23.78-9.18-7.91-4.23-15.82-8.25-24.23-11.34-17.57-6.46-35.67-11.23-52.8-18.88-7.99-3.57-15.8-7.55-23.43-11.88,1.36-3.29,2.72-6.58,4.1-9.89,7.72,1.47,14.94,4.7,21.92,8.25,8.69,4.42,17.3,9.05,26.02,13.43,17.37,8.72,35.08,16.85,53.6,22.76,5.1,1.63,10.27,3.1,15.5,4.36,2.53.61,5.08,1.2,7.65,1.69,1.32.25,2.47.45,3.8-.43.15-.09.43-.29.44-.53,0-.52-.08-.57-.42-.84-.58-.45-1.87-.18-2.49.36-.03.02-.04.04-.07.05-.08-.02-.18-.05-.3-.09-.77-.22-1.57-.32-2.35-.49-1.23-.27-2.46-.55-3.67-.84-2.27-.54-4.52-1.12-6.77-1.73-4.66-1.28-9.27-2.71-13.84-4.26-8.98-3.06-17.77-6.62-26.44-10.48-17.46-7.78-34.14-17.2-51.34-25.58-6.6-3.22-13.4-5.87-20.64-7.12,1.33-3.22,2.68-6.45,4.03-9.7,15.1,7.92,30.64,14.9,46.57,20.84,17.99,6.71,36.49,11.81,53.79,20.28,9.2,4.5,18.59,7.1,28.7,8.91,1.65.29,2.12-1.37.44-1.67-9.5-1.7-18.42-4.04-27.06-8.26-7.95-3.88-15.99-7.37-24.33-10.3-17.38-6.1-34.86-11.68-51.74-19.1-8.7-3.83-17.25-8-25.66-12.43,1.61-3.86,3.21-7.73,4.84-11.61,14.14,9.79,29.36,17.59,45.08,24.14,17.73,7.39,36.24,12.52,54.19,19.3,10.33,3.89,20.02,9.24,29.68,14.63.51.29.38-2.76-.37-3.19-8.41-4.69-16.82-9.39-25.69-13.06-8.62-3.56-17.61-6.17-26.46-9.14-18.1-6.04-35.99-12.8-52.99-21.59-7.74-4-15.26-8.46-22.49-13.41,1.85-4.42,3.7-8.88,5.56-13.33,16.88,5.45,30.2,19.26,45.51,28.03,16.47,9.44,34.25,16.32,51.86,23.12,9.64,3.72,19.46,6.99,29.76,8.63.35.06,2.78-.42,2.65-.58-.25-.29-.49-.59-.74-.88-.31-.37-1.58.05-2.29.33-17.81-3.33-34.57-10.95-51.09-17.92-8.83-3.73-17.56-7.72-25.95-12.42-8.2-4.6-15.82-10.17-23.5-15.72-8-5.79-16.27-11.17-25.71-13.8,1.1-2.64,2.2-5.28,3.31-7.92,7.22,2.88,13.44,8.19,20.17,12.08,8.5,4.9,17.5,8.78,26.65,12.16,18.22,6.74,37.03,11.82,54.99,19.25,9.73,4.02,19.42,8.16,29.86,10.13.04,0,.09.02.14.03.48.09.58-3.08-.04-3.31-.57-.2-1.14-.42-1.71-.62-.12-.04-.23.05-.31.23-8.98-1.91-17.43-5.4-25.86-8.9-8.87-3.67-17.86-6.98-26.96-9.98-18.25-6.02-36.84-11.42-53.81-20.66-7.37-4.01-14.17-9.9-21.93-13.23.91-2.18,1.82-4.36,2.75-6.55,16.69,7.58,33.46,15.08,51.1,20.19,9.11,2.64,18.41,4.66,27.36,7.8,8.93,3.14,17.32,7.6,25.86,11.66,9.23,4.39,18.71,8.29,28.98,9.64.71.09-.82-2.08-1.45-2.15-18.3-2.4-33.67-12.92-50.42-19.64-8.77-3.52-18-5.7-27.13-8.17-9.05-2.45-17.91-5.46-26.61-8.89-9.17-3.62-18.17-7.65-27.16-11.73,1.35-3.23,2.7-6.45,4.05-9.67,8.48.32,16.07,5.24,23.73,8.14,9.13,3.46,18.5,6.28,27.52,10.02,9.33,3.87,17.64,9.51,26.37,14.61,8.35,4.87,17.4,7.68,26.62,10.39,9.98,2.93,20.09,5.58,30.76,5.8.93.02.25-3.05-.66-3.07-9.99-.2-19.5-2.53-28.87-5.25-9.16-2.66-18.31-5.28-26.67-10-8.79-4.96-17.03-10.81-26.31-14.8-8.97-3.86-18.34-6.7-27.49-10.09-7.66-2.83-15.36-7.76-23.76-8.69,1.94-4.63,3.88-9.25,5.83-13.89,1.59.49,3.18,1.38,4.25,1.8,2.32.92,4.63,1.87,6.92,2.87,4.69,2.05,9.27,4.33,13.8,6.73,8.47,4.51,16.79,9.35,25.46,13.43,8.82,4.16,17.91,7.68,27.04,11.1,8.7,3.27,17.39,6.61,26.32,9.23,4.64,1.36,9.35,2.52,14.15,3.32,2.51.42,5.03.73,7.58.93,1.45.12,4.94,1,6.63.08-.07.36.41.64.62.71.08.02.18.05.26.08.51.17,1.5.26,2-.32.06-.07.12-.14.18-.21.28-.32.31-.55.12-.88-.68-1.1-1.86-.94-3.02-.94-2.8-.02-5.59-.14-8.34-.44-4.91-.53-9.73-1.49-14.46-2.72-10.03-2.6-19.68-6.36-29.35-9.98-9.99-3.73-19.94-7.57-29.56-12.2-9.93-4.78-19.38-10.54-29.25-15.47-4.89-2.44-9.87-4.66-14.93-6.66-1.74-.68-3.67-1.68-5.66-2.22,1.55-3.71,3.12-7.42,4.68-11.12,4.02.35,7.72,1.57,11.22,3.74,4.13,2.58,7.91,5.78,12.04,8.37,8.03,5.06,16.7,8.84,25.5,12.19,9.08,3.45,18.36,6.39,27.49,9.75,8.97,3.3,17.38,7.81,26.23,11.34,4.69,1.87,9.51,2.83,14.67,2.94,5.39.11,10.85-.33,16.09.59,1.72.3,2.56-2.39.81-2.69-9-1.58-18.64.48-27.39-2.31-9.16-2.91-17.58-8.02-26.57-11.44-18.63-7.09-38.26-12.03-55.33-22.8-4.58-2.88-8.73-6.56-13.42-9.21-3.18-1.79-6.6-2.81-10.19-3.2,1.42-3.38,2.84-6.74,4.26-10.11,3.67,1.08,6.94,4,10.14,5.89,4.02,2.39,8.13,4.61,12.29,6.7,8.46,4.25,17.18,7.92,26.01,11.29,17.5,6.68,35.31,13.26,53.52,17.87,4.88,1.23,9.83,2.26,14.87,2.94,5.12.69,10.67.35,15.36,2.55,1.63.76,2.33-2.4.86-3.1-3.84-1.8-8.12-1.83-12.33-2.24-4.84-.47-9.6-1.3-14.3-2.37-9.3-2.12-18.31-5.13-27.3-8.18-18.23-6.2-36.54-12.38-53.87-20.87-5.12-2.5-10.14-5.21-15.04-8.18-2.89-1.76-5.75-4.07-8.98-5.21,1.94-4.61,3.88-9.21,5.83-13.81,7.25,4.2,14.34,8.71,21.21,13.6,7.52,5.35,14.86,10.13,23.46,13.29,17.82,6.54,35.79,12.74,54,18.19,10.39,3.11,20.91,5.9,31.55,8.22,1.72.37,1.66-2.78.25-3.08-18.45-4.02-36.47-9.49-54.29-15.49-8.74-2.95-17.44-6.01-26.14-9.09-4.68-1.65-9.37-3.25-13.79-5.54-4.06-2.1-7.81-4.78-11.55-7.48-7.64-5.5-15.49-10.61-23.57-15.3,1.48-3.5,2.96-7,4.43-10.5,7.4,3.86,15.45,6.36,22.48,10.98,3.73,2.45,7.13,5.5,11.05,7.6,3.95,2.13,8.28,3.46,12.5,4.97,17.49,6.29,34.98,12.58,52.46,18.87,9.87,3.55,19.74,7.1,29.61,10.65.25.09.19-2.91-.46-3.13-17.32-6.22-34.64-12.46-51.95-18.69-8.83-3.18-17.66-6.36-26.5-9.52-4.26-1.53-8.6-2.93-12.77-4.69-4.13-1.74-7.7-4.36-11.34-7.03-7.43-5.47-16.01-8.32-24.1-12.37,1.29-3.07,2.59-6.12,3.89-9.17,8.28,3.02,15.44,8.43,23.17,12.68,8.01,4.4,16.78,6.62,25.47,9.23,18.36,5.52,35.15,15.48,52.54,23.41,8.09,3.69,16.58,6.7,25.94,5.53,1.1-.14-.75-2.19-1.57-2.09-9.25,1.15-17.59-2.02-25.55-5.74-8.42-3.92-16.78-8.01-25.16-12.02-8.07-3.86-16.13-7.75-24.67-10.43-8.76-2.76-17.78-4.73-25.93-9.08-7.94-4.23-15.23-9.75-23.59-13.03,1.57-3.7,3.13-7.39,4.69-11.08,20.99,7,40.44,17.74,60.06,27.92,10.15,5.27,20.38,10.4,30.94,14.75,5.18,2.14,10.45,4.38,16.06,5.26,5.37.85,10.97.46,16.13,2.2,1.53.52,1.17-2.68.23-3.17-.4-.22-.82-.43-1.22-.64-.3-.16-.53-.1-.7.1-4.6-1.12-9.49-.91-14.21-1.65-5.61-.88-10.88-3.12-16.06-5.26-10.55-4.36-20.78-9.48-30.94-14.75-19.32-10.03-38.47-20.6-59.08-27.61,1.39-3.27,2.77-6.54,4.16-9.8,4.25,2.18,8.63,3.92,13.17,5.42,3.01,1,5.44,2.44,7.83,4.64,1.94,1.78,3.92,3.44,6.07,4.88,8.25,5.55,17.83,8.26,27.38,10.59,21.93,5.36,43.57,11.4,64.24,20.42,1.73.75,1.13-1.06.02-1.54-19.72-8.6-40.32-14.81-61.3-19.84-10.9-2.61-22.23-5.15-31.4-12.01-3.88-2.89-6.95-6.56-11.48-8.28-4.74-1.8-9.45-3.34-13.98-5.56,1.51-3.57,3.03-7.11,4.52-10.65,9.53,2.57,17.15,10.23,25.8,14.8,9.6,5.06,19.88,8.63,30.09,12.21,9.45,3.31,19.29,4.72,29.07,6.92,10.6,2.39,20.91,5.71,30.91,9.85.56.23.78-3.02.12-3.29-9.58-3.97-19.46-7.17-29.59-9.56-10.55-2.47-21.21-3.96-31.43-7.58-10.2-3.61-20.47-7.2-30.03-12.37-7.99-4.32-15.05-11.1-23.71-13.92,1.09-2.57,2.18-5.13,3.27-7.7.03,0,.06.02.1.02,10.76,1.31,19.62,7.51,28.53,13.31,8.26,5.38,16.62,9.67,26.27,11.81,10.31,2.28,20.45,4.36,30.36,7.94,9.63,3.48,19.16,7.24,29.32,9.15,1.83.35,1.56-2.04.09-2.31-10.6-1.99-20.5-6.09-30.57-9.67-9.5-3.37-19.25-5.24-29.11-7.42-10.54-2.34-19.34-7.68-28.34-13.54-7.98-5.2-16.18-10.11-25.71-11.46,1.21-2.85,2.42-5.69,3.62-8.51,9.05,4.64,18.14,9.23,27.51,13.16,9.7,4.07,19.7,7,29.94,9.55,10.99,2.73,20.78,7.52,30.86,12.55,8.35,4.16,16.94,7.7,26.45,8.39,1.23.09-1.18-1.13-1.68-1.17-10.79-.78-20.18-5.96-29.55-10.72-8.21-4.18-16.53-7.52-25.48-9.78-10.26-2.58-20.31-5.44-30.05-9.57-9.4-3.97-18.51-8.62-27.61-13.29,1.03-2.4,2.04-4.8,3.06-7.2,10.03,2.26,19.5,7.19,29,10.93,9.71,3.81,19.45,7.55,29.23,11.2,9.78,3.64,19.58,7.2,29.43,10.67,9.32,3.28,18.65,6.66,28.67,7.59,1.83.17.34-1.85-.65-1.93-10.53-.98-20.31-4.71-30.08-8.18-9.84-3.48-19.65-7.05-29.42-10.71-9.77-3.66-19.52-7.4-29.22-11.23-8.64-3.42-17.2-7.69-26.28-9.96,1.11-2.6,2.21-5.18,3.3-7.75,5.25,1.9,10.07,4.77,15.12,7.18,4.46,2.13,9.11,3.8,13.85,5.19,11.17,3.25,22.78,5.03,33.68,9.13,18.75,7.05,36.52,18.21,57.6,17.47.4-.01-1.53-1.18-2.12-1.17-21.77.77-39.78-11.63-59.34-18.3-9.75-3.32-20-5.02-29.92-7.82-6.05-1.71-11.75-4.11-17.34-6.99-3.7-1.91-7.41-3.76-11.3-5.2,1.05-2.45,2.09-4.9,3.13-7.34,10.08,2.42,20.13,4.96,29.6,9.12,9.35,4.11,18.5,8.32,28.28,11.35,20.11,6.23,40.69,11.03,61.15,16.17,1.66.42,2.33-1.72.66-2.15-20.45-5.14-41.05-9.94-61.15-16.17-10.23-3.17-19.71-7.81-29.56-11.94-9.03-3.79-18.55-6.18-28.08-8.48.91-2.15,1.83-4.29,2.74-6.43,9.01,3.35,18.57,4.94,27.86,7.44,10.72,2.88,20.54,8.2,30.92,12.01,20.51,7.54,41.98,12.33,64.04,14.41,1.38.13.47-2.82-.53-2.91-22.23-2.09-43.89-6.93-64.52-14.61-9.88-3.68-19.26-8.71-29.45-11.54-9.08-2.52-18.47-4.02-27.32-7.16,1.54-3.61,3.07-7.18,4.58-10.75,19.04,7.01,36.14,18.79,56.42,22.47,11.05,2,22.37,2.65,33.32,5.08,10.73,2.38,21.39,5.06,32.08,7.6,1.2.28,1.64-3.09.67-3.33-10.68-2.54-21.34-5.21-32.08-7.6-10.4-2.3-21.11-3.08-31.65-4.8-20.75-3.4-38.12-15.28-57.45-22.5,1.36-3.2,2.72-6.37,4.07-9.52,5,1.48,9.1,5.47,13.56,8.08,3.9,2.28,8.18,3.7,12.54,4.83,10.64,2.73,21.52,4.74,32.27,7.08,10.89,2.37,21.78,4.73,32.67,7.08,9.94,2.16,19.85,4.75,30.14,5.48,1.76.13-.63-.85-1.2-.89-11.29-.79-22.18-3.81-33.09-6.18-10.89-2.37-21.78-4.73-32.67-7.08-5.44-1.18-10.89-2.37-16.34-3.55-5.67-1.23-11.49-2.2-16.91-4.23-7.44-2.78-13.21-8.84-20.72-11.18,1.25-2.94,2.5-5.85,3.75-8.75,9.69,4.65,19.71,8.68,30.08,11.54,9.95,2.75,20.49,2.99,30.55,5.27,19.98,4.53,38.97,14.04,60.65,10.74,1.74-.27.35-2.7-.84-2.51-21.44,3.27-40.25-6.24-60.01-10.72-10.19-2.31-20.86-2.53-30.9-5.37-9.86-2.79-19.4-6.64-28.63-11.06,1.38-3.23,2.75-6.44,4.12-9.62,6.07,3.91,12.12,7.92,18.53,11.12,7.44,3.71,14.94,4.89,23.31,5.31,18.33.9,35.97,3.42,53.6,7.42,4.29.97,8.63,1.81,13.07,2.12,2.31.17,4.65.19,7.01,0,1.05-.09,2.86.22,3.63-1.04.24-.4-.09-.91-.27-1.14-.05-.06-.09-.12-.14-.17-.36-.45-1.33-.84-1.9-.38-.04.04-.09.07-.13.1-.07.05-.12.11-.17.16-10.19,1.13-19.63-1.63-29.17-3.8-10.03-2.27-20.29-3.66-30.64-4.54-10.22-.87-21.33.06-30.92-3.28-8.94-3.12-16.93-8.72-24.93-13.9,1.59-3.72,3.17-7.4,4.73-11.06,8.28,4.63,16.42,10.22,25.7,12.47,9.27,2.24,18.87,3.58,28.42,4.77,19.14,2.37,38.62,3.14,58.26,2.4,1.82-.07,1.35-3.16-.23-3.1-19.41.74-38.65-.04-57.57-2.38-9.21-1.14-18.42-2.5-27.41-4.53-9.4-2.12-17.6-7.74-25.95-12.42,1.14-2.66,2.28-5.31,3.4-7.93,15.9,9.63,33.48,14.98,52.18,16.68,10.15.93,20.32,1.75,30.49,2.62,9.04.78,18.13,1.61,27.48-.59.84-.2-.61-2.68-1.54-2.46-9.39,2.22-18.52,1.27-27.61.49-9.64-.83-19.28-1.63-28.92-2.48-18.39-1.63-35.66-6.59-51.37-15.91,1.42-3.29,2.81-6.55,4.19-9.78,4.48.44,8.41,2.36,12.4,4.26,4.13,1.96,8.35,3.68,12.68,5.12,8.86,2.94,18.08,4.83,27.41,6.16,9.05,1.29,18.21,2.15,27.39,2.75,8.4.55,16.93.49,25.52-2.27-.26.09-1.13-2.51-1.82-2.28-9.05,2.92-18.03,2.82-26.86,2.17-9.04-.66-18.07-1.49-26.97-2.8-8.97-1.32-17.83-3.16-26.35-6.01-4.34-1.44-8.56-3.16-12.68-5.12-3.24-1.54-6.42-3.08-9.9-3.85.96-2.23,1.91-4.44,2.85-6.63,15.04,5.43,30.57,9.55,46.63,11.55,8.49,1.05,17.11,1.51,25.81,1.27,9.26-.26,18.63-1.54,27.79-.96,1.01.06,3.23-1.65,1.39-1.76-8.35-.54-16.86.45-25.32.85-9.19.43-18.29.03-27.25-1.03-16.62-1.97-32.66-6.29-48.16-11.97,1.42-3.3,2.82-6.55,4.2-9.78,1.38,1.9,3.75,2.22,6.05,2.83,4.35,1.15,8.71,2.32,13.08,3.43,8.34,2.12,16.8,4,25.47,4.85,9.01.88,18.22.29,27.42-.27,9.75-.59,19.49-1.19,29.24-1.78,1.47-.09.41-2.93-.68-2.87-8.62.53-17.24,1.05-25.86,1.58-8.53.52-17.11,1.23-25.52.86-8.39-.38-16.57-1.87-24.61-3.75-3.9-.92-7.78-1.93-11.65-2.95-2.01-.53-4-1.06-6.01-1.59-1.19-.32-5.3-.62-5.71-2.06-.05-.17-.14-.34-.25-.5.97-2.26,1.93-4.5,2.88-6.7,7.96,2.13,15.9,4.26,23.86,6.37,7.77,2.06,15.67,2.86,23.77,3.53,16.92,1.41,33.97,2.38,51.35.19,1.86-.23-.29-1.43-1.13-1.31-16.78,2.12-33.26,1.24-49.6-.11-8.51-.69-16.76-1.59-24.92-3.77-7.6-2.03-15.21-4.06-22.81-6.1.95-2.22,1.89-4.41,2.83-6.58,1.85,1.06,4.57,1.25,6.63,1.78,2.37.61,4.76,1.22,7.13,1.81,9.04,2.24,18.17,4.24,27.48,5.49,19.35,2.6,39.24.89,59.22-1.95.3-.04.08-3.29-.59-3.19-17.21,2.45-34.49,4.22-51.33,2.82-8.8-.73-17.44-2.26-25.96-4.15-3.95-.87-7.87-1.82-11.77-2.81-2.04-.52-4.08-1.04-6.12-1.57-.69-.17-2.26-.34-3.62-.73,1.13-2.62,2.24-5.21,3.34-7.76,3.11,1.73,6.67,1.76,10.21,2.16,4.06.45,8.02,1.32,11.97,2.24,7.45,1.75,14.9,3.75,22.78,3.66,8.37-.1,16.84-2.17,25.19-1.89,8.77.29,17.41,1.52,26.07,2.44.65.07,3.37-1.24,1.99-1.39-7.83-.83-15.63-1.84-23.53-2.32-8.25-.5-16.4.84-24.76,1.55-8.45.72-16.36-1.19-24.28-3.08-3.78-.9-7.55-1.79-11.42-2.34-4.1-.58-8.48-.29-12.08-2.46-.28-.17-1.01,0-1.63.25,1.05-2.43,2.09-4.85,3.11-7.22,7.35,1.21,14.71,2.42,22.06,3.63,8.13,1.34,16.28,3.23,24.62,3.6,16.52.74,33.32-1.37,49.65.75,1.74.23,1.35-2.89-.11-3.08-15.98-2.07-32.41-.22-48.63-.71-8.47-.26-16.72-2.18-24.97-3.54-7.12-1.17-14.26-2.34-21.38-3.51,1.01-2.35,2.01-4.67,3-6.96,6.09,3.74,13.51,4.53,20.47,5.82,7.6,1.41,15.26,2.46,23.06,2.87,16.01.86,32.31.13,48.47-.09.97-.01.17-3.03-.78-3.01-15.45.22-31,.85-46.33.19-7.56-.33-14.99-1.18-22.36-2.46-7.14-1.26-15.19-1.91-21.6-5.49,1.29-2.99,2.55-5.91,3.78-8.77,7.78,1.03,14.91,4.18,22.45,6.06,7.17,1.79,14.61,2.62,22.11,2.94,7.69.31,15.47.08,23.25-.23,7.76-.31,15.52-.49,23.36-2.24-.35.08-1.03-2.54-1.74-2.38-7.65,1.71-15.25,1.91-22.83,2.21-7.96.32-15.91.57-23.78.26-7.98-.33-15.9-1.25-23.49-3.31-6.2-1.68-12.16-4.07-18.49-5.28.74-1.72,1.47-3.4,2.19-5.07.12.16.21.32.22.47.15,1.24,2.76,2.05,2.55.37-.13-1.11-.7-1.98-1.49-2.69,14.13,2.43,26.22,10.91,40.45,12.98,7.1,1.03,14.55.05,21.88-1.04,7.4-1.09,14.82-2.59,22.22-4.46,1.09-.27.14-3-.51-3.18-.36-.1-.71-.2-1.07-.28-.31-.08-.48.22-.54.66-7.15,1.76-14.31,3.19-21.47,4.21-7.35,1.04-14.74,1.89-21.81.72-12.58-2.09-23.53-9.02-35.79-12.04.56-.51.73-1.38-.17-1.91-.48-.28-.94-.58-1.42-.87.7-1.63,1.4-3.23,2.08-4.81.03.72.1,1.44.41,1.55,12.67,4.55,25.64,8.72,39.45,9.21,13.74.49,27.98-1.24,41.94-3.73.08-.02-.3-2.99-.61-3.19-.3-.18-.58-.37-.88-.56.12.07.17.34.19.67-13.74,2.43-27.74,4.1-41.25,3.61-13.51-.49-26.25-4.5-38.66-8.93,1.84-4.28,3.61-8.36,5.28-12.22.17.28.35.55.5.83.74,1.32,1.83-.34,1.85-1.7,10.82,3.93,23.44,3.23,35.09,3.23,6.47,0,12.96-.17,19.47-.51,3.26-.17,6.51-.38,9.78-.64,1.87-.14,4.37.36,5.91-1.54.31-.38.39-1.06.18-1.43-.47-.81-.99-.97-1.9-.78-.4.09-.87.46-1.09.92-.96.08-2.93,0-3.3.03-1.45.12-2.9.22-4.34.31-2.9.19-5.79.35-8.68.47-5.96.25-11.91.36-17.83.32-11.34-.07-23.48.51-33.81-3.77.33-.77.66-1.52.99-2.27.41.43.84.85,1.25,1.28,1.31,1.35,2.04-1.56,1.06-2.58,4.62,1.73,9.58,2.08,14.57,2.34,5.67.3,11.4.31,17.15.03,11.56-.55,23.23-2.31,34.85-5.12,1.07-.26-1.04-1.95-1.86-1.75-10.77,2.61-21.55,4.28-32.28,4.92-5.14.31-10.27.38-15.35.23-5.74-.17-11.88-.15-17.13-2.29-.38-.16-.71-.18-.96-.12,1.48-3.42,2.87-6.64,4.16-9.61.3.3.61.58.9.88.29.29,1.48.56,2.05.47.17.16.41.28.7.32,10.65,1.32,21.52,1.51,32.49.51,5.42-.49,10.86-1.28,16.29-2.36,2.88-.57,5.78-1.22,8.66-1.95,1.52-.38,3.29-.4,4.35-2.07.28-.44.16-1.07-.08-1.39-.53-.71-1.13-.76-1.98-.49l.15-.02Z"/>
              <path class="cls-4" d="M22.05,561.17c9.89,5.22,19.87,10.29,29.21,16.6,9.24,6.23,17.88,13.48,26.22,21.13,8.58,7.85,17.56,15.68,25.21,24.75.56.66.6-2.46.15-2.99-7.04-8.33-15.21-15.49-23.04-22.78-8.3-7.72-16.84-15.09-25.98-21.52-9.22-6.49-19.11-11.72-29-16.92-4.8-2.52-9.6-5.05-14.3-7.75-4.41-2.53-9.4-4.97-11.52-10.49-.52-1.37-.63,1.92-.39,2.54,1.69,4.41,4.94,6.95,8.47,9.13,4.88,2.99,9.94,5.65,14.97,8.31h0Z"/>
            </g>
          </g>
        </g>
        <g>
          <path class="cls-9" d="M65.53,850.92c6-3.67,10.91-9.13,15.49-14.37,5.4-6.19,10.41-12.7,15.59-19.06,2.19-2.68,4.38-5.35,6.74-7.88,1.59-1.7,3.27-3.61,5.32-4.77,1.13-.64,2.39-.88,3.26.27.6.78.74,1.85,1.05,2.75.61,1.78,1.42,3.5,2.3,5.16,4.78,8.92,11.61,16.92,18.79,23.98,3.7,3.63,7.61,7.08,11.87,10.02,3.12,2.17,6.55,4.25,10.28,5.19,6.24,1.56,10.93-2.58,11.37-8.84.53-7.95-5.08-15.63-9.69-21.55-6.14-7.89-13.24-14.96-19.98-22.33-2.86-3.13-5.7-6.3-8.16-9.75-1.58-2.22-3.44-4.91-3.64-7.73-.49-6.98,9.05-3.57,12.23-1.76,8.37,4.74,15.33,12.23,21.74,19.28,7.45,8.21,14.38,16.91,21,25.8,5.19,6.97,9.87,14.2,14.77,21.36,3.84,5.62,8.25,11.42,14.04,15.17,3.33,2.16,7.25,3.48,11.19,2.43,3.56-.95,6.5-3.5,8.77-6.32,1.47-1.83,3.43-3.98,3.1-6.5-.61-4.61-4.81-8.92-7.75-12.21-11.33-12.67-24.67-23.55-37.17-35.03-5.89-5.42-11.79-10.9-17.12-16.88-2.99-3.34-7.42-7.85-7.95-12.57-.56-4.96,6.77-4.28,9.87-3.98,10.09.99,19.43,6.42,27.47,12.27,18.26,13.25,33.36,30.99,46.9,48.89,3.77,4.98,7.37,10.08,10.9,15.25,1.69,2.49,4.17,4.36,6.63,6.06,3.62,2.49,7.52,4.58,11.56,6.29,7,2.97,16.66,6.02,23.84,1.92,5.41-3.09,7.7-9.72,5.34-15.44-2.65-6.42-8.09-11.75-13-16.48-7.05-6.79-14.69-12.95-22.38-18.98-15.37-12.06-31.67-23.21-46.16-36.36-2.43-2.22-4.84-4.51-6.94-7.04-1.37-1.64-2.85-3.53-3.43-5.62-.33-1.21-.39-3.14,1.06-3.57,2.1-.62,4.98.89,6.8,1.77,7.79,3.8,14.74,9.59,21.39,15.09,8.05,6.66,15.79,13.68,23.35,20.88,11.3,10.74,21.57,22.49,33.02,33.08,7.56,6.98,15.58,14.09,24.74,18.9,5.04,2.65,12.86,5.28,16.2-1.25,2.11-4.14-1.76-8.9-4.27-11.9-5.15-6.17-11.41-11.45-17.54-16.63-14.92-12.6-30.88-24.21-44.59-38.17-4.64-4.72-9.93-10.19-11.98-16.66-1.28-4.04-.39-9.04,4.5-9.52,5.94-.59,12.34,2.85,17.39,5.52,8.3,4.4,16.09,9.77,23.7,15.27,16.23,11.72,31.6,24.54,47.31,36.91,4.79,3.76,9.58,7.78,14.87,10.82,3,1.73,7.28,3.54,10.73,2.29,2.76-1,3.98-3.59,3.96-6.38-.05-5.73-5.03-10.45-8.95-14.06-7.12-6.55-15.31-11.89-23.44-17.09-8.54-5.46-17.27-10.65-25.73-16.25-3.47-2.3-6.91-4.66-10.13-7.3-2.2-1.8-4.48-3.77-6.04-6.18-.97-1.51-1.78-3.56-.63-5.2,1.44-2.07,4.71-2.38,7.01-2.27,8.1.4,16.06,5.11,22.89,9.08,9.36,5.43,18.27,11.6,27.34,17.49,7.53,4.88,15.26,10.11,23.71,13.26,4.41,1.65,11.34,3.13,14.31-1.9,1.11-1.88.14-3.86-1.07-5.41-2.23-2.86-5.37-5.06-8.32-7.12-8.72-6.08-18.07-11.24-27.03-16.95-4.44-2.83-8.83-5.76-12.95-9.04-3.25-2.58-6.69-5.45-9.01-8.95-.53-.8-.89-1.78-.66-2.43.02-.02.04,0,.07-.01.12-.03.41-.13.6-.18.7-.16,1.45-.19,2.17-.21,4.96-.1,10.04.98,14.9,1.87,15.5,2.84,30.88,6.37,46.51,8.56,7.81,1.09,15.69,1.9,23.57,1.89,6.32-.02,12.92-.49,18.88-2.78,4.56-1.76,8.84-4.82,10.84-9.43,2.4-5.55,1.57-12.92-1.5-18.02-3.83-6.37-11.32-8.71-18.32-9.45-9.36-.98-18.91.24-28.16,1.63-10.12,1.53-20.16,3.57-30.3,5.03-7.73,1.12-16.3,2.45-24,.5-2.41-.62-10.97-4.66-6.96-8.11,1.83-1.57,4.66-2.25,6.92-2.91,3.73-1.09,7.54-1.91,11.35-2.72,8.45-1.8,17-3.42,25.24-6.07,6-1.93,13.3-4.59,16.98-10.09,2.87-4.27,1.96-10.62-2.84-13.06-6.08-3.08-14.51-.74-20.64.95-20.44,5.63-39.52,15.81-58.76,24.49-3.86,1.73-7.72,3.46-11.68,4.95-1.5.56-3.02,1.09-4.57,1.53-1.44.41-3.62,1.18-5.14.71-2.73-.85,1.09-5.18,1.91-6.24,3.53-4.53,7.54-8.68,11.4-12.92,5.02-5.51,9.99-11.07,14.65-16.88,4.86-6.05,8.9-12.67,13.64-18.79,3.76-4.85,7.99-9.28,12.27-13.66,2.12-2.17,4.86-4.6,5.85-7.59.91-2.77-.78-5.1-2.7-6.95-2.11-2.03-4.76-4.54-7.79-4.95-5.33-.73-10.67,3.32-14.52,6.46-6.75,5.51-12.56,12.17-18.17,18.82-6.86,8.11-13.39,16.5-19.99,24.82-6.55,8.25-13.13,16.5-20.26,24.27-5.22,5.69-10.93,11.88-17.9,15.45-1.8.92-8.89,3.94-8.81-.38.04-1.87,1.09-3.76,1.95-5.36,1.48-2.81,3.25-5.46,5.04-8.06,9.89-14.46,21.14-27.98,30.18-43.03,3.56-5.91,7.25-12.36,8.47-19.22.7-3.98.15-9.56-4.38-11.08-4.27-1.44-8.82,2.81-11.52,5.53-5.59,5.63-10.04,12.46-14.3,19.1-11.32,17.66-21.16,36.24-32.76,53.73-4.7,7.09-9.67,14.37-15.97,20.15-.63.57-6.76,6.14-7.81,4.16-.38-.72.44-2.2.73-2.81.82-1.81,1.87-3.52,2.92-5.21,3.35-5.4,7.02-10.59,10.67-15.79,10.08-14.36,20.36-28.6,29.84-43.37,4.54-7.07,8.93-14.26,12.81-21.71,3.04-5.81,5.92-11.86,7.51-18.26.95-3.81,1.71-8.71-.76-12.13-2.45-3.4-7.03-3.82-10.72-2.52-5.59,1.96-10.21,6.49-14.13,10.75-5.85,6.36-10.87,13.45-15.66,20.62-11.42,17.12-21.43,35.15-31.91,52.83-4.46,7.52-8.96,15.04-13.93,22.23-3.03,4.37-6.38,9.68-10.98,12.59-1.66,1.06-6.64,3.96-7.5.54-.37-1.45.06-3.16.4-4.57.58-2.41,1.44-4.74,2.31-7.05,5.41-14.2,12.2-27.84,17.55-42.07,2.81-7.49,5.42-14.9,9.25-21.95,3.11-5.7,6.71-11.08,10.34-16.45,2.44-3.63,5.16-7.33,6.72-11.46,1.05-2.8,1.32-5.83-.54-8.36-1.87-2.55-5.64-4.9-8.75-5.5-1.99-.38-3.99.18-5.75,1.1-5.13,2.66-8.9,7.84-12.03,12.54-9.69,14.47-16.45,30.93-23.51,46.77-3.14,7.05-6.23,14.17-9.76,21.04-1.22,2.36-2.47,4.74-4,6.92-.6.87-1.67,2.58-2.6,2.62-1.28.06-1.83-1.58-2.13-2.57-.95-3.11-.73-6.58-.4-9.77,1.02-9.6,3.86-19.02,6.46-28.28,2.81-10,5.81-20,7.74-30.22,1.3-6.84,3.03-15.63-.21-22.2-1.95-3.96-6.54-6.37-10.35-3.42-4.23,3.28-5.69,9.66-6.9,14.56-2.18,8.89-3.35,18.04-4.51,27.11-1.35,10.55-2.51,21.12-4,31.65-1.36,9.63-2.86,19.33-5.53,28.68-1.03,3.59-2.24,7.16-3.92,10.5-1.16,2.3-2.64,4.86-4.79,6.38-6.18,4.35-5.54-17.51-5.52-19.63.11-15.22,1.21-30.48.15-45.7-.43-6.14-1.09-12.53-3.4-18.3-1.54-3.84-4.22-7.67-8.66-8.12-2.34-.24-4.68.42-6.82,1.33-2.37,1.01-5.11,2.34-6.75,4.4-3.33,4.17-2.89,10.89-2.57,15.87,1.07,16.94,5.87,33.57,9.59,50.05,1.2,5.31,2.97,11.13,2.79,16.63,0,.1-.12.78-.22,1.27-.16-.05-.33-.1-.4-.14-1.85-.93-3.3-3.24-4.5-4.82-9.5-12.57-17.34-26.17-25.99-39.31-2.75-4.18-5.65-8.37-9.3-11.83-2.04-1.92-4.63-4.19-7.48-4.74-3.57-.7-6.81,1.78-8.51,4.74-2.75,4.79-2.53,10.93-1.58,16.17,1.71,9.53,6.26,18.47,11.54,26.5,8.56,13.04,19.59,24.35,31.28,34.58,4.11,4.08,7.15,9.94,7.98,15.65.79,5.46-.68,10.84-3.86,15.33-2.13,2.99-4.86,5.62-7.42,8.24-2.83,2.89-5.71,5.71-8.61,8.52-10.76,10.46-22.88,21.19-29.39,35-2.77,5.87-4.2,12.34-3.29,18.81.6,4.32,1.97,9.62,5.14,12.85,3.56,3.62,8.5,2.03,12.31-.3l-.05-.08ZM345.43,737.62c-.05.05-.19.04,0,0h0Z"/>
          <path class="cls-11" d="M99.27,760.75c.45-.87,1.32-2.23,2.27-2.66,17.68-7.95,36.35-13.56,55.19-18.02,19.95-4.71,40.21-8.09,60.54-10.69,18.68-2.38,37.44-4.06,56.23-5.23,14.06-.87,28.15-1.45,42.24-1.7,4.34-.08,8.69-.12,13.04-.13,1.32,0,2.63,0,3.95.01.59,0,1.45-.14,2.04.02.07.02.18,0,.26,0,.78.01-.29,1.67-.44,1.9-.35.56-1.4,2.26-2.23,2.24-5.12-.09-10.25-.03-15.37.04-13.28.19-26.55.66-39.81,1.39-18.3,1.01-36.58,2.51-54.78,4.65-20.24,2.36-40.39,5.48-60.3,9.81-19.16,4.17-38.2,9.42-56.35,16.89-2.13.87-4.23,1.78-6.33,2.72-.95.43-.35-.88-.15-1.26h0Z"/>
        </g>
        <g>
          <g>
            <path class="cls-10" d="M464.59,564.98c-7.51.44-15.01.88-22.51,1.32,4.3-2.19,9.11-3.78,13.48-5.61,2.12-.88.18-1.92-1.29-1.3-5.12,2.13-10.74,3.98-15.62,6.72-.55-.89-1.93-2.13-2.29-2.55-2.02-2.4-4.08-4.75-6.13-7.11-7.97-9.15-16.52-17.96-24.11-27.44-.38-.48-1.97.11-1.52.67,6.82,8.52,14.51,16.46,21.7,24.68,3.27,3.73,6.42,8.79,10.25,11.93.22.18.39.53.56.74h0c-.9.27-2.23.55-2.5.64-2.45.81-4.89,1.68-7.32,2.56-1.08.39-.11,1.04.67.76,1.23-.44,6.57-1.59,9.31-2.88.08,0,.17.01.27.01,5.51,1.46,11.03,2.92,16.54,4.38.84.22,3.77-1.11,2.67-1.4-4.23-1.12-8.45-2.24-12.68-3.36,6.39-.38,12.79-.75,19.18-1.13,1.07-.06,3.53-1.77,1.34-1.64h0Z"/>
            <path class="cls-10" d="M422.08,559.23c-7.51.44-15.01.88-22.51,1.32,4.3-2.19,9.11-3.78,13.48-5.61,2.12-.88.18-1.92-1.29-1.3-5.12,2.13-10.74,3.98-15.62,6.72-.55-.89-1.93-2.13-2.29-2.55-2.02-2.4-4.08-4.75-6.13-7.11-7.97-9.15-16.52-17.96-24.11-27.44-.38-.48-1.97.11-1.52.67,6.82,8.52,14.51,16.46,21.7,24.68,3.27,3.73,6.42,8.79,10.25,11.93.22.18.39.53.56.74h0c-.9.27-2.23.55-2.5.64-2.45.81-4.89,1.68-7.32,2.56-1.08.39-.11,1.04.67.76,1.23-.44,6.57-1.59,9.31-2.88.08,0,.17.01.27.01,5.51,1.46,11.03,2.92,16.54,4.38.84.22,3.77-1.11,2.67-1.4-4.23-1.12-8.45-2.24-12.68-3.36,6.39-.38,12.79-.75,19.18-1.13,1.07-.06,3.53-1.77,1.34-1.64h0Z"/>
          </g>
          <g>
            <path class="cls-10" d="M465.74,452.4c-.37-6.63-.75-13.48.28-21.66l.04-.33-32.37-24.59c-1.08-3.55-3.61-9.91-8.71-13.99-3.62-2.9-6.17-9.76-4.21-15.37,1.08-3.08,3.95-6.76,11.48-6.76l.09-1.13c-.48-.08-11.76-1.91-18.18,4.52-3.77,3.77-5.03,9.58-3.73,17.27,1.38,8.17,2.13,10.14,2.88,11.58,1.18,10.18-7.45,13.44-27.35,18.41-1.82.46-3.99.94-6.29,1.45-18.64,4.14-49.83,11.07-64.77,37.97-11.52,20.74-10.89,49.76,1.88,86.25-3.12,2.65-30.07,25.53-56.37,48.94-56.58,50.37-55.1,53.96-54.55,55.32.17.4.59.86,1.71.78,9.52-.73,34.22-21.52,50.97-36.59-4.11,4.34-8.63,9.23-13.06,14.23-18.81,21.22-27.14,34.34-24.76,38.99.9,1.77,3.19,2.36,6.78,1.75,19.78-3.34,39.3-36.39,49.83-57.38-2.21,5.86-4.69,12.66-6.99,19.53-8.13,24.22-10.58,38.41-7.27,42.17.65.74,1.48,1.11,2.5,1.11.43,0,.88-.06,1.37-.2,16.35-4.36,51.9-108.87,55.96-120.94,1.76,1.98,7.07,6.9,17.35,8.46,24.09,3.67,53.71-14.38,74.32-30.17,53.32-40.86,52.36-57.97,51.15-79.63h.02Z"/>
            <path class="cls-5" d="M401.04,497.07c-1.82,6.37-4.32,12.46-7.75,18.14-1.05,1.74-3.69,7.6-6.16,4.8-1.35-1.53.95-9,1.29-10.96.2-1.17-2.95-.38-3.27.48-.68,1.76-5.36,14.51-7.4,14.41-3.6-.19,1.24-11.15,1.92-12.86.42-1.04-2.76-.28-3.15.26-2.02,2.83-4.05,5.65-6.07,8.48-1.68,2.34-3.74,6.74-6.07,8.48-4.48,3.35-.61-3.56.34-5.37,1.98-3.78,4.34-7.22,7-10.54.82-1.02-2.43-.7-3.03.05-4.67,5.83-8.23,12.15-10.8,19.17-.08.22.11.44.31.5,3.16,1,5.75-.12,8.06-2.47,2.5-2.54,4.71-5.56,6.81-8.67-.67,3.31-.33,6.1,3,5.84,3.12-.25,5.62-3.1,7.58-6.57.16.8.45,1.51.95,2.07,1.51,1.71,3.82,1.47,5.63.47,3.5-1.94,5.71-6.78,7.59-10.18,2.81-5.07,4.91-10.42,6.5-15.99.28-.99-2.99-.53-3.27.48v-.02Z"/>
            <g>
              <path class="cls-5" d="M324.61,551.65c-.64-2.03-4.16-4.52-5.62-6.07-.48-.51-1.88-.23-2.66.27-.07.04-.13.08-.18.12-8.41,6.9-17.52,13.83-24.65,22.08-1.86,2.15-3.28,4.69.86,4.07,2.35-.35,4.66-1.55,6.83-3.1-2.17,3.75-3.48,7.49-.38,8.01,2.52.42,4.91-1.2,7.04-3.66-.09.73-.14,1.45-.13,2.16.04,5.42,5.23,4.18,8.48,1.81,6.08-4.44,8.3-13.35,9.63-20.32.24-1.28,1.21-4.01.79-5.35v-.02Z"/>
              <path class="cls-5" d="M468.99,395.85c-1.61-4.07-3.43-8.74-8.04-10.05-3.89-1.1-7.78.35-10.74,2.85-.13.09-.25.18-.35.28-4.44,4.72-9.68,7.85-14.51,12.01-2.96,2.55-4.23,6.55-2.47,10.19,1.73,3.59,4.82,6.63,6.78,10.16,2.67,4.83,4.69,10.06,5.86,15.45,2.85,13.09-1.31,25.27-1.75,38.31-.14,4.27-.62,11.68,3.53,14.51,7.58,5.15,13.46-6.14,15.51-11.36,6.34-16.09,10.05-33.79,10.6-51.07.33-10.52-.53-21.42-4.42-31.29h0Z"/>
            </g>
          </g>
          <g>
            <g>
              <path class="cls-12" d="M502.41,267.48c-50.45,14.9-84.62,93.66-90.81,108.87-.93,2.29-1.6,4.68-1.91,7.14-.29,2.32-.27,4.69,1,4.88,26.56,3.93,46.33-3.1,46.33-3.1l63.4-110.29,9.38-.37c-12-11.63-27.39-7.13-27.39-7.13h0Z"/>
              <path class="cls-8" d="M529.89,274.51c-11.93-11.55-27.37-7.21-27.52-7.16-7.06,2.08-14.18,5.55-21.17,10.31-4.63,3.15-8.11,7.4-10.07,12.27-1.78,4.43-1.83,8.02-.17,10.68,1.87,2.99,5.93,4.72,12.05,5.15h.15c2.16,0,20.49-1.34,21.21-2.6l15.55-27.06c.35-.62.99-1,1.7-1.03l8.5-.34-.24-.23h.01Z"/>
            </g>
            <g>
              <path class="cls-12" d="M539.55,286.99c-25.51,10.13-82.53,98.66-82.53,98.66l12.75,18.01,69.78-112.92,6.38-1.5s-6.38-2.25-6.38-2.25Z"/>
              <path class="cls-8" d="M484.61,378.83c-.81-.76-2.96.94-3.53,1.31-3.69,2.45-6.4,5.96-10.77,7.4-4.06,1.34-8.64-.04-12.24-2.03-.02-.01-.05-.02-.08-.02-.03-.01-.05-.02-.09-.03-.86-.16-1.63-.28-2.41.16-.09.05-.3.19-.23.34,1.94,3.91,4.24,7.71,6.8,11.24,1.4,1.94,4.19,6.44,7.03,6.61,1.76.11,2.45-1.11,3.43-2.45,2.75-3.76,5.01-7.93,7.28-11.99.8-1.42,6.52-8.95,4.82-10.54h-.01Z"/>
            </g>
          </g>
          <g>
            <path class="cls-7" d="M447.26,372.15c-.21-.07-5.74-2.94-5.96-2.97-3.85-.48-39.99-4.28-27.43,25.49,13.22,31.34,69.93-9.87,33.39-22.52Z"/>
            <path class="cls-8" d="M452.32,372.7c-8.96-4.5-20.38-5.38-30.11-3.3-10.43,2.24-15.65,9.09-11.28,24.04.24.82,1.82-2,1.63-2.53-2.72-7.25-1.12-16.61,6.58-19.62,9.21-3.61,22.63-1.68,31.18,3.1,3.72,2.08,6.98,10.7,7.35,16.42.06.85,1.49-2.35,1.78-3.09,3.47-8.91-2.74-12.81-7.14-15.02h.01Z"/>
          </g>
          <g>
            <ellipse class="cls-3" cx="433.02" cy="387.09" rx="5.75" ry="5.69"/>
            <path d="M433.92,385.97c-1.57-.63-3.32-.86-3.68.06-.37.91,1.05,1.96,2.62,2.58,1.57.63,3.32.86,3.68-.06.37-.91-1.05-1.96-2.62-2.58Z"/>
          </g>
        </g>
      </g>
    </g>
  </g>
</svg>