<?xml version="1.0" encoding="UTF-8"?>
<svg id="Layer_2" data-name="Layer 2" xmlns="http://www.w3.org/2000/svg" viewBox="0 0 583.44 952.64">
  <defs>
    <style>
      .cls-1 {
        fill: #c5ba9f;
      }

      .cls-2 {
        fill: #3156aa;
      }

      .cls-3 {
        fill: #59591d;
      }

      .cls-4 {
        fill: #dc911b;
      }

      .cls-5 {
        fill: #fff;
      }

      .cls-6 {
        fill: #6c4637;
      }

      .cls-7 {
        fill: #f3892e;
      }

      .cls-8 {
        fill: #0d120e;
      }

      .cls-9 {
        fill: #993;
      }

      .cls-10 {
        fill: #0e1b1e;
      }

      .cls-11 {
        fill: #59590e;
      }

      .cls-12 {
        fill: #ea9c2f;
      }
    </style>
  </defs>
  <g id="Bg">
    <g>
      <g>
        <path class="cls-11" d="M315,68.31c-11.35-11.46-23.08-22.47-35.16-32.95-5.96-5.17-11.99-10.37-18.25-15.05-.29-.22-.57-.44-.86-.66-2.87-2.16-5.98,1.67-2.84,4.04,15.46,11.62,30.12,25.07,44.2,38.73,31.36,30.44,60.44,64.5,83.94,102.21,13.4,21.5,25.02,44.28,33.52,67.97,4.36,12.13,7.91,24.49,10.5,36.93,2.98,14.3,4.12,28.57,6.2,42.88,7.83,53.85,23.82,107.78,47.75,158.44,7.45,15.77,15.68,31.25,24.81,46.16,4.33,7.07,8.79,14.26,13.82,20.83.23.3.45.6.67.9,2.19,2.86,6.36.15,3.94-3.01-3.65-4.77-6.17-8.69-9.54-13.95-8.51-13.29-16.23-27.12-23.31-41.21-24.08-47.92-40.71-99.21-49.92-150.66-2.8-15.62-4.27-31.16-6.6-46.77-1.87-12.58-4.77-25.15-8.55-37.53-7.35-24.08-17.94-47.43-30.59-69.51-22.79-39.77-51.97-75.74-83.74-107.82Z"/>
        <g>
          <path class="cls-1" d="M351.06,326.01c28.7,46.42,96.68,50.02,96.68,50.02-7.62-22.67-125.38-96.44-96.68-50.02Z"/>
          <path class="cls-1" d="M434.1,309.31c-6.71-19.96-110.37-84.9-85.11-44.04,25.27,40.86,85.11,44.04,85.11,44.04Z"/>
          <path class="cls-1" d="M351.07,218.57c22.42,36.26,75.53,39.08,75.53,39.08-5.95-17.71-97.95-75.34-75.53-39.08Z"/>
          <path class="cls-1" d="M344.65,181.33c23.44,23.14,62.13,12.59,62.13,12.59-7.86-12.5-85.57-35.73-62.13-12.59Z"/>
          <path class="cls-1" d="M321.32,141.51c21.84,21.56,57.88,11.73,57.88,11.73-7.32-11.65-79.72-33.29-57.88-11.73Z"/>
          <path class="cls-1" d="M298.84,106.29c20.92,15.25,49.28.89,49.28.89-7.62-8.96-70.21-16.14-49.28-.89Z"/>
          <path class="cls-1" d="M272.15,72.74c18.44,13.44,43.45.79,43.45.79-6.71-7.9-61.89-14.23-43.45-.79Z"/>
          <path class="cls-1" d="M277.8,41.25c-5.46-6.42-50.32-11.57-35.33-.64,15,10.93,35.33.64,35.33.64Z"/>
          <path class="cls-1" d="M269.92,28.83c-3.31-9.99-55.05-42.7-42.49-22.22,12.56,20.48,42.49,22.22,42.49,22.22Z"/>
          <path class="cls-1" d="M455.09,395.29s60.49-23.99,62.69-75.31c2.19-51.32-67.48,52.19-62.69,75.31Z"/>
          <path class="cls-1" d="M440.94,332.76s49.05-29.19,45.33-75.2c-3.72-46.01-51.94,55.22-45.33,75.2Z"/>
          <path class="cls-1" d="M460.15,206.35c-30.9,17.74-26.91,75.72-26.91,75.72,15.71-3.16,57.82-93.47,26.91-75.72Z"/>
          <path class="cls-1" d="M421.64,230.84c11.2-5.23,29.22-84.09,8.88-64.67-20.34,19.43-8.88,64.67-8.88,64.67Z"/>
          <path class="cls-1" d="M401.57,183.23c7.76-8.71-.23-88.02-11.43-63.01-11.2,25.02,11.43,63.01,11.43,63.01Z"/>
          <path class="cls-1" d="M366.54,126.74c6.09-8.07-5.14-76.31-13.23-53.87-8.09,22.44,13.23,53.87,13.23,53.87Z"/>
          <path class="cls-1" d="M318.56,34.74c-9.95,17.93,5.27,47.76,5.27,47.76,6.41-5.99,4.68-65.69-5.27-47.76Z"/>
          <path class="cls-1" d="M274.54,8.83c-3.06,17.35,15.11,37.34,15.11,37.34,3.29-6.66-12.04-54.69-15.11-37.34Z"/>
        </g>
      </g>
      <g>
        <g>
          <path class="cls-3" d="M136.84,737.25c19.52,11.67,39.75,22.61,61.55,29.41,21.39,6.67,43.66,9.47,65.52,14.11,22.01,4.68,42.81,12.19,62.07,23.93,21.48,13.09,40.34,30.05,57.03,48.79,1.6,1.8,5.52.58,3.39-1.82-1.28-1.43-2.57-2.85-3.88-4.26l-1.41-3.34c1.37-.15,2.39-1.16.98-2.6-1.57-1.6-3.14-3.19-4.72-4.78-9.72-14.39-6.09-33.87-1.1-49.7,3.24-10.3,6.73-20.52,10.11-30.77,3.46-10.49,6.71-21.07,10.73-31.36,7.37-18.87,19.6-35.48,23.82-55.56,4.07-19.34,3.41-39.92,1.53-59.48-1.09-11.37-2.86-22.66-5.32-33.82-2.43-11.03-4.66-23.43-12.18-32.26-.48-.56-4.66-.2-4.79.63-2.63,17.84.79,35.74.09,53.64-.71,17.91-5.38,35.33-10.41,52.44-5.28,17.96-10.36,35.87-14.16,54.22-3.93,19.03-7.16,38.22-10.27,57.4-3.18,19.61-5.6,39.49-3.76,59.35-23.78-22.34-49.58-42.65-78.93-57.1-19.76-9.73-40.45-15.35-62-19.5-22.31-4.3-44-9.8-65-18.62-11.66-4.9-22.98-10.58-33.89-16.98-9.41-5.52-18.7-12.99-30.09-13.27-.58-.01-1.5.26-1.67.92-1.07,4.13,1.19,7.6,3.87,10.58,3.81,4.23,8.32,7.82,12.94,11.1,9.57,6.79,19.85,12.7,29.91,18.71ZM364.76,824.04l.98,1.23c-.42-.4-.83-.8-1.25-1.19.09,0,.18-.02.27-.03Z"/>
          <path class="cls-3" d="M300.96,751.2c-18.89-14.11-37.87-28.14-59.05-38.67-40.64-20.2-85.53-30.1-125.39-52.09-11.34-6.26-21.97-13.48-32.68-20.74-9.22-6.26-18.95-12.02-30.16-13.62-1.1-.16-4.02.41-3.78,2.01,1.7,11.19,10.68,18.94,19.22,25.44,8.97,6.82,18.21,13.31,27.63,19.5,19.09,12.55,39.02,23.82,59.62,33.69,20.58,9.87,41.82,18.29,63.53,25.33,22.14,7.18,44.76,13.35,65.8,23.48,23.94,11.52,45.03,28.37,61.74,49,1.01,1.25,5.55-.5,4.36-1.96-.65-.8-1.31-1.59-1.97-2.37,1.7-.08,3.45-2.29,2.22-3.78-1.16-1.41-2.09-2.91-2.82-4.47.19-.74.05-1.5-.61-2.05-.11-.09-.21-.18-.32-.27-1.89-5.62-1.58-11.89-.57-17.88,1.6-9.56,4.41-18.92,6.46-28.39,4.47-20.67,8.07-41.52,11.89-62.31,3.76-20.48,7.95-40.95,10.55-61.62,2.54-20.14,2.71-40.14.72-60.34-1.12-11.33-2.47-22.7-4.31-33.94-1.79-10.96-4.6-21.74-10.13-31.46-1.1-1.93-3.67-.05-4.02,1.44-8.94,37.47-7.75,76.19-7.8,114.43-.03,19.77-.42,39.57-2.7,59.22-2.49,21.44-6.74,42.61-10.97,63.76-2.2,10.97-5.04,23.73-4.16,35.51-9.22-13.52-11.95-30.72-11.06-47,1.14-20.78,8.25-40.68,13.08-60.77,4.93-20.52,6.02-41.25,6.13-62.29.12-21.92.03-43.86-1.09-65.76-.62-12.11-1.56-24.2-2.97-36.24-1.14-9.69-1.29-23.96-11.16-29.21-1.32-.7-2.79,2.09-3.01,3.02-4.12,17.76-.64,36.66-.06,54.64.64,19.79.4,39.72-1.36,59.46-.85,9.58-2.19,19.14-4.41,28.51-2.36,9.96-6.05,19.5-8.96,29.3-1.23,4.16-2.3,8.38-3.21,12.65.84-4.71,1.68-9.41,2.41-14.14,1.48-9.68,2.52-19.43,3.18-29.2,2.64-39.56-1.03-79.27-6.72-118.41-1.6-10.99-3.36-21.96-5.2-32.91-1.68-10.01-2.45-22.03-11.96-27.92-1.06-.66-3.2-.79-3,.96,4.35,37.85,8.7,75.8,8.84,113.95.07,18.79-.9,37.6-3.38,56.23-2.21,16.6-5.49,33.06-6.94,49.76-1.58,18.21-.73,36.65,6.17,53.77.46,1.14,2.31,1.85,3.42,1.59l10.66,13.02c.66,1.44,1.38,2.85,2.16,4.24.67,2.41,1.45,4.78,2.34,7.1-4.41-4-8.92-7.9-13.52-11.68,1.49-.26,2.98-1.15,2.26-2.02-4.31-5.23-8.74-10.37-13.26-15.42.12-.25.1-.51-.12-.76-3.46-3.95-7.11-7.66-10.92-11.17-21.99-22.99-46.19-43.84-72.22-62.17-18-12.67-36.85-24.11-56.39-34.24-19.11-9.91-38.84-18.79-56.88-30.64-10.65-6.99-20.03-15.2-29.09-24.12-4.46-4.38-8.89-8.98-13.86-12.8-3.14-2.42-7.72-3.62-10.94-.63-.44.41-.66.74-.37,1.31,9.62,18.74,23.06,35.09,39.47,48.29,15.8,12.72,33.52,22.78,50.96,33.05,17.9,10.54,35.96,20.72,54.6,29.91,17.04,8.4,34.3,16.38,50.84,25.74,14.24,8.06,27.88,17.24,39.85,28.35,7,7.34,13.76,14.9,20.29,22.66-9.83-7.74-20.06-14.97-30.66-21.64-21.75-13.69-45.08-24.66-68.04-36.12-22.32-11.13-44.47-22.85-67.93-31.44-20.72-7.58-42.37-13.56-61.36-25.1-10.74-6.53-19.51-14.88-27.43-24.59-8.2-10.04-16.01-20.69-27.3-27.49-.83-.5-4.39-.15-4.74.93-1.54,4.75,1.68,9.14,4.24,12.89,3.17,4.64,6.61,9.11,10.27,13.38,7.71,9,16.39,17.12,25.69,24.45,18.86,14.86,40.08,26.46,61.94,36.26,45.75,20.5,94.17,34.36,137.89,59.36,23.99,13.72,46.53,29.91,67.25,48.2.91.8,5-.74,4.63-1.07-.36-.32-.72-.63-1.08-.94l.66-.79c1.81,3.15,3.9,6.17,6.29,9.03.38.45,1.29-.18,2.01-1.09l1.37,2.09c2.14,8.04,5.61,15.64,10.76,22.25-.4-.3-.8-.59-1.19-.89-10.05-7.51-20.1-15.02-30.15-22.53ZM301.09,695.38c-.4-8.21.26-16.56,1.39-24.63,0-.07.02-.14.03-.21-1,8.27-1.46,16.6-1.42,24.84Z"/>
          <path class="cls-3" d="M117,557.02c15.82,6.45,31.78,11.72,46.51,20.59,14.1,8.49,26.96,18.9,38.99,30.09,13.54,12.6,28.39,28.45,40.87,42.08,1.09,1.19,2.54-4.21,1.49-5.35-.04-.04-.08-.09-.12-.13,1.08-.6,1.93-1.54,1.49-2.2-9.46-14.04-15.42-30.26-17.18-47.11-1.8-17.23,1.56-33.75,6.3-50.24,4.63-16.14,9.69-32.19,10.07-49.13.39-17.3-3.12-34.46-7.66-51.08-5.64-20.65-13.49-41.01-27.06-57.82-1.09-1.35-4.73.74-4.32,2.34,3.98,15.46,8.34,30.89,11.62,46.52,3.04,14.49,4.29,29.03,3.57,43.81-1.39,28.52-8.34,56.53-8.23,85.16.05,14.86,2.08,29.72,7.5,43.61-16.48-18.22-35.49-34.1-56.38-47.1-13.01-8.1-26.73-15.06-40.97-20.74-7.48-2.99-15.15-5.41-22.68-8.26-7.34-2.78-14.28-6.29-20.97-10.38-14.5-8.86-27.89-19.63-43.76-26.06-1.33-.54-4.23,1.9-3.54,3.3,7.62,15.46,24.42,24.21,38.38,33.11,14.75,9.4,29.84,18.38,46.07,24.99ZM231.15,624.55c.08-.06.15-.11.22-.18.29.72.57,1.45.87,2.17l-1.1-1.99ZM224.1,609.29l4.84,8.24s0,.02,0,.03c-2.14-2.61-4.35-5.17-6.59-7.69.52-.04,1.16-.26,1.73-.58Z"/>
          <path class="cls-3" d="M108.14,510.74c12.79,5.93,25.99,11.03,38.41,17.73,11.44,6.17,22.11,13.62,31.9,22.13,2.08,2.19,4.15,4.38,6.23,6.57.74.78,2.11,1.57,3.23,1.28.39-.1.71-.3.91-.56.79-.25,1.12-.9.04-1.95-2.26-2.19-4.58-4.31-6.95-6.37-16.26-17.09-32.94-33.93-52.16-47.69-21.71-15.55-47.26-24.91-66.98-43.28-11.2-10.44-21.12-22.2-33.19-31.71-.74-.58-4.74-1.74-3.81.5,10.27,24.71,27,46.6,48.13,63.02,10.56,8.21,22.14,14.73,34.25,20.34Z"/>
          <path class="cls-3" d="M85.37,440.71c9.8,9.73,20.39,18.5,30.82,27.53,11.77,10.19,28.74,25.26,35.57,39.47.71,1.48-.37-4.32-1.01-5.64-.39-.8-.79-1.59-1.2-2.38l1.31-3.7c.13-.02.26-.05.39-.08,1.85,3.31,3.65,6.65,5.38,10.03.35.69,1.09.56,1.82.08,1.68,5.9,3.31,11.83,4.88,17.76.45,1.69,3.99-1.53,3.54-3.23-14.23-53.95-33.42-106.58-57.33-157-3.29-6.94-6.59-13.91-10.18-20.71-3.24-6.13-7.11-12.04-13.15-15.72-1.51-.92-3.48,1.82-3.41,3.12,1.34,23.92,6.36,47.61,14.94,69.98,7.36,19.2,17.64,36.92,28.41,54.34-5.74-5.47-11.8-10.64-17.74-15.72-9.56-8.18-18.9-16.54-27.59-25.66-8.81-9.26-17.07-19.03-25-29.05-9.05-11.43-17.68-23.19-26.31-34.94-.45-.61-1.98-.15-2.51,0-4.76,1.37-4.22,5.7-2.33,9.36,3.13,6.05,6.53,11.97,10.06,17.79,7.02,11.57,14.74,22.72,23.1,33.37,8.53,10.88,17.74,21.22,27.54,30.97Z"/>
          <path class="cls-3" d="M179.03,539.74l16.39,23.53c1.83,4.71,4.09,9.26,6.76,13.58.02.03,3.13-3.14,2.42-4.28-7.68-12.43-11.94-26.82-12.14-41.45-.2-14.61,4.39-28.63,6.2-43.01,1.82-14.4-.6-28.35-4.33-42.26-4.15-15.46-8.84-30.82-14.15-45.92-5.25-14.93-11.55-29.78-21.19-42.45-2.21-2.91-4.58-5.85-7.23-8.38-1.71-1.63-4.28-3.51-6.82-3.11-5,.79-5.43,7.94-4.56,11.62,1.58,6.72,5.29,12.68,8.88,18.48,4.16,6.7,7.92,13.51,10.74,20.9,5.28,13.82,7.82,28.51,9.14,43.2,3.02,33.71-.55,68.12,8.32,101.15.03.12.85-.66,1.56-1.61Z"/>
          <path class="cls-3" d="M242.75,577.74c-1.7,14.62.04,29.36,2.27,43.82,2.57,16.69,6.11,33.39,13.92,48.5.26.5,1.53.37,2.72.12l2.08,2.75c1.42,5.16,3.97,9.99,8.11,14.18.79.8,4.79-.59,4.69-.69-11.82-11.97-10.44-29.91-7.07-45.01,3.46-15.47,7.13-30.73,9.25-46.47,4.2-31.21,4.24-62.98.11-94.2-2.47-18.65-6.08-37.95-17.37-53.48-.43-.59-4.91-.16-4.89.49.87,29.17,1.74,58.72-4.17,87.48-2.93,14.23-7.97,28.04-9.65,42.52Z"/>
          <path class="cls-3" d="M440.71,579.18c-.71-.12-2.19-.31-2.18.81.57,39.76,8.91,80.17.14,119.59-4.02,18.06-12.37,34.01-22.24,49.51-9.76,15.33-20.45,30.39-26.64,47.62-6.8,18.9-7.22,39.71-1.28,58.89.31.99,2.14,1.78,3.42,1.9l.96,1.17c.72,1.91,1.59,3.8,2.61,5.66.76,1.39,5.48,2.32,4.42.39-10.18-18.47-4.22-40.34,4.87-57.92,10.71-20.71,24.42-39.77,35.74-60.14,9.73-17.53,16.52-36.23,19.67-56.06,2.95-18.58,2.98-37.56.53-56.19-1.41-10.73-3.64-21.36-6.61-31.77-1.39-4.86-2.91-9.68-4.62-14.43-1.54-4.26-3.98-8.23-8.78-9.04Z"/>
          <path class="cls-3" d="M476.96,648.15c2.66,30.76-9.51,59.98-22.03,87.37-7.52,16.45-15.14,32.84-22.71,49.26-7.13,15.46-14.7,30.8-21.01,46.62-4.91,12.29-8.75,25.15-9.59,38.34-.02-.01-.03-.03-.04-.04-17.53-13.4-35.6-26.07-54.19-37.93-16.56-10.57-33.22-20.81-52.38-25.84-33.02-8.66-68.96-5.15-100.65-19.07-9.15-4.02-17.34-9.67-25.56-15.27-4.21-2.87-8.44-5.71-12.86-8.25-3.42-1.97-7.9-5.18-12.06-4.76-3.56.37-5.35,3.93-4.16,7.15,1.63,4.41,5.77,8.14,9.23,11.13,7.25,6.26,15.23,11.72,23.52,16.51,33.39,19.32,71.68,27.55,108.92,35.96,37.46,8.46,76.05,17.7,108.45,39.26,3.97,2.64,7.81,5.47,11.53,8.45.03.03.07.04.1.06.01.39.04.79.05,1.18-20.34-12.8-42.99-20.98-66.94-25.3-15.58-2.81-31.34-4.49-46.95-7.17-16.42-2.82-32.61-6.8-48.66-11.19-18.91-5.17-37.71-10.76-56.55-16.21-.88-.26-3.97,2.37-3.64,3.3,5.77,16.17,24.81,21.5,39.53,26.2,15.66,5,31.56,9.24,47.63,12.71,16.37,3.53,32.92,6.26,49.56,8.17,17.2,1.97,34.32,2.46,50.86,8.1,15.62,5.33,36.08,15.47,51.37,21.75-1.2.08-7.56-3.53-8.76-3.46-22.27-8.53-45.89-12.85-69.53-15.84-29.4-3.71-59.04-6.87-88.64-8.52-7.7-.43-15.41-.72-23.12-.81-3.4-.04-6.84-.17-10.23.02-2.24.13-5.29.69-6.36,2.98-1.04,2.23,1.14,4.01,2.56,5.51,2.13,2.25,4.52,4.19,7.12,5.87,5.06,3.25,10.77,5.39,16.58,6.88,13.38,3.45,27.54,4.35,41.25,5.62,14.54,1.35,29.12,2.34,43.72,2.95,28.98,1.22,58.02.95,86.97-.74,12.23.33,11.89,2.44,14.64,3.69,2.75,1.25-1.87-2.05-4.67-3.32-.01,0-.02,0-.03-.02l.5-1.02c.29-.02.59-.04.88-.06l4.01,4.41c1.03,2.53,2.2,5.01,3.5,7.43,1.32,2.45,5.49-.05,4.1-2.64-7.91-14.75-10.51-32.19-7.71-48.65,1.4-8.27,4.1-16.29,8.15-23.64,4.76-8.64,11.59-15.88,16.54-24.39,5.03-8.65,7.75-18.41,11.58-27.59,3.88-9.3,8.31-18.35,12.66-27.44,8.18-17.12,16.22-34.7,19.02-53.63,2.84-19.19.63-39.56-11.01-55.62-1.25-1.73-4.68-.71-4.48,1.54Z"/>
        </g>
        <path class="cls-6" d="M122.54,458.99c1.96,4.39,4.22,8.64,6.76,12.72,40.91,65.73,72.82,115.72,116.05,181.33,22.06,33.48,44.34,66.81,66.83,100,22.36,32.99,44.66,66.07,68.08,98.32,25.84,35.59,53.48,70.02,85.26,100.52,2.53,2.43,12.57-1.53,9.97-4.02-57.06-54.75-100.83-121.61-145.08-186.65-45.33-66.64-89.78-133.88-133.34-201.69-24.54-38.21-45.21-68.06-69.19-106.63-1.7-2.74-8.88-2.68-5.35,6.11h0Z"/>
      </g>
      <g>
        <path class="cls-11" d="M315.59,346.18c.03-.19.2-.35.47-.24,1.71.27,3.4.71,5.06,1.15,4.75,1.27,9.41,2.88,13.97,4.7,7.35,2.91,14.48,6.35,21.4,10.17,9.35,5.16,18.31,11.01,26.9,17.36,11.08,8.19,21.53,17.22,31.38,26.84,12.07,11.78,23.26,24.45,33.66,37.71,12.71,16.2,24.25,33.3,34.81,50.97,12.63,21.13,23.87,43.09,33.98,65.53,12.16,26.98,22.69,54.68,31.97,82.77,11.02,33.38,20.26,67.34,28.14,101.6,2.13,9.25,4.15,18.53,6.09,27.82.04.21-.06.39-.27.43-4.29.9-8.58,1.81-12.86,2.71-.25.05-.5-.12-.53-.37-.34-3.08-.78-6.15-1.22-9.21-1.21-8.46-2.61-16.89-4.14-25.29-2.33-12.84-4.98-25.62-7.9-38.34-3.67-15.99-7.78-31.88-12.34-47.65-5.25-18.14-11.09-36.1-17.59-53.83-7.08-19.32-14.94-38.35-23.71-56.97-9.16-19.45-19.32-38.43-30.65-56.7-11.41-18.4-24.03-36.08-38.03-52.6-14.13-16.67-29.68-32.16-46.72-45.86-17.31-13.92-36.14-25.96-56.21-35.51-5.06-2.41-10.19-4.66-15.39-6.75-.28-.04-.35-.26-.28-.45Z"/>
        <g>
          <path class="cls-9" d="M213.19,454.72c-1.45-8.54-1.71-17.3-1.37-25.94.36-7.35,7.54-12.33,13.27-15.71,9.05-5.33,19.02-9.03,28.78-12.81,9.72-3.77,19.71-7.33,28.8-12.5,5.4-3.07,13.03-7.96,11.69-15.22-.41-2.22-1.12-4.86-3.08-6.24-1.63-1.15-3.69-.94-5.49-.37-2.61.83-4.99,2.34-7.23,3.88-2.97,2.04-5.78,4.32-8.54,6.64-6.81,5.71-13.35,11.73-20.15,17.45-6.91,5.82-14.06,11.72-22.01,16.07-3.38,1.85-12.44,6.03-12.59-1.12-.01-.57.04-1.14.15-1.7.43-2.33,1.16-4.65,1.82-6.92,2.17-7.4,4.99-14.63,8.56-21.47,5.89-11.3,13.85-21.47,23.61-29.69,7.93-6.69,16.96-12.03,26.56-15.94,7.11-2.9,14.53-5.03,22.09-6.34,3.38-.59,6.85-1.1,10.28-1.16,5.23-.1,10.73,1.05,14.96,4.26,3.98,3.01,6.37,7.43,8.23,11.95,1.63,3.96,2.78,8.61,5.66,11.9.94,1.08,2.29,2.26,3.83,2.05,2.19-.3,3.48-2.97,4.28-4.74,1.9-4.21,2.75-8.82,4.52-13.09,3.53-8.53,8.94-16.16,15.69-22.44,5.35-4.99,11.64-8.73,18.98-9.71,7.79-1.04,15.77.54,23.41,1.92,8.2,1.48,16,4.12,23.39,7.97,11.64,6.07,22.53,14.65,30.76,24.93,3.43,4.28,6.2,9.18,7.94,14.39.86,2.57,2.76,8.82-1.16,9.99-2.2.66-4.8-.65-6.68-1.64-3.47-1.82-6.85-3.66-10.53-5.05-7.55-2.85-15.58-4.25-23.64-4.42-9.21-.2-18.61.99-27.51,3.34-1.6.42-10.99,2.62-8.44,5.97.58.76,1.48,1.27,2.31,1.69,1.56.78,3.22.18,4.93.03,8.57-.75,17.19-1.12,25.8-.82,11.78.42,23.91,2,34.76,6.87,7.27,3.27,13.75,8.19,18.21,14.85,3.82,5.7,5.96,12.32,7.04,19.06,1.01,6.29,1.14,12.67,1.18,19.02.02,2.75.02,5.51.14,8.26.23,5.08,1.17,10.18.36,15.25-.36,2.25-1.44,5.6-4.36,4.92-.8-.19-1.55-.63-2.19-1.14-.84-.65-.99-1.34-1.46-2.35-4.94-10.81-14.01-18.99-24.45-24.39-10.46-5.41-22.24-8.3-33.96-9.11-9.78-.67-20.25-.12-29.46,3.51-3.22,1.27-6.48,3.01-8.76,5.7-1.25,1.47-2.96,4.07-1.68,6,1.24,1.87,4.18,2.36,6.2,2.71,3.85.67,7.8.81,11.7.96,10.38.4,20.79.52,31.11,1.93,10.41,1.42,21.27,4.05,29.84,10.42,10.05,7.48,15.05,20.1,16.99,32.12,1.9,11.78,1.43,24.63-2.39,36.01-1.14,3.39-5.89,14.53-10.48,8.06-1.04-1.47-1.52-3.16-2.19-4.81-.71-1.75-1.66-3.4-2.72-4.96-2.68-3.98-6.04-7.49-9.53-10.76-8.35-7.84-17.86-14.52-27.69-20.36-8.06-4.78-16.8-9.66-26.01-11.81-2.15-.5-5.38-1.26-7.39.1-2.18,1.47-.76,4.87.1,6.66,2.19,4.53,6.24,7.84,10.42,10.45,4.91,3.08,10.26,5.41,15.59,7.65,10.61,4.47,22.38,8.33,31.14,16.09,3.84,3.4,6.59,7.56,7.76,12.58,1.6,6.87,1.95,14.48-.41,21.23-1.25,3.55-3.82,8.19-8.11,8.41-5.18.26-8.31-5.94-9.93-9.92-3.19-7.8-7.88-14.92-14.12-20.61-4.66-4.25-10.58-8.24-17-8.95-4.09-.45-9.68,1.01-9.52,6.01.07,2.33,1.02,4.61,2,6.68,1.29,2.71,2.87,5.28,4.51,7.79,3.9,5.96,8.26,11.6,12.44,17.36,1.93,2.66,3.84,5.35,5.64,8.11,1.43,2.2,3.06,4.52,3.91,7.03,3.18,9.34-6.19,18.46-12.5,23.89-3.66,3.15-7.57,6-11.62,8.62-1.22.79-2.45,1.56-3.7,2.31-.38.23-.82.59-1.26.64-.64.07-1.5-.24-2.13-.34-1.66-.28-3.32-.57-4.97-.88-5.32-1-10.61-2.15-15.86-3.49-6.16-1.57-12.28-3.38-18.21-5.7-5.11-2-10.31-4.35-14.56-7.88-2.78-2.32-4.49-4.84-4.77-8.5-.32-4.14.69-8.38,1.8-12.34,3.03-10.71,7.75-20.9,11.73-31.27,1.89-4.91,3.7-9.88,4.93-15,.89-3.71,1.71-7.9.68-11.68-.72-2.66-2.95-5.25-5.9-5.3-2.81-.05-4.95,2.45-6.4,4.56-2.41,3.52-4.01,7.61-5.4,11.62-1.76,5.08-3.14,10.3-4.35,15.54-2.46,10.67-4.24,21.52-5.46,32.39-.43,3.79-.8,7.6-.94,11.41-.1,2.69.42,5.55-.56,8.12-1.1,2.9-3.8,4.15-6.79,3.88-5.45-.49-10.53-4.24-14.64-7.54-3.51-2.82-6.77-5.93-9.88-9.18-1.24-1.29-2.34-2.61-3.11-4.24-1.37-2.89-1.67-6.17-1.44-9.33.63-8.67,4.53-17.06,8.41-24.71,5.05-9.94,10.98-19.42,16.92-28.84,5.64-8.94,11.44-17.81,16.56-27.06,2.01-3.64,3.94-7.37,5.46-11.25,1.08-2.77,2.08-5.78,2.04-8.79-.03-2.23-.86-4.37-2.85-5.55-2.11-1.25-4.59-.58-6.61.52-3.09,1.68-5.66,4.3-7.97,6.91-3.2,3.61-6.03,7.56-8.68,11.59-6.32,9.62-11.71,19.87-16.51,30.32-4.52,9.83-8.65,19.95-11.53,30.39-1.03,3.72-1.95,7.54-2.23,11.4-.21,2.89.28,5.73-.22,8.61-.84,4.79-3.82,9.55-8.74,10.9-6.07,1.67-11.87-2.38-15.76-6.64-3.53-3.86-6.23-8.43-8.5-13.12-3.3-6.81-5.71-14.04-7.68-21.34-1.9-7.04-3.52-14.18-3.83-21.49-.24-5.76.25-11.54,1.47-17.17,2.22-10.27,6.83-19.87,12.76-28.5,5.29-7.71,11.61-14.66,18.33-21.15,4.57-4.41,9.58-8.46,13.88-13.14.7-.77,2.34-2.29,2.15-3.49-.19-1.19-2.28-1.22-3.15-1.26-11.21-.56-20.59,6.12-27.53,14.33-7.87,9.3-13.21,20.33-18.98,30.97-2.32,4.28-8.42,17.4-14.98,11.03-1.68-1.63-2.72-3.9-3.53-6.06-1.18-3.14-1.92-6.44-2.48-9.75Z"/>
          <g>
            <path class="cls-11" d="M380.26,377.19c5.53-.93,11.26-1.12,16.86-.91.11,0,.22,0,.33.01.03,0,.07.01.11.03.04,0,.08,0,.12.02,3.81,1.25,13.96,5.21,8.96,10.72-1.89,2.08-4.74,3.3-7.35,4.18-3.42,1.15-7.04,1.77-10.65,1.92-6.4.26-14.46-.97-17.89-7.12-3.36-6.03,5.3-8.14,9.5-8.85Z"/>
            <path class="cls-11" d="M243.4,497.49c-.47-3.15-.03-6.43.55-9.54.93-4.97,2.34-10.03,4.26-14.72.04-.09.07-.18.11-.27,1.13-3.29,3.8-6.32,7.4-6.8,1.27-.17,2.63.05,3.61.91,1.23,1.08,1.55,2.82,1.48,4.39-.07,1.58-.34,3.16-.47,4.73-.15,1.78-.29,3.55-.45,5.33-.35,3.87-.79,7.76-1.72,11.53-.74,3-1.79,6.35-4.11,8.53-1.85,1.73-4.68,2.35-7.06,1.43-2.29-.89-3.27-3.24-3.61-5.52Z"/>
          </g>
        </g>
        <path class="cls-11" d="M336.85,354.24c-.15-.62,1.14,2.09,4.1,1.86,3.25-.26,3.63-3.07,3.63-3.07,0,0,.19,1.7.2,1.89.36,5.22,5.95,81.61,25.38,156.76-14.4-49.48-34.83-126.05-33.31-157.43Z"/>
      </g>
      <g>
        <g>
          <g>
            <path class="cls-12" d="M214.01,176.25c-2.21-1.33-4.61-2.33-7.09-3.05-16.47-4.77-103.15-27.71-148,4.01,0,0-16.62,8.45-14.85,25.81l9.35-6.2,131.43,19.38s18.55-11.66,32.51-35.98c.67-1.16-1.26-2.71-3.35-3.97Z"/>
            <path class="cls-8" d="M102.49,172.64c-1.1-3.08-4.09-5.36-8.87-6.77-5.26-1.55-10.99-1.44-16.57.32-8.42,2.65-15.88,6.25-22.15,10.68-.14.1-13.69,9.95-11.94,27.2l.04.34,5.78-6.74c.48-.56,1.21-.84,1.95-.73l32.25,4.75c1.54.23,15.24-14.8,15.95-15.83h0c3.61-5.3,4.81-9.75,3.57-13.22Z"/>
          </g>
          <g>
            <path class="cls-4" d="M181.87,193.9l-.4-.04c-.27-.03-27.74-2.64-57.88-3.47-40.55-1.12-66.37,1.37-76.76,7.38l-.12.07-5.45,8.31,9.06-4.83,138.42,15.93-6.88-23.35Z"/>
            <path class="cls-10" d="M181.17,216.2l-4.23-8.58c-.08-.16-.19-.29-.36-.33-.17-.04-.32-.02-.46.08-.54.27-9.98,3.84-16.2,6.17-.26.1-.41.36-.38.63.03.26.24.47.5.51,0,0,.01,0,.02,0l20.51,2.37c.22.02.43-.07.55-.25.13-.18.14-.41.05-.6Z"/>
          </g>
        </g>
        <g>
          <path class="cls-10" d="M316.5,298.27c-10.89-20.94-47.75-34.14-53.32-56.38-.89-3.55-.08-7.27.55-10.88,1.44-8.36,1.8-17.15-1.03-25.15-7.01-19.83-23.95-30.68-43.52-35.23-13.23-3.08-23.58,5.97-31.59,15.99-5.42,6.78-13.91,21.59-8.26,30.06,1.12,1.67,2.69,2.97,4.17,4.34,8.62,7.97,14.15,19.05,15.82,30.64,1.63,11.33-1.95,22.12-3.51,33.22-2.95,20.99-7.1,42.1-5.2,63.21,1.97,21.91,19.78,63.92,45.53,67.44.57.08,1.05.42,1.31.94.26.53.24,1.13-.05,1.64-5.87,10.31-20.93,37.15-33.97,63.79-16.8,34.31-23.7,54.94-20.51,61.31.8,1.59,1.93,2.4,3.4,2.4,9.99-.05,33.15-43.37,43.06-62.84-7.2,21.68-23.04,74.99-15.05,87.66,1.67,2.64,3.37,3.97,5.09,3.97.28,0,.55-.03.83-.1,11.46-2.88,17.82-71.83,19.42-91.64,2.48,15.16,10.66,58.34,23.74,59.65,1.44.14,2.65-.33,3.6-1.41,7.56-8.56-3.38-56.82-11.37-92.06-3.62-15.96-6.48-28.57-6.57-32.89-.01-.66.17-1.25.4-1.28,39.96-5.79,65.67-19.34,76.4-40.28,15.01-29.27-3.32-64.52-9.35-76.11Z"/>
          <path class="cls-5" d="M249.04,414.75c-.14-.6-1.14-.65-2.03-.39-5.11.73-8.69.32-11.28,5.07-3.78,6.92-9.05,17.29-5.92,25.3,1.96,5.02,6.51,4.3,9.21.3.05-.07.09-.16.14-.23-.01,4.12.87,7.5,3.75,7.83,2.42.28,3.83-1.6,4.67-4.27.77,2.18,1.84,3.98,3.35,4.83,3.09,1.73,4.31-1.27,4.28-3.78-.15-11.49-3.64-23.49-6.16-34.66Z"/>
          <path class="cls-5" d="M297.02,309.97c-.18-1.13-4.16-.22-3.95,1.09,1.43,9.08,1.86,18.23.84,27.39-.31,2.76-.45,11.1-4.02,4.78-1.74-3.08-2.19-8.14-3.05-11.51-.3-1.2-4.05-.17-3.95,1.09.24,3.08.41,6.17.38,9.26-.02,2.35.54,10.02-1.03,12.02-.89,1.13-.79-.17-1.28-1.6-.48-1.42-.69-2.99-.97-4.45-.62-3.35-.97-6.7-1.18-10.1-.07-1.12-3.79-.17-3.95.84-.81,5.09-1.61,10.19-2.42,15.28-.36,2.25-.47,11.28-2.22,12.63-1.3,1.02-.54.55-.84-1.45-.41-2.67-.14-6.38,0-8.94.25-4.53.93-8.98,1.87-13.41.27-1.27-3.68-.62-3.94.6-1.94,9.11-2.39,18.19-1.53,27.45.04.45.9.46,1.18.46,3.73,0,5.95-1.74,7.19-5.31,1.29-3.71,2.05-7.76,2.63-11.9,1.12,2.83,2.96,4.57,5.99,3.47,3.05-1.11,3.53-4.49,3.89-7.29.19-1.47.32-2.95.41-4.43,1.83,3.05,4.39,4.59,8.02,1.65,3.62-2.93,3.03-11.58,3.24-15.68.37-7.36-.16-14.67-1.31-21.94Z"/>
        </g>
        <g>
          <path class="cls-7" d="M223.15,186.26c-16.28-29.55-37,2.87-39.09,6.34-.12.19-1.35,6.59-1.42,6.8-13.27,38.14,57.65,17.97,40.52-13.14Z"/>
          <path class="cls-8" d="M224.38,182.49c-5.88-8.65-16.86-11.83-26.21-6.98-8.85,4.58-16.52,14.98-19.1,24.54-1.82,6.77-.24,13.03,3.35,18.87.43.69,3.78,0,3.38-.65-7.38-11.99-2.79-24.02,5.76-34.22,6.26-7.47,15.01-13,24-6.45,2.07,1.51,4,3.42,5.44,5.54.47.7,3.79-.05,3.38-.65Z"/>
          <g>
            <path class="cls-2" d="M200.56,202.24c2.65,1.93,6.38,1.33,8.34-1.34,1.95-2.68,1.39-6.42-1.26-8.35-2.65-1.93-6.38-1.33-8.34,1.34-1.95,2.68-1.39,6.42,1.26,8.35Z"/>
            <path d="M202.59,197.46c.44-1.71,1.32-3.32,2.32-3.07.99.25,1,2.09.56,3.8-.44,1.71-1.32,3.33-2.32,3.07-1-.25-1-2.09-.56-3.81Z"/>
          </g>
        </g>
        <path class="cls-5" d="M235.98,191.91c-3.06-1.48-6.49-.29-8.92,1.82-6.4,5.56-5.93,15.47-12.94,20.51-4.11,2.96-9.35,3.77-14.31,3.87-2.54.05-5.56-.47-7.71,1.28-2.06,1.68-1.85,3.65-.89,5.93,2.15,5.11,5.74,9.65,7.9,14.87,6.26,11.66,20.18,6.76,27.87-.6,8.01-7.66,11.9-19.14,13.41-29.88.8-5.68,2.05-14.68-4.41-17.8Z"/>
      </g>
    </g>
  </g>
</svg>